M48
;DRILL file {KiCad 4.0.4+dfsg1-stable} date Sat Nov 19 15:53:23 2016
;FORMAT={-:-/ absolute / metric / decimal}
FMAT,2
METRIC,TZ
T1C0.400
T2C0.599
T3C1.000
%
G90
G05
M71
T1
X122.5Y-80.
X122.5Y-102.5
X122.5Y-107.5
X122.5Y-115.
X125.Y-95.
X126.5Y-90.
X126.5Y-106.6
X127.3Y-71.3
X127.5Y-85.
X128.5Y-95.
X129.Y-110.5
X129.577Y-101.887
X130.Y-67.5
X130.Y-116.
X130.5Y-95.5
X131.53Y-101.47
X131.75Y-100.6
X132.Y-73.
X132.5Y-85.
X132.5Y-110.
X135.Y-67.5
X135.Y-117.5
X137.5Y-80.
X137.5Y-85.
X138.153Y-95.125
X138.25Y-92.
X138.253Y-93.369
X139.Y-93.875
X139.55Y-97.5
X140.Y-67.5
X140.Y-107.
X142.375Y-96.628
X142.5Y-77.5
X142.5Y-83.8
X143.25Y-93.
X143.5Y-112.5
X144.Y-97.
X144.5Y-98.
X144.6Y-121.15
X144.6Y-122.
X144.6Y-122.85
X145.Y-100.
X145.4Y-121.15
X145.4Y-122.
X145.4Y-122.85
X145.5Y-99.
X146.Y-97.5
X146.Y-103.75
X146.625Y-103.134
X147.25Y-112.5
X147.36Y-101.66
X147.856Y-104.816
X148.Y-98.
X148.5Y-76.
X148.5Y-97.
X148.588Y-93.575
X150.5Y-109.25
X150.701Y-95.258
X151.03Y-111.47
X151.149Y-108.567
X151.5Y-96.
X151.75Y-100.5
X151.816Y-108.125
X152.25Y-110.75
X152.5Y-85.
X152.5Y-90.
X152.5Y-91.5
X152.5Y-99.875
X152.5Y-106.625
X152.5Y-120.
X153.25Y-109.5
X154.Y-68.
X154.533Y-106.625
X154.75Y-98.75
X156.Y-81.25
X157.5Y-85.
X160.25Y-101.
X161.Y-70.
X162.Y-120.
X162.5Y-75.
X162.5Y-80.
X162.5Y-85.
X162.5Y-95.1
X163.75Y-116.25
X167.5Y-75.
X167.5Y-80.
X167.5Y-100.
X167.5Y-105.
T2
X133.25Y-96.751
X133.25Y-98.249
T3
X141.25Y-80.
X141.25Y-85.
X143.75Y-80.
X143.75Y-85.
X146.25Y-80.
X146.25Y-85.
X148.75Y-80.
X148.75Y-85.
T0
M30
