G04 #@! TF.GenerationSoftware,KiCad,Pcbnew,no-vcs-found-7433~57~ubuntu16.10.1*
G04 #@! TF.CreationDate,2017-01-13T10:15:15+01:00*
G04 #@! TF.ProjectId,can-node,63616E2D6E6F64652E6B696361645F70,1.1*
G04 #@! TF.FileFunction,Copper,L1,Top,Signal*
G04 #@! TF.FilePolarity,Positive*
%FSLAX46Y46*%
G04 Gerber Fmt 4.6, Leading zero omitted, Abs format (unit mm)*
G04 Created by KiCad (PCBNEW no-vcs-found-7433~57~ubuntu16.10.1) date Fri Jan 13 10:15:15 2017*
%MOMM*%
%LPD*%
G01*
G04 APERTURE LIST*
%ADD10C,0.100000*%
%ADD11R,0.600000X1.100000*%
%ADD12R,2.200000X0.600000*%
%ADD13C,1.500000*%
%ADD14R,0.750000X0.800000*%
%ADD15R,0.400000X0.600000*%
%ADD16R,0.800000X0.750000*%
%ADD17R,2.500000X3.000000*%
%ADD18R,1.600000X1.000000*%
%ADD19R,1.000000X1.250000*%
%ADD20R,1.000000X0.250000*%
%ADD21R,0.250000X1.000000*%
%ADD22R,0.600000X0.500000*%
%ADD23R,0.900000X0.450000*%
%ADD24R,2.500000X1.000000*%
%ADD25R,1.000000X1.600000*%
%ADD26R,1.250000X1.000000*%
%ADD27R,0.500000X0.600000*%
%ADD28R,3.500120X1.800860*%
%ADD29R,1.800860X3.500120*%
%ADD30R,1.220000X0.910000*%
%ADD31R,0.797560X0.797560*%
%ADD32R,3.500000X5.500000*%
%ADD33R,0.900000X1.700000*%
%ADD34R,0.600000X0.400000*%
%ADD35R,0.800000X0.800000*%
%ADD36R,0.400000X0.900000*%
%ADD37R,1.000000X0.500000*%
%ADD38R,1.600000X2.500000*%
%ADD39C,0.600000*%
%ADD40C,1.000000*%
%ADD41C,1.400000*%
%ADD42C,2.000000*%
%ADD43R,2.000000X2.000000*%
%ADD44R,1.300000X0.700000*%
%ADD45C,0.250000*%
%ADD46C,0.500000*%
%ADD47C,0.750000*%
%ADD48C,0.254000*%
G04 APERTURE END LIST*
D10*
D11*
X149050000Y-70350000D03*
X150000000Y-70350000D03*
X150950000Y-70350000D03*
X149050000Y-67650000D03*
X150000000Y-67650000D03*
X150950000Y-67650000D03*
D12*
X138700000Y-71095000D03*
X133300000Y-71095000D03*
X138700000Y-72365000D03*
X133300000Y-72365000D03*
X138700000Y-73635000D03*
X133300000Y-73635000D03*
X138700000Y-74905000D03*
X133300000Y-74905000D03*
D13*
X136110000Y-78420000D03*
X138650000Y-78420000D03*
X141190000Y-78420000D03*
X143730000Y-78420000D03*
X148810000Y-78420000D03*
X153890000Y-78420000D03*
X153890000Y-88580000D03*
X151350000Y-88580000D03*
X148810000Y-88580000D03*
X146270000Y-88580000D03*
X143730000Y-88580000D03*
X141190000Y-88580000D03*
X138650000Y-88580000D03*
X136110000Y-88580000D03*
D14*
X145000000Y-93250000D03*
X145000000Y-94750000D03*
D15*
X137550000Y-92500000D03*
X138450000Y-92500000D03*
X137550000Y-95500000D03*
X138450000Y-95500000D03*
D16*
X137250000Y-94000000D03*
X138750000Y-94000000D03*
D17*
X138750000Y-98500000D03*
D18*
X145000000Y-99800000D03*
X145000000Y-97200000D03*
D19*
X150500000Y-91250000D03*
X152500000Y-91250000D03*
D20*
X149300000Y-97250000D03*
X149300000Y-97750000D03*
X149300000Y-98250000D03*
X149300000Y-98750000D03*
X149300000Y-99250000D03*
X149300000Y-99750000D03*
X149300000Y-100250000D03*
X149300000Y-100750000D03*
X149300000Y-101250000D03*
X149300000Y-101750000D03*
X149300000Y-102250000D03*
X149300000Y-102750000D03*
X149300000Y-103250000D03*
X149300000Y-103750000D03*
X149300000Y-104250000D03*
X149300000Y-104750000D03*
D21*
X151250000Y-106700000D03*
X151750000Y-106700000D03*
X152250000Y-106700000D03*
X152750000Y-106700000D03*
X153250000Y-106700000D03*
X153750000Y-106700000D03*
X154250000Y-106700000D03*
X154750000Y-106700000D03*
X155250000Y-106700000D03*
X155750000Y-106700000D03*
X156250000Y-106700000D03*
X156750000Y-106700000D03*
X157250000Y-106700000D03*
X157750000Y-106700000D03*
X158250000Y-106700000D03*
X158750000Y-106700000D03*
D20*
X160700000Y-104750000D03*
X160700000Y-104250000D03*
X160700000Y-103750000D03*
X160700000Y-103250000D03*
X160700000Y-102750000D03*
X160700000Y-102250000D03*
X160700000Y-101750000D03*
X160700000Y-101250000D03*
X160700000Y-100750000D03*
X160700000Y-100250000D03*
X160700000Y-99750000D03*
X160700000Y-99250000D03*
X160700000Y-98750000D03*
X160700000Y-98250000D03*
X160700000Y-97750000D03*
X160700000Y-97250000D03*
D21*
X158750000Y-95300000D03*
X158250000Y-95300000D03*
X157750000Y-95300000D03*
X157250000Y-95300000D03*
X156750000Y-95300000D03*
X156250000Y-95300000D03*
X155750000Y-95300000D03*
X155250000Y-95300000D03*
X154750000Y-95300000D03*
X154250000Y-95300000D03*
X153750000Y-95300000D03*
X153250000Y-95300000D03*
X152750000Y-95300000D03*
X152250000Y-95300000D03*
X151750000Y-95300000D03*
X151250000Y-95300000D03*
D22*
X155650000Y-123700000D03*
X156750000Y-123700000D03*
D23*
X140700000Y-94975000D03*
X143300000Y-94975000D03*
X140700000Y-94325000D03*
X143300000Y-94325000D03*
X140700000Y-93675000D03*
X143300000Y-93675000D03*
X140700000Y-93025000D03*
X143300000Y-93025000D03*
D24*
X148000000Y-72500000D03*
X148000000Y-75500000D03*
D19*
X155000000Y-66750000D03*
X153000000Y-66750000D03*
D25*
X159000000Y-75500000D03*
X156000000Y-75500000D03*
D26*
X145250000Y-104250000D03*
X145250000Y-102250000D03*
D27*
X165000000Y-105450000D03*
X165000000Y-106550000D03*
D26*
X164750000Y-96500000D03*
X164750000Y-98500000D03*
D22*
X135650000Y-123700000D03*
X136750000Y-123700000D03*
D28*
X128999360Y-74500000D03*
X124000640Y-74500000D03*
D29*
X143000000Y-73999360D03*
X143000000Y-69000640D03*
D30*
X151000000Y-75635000D03*
X151000000Y-72365000D03*
D31*
X159000000Y-118250700D03*
X159000000Y-119749300D03*
X161250000Y-118251400D03*
X161250000Y-119750000D03*
D32*
X154900000Y-71000000D03*
X160100000Y-71000000D03*
D33*
X137450000Y-68500000D03*
X134550000Y-68500000D03*
D15*
X146550000Y-70500000D03*
X147450000Y-70500000D03*
X150450000Y-66000000D03*
X149550000Y-66000000D03*
X148450000Y-66000000D03*
X147550000Y-66000000D03*
D34*
X166000000Y-109450000D03*
X166000000Y-108550000D03*
X167500000Y-109450000D03*
X167500000Y-108550000D03*
X159000000Y-121950000D03*
X159000000Y-121050000D03*
X161250000Y-121950000D03*
X161250000Y-121050000D03*
D15*
X133350000Y-123700000D03*
X134250000Y-123700000D03*
X148050000Y-110500000D03*
X148950000Y-110500000D03*
X152450000Y-110500000D03*
X151550000Y-110500000D03*
X154250000Y-123700000D03*
X153350000Y-123700000D03*
D35*
X135800000Y-122100000D03*
X134200000Y-117900000D03*
X134200000Y-122100000D03*
X135800000Y-117900000D03*
X155800000Y-122100000D03*
X154200000Y-117900000D03*
X154200000Y-122100000D03*
X155800000Y-117900000D03*
D36*
X166300000Y-104900000D03*
X166300000Y-107100000D03*
X166950000Y-107100000D03*
X167600000Y-104900000D03*
X167600000Y-107100000D03*
D37*
X143500000Y-121000000D03*
X143500000Y-122000000D03*
X143500000Y-123000000D03*
X146500000Y-121000000D03*
X146500000Y-122000000D03*
X146500000Y-123000000D03*
D38*
X145000000Y-122000000D03*
D39*
X145400000Y-121150000D03*
X145400000Y-122850000D03*
X145400000Y-122000000D03*
X144600000Y-121150000D03*
X144600000Y-122850000D03*
X144600000Y-122000000D03*
D19*
X146100000Y-106000000D03*
X143900000Y-106000000D03*
D15*
X145450000Y-107700000D03*
X144550000Y-107700000D03*
D14*
X147250000Y-102500000D03*
X147250000Y-104000000D03*
X161000000Y-110000000D03*
X161000000Y-108500000D03*
D16*
X150750000Y-93250000D03*
X152250000Y-93250000D03*
X157750000Y-108750000D03*
X159250000Y-108750000D03*
X152750000Y-108750000D03*
X151250000Y-108750000D03*
D14*
X148000000Y-122750000D03*
X148000000Y-121250000D03*
X147500000Y-106250000D03*
X147500000Y-107750000D03*
X147250000Y-97500000D03*
X147250000Y-96000000D03*
X147250000Y-99500000D03*
X147250000Y-101000000D03*
X162750000Y-98250000D03*
X162750000Y-96750000D03*
D40*
X146812000Y-93218000D03*
X141200000Y-91300000D03*
X162306000Y-101854000D03*
X154600000Y-93400000D03*
D41*
X126500000Y-91250000D03*
X126500000Y-93750000D03*
X126500000Y-96250000D03*
X126500000Y-98750000D03*
X131500000Y-91250000D03*
X131500000Y-93750000D03*
X131500000Y-96250000D03*
X131500000Y-98750000D03*
D13*
X135890000Y-102870000D03*
D35*
X129200000Y-117900000D03*
X130800000Y-122100000D03*
X130800000Y-117900000D03*
X129200000Y-122100000D03*
D13*
X135890000Y-113030000D03*
D42*
X123800000Y-107200000D03*
D43*
X133800000Y-107200000D03*
D30*
X139000000Y-103365000D03*
X139000000Y-106635000D03*
D44*
X139000000Y-110950000D03*
X139000000Y-109050000D03*
D39*
X145600000Y-70500000D03*
X136600000Y-73600000D03*
X146900000Y-110900000D03*
X139269285Y-102153183D03*
X121920000Y-102870000D03*
X121920000Y-113030000D03*
X158496000Y-91186000D03*
X157480000Y-100076000D03*
X156466279Y-108783658D03*
X157000000Y-109499988D03*
X125000000Y-83000000D03*
X121500000Y-83000000D03*
X152900000Y-86000000D03*
X157000000Y-88000000D03*
X168000000Y-86000000D03*
X136000000Y-76000000D03*
X145000000Y-66000000D03*
X128000000Y-66000000D03*
X136000000Y-66000000D03*
X135400000Y-100900000D03*
X135300000Y-97300000D03*
X135800000Y-94500000D03*
X141700000Y-101300000D03*
X164900000Y-100060002D03*
X164500000Y-108000000D03*
X151400000Y-113100000D03*
X144800000Y-113099992D03*
X152000000Y-109500000D03*
X158000000Y-80000000D03*
X165000000Y-80000002D03*
X144018000Y-91440000D03*
X145796000Y-93980000D03*
X148336000Y-96012000D03*
X148844000Y-90170000D03*
X153391467Y-93524635D03*
X160042957Y-113082298D03*
X169250000Y-96250000D03*
X169250000Y-105000000D03*
X167374990Y-113604093D03*
X129000000Y-85500000D03*
X129000000Y-82000000D03*
X129000000Y-78500000D03*
X147500000Y-68750000D03*
X124000000Y-72500000D03*
X145750000Y-75500000D03*
X162500000Y-66750000D03*
X165000000Y-75000000D03*
X153500000Y-75250000D03*
X156500000Y-66500000D03*
X155600004Y-110300000D03*
X139900000Y-85999998D03*
X137099994Y-86000000D03*
X159766000Y-79756000D03*
X162750000Y-91000000D03*
X157500000Y-81500000D03*
X150750000Y-84000000D03*
X144750000Y-86000000D03*
X149822807Y-94206706D03*
X143861784Y-104522114D03*
X144800000Y-111699996D03*
X154242933Y-102759034D03*
X166500000Y-103620010D03*
X160500000Y-107500000D03*
X148338460Y-100432692D03*
X139852970Y-114081930D03*
X150114000Y-113928990D03*
X162712479Y-99450868D03*
X158496000Y-93726000D03*
X148200000Y-67600000D03*
X130200000Y-116200000D03*
X165728755Y-107655143D03*
X144700000Y-110200000D03*
X152400000Y-101900000D03*
X149352000Y-109728000D03*
X150857100Y-109625002D03*
X156484678Y-97605329D03*
X157400000Y-107874998D03*
X156500000Y-94000000D03*
X155200000Y-97425010D03*
X155874990Y-93300000D03*
X155859668Y-96800000D03*
X159500000Y-98750000D03*
X162750000Y-100250000D03*
X167500000Y-96600000D03*
X150305453Y-100600045D03*
X151680213Y-101285091D03*
X150441098Y-101850057D03*
X151000000Y-97999996D03*
X153087791Y-98788105D03*
X157226000Y-93472000D03*
X157700000Y-96900000D03*
X153809212Y-100089145D03*
X154100008Y-100900000D03*
X154849994Y-108013378D03*
X156500000Y-105400000D03*
X154147484Y-101964736D03*
X157168024Y-102100000D03*
X147200000Y-105100000D03*
X152658404Y-105788061D03*
X151552000Y-105130000D03*
X153162000Y-107700002D03*
X153763447Y-108433314D03*
X129800000Y-71300000D03*
X154601405Y-108793933D03*
X156440840Y-107984051D03*
X139000000Y-112000000D03*
D45*
X146550000Y-70500000D02*
X145600000Y-70500000D01*
X136600000Y-73600000D02*
X138665000Y-73600000D01*
X138665000Y-73600000D02*
X138700000Y-73635000D01*
D46*
X150000000Y-70350000D02*
X150000000Y-71400000D01*
X150000000Y-71400000D02*
X148900000Y-72500000D01*
X148900000Y-72500000D02*
X148000000Y-72500000D01*
X146550000Y-70500000D02*
X146550000Y-71050000D01*
X146550000Y-71050000D02*
X148000000Y-72500000D01*
X143000000Y-73999360D02*
X147500640Y-73999360D01*
X147500640Y-73999360D02*
X148000000Y-73500000D01*
X148000000Y-73500000D02*
X148000000Y-72500000D01*
X138700000Y-72365000D02*
X141365640Y-72365000D01*
X141365640Y-72365000D02*
X143000000Y-73999360D01*
X138700000Y-74905000D02*
X142094360Y-74905000D01*
X142094360Y-74905000D02*
X143000000Y-73999360D01*
X138700000Y-72365000D02*
X138700000Y-73635000D01*
X138700000Y-74905000D02*
X138700000Y-73635000D01*
X142635640Y-74635000D02*
X143000000Y-74999360D01*
D45*
X135419531Y-101749467D02*
X139073003Y-101749467D01*
X134814999Y-103386001D02*
X134814999Y-102353999D01*
X137200000Y-105771002D02*
X134814999Y-103386001D01*
X137200000Y-113099992D02*
X137200000Y-105771002D01*
X134814999Y-102353999D02*
X135419531Y-101749467D01*
X139269285Y-101945749D02*
X139269285Y-102153183D01*
X139073003Y-101749467D02*
X139269285Y-101945749D01*
D46*
X133350000Y-113030000D02*
X121920000Y-113030000D01*
X160274000Y-96012000D02*
X160274000Y-92964000D01*
X160274000Y-92964000D02*
X158496000Y-91186000D01*
X157779999Y-98506001D02*
X160274000Y-96012000D01*
X157480000Y-100076000D02*
X157779999Y-99776001D01*
X157779999Y-99776001D02*
X157779999Y-98506001D01*
D45*
X156499937Y-108750000D02*
X156466279Y-108783658D01*
X157750000Y-108750000D02*
X156499937Y-108750000D01*
X157299999Y-109199989D02*
X157000000Y-109499988D01*
X158249988Y-108250000D02*
X157299999Y-109199989D01*
X158250000Y-108250000D02*
X158249988Y-108250000D01*
X158250000Y-107900000D02*
X158250000Y-108250000D01*
D46*
X135890000Y-113030000D02*
X133350000Y-113030000D01*
X137200000Y-113099992D02*
X137130008Y-113030000D01*
X137130008Y-113030000D02*
X135890000Y-113030000D01*
X138430000Y-113099992D02*
X137200000Y-113099992D01*
X142099992Y-113099992D02*
X138430000Y-113099992D01*
X144800000Y-113099992D02*
X142099992Y-113099992D01*
D45*
X138223536Y-100900000D02*
X139073003Y-101749467D01*
X135400000Y-100900000D02*
X138223536Y-100900000D01*
X130800000Y-117900000D02*
X130800000Y-117250000D01*
X130800000Y-117250000D02*
X133558001Y-114491999D01*
X133558001Y-114491999D02*
X133608001Y-114491999D01*
X133608001Y-114491999D02*
X133673000Y-114427000D01*
X133673000Y-114427000D02*
X136779000Y-114427000D01*
X136779000Y-114427000D02*
X137200000Y-114006000D01*
X137200000Y-114006000D02*
X137200000Y-113099992D01*
D47*
X122250000Y-83000000D02*
X122250000Y-76250640D01*
X122250000Y-89500000D02*
X122250000Y-83000000D01*
X122250000Y-83000000D02*
X121500000Y-83000000D01*
D46*
X152500000Y-91250000D02*
X152500000Y-90125000D01*
X152500000Y-90125000D02*
X152550001Y-90074999D01*
X152550001Y-90074999D02*
X152550001Y-86349999D01*
X152550001Y-86349999D02*
X152900000Y-86000000D01*
X156000000Y-88200000D02*
X156000000Y-91250000D01*
X156000000Y-78500000D02*
X156000000Y-88200000D01*
X156000000Y-88200000D02*
X156800000Y-88200000D01*
X156800000Y-88200000D02*
X157000000Y-88000000D01*
X165000000Y-85900000D02*
X165000000Y-80424266D01*
X165000000Y-92000000D02*
X165000000Y-85900000D01*
X165000000Y-85900000D02*
X167900000Y-85900000D01*
X167900000Y-85900000D02*
X168000000Y-86000000D01*
X136000000Y-66000000D02*
X145000000Y-66000000D01*
X136000000Y-66000000D02*
X128000000Y-66000000D01*
D45*
X137250000Y-94000000D02*
X136300000Y-94000000D01*
X136300000Y-94000000D02*
X135800000Y-94500000D01*
D46*
X141999999Y-101599999D02*
X141700000Y-101300000D01*
X142650000Y-102250000D02*
X141999999Y-101599999D01*
X145250000Y-102250000D02*
X142650000Y-102250000D01*
D45*
X141999999Y-101000001D02*
X141700000Y-101300000D01*
X147250000Y-101000000D02*
X141999999Y-101000001D01*
D46*
X164750000Y-98500000D02*
X164750000Y-99910002D01*
X164750000Y-99910002D02*
X164900000Y-100060002D01*
D45*
X165000000Y-106550000D02*
X165000000Y-107500000D01*
X165000000Y-107500000D02*
X164500000Y-108000000D01*
X158250000Y-106700000D02*
X158250000Y-107900000D01*
D46*
X151417702Y-113082298D02*
X151400000Y-113100000D01*
X160042957Y-113082298D02*
X151417702Y-113082298D01*
D47*
X131500000Y-93750000D02*
X126500000Y-93750000D01*
D45*
X151250000Y-108750000D02*
X152000000Y-109500000D01*
X145374999Y-108325001D02*
X144089999Y-108325001D01*
X145450000Y-107700000D02*
X145450000Y-108250000D01*
X145450000Y-108250000D02*
X145374999Y-108325001D01*
X144089999Y-108325001D02*
X143074999Y-107310001D01*
X143074999Y-104300001D02*
X145125000Y-102250000D01*
X143074999Y-107310001D02*
X143074999Y-104300001D01*
X145125000Y-102250000D02*
X145250000Y-102250000D01*
X147450000Y-107700000D02*
X145450000Y-107700000D01*
X147500000Y-107750000D02*
X147450000Y-107700000D01*
X142500000Y-122000000D02*
X142500000Y-120500000D01*
X142500000Y-120500000D02*
X144250000Y-118750000D01*
X144250000Y-118750000D02*
X144250000Y-113650000D01*
X143700000Y-113100000D02*
X143100000Y-113100000D01*
X144250000Y-113650000D02*
X143700000Y-113100000D01*
D46*
X156500000Y-78500000D02*
X157700001Y-79700001D01*
X156000000Y-78500000D02*
X156500000Y-78500000D01*
X157700001Y-79700001D02*
X158000000Y-80000000D01*
X165000000Y-80424266D02*
X165000000Y-80000002D01*
X169250000Y-96250000D02*
X165000000Y-92000000D01*
D45*
X144018000Y-91440000D02*
X145288000Y-90170000D01*
X145288000Y-90170000D02*
X148844000Y-90170000D01*
X145796000Y-93980000D02*
X145770000Y-93980000D01*
X145770000Y-93980000D02*
X145000000Y-94750000D01*
X147250000Y-96000000D02*
X148324000Y-96000000D01*
X148324000Y-96000000D02*
X148336000Y-96012000D01*
D46*
X145250000Y-102250000D02*
X147000000Y-102250000D01*
X147000000Y-102250000D02*
X147250000Y-102500000D01*
D45*
X130800000Y-122100000D02*
X130800000Y-122750000D01*
X130800000Y-122750000D02*
X132375001Y-124325001D01*
X132375001Y-124325001D02*
X136074999Y-124325001D01*
X136074999Y-124325001D02*
X136700000Y-123700000D01*
X136700000Y-123700000D02*
X136750000Y-123700000D01*
X130800000Y-117900000D02*
X130800000Y-118550000D01*
X130800000Y-118550000D02*
X130800000Y-122100000D01*
X135800000Y-122100000D02*
X135800000Y-121450000D01*
X135800000Y-121450000D02*
X135800000Y-117900000D01*
X136750000Y-123700000D02*
X136750000Y-123050000D01*
X136750000Y-123050000D02*
X135800000Y-122100000D01*
X156750000Y-123700000D02*
X156750000Y-123050000D01*
X156750000Y-123050000D02*
X155800000Y-122100000D01*
X159000000Y-121950000D02*
X159000000Y-122400000D01*
X159000000Y-122400000D02*
X157700000Y-123700000D01*
X157700000Y-123700000D02*
X157300000Y-123700000D01*
X157300000Y-123700000D02*
X156750000Y-123700000D01*
X161250000Y-121950000D02*
X159000000Y-121950000D01*
X162306000Y-120076562D02*
X162306000Y-120994000D01*
X162306000Y-120994000D02*
X161350000Y-121950000D01*
X161350000Y-121950000D02*
X161250000Y-121950000D01*
X167019908Y-113904092D02*
X167019908Y-115362654D01*
X167019908Y-115362654D02*
X162306000Y-120076562D01*
X167374990Y-113604093D02*
X167074991Y-113904092D01*
X167074991Y-113904092D02*
X167019908Y-113904092D01*
X155800000Y-122100000D02*
X155800000Y-121450000D01*
X155800000Y-121450000D02*
X155800000Y-117900000D01*
D46*
X153150000Y-93250000D02*
X153391467Y-93491467D01*
X152250000Y-93250000D02*
X153150000Y-93250000D01*
X153391467Y-93491467D02*
X153391467Y-93524635D01*
X169250000Y-105000000D02*
X169250000Y-111729083D01*
X169250000Y-111729083D02*
X167674989Y-113304094D01*
X167674989Y-113304094D02*
X167374990Y-113604093D01*
D45*
X158250000Y-108250000D02*
X157750000Y-108750000D01*
D46*
X162750000Y-98250000D02*
X164500000Y-98250000D01*
X164500000Y-98250000D02*
X164750000Y-98500000D01*
X156000000Y-75500000D02*
X156000000Y-78500000D01*
D45*
X151750000Y-106700000D02*
X151750000Y-108250000D01*
X151750000Y-108250000D02*
X151250000Y-108750000D01*
X142500000Y-122000000D02*
X142500000Y-123335002D01*
X142500000Y-123335002D02*
X143164998Y-124000000D01*
X143164998Y-124000000D02*
X147400000Y-124000000D01*
X147400000Y-124000000D02*
X148000000Y-123400000D01*
X148000000Y-123400000D02*
X148000000Y-122750000D01*
X143300000Y-94325000D02*
X144575000Y-94325000D01*
X144575000Y-94325000D02*
X145000000Y-94750000D01*
X149300000Y-102750000D02*
X147500000Y-102750000D01*
X147550000Y-66000000D02*
X147550000Y-68700000D01*
X147550000Y-68700000D02*
X147500000Y-68750000D01*
D46*
X150000000Y-67650000D02*
X150000000Y-68700000D01*
X150000000Y-68700000D02*
X149950000Y-68750000D01*
X149950000Y-68750000D02*
X147500000Y-68750000D01*
X165000000Y-75000000D02*
X162500000Y-72500000D01*
X162500000Y-72500000D02*
X162500000Y-66750000D01*
X151000000Y-75635000D02*
X153115000Y-75635000D01*
X153115000Y-75635000D02*
X153500000Y-75250000D01*
X124000000Y-72500000D02*
X124000000Y-74499360D01*
X124000000Y-74499360D02*
X124000640Y-74500000D01*
X148000000Y-75500000D02*
X145750000Y-75500000D01*
D47*
X122250000Y-76250640D02*
X124000640Y-74500000D01*
D46*
X156000000Y-91250000D02*
X152500000Y-91250000D01*
D45*
X147500000Y-102750000D02*
X147250000Y-102500000D01*
X151750000Y-95300000D02*
X151750000Y-93750000D01*
X151750000Y-93750000D02*
X152250000Y-93250000D01*
X160700000Y-97750000D02*
X162250000Y-97750000D01*
X162250000Y-97750000D02*
X162750000Y-98250000D01*
X143500000Y-122000000D02*
X142500000Y-122000000D01*
D47*
X126500000Y-93750000D02*
X122250000Y-89500000D01*
D45*
X155000000Y-66750000D02*
X156250000Y-66750000D01*
X156250000Y-66750000D02*
X156500000Y-66500000D01*
D46*
X150950000Y-70350000D02*
X154250000Y-70350000D01*
X154250000Y-70350000D02*
X154900000Y-71000000D01*
X150950000Y-67550000D02*
X151750000Y-66750000D01*
X151750000Y-66750000D02*
X153000000Y-66750000D01*
X150950000Y-67650000D02*
X150950000Y-67550000D01*
X150950000Y-67650000D02*
X150950000Y-67400000D01*
X139000000Y-103365000D02*
X136385000Y-103365000D01*
X136385000Y-103365000D02*
X135890000Y-102870000D01*
X158571996Y-90000000D02*
X159000000Y-90000000D01*
X156196996Y-92375000D02*
X158571996Y-90000000D01*
X151500000Y-92375000D02*
X156196996Y-92375000D01*
X150500000Y-91375000D02*
X151500000Y-92375000D01*
X150500000Y-91250000D02*
X150500000Y-91375000D01*
X155175740Y-110300000D02*
X155600004Y-110300000D01*
X153800000Y-109800000D02*
X154300000Y-110300000D01*
X159225000Y-108750000D02*
X157675000Y-110300000D01*
X156024268Y-110300000D02*
X155600004Y-110300000D01*
X154300000Y-110300000D02*
X155175740Y-110300000D01*
X159250000Y-108750000D02*
X159225000Y-108750000D01*
X157675000Y-110300000D02*
X156024268Y-110300000D01*
D45*
X137099994Y-86000000D02*
X139899998Y-86000000D01*
X139899998Y-86000000D02*
X139900000Y-85999998D01*
X144750000Y-86000000D02*
X139900002Y-86000000D01*
X139900002Y-86000000D02*
X139900000Y-85999998D01*
X166000000Y-109450000D02*
X165024996Y-109450000D01*
X165000000Y-105500000D02*
X165000000Y-105450000D01*
X166300000Y-104900000D02*
X166300000Y-105400000D01*
X166300000Y-105400000D02*
X166250000Y-105450000D01*
X166250000Y-105450000D02*
X165000000Y-105450000D01*
X165700001Y-104199999D02*
X165000000Y-104900000D01*
X164750000Y-96500000D02*
X164875000Y-96500000D01*
X164875000Y-96500000D02*
X165700001Y-97325001D01*
X165700001Y-97325001D02*
X165700001Y-104199999D01*
X165000000Y-104900000D02*
X165000000Y-105450000D01*
X167500000Y-109450000D02*
X166000000Y-109450000D01*
D46*
X152750000Y-108750000D02*
X153800000Y-109800000D01*
D45*
X146100000Y-106000000D02*
X146100000Y-105100000D01*
X148050000Y-110400000D02*
X147600000Y-109950000D01*
X148050000Y-110500000D02*
X148050000Y-110400000D01*
X148000000Y-121250000D02*
X148000000Y-121000000D01*
X145796000Y-118796000D02*
X145796000Y-114300000D01*
X145796000Y-114300000D02*
X148674998Y-114300000D01*
X148674998Y-114300000D02*
X151599999Y-111374999D01*
X151599999Y-111374999D02*
X151675001Y-111374999D01*
X151675001Y-111374999D02*
X152450000Y-110600000D01*
X148000000Y-121000000D02*
X145796000Y-118796000D01*
X152450000Y-110600000D02*
X152450000Y-110500000D01*
X152450000Y-110500000D02*
X152900000Y-110500000D01*
X152900000Y-110500000D02*
X153600000Y-109800000D01*
X153600000Y-109800000D02*
X153800000Y-109800000D01*
D46*
X150500000Y-91250000D02*
X148590000Y-91250000D01*
X148590000Y-91250000D02*
X146350000Y-91250000D01*
X149822807Y-94206706D02*
X149822807Y-93782442D01*
X148590000Y-92549635D02*
X148590000Y-91250000D01*
X149822807Y-93782442D02*
X148590000Y-92549635D01*
X145000000Y-92600000D02*
X145000000Y-93250000D01*
X146350000Y-91250000D02*
X145000000Y-92600000D01*
X147000000Y-104250000D02*
X147250000Y-104000000D01*
X159000000Y-75500000D02*
X159000000Y-79756000D01*
X159000000Y-79756000D02*
X159000000Y-81500000D01*
D45*
X159766000Y-79756000D02*
X159000000Y-79756000D01*
X146500000Y-122000000D02*
X147250000Y-122000000D01*
X147250000Y-122000000D02*
X148000000Y-121250000D01*
D46*
X161250000Y-92250000D02*
X164750000Y-95750000D01*
X161500000Y-92250000D02*
X162750000Y-91000000D01*
X159000000Y-90000000D02*
X161250000Y-92250000D01*
X161250000Y-92250000D02*
X161500000Y-92250000D01*
X159000000Y-81500000D02*
X159000000Y-90000000D01*
D45*
X157500000Y-81500000D02*
X159000000Y-81500000D01*
X144750000Y-86000000D02*
X148750000Y-86000000D01*
X148750000Y-86000000D02*
X150750000Y-84000000D01*
X150750000Y-93250000D02*
X150750000Y-91500000D01*
X150750000Y-91500000D02*
X150500000Y-91250000D01*
X158750000Y-106700000D02*
X158750000Y-108250000D01*
X158750000Y-108250000D02*
X159250000Y-108750000D01*
D46*
X152750000Y-108750000D02*
X152775000Y-108750000D01*
X164750000Y-95750000D02*
X164750000Y-96500000D01*
D45*
X152250000Y-106700000D02*
X152250000Y-108250000D01*
X152250000Y-108250000D02*
X152750000Y-108750000D01*
X151250000Y-95300000D02*
X151250000Y-93750000D01*
X151250000Y-93750000D02*
X150750000Y-93250000D01*
X143300000Y-93675000D02*
X144575000Y-93675000D01*
X144575000Y-93675000D02*
X145000000Y-93250000D01*
X149300000Y-103250000D02*
X148000000Y-103250000D01*
X148000000Y-103250000D02*
X147250000Y-104000000D01*
X150450000Y-66000000D02*
X150450000Y-65900000D01*
X150450000Y-65900000D02*
X150600000Y-65750000D01*
X150600000Y-65750000D02*
X158250000Y-65750000D01*
X158250000Y-65750000D02*
X160100000Y-67600000D01*
X160100000Y-67600000D02*
X160100000Y-71000000D01*
X160100000Y-70000000D02*
X160100000Y-71000000D01*
D46*
X159000000Y-75500000D02*
X159000000Y-72100000D01*
X159000000Y-72100000D02*
X160100000Y-71000000D01*
D45*
X160700000Y-97250000D02*
X162250000Y-97250000D01*
X162250000Y-97250000D02*
X162750000Y-96750000D01*
D46*
X162750000Y-96750000D02*
X164500000Y-96750000D01*
X164500000Y-96750000D02*
X164750000Y-96500000D01*
D45*
X164300000Y-96950000D02*
X164750000Y-96500000D01*
D46*
X159000000Y-72600000D02*
X160100000Y-71500000D01*
D45*
X146549996Y-109950000D02*
X145099999Y-111399997D01*
X147600000Y-109950000D02*
X146549996Y-109950000D01*
X145099999Y-111399997D02*
X144800000Y-111699996D01*
X163874998Y-106625002D02*
X165000000Y-105500000D01*
X163874998Y-108300002D02*
X163874998Y-106625002D01*
X165024996Y-109450000D02*
X163874998Y-108300002D01*
D46*
X143861784Y-104513216D02*
X143861784Y-104522114D01*
X145250000Y-104250000D02*
X144125000Y-104250000D01*
X144125000Y-104250000D02*
X143861784Y-104513216D01*
D45*
X146100000Y-105100000D02*
X145250000Y-104250000D01*
D46*
X145250000Y-104250000D02*
X147000000Y-104250000D01*
D45*
X147250000Y-97500000D02*
X145300000Y-97500000D01*
X145300000Y-97500000D02*
X145000000Y-97200000D01*
X149300000Y-98250000D02*
X148000000Y-98250000D01*
X148000000Y-98250000D02*
X147250000Y-97500000D01*
X147250000Y-99500000D02*
X145300000Y-99500000D01*
X145300000Y-99500000D02*
X145000000Y-99800000D01*
X149300000Y-98750000D02*
X148000000Y-98750000D01*
X148000000Y-98750000D02*
X147250000Y-99500000D01*
X157500000Y-103500000D02*
X154983899Y-103500000D01*
X154983899Y-103500000D02*
X154542932Y-103059033D01*
X161000000Y-107000000D02*
X157500000Y-103500000D01*
X154542932Y-103059033D02*
X154242933Y-102759034D01*
X161000000Y-107500000D02*
X161000000Y-107000000D01*
X167600000Y-104900000D02*
X167600000Y-104650000D01*
X167600000Y-104650000D02*
X166570010Y-103620010D01*
X166570010Y-103620010D02*
X166500000Y-103620010D01*
X161000000Y-107500000D02*
X161000000Y-107850000D01*
X160500000Y-107500000D02*
X161000000Y-107500000D01*
X161000000Y-107850000D02*
X161000000Y-108500000D01*
X149300000Y-100250000D02*
X148521152Y-100250000D01*
X148521152Y-100250000D02*
X148338460Y-100432692D01*
X135000000Y-117305710D02*
X136930707Y-115375003D01*
X136930707Y-115375003D02*
X138559897Y-115375003D01*
X138559897Y-115375003D02*
X139552971Y-114381929D01*
X139552971Y-114381929D02*
X139852970Y-114081930D01*
X135000000Y-123318000D02*
X135000000Y-117305710D01*
X161661010Y-113928990D02*
X150538264Y-113928990D01*
X160700000Y-105125000D02*
X161798000Y-106223000D01*
X160700000Y-104750000D02*
X160700000Y-105125000D01*
X161798000Y-113792000D02*
X161661010Y-113928990D01*
X161798000Y-106223000D02*
X161798000Y-113792000D01*
X150538264Y-113928990D02*
X150114000Y-113928990D01*
X135000000Y-123318000D02*
X135000000Y-123572000D01*
X135000000Y-123572000D02*
X134872000Y-123700000D01*
X134872000Y-123700000D02*
X134250000Y-123700000D01*
X135000000Y-123318000D02*
X135000000Y-123600000D01*
X135000000Y-123600000D02*
X135100000Y-123700000D01*
X135100000Y-123700000D02*
X135650000Y-123700000D01*
X160700000Y-104750000D02*
X161075000Y-104750000D01*
X156294987Y-116020011D02*
X160206400Y-116020011D01*
X155074999Y-117239999D02*
X156294987Y-116020011D01*
X162248011Y-105048011D02*
X161450000Y-104250000D01*
X160206400Y-116020011D02*
X162248011Y-113978400D01*
X162248011Y-113978400D02*
X162248011Y-105048011D01*
X155074999Y-123174999D02*
X155074999Y-117239999D01*
X161450000Y-104250000D02*
X160700000Y-104250000D01*
X155600000Y-123700000D02*
X155074999Y-123174999D01*
X155600000Y-123700000D02*
X155650000Y-123700000D01*
X154974999Y-124325001D02*
X153425001Y-124325001D01*
X155600000Y-123700000D02*
X154974999Y-124325001D01*
X153425001Y-124325001D02*
X153350000Y-124250000D01*
X153350000Y-124250000D02*
X153350000Y-123700000D01*
X138450000Y-95500000D02*
X138450000Y-94300000D01*
X138450000Y-94300000D02*
X138750000Y-94000000D01*
X138450000Y-92500000D02*
X138450000Y-93700000D01*
X138450000Y-93700000D02*
X138750000Y-94000000D01*
D46*
X138700000Y-70295000D02*
X138700000Y-70150000D01*
X138700000Y-70150000D02*
X137450000Y-68900000D01*
X137450000Y-68900000D02*
X137450000Y-68500000D01*
X138700000Y-71095000D02*
X138700000Y-70295000D01*
X138700000Y-70295000D02*
X139994360Y-69000640D01*
X139994360Y-69000640D02*
X141599570Y-69000640D01*
X141599570Y-69000640D02*
X143000000Y-69000640D01*
D45*
X159648780Y-118250700D02*
X162698022Y-115201458D01*
X162698022Y-115201458D02*
X162698022Y-104657611D01*
X162698022Y-104657611D02*
X161790411Y-103750000D01*
X161450000Y-103750000D02*
X160700000Y-103750000D01*
X159000000Y-118250700D02*
X159648780Y-118250700D01*
X161790411Y-103750000D02*
X161450000Y-103750000D01*
X159000000Y-119749300D02*
X159000000Y-121050000D01*
X163148033Y-115704587D02*
X161250000Y-117602620D01*
X163148033Y-104471211D02*
X163148033Y-115704587D01*
X160700000Y-103250000D02*
X161926822Y-103250000D01*
X161926822Y-103250000D02*
X163148033Y-104471211D01*
X161250000Y-117602620D02*
X161250000Y-118251400D01*
X161250000Y-119750000D02*
X161250000Y-121050000D01*
X139900000Y-95500000D02*
X139274999Y-96125001D01*
X138075001Y-96125001D02*
X137550000Y-95600000D01*
X139274999Y-96125001D02*
X138075001Y-96125001D01*
X137550000Y-95600000D02*
X137550000Y-95500000D01*
X139900000Y-94425000D02*
X139900000Y-95500000D01*
X140700000Y-94325000D02*
X140000000Y-94325000D01*
X140000000Y-94325000D02*
X139900000Y-94425000D01*
X137550000Y-95500000D02*
X134750000Y-95500000D01*
X126500000Y-98750000D02*
X127489949Y-98750000D01*
X127489949Y-98750000D02*
X131500000Y-98750000D01*
X134750000Y-95500000D02*
X131500000Y-98750000D01*
X162412480Y-99150869D02*
X162712479Y-99450868D01*
X160700000Y-98250000D02*
X161511611Y-98250000D01*
X161511611Y-98250000D02*
X162412480Y-99150869D01*
X158750000Y-93980000D02*
X158496000Y-93726000D01*
X158750000Y-95300000D02*
X158750000Y-93980000D01*
X126500000Y-96250000D02*
X131500000Y-96250000D01*
X131500000Y-96250000D02*
X132489949Y-96250000D01*
X132489949Y-96250000D02*
X136239949Y-92500000D01*
X136239949Y-92500000D02*
X137100000Y-92500000D01*
X137550000Y-92500000D02*
X137550000Y-92400000D01*
X137550000Y-92400000D02*
X138075001Y-91874999D01*
X138075001Y-91874999D02*
X138910001Y-91874999D01*
X138910001Y-91874999D02*
X139924999Y-92889997D01*
X139924999Y-92889997D02*
X139924999Y-93599999D01*
X139924999Y-93599999D02*
X140000000Y-93675000D01*
X140000000Y-93675000D02*
X140700000Y-93675000D01*
X137100000Y-92500000D02*
X137550000Y-92500000D01*
X147450000Y-70500000D02*
X148900000Y-70500000D01*
X148900000Y-70500000D02*
X149050000Y-70350000D01*
X148200000Y-67600000D02*
X149000000Y-67600000D01*
X149000000Y-67600000D02*
X149050000Y-67650000D01*
X149550000Y-66000000D02*
X149000000Y-66000000D01*
X149000000Y-66000000D02*
X148450000Y-66000000D01*
X149050000Y-67650000D02*
X149050000Y-66050000D01*
X149050000Y-66050000D02*
X149000000Y-66000000D01*
X129200000Y-117200000D02*
X130200000Y-116200000D01*
X129200000Y-117900000D02*
X129200000Y-117200000D01*
X166000000Y-107926388D02*
X165728755Y-107655143D01*
X165728755Y-107230879D02*
X165728755Y-107655143D01*
X165850000Y-107100000D02*
X165728755Y-107221245D01*
X166300000Y-107100000D02*
X165850000Y-107100000D01*
X165728755Y-107221245D02*
X165728755Y-107230879D01*
X166000000Y-108550000D02*
X166000000Y-107926388D01*
X129200000Y-122100000D02*
X129200000Y-121450000D01*
X129200000Y-121450000D02*
X129200000Y-117900000D01*
X134200000Y-122100000D02*
X134200000Y-121450000D01*
X134200000Y-121450000D02*
X134200000Y-117900000D01*
X133350000Y-123700000D02*
X133350000Y-122950000D01*
X133350000Y-122950000D02*
X134200000Y-122100000D01*
X154200000Y-122100000D02*
X154200000Y-121450000D01*
X154200000Y-121450000D02*
X154200000Y-117900000D01*
X154200000Y-122100000D02*
X154200000Y-123650000D01*
X154200000Y-123650000D02*
X154250000Y-123700000D01*
D46*
X139000000Y-109050000D02*
X139000000Y-106635000D01*
D45*
X139300000Y-109050000D02*
X140400000Y-110150000D01*
X140450000Y-110200000D02*
X140400000Y-110150000D01*
X144700000Y-110200000D02*
X140450000Y-110200000D01*
X152300000Y-101000000D02*
X152400000Y-101100000D01*
X152400000Y-101100000D02*
X152400000Y-101900000D01*
X151800000Y-100500000D02*
X152300000Y-101000000D01*
X151400000Y-100500000D02*
X151800000Y-100500000D01*
X150200000Y-99300000D02*
X151400000Y-100500000D01*
X150200000Y-97400000D02*
X150200000Y-99300000D01*
X149300000Y-97250000D02*
X150050000Y-97250000D01*
X150050000Y-97250000D02*
X150200000Y-97400000D01*
X139000000Y-109050000D02*
X139300000Y-109050000D01*
X160700000Y-100750000D02*
X161909106Y-100750000D01*
X161909106Y-100750000D02*
X162306000Y-101146894D01*
X162306000Y-101146894D02*
X162306000Y-101854000D01*
X153250000Y-95300000D02*
X153250000Y-94650000D01*
X153250000Y-94650000D02*
X154000001Y-93899999D01*
X154000001Y-93899999D02*
X154100001Y-93899999D01*
X154100001Y-93899999D02*
X154600000Y-93400000D01*
X157750000Y-104988587D02*
X156816400Y-104054987D01*
X157750000Y-106700000D02*
X157750000Y-104988587D01*
X151106247Y-104054987D02*
X150000000Y-105161234D01*
X156816400Y-104054987D02*
X151106247Y-104054987D01*
X150000000Y-105161234D02*
X150000000Y-109982000D01*
X145423200Y-113399978D02*
X144849978Y-113973200D01*
X147204021Y-113399978D02*
X145423200Y-113399978D01*
X150000000Y-110604000D02*
X147204021Y-113399978D01*
X144849978Y-113973200D02*
X144849978Y-119150022D01*
X150000000Y-110500000D02*
X150000000Y-110604000D01*
X144849978Y-119150022D02*
X143500000Y-120500000D01*
X143500000Y-120500000D02*
X143500000Y-121000000D01*
X150000000Y-109982000D02*
X150000000Y-110500000D01*
X150000000Y-109982000D02*
X149606000Y-109982000D01*
X149606000Y-109982000D02*
X149352000Y-109728000D01*
X148950000Y-110500000D02*
X150000000Y-110500000D01*
X150524999Y-105272646D02*
X150524999Y-109982000D01*
X151292647Y-104504998D02*
X150524999Y-105272646D01*
X156630000Y-104504998D02*
X151292647Y-104504998D01*
X157250000Y-105124998D02*
X156630000Y-104504998D01*
X157250000Y-106700000D02*
X157250000Y-105124998D01*
X150557101Y-109925001D02*
X150857100Y-109625002D01*
X150524999Y-109982000D02*
X150524999Y-109957103D01*
X150524999Y-109957103D02*
X150557101Y-109925001D01*
X145609600Y-113849989D02*
X145299989Y-114159600D01*
X146500000Y-120500000D02*
X146500000Y-121000000D01*
X147390420Y-113849989D02*
X145609600Y-113849989D01*
X150524999Y-110715411D02*
X147390420Y-113849989D01*
X145299989Y-114159600D02*
X145299989Y-119299989D01*
X150524999Y-110500000D02*
X150524999Y-110715411D01*
X145299989Y-119299989D02*
X146500000Y-120500000D01*
X150524999Y-109982000D02*
X150524999Y-110500000D01*
X151550000Y-110500000D02*
X150524999Y-110500000D01*
X155825001Y-96125001D02*
X156125001Y-96125001D01*
X156484678Y-97181065D02*
X156484678Y-97605329D01*
X155750000Y-95300000D02*
X155750000Y-96050000D01*
X156484678Y-96484678D02*
X156484678Y-97181065D01*
X156125001Y-96125001D02*
X156484678Y-96484678D01*
X155750000Y-96050000D02*
X155825001Y-96125001D01*
X156799999Y-106749999D02*
X156799999Y-107460001D01*
X156750000Y-106700000D02*
X156799999Y-106749999D01*
X156864999Y-107525001D02*
X157050003Y-107525001D01*
X157050003Y-107525001D02*
X157400000Y-107874998D01*
X156799999Y-107460001D02*
X156864999Y-107525001D01*
X155250000Y-95300000D02*
X155299999Y-95250001D01*
X155299999Y-95250001D02*
X155299999Y-94539999D01*
X155299999Y-94539999D02*
X155839998Y-94000000D01*
X155839998Y-94000000D02*
X156500000Y-94000000D01*
X153750000Y-96399274D02*
X154775736Y-97425010D01*
X154775736Y-97425010D02*
X155200000Y-97425010D01*
X153750000Y-95300000D02*
X153750000Y-96399274D01*
X155574991Y-93599999D02*
X155874990Y-93300000D01*
X154750000Y-94424990D02*
X155574991Y-93599999D01*
X154750000Y-95300000D02*
X154750000Y-94424990D01*
X154250000Y-96050000D02*
X155000000Y-96800000D01*
X154250000Y-95300000D02*
X154250000Y-96050000D01*
X155000000Y-96800000D02*
X155435404Y-96800000D01*
X155435404Y-96800000D02*
X155859668Y-96800000D01*
X159500000Y-99300000D02*
X159500000Y-98750000D01*
X160700000Y-99750000D02*
X159950000Y-99750000D01*
X159950000Y-99750000D02*
X159500000Y-99300000D01*
X162750000Y-100250000D02*
X160700000Y-100250000D01*
X166950000Y-107100000D02*
X166950000Y-106550000D01*
X166950000Y-106550000D02*
X167500000Y-106000000D01*
X167500000Y-106000000D02*
X167735002Y-106000000D01*
X166950000Y-97150000D02*
X167500000Y-96600000D01*
X167735002Y-106000000D02*
X168125001Y-105610001D01*
X168125001Y-105610001D02*
X168125001Y-104189999D01*
X168125001Y-104189999D02*
X166950000Y-103014998D01*
X166950000Y-103014998D02*
X166950000Y-97150000D01*
X167500000Y-108550000D02*
X166950000Y-108000000D01*
X166950000Y-108000000D02*
X166950000Y-107100000D01*
X142600000Y-93025000D02*
X142600000Y-92700000D01*
X142600000Y-92700000D02*
X141200000Y-91300000D01*
X145889998Y-96000000D02*
X143510000Y-96000000D01*
X143510000Y-96000000D02*
X143100000Y-96000000D01*
X142300000Y-93325000D02*
X142600000Y-93025000D01*
X143100000Y-96000000D02*
X142300000Y-95200000D01*
X146989998Y-94900000D02*
X145889998Y-96000000D01*
X150738574Y-96799989D02*
X148838585Y-94900000D01*
X152136422Y-96799989D02*
X150738574Y-96799989D01*
X152750000Y-96186411D02*
X152136422Y-96799989D01*
X148838585Y-94900000D02*
X146989998Y-94900000D01*
X142600000Y-93025000D02*
X143300000Y-93025000D01*
X152750000Y-95300000D02*
X152750000Y-96186411D01*
X142300000Y-95200000D02*
X142300000Y-93325000D01*
X146812000Y-93218000D02*
X146812000Y-94441587D01*
X146812000Y-94441587D02*
X146803598Y-94449989D01*
X150924974Y-96349978D02*
X151950022Y-96349978D01*
X149024985Y-94449989D02*
X150924974Y-96349978D01*
X145778586Y-95475001D02*
X146803598Y-94449989D01*
X146803598Y-94449989D02*
X149024985Y-94449989D01*
X144025001Y-95475001D02*
X145778586Y-95475001D01*
X143525000Y-94975000D02*
X144025001Y-95475001D01*
X152250000Y-96050000D02*
X152250000Y-95300000D01*
X151950022Y-96349978D02*
X152250000Y-96050000D01*
X143300000Y-94975000D02*
X143525000Y-94975000D01*
X150155498Y-100750000D02*
X150230513Y-100674985D01*
X149300000Y-100750000D02*
X150155498Y-100750000D01*
X150230513Y-100674985D02*
X150305453Y-100600045D01*
X151255949Y-101285091D02*
X151680213Y-101285091D01*
X151195905Y-101225047D02*
X151255949Y-101285091D01*
X149300000Y-101250000D02*
X150050000Y-101250000D01*
X150050000Y-101250000D02*
X150074953Y-101225047D01*
X150074953Y-101225047D02*
X151195905Y-101225047D01*
X150341041Y-101750000D02*
X150441098Y-101850057D01*
X149300000Y-101750000D02*
X150341041Y-101750000D01*
X151299999Y-98299995D02*
X151000000Y-97999996D01*
X153025002Y-100024998D02*
X151299999Y-98299995D01*
X153025002Y-102200002D02*
X153025002Y-100024998D01*
X152700002Y-102525002D02*
X153025002Y-102200002D01*
X150191039Y-102525002D02*
X152700002Y-102525002D01*
X149916037Y-102250000D02*
X150191039Y-102525002D01*
X149300000Y-102250000D02*
X149916037Y-102250000D01*
X156750000Y-95300000D02*
X156750000Y-96113590D01*
X156336899Y-98788105D02*
X153512055Y-98788105D01*
X153512055Y-98788105D02*
X153087791Y-98788105D01*
X156750000Y-96113590D02*
X157074999Y-96438589D01*
X157074999Y-97400001D02*
X157174999Y-97500001D01*
X157074999Y-96438589D02*
X157074999Y-97400001D01*
X157174999Y-97500001D02*
X157174999Y-97950005D01*
X157174999Y-97950005D02*
X156336899Y-98788105D01*
X157226000Y-93472000D02*
X157226000Y-95276000D01*
X157226000Y-95276000D02*
X157250000Y-95300000D01*
X157750000Y-96850000D02*
X157700000Y-96900000D01*
X157750000Y-95300000D02*
X157750000Y-96850000D01*
X157330438Y-100701001D02*
X154845332Y-100701001D01*
X160700000Y-101250000D02*
X157879437Y-101250000D01*
X154233476Y-100089145D02*
X153809212Y-100089145D01*
X157879437Y-101250000D02*
X157330438Y-100701001D01*
X154845332Y-100701001D02*
X154233476Y-100089145D01*
X157743026Y-101750000D02*
X157193025Y-101199999D01*
X160700000Y-101750000D02*
X157743026Y-101750000D01*
X154400007Y-101199999D02*
X154100008Y-100900000D01*
X157193025Y-101199999D02*
X154400007Y-101199999D01*
X154750000Y-106700000D02*
X154750000Y-107913384D01*
X154750000Y-107913384D02*
X154849994Y-108013378D01*
X155800000Y-105400000D02*
X156075736Y-105400000D01*
X155250000Y-105950000D02*
X155800000Y-105400000D01*
X155250000Y-106700000D02*
X155250000Y-105950000D01*
X156075736Y-105400000D02*
X156500000Y-105400000D01*
X155158901Y-102750000D02*
X154373637Y-101964736D01*
X160700000Y-102750000D02*
X155158901Y-102750000D01*
X154373637Y-101964736D02*
X154147484Y-101964736D01*
X160700000Y-102250000D02*
X157318024Y-102250000D01*
X157318024Y-102250000D02*
X157168024Y-102100000D01*
X147700000Y-105400000D02*
X147500000Y-105600000D01*
X148024988Y-105075012D02*
X147700000Y-105400000D01*
X147700000Y-105400000D02*
X147500000Y-105400000D01*
X147500000Y-105400000D02*
X147200000Y-105100000D01*
X144550000Y-107000000D02*
X146775000Y-107000000D01*
X147500000Y-106275000D02*
X147500000Y-106250000D01*
X146775000Y-107000000D02*
X147500000Y-106275000D01*
X148024988Y-104088601D02*
X148024988Y-105075012D01*
X148363589Y-103750000D02*
X148024988Y-104088601D01*
X149300000Y-103750000D02*
X148363589Y-103750000D01*
X147500000Y-105600000D02*
X147500000Y-106250000D01*
X144550000Y-107000000D02*
X144550000Y-106650000D01*
X144550000Y-107700000D02*
X144550000Y-107000000D01*
X144550000Y-106650000D02*
X143900000Y-106000000D01*
X151250000Y-106700000D02*
X151250000Y-107075000D01*
X141950011Y-108925012D02*
X141950011Y-102475015D01*
X141074998Y-100799998D02*
X141500000Y-100374996D01*
X141074998Y-101600002D02*
X141074998Y-100799998D01*
X148321401Y-108925012D02*
X141950011Y-108925012D01*
X141950011Y-102475015D02*
X141074998Y-101600002D01*
X148474999Y-104325001D02*
X148474999Y-108771414D01*
X141500000Y-100374996D02*
X141500000Y-93125000D01*
X141500000Y-93125000D02*
X141400000Y-93025000D01*
X149300000Y-104250000D02*
X148550000Y-104250000D01*
X148474999Y-108771414D02*
X148321401Y-108925012D01*
X141400000Y-93025000D02*
X140700000Y-93025000D01*
X148550000Y-104250000D02*
X148474999Y-104325001D01*
X140700000Y-95450000D02*
X140700000Y-94975000D01*
X140624987Y-101786402D02*
X140624987Y-100613598D01*
X140700000Y-100538585D02*
X140700000Y-95450000D01*
X141213598Y-102375013D02*
X140624987Y-101786402D01*
X140624987Y-100613598D02*
X140700000Y-100538585D01*
X141213598Y-108825010D02*
X141213598Y-102375013D01*
X141763611Y-109375023D02*
X141213598Y-108825010D01*
X149099974Y-108782850D02*
X148507801Y-109375023D01*
X149099974Y-105325026D02*
X149099974Y-108782850D01*
X149300000Y-105125000D02*
X149099974Y-105325026D01*
X148507801Y-109375023D02*
X141763611Y-109375023D01*
X149300000Y-104750000D02*
X149300000Y-105125000D01*
X152750000Y-105879657D02*
X152658404Y-105788061D01*
X152750000Y-106700000D02*
X152750000Y-105879657D01*
X153283405Y-105483405D02*
X152930000Y-105130000D01*
X152930000Y-105130000D02*
X151552000Y-105130000D01*
X153250000Y-106700000D02*
X153250000Y-106121467D01*
X153250000Y-106121467D02*
X153283405Y-106088062D01*
X153283405Y-106088062D02*
X153283405Y-105483405D01*
X153750000Y-106700000D02*
X153750000Y-107450000D01*
X153499998Y-107700002D02*
X153162000Y-107700002D01*
X153750000Y-107450000D02*
X153499998Y-107700002D01*
X154063446Y-108133315D02*
X153763447Y-108433314D01*
X154063446Y-107874922D02*
X154063446Y-108133315D01*
X154250000Y-106700000D02*
X154250000Y-107688368D01*
X154250000Y-107688368D02*
X154063446Y-107874922D01*
D47*
X129000000Y-91250000D02*
X131500000Y-91250000D01*
X126500000Y-91250000D02*
X129000000Y-91250000D01*
D45*
X129733930Y-72365000D02*
X129733930Y-71366070D01*
X129733930Y-71366070D02*
X129800000Y-71300000D01*
D46*
X133300000Y-74905000D02*
X129404360Y-74905000D01*
X129404360Y-74905000D02*
X128999360Y-74500000D01*
X128999360Y-74500000D02*
X128999360Y-73099570D01*
X128999360Y-73099570D02*
X129733930Y-72365000D01*
X129733930Y-72365000D02*
X131700000Y-72365000D01*
X131700000Y-72365000D02*
X133300000Y-72365000D01*
X133300000Y-72365000D02*
X133300000Y-71095000D01*
X133300000Y-73635000D02*
X133300000Y-72365000D01*
X133300000Y-74905000D02*
X133300000Y-73635000D01*
D47*
X124000000Y-78750000D02*
X128250000Y-74500000D01*
X128250000Y-74500000D02*
X128999360Y-74500000D01*
D46*
X129364360Y-74635000D02*
X128999360Y-75000000D01*
D47*
X124000000Y-88750000D02*
X124000000Y-78750000D01*
X126500000Y-91250000D02*
X124000000Y-88750000D01*
D45*
X155750000Y-108069602D02*
X155025669Y-108793933D01*
X155750000Y-106700000D02*
X155750000Y-108069602D01*
X155025669Y-108793933D02*
X154601405Y-108793933D01*
X156250000Y-106700000D02*
X156250000Y-107793211D01*
X156250000Y-107793211D02*
X156440840Y-107984051D01*
D46*
X139000000Y-110950000D02*
X139000000Y-112000000D01*
D45*
G36*
X169575000Y-114875000D02*
X163648033Y-114875000D01*
X163648033Y-108780143D01*
X164671443Y-109803554D01*
X164778404Y-109875023D01*
X164833654Y-109911940D01*
X165024996Y-109950000D01*
X165474001Y-109950000D01*
X165553683Y-110003242D01*
X165700000Y-110032346D01*
X166300000Y-110032346D01*
X166446317Y-110003242D01*
X166525999Y-109950000D01*
X166974001Y-109950000D01*
X167053683Y-110003242D01*
X167200000Y-110032346D01*
X167800000Y-110032346D01*
X167946317Y-110003242D01*
X168070359Y-109920359D01*
X168153242Y-109796317D01*
X168182346Y-109650000D01*
X168182346Y-109250000D01*
X168153242Y-109103683D01*
X168083963Y-109000000D01*
X168153242Y-108896317D01*
X168182346Y-108750000D01*
X168182346Y-108350000D01*
X168153242Y-108203683D01*
X168093138Y-108113732D01*
X168158565Y-108086632D01*
X168336631Y-107908566D01*
X168433000Y-107675912D01*
X168433000Y-107387250D01*
X168274750Y-107229000D01*
X167700000Y-107229000D01*
X167700000Y-107249000D01*
X167532346Y-107249000D01*
X167532346Y-106951000D01*
X167700000Y-106951000D01*
X167700000Y-106971000D01*
X168274750Y-106971000D01*
X168433000Y-106812750D01*
X168433000Y-106524088D01*
X168336631Y-106291434D01*
X168243653Y-106198456D01*
X168478554Y-105963554D01*
X168586941Y-105801343D01*
X168625001Y-105610001D01*
X168625001Y-104189999D01*
X168586941Y-103998657D01*
X168544935Y-103935791D01*
X168478554Y-103836445D01*
X167450000Y-102807892D01*
X167450000Y-97357106D01*
X167532078Y-97275028D01*
X167633677Y-97275117D01*
X167881857Y-97172571D01*
X168071903Y-96982856D01*
X168174883Y-96734855D01*
X168175117Y-96466323D01*
X168072571Y-96218143D01*
X167882856Y-96028097D01*
X167634855Y-95925117D01*
X167366323Y-95924883D01*
X167118143Y-96027429D01*
X166928097Y-96217144D01*
X166825117Y-96465145D01*
X166825027Y-96567866D01*
X166596447Y-96796447D01*
X166488060Y-96958658D01*
X166450000Y-97150000D01*
X166450000Y-102944966D01*
X166366323Y-102944893D01*
X166200001Y-103013616D01*
X166200001Y-97325001D01*
X166161941Y-97133659D01*
X166118527Y-97068687D01*
X166053555Y-96971448D01*
X165757346Y-96675239D01*
X165757346Y-96000000D01*
X165728242Y-95853683D01*
X165645359Y-95729641D01*
X165521317Y-95646758D01*
X165375000Y-95617654D01*
X165348675Y-95617654D01*
X165327425Y-95510823D01*
X165191942Y-95308058D01*
X165191939Y-95308056D01*
X162258884Y-92375000D01*
X163011640Y-91622244D01*
X163131857Y-91572571D01*
X163321903Y-91382856D01*
X163424883Y-91134855D01*
X163425117Y-90866323D01*
X163322571Y-90618143D01*
X163132856Y-90428097D01*
X162884855Y-90325117D01*
X162616323Y-90324883D01*
X162368143Y-90427429D01*
X162178097Y-90617144D01*
X162127768Y-90738348D01*
X161375000Y-91491116D01*
X159625000Y-89741116D01*
X159625000Y-80428331D01*
X159631145Y-80430883D01*
X159899677Y-80431117D01*
X160147857Y-80328571D01*
X160337903Y-80138856D01*
X160440883Y-79890855D01*
X160441117Y-79622323D01*
X160338571Y-79374143D01*
X160148856Y-79184097D01*
X159900855Y-79081117D01*
X159632323Y-79080883D01*
X159625000Y-79083909D01*
X159625000Y-77625000D01*
X169575000Y-77625000D01*
X169575000Y-114875000D01*
X169575000Y-114875000D01*
G37*
X169575000Y-114875000D02*
X163648033Y-114875000D01*
X163648033Y-108780143D01*
X164671443Y-109803554D01*
X164778404Y-109875023D01*
X164833654Y-109911940D01*
X165024996Y-109950000D01*
X165474001Y-109950000D01*
X165553683Y-110003242D01*
X165700000Y-110032346D01*
X166300000Y-110032346D01*
X166446317Y-110003242D01*
X166525999Y-109950000D01*
X166974001Y-109950000D01*
X167053683Y-110003242D01*
X167200000Y-110032346D01*
X167800000Y-110032346D01*
X167946317Y-110003242D01*
X168070359Y-109920359D01*
X168153242Y-109796317D01*
X168182346Y-109650000D01*
X168182346Y-109250000D01*
X168153242Y-109103683D01*
X168083963Y-109000000D01*
X168153242Y-108896317D01*
X168182346Y-108750000D01*
X168182346Y-108350000D01*
X168153242Y-108203683D01*
X168093138Y-108113732D01*
X168158565Y-108086632D01*
X168336631Y-107908566D01*
X168433000Y-107675912D01*
X168433000Y-107387250D01*
X168274750Y-107229000D01*
X167700000Y-107229000D01*
X167700000Y-107249000D01*
X167532346Y-107249000D01*
X167532346Y-106951000D01*
X167700000Y-106951000D01*
X167700000Y-106971000D01*
X168274750Y-106971000D01*
X168433000Y-106812750D01*
X168433000Y-106524088D01*
X168336631Y-106291434D01*
X168243653Y-106198456D01*
X168478554Y-105963554D01*
X168586941Y-105801343D01*
X168625001Y-105610001D01*
X168625001Y-104189999D01*
X168586941Y-103998657D01*
X168544935Y-103935791D01*
X168478554Y-103836445D01*
X167450000Y-102807892D01*
X167450000Y-97357106D01*
X167532078Y-97275028D01*
X167633677Y-97275117D01*
X167881857Y-97172571D01*
X168071903Y-96982856D01*
X168174883Y-96734855D01*
X168175117Y-96466323D01*
X168072571Y-96218143D01*
X167882856Y-96028097D01*
X167634855Y-95925117D01*
X167366323Y-95924883D01*
X167118143Y-96027429D01*
X166928097Y-96217144D01*
X166825117Y-96465145D01*
X166825027Y-96567866D01*
X166596447Y-96796447D01*
X166488060Y-96958658D01*
X166450000Y-97150000D01*
X166450000Y-102944966D01*
X166366323Y-102944893D01*
X166200001Y-103013616D01*
X166200001Y-97325001D01*
X166161941Y-97133659D01*
X166118527Y-97068687D01*
X166053555Y-96971448D01*
X165757346Y-96675239D01*
X165757346Y-96000000D01*
X165728242Y-95853683D01*
X165645359Y-95729641D01*
X165521317Y-95646758D01*
X165375000Y-95617654D01*
X165348675Y-95617654D01*
X165327425Y-95510823D01*
X165191942Y-95308058D01*
X165191939Y-95308056D01*
X162258884Y-92375000D01*
X163011640Y-91622244D01*
X163131857Y-91572571D01*
X163321903Y-91382856D01*
X163424883Y-91134855D01*
X163425117Y-90866323D01*
X163322571Y-90618143D01*
X163132856Y-90428097D01*
X162884855Y-90325117D01*
X162616323Y-90324883D01*
X162368143Y-90427429D01*
X162178097Y-90617144D01*
X162127768Y-90738348D01*
X161375000Y-91491116D01*
X159625000Y-89741116D01*
X159625000Y-80428331D01*
X159631145Y-80430883D01*
X159899677Y-80431117D01*
X160147857Y-80328571D01*
X160337903Y-80138856D01*
X160440883Y-79890855D01*
X160441117Y-79622323D01*
X160338571Y-79374143D01*
X160148856Y-79184097D01*
X159900855Y-79081117D01*
X159632323Y-79080883D01*
X159625000Y-79083909D01*
X159625000Y-77625000D01*
X169575000Y-77625000D01*
X169575000Y-114875000D01*
G36*
X137079641Y-96070359D02*
X137203683Y-96153242D01*
X137350000Y-96182346D01*
X137425240Y-96182346D01*
X137721448Y-96478555D01*
X137792322Y-96525911D01*
X137883659Y-96586941D01*
X138038065Y-96617654D01*
X137500000Y-96617654D01*
X137353683Y-96646758D01*
X137229641Y-96729641D01*
X137146758Y-96853683D01*
X137117654Y-97000000D01*
X137117654Y-100000000D01*
X137146758Y-100146317D01*
X137229641Y-100270359D01*
X137353683Y-100353242D01*
X137500000Y-100382346D01*
X140000000Y-100382346D01*
X140146317Y-100353242D01*
X140200000Y-100317372D01*
X140200000Y-100366952D01*
X140163047Y-100422256D01*
X140124987Y-100613598D01*
X140124987Y-101786402D01*
X140150709Y-101915715D01*
X140163047Y-101977744D01*
X140271434Y-102139955D01*
X140713598Y-102582120D01*
X140713598Y-108825010D01*
X140746253Y-108989177D01*
X140751658Y-109016352D01*
X140860045Y-109178563D01*
X141381481Y-109700000D01*
X140657106Y-109700000D01*
X140032346Y-109075240D01*
X140032346Y-108700000D01*
X140003242Y-108553683D01*
X139920359Y-108429641D01*
X139796317Y-108346758D01*
X139650000Y-108317654D01*
X139625000Y-108317654D01*
X139625000Y-107469362D01*
X139756317Y-107443242D01*
X139880359Y-107360359D01*
X139963242Y-107236317D01*
X139992346Y-107090000D01*
X139992346Y-106180000D01*
X139963242Y-106033683D01*
X139880359Y-105909641D01*
X139756317Y-105826758D01*
X139610000Y-105797654D01*
X138390000Y-105797654D01*
X138243683Y-105826758D01*
X138119641Y-105909641D01*
X138036758Y-106033683D01*
X138007654Y-106180000D01*
X138007654Y-107090000D01*
X138036758Y-107236317D01*
X138119641Y-107360359D01*
X138243683Y-107443242D01*
X138375000Y-107469362D01*
X138375000Y-108317654D01*
X138350000Y-108317654D01*
X138203683Y-108346758D01*
X138079641Y-108429641D01*
X137996758Y-108553683D01*
X137967654Y-108700000D01*
X137967654Y-109400000D01*
X137996758Y-109546317D01*
X138079641Y-109670359D01*
X138203683Y-109753242D01*
X138350000Y-109782346D01*
X139325240Y-109782346D01*
X139787997Y-110245103D01*
X139650000Y-110217654D01*
X138350000Y-110217654D01*
X138203683Y-110246758D01*
X138079641Y-110329641D01*
X137996758Y-110453683D01*
X137967654Y-110600000D01*
X137967654Y-111300000D01*
X137996758Y-111446317D01*
X138079641Y-111570359D01*
X138203683Y-111653242D01*
X138350000Y-111682346D01*
X138375000Y-111682346D01*
X138375000Y-111745015D01*
X138325117Y-111865145D01*
X138324883Y-112133677D01*
X138427429Y-112381857D01*
X138617144Y-112571903D01*
X138865145Y-112674883D01*
X139133677Y-112675117D01*
X139381857Y-112572571D01*
X139571903Y-112382856D01*
X139674883Y-112134855D01*
X139675117Y-111866323D01*
X139625000Y-111745031D01*
X139625000Y-111682346D01*
X139650000Y-111682346D01*
X139796317Y-111653242D01*
X139920359Y-111570359D01*
X140003242Y-111446317D01*
X140032346Y-111300000D01*
X140032346Y-110600000D01*
X140004897Y-110462003D01*
X140046447Y-110503553D01*
X140096447Y-110553554D01*
X140183828Y-110611940D01*
X140258658Y-110661940D01*
X140450000Y-110700000D01*
X144245366Y-110700000D01*
X144317144Y-110771903D01*
X144565145Y-110874883D01*
X144833677Y-110875117D01*
X144976988Y-110815902D01*
X144767922Y-111024968D01*
X144666323Y-111024879D01*
X144418143Y-111127425D01*
X144228097Y-111317140D01*
X144125117Y-111565141D01*
X144124883Y-111833673D01*
X144227429Y-112081853D01*
X144417144Y-112271899D01*
X144665145Y-112374879D01*
X144933677Y-112375113D01*
X145181857Y-112272567D01*
X145371903Y-112082852D01*
X145474883Y-111834851D01*
X145474973Y-111732130D01*
X146757103Y-110450000D01*
X147392894Y-110450000D01*
X147467654Y-110524760D01*
X147467654Y-110800000D01*
X147496758Y-110946317D01*
X147579641Y-111070359D01*
X147703683Y-111153242D01*
X147850000Y-111182346D01*
X148250000Y-111182346D01*
X148396317Y-111153242D01*
X148500000Y-111083963D01*
X148603683Y-111153242D01*
X148720429Y-111176464D01*
X146996915Y-112899978D01*
X145423200Y-112899978D01*
X145231858Y-112938038D01*
X145069646Y-113046425D01*
X144496425Y-113619647D01*
X144388038Y-113781858D01*
X144349978Y-113973200D01*
X144349978Y-114875000D01*
X139767007Y-114875000D01*
X139885049Y-114756958D01*
X139986647Y-114757047D01*
X140234827Y-114654501D01*
X140424873Y-114464786D01*
X140527853Y-114216785D01*
X140528087Y-113948253D01*
X140425541Y-113700073D01*
X140235826Y-113510027D01*
X139987825Y-113407047D01*
X139719293Y-113406813D01*
X139471113Y-113509359D01*
X139281067Y-113699074D01*
X139178087Y-113947075D01*
X139177997Y-114049796D01*
X138352794Y-114875000D01*
X120425000Y-114875000D01*
X120425000Y-114001693D01*
X135100741Y-114001693D01*
X135169006Y-114241831D01*
X135687635Y-114425499D01*
X136237073Y-114396714D01*
X136610994Y-114241831D01*
X136679259Y-114001693D01*
X135890000Y-113212434D01*
X135100741Y-114001693D01*
X120425000Y-114001693D01*
X120425000Y-112827635D01*
X134494501Y-112827635D01*
X134523286Y-113377073D01*
X134678169Y-113750994D01*
X134918307Y-113819259D01*
X135707566Y-113030000D01*
X136072434Y-113030000D01*
X136861693Y-113819259D01*
X137101831Y-113750994D01*
X137285499Y-113232365D01*
X137256714Y-112682927D01*
X137101831Y-112309006D01*
X136861693Y-112240741D01*
X136072434Y-113030000D01*
X135707566Y-113030000D01*
X134918307Y-112240741D01*
X134678169Y-112309006D01*
X134494501Y-112827635D01*
X120425000Y-112827635D01*
X120425000Y-112058307D01*
X135100741Y-112058307D01*
X135890000Y-112847566D01*
X136679259Y-112058307D01*
X136610994Y-111818169D01*
X136092365Y-111634501D01*
X135542927Y-111663286D01*
X135169006Y-111818169D01*
X135100741Y-112058307D01*
X120425000Y-112058307D01*
X120425000Y-108352733D01*
X122829701Y-108352733D01*
X122928647Y-108618782D01*
X123537920Y-108844236D01*
X124187091Y-108819369D01*
X124671353Y-108618782D01*
X124770299Y-108352733D01*
X123800000Y-107382434D01*
X122829701Y-108352733D01*
X120425000Y-108352733D01*
X120425000Y-106937920D01*
X122155764Y-106937920D01*
X122180631Y-107587091D01*
X122381218Y-108071353D01*
X122647267Y-108170299D01*
X123617566Y-107200000D01*
X123982434Y-107200000D01*
X124952733Y-108170299D01*
X125218782Y-108071353D01*
X125444236Y-107462080D01*
X125419369Y-106812909D01*
X125218782Y-106328647D01*
X124952733Y-106229701D01*
X123982434Y-107200000D01*
X123617566Y-107200000D01*
X122647267Y-106229701D01*
X122381218Y-106328647D01*
X122155764Y-106937920D01*
X120425000Y-106937920D01*
X120425000Y-106047267D01*
X122829701Y-106047267D01*
X123800000Y-107017566D01*
X124617566Y-106200000D01*
X132417654Y-106200000D01*
X132417654Y-108200000D01*
X132446758Y-108346317D01*
X132529641Y-108470359D01*
X132653683Y-108553242D01*
X132800000Y-108582346D01*
X134800000Y-108582346D01*
X134946317Y-108553242D01*
X135070359Y-108470359D01*
X135153242Y-108346317D01*
X135182346Y-108200000D01*
X135182346Y-106200000D01*
X135153242Y-106053683D01*
X135070359Y-105929641D01*
X134946317Y-105846758D01*
X134800000Y-105817654D01*
X132800000Y-105817654D01*
X132653683Y-105846758D01*
X132529641Y-105929641D01*
X132446758Y-106053683D01*
X132417654Y-106200000D01*
X124617566Y-106200000D01*
X124770299Y-106047267D01*
X124671353Y-105781218D01*
X124062080Y-105555764D01*
X123412909Y-105580631D01*
X122928647Y-105781218D01*
X122829701Y-106047267D01*
X120425000Y-106047267D01*
X120425000Y-103092795D01*
X134764805Y-103092795D01*
X134935715Y-103506429D01*
X135251907Y-103823172D01*
X135665242Y-103994804D01*
X136112795Y-103995195D01*
X136209739Y-103955139D01*
X136385000Y-103990001D01*
X136385005Y-103990000D01*
X138052583Y-103990000D01*
X138119641Y-104090359D01*
X138243683Y-104173242D01*
X138390000Y-104202346D01*
X139610000Y-104202346D01*
X139756317Y-104173242D01*
X139880359Y-104090359D01*
X139963242Y-103966317D01*
X139992346Y-103820000D01*
X139992346Y-102910000D01*
X139963242Y-102763683D01*
X139880359Y-102639641D01*
X139756317Y-102556758D01*
X139610000Y-102527654D01*
X138390000Y-102527654D01*
X138243683Y-102556758D01*
X138119641Y-102639641D01*
X138052583Y-102740000D01*
X137015114Y-102740000D01*
X137015195Y-102647205D01*
X136844285Y-102233571D01*
X136528093Y-101916828D01*
X136114758Y-101745196D01*
X135667205Y-101744805D01*
X135253571Y-101915715D01*
X134936828Y-102231907D01*
X134765196Y-102645242D01*
X134764805Y-103092795D01*
X120425000Y-103092795D01*
X120425000Y-100625000D01*
X134000000Y-100625000D01*
X134047835Y-100615485D01*
X134088388Y-100588388D01*
X134115485Y-100547835D01*
X134125000Y-100500000D01*
X134125000Y-96832106D01*
X134957106Y-96000000D01*
X137032628Y-96000000D01*
X137079641Y-96070359D01*
X137079641Y-96070359D01*
G37*
X137079641Y-96070359D02*
X137203683Y-96153242D01*
X137350000Y-96182346D01*
X137425240Y-96182346D01*
X137721448Y-96478555D01*
X137792322Y-96525911D01*
X137883659Y-96586941D01*
X138038065Y-96617654D01*
X137500000Y-96617654D01*
X137353683Y-96646758D01*
X137229641Y-96729641D01*
X137146758Y-96853683D01*
X137117654Y-97000000D01*
X137117654Y-100000000D01*
X137146758Y-100146317D01*
X137229641Y-100270359D01*
X137353683Y-100353242D01*
X137500000Y-100382346D01*
X140000000Y-100382346D01*
X140146317Y-100353242D01*
X140200000Y-100317372D01*
X140200000Y-100366952D01*
X140163047Y-100422256D01*
X140124987Y-100613598D01*
X140124987Y-101786402D01*
X140150709Y-101915715D01*
X140163047Y-101977744D01*
X140271434Y-102139955D01*
X140713598Y-102582120D01*
X140713598Y-108825010D01*
X140746253Y-108989177D01*
X140751658Y-109016352D01*
X140860045Y-109178563D01*
X141381481Y-109700000D01*
X140657106Y-109700000D01*
X140032346Y-109075240D01*
X140032346Y-108700000D01*
X140003242Y-108553683D01*
X139920359Y-108429641D01*
X139796317Y-108346758D01*
X139650000Y-108317654D01*
X139625000Y-108317654D01*
X139625000Y-107469362D01*
X139756317Y-107443242D01*
X139880359Y-107360359D01*
X139963242Y-107236317D01*
X139992346Y-107090000D01*
X139992346Y-106180000D01*
X139963242Y-106033683D01*
X139880359Y-105909641D01*
X139756317Y-105826758D01*
X139610000Y-105797654D01*
X138390000Y-105797654D01*
X138243683Y-105826758D01*
X138119641Y-105909641D01*
X138036758Y-106033683D01*
X138007654Y-106180000D01*
X138007654Y-107090000D01*
X138036758Y-107236317D01*
X138119641Y-107360359D01*
X138243683Y-107443242D01*
X138375000Y-107469362D01*
X138375000Y-108317654D01*
X138350000Y-108317654D01*
X138203683Y-108346758D01*
X138079641Y-108429641D01*
X137996758Y-108553683D01*
X137967654Y-108700000D01*
X137967654Y-109400000D01*
X137996758Y-109546317D01*
X138079641Y-109670359D01*
X138203683Y-109753242D01*
X138350000Y-109782346D01*
X139325240Y-109782346D01*
X139787997Y-110245103D01*
X139650000Y-110217654D01*
X138350000Y-110217654D01*
X138203683Y-110246758D01*
X138079641Y-110329641D01*
X137996758Y-110453683D01*
X137967654Y-110600000D01*
X137967654Y-111300000D01*
X137996758Y-111446317D01*
X138079641Y-111570359D01*
X138203683Y-111653242D01*
X138350000Y-111682346D01*
X138375000Y-111682346D01*
X138375000Y-111745015D01*
X138325117Y-111865145D01*
X138324883Y-112133677D01*
X138427429Y-112381857D01*
X138617144Y-112571903D01*
X138865145Y-112674883D01*
X139133677Y-112675117D01*
X139381857Y-112572571D01*
X139571903Y-112382856D01*
X139674883Y-112134855D01*
X139675117Y-111866323D01*
X139625000Y-111745031D01*
X139625000Y-111682346D01*
X139650000Y-111682346D01*
X139796317Y-111653242D01*
X139920359Y-111570359D01*
X140003242Y-111446317D01*
X140032346Y-111300000D01*
X140032346Y-110600000D01*
X140004897Y-110462003D01*
X140046447Y-110503553D01*
X140096447Y-110553554D01*
X140183828Y-110611940D01*
X140258658Y-110661940D01*
X140450000Y-110700000D01*
X144245366Y-110700000D01*
X144317144Y-110771903D01*
X144565145Y-110874883D01*
X144833677Y-110875117D01*
X144976988Y-110815902D01*
X144767922Y-111024968D01*
X144666323Y-111024879D01*
X144418143Y-111127425D01*
X144228097Y-111317140D01*
X144125117Y-111565141D01*
X144124883Y-111833673D01*
X144227429Y-112081853D01*
X144417144Y-112271899D01*
X144665145Y-112374879D01*
X144933677Y-112375113D01*
X145181857Y-112272567D01*
X145371903Y-112082852D01*
X145474883Y-111834851D01*
X145474973Y-111732130D01*
X146757103Y-110450000D01*
X147392894Y-110450000D01*
X147467654Y-110524760D01*
X147467654Y-110800000D01*
X147496758Y-110946317D01*
X147579641Y-111070359D01*
X147703683Y-111153242D01*
X147850000Y-111182346D01*
X148250000Y-111182346D01*
X148396317Y-111153242D01*
X148500000Y-111083963D01*
X148603683Y-111153242D01*
X148720429Y-111176464D01*
X146996915Y-112899978D01*
X145423200Y-112899978D01*
X145231858Y-112938038D01*
X145069646Y-113046425D01*
X144496425Y-113619647D01*
X144388038Y-113781858D01*
X144349978Y-113973200D01*
X144349978Y-114875000D01*
X139767007Y-114875000D01*
X139885049Y-114756958D01*
X139986647Y-114757047D01*
X140234827Y-114654501D01*
X140424873Y-114464786D01*
X140527853Y-114216785D01*
X140528087Y-113948253D01*
X140425541Y-113700073D01*
X140235826Y-113510027D01*
X139987825Y-113407047D01*
X139719293Y-113406813D01*
X139471113Y-113509359D01*
X139281067Y-113699074D01*
X139178087Y-113947075D01*
X139177997Y-114049796D01*
X138352794Y-114875000D01*
X120425000Y-114875000D01*
X120425000Y-114001693D01*
X135100741Y-114001693D01*
X135169006Y-114241831D01*
X135687635Y-114425499D01*
X136237073Y-114396714D01*
X136610994Y-114241831D01*
X136679259Y-114001693D01*
X135890000Y-113212434D01*
X135100741Y-114001693D01*
X120425000Y-114001693D01*
X120425000Y-112827635D01*
X134494501Y-112827635D01*
X134523286Y-113377073D01*
X134678169Y-113750994D01*
X134918307Y-113819259D01*
X135707566Y-113030000D01*
X136072434Y-113030000D01*
X136861693Y-113819259D01*
X137101831Y-113750994D01*
X137285499Y-113232365D01*
X137256714Y-112682927D01*
X137101831Y-112309006D01*
X136861693Y-112240741D01*
X136072434Y-113030000D01*
X135707566Y-113030000D01*
X134918307Y-112240741D01*
X134678169Y-112309006D01*
X134494501Y-112827635D01*
X120425000Y-112827635D01*
X120425000Y-112058307D01*
X135100741Y-112058307D01*
X135890000Y-112847566D01*
X136679259Y-112058307D01*
X136610994Y-111818169D01*
X136092365Y-111634501D01*
X135542927Y-111663286D01*
X135169006Y-111818169D01*
X135100741Y-112058307D01*
X120425000Y-112058307D01*
X120425000Y-108352733D01*
X122829701Y-108352733D01*
X122928647Y-108618782D01*
X123537920Y-108844236D01*
X124187091Y-108819369D01*
X124671353Y-108618782D01*
X124770299Y-108352733D01*
X123800000Y-107382434D01*
X122829701Y-108352733D01*
X120425000Y-108352733D01*
X120425000Y-106937920D01*
X122155764Y-106937920D01*
X122180631Y-107587091D01*
X122381218Y-108071353D01*
X122647267Y-108170299D01*
X123617566Y-107200000D01*
X123982434Y-107200000D01*
X124952733Y-108170299D01*
X125218782Y-108071353D01*
X125444236Y-107462080D01*
X125419369Y-106812909D01*
X125218782Y-106328647D01*
X124952733Y-106229701D01*
X123982434Y-107200000D01*
X123617566Y-107200000D01*
X122647267Y-106229701D01*
X122381218Y-106328647D01*
X122155764Y-106937920D01*
X120425000Y-106937920D01*
X120425000Y-106047267D01*
X122829701Y-106047267D01*
X123800000Y-107017566D01*
X124617566Y-106200000D01*
X132417654Y-106200000D01*
X132417654Y-108200000D01*
X132446758Y-108346317D01*
X132529641Y-108470359D01*
X132653683Y-108553242D01*
X132800000Y-108582346D01*
X134800000Y-108582346D01*
X134946317Y-108553242D01*
X135070359Y-108470359D01*
X135153242Y-108346317D01*
X135182346Y-108200000D01*
X135182346Y-106200000D01*
X135153242Y-106053683D01*
X135070359Y-105929641D01*
X134946317Y-105846758D01*
X134800000Y-105817654D01*
X132800000Y-105817654D01*
X132653683Y-105846758D01*
X132529641Y-105929641D01*
X132446758Y-106053683D01*
X132417654Y-106200000D01*
X124617566Y-106200000D01*
X124770299Y-106047267D01*
X124671353Y-105781218D01*
X124062080Y-105555764D01*
X123412909Y-105580631D01*
X122928647Y-105781218D01*
X122829701Y-106047267D01*
X120425000Y-106047267D01*
X120425000Y-103092795D01*
X134764805Y-103092795D01*
X134935715Y-103506429D01*
X135251907Y-103823172D01*
X135665242Y-103994804D01*
X136112795Y-103995195D01*
X136209739Y-103955139D01*
X136385000Y-103990001D01*
X136385005Y-103990000D01*
X138052583Y-103990000D01*
X138119641Y-104090359D01*
X138243683Y-104173242D01*
X138390000Y-104202346D01*
X139610000Y-104202346D01*
X139756317Y-104173242D01*
X139880359Y-104090359D01*
X139963242Y-103966317D01*
X139992346Y-103820000D01*
X139992346Y-102910000D01*
X139963242Y-102763683D01*
X139880359Y-102639641D01*
X139756317Y-102556758D01*
X139610000Y-102527654D01*
X138390000Y-102527654D01*
X138243683Y-102556758D01*
X138119641Y-102639641D01*
X138052583Y-102740000D01*
X137015114Y-102740000D01*
X137015195Y-102647205D01*
X136844285Y-102233571D01*
X136528093Y-101916828D01*
X136114758Y-101745196D01*
X135667205Y-101744805D01*
X135253571Y-101915715D01*
X134936828Y-102231907D01*
X134765196Y-102645242D01*
X134764805Y-103092795D01*
X120425000Y-103092795D01*
X120425000Y-100625000D01*
X134000000Y-100625000D01*
X134047835Y-100615485D01*
X134088388Y-100588388D01*
X134115485Y-100547835D01*
X134125000Y-100500000D01*
X134125000Y-96832106D01*
X134957106Y-96000000D01*
X137032628Y-96000000D01*
X137079641Y-96070359D01*
G36*
X160190447Y-106897554D02*
X160118143Y-106927429D01*
X159928097Y-107117144D01*
X159825117Y-107365145D01*
X159824883Y-107633677D01*
X159927429Y-107881857D01*
X160117144Y-108071903D01*
X160242654Y-108124020D01*
X160242654Y-108900000D01*
X160271758Y-109046317D01*
X160279528Y-109057945D01*
X160266434Y-109063369D01*
X160088368Y-109241435D01*
X159992000Y-109474089D01*
X159992000Y-109712750D01*
X160150250Y-109871000D01*
X160871000Y-109871000D01*
X160871000Y-109851000D01*
X161129000Y-109851000D01*
X161129000Y-109871000D01*
X161149000Y-109871000D01*
X161149000Y-110129000D01*
X161129000Y-110129000D01*
X161129000Y-110874750D01*
X161287250Y-111033000D01*
X161298000Y-111033000D01*
X161298000Y-113428990D01*
X150568634Y-113428990D01*
X150496856Y-113357087D01*
X150375436Y-113306668D01*
X151839906Y-111842198D01*
X151866343Y-111836939D01*
X152028554Y-111728552D01*
X152574760Y-111182346D01*
X152650000Y-111182346D01*
X152796317Y-111153242D01*
X152920359Y-111070359D01*
X152977699Y-110984545D01*
X153091342Y-110961940D01*
X153253553Y-110853553D01*
X153611611Y-110495495D01*
X153858058Y-110741942D01*
X154060823Y-110877425D01*
X154300000Y-110925001D01*
X154300005Y-110925000D01*
X155345019Y-110925000D01*
X155465149Y-110974883D01*
X155733681Y-110975117D01*
X155854973Y-110925000D01*
X157675000Y-110925000D01*
X157914177Y-110877425D01*
X158116942Y-110741942D01*
X158571634Y-110287250D01*
X159992000Y-110287250D01*
X159992000Y-110525911D01*
X160088368Y-110758565D01*
X160266434Y-110936631D01*
X160499088Y-111033000D01*
X160712750Y-111033000D01*
X160871000Y-110874750D01*
X160871000Y-110129000D01*
X160150250Y-110129000D01*
X159992000Y-110287250D01*
X158571634Y-110287250D01*
X159351538Y-109507346D01*
X159650000Y-109507346D01*
X159796317Y-109478242D01*
X159920359Y-109395359D01*
X160003242Y-109271317D01*
X160032346Y-109125000D01*
X160032346Y-108375000D01*
X160003242Y-108228683D01*
X159920359Y-108104641D01*
X159796317Y-108021758D01*
X159650000Y-107992654D01*
X159250000Y-107992654D01*
X159250000Y-107236931D01*
X159257346Y-107200000D01*
X159257346Y-106200000D01*
X159228242Y-106053683D01*
X159145359Y-105929641D01*
X159021317Y-105846758D01*
X158891042Y-105820845D01*
X158733566Y-105663369D01*
X158500912Y-105567000D01*
X158470750Y-105567000D01*
X158312500Y-105725250D01*
X158312500Y-105992709D01*
X158271758Y-106053683D01*
X158250000Y-106163069D01*
X158250000Y-104988587D01*
X158242183Y-104949290D01*
X160190447Y-106897554D01*
X160190447Y-106897554D01*
G37*
X160190447Y-106897554D02*
X160118143Y-106927429D01*
X159928097Y-107117144D01*
X159825117Y-107365145D01*
X159824883Y-107633677D01*
X159927429Y-107881857D01*
X160117144Y-108071903D01*
X160242654Y-108124020D01*
X160242654Y-108900000D01*
X160271758Y-109046317D01*
X160279528Y-109057945D01*
X160266434Y-109063369D01*
X160088368Y-109241435D01*
X159992000Y-109474089D01*
X159992000Y-109712750D01*
X160150250Y-109871000D01*
X160871000Y-109871000D01*
X160871000Y-109851000D01*
X161129000Y-109851000D01*
X161129000Y-109871000D01*
X161149000Y-109871000D01*
X161149000Y-110129000D01*
X161129000Y-110129000D01*
X161129000Y-110874750D01*
X161287250Y-111033000D01*
X161298000Y-111033000D01*
X161298000Y-113428990D01*
X150568634Y-113428990D01*
X150496856Y-113357087D01*
X150375436Y-113306668D01*
X151839906Y-111842198D01*
X151866343Y-111836939D01*
X152028554Y-111728552D01*
X152574760Y-111182346D01*
X152650000Y-111182346D01*
X152796317Y-111153242D01*
X152920359Y-111070359D01*
X152977699Y-110984545D01*
X153091342Y-110961940D01*
X153253553Y-110853553D01*
X153611611Y-110495495D01*
X153858058Y-110741942D01*
X154060823Y-110877425D01*
X154300000Y-110925001D01*
X154300005Y-110925000D01*
X155345019Y-110925000D01*
X155465149Y-110974883D01*
X155733681Y-110975117D01*
X155854973Y-110925000D01*
X157675000Y-110925000D01*
X157914177Y-110877425D01*
X158116942Y-110741942D01*
X158571634Y-110287250D01*
X159992000Y-110287250D01*
X159992000Y-110525911D01*
X160088368Y-110758565D01*
X160266434Y-110936631D01*
X160499088Y-111033000D01*
X160712750Y-111033000D01*
X160871000Y-110874750D01*
X160871000Y-110129000D01*
X160150250Y-110129000D01*
X159992000Y-110287250D01*
X158571634Y-110287250D01*
X159351538Y-109507346D01*
X159650000Y-109507346D01*
X159796317Y-109478242D01*
X159920359Y-109395359D01*
X160003242Y-109271317D01*
X160032346Y-109125000D01*
X160032346Y-108375000D01*
X160003242Y-108228683D01*
X159920359Y-108104641D01*
X159796317Y-108021758D01*
X159650000Y-107992654D01*
X159250000Y-107992654D01*
X159250000Y-107236931D01*
X159257346Y-107200000D01*
X159257346Y-106200000D01*
X159228242Y-106053683D01*
X159145359Y-105929641D01*
X159021317Y-105846758D01*
X158891042Y-105820845D01*
X158733566Y-105663369D01*
X158500912Y-105567000D01*
X158470750Y-105567000D01*
X158312500Y-105725250D01*
X158312500Y-105992709D01*
X158271758Y-106053683D01*
X158250000Y-106163069D01*
X158250000Y-104988587D01*
X158242183Y-104949290D01*
X160190447Y-106897554D01*
G36*
X156057984Y-108555954D02*
X156305985Y-108658934D01*
X156574517Y-108659168D01*
X156814329Y-108560079D01*
X156875250Y-108621000D01*
X157621000Y-108621000D01*
X157621000Y-108601000D01*
X157879000Y-108601000D01*
X157879000Y-108621000D01*
X157899000Y-108621000D01*
X157899000Y-108879000D01*
X157879000Y-108879000D01*
X157879000Y-108899000D01*
X157621000Y-108899000D01*
X157621000Y-108879000D01*
X156875250Y-108879000D01*
X156717000Y-109037250D01*
X156717000Y-109250912D01*
X156813369Y-109483566D01*
X156991435Y-109661632D01*
X157023708Y-109675000D01*
X155854989Y-109675000D01*
X155734859Y-109625117D01*
X155466327Y-109624883D01*
X155345035Y-109675000D01*
X154558884Y-109675000D01*
X154271855Y-109387971D01*
X154466550Y-109468816D01*
X154735082Y-109469050D01*
X154983262Y-109366504D01*
X155063497Y-109286409D01*
X155217011Y-109255873D01*
X155379222Y-109147486D01*
X156014407Y-108512301D01*
X156057984Y-108555954D01*
X156057984Y-108555954D01*
G37*
X156057984Y-108555954D02*
X156305985Y-108658934D01*
X156574517Y-108659168D01*
X156814329Y-108560079D01*
X156875250Y-108621000D01*
X157621000Y-108621000D01*
X157621000Y-108601000D01*
X157879000Y-108601000D01*
X157879000Y-108621000D01*
X157899000Y-108621000D01*
X157899000Y-108879000D01*
X157879000Y-108879000D01*
X157879000Y-108899000D01*
X157621000Y-108899000D01*
X157621000Y-108879000D01*
X156875250Y-108879000D01*
X156717000Y-109037250D01*
X156717000Y-109250912D01*
X156813369Y-109483566D01*
X156991435Y-109661632D01*
X157023708Y-109675000D01*
X155854989Y-109675000D01*
X155734859Y-109625117D01*
X155466327Y-109624883D01*
X155345035Y-109675000D01*
X154558884Y-109675000D01*
X154271855Y-109387971D01*
X154466550Y-109468816D01*
X154735082Y-109469050D01*
X154983262Y-109366504D01*
X155063497Y-109286409D01*
X155217011Y-109255873D01*
X155379222Y-109147486D01*
X156014407Y-108512301D01*
X156057984Y-108555954D01*
G36*
X165125000Y-106421000D02*
X165149000Y-106421000D01*
X165149000Y-106679000D01*
X165125000Y-106679000D01*
X165125000Y-107324750D01*
X165132113Y-107331863D01*
X165053872Y-107520288D01*
X165053638Y-107788820D01*
X165156184Y-108037000D01*
X165342740Y-108223882D01*
X165317654Y-108350000D01*
X165317654Y-108750000D01*
X165346758Y-108896317D01*
X165382628Y-108950000D01*
X165232103Y-108950000D01*
X164374998Y-108092896D01*
X164374998Y-107370195D01*
X164391434Y-107386631D01*
X164624088Y-107483000D01*
X164716750Y-107483000D01*
X164875000Y-107324750D01*
X164875000Y-106679000D01*
X164851000Y-106679000D01*
X164851000Y-106421000D01*
X164875000Y-106421000D01*
X164875000Y-106401000D01*
X165125000Y-106401000D01*
X165125000Y-106421000D01*
X165125000Y-106421000D01*
G37*
X165125000Y-106421000D02*
X165149000Y-106421000D01*
X165149000Y-106679000D01*
X165125000Y-106679000D01*
X165125000Y-107324750D01*
X165132113Y-107331863D01*
X165053872Y-107520288D01*
X165053638Y-107788820D01*
X165156184Y-108037000D01*
X165342740Y-108223882D01*
X165317654Y-108350000D01*
X165317654Y-108750000D01*
X165346758Y-108896317D01*
X165382628Y-108950000D01*
X165232103Y-108950000D01*
X164374998Y-108092896D01*
X164374998Y-107370195D01*
X164391434Y-107386631D01*
X164624088Y-107483000D01*
X164716750Y-107483000D01*
X164875000Y-107324750D01*
X164875000Y-106679000D01*
X164851000Y-106679000D01*
X164851000Y-106421000D01*
X164875000Y-106421000D01*
X164875000Y-106401000D01*
X165125000Y-106401000D01*
X165125000Y-106421000D01*
G36*
X151108958Y-107579155D02*
X151266434Y-107736631D01*
X151461726Y-107817524D01*
X151379000Y-107900250D01*
X151379000Y-108621000D01*
X151399000Y-108621000D01*
X151399000Y-108879000D01*
X151379000Y-108879000D01*
X151379000Y-108899000D01*
X151121000Y-108899000D01*
X151121000Y-108879000D01*
X151101000Y-108879000D01*
X151101000Y-108621000D01*
X151121000Y-108621000D01*
X151121000Y-107900250D01*
X151024999Y-107804249D01*
X151024999Y-107562455D01*
X151108958Y-107579155D01*
X151108958Y-107579155D01*
G37*
X151108958Y-107579155D02*
X151266434Y-107736631D01*
X151461726Y-107817524D01*
X151379000Y-107900250D01*
X151379000Y-108621000D01*
X151399000Y-108621000D01*
X151399000Y-108879000D01*
X151379000Y-108879000D01*
X151379000Y-108899000D01*
X151121000Y-108899000D01*
X151121000Y-108879000D01*
X151101000Y-108879000D01*
X151101000Y-108621000D01*
X151121000Y-108621000D01*
X151121000Y-107900250D01*
X151024999Y-107804249D01*
X151024999Y-107562455D01*
X151108958Y-107579155D01*
G36*
X164879000Y-98371000D02*
X164899000Y-98371000D01*
X164899000Y-98629000D01*
X164879000Y-98629000D01*
X164879000Y-99474750D01*
X165037250Y-99633000D01*
X165200001Y-99633000D01*
X165200001Y-103992893D01*
X164646447Y-104546447D01*
X164538060Y-104708658D01*
X164507791Y-104860832D01*
X164479641Y-104879641D01*
X164396758Y-105003683D01*
X164367654Y-105150000D01*
X164367654Y-105425240D01*
X163648033Y-106144861D01*
X163648033Y-104471211D01*
X163609973Y-104279869D01*
X163501586Y-104117657D01*
X162280375Y-102896447D01*
X162118164Y-102788060D01*
X162114092Y-102787250D01*
X161926822Y-102750000D01*
X161582346Y-102750000D01*
X161582346Y-102625000D01*
X161557482Y-102500000D01*
X161582346Y-102375000D01*
X161582346Y-102367599D01*
X161809705Y-102595356D01*
X162131188Y-102728848D01*
X162479285Y-102729151D01*
X162801000Y-102596221D01*
X163047356Y-102350295D01*
X163180848Y-102028812D01*
X163181151Y-101680715D01*
X163048221Y-101359000D01*
X162802295Y-101112644D01*
X162798908Y-101111237D01*
X162767940Y-100955552D01*
X162747525Y-100924998D01*
X162883677Y-100925117D01*
X163131857Y-100822571D01*
X163321903Y-100632856D01*
X163424883Y-100384855D01*
X163425117Y-100116323D01*
X163322571Y-99868143D01*
X163285507Y-99831014D01*
X163387362Y-99585723D01*
X163387596Y-99317191D01*
X163355558Y-99239654D01*
X163483566Y-99186631D01*
X163507314Y-99162883D01*
X163588368Y-99358565D01*
X163766434Y-99536631D01*
X163999088Y-99633000D01*
X164462750Y-99633000D01*
X164621000Y-99474750D01*
X164621000Y-98629000D01*
X164601000Y-98629000D01*
X164601000Y-98371000D01*
X164621000Y-98371000D01*
X164621000Y-98351000D01*
X164879000Y-98351000D01*
X164879000Y-98371000D01*
X164879000Y-98371000D01*
G37*
X164879000Y-98371000D02*
X164899000Y-98371000D01*
X164899000Y-98629000D01*
X164879000Y-98629000D01*
X164879000Y-99474750D01*
X165037250Y-99633000D01*
X165200001Y-99633000D01*
X165200001Y-103992893D01*
X164646447Y-104546447D01*
X164538060Y-104708658D01*
X164507791Y-104860832D01*
X164479641Y-104879641D01*
X164396758Y-105003683D01*
X164367654Y-105150000D01*
X164367654Y-105425240D01*
X163648033Y-106144861D01*
X163648033Y-104471211D01*
X163609973Y-104279869D01*
X163501586Y-104117657D01*
X162280375Y-102896447D01*
X162118164Y-102788060D01*
X162114092Y-102787250D01*
X161926822Y-102750000D01*
X161582346Y-102750000D01*
X161582346Y-102625000D01*
X161557482Y-102500000D01*
X161582346Y-102375000D01*
X161582346Y-102367599D01*
X161809705Y-102595356D01*
X162131188Y-102728848D01*
X162479285Y-102729151D01*
X162801000Y-102596221D01*
X163047356Y-102350295D01*
X163180848Y-102028812D01*
X163181151Y-101680715D01*
X163048221Y-101359000D01*
X162802295Y-101112644D01*
X162798908Y-101111237D01*
X162767940Y-100955552D01*
X162747525Y-100924998D01*
X162883677Y-100925117D01*
X163131857Y-100822571D01*
X163321903Y-100632856D01*
X163424883Y-100384855D01*
X163425117Y-100116323D01*
X163322571Y-99868143D01*
X163285507Y-99831014D01*
X163387362Y-99585723D01*
X163387596Y-99317191D01*
X163355558Y-99239654D01*
X163483566Y-99186631D01*
X163507314Y-99162883D01*
X163588368Y-99358565D01*
X163766434Y-99536631D01*
X163999088Y-99633000D01*
X164462750Y-99633000D01*
X164621000Y-99474750D01*
X164621000Y-98629000D01*
X164601000Y-98629000D01*
X164601000Y-98371000D01*
X164621000Y-98371000D01*
X164621000Y-98351000D01*
X164879000Y-98351000D01*
X164879000Y-98371000D01*
G36*
X142746447Y-96353553D02*
X142908658Y-96461940D01*
X143100000Y-96500000D01*
X143882628Y-96500000D01*
X143846758Y-96553683D01*
X143817654Y-96700000D01*
X143817654Y-97700000D01*
X143846758Y-97846317D01*
X143929641Y-97970359D01*
X144053683Y-98053242D01*
X144200000Y-98082346D01*
X145800000Y-98082346D01*
X145946317Y-98053242D01*
X146025999Y-98000000D01*
X146512545Y-98000000D01*
X146521758Y-98046317D01*
X146604641Y-98170359D01*
X146728683Y-98253242D01*
X146875000Y-98282346D01*
X147325239Y-98282346D01*
X147542893Y-98500000D01*
X147325239Y-98717654D01*
X146875000Y-98717654D01*
X146728683Y-98746758D01*
X146604641Y-98829641D01*
X146521758Y-98953683D01*
X146512545Y-99000000D01*
X146025999Y-99000000D01*
X145946317Y-98946758D01*
X145800000Y-98917654D01*
X144200000Y-98917654D01*
X144053683Y-98946758D01*
X143929641Y-99029641D01*
X143846758Y-99153683D01*
X143817654Y-99300000D01*
X143817654Y-100300000D01*
X143846758Y-100446317D01*
X143929641Y-100570359D01*
X144053683Y-100653242D01*
X144200000Y-100682346D01*
X145800000Y-100682346D01*
X145946317Y-100653242D01*
X146070359Y-100570359D01*
X146153242Y-100446317D01*
X146182346Y-100300000D01*
X146182346Y-100000000D01*
X146512545Y-100000000D01*
X146521758Y-100046317D01*
X146529528Y-100057945D01*
X146516434Y-100063369D01*
X146338368Y-100241435D01*
X146242000Y-100474089D01*
X146242000Y-100712750D01*
X146400250Y-100871000D01*
X147121000Y-100871000D01*
X147121000Y-100851000D01*
X147379000Y-100851000D01*
X147379000Y-100871000D01*
X147399000Y-100871000D01*
X147399000Y-101129000D01*
X147379000Y-101129000D01*
X147379000Y-101149000D01*
X147121000Y-101149000D01*
X147121000Y-101129000D01*
X146400250Y-101129000D01*
X146274724Y-101254527D01*
X146233566Y-101213369D01*
X146000912Y-101117000D01*
X145537250Y-101117000D01*
X145379000Y-101275250D01*
X145379000Y-101375000D01*
X145121000Y-101375000D01*
X145121000Y-101275250D01*
X144962750Y-101117000D01*
X144499088Y-101117000D01*
X144266434Y-101213369D01*
X144104803Y-101375000D01*
X142500000Y-101375000D01*
X142452165Y-101384515D01*
X142411612Y-101411612D01*
X142384515Y-101452165D01*
X142375000Y-101500000D01*
X142375000Y-102228372D01*
X142303564Y-102121461D01*
X141574998Y-101392896D01*
X141574998Y-101007104D01*
X141853554Y-100728549D01*
X141923388Y-100624034D01*
X141961940Y-100566338D01*
X142000000Y-100374996D01*
X142000000Y-95607106D01*
X142746447Y-96353553D01*
X142746447Y-96353553D01*
G37*
X142746447Y-96353553D02*
X142908658Y-96461940D01*
X143100000Y-96500000D01*
X143882628Y-96500000D01*
X143846758Y-96553683D01*
X143817654Y-96700000D01*
X143817654Y-97700000D01*
X143846758Y-97846317D01*
X143929641Y-97970359D01*
X144053683Y-98053242D01*
X144200000Y-98082346D01*
X145800000Y-98082346D01*
X145946317Y-98053242D01*
X146025999Y-98000000D01*
X146512545Y-98000000D01*
X146521758Y-98046317D01*
X146604641Y-98170359D01*
X146728683Y-98253242D01*
X146875000Y-98282346D01*
X147325239Y-98282346D01*
X147542893Y-98500000D01*
X147325239Y-98717654D01*
X146875000Y-98717654D01*
X146728683Y-98746758D01*
X146604641Y-98829641D01*
X146521758Y-98953683D01*
X146512545Y-99000000D01*
X146025999Y-99000000D01*
X145946317Y-98946758D01*
X145800000Y-98917654D01*
X144200000Y-98917654D01*
X144053683Y-98946758D01*
X143929641Y-99029641D01*
X143846758Y-99153683D01*
X143817654Y-99300000D01*
X143817654Y-100300000D01*
X143846758Y-100446317D01*
X143929641Y-100570359D01*
X144053683Y-100653242D01*
X144200000Y-100682346D01*
X145800000Y-100682346D01*
X145946317Y-100653242D01*
X146070359Y-100570359D01*
X146153242Y-100446317D01*
X146182346Y-100300000D01*
X146182346Y-100000000D01*
X146512545Y-100000000D01*
X146521758Y-100046317D01*
X146529528Y-100057945D01*
X146516434Y-100063369D01*
X146338368Y-100241435D01*
X146242000Y-100474089D01*
X146242000Y-100712750D01*
X146400250Y-100871000D01*
X147121000Y-100871000D01*
X147121000Y-100851000D01*
X147379000Y-100851000D01*
X147379000Y-100871000D01*
X147399000Y-100871000D01*
X147399000Y-101129000D01*
X147379000Y-101129000D01*
X147379000Y-101149000D01*
X147121000Y-101149000D01*
X147121000Y-101129000D01*
X146400250Y-101129000D01*
X146274724Y-101254527D01*
X146233566Y-101213369D01*
X146000912Y-101117000D01*
X145537250Y-101117000D01*
X145379000Y-101275250D01*
X145379000Y-101375000D01*
X145121000Y-101375000D01*
X145121000Y-101275250D01*
X144962750Y-101117000D01*
X144499088Y-101117000D01*
X144266434Y-101213369D01*
X144104803Y-101375000D01*
X142500000Y-101375000D01*
X142452165Y-101384515D01*
X142411612Y-101411612D01*
X142384515Y-101452165D01*
X142375000Y-101500000D01*
X142375000Y-102228372D01*
X142303564Y-102121461D01*
X141574998Y-101392896D01*
X141574998Y-101007104D01*
X141853554Y-100728549D01*
X141923388Y-100624034D01*
X141961940Y-100566338D01*
X142000000Y-100374996D01*
X142000000Y-95607106D01*
X142746447Y-96353553D01*
G36*
X160808056Y-92691939D02*
X160808058Y-92691942D01*
X163851083Y-95734966D01*
X163771758Y-95853683D01*
X163742654Y-96000000D01*
X163742654Y-96125000D01*
X163425667Y-96125000D01*
X163395359Y-96079641D01*
X163271317Y-95996758D01*
X163125000Y-95967654D01*
X162375000Y-95967654D01*
X162228683Y-95996758D01*
X162104641Y-96079641D01*
X162021758Y-96203683D01*
X161992654Y-96350000D01*
X161992654Y-96750000D01*
X161236931Y-96750000D01*
X161200000Y-96742654D01*
X160200000Y-96742654D01*
X160053683Y-96771758D01*
X159929641Y-96854641D01*
X159846758Y-96978683D01*
X159820845Y-97108958D01*
X159663369Y-97266434D01*
X159567000Y-97499088D01*
X159567000Y-97529250D01*
X159725250Y-97687500D01*
X159992709Y-97687500D01*
X160053683Y-97728242D01*
X160163069Y-97750000D01*
X160053683Y-97771758D01*
X159992709Y-97812500D01*
X159725250Y-97812500D01*
X159567000Y-97970750D01*
X159567000Y-98000912D01*
X159597723Y-98075085D01*
X159366323Y-98074883D01*
X159118143Y-98177429D01*
X158928097Y-98367144D01*
X158825117Y-98615145D01*
X158824883Y-98883677D01*
X158927429Y-99131857D01*
X159000000Y-99204555D01*
X159000000Y-99300000D01*
X159022728Y-99414262D01*
X159038060Y-99491342D01*
X159146447Y-99653553D01*
X159596447Y-100103553D01*
X159758658Y-100211940D01*
X159817654Y-100223675D01*
X159817654Y-100375000D01*
X159842518Y-100500000D01*
X159817654Y-100625000D01*
X159817654Y-100750000D01*
X158086544Y-100750000D01*
X157683991Y-100347448D01*
X157521780Y-100239061D01*
X157330438Y-100201001D01*
X155052438Y-100201001D01*
X154587029Y-99735592D01*
X154424818Y-99627205D01*
X154271370Y-99596683D01*
X154192068Y-99517242D01*
X153944067Y-99414262D01*
X153675535Y-99414028D01*
X153427355Y-99516574D01*
X153325431Y-99618320D01*
X153170288Y-99463177D01*
X153221468Y-99463222D01*
X153469648Y-99360676D01*
X153542346Y-99288105D01*
X156336899Y-99288105D01*
X156528241Y-99250045D01*
X156690452Y-99141658D01*
X157528552Y-98303559D01*
X157636939Y-98141347D01*
X157645138Y-98100127D01*
X157674999Y-97950005D01*
X157674999Y-97574979D01*
X157833677Y-97575117D01*
X158081857Y-97472571D01*
X158271903Y-97282856D01*
X158374883Y-97034855D01*
X158375117Y-96766323D01*
X158272571Y-96518143D01*
X158250000Y-96495533D01*
X158250000Y-96182346D01*
X158375000Y-96182346D01*
X158500000Y-96157482D01*
X158625000Y-96182346D01*
X158875000Y-96182346D01*
X159021317Y-96153242D01*
X159145359Y-96070359D01*
X159228242Y-95946317D01*
X159257346Y-95800000D01*
X159257346Y-94800000D01*
X159250000Y-94763069D01*
X159250000Y-93980000D01*
X159211940Y-93788658D01*
X159170999Y-93727387D01*
X159171117Y-93592323D01*
X159068571Y-93344143D01*
X158878856Y-93154097D01*
X158630855Y-93051117D01*
X158362323Y-93050883D01*
X158114143Y-93153429D01*
X157924097Y-93343144D01*
X157901064Y-93398612D01*
X157901117Y-93338323D01*
X157798571Y-93090143D01*
X157608856Y-92900097D01*
X157360855Y-92797117D01*
X157092323Y-92796883D01*
X156844143Y-92899429D01*
X156654097Y-93089144D01*
X156556140Y-93325048D01*
X156549969Y-93325043D01*
X156550107Y-93166323D01*
X156456198Y-92939045D01*
X156638938Y-92816942D01*
X158785998Y-90669882D01*
X160808056Y-92691939D01*
X160808056Y-92691939D01*
G37*
X160808056Y-92691939D02*
X160808058Y-92691942D01*
X163851083Y-95734966D01*
X163771758Y-95853683D01*
X163742654Y-96000000D01*
X163742654Y-96125000D01*
X163425667Y-96125000D01*
X163395359Y-96079641D01*
X163271317Y-95996758D01*
X163125000Y-95967654D01*
X162375000Y-95967654D01*
X162228683Y-95996758D01*
X162104641Y-96079641D01*
X162021758Y-96203683D01*
X161992654Y-96350000D01*
X161992654Y-96750000D01*
X161236931Y-96750000D01*
X161200000Y-96742654D01*
X160200000Y-96742654D01*
X160053683Y-96771758D01*
X159929641Y-96854641D01*
X159846758Y-96978683D01*
X159820845Y-97108958D01*
X159663369Y-97266434D01*
X159567000Y-97499088D01*
X159567000Y-97529250D01*
X159725250Y-97687500D01*
X159992709Y-97687500D01*
X160053683Y-97728242D01*
X160163069Y-97750000D01*
X160053683Y-97771758D01*
X159992709Y-97812500D01*
X159725250Y-97812500D01*
X159567000Y-97970750D01*
X159567000Y-98000912D01*
X159597723Y-98075085D01*
X159366323Y-98074883D01*
X159118143Y-98177429D01*
X158928097Y-98367144D01*
X158825117Y-98615145D01*
X158824883Y-98883677D01*
X158927429Y-99131857D01*
X159000000Y-99204555D01*
X159000000Y-99300000D01*
X159022728Y-99414262D01*
X159038060Y-99491342D01*
X159146447Y-99653553D01*
X159596447Y-100103553D01*
X159758658Y-100211940D01*
X159817654Y-100223675D01*
X159817654Y-100375000D01*
X159842518Y-100500000D01*
X159817654Y-100625000D01*
X159817654Y-100750000D01*
X158086544Y-100750000D01*
X157683991Y-100347448D01*
X157521780Y-100239061D01*
X157330438Y-100201001D01*
X155052438Y-100201001D01*
X154587029Y-99735592D01*
X154424818Y-99627205D01*
X154271370Y-99596683D01*
X154192068Y-99517242D01*
X153944067Y-99414262D01*
X153675535Y-99414028D01*
X153427355Y-99516574D01*
X153325431Y-99618320D01*
X153170288Y-99463177D01*
X153221468Y-99463222D01*
X153469648Y-99360676D01*
X153542346Y-99288105D01*
X156336899Y-99288105D01*
X156528241Y-99250045D01*
X156690452Y-99141658D01*
X157528552Y-98303559D01*
X157636939Y-98141347D01*
X157645138Y-98100127D01*
X157674999Y-97950005D01*
X157674999Y-97574979D01*
X157833677Y-97575117D01*
X158081857Y-97472571D01*
X158271903Y-97282856D01*
X158374883Y-97034855D01*
X158375117Y-96766323D01*
X158272571Y-96518143D01*
X158250000Y-96495533D01*
X158250000Y-96182346D01*
X158375000Y-96182346D01*
X158500000Y-96157482D01*
X158625000Y-96182346D01*
X158875000Y-96182346D01*
X159021317Y-96153242D01*
X159145359Y-96070359D01*
X159228242Y-95946317D01*
X159257346Y-95800000D01*
X159257346Y-94800000D01*
X159250000Y-94763069D01*
X159250000Y-93980000D01*
X159211940Y-93788658D01*
X159170999Y-93727387D01*
X159171117Y-93592323D01*
X159068571Y-93344143D01*
X158878856Y-93154097D01*
X158630855Y-93051117D01*
X158362323Y-93050883D01*
X158114143Y-93153429D01*
X157924097Y-93343144D01*
X157901064Y-93398612D01*
X157901117Y-93338323D01*
X157798571Y-93090143D01*
X157608856Y-92900097D01*
X157360855Y-92797117D01*
X157092323Y-92796883D01*
X156844143Y-92899429D01*
X156654097Y-93089144D01*
X156556140Y-93325048D01*
X156549969Y-93325043D01*
X156550107Y-93166323D01*
X156456198Y-92939045D01*
X156638938Y-92816942D01*
X158785998Y-90669882D01*
X160808056Y-92691939D01*
G36*
X162879000Y-98121000D02*
X162899000Y-98121000D01*
X162899000Y-98379000D01*
X162879000Y-98379000D01*
X162879000Y-98399000D01*
X162621000Y-98399000D01*
X162621000Y-98379000D01*
X162601000Y-98379000D01*
X162601000Y-98121000D01*
X162621000Y-98121000D01*
X162621000Y-98101000D01*
X162879000Y-98101000D01*
X162879000Y-98121000D01*
X162879000Y-98121000D01*
G37*
X162879000Y-98121000D02*
X162899000Y-98121000D01*
X162899000Y-98379000D01*
X162879000Y-98379000D01*
X162879000Y-98399000D01*
X162621000Y-98399000D01*
X162621000Y-98379000D01*
X162601000Y-98379000D01*
X162601000Y-98121000D01*
X162621000Y-98121000D01*
X162621000Y-98101000D01*
X162879000Y-98101000D01*
X162879000Y-98121000D01*
G36*
X149981478Y-96750000D02*
X149836931Y-96750000D01*
X149800000Y-96742654D01*
X148800000Y-96742654D01*
X148653683Y-96771758D01*
X148529641Y-96854641D01*
X148446758Y-96978683D01*
X148417654Y-97125000D01*
X148417654Y-97375000D01*
X148442518Y-97500000D01*
X148417654Y-97625000D01*
X148417654Y-97750000D01*
X148207107Y-97750000D01*
X148007346Y-97550239D01*
X148007346Y-97100000D01*
X147978242Y-96953683D01*
X147970472Y-96942055D01*
X147983566Y-96936631D01*
X148161632Y-96758565D01*
X148258000Y-96525911D01*
X148258000Y-96287250D01*
X148099750Y-96129000D01*
X147379000Y-96129000D01*
X147379000Y-96149000D01*
X147121000Y-96149000D01*
X147121000Y-96129000D01*
X147101000Y-96129000D01*
X147101000Y-95871000D01*
X147121000Y-95871000D01*
X147121000Y-95851000D01*
X147379000Y-95851000D01*
X147379000Y-95871000D01*
X148099750Y-95871000D01*
X148258000Y-95712750D01*
X148258000Y-95474089D01*
X148227311Y-95400000D01*
X148631479Y-95400000D01*
X149981478Y-96750000D01*
X149981478Y-96750000D01*
G37*
X149981478Y-96750000D02*
X149836931Y-96750000D01*
X149800000Y-96742654D01*
X148800000Y-96742654D01*
X148653683Y-96771758D01*
X148529641Y-96854641D01*
X148446758Y-96978683D01*
X148417654Y-97125000D01*
X148417654Y-97375000D01*
X148442518Y-97500000D01*
X148417654Y-97625000D01*
X148417654Y-97750000D01*
X148207107Y-97750000D01*
X148007346Y-97550239D01*
X148007346Y-97100000D01*
X147978242Y-96953683D01*
X147970472Y-96942055D01*
X147983566Y-96936631D01*
X148161632Y-96758565D01*
X148258000Y-96525911D01*
X148258000Y-96287250D01*
X148099750Y-96129000D01*
X147379000Y-96129000D01*
X147379000Y-96149000D01*
X147121000Y-96149000D01*
X147121000Y-96129000D01*
X147101000Y-96129000D01*
X147101000Y-95871000D01*
X147121000Y-95871000D01*
X147121000Y-95851000D01*
X147379000Y-95851000D01*
X147379000Y-95871000D01*
X148099750Y-95871000D01*
X148258000Y-95712750D01*
X148258000Y-95474089D01*
X148227311Y-95400000D01*
X148631479Y-95400000D01*
X149981478Y-96750000D01*
G36*
X136491435Y-93088368D02*
X136313369Y-93266434D01*
X136217000Y-93499088D01*
X136217000Y-93712750D01*
X136375250Y-93871000D01*
X137121000Y-93871000D01*
X137121000Y-93851000D01*
X137379000Y-93851000D01*
X137379000Y-93871000D01*
X137399000Y-93871000D01*
X137399000Y-94129000D01*
X137379000Y-94129000D01*
X137379000Y-94149000D01*
X137121000Y-94149000D01*
X137121000Y-94129000D01*
X136375250Y-94129000D01*
X136217000Y-94287250D01*
X136217000Y-94500912D01*
X136313369Y-94733566D01*
X136491435Y-94911632D01*
X136704775Y-95000000D01*
X134750000Y-95000000D01*
X134562730Y-95037250D01*
X134558658Y-95038060D01*
X134396447Y-95146447D01*
X134125000Y-95417894D01*
X134125000Y-95322055D01*
X136447055Y-93000000D01*
X136704775Y-93000000D01*
X136491435Y-93088368D01*
X136491435Y-93088368D01*
G37*
X136491435Y-93088368D02*
X136313369Y-93266434D01*
X136217000Y-93499088D01*
X136217000Y-93712750D01*
X136375250Y-93871000D01*
X137121000Y-93871000D01*
X137121000Y-93851000D01*
X137379000Y-93851000D01*
X137379000Y-93871000D01*
X137399000Y-93871000D01*
X137399000Y-94129000D01*
X137379000Y-94129000D01*
X137379000Y-94149000D01*
X137121000Y-94149000D01*
X137121000Y-94129000D01*
X136375250Y-94129000D01*
X136217000Y-94287250D01*
X136217000Y-94500912D01*
X136313369Y-94733566D01*
X136491435Y-94911632D01*
X136704775Y-95000000D01*
X134750000Y-95000000D01*
X134562730Y-95037250D01*
X134558658Y-95038060D01*
X134396447Y-95146447D01*
X134125000Y-95417894D01*
X134125000Y-95322055D01*
X136447055Y-93000000D01*
X136704775Y-93000000D01*
X136491435Y-93088368D01*
G36*
X145129000Y-94621000D02*
X145149000Y-94621000D01*
X145149000Y-94879000D01*
X145129000Y-94879000D01*
X145129000Y-94899000D01*
X144871000Y-94899000D01*
X144871000Y-94879000D01*
X144851000Y-94879000D01*
X144851000Y-94621000D01*
X144871000Y-94621000D01*
X144871000Y-94601000D01*
X145129000Y-94601000D01*
X145129000Y-94621000D01*
X145129000Y-94621000D01*
G37*
X145129000Y-94621000D02*
X145149000Y-94621000D01*
X145149000Y-94879000D01*
X145129000Y-94879000D01*
X145129000Y-94899000D01*
X144871000Y-94899000D01*
X144871000Y-94879000D01*
X144851000Y-94879000D01*
X144851000Y-94621000D01*
X144871000Y-94621000D01*
X144871000Y-94601000D01*
X145129000Y-94601000D01*
X145129000Y-94621000D01*
G36*
X153725152Y-93225188D02*
X153724918Y-93494013D01*
X153646448Y-93546445D01*
X152896447Y-94296447D01*
X152815458Y-94417654D01*
X152625000Y-94417654D01*
X152500000Y-94442518D01*
X152391042Y-94420845D01*
X152233566Y-94263369D01*
X152038274Y-94182476D01*
X152121000Y-94099750D01*
X152121000Y-93379000D01*
X152379000Y-93379000D01*
X152379000Y-94099750D01*
X152537250Y-94258000D01*
X152775911Y-94258000D01*
X153008565Y-94161632D01*
X153186631Y-93983566D01*
X153283000Y-93750912D01*
X153283000Y-93537250D01*
X153124750Y-93379000D01*
X152379000Y-93379000D01*
X152121000Y-93379000D01*
X152101000Y-93379000D01*
X152101000Y-93121000D01*
X152121000Y-93121000D01*
X152121000Y-93101000D01*
X152379000Y-93101000D01*
X152379000Y-93121000D01*
X153124750Y-93121000D01*
X153245750Y-93000000D01*
X153818659Y-93000000D01*
X153725152Y-93225188D01*
X153725152Y-93225188D01*
G37*
X153725152Y-93225188D02*
X153724918Y-93494013D01*
X153646448Y-93546445D01*
X152896447Y-94296447D01*
X152815458Y-94417654D01*
X152625000Y-94417654D01*
X152500000Y-94442518D01*
X152391042Y-94420845D01*
X152233566Y-94263369D01*
X152038274Y-94182476D01*
X152121000Y-94099750D01*
X152121000Y-93379000D01*
X152379000Y-93379000D01*
X152379000Y-94099750D01*
X152537250Y-94258000D01*
X152775911Y-94258000D01*
X153008565Y-94161632D01*
X153186631Y-93983566D01*
X153283000Y-93750912D01*
X153283000Y-93537250D01*
X153124750Y-93379000D01*
X152379000Y-93379000D01*
X152121000Y-93379000D01*
X152101000Y-93379000D01*
X152101000Y-93121000D01*
X152121000Y-93121000D01*
X152121000Y-93101000D01*
X152379000Y-93101000D01*
X152379000Y-93121000D01*
X153124750Y-93121000D01*
X153245750Y-93000000D01*
X153818659Y-93000000D01*
X153725152Y-93225188D01*
G36*
X143449000Y-94367654D02*
X143151000Y-94367654D01*
X143151000Y-94282346D01*
X143449000Y-94282346D01*
X143449000Y-94367654D01*
X143449000Y-94367654D01*
G37*
X143449000Y-94367654D02*
X143151000Y-94367654D01*
X143151000Y-94282346D01*
X143449000Y-94282346D01*
X143449000Y-94367654D01*
G36*
X135156828Y-77781907D02*
X134985196Y-78195242D01*
X134984805Y-78642795D01*
X135155715Y-79056429D01*
X135471907Y-79373172D01*
X135885242Y-79544804D01*
X136332795Y-79545195D01*
X136746429Y-79374285D01*
X137063172Y-79058093D01*
X137234804Y-78644758D01*
X137235195Y-78197205D01*
X137064285Y-77783571D01*
X136905990Y-77625000D01*
X137854008Y-77625000D01*
X137696828Y-77781907D01*
X137525196Y-78195242D01*
X137524805Y-78642795D01*
X137695715Y-79056429D01*
X138011907Y-79373172D01*
X138425242Y-79544804D01*
X138872795Y-79545195D01*
X139286429Y-79374285D01*
X139603172Y-79058093D01*
X139774804Y-78644758D01*
X139775195Y-78197205D01*
X139604285Y-77783571D01*
X139445990Y-77625000D01*
X140394008Y-77625000D01*
X140236828Y-77781907D01*
X140065196Y-78195242D01*
X140064805Y-78642795D01*
X140235715Y-79056429D01*
X140551907Y-79373172D01*
X140965242Y-79544804D01*
X141412795Y-79545195D01*
X141826429Y-79374285D01*
X142143172Y-79058093D01*
X142314804Y-78644758D01*
X142315195Y-78197205D01*
X142144285Y-77783571D01*
X141985990Y-77625000D01*
X142934008Y-77625000D01*
X142776828Y-77781907D01*
X142605196Y-78195242D01*
X142604805Y-78642795D01*
X142775715Y-79056429D01*
X143091907Y-79373172D01*
X143505242Y-79544804D01*
X143952795Y-79545195D01*
X144366429Y-79374285D01*
X144683172Y-79058093D01*
X144854804Y-78644758D01*
X144855195Y-78197205D01*
X144684285Y-77783571D01*
X144525990Y-77625000D01*
X148014008Y-77625000D01*
X147856828Y-77781907D01*
X147685196Y-78195242D01*
X147684805Y-78642795D01*
X147855715Y-79056429D01*
X148171907Y-79373172D01*
X148585242Y-79544804D01*
X149032795Y-79545195D01*
X149446429Y-79374285D01*
X149763172Y-79058093D01*
X149934804Y-78644758D01*
X149935195Y-78197205D01*
X149764285Y-77783571D01*
X149605990Y-77625000D01*
X153094008Y-77625000D01*
X152936828Y-77781907D01*
X152765196Y-78195242D01*
X152764805Y-78642795D01*
X152935715Y-79056429D01*
X153251907Y-79373172D01*
X153665242Y-79544804D01*
X154112795Y-79545195D01*
X154526429Y-79374285D01*
X154843172Y-79058093D01*
X155014804Y-78644758D01*
X155015195Y-78197205D01*
X154844285Y-77783571D01*
X154685990Y-77625000D01*
X158375000Y-77625000D01*
X158375000Y-81000000D01*
X157954634Y-81000000D01*
X157882856Y-80928097D01*
X157634855Y-80825117D01*
X157366323Y-80824883D01*
X157118143Y-80927429D01*
X156928097Y-81117144D01*
X156825117Y-81365145D01*
X156824883Y-81633677D01*
X156927429Y-81881857D01*
X157117144Y-82071903D01*
X157365145Y-82174883D01*
X157633677Y-82175117D01*
X157881857Y-82072571D01*
X157954555Y-82000000D01*
X158375000Y-82000000D01*
X158375000Y-89414185D01*
X158332818Y-89422575D01*
X158130054Y-89558058D01*
X155938112Y-91750000D01*
X153633000Y-91750000D01*
X153633000Y-91537250D01*
X153474750Y-91379000D01*
X152629000Y-91379000D01*
X152629000Y-91399000D01*
X152371000Y-91399000D01*
X152371000Y-91379000D01*
X152351000Y-91379000D01*
X152351000Y-91121000D01*
X152371000Y-91121000D01*
X152371000Y-90150250D01*
X152629000Y-90150250D01*
X152629000Y-91121000D01*
X153474750Y-91121000D01*
X153633000Y-90962750D01*
X153633000Y-90499088D01*
X153536631Y-90266434D01*
X153358565Y-90088368D01*
X153125911Y-89992000D01*
X152787250Y-89992000D01*
X152629000Y-90150250D01*
X152371000Y-90150250D01*
X152212750Y-89992000D01*
X151874089Y-89992000D01*
X151641435Y-90088368D01*
X151463369Y-90266434D01*
X151367000Y-90499088D01*
X151367000Y-90547850D01*
X151353242Y-90478683D01*
X151270359Y-90354641D01*
X151146317Y-90271758D01*
X151000000Y-90242654D01*
X150000000Y-90242654D01*
X149853683Y-90271758D01*
X149729641Y-90354641D01*
X149646758Y-90478683D01*
X149617654Y-90625000D01*
X146350000Y-90625000D01*
X146110822Y-90672575D01*
X145908058Y-90808058D01*
X144558058Y-92158058D01*
X144422575Y-92360823D01*
X144382791Y-92560832D01*
X144354641Y-92579641D01*
X144271758Y-92703683D01*
X144242654Y-92850000D01*
X144242654Y-93175000D01*
X144132346Y-93175000D01*
X144132346Y-92800000D01*
X144103242Y-92653683D01*
X144020359Y-92529641D01*
X143896317Y-92446758D01*
X143750000Y-92417654D01*
X143001132Y-92417654D01*
X142953553Y-92346447D01*
X142074854Y-91467748D01*
X142075151Y-91126715D01*
X141942221Y-90805000D01*
X141696295Y-90558644D01*
X141374812Y-90425152D01*
X141026715Y-90424849D01*
X140705000Y-90557779D01*
X140458644Y-90803705D01*
X140325152Y-91125188D01*
X140324849Y-91473285D01*
X140457779Y-91795000D01*
X140703705Y-92041356D01*
X141025188Y-92174848D01*
X141368040Y-92175146D01*
X142055394Y-92862500D01*
X141965639Y-92952255D01*
X141961940Y-92933658D01*
X141937076Y-92896447D01*
X141853553Y-92771446D01*
X141753553Y-92671447D01*
X141591342Y-92563060D01*
X141419099Y-92528799D01*
X141296317Y-92446758D01*
X141150000Y-92417654D01*
X140250000Y-92417654D01*
X140174733Y-92432625D01*
X139263554Y-91521446D01*
X139101343Y-91413059D01*
X138910001Y-91374999D01*
X138075001Y-91374999D01*
X137883659Y-91413059D01*
X137841331Y-91441342D01*
X137721448Y-91521445D01*
X137425240Y-91817654D01*
X137350000Y-91817654D01*
X137203683Y-91846758D01*
X137079641Y-91929641D01*
X137032628Y-92000000D01*
X136239949Y-92000000D01*
X136048607Y-92038060D01*
X135886396Y-92146447D01*
X134125000Y-93907843D01*
X134125000Y-89000000D01*
X134115485Y-88952165D01*
X134088388Y-88911612D01*
X134047835Y-88884515D01*
X134000000Y-88875000D01*
X127875000Y-88875000D01*
X127875000Y-88802795D01*
X134984805Y-88802795D01*
X135155715Y-89216429D01*
X135471907Y-89533172D01*
X135885242Y-89704804D01*
X136332795Y-89705195D01*
X136746429Y-89534285D01*
X137063172Y-89218093D01*
X137234804Y-88804758D01*
X137234805Y-88802795D01*
X137524805Y-88802795D01*
X137695715Y-89216429D01*
X138011907Y-89533172D01*
X138425242Y-89704804D01*
X138872795Y-89705195D01*
X139286429Y-89534285D01*
X139603172Y-89218093D01*
X139774804Y-88804758D01*
X139774805Y-88802795D01*
X140064805Y-88802795D01*
X140235715Y-89216429D01*
X140551907Y-89533172D01*
X140965242Y-89704804D01*
X141412795Y-89705195D01*
X141826429Y-89534285D01*
X142143172Y-89218093D01*
X142314804Y-88804758D01*
X142314805Y-88802795D01*
X142604805Y-88802795D01*
X142775715Y-89216429D01*
X143091907Y-89533172D01*
X143505242Y-89704804D01*
X143952795Y-89705195D01*
X144366429Y-89534285D01*
X144683172Y-89218093D01*
X144854804Y-88804758D01*
X144854805Y-88802795D01*
X145144805Y-88802795D01*
X145315715Y-89216429D01*
X145631907Y-89533172D01*
X146045242Y-89704804D01*
X146492795Y-89705195D01*
X146906429Y-89534285D01*
X147223172Y-89218093D01*
X147394804Y-88804758D01*
X147394805Y-88802795D01*
X147684805Y-88802795D01*
X147855715Y-89216429D01*
X148171907Y-89533172D01*
X148585242Y-89704804D01*
X149032795Y-89705195D01*
X149446429Y-89534285D01*
X149763172Y-89218093D01*
X149934804Y-88804758D01*
X149934805Y-88802795D01*
X150224805Y-88802795D01*
X150395715Y-89216429D01*
X150711907Y-89533172D01*
X151125242Y-89704804D01*
X151572795Y-89705195D01*
X151986429Y-89534285D01*
X152303172Y-89218093D01*
X152474804Y-88804758D01*
X152474805Y-88802795D01*
X152764805Y-88802795D01*
X152935715Y-89216429D01*
X153251907Y-89533172D01*
X153665242Y-89704804D01*
X154112795Y-89705195D01*
X154526429Y-89534285D01*
X154843172Y-89218093D01*
X155014804Y-88804758D01*
X155015195Y-88357205D01*
X154844285Y-87943571D01*
X154528093Y-87626828D01*
X154114758Y-87455196D01*
X153667205Y-87454805D01*
X153253571Y-87625715D01*
X152936828Y-87941907D01*
X152765196Y-88355242D01*
X152764805Y-88802795D01*
X152474805Y-88802795D01*
X152475195Y-88357205D01*
X152304285Y-87943571D01*
X151988093Y-87626828D01*
X151574758Y-87455196D01*
X151127205Y-87454805D01*
X150713571Y-87625715D01*
X150396828Y-87941907D01*
X150225196Y-88355242D01*
X150224805Y-88802795D01*
X149934805Y-88802795D01*
X149935195Y-88357205D01*
X149764285Y-87943571D01*
X149448093Y-87626828D01*
X149034758Y-87455196D01*
X148587205Y-87454805D01*
X148173571Y-87625715D01*
X147856828Y-87941907D01*
X147685196Y-88355242D01*
X147684805Y-88802795D01*
X147394805Y-88802795D01*
X147395195Y-88357205D01*
X147224285Y-87943571D01*
X146908093Y-87626828D01*
X146494758Y-87455196D01*
X146047205Y-87454805D01*
X145633571Y-87625715D01*
X145316828Y-87941907D01*
X145145196Y-88355242D01*
X145144805Y-88802795D01*
X144854805Y-88802795D01*
X144855195Y-88357205D01*
X144684285Y-87943571D01*
X144368093Y-87626828D01*
X143954758Y-87455196D01*
X143507205Y-87454805D01*
X143093571Y-87625715D01*
X142776828Y-87941907D01*
X142605196Y-88355242D01*
X142604805Y-88802795D01*
X142314805Y-88802795D01*
X142315195Y-88357205D01*
X142144285Y-87943571D01*
X141828093Y-87626828D01*
X141414758Y-87455196D01*
X140967205Y-87454805D01*
X140553571Y-87625715D01*
X140236828Y-87941907D01*
X140065196Y-88355242D01*
X140064805Y-88802795D01*
X139774805Y-88802795D01*
X139775195Y-88357205D01*
X139604285Y-87943571D01*
X139288093Y-87626828D01*
X138874758Y-87455196D01*
X138427205Y-87454805D01*
X138013571Y-87625715D01*
X137696828Y-87941907D01*
X137525196Y-88355242D01*
X137524805Y-88802795D01*
X137234805Y-88802795D01*
X137235195Y-88357205D01*
X137064285Y-87943571D01*
X136748093Y-87626828D01*
X136334758Y-87455196D01*
X135887205Y-87454805D01*
X135473571Y-87625715D01*
X135156828Y-87941907D01*
X134985196Y-88355242D01*
X134984805Y-88802795D01*
X127875000Y-88802795D01*
X127875000Y-86133677D01*
X136424877Y-86133677D01*
X136527423Y-86381857D01*
X136717138Y-86571903D01*
X136965139Y-86674883D01*
X137233671Y-86675117D01*
X137481851Y-86572571D01*
X137554549Y-86500000D01*
X139445368Y-86500000D01*
X139517144Y-86571901D01*
X139765145Y-86674881D01*
X140033677Y-86675115D01*
X140281857Y-86572569D01*
X140354553Y-86500000D01*
X144295366Y-86500000D01*
X144367144Y-86571903D01*
X144615145Y-86674883D01*
X144883677Y-86675117D01*
X145131857Y-86572571D01*
X145204555Y-86500000D01*
X148750000Y-86500000D01*
X148941342Y-86461940D01*
X149103553Y-86353553D01*
X150782078Y-84675028D01*
X150883677Y-84675117D01*
X151131857Y-84572571D01*
X151321903Y-84382856D01*
X151424883Y-84134855D01*
X151425117Y-83866323D01*
X151322571Y-83618143D01*
X151132856Y-83428097D01*
X150884855Y-83325117D01*
X150616323Y-83324883D01*
X150368143Y-83427429D01*
X150178097Y-83617144D01*
X150075117Y-83865145D01*
X150075027Y-83967867D01*
X148542894Y-85500000D01*
X145204634Y-85500000D01*
X145132856Y-85428097D01*
X144884855Y-85325117D01*
X144616323Y-85324883D01*
X144368143Y-85427429D01*
X144295445Y-85500000D01*
X140354636Y-85500000D01*
X140282856Y-85428095D01*
X140034855Y-85325115D01*
X139766323Y-85324881D01*
X139518143Y-85427427D01*
X139445443Y-85500000D01*
X137554628Y-85500000D01*
X137482850Y-85428097D01*
X137234849Y-85325117D01*
X136966317Y-85324883D01*
X136718137Y-85427429D01*
X136528091Y-85617144D01*
X136425111Y-85865145D01*
X136424877Y-86133677D01*
X127875000Y-86133677D01*
X127875000Y-77625000D01*
X135314008Y-77625000D01*
X135156828Y-77781907D01*
X135156828Y-77781907D01*
G37*
X135156828Y-77781907D02*
X134985196Y-78195242D01*
X134984805Y-78642795D01*
X135155715Y-79056429D01*
X135471907Y-79373172D01*
X135885242Y-79544804D01*
X136332795Y-79545195D01*
X136746429Y-79374285D01*
X137063172Y-79058093D01*
X137234804Y-78644758D01*
X137235195Y-78197205D01*
X137064285Y-77783571D01*
X136905990Y-77625000D01*
X137854008Y-77625000D01*
X137696828Y-77781907D01*
X137525196Y-78195242D01*
X137524805Y-78642795D01*
X137695715Y-79056429D01*
X138011907Y-79373172D01*
X138425242Y-79544804D01*
X138872795Y-79545195D01*
X139286429Y-79374285D01*
X139603172Y-79058093D01*
X139774804Y-78644758D01*
X139775195Y-78197205D01*
X139604285Y-77783571D01*
X139445990Y-77625000D01*
X140394008Y-77625000D01*
X140236828Y-77781907D01*
X140065196Y-78195242D01*
X140064805Y-78642795D01*
X140235715Y-79056429D01*
X140551907Y-79373172D01*
X140965242Y-79544804D01*
X141412795Y-79545195D01*
X141826429Y-79374285D01*
X142143172Y-79058093D01*
X142314804Y-78644758D01*
X142315195Y-78197205D01*
X142144285Y-77783571D01*
X141985990Y-77625000D01*
X142934008Y-77625000D01*
X142776828Y-77781907D01*
X142605196Y-78195242D01*
X142604805Y-78642795D01*
X142775715Y-79056429D01*
X143091907Y-79373172D01*
X143505242Y-79544804D01*
X143952795Y-79545195D01*
X144366429Y-79374285D01*
X144683172Y-79058093D01*
X144854804Y-78644758D01*
X144855195Y-78197205D01*
X144684285Y-77783571D01*
X144525990Y-77625000D01*
X148014008Y-77625000D01*
X147856828Y-77781907D01*
X147685196Y-78195242D01*
X147684805Y-78642795D01*
X147855715Y-79056429D01*
X148171907Y-79373172D01*
X148585242Y-79544804D01*
X149032795Y-79545195D01*
X149446429Y-79374285D01*
X149763172Y-79058093D01*
X149934804Y-78644758D01*
X149935195Y-78197205D01*
X149764285Y-77783571D01*
X149605990Y-77625000D01*
X153094008Y-77625000D01*
X152936828Y-77781907D01*
X152765196Y-78195242D01*
X152764805Y-78642795D01*
X152935715Y-79056429D01*
X153251907Y-79373172D01*
X153665242Y-79544804D01*
X154112795Y-79545195D01*
X154526429Y-79374285D01*
X154843172Y-79058093D01*
X155014804Y-78644758D01*
X155015195Y-78197205D01*
X154844285Y-77783571D01*
X154685990Y-77625000D01*
X158375000Y-77625000D01*
X158375000Y-81000000D01*
X157954634Y-81000000D01*
X157882856Y-80928097D01*
X157634855Y-80825117D01*
X157366323Y-80824883D01*
X157118143Y-80927429D01*
X156928097Y-81117144D01*
X156825117Y-81365145D01*
X156824883Y-81633677D01*
X156927429Y-81881857D01*
X157117144Y-82071903D01*
X157365145Y-82174883D01*
X157633677Y-82175117D01*
X157881857Y-82072571D01*
X157954555Y-82000000D01*
X158375000Y-82000000D01*
X158375000Y-89414185D01*
X158332818Y-89422575D01*
X158130054Y-89558058D01*
X155938112Y-91750000D01*
X153633000Y-91750000D01*
X153633000Y-91537250D01*
X153474750Y-91379000D01*
X152629000Y-91379000D01*
X152629000Y-91399000D01*
X152371000Y-91399000D01*
X152371000Y-91379000D01*
X152351000Y-91379000D01*
X152351000Y-91121000D01*
X152371000Y-91121000D01*
X152371000Y-90150250D01*
X152629000Y-90150250D01*
X152629000Y-91121000D01*
X153474750Y-91121000D01*
X153633000Y-90962750D01*
X153633000Y-90499088D01*
X153536631Y-90266434D01*
X153358565Y-90088368D01*
X153125911Y-89992000D01*
X152787250Y-89992000D01*
X152629000Y-90150250D01*
X152371000Y-90150250D01*
X152212750Y-89992000D01*
X151874089Y-89992000D01*
X151641435Y-90088368D01*
X151463369Y-90266434D01*
X151367000Y-90499088D01*
X151367000Y-90547850D01*
X151353242Y-90478683D01*
X151270359Y-90354641D01*
X151146317Y-90271758D01*
X151000000Y-90242654D01*
X150000000Y-90242654D01*
X149853683Y-90271758D01*
X149729641Y-90354641D01*
X149646758Y-90478683D01*
X149617654Y-90625000D01*
X146350000Y-90625000D01*
X146110822Y-90672575D01*
X145908058Y-90808058D01*
X144558058Y-92158058D01*
X144422575Y-92360823D01*
X144382791Y-92560832D01*
X144354641Y-92579641D01*
X144271758Y-92703683D01*
X144242654Y-92850000D01*
X144242654Y-93175000D01*
X144132346Y-93175000D01*
X144132346Y-92800000D01*
X144103242Y-92653683D01*
X144020359Y-92529641D01*
X143896317Y-92446758D01*
X143750000Y-92417654D01*
X143001132Y-92417654D01*
X142953553Y-92346447D01*
X142074854Y-91467748D01*
X142075151Y-91126715D01*
X141942221Y-90805000D01*
X141696295Y-90558644D01*
X141374812Y-90425152D01*
X141026715Y-90424849D01*
X140705000Y-90557779D01*
X140458644Y-90803705D01*
X140325152Y-91125188D01*
X140324849Y-91473285D01*
X140457779Y-91795000D01*
X140703705Y-92041356D01*
X141025188Y-92174848D01*
X141368040Y-92175146D01*
X142055394Y-92862500D01*
X141965639Y-92952255D01*
X141961940Y-92933658D01*
X141937076Y-92896447D01*
X141853553Y-92771446D01*
X141753553Y-92671447D01*
X141591342Y-92563060D01*
X141419099Y-92528799D01*
X141296317Y-92446758D01*
X141150000Y-92417654D01*
X140250000Y-92417654D01*
X140174733Y-92432625D01*
X139263554Y-91521446D01*
X139101343Y-91413059D01*
X138910001Y-91374999D01*
X138075001Y-91374999D01*
X137883659Y-91413059D01*
X137841331Y-91441342D01*
X137721448Y-91521445D01*
X137425240Y-91817654D01*
X137350000Y-91817654D01*
X137203683Y-91846758D01*
X137079641Y-91929641D01*
X137032628Y-92000000D01*
X136239949Y-92000000D01*
X136048607Y-92038060D01*
X135886396Y-92146447D01*
X134125000Y-93907843D01*
X134125000Y-89000000D01*
X134115485Y-88952165D01*
X134088388Y-88911612D01*
X134047835Y-88884515D01*
X134000000Y-88875000D01*
X127875000Y-88875000D01*
X127875000Y-88802795D01*
X134984805Y-88802795D01*
X135155715Y-89216429D01*
X135471907Y-89533172D01*
X135885242Y-89704804D01*
X136332795Y-89705195D01*
X136746429Y-89534285D01*
X137063172Y-89218093D01*
X137234804Y-88804758D01*
X137234805Y-88802795D01*
X137524805Y-88802795D01*
X137695715Y-89216429D01*
X138011907Y-89533172D01*
X138425242Y-89704804D01*
X138872795Y-89705195D01*
X139286429Y-89534285D01*
X139603172Y-89218093D01*
X139774804Y-88804758D01*
X139774805Y-88802795D01*
X140064805Y-88802795D01*
X140235715Y-89216429D01*
X140551907Y-89533172D01*
X140965242Y-89704804D01*
X141412795Y-89705195D01*
X141826429Y-89534285D01*
X142143172Y-89218093D01*
X142314804Y-88804758D01*
X142314805Y-88802795D01*
X142604805Y-88802795D01*
X142775715Y-89216429D01*
X143091907Y-89533172D01*
X143505242Y-89704804D01*
X143952795Y-89705195D01*
X144366429Y-89534285D01*
X144683172Y-89218093D01*
X144854804Y-88804758D01*
X144854805Y-88802795D01*
X145144805Y-88802795D01*
X145315715Y-89216429D01*
X145631907Y-89533172D01*
X146045242Y-89704804D01*
X146492795Y-89705195D01*
X146906429Y-89534285D01*
X147223172Y-89218093D01*
X147394804Y-88804758D01*
X147394805Y-88802795D01*
X147684805Y-88802795D01*
X147855715Y-89216429D01*
X148171907Y-89533172D01*
X148585242Y-89704804D01*
X149032795Y-89705195D01*
X149446429Y-89534285D01*
X149763172Y-89218093D01*
X149934804Y-88804758D01*
X149934805Y-88802795D01*
X150224805Y-88802795D01*
X150395715Y-89216429D01*
X150711907Y-89533172D01*
X151125242Y-89704804D01*
X151572795Y-89705195D01*
X151986429Y-89534285D01*
X152303172Y-89218093D01*
X152474804Y-88804758D01*
X152474805Y-88802795D01*
X152764805Y-88802795D01*
X152935715Y-89216429D01*
X153251907Y-89533172D01*
X153665242Y-89704804D01*
X154112795Y-89705195D01*
X154526429Y-89534285D01*
X154843172Y-89218093D01*
X155014804Y-88804758D01*
X155015195Y-88357205D01*
X154844285Y-87943571D01*
X154528093Y-87626828D01*
X154114758Y-87455196D01*
X153667205Y-87454805D01*
X153253571Y-87625715D01*
X152936828Y-87941907D01*
X152765196Y-88355242D01*
X152764805Y-88802795D01*
X152474805Y-88802795D01*
X152475195Y-88357205D01*
X152304285Y-87943571D01*
X151988093Y-87626828D01*
X151574758Y-87455196D01*
X151127205Y-87454805D01*
X150713571Y-87625715D01*
X150396828Y-87941907D01*
X150225196Y-88355242D01*
X150224805Y-88802795D01*
X149934805Y-88802795D01*
X149935195Y-88357205D01*
X149764285Y-87943571D01*
X149448093Y-87626828D01*
X149034758Y-87455196D01*
X148587205Y-87454805D01*
X148173571Y-87625715D01*
X147856828Y-87941907D01*
X147685196Y-88355242D01*
X147684805Y-88802795D01*
X147394805Y-88802795D01*
X147395195Y-88357205D01*
X147224285Y-87943571D01*
X146908093Y-87626828D01*
X146494758Y-87455196D01*
X146047205Y-87454805D01*
X145633571Y-87625715D01*
X145316828Y-87941907D01*
X145145196Y-88355242D01*
X145144805Y-88802795D01*
X144854805Y-88802795D01*
X144855195Y-88357205D01*
X144684285Y-87943571D01*
X144368093Y-87626828D01*
X143954758Y-87455196D01*
X143507205Y-87454805D01*
X143093571Y-87625715D01*
X142776828Y-87941907D01*
X142605196Y-88355242D01*
X142604805Y-88802795D01*
X142314805Y-88802795D01*
X142315195Y-88357205D01*
X142144285Y-87943571D01*
X141828093Y-87626828D01*
X141414758Y-87455196D01*
X140967205Y-87454805D01*
X140553571Y-87625715D01*
X140236828Y-87941907D01*
X140065196Y-88355242D01*
X140064805Y-88802795D01*
X139774805Y-88802795D01*
X139775195Y-88357205D01*
X139604285Y-87943571D01*
X139288093Y-87626828D01*
X138874758Y-87455196D01*
X138427205Y-87454805D01*
X138013571Y-87625715D01*
X137696828Y-87941907D01*
X137525196Y-88355242D01*
X137524805Y-88802795D01*
X137234805Y-88802795D01*
X137235195Y-88357205D01*
X137064285Y-87943571D01*
X136748093Y-87626828D01*
X136334758Y-87455196D01*
X135887205Y-87454805D01*
X135473571Y-87625715D01*
X135156828Y-87941907D01*
X134985196Y-88355242D01*
X134984805Y-88802795D01*
X127875000Y-88802795D01*
X127875000Y-86133677D01*
X136424877Y-86133677D01*
X136527423Y-86381857D01*
X136717138Y-86571903D01*
X136965139Y-86674883D01*
X137233671Y-86675117D01*
X137481851Y-86572571D01*
X137554549Y-86500000D01*
X139445368Y-86500000D01*
X139517144Y-86571901D01*
X139765145Y-86674881D01*
X140033677Y-86675115D01*
X140281857Y-86572569D01*
X140354553Y-86500000D01*
X144295366Y-86500000D01*
X144367144Y-86571903D01*
X144615145Y-86674883D01*
X144883677Y-86675117D01*
X145131857Y-86572571D01*
X145204555Y-86500000D01*
X148750000Y-86500000D01*
X148941342Y-86461940D01*
X149103553Y-86353553D01*
X150782078Y-84675028D01*
X150883677Y-84675117D01*
X151131857Y-84572571D01*
X151321903Y-84382856D01*
X151424883Y-84134855D01*
X151425117Y-83866323D01*
X151322571Y-83618143D01*
X151132856Y-83428097D01*
X150884855Y-83325117D01*
X150616323Y-83324883D01*
X150368143Y-83427429D01*
X150178097Y-83617144D01*
X150075117Y-83865145D01*
X150075027Y-83967867D01*
X148542894Y-85500000D01*
X145204634Y-85500000D01*
X145132856Y-85428097D01*
X144884855Y-85325117D01*
X144616323Y-85324883D01*
X144368143Y-85427429D01*
X144295445Y-85500000D01*
X140354636Y-85500000D01*
X140282856Y-85428095D01*
X140034855Y-85325115D01*
X139766323Y-85324881D01*
X139518143Y-85427427D01*
X139445443Y-85500000D01*
X137554628Y-85500000D01*
X137482850Y-85428097D01*
X137234849Y-85325117D01*
X136966317Y-85324883D01*
X136718137Y-85427429D01*
X136528091Y-85617144D01*
X136425111Y-85865145D01*
X136424877Y-86133677D01*
X127875000Y-86133677D01*
X127875000Y-77625000D01*
X135314008Y-77625000D01*
X135156828Y-77781907D01*
G36*
X146717000Y-65574088D02*
X146717000Y-65712750D01*
X146875250Y-65871000D01*
X147450000Y-65871000D01*
X147450000Y-65851000D01*
X147650000Y-65851000D01*
X147650000Y-65871000D01*
X147699000Y-65871000D01*
X147699000Y-66129000D01*
X147650000Y-66129000D01*
X147650000Y-66774750D01*
X147808250Y-66933000D01*
X147875911Y-66933000D01*
X148108565Y-66836632D01*
X148262851Y-66682346D01*
X148550000Y-66682346D01*
X148550000Y-66782628D01*
X148479641Y-66829641D01*
X148398255Y-66951443D01*
X148334855Y-66925117D01*
X148066323Y-66924883D01*
X147818143Y-67027429D01*
X147628097Y-67217144D01*
X147525117Y-67465145D01*
X147524883Y-67733677D01*
X147627429Y-67981857D01*
X147817144Y-68171903D01*
X148065145Y-68274883D01*
X148333677Y-68275117D01*
X148378880Y-68256439D01*
X148396758Y-68346317D01*
X148479641Y-68470359D01*
X148603683Y-68553242D01*
X148750000Y-68582346D01*
X149187149Y-68582346D01*
X149341435Y-68736632D01*
X149574089Y-68833000D01*
X149712750Y-68833000D01*
X149871000Y-68674750D01*
X149871000Y-67779000D01*
X149851000Y-67779000D01*
X149851000Y-67521000D01*
X149871000Y-67521000D01*
X149871000Y-67501000D01*
X150129000Y-67501000D01*
X150129000Y-67521000D01*
X150149000Y-67521000D01*
X150149000Y-67779000D01*
X150129000Y-67779000D01*
X150129000Y-68674750D01*
X150287250Y-68833000D01*
X150425911Y-68833000D01*
X150658565Y-68736632D01*
X150812851Y-68582346D01*
X151250000Y-68582346D01*
X151367000Y-68559073D01*
X151367000Y-68867000D01*
X150500000Y-68867000D01*
X150257761Y-68915184D01*
X150052401Y-69052401D01*
X149915184Y-69257761D01*
X149883380Y-69417654D01*
X149700000Y-69417654D01*
X149553683Y-69446758D01*
X149525000Y-69465924D01*
X149496317Y-69446758D01*
X149350000Y-69417654D01*
X148750000Y-69417654D01*
X148603683Y-69446758D01*
X148479641Y-69529641D01*
X148396758Y-69653683D01*
X148367654Y-69800000D01*
X148367654Y-70000000D01*
X147967372Y-70000000D01*
X147920359Y-69929641D01*
X147796317Y-69846758D01*
X147650000Y-69817654D01*
X147250000Y-69817654D01*
X147103683Y-69846758D01*
X147000000Y-69916037D01*
X146896317Y-69846758D01*
X146750000Y-69817654D01*
X146350000Y-69817654D01*
X146203683Y-69846758D01*
X146079641Y-69929641D01*
X146041452Y-69986795D01*
X145982856Y-69928097D01*
X145734855Y-69825117D01*
X145466323Y-69824883D01*
X145218143Y-69927429D01*
X145028097Y-70117144D01*
X144925117Y-70365145D01*
X144924883Y-70633677D01*
X145027429Y-70881857D01*
X145217144Y-71071903D01*
X145465145Y-71174883D01*
X145733677Y-71175117D01*
X145933467Y-71092565D01*
X145972575Y-71289177D01*
X146108058Y-71491942D01*
X146426014Y-71809898D01*
X146396758Y-71853683D01*
X146367654Y-72000000D01*
X146367654Y-73000000D01*
X146396758Y-73146317D01*
X146479641Y-73270359D01*
X146603683Y-73353242D01*
X146709851Y-73374360D01*
X144282776Y-73374360D01*
X144282776Y-72249300D01*
X144253672Y-72102983D01*
X144170789Y-71978941D01*
X144046747Y-71896058D01*
X143900430Y-71866954D01*
X142099570Y-71866954D01*
X141953253Y-71896058D01*
X141849745Y-71965221D01*
X141807582Y-71923058D01*
X141604817Y-71787575D01*
X141365640Y-71740000D01*
X139988584Y-71740000D01*
X139973618Y-71730000D01*
X140070359Y-71665359D01*
X140153242Y-71541317D01*
X140182346Y-71395000D01*
X140182346Y-70795000D01*
X140153242Y-70648683D01*
X140070359Y-70524641D01*
X139946317Y-70441758D01*
X139800000Y-70412654D01*
X139466230Y-70412654D01*
X140253243Y-69625640D01*
X141717224Y-69625640D01*
X141717224Y-70750700D01*
X141746328Y-70897017D01*
X141829211Y-71021059D01*
X141953253Y-71103942D01*
X142099570Y-71133046D01*
X143900430Y-71133046D01*
X144046747Y-71103942D01*
X144170789Y-71021059D01*
X144253672Y-70897017D01*
X144282776Y-70750700D01*
X144282776Y-67250580D01*
X144253672Y-67104263D01*
X144170789Y-66980221D01*
X144046747Y-66897338D01*
X143900430Y-66868234D01*
X142099570Y-66868234D01*
X141953253Y-66897338D01*
X141829211Y-66980221D01*
X141746328Y-67104263D01*
X141717224Y-67250580D01*
X141717224Y-68375640D01*
X139994360Y-68375640D01*
X139755183Y-68423215D01*
X139552418Y-68558698D01*
X139552416Y-68558701D01*
X138772500Y-69338616D01*
X138282346Y-68848462D01*
X138282346Y-67650000D01*
X138253242Y-67503683D01*
X138170359Y-67379641D01*
X138046317Y-67296758D01*
X137900000Y-67267654D01*
X137000000Y-67267654D01*
X136853683Y-67296758D01*
X136729641Y-67379641D01*
X136646758Y-67503683D01*
X136617654Y-67650000D01*
X136617654Y-69350000D01*
X136646758Y-69496317D01*
X136729641Y-69620359D01*
X136853683Y-69703242D01*
X137000000Y-69732346D01*
X137398462Y-69732346D01*
X138075000Y-70408884D01*
X138075000Y-70412654D01*
X137600000Y-70412654D01*
X137453683Y-70441758D01*
X137329641Y-70524641D01*
X137246758Y-70648683D01*
X137217654Y-70795000D01*
X137217654Y-71395000D01*
X137246758Y-71541317D01*
X137329641Y-71665359D01*
X137426382Y-71730000D01*
X137329641Y-71794641D01*
X137246758Y-71918683D01*
X137217654Y-72065000D01*
X137217654Y-72665000D01*
X137246758Y-72811317D01*
X137329641Y-72935359D01*
X137426382Y-73000000D01*
X137329641Y-73064641D01*
X137306015Y-73100000D01*
X137054634Y-73100000D01*
X136982856Y-73028097D01*
X136734855Y-72925117D01*
X136466323Y-72924883D01*
X136218143Y-73027429D01*
X136028097Y-73217144D01*
X135925117Y-73465145D01*
X135924883Y-73733677D01*
X136027429Y-73981857D01*
X136217144Y-74171903D01*
X136465145Y-74274883D01*
X136733677Y-74275117D01*
X136981857Y-74172571D01*
X137054555Y-74100000D01*
X137259242Y-74100000D01*
X137329641Y-74205359D01*
X137426382Y-74270000D01*
X137329641Y-74334641D01*
X137246758Y-74458683D01*
X137217654Y-74605000D01*
X137217654Y-75205000D01*
X137246758Y-75351317D01*
X137329641Y-75475359D01*
X137453683Y-75558242D01*
X137600000Y-75587346D01*
X139800000Y-75587346D01*
X139946317Y-75558242D01*
X139988584Y-75530000D01*
X141717224Y-75530000D01*
X141717224Y-75749420D01*
X141742203Y-75875000D01*
X127935660Y-75875000D01*
X128027884Y-75782776D01*
X130749420Y-75782776D01*
X130895737Y-75753672D01*
X131019779Y-75670789D01*
X131102662Y-75546747D01*
X131105993Y-75530000D01*
X132011416Y-75530000D01*
X132053683Y-75558242D01*
X132200000Y-75587346D01*
X134400000Y-75587346D01*
X134546317Y-75558242D01*
X134670359Y-75475359D01*
X134753242Y-75351317D01*
X134782346Y-75205000D01*
X134782346Y-74605000D01*
X134753242Y-74458683D01*
X134670359Y-74334641D01*
X134573618Y-74270000D01*
X134670359Y-74205359D01*
X134753242Y-74081317D01*
X134782346Y-73935000D01*
X134782346Y-73335000D01*
X134753242Y-73188683D01*
X134670359Y-73064641D01*
X134573618Y-73000000D01*
X134670359Y-72935359D01*
X134753242Y-72811317D01*
X134782346Y-72665000D01*
X134782346Y-72065000D01*
X134753242Y-71918683D01*
X134670359Y-71794641D01*
X134573618Y-71730000D01*
X134670359Y-71665359D01*
X134753242Y-71541317D01*
X134782346Y-71395000D01*
X134782346Y-70795000D01*
X134753242Y-70648683D01*
X134670359Y-70524641D01*
X134546317Y-70441758D01*
X134400000Y-70412654D01*
X132200000Y-70412654D01*
X132053683Y-70441758D01*
X131929641Y-70524641D01*
X131846758Y-70648683D01*
X131817654Y-70795000D01*
X131817654Y-71395000D01*
X131846758Y-71541317D01*
X131929641Y-71665359D01*
X132026382Y-71730000D01*
X132011416Y-71740000D01*
X130314659Y-71740000D01*
X130371903Y-71682856D01*
X130474883Y-71434855D01*
X130475117Y-71166323D01*
X130372571Y-70918143D01*
X130182856Y-70728097D01*
X129934855Y-70625117D01*
X129666323Y-70624883D01*
X129418143Y-70727429D01*
X129228097Y-70917144D01*
X129125117Y-71165145D01*
X129124883Y-71433677D01*
X129227429Y-71681857D01*
X129233930Y-71688369D01*
X129233930Y-71981116D01*
X128557418Y-72657628D01*
X128421935Y-72860393D01*
X128374360Y-73099570D01*
X128374360Y-73217224D01*
X127249300Y-73217224D01*
X127102983Y-73246328D01*
X126978941Y-73329211D01*
X126896058Y-73453253D01*
X126866954Y-73599570D01*
X126866954Y-74822386D01*
X126383700Y-75305640D01*
X126383700Y-74787250D01*
X126225450Y-74629000D01*
X124129640Y-74629000D01*
X124129640Y-75875180D01*
X124287890Y-76033430D01*
X125655910Y-76033430D01*
X123469670Y-78219670D01*
X123307090Y-78462987D01*
X123250000Y-78750000D01*
X123250000Y-88750000D01*
X123307090Y-89037013D01*
X123469670Y-89280330D01*
X125425012Y-91235672D01*
X125424814Y-91462893D01*
X125588128Y-91858143D01*
X125890267Y-92160809D01*
X126285231Y-92324813D01*
X126375000Y-92324891D01*
X126375000Y-92421904D01*
X126160936Y-92433859D01*
X125809102Y-92579593D01*
X125746991Y-92814557D01*
X126375000Y-93442566D01*
X126375000Y-93835718D01*
X126303424Y-93764142D01*
X126317566Y-93750000D01*
X125564557Y-92996991D01*
X125329593Y-93059102D01*
X125154290Y-93559589D01*
X125183859Y-94089064D01*
X125302297Y-94375000D01*
X120425000Y-94375000D01*
X120425000Y-74787250D01*
X121617580Y-74787250D01*
X121617580Y-75526342D01*
X121713949Y-75758996D01*
X121892015Y-75937062D01*
X122124669Y-76033430D01*
X123713390Y-76033430D01*
X123871640Y-75875180D01*
X123871640Y-74629000D01*
X121775830Y-74629000D01*
X121617580Y-74787250D01*
X120425000Y-74787250D01*
X120425000Y-73473658D01*
X121617580Y-73473658D01*
X121617580Y-74212750D01*
X121775830Y-74371000D01*
X123871640Y-74371000D01*
X123871640Y-73124820D01*
X124129640Y-73124820D01*
X124129640Y-74371000D01*
X126225450Y-74371000D01*
X126383700Y-74212750D01*
X126383700Y-73473658D01*
X126287331Y-73241004D01*
X126109265Y-73062938D01*
X125876611Y-72966570D01*
X124287890Y-72966570D01*
X124129640Y-73124820D01*
X123871640Y-73124820D01*
X123713390Y-72966570D01*
X122124669Y-72966570D01*
X121892015Y-73062938D01*
X121713949Y-73241004D01*
X121617580Y-73473658D01*
X120425000Y-73473658D01*
X120425000Y-68891128D01*
X121524657Y-68891128D01*
X121824700Y-69617286D01*
X122379791Y-70173348D01*
X123105425Y-70474657D01*
X123891128Y-70475343D01*
X124617286Y-70175300D01*
X125173348Y-69620209D01*
X125474657Y-68894575D01*
X125474750Y-68787250D01*
X133467000Y-68787250D01*
X133467000Y-69475912D01*
X133563369Y-69708566D01*
X133741435Y-69886632D01*
X133974089Y-69983000D01*
X134262750Y-69983000D01*
X134421000Y-69824750D01*
X134421000Y-68629000D01*
X134679000Y-68629000D01*
X134679000Y-69824750D01*
X134837250Y-69983000D01*
X135125911Y-69983000D01*
X135358565Y-69886632D01*
X135536631Y-69708566D01*
X135633000Y-69475912D01*
X135633000Y-68787250D01*
X135474750Y-68629000D01*
X134679000Y-68629000D01*
X134421000Y-68629000D01*
X133625250Y-68629000D01*
X133467000Y-68787250D01*
X125474750Y-68787250D01*
X125475343Y-68108872D01*
X125233715Y-67524088D01*
X133467000Y-67524088D01*
X133467000Y-68212750D01*
X133625250Y-68371000D01*
X134421000Y-68371000D01*
X134421000Y-67175250D01*
X134679000Y-67175250D01*
X134679000Y-68371000D01*
X135474750Y-68371000D01*
X135633000Y-68212750D01*
X135633000Y-67524088D01*
X135536631Y-67291434D01*
X135358565Y-67113368D01*
X135125911Y-67017000D01*
X134837250Y-67017000D01*
X134679000Y-67175250D01*
X134421000Y-67175250D01*
X134262750Y-67017000D01*
X133974089Y-67017000D01*
X133741435Y-67113368D01*
X133563369Y-67291434D01*
X133467000Y-67524088D01*
X125233715Y-67524088D01*
X125175300Y-67382714D01*
X124620209Y-66826652D01*
X123894575Y-66525343D01*
X123108872Y-66524657D01*
X122382714Y-66824700D01*
X121826652Y-67379791D01*
X121525343Y-68105425D01*
X121524657Y-68891128D01*
X120425000Y-68891128D01*
X120425000Y-68541860D01*
X120666764Y-67326434D01*
X121331534Y-66331534D01*
X121397809Y-66287250D01*
X146717000Y-66287250D01*
X146717000Y-66425912D01*
X146813369Y-66658566D01*
X146991435Y-66836632D01*
X147224089Y-66933000D01*
X147291750Y-66933000D01*
X147450000Y-66774750D01*
X147450000Y-66129000D01*
X146875250Y-66129000D01*
X146717000Y-66287250D01*
X121397809Y-66287250D01*
X122326435Y-65666763D01*
X123541860Y-65425000D01*
X146778755Y-65425000D01*
X146717000Y-65574088D01*
X146717000Y-65574088D01*
G37*
X146717000Y-65574088D02*
X146717000Y-65712750D01*
X146875250Y-65871000D01*
X147450000Y-65871000D01*
X147450000Y-65851000D01*
X147650000Y-65851000D01*
X147650000Y-65871000D01*
X147699000Y-65871000D01*
X147699000Y-66129000D01*
X147650000Y-66129000D01*
X147650000Y-66774750D01*
X147808250Y-66933000D01*
X147875911Y-66933000D01*
X148108565Y-66836632D01*
X148262851Y-66682346D01*
X148550000Y-66682346D01*
X148550000Y-66782628D01*
X148479641Y-66829641D01*
X148398255Y-66951443D01*
X148334855Y-66925117D01*
X148066323Y-66924883D01*
X147818143Y-67027429D01*
X147628097Y-67217144D01*
X147525117Y-67465145D01*
X147524883Y-67733677D01*
X147627429Y-67981857D01*
X147817144Y-68171903D01*
X148065145Y-68274883D01*
X148333677Y-68275117D01*
X148378880Y-68256439D01*
X148396758Y-68346317D01*
X148479641Y-68470359D01*
X148603683Y-68553242D01*
X148750000Y-68582346D01*
X149187149Y-68582346D01*
X149341435Y-68736632D01*
X149574089Y-68833000D01*
X149712750Y-68833000D01*
X149871000Y-68674750D01*
X149871000Y-67779000D01*
X149851000Y-67779000D01*
X149851000Y-67521000D01*
X149871000Y-67521000D01*
X149871000Y-67501000D01*
X150129000Y-67501000D01*
X150129000Y-67521000D01*
X150149000Y-67521000D01*
X150149000Y-67779000D01*
X150129000Y-67779000D01*
X150129000Y-68674750D01*
X150287250Y-68833000D01*
X150425911Y-68833000D01*
X150658565Y-68736632D01*
X150812851Y-68582346D01*
X151250000Y-68582346D01*
X151367000Y-68559073D01*
X151367000Y-68867000D01*
X150500000Y-68867000D01*
X150257761Y-68915184D01*
X150052401Y-69052401D01*
X149915184Y-69257761D01*
X149883380Y-69417654D01*
X149700000Y-69417654D01*
X149553683Y-69446758D01*
X149525000Y-69465924D01*
X149496317Y-69446758D01*
X149350000Y-69417654D01*
X148750000Y-69417654D01*
X148603683Y-69446758D01*
X148479641Y-69529641D01*
X148396758Y-69653683D01*
X148367654Y-69800000D01*
X148367654Y-70000000D01*
X147967372Y-70000000D01*
X147920359Y-69929641D01*
X147796317Y-69846758D01*
X147650000Y-69817654D01*
X147250000Y-69817654D01*
X147103683Y-69846758D01*
X147000000Y-69916037D01*
X146896317Y-69846758D01*
X146750000Y-69817654D01*
X146350000Y-69817654D01*
X146203683Y-69846758D01*
X146079641Y-69929641D01*
X146041452Y-69986795D01*
X145982856Y-69928097D01*
X145734855Y-69825117D01*
X145466323Y-69824883D01*
X145218143Y-69927429D01*
X145028097Y-70117144D01*
X144925117Y-70365145D01*
X144924883Y-70633677D01*
X145027429Y-70881857D01*
X145217144Y-71071903D01*
X145465145Y-71174883D01*
X145733677Y-71175117D01*
X145933467Y-71092565D01*
X145972575Y-71289177D01*
X146108058Y-71491942D01*
X146426014Y-71809898D01*
X146396758Y-71853683D01*
X146367654Y-72000000D01*
X146367654Y-73000000D01*
X146396758Y-73146317D01*
X146479641Y-73270359D01*
X146603683Y-73353242D01*
X146709851Y-73374360D01*
X144282776Y-73374360D01*
X144282776Y-72249300D01*
X144253672Y-72102983D01*
X144170789Y-71978941D01*
X144046747Y-71896058D01*
X143900430Y-71866954D01*
X142099570Y-71866954D01*
X141953253Y-71896058D01*
X141849745Y-71965221D01*
X141807582Y-71923058D01*
X141604817Y-71787575D01*
X141365640Y-71740000D01*
X139988584Y-71740000D01*
X139973618Y-71730000D01*
X140070359Y-71665359D01*
X140153242Y-71541317D01*
X140182346Y-71395000D01*
X140182346Y-70795000D01*
X140153242Y-70648683D01*
X140070359Y-70524641D01*
X139946317Y-70441758D01*
X139800000Y-70412654D01*
X139466230Y-70412654D01*
X140253243Y-69625640D01*
X141717224Y-69625640D01*
X141717224Y-70750700D01*
X141746328Y-70897017D01*
X141829211Y-71021059D01*
X141953253Y-71103942D01*
X142099570Y-71133046D01*
X143900430Y-71133046D01*
X144046747Y-71103942D01*
X144170789Y-71021059D01*
X144253672Y-70897017D01*
X144282776Y-70750700D01*
X144282776Y-67250580D01*
X144253672Y-67104263D01*
X144170789Y-66980221D01*
X144046747Y-66897338D01*
X143900430Y-66868234D01*
X142099570Y-66868234D01*
X141953253Y-66897338D01*
X141829211Y-66980221D01*
X141746328Y-67104263D01*
X141717224Y-67250580D01*
X141717224Y-68375640D01*
X139994360Y-68375640D01*
X139755183Y-68423215D01*
X139552418Y-68558698D01*
X139552416Y-68558701D01*
X138772500Y-69338616D01*
X138282346Y-68848462D01*
X138282346Y-67650000D01*
X138253242Y-67503683D01*
X138170359Y-67379641D01*
X138046317Y-67296758D01*
X137900000Y-67267654D01*
X137000000Y-67267654D01*
X136853683Y-67296758D01*
X136729641Y-67379641D01*
X136646758Y-67503683D01*
X136617654Y-67650000D01*
X136617654Y-69350000D01*
X136646758Y-69496317D01*
X136729641Y-69620359D01*
X136853683Y-69703242D01*
X137000000Y-69732346D01*
X137398462Y-69732346D01*
X138075000Y-70408884D01*
X138075000Y-70412654D01*
X137600000Y-70412654D01*
X137453683Y-70441758D01*
X137329641Y-70524641D01*
X137246758Y-70648683D01*
X137217654Y-70795000D01*
X137217654Y-71395000D01*
X137246758Y-71541317D01*
X137329641Y-71665359D01*
X137426382Y-71730000D01*
X137329641Y-71794641D01*
X137246758Y-71918683D01*
X137217654Y-72065000D01*
X137217654Y-72665000D01*
X137246758Y-72811317D01*
X137329641Y-72935359D01*
X137426382Y-73000000D01*
X137329641Y-73064641D01*
X137306015Y-73100000D01*
X137054634Y-73100000D01*
X136982856Y-73028097D01*
X136734855Y-72925117D01*
X136466323Y-72924883D01*
X136218143Y-73027429D01*
X136028097Y-73217144D01*
X135925117Y-73465145D01*
X135924883Y-73733677D01*
X136027429Y-73981857D01*
X136217144Y-74171903D01*
X136465145Y-74274883D01*
X136733677Y-74275117D01*
X136981857Y-74172571D01*
X137054555Y-74100000D01*
X137259242Y-74100000D01*
X137329641Y-74205359D01*
X137426382Y-74270000D01*
X137329641Y-74334641D01*
X137246758Y-74458683D01*
X137217654Y-74605000D01*
X137217654Y-75205000D01*
X137246758Y-75351317D01*
X137329641Y-75475359D01*
X137453683Y-75558242D01*
X137600000Y-75587346D01*
X139800000Y-75587346D01*
X139946317Y-75558242D01*
X139988584Y-75530000D01*
X141717224Y-75530000D01*
X141717224Y-75749420D01*
X141742203Y-75875000D01*
X127935660Y-75875000D01*
X128027884Y-75782776D01*
X130749420Y-75782776D01*
X130895737Y-75753672D01*
X131019779Y-75670789D01*
X131102662Y-75546747D01*
X131105993Y-75530000D01*
X132011416Y-75530000D01*
X132053683Y-75558242D01*
X132200000Y-75587346D01*
X134400000Y-75587346D01*
X134546317Y-75558242D01*
X134670359Y-75475359D01*
X134753242Y-75351317D01*
X134782346Y-75205000D01*
X134782346Y-74605000D01*
X134753242Y-74458683D01*
X134670359Y-74334641D01*
X134573618Y-74270000D01*
X134670359Y-74205359D01*
X134753242Y-74081317D01*
X134782346Y-73935000D01*
X134782346Y-73335000D01*
X134753242Y-73188683D01*
X134670359Y-73064641D01*
X134573618Y-73000000D01*
X134670359Y-72935359D01*
X134753242Y-72811317D01*
X134782346Y-72665000D01*
X134782346Y-72065000D01*
X134753242Y-71918683D01*
X134670359Y-71794641D01*
X134573618Y-71730000D01*
X134670359Y-71665359D01*
X134753242Y-71541317D01*
X134782346Y-71395000D01*
X134782346Y-70795000D01*
X134753242Y-70648683D01*
X134670359Y-70524641D01*
X134546317Y-70441758D01*
X134400000Y-70412654D01*
X132200000Y-70412654D01*
X132053683Y-70441758D01*
X131929641Y-70524641D01*
X131846758Y-70648683D01*
X131817654Y-70795000D01*
X131817654Y-71395000D01*
X131846758Y-71541317D01*
X131929641Y-71665359D01*
X132026382Y-71730000D01*
X132011416Y-71740000D01*
X130314659Y-71740000D01*
X130371903Y-71682856D01*
X130474883Y-71434855D01*
X130475117Y-71166323D01*
X130372571Y-70918143D01*
X130182856Y-70728097D01*
X129934855Y-70625117D01*
X129666323Y-70624883D01*
X129418143Y-70727429D01*
X129228097Y-70917144D01*
X129125117Y-71165145D01*
X129124883Y-71433677D01*
X129227429Y-71681857D01*
X129233930Y-71688369D01*
X129233930Y-71981116D01*
X128557418Y-72657628D01*
X128421935Y-72860393D01*
X128374360Y-73099570D01*
X128374360Y-73217224D01*
X127249300Y-73217224D01*
X127102983Y-73246328D01*
X126978941Y-73329211D01*
X126896058Y-73453253D01*
X126866954Y-73599570D01*
X126866954Y-74822386D01*
X126383700Y-75305640D01*
X126383700Y-74787250D01*
X126225450Y-74629000D01*
X124129640Y-74629000D01*
X124129640Y-75875180D01*
X124287890Y-76033430D01*
X125655910Y-76033430D01*
X123469670Y-78219670D01*
X123307090Y-78462987D01*
X123250000Y-78750000D01*
X123250000Y-88750000D01*
X123307090Y-89037013D01*
X123469670Y-89280330D01*
X125425012Y-91235672D01*
X125424814Y-91462893D01*
X125588128Y-91858143D01*
X125890267Y-92160809D01*
X126285231Y-92324813D01*
X126375000Y-92324891D01*
X126375000Y-92421904D01*
X126160936Y-92433859D01*
X125809102Y-92579593D01*
X125746991Y-92814557D01*
X126375000Y-93442566D01*
X126375000Y-93835718D01*
X126303424Y-93764142D01*
X126317566Y-93750000D01*
X125564557Y-92996991D01*
X125329593Y-93059102D01*
X125154290Y-93559589D01*
X125183859Y-94089064D01*
X125302297Y-94375000D01*
X120425000Y-94375000D01*
X120425000Y-74787250D01*
X121617580Y-74787250D01*
X121617580Y-75526342D01*
X121713949Y-75758996D01*
X121892015Y-75937062D01*
X122124669Y-76033430D01*
X123713390Y-76033430D01*
X123871640Y-75875180D01*
X123871640Y-74629000D01*
X121775830Y-74629000D01*
X121617580Y-74787250D01*
X120425000Y-74787250D01*
X120425000Y-73473658D01*
X121617580Y-73473658D01*
X121617580Y-74212750D01*
X121775830Y-74371000D01*
X123871640Y-74371000D01*
X123871640Y-73124820D01*
X124129640Y-73124820D01*
X124129640Y-74371000D01*
X126225450Y-74371000D01*
X126383700Y-74212750D01*
X126383700Y-73473658D01*
X126287331Y-73241004D01*
X126109265Y-73062938D01*
X125876611Y-72966570D01*
X124287890Y-72966570D01*
X124129640Y-73124820D01*
X123871640Y-73124820D01*
X123713390Y-72966570D01*
X122124669Y-72966570D01*
X121892015Y-73062938D01*
X121713949Y-73241004D01*
X121617580Y-73473658D01*
X120425000Y-73473658D01*
X120425000Y-68891128D01*
X121524657Y-68891128D01*
X121824700Y-69617286D01*
X122379791Y-70173348D01*
X123105425Y-70474657D01*
X123891128Y-70475343D01*
X124617286Y-70175300D01*
X125173348Y-69620209D01*
X125474657Y-68894575D01*
X125474750Y-68787250D01*
X133467000Y-68787250D01*
X133467000Y-69475912D01*
X133563369Y-69708566D01*
X133741435Y-69886632D01*
X133974089Y-69983000D01*
X134262750Y-69983000D01*
X134421000Y-69824750D01*
X134421000Y-68629000D01*
X134679000Y-68629000D01*
X134679000Y-69824750D01*
X134837250Y-69983000D01*
X135125911Y-69983000D01*
X135358565Y-69886632D01*
X135536631Y-69708566D01*
X135633000Y-69475912D01*
X135633000Y-68787250D01*
X135474750Y-68629000D01*
X134679000Y-68629000D01*
X134421000Y-68629000D01*
X133625250Y-68629000D01*
X133467000Y-68787250D01*
X125474750Y-68787250D01*
X125475343Y-68108872D01*
X125233715Y-67524088D01*
X133467000Y-67524088D01*
X133467000Y-68212750D01*
X133625250Y-68371000D01*
X134421000Y-68371000D01*
X134421000Y-67175250D01*
X134679000Y-67175250D01*
X134679000Y-68371000D01*
X135474750Y-68371000D01*
X135633000Y-68212750D01*
X135633000Y-67524088D01*
X135536631Y-67291434D01*
X135358565Y-67113368D01*
X135125911Y-67017000D01*
X134837250Y-67017000D01*
X134679000Y-67175250D01*
X134421000Y-67175250D01*
X134262750Y-67017000D01*
X133974089Y-67017000D01*
X133741435Y-67113368D01*
X133563369Y-67291434D01*
X133467000Y-67524088D01*
X125233715Y-67524088D01*
X125175300Y-67382714D01*
X124620209Y-66826652D01*
X123894575Y-66525343D01*
X123108872Y-66524657D01*
X122382714Y-66824700D01*
X121826652Y-67379791D01*
X121525343Y-68105425D01*
X121524657Y-68891128D01*
X120425000Y-68891128D01*
X120425000Y-68541860D01*
X120666764Y-67326434D01*
X121331534Y-66331534D01*
X121397809Y-66287250D01*
X146717000Y-66287250D01*
X146717000Y-66425912D01*
X146813369Y-66658566D01*
X146991435Y-66836632D01*
X147224089Y-66933000D01*
X147291750Y-66933000D01*
X147450000Y-66774750D01*
X147450000Y-66129000D01*
X146875250Y-66129000D01*
X146717000Y-66287250D01*
X121397809Y-66287250D01*
X122326435Y-65666763D01*
X123541860Y-65425000D01*
X146778755Y-65425000D01*
X146717000Y-65574088D01*
G36*
X126375000Y-90064340D02*
X124750000Y-88439340D01*
X124750000Y-79060660D01*
X126375000Y-77435660D01*
X126375000Y-90064340D01*
X126375000Y-90064340D01*
G37*
X126375000Y-90064340D02*
X124750000Y-88439340D01*
X124750000Y-79060660D01*
X126375000Y-77435660D01*
X126375000Y-90064340D01*
G36*
X157367000Y-75875000D02*
X157133000Y-75875000D01*
X157133000Y-75787250D01*
X156974750Y-75629000D01*
X156129000Y-75629000D01*
X156129000Y-75649000D01*
X155871000Y-75649000D01*
X155871000Y-75629000D01*
X155025250Y-75629000D01*
X154867000Y-75787250D01*
X154867000Y-75875000D01*
X152195750Y-75875000D01*
X152084750Y-75764000D01*
X151129000Y-75764000D01*
X151129000Y-75784000D01*
X150871000Y-75784000D01*
X150871000Y-75764000D01*
X149915250Y-75764000D01*
X149883000Y-75796250D01*
X149883000Y-75787250D01*
X149724750Y-75629000D01*
X148129000Y-75629000D01*
X148129000Y-75649000D01*
X147871000Y-75649000D01*
X147871000Y-75629000D01*
X146275250Y-75629000D01*
X146117000Y-75787250D01*
X146117000Y-75875000D01*
X144257797Y-75875000D01*
X144282776Y-75749420D01*
X144282776Y-74624360D01*
X146230443Y-74624360D01*
X146213368Y-74641435D01*
X146117000Y-74874089D01*
X146117000Y-75212750D01*
X146275250Y-75371000D01*
X147871000Y-75371000D01*
X147871000Y-75351000D01*
X148129000Y-75351000D01*
X148129000Y-75371000D01*
X149724750Y-75371000D01*
X149757000Y-75338750D01*
X149757000Y-75347750D01*
X149915250Y-75506000D01*
X150871000Y-75506000D01*
X150871000Y-75486000D01*
X151129000Y-75486000D01*
X151129000Y-75506000D01*
X152084750Y-75506000D01*
X152243000Y-75347750D01*
X152243000Y-75054089D01*
X152146632Y-74821435D01*
X151968566Y-74643369D01*
X151943533Y-74633000D01*
X154867000Y-74633000D01*
X154867000Y-75212750D01*
X155025250Y-75371000D01*
X155871000Y-75371000D01*
X155871000Y-75351000D01*
X156129000Y-75351000D01*
X156129000Y-75371000D01*
X156974750Y-75371000D01*
X157133000Y-75212750D01*
X157133000Y-74606545D01*
X157242239Y-74584816D01*
X157367000Y-74501453D01*
X157367000Y-75875000D01*
X157367000Y-75875000D01*
G37*
X157367000Y-75875000D02*
X157133000Y-75875000D01*
X157133000Y-75787250D01*
X156974750Y-75629000D01*
X156129000Y-75629000D01*
X156129000Y-75649000D01*
X155871000Y-75649000D01*
X155871000Y-75629000D01*
X155025250Y-75629000D01*
X154867000Y-75787250D01*
X154867000Y-75875000D01*
X152195750Y-75875000D01*
X152084750Y-75764000D01*
X151129000Y-75764000D01*
X151129000Y-75784000D01*
X150871000Y-75784000D01*
X150871000Y-75764000D01*
X149915250Y-75764000D01*
X149883000Y-75796250D01*
X149883000Y-75787250D01*
X149724750Y-75629000D01*
X148129000Y-75629000D01*
X148129000Y-75649000D01*
X147871000Y-75649000D01*
X147871000Y-75629000D01*
X146275250Y-75629000D01*
X146117000Y-75787250D01*
X146117000Y-75875000D01*
X144257797Y-75875000D01*
X144282776Y-75749420D01*
X144282776Y-74624360D01*
X146230443Y-74624360D01*
X146213368Y-74641435D01*
X146117000Y-74874089D01*
X146117000Y-75212750D01*
X146275250Y-75371000D01*
X147871000Y-75371000D01*
X147871000Y-75351000D01*
X148129000Y-75351000D01*
X148129000Y-75371000D01*
X149724750Y-75371000D01*
X149757000Y-75338750D01*
X149757000Y-75347750D01*
X149915250Y-75506000D01*
X150871000Y-75506000D01*
X150871000Y-75486000D01*
X151129000Y-75486000D01*
X151129000Y-75506000D01*
X152084750Y-75506000D01*
X152243000Y-75347750D01*
X152243000Y-75054089D01*
X152146632Y-74821435D01*
X151968566Y-74643369D01*
X151943533Y-74633000D01*
X154867000Y-74633000D01*
X154867000Y-75212750D01*
X155025250Y-75371000D01*
X155871000Y-75371000D01*
X155871000Y-75351000D01*
X156129000Y-75351000D01*
X156129000Y-75371000D01*
X156974750Y-75371000D01*
X157133000Y-75212750D01*
X157133000Y-74606545D01*
X157242239Y-74584816D01*
X157367000Y-74501453D01*
X157367000Y-75875000D01*
G36*
X167673566Y-65666764D02*
X168668466Y-66331534D01*
X169333237Y-67326435D01*
X169575000Y-68541860D01*
X169575000Y-75875000D01*
X162633000Y-75875000D01*
X162633000Y-69141128D01*
X164274657Y-69141128D01*
X164574700Y-69867286D01*
X165129791Y-70423348D01*
X165855425Y-70724657D01*
X166641128Y-70725343D01*
X167367286Y-70425300D01*
X167923348Y-69870209D01*
X168224657Y-69144575D01*
X168225343Y-68358872D01*
X167925300Y-67632714D01*
X167370209Y-67076652D01*
X166644575Y-66775343D01*
X165858872Y-66774657D01*
X165132714Y-67074700D01*
X164576652Y-67629791D01*
X164275343Y-68355425D01*
X164274657Y-69141128D01*
X162633000Y-69141128D01*
X162633000Y-68000000D01*
X162584816Y-67757761D01*
X162447599Y-67552401D01*
X162242239Y-67415184D01*
X162000000Y-67367000D01*
X160534105Y-67367000D01*
X160453553Y-67246447D01*
X158632106Y-65425000D01*
X166458140Y-65425000D01*
X167673566Y-65666764D01*
X167673566Y-65666764D01*
G37*
X167673566Y-65666764D02*
X168668466Y-66331534D01*
X169333237Y-67326435D01*
X169575000Y-68541860D01*
X169575000Y-75875000D01*
X162633000Y-75875000D01*
X162633000Y-69141128D01*
X164274657Y-69141128D01*
X164574700Y-69867286D01*
X165129791Y-70423348D01*
X165855425Y-70724657D01*
X166641128Y-70725343D01*
X167367286Y-70425300D01*
X167923348Y-69870209D01*
X168224657Y-69144575D01*
X168225343Y-68358872D01*
X167925300Y-67632714D01*
X167370209Y-67076652D01*
X166644575Y-66775343D01*
X165858872Y-66774657D01*
X165132714Y-67074700D01*
X164576652Y-67629791D01*
X164275343Y-68355425D01*
X164274657Y-69141128D01*
X162633000Y-69141128D01*
X162633000Y-68000000D01*
X162584816Y-67757761D01*
X162447599Y-67552401D01*
X162242239Y-67415184D01*
X162000000Y-67367000D01*
X160534105Y-67367000D01*
X160453553Y-67246447D01*
X158632106Y-65425000D01*
X166458140Y-65425000D01*
X167673566Y-65666764D01*
D48*
G36*
X156873000Y-73873000D02*
X150127000Y-73873000D01*
X150127000Y-72524580D01*
X150625787Y-72025792D01*
X150625790Y-72025790D01*
X150817633Y-71738675D01*
X150828810Y-71682484D01*
X150885001Y-71400000D01*
X150885000Y-71399995D01*
X150885000Y-71167456D01*
X150898157Y-71147765D01*
X150947440Y-70900000D01*
X150947440Y-69800000D01*
X150913029Y-69627000D01*
X152000000Y-69627000D01*
X152048601Y-69617333D01*
X152089803Y-69589803D01*
X152117333Y-69548601D01*
X152127000Y-69500000D01*
X152127000Y-68127000D01*
X154000000Y-68127000D01*
X154048601Y-68117333D01*
X154089803Y-68089803D01*
X154117333Y-68048601D01*
X154127000Y-68000000D01*
X154127000Y-67477760D01*
X154147440Y-67375000D01*
X154147440Y-66510000D01*
X156873000Y-66510000D01*
X156873000Y-73873000D01*
X156873000Y-73873000D01*
G37*
X156873000Y-73873000D02*
X150127000Y-73873000D01*
X150127000Y-72524580D01*
X150625787Y-72025792D01*
X150625790Y-72025790D01*
X150817633Y-71738675D01*
X150828810Y-71682484D01*
X150885001Y-71400000D01*
X150885000Y-71399995D01*
X150885000Y-71167456D01*
X150898157Y-71147765D01*
X150947440Y-70900000D01*
X150947440Y-69800000D01*
X150913029Y-69627000D01*
X152000000Y-69627000D01*
X152048601Y-69617333D01*
X152089803Y-69589803D01*
X152117333Y-69548601D01*
X152127000Y-69500000D01*
X152127000Y-68127000D01*
X154000000Y-68127000D01*
X154048601Y-68117333D01*
X154089803Y-68089803D01*
X154117333Y-68048601D01*
X154127000Y-68000000D01*
X154127000Y-67477760D01*
X154147440Y-67375000D01*
X154147440Y-66510000D01*
X156873000Y-66510000D01*
X156873000Y-73873000D01*
G36*
X161615000Y-72499995D02*
X161614999Y-72500000D01*
X161671190Y-72782484D01*
X161682367Y-72838675D01*
X161873000Y-73123979D01*
X161873000Y-76373000D01*
X158127000Y-76373000D01*
X158127000Y-68127000D01*
X161615000Y-68127000D01*
X161615000Y-72499995D01*
X161615000Y-72499995D01*
G37*
X161615000Y-72499995D02*
X161614999Y-72500000D01*
X161671190Y-72782484D01*
X161682367Y-72838675D01*
X161873000Y-73123979D01*
X161873000Y-76373000D01*
X158127000Y-76373000D01*
X158127000Y-68127000D01*
X161615000Y-68127000D01*
X161615000Y-72499995D01*
M02*
