G04 #@! TF.GenerationSoftware,KiCad,Pcbnew,no-vcs-found-7433~57~ubuntu16.10.1*
G04 #@! TF.CreationDate,2017-01-11T21:14:06+01:00*
G04 #@! TF.ProjectId,can-node,63616E2D6E6F64652E6B696361645F70,rev?*
G04 #@! TF.FileFunction,Legend,Top*
G04 #@! TF.FilePolarity,Positive*
%FSLAX46Y46*%
G04 Gerber Fmt 4.6, Leading zero omitted, Abs format (unit mm)*
G04 Created by KiCad (PCBNEW no-vcs-found-7433~57~ubuntu16.10.1) date Wed Jan 11 21:14:06 2017*
%MOMM*%
%LPD*%
G01*
G04 APERTURE LIST*
%ADD10C,0.100000*%
%ADD11C,0.125000*%
%ADD12C,0.150000*%
%ADD13C,0.300000*%
%ADD14C,0.200000*%
%ADD15C,0.010000*%
G04 APERTURE END LIST*
D10*
D11*
X121138476Y-113970571D02*
X121114666Y-113994380D01*
X121043238Y-114018190D01*
X120995619Y-114018190D01*
X120924190Y-113994380D01*
X120876571Y-113946761D01*
X120852761Y-113899142D01*
X120828952Y-113803904D01*
X120828952Y-113732476D01*
X120852761Y-113637238D01*
X120876571Y-113589619D01*
X120924190Y-113542000D01*
X120995619Y-113518190D01*
X121043238Y-113518190D01*
X121114666Y-113542000D01*
X121138476Y-113565809D01*
X121328952Y-113875333D02*
X121567047Y-113875333D01*
X121281333Y-114018190D02*
X121448000Y-113518190D01*
X121614666Y-114018190D01*
X121781333Y-114018190D02*
X121781333Y-113518190D01*
X122067047Y-114018190D01*
X122067047Y-113518190D01*
X122305142Y-113827714D02*
X122686095Y-113827714D01*
X122924190Y-114018190D02*
X122924190Y-113518190D01*
X123209904Y-114018190D01*
X123209904Y-113518190D01*
X123519428Y-114018190D02*
X123471809Y-113994380D01*
X123448000Y-113970571D01*
X123424190Y-113922952D01*
X123424190Y-113780095D01*
X123448000Y-113732476D01*
X123471809Y-113708666D01*
X123519428Y-113684857D01*
X123590857Y-113684857D01*
X123638476Y-113708666D01*
X123662285Y-113732476D01*
X123686095Y-113780095D01*
X123686095Y-113922952D01*
X123662285Y-113970571D01*
X123638476Y-113994380D01*
X123590857Y-114018190D01*
X123519428Y-114018190D01*
X124114666Y-114018190D02*
X124114666Y-113518190D01*
X124114666Y-113994380D02*
X124067047Y-114018190D01*
X123971809Y-114018190D01*
X123924190Y-113994380D01*
X123900380Y-113970571D01*
X123876571Y-113922952D01*
X123876571Y-113780095D01*
X123900380Y-113732476D01*
X123924190Y-113708666D01*
X123971809Y-113684857D01*
X124067047Y-113684857D01*
X124114666Y-113708666D01*
X124543238Y-113994380D02*
X124495619Y-114018190D01*
X124400380Y-114018190D01*
X124352761Y-113994380D01*
X124328952Y-113946761D01*
X124328952Y-113756285D01*
X124352761Y-113708666D01*
X124400380Y-113684857D01*
X124495619Y-113684857D01*
X124543238Y-113708666D01*
X124567047Y-113756285D01*
X124567047Y-113803904D01*
X124328952Y-113851523D01*
X125090857Y-113518190D02*
X125257523Y-114018190D01*
X125424190Y-113518190D01*
X125852761Y-114018190D02*
X125567047Y-114018190D01*
X125709904Y-114018190D02*
X125709904Y-113518190D01*
X125662285Y-113589619D01*
X125614666Y-113637238D01*
X125567047Y-113661047D01*
X126067047Y-113970571D02*
X126090857Y-113994380D01*
X126067047Y-114018190D01*
X126043238Y-113994380D01*
X126067047Y-113970571D01*
X126067047Y-114018190D01*
X126400380Y-113518190D02*
X126448000Y-113518190D01*
X126495619Y-113542000D01*
X126519428Y-113565809D01*
X126543238Y-113613428D01*
X126567047Y-113708666D01*
X126567047Y-113827714D01*
X126543238Y-113922952D01*
X126519428Y-113970571D01*
X126495619Y-113994380D01*
X126448000Y-114018190D01*
X126400380Y-114018190D01*
X126352761Y-113994380D01*
X126328952Y-113970571D01*
X126305142Y-113922952D01*
X126281333Y-113827714D01*
X126281333Y-113708666D01*
X126305142Y-113613428D01*
X126328952Y-113565809D01*
X126352761Y-113542000D01*
X126400380Y-113518190D01*
D12*
X131596000Y-102923571D02*
X132167428Y-102923571D01*
X131881714Y-103209285D02*
X131881714Y-102637857D01*
X132453142Y-102459285D02*
X132917428Y-102459285D01*
X132667428Y-102745000D01*
X132774571Y-102745000D01*
X132846000Y-102780714D01*
X132881714Y-102816428D01*
X132917428Y-102887857D01*
X132917428Y-103066428D01*
X132881714Y-103137857D01*
X132846000Y-103173571D01*
X132774571Y-103209285D01*
X132560285Y-103209285D01*
X132488857Y-103173571D01*
X132453142Y-103137857D01*
X133238857Y-103137857D02*
X133274571Y-103173571D01*
X133238857Y-103209285D01*
X133203142Y-103173571D01*
X133238857Y-103137857D01*
X133238857Y-103209285D01*
X133524571Y-102459285D02*
X133988857Y-102459285D01*
X133738857Y-102745000D01*
X133846000Y-102745000D01*
X133917428Y-102780714D01*
X133953142Y-102816428D01*
X133988857Y-102887857D01*
X133988857Y-103066428D01*
X133953142Y-103137857D01*
X133917428Y-103173571D01*
X133846000Y-103209285D01*
X133631714Y-103209285D01*
X133560285Y-103173571D01*
X133524571Y-103137857D01*
X134203142Y-102459285D02*
X134453142Y-103209285D01*
X134703142Y-102459285D01*
X133032571Y-112655000D02*
X132961142Y-112619285D01*
X132854000Y-112619285D01*
X132746857Y-112655000D01*
X132675428Y-112726428D01*
X132639714Y-112797857D01*
X132604000Y-112940714D01*
X132604000Y-113047857D01*
X132639714Y-113190714D01*
X132675428Y-113262142D01*
X132746857Y-113333571D01*
X132854000Y-113369285D01*
X132925428Y-113369285D01*
X133032571Y-113333571D01*
X133068285Y-113297857D01*
X133068285Y-113047857D01*
X132925428Y-113047857D01*
X133389714Y-113369285D02*
X133389714Y-112619285D01*
X133818285Y-113369285D01*
X133818285Y-112619285D01*
X134175428Y-113369285D02*
X134175428Y-112619285D01*
X134354000Y-112619285D01*
X134461142Y-112655000D01*
X134532571Y-112726428D01*
X134568285Y-112797857D01*
X134604000Y-112940714D01*
X134604000Y-113047857D01*
X134568285Y-113190714D01*
X134532571Y-113262142D01*
X134461142Y-113333571D01*
X134354000Y-113369285D01*
X134175428Y-113369285D01*
X148500000Y-69800000D02*
X148500000Y-68300000D01*
D13*
X151500000Y-69800000D02*
X151500000Y-68200000D01*
D12*
X140300000Y-70295000D02*
X140300000Y-74905000D01*
X131700000Y-70295000D02*
X140300000Y-70295000D01*
X131700000Y-75705000D02*
X131700000Y-70295000D01*
X139500000Y-75705000D02*
X131700000Y-75705000D01*
X140300000Y-74905000D02*
X139500000Y-75705000D01*
X165900000Y-89900000D02*
X124100000Y-89900000D01*
X165900000Y-77100000D02*
X165900000Y-89900000D01*
X124100000Y-77100000D02*
X165900000Y-77100000D01*
X124100000Y-89900000D02*
X124100000Y-77100000D01*
X145600000Y-93650000D02*
X145600000Y-94350000D01*
X144400000Y-94350000D02*
X144400000Y-93650000D01*
X138250000Y-91975000D02*
X137750000Y-91975000D01*
X137750000Y-93025000D02*
X138250000Y-93025000D01*
X138250000Y-94975000D02*
X137750000Y-94975000D01*
X137750000Y-96025000D02*
X138250000Y-96025000D01*
X137650000Y-93400000D02*
X138350000Y-93400000D01*
X138350000Y-94600000D02*
X137650000Y-94600000D01*
D14*
X143500000Y-97500000D02*
X137200000Y-97500000D01*
X137200000Y-97500000D02*
X137200000Y-99500000D01*
X137200000Y-99500000D02*
X143500000Y-99500000D01*
X143500000Y-99500000D02*
X143500000Y-97500000D01*
X143500000Y-98000000D02*
X144000000Y-98000000D01*
X143500000Y-99000000D02*
X144000000Y-99000000D01*
D12*
X152000000Y-90400000D02*
X151000000Y-90400000D01*
X151000000Y-92100000D02*
X152000000Y-92100000D01*
X149825000Y-95825000D02*
X149825000Y-96825000D01*
X160175000Y-95825000D02*
X160175000Y-96900000D01*
X160175000Y-106175000D02*
X160175000Y-105100000D01*
X149825000Y-106175000D02*
X149825000Y-105100000D01*
X149825000Y-95825000D02*
X150900000Y-95825000D01*
X149825000Y-106175000D02*
X150900000Y-106175000D01*
X160175000Y-106175000D02*
X159100000Y-106175000D01*
X160175000Y-95825000D02*
X159100000Y-95825000D01*
X149825000Y-96825000D02*
X148800000Y-96825000D01*
X156450000Y-123225000D02*
X155950000Y-123225000D01*
X155950000Y-124175000D02*
X156450000Y-124175000D01*
X141800000Y-95600000D02*
X142000000Y-95400000D01*
X142000000Y-95400000D02*
X142200000Y-95600000D01*
X142200000Y-95600000D02*
X142650000Y-95600000D01*
X142650000Y-92400000D02*
X141350000Y-92400000D01*
X141350000Y-95600000D02*
X141800000Y-95600000D01*
X149475000Y-75000000D02*
X149475000Y-73000000D01*
X146525000Y-73000000D02*
X146525000Y-75000000D01*
X153500000Y-67600000D02*
X154500000Y-67600000D01*
X154500000Y-65900000D02*
X153500000Y-65900000D01*
X156500000Y-76525000D02*
X158500000Y-76525000D01*
X158500000Y-74475000D02*
X156500000Y-74475000D01*
X144400000Y-102750000D02*
X144400000Y-103750000D01*
X146100000Y-103750000D02*
X146100000Y-102750000D01*
X165475000Y-106250000D02*
X165475000Y-105750000D01*
X164525000Y-105750000D02*
X164525000Y-106250000D01*
X165600000Y-98000000D02*
X165600000Y-97000000D01*
X163900000Y-97000000D02*
X163900000Y-98000000D01*
X136450000Y-123225000D02*
X135950000Y-123225000D01*
X135950000Y-124175000D02*
X136450000Y-124175000D01*
X126750000Y-74500000D02*
X126200000Y-74950000D01*
X126200000Y-74950000D02*
X126200000Y-74050000D01*
X126200000Y-74050000D02*
X126750000Y-74500000D01*
X126750000Y-75050000D02*
X126750000Y-73950000D01*
X128299140Y-72749940D02*
X128299140Y-73100460D01*
X128299140Y-76250060D02*
X128299140Y-75899540D01*
X124249560Y-72749940D02*
X124249560Y-73100460D01*
X128750440Y-72749940D02*
X128750440Y-73100460D01*
X128750440Y-76250060D02*
X128750440Y-75899540D01*
X124249560Y-76250060D02*
X124249560Y-75899540D01*
X128750440Y-72749940D02*
X124249560Y-72749940D01*
X128750440Y-76250060D02*
X124249560Y-76250060D01*
X143000000Y-71750000D02*
X142550000Y-71200000D01*
X142550000Y-71200000D02*
X143450000Y-71200000D01*
X143450000Y-71200000D02*
X143000000Y-71750000D01*
X142450000Y-71750000D02*
X143550000Y-71750000D01*
X144750060Y-73299140D02*
X144399540Y-73299140D01*
X141249940Y-73299140D02*
X141600460Y-73299140D01*
X144750060Y-69249560D02*
X144399540Y-69249560D01*
X144750060Y-73750440D02*
X144399540Y-73750440D01*
X141249940Y-73750440D02*
X141600460Y-73750440D01*
X141249940Y-69249560D02*
X141600460Y-69249560D01*
X144750060Y-73750440D02*
X144750060Y-69249560D01*
X141249940Y-73750440D02*
X141249940Y-69249560D01*
X151900000Y-72000000D02*
X151900000Y-75540000D01*
X150100000Y-72000000D02*
X150100000Y-75540000D01*
X151508000Y-73682500D02*
X150492000Y-73682500D01*
X150619000Y-74317500D02*
X151000000Y-73682500D01*
X151381000Y-74317500D02*
X150619000Y-74317500D01*
X151000000Y-73682500D02*
X151381000Y-74317500D01*
X151000000Y-73301500D02*
X151000000Y-73682500D01*
X151000000Y-74317500D02*
X151000000Y-74698500D01*
X159550000Y-120100000D02*
X159550000Y-118200000D01*
X158450000Y-120100000D02*
X158450000Y-118200000D01*
X159000000Y-119200000D02*
X159000000Y-118750000D01*
X158750000Y-119250000D02*
X159250000Y-119250000D01*
X159000000Y-119250000D02*
X158750000Y-119000000D01*
X158750000Y-119000000D02*
X159250000Y-119000000D01*
X159250000Y-119000000D02*
X159000000Y-119250000D01*
X161800000Y-120100700D02*
X161800000Y-118200700D01*
X160700000Y-120100700D02*
X160700000Y-118200700D01*
X161250000Y-119200700D02*
X161250000Y-118750700D01*
X161000000Y-119250700D02*
X161500000Y-119250700D01*
X161250000Y-119250700D02*
X161000000Y-119000700D01*
X161000000Y-119000700D02*
X161500000Y-119000700D01*
X161500000Y-119000700D02*
X161250000Y-119250700D01*
X156700000Y-73800000D02*
X158300000Y-73800000D01*
X156700000Y-68200000D02*
X158300000Y-68200000D01*
X135000000Y-67425000D02*
X137000000Y-67425000D01*
X137000000Y-69575000D02*
X135000000Y-69575000D01*
X147250000Y-69975000D02*
X146750000Y-69975000D01*
X146750000Y-71025000D02*
X147250000Y-71025000D01*
X149750000Y-66525000D02*
X150250000Y-66525000D01*
X150250000Y-65475000D02*
X149750000Y-65475000D01*
X147750000Y-66525000D02*
X148250000Y-66525000D01*
X148250000Y-65475000D02*
X147750000Y-65475000D01*
X165475000Y-108750000D02*
X165475000Y-109250000D01*
X166525000Y-109250000D02*
X166525000Y-108750000D01*
X166975000Y-108750000D02*
X166975000Y-109250000D01*
X168025000Y-109250000D02*
X168025000Y-108750000D01*
X158475000Y-121250000D02*
X158475000Y-121750000D01*
X159525000Y-121750000D02*
X159525000Y-121250000D01*
X160725000Y-121250000D02*
X160725000Y-121750000D01*
X161775000Y-121750000D02*
X161775000Y-121250000D01*
X134050000Y-123175000D02*
X133550000Y-123175000D01*
X133550000Y-124225000D02*
X134050000Y-124225000D01*
X148750000Y-109975000D02*
X148250000Y-109975000D01*
X148250000Y-111025000D02*
X148750000Y-111025000D01*
X151750000Y-111025000D02*
X152250000Y-111025000D01*
X152250000Y-109975000D02*
X151750000Y-109975000D01*
X153550000Y-124225000D02*
X154050000Y-124225000D01*
X154050000Y-123175000D02*
X153550000Y-123175000D01*
X136300000Y-121600000D02*
X136300000Y-118300000D01*
X133700000Y-121600000D02*
X133700000Y-118400000D01*
X134700000Y-117700000D02*
X135300000Y-117700000D01*
X135300000Y-122300000D02*
X134700000Y-122300000D01*
X156300000Y-121600000D02*
X156300000Y-118300000D01*
X153700000Y-121600000D02*
X153700000Y-118400000D01*
X154700000Y-117700000D02*
X155300000Y-117700000D01*
X155300000Y-122300000D02*
X154700000Y-122300000D01*
X165850000Y-106000000D02*
X165600000Y-105750000D01*
X165600000Y-106250000D02*
X165850000Y-106000000D01*
D15*
G36*
X128663744Y-109615918D02*
X128719201Y-109643568D01*
X128768148Y-109694480D01*
X128781629Y-109713338D01*
X128796314Y-109738015D01*
X128805842Y-109764816D01*
X128811293Y-109800587D01*
X128813747Y-109852169D01*
X128814286Y-109920267D01*
X128811852Y-110013588D01*
X128803394Y-110083657D01*
X128787174Y-110135931D01*
X128761454Y-110175869D01*
X128724497Y-110208929D01*
X128721782Y-110210886D01*
X128685360Y-110230908D01*
X128641502Y-110240815D01*
X128585724Y-110243257D01*
X128495048Y-110243257D01*
X128495010Y-110331283D01*
X128494166Y-110380308D01*
X128489024Y-110409065D01*
X128475587Y-110426311D01*
X128449858Y-110440808D01*
X128443679Y-110443769D01*
X128414764Y-110457648D01*
X128392376Y-110466414D01*
X128375729Y-110467171D01*
X128364036Y-110457023D01*
X128356510Y-110433073D01*
X128352366Y-110392426D01*
X128350815Y-110332186D01*
X128351071Y-110249455D01*
X128352349Y-110141339D01*
X128352748Y-110109000D01*
X128354185Y-109997524D01*
X128355472Y-109924603D01*
X128494971Y-109924603D01*
X128495755Y-109986499D01*
X128499240Y-110026997D01*
X128507124Y-110053708D01*
X128521105Y-110074244D01*
X128530597Y-110084260D01*
X128569404Y-110113567D01*
X128603763Y-110115952D01*
X128639216Y-110091750D01*
X128640114Y-110090857D01*
X128654539Y-110072153D01*
X128663313Y-110046732D01*
X128667739Y-110007584D01*
X128669118Y-109947697D01*
X128669143Y-109934430D01*
X128665812Y-109851901D01*
X128654969Y-109794691D01*
X128635340Y-109759766D01*
X128605650Y-109744094D01*
X128588491Y-109742514D01*
X128547766Y-109749926D01*
X128519832Y-109774330D01*
X128503017Y-109818980D01*
X128495650Y-109887130D01*
X128494971Y-109924603D01*
X128355472Y-109924603D01*
X128355708Y-109911245D01*
X128357677Y-109846333D01*
X128360450Y-109798958D01*
X128364388Y-109765290D01*
X128369849Y-109741498D01*
X128377192Y-109723753D01*
X128386777Y-109708224D01*
X128390887Y-109702381D01*
X128445405Y-109647185D01*
X128514336Y-109615890D01*
X128594072Y-109607165D01*
X128663744Y-109615918D01*
X128663744Y-109615918D01*
G37*
X128663744Y-109615918D02*
X128719201Y-109643568D01*
X128768148Y-109694480D01*
X128781629Y-109713338D01*
X128796314Y-109738015D01*
X128805842Y-109764816D01*
X128811293Y-109800587D01*
X128813747Y-109852169D01*
X128814286Y-109920267D01*
X128811852Y-110013588D01*
X128803394Y-110083657D01*
X128787174Y-110135931D01*
X128761454Y-110175869D01*
X128724497Y-110208929D01*
X128721782Y-110210886D01*
X128685360Y-110230908D01*
X128641502Y-110240815D01*
X128585724Y-110243257D01*
X128495048Y-110243257D01*
X128495010Y-110331283D01*
X128494166Y-110380308D01*
X128489024Y-110409065D01*
X128475587Y-110426311D01*
X128449858Y-110440808D01*
X128443679Y-110443769D01*
X128414764Y-110457648D01*
X128392376Y-110466414D01*
X128375729Y-110467171D01*
X128364036Y-110457023D01*
X128356510Y-110433073D01*
X128352366Y-110392426D01*
X128350815Y-110332186D01*
X128351071Y-110249455D01*
X128352349Y-110141339D01*
X128352748Y-110109000D01*
X128354185Y-109997524D01*
X128355472Y-109924603D01*
X128494971Y-109924603D01*
X128495755Y-109986499D01*
X128499240Y-110026997D01*
X128507124Y-110053708D01*
X128521105Y-110074244D01*
X128530597Y-110084260D01*
X128569404Y-110113567D01*
X128603763Y-110115952D01*
X128639216Y-110091750D01*
X128640114Y-110090857D01*
X128654539Y-110072153D01*
X128663313Y-110046732D01*
X128667739Y-110007584D01*
X128669118Y-109947697D01*
X128669143Y-109934430D01*
X128665812Y-109851901D01*
X128654969Y-109794691D01*
X128635340Y-109759766D01*
X128605650Y-109744094D01*
X128588491Y-109742514D01*
X128547766Y-109749926D01*
X128519832Y-109774330D01*
X128503017Y-109818980D01*
X128495650Y-109887130D01*
X128494971Y-109924603D01*
X128355472Y-109924603D01*
X128355708Y-109911245D01*
X128357677Y-109846333D01*
X128360450Y-109798958D01*
X128364388Y-109765290D01*
X128369849Y-109741498D01*
X128377192Y-109723753D01*
X128386777Y-109708224D01*
X128390887Y-109702381D01*
X128445405Y-109647185D01*
X128514336Y-109615890D01*
X128594072Y-109607165D01*
X128663744Y-109615918D01*
G36*
X129780093Y-109623780D02*
X129826672Y-109650723D01*
X129859057Y-109677466D01*
X129882742Y-109705484D01*
X129899059Y-109739748D01*
X129909339Y-109785227D01*
X129914914Y-109846892D01*
X129917116Y-109929711D01*
X129917371Y-109989246D01*
X129917371Y-110208391D01*
X129855686Y-110236044D01*
X129794000Y-110263697D01*
X129786743Y-110023670D01*
X129783744Y-109934028D01*
X129780598Y-109868962D01*
X129776701Y-109824026D01*
X129771447Y-109794770D01*
X129764231Y-109776748D01*
X129754450Y-109765511D01*
X129751312Y-109763079D01*
X129703761Y-109744083D01*
X129655697Y-109751600D01*
X129627086Y-109771543D01*
X129615447Y-109785675D01*
X129607391Y-109804220D01*
X129602271Y-109832334D01*
X129599441Y-109875173D01*
X129598256Y-109937895D01*
X129598057Y-110003261D01*
X129598018Y-110085268D01*
X129596614Y-110143316D01*
X129591914Y-110182465D01*
X129581987Y-110207780D01*
X129564903Y-110224323D01*
X129538732Y-110237156D01*
X129503775Y-110250491D01*
X129465596Y-110265007D01*
X129470141Y-110007389D01*
X129471971Y-109914519D01*
X129474112Y-109845889D01*
X129477181Y-109796711D01*
X129481794Y-109762198D01*
X129488568Y-109737562D01*
X129498119Y-109718016D01*
X129509634Y-109700770D01*
X129565190Y-109645680D01*
X129632980Y-109613822D01*
X129706713Y-109606191D01*
X129780093Y-109623780D01*
X129780093Y-109623780D01*
G37*
X129780093Y-109623780D02*
X129826672Y-109650723D01*
X129859057Y-109677466D01*
X129882742Y-109705484D01*
X129899059Y-109739748D01*
X129909339Y-109785227D01*
X129914914Y-109846892D01*
X129917116Y-109929711D01*
X129917371Y-109989246D01*
X129917371Y-110208391D01*
X129855686Y-110236044D01*
X129794000Y-110263697D01*
X129786743Y-110023670D01*
X129783744Y-109934028D01*
X129780598Y-109868962D01*
X129776701Y-109824026D01*
X129771447Y-109794770D01*
X129764231Y-109776748D01*
X129754450Y-109765511D01*
X129751312Y-109763079D01*
X129703761Y-109744083D01*
X129655697Y-109751600D01*
X129627086Y-109771543D01*
X129615447Y-109785675D01*
X129607391Y-109804220D01*
X129602271Y-109832334D01*
X129599441Y-109875173D01*
X129598256Y-109937895D01*
X129598057Y-110003261D01*
X129598018Y-110085268D01*
X129596614Y-110143316D01*
X129591914Y-110182465D01*
X129581987Y-110207780D01*
X129564903Y-110224323D01*
X129538732Y-110237156D01*
X129503775Y-110250491D01*
X129465596Y-110265007D01*
X129470141Y-110007389D01*
X129471971Y-109914519D01*
X129474112Y-109845889D01*
X129477181Y-109796711D01*
X129481794Y-109762198D01*
X129488568Y-109737562D01*
X129498119Y-109718016D01*
X129509634Y-109700770D01*
X129565190Y-109645680D01*
X129632980Y-109613822D01*
X129706713Y-109606191D01*
X129780093Y-109623780D01*
G36*
X128105115Y-109617962D02*
X128173145Y-109653733D01*
X128223351Y-109711301D01*
X128241185Y-109748312D01*
X128255063Y-109803882D01*
X128262167Y-109874096D01*
X128262840Y-109950727D01*
X128257427Y-110025552D01*
X128246270Y-110090342D01*
X128229714Y-110136873D01*
X128224626Y-110144887D01*
X128164355Y-110204707D01*
X128092769Y-110240535D01*
X128015092Y-110251020D01*
X127936548Y-110234810D01*
X127914689Y-110225092D01*
X127872122Y-110195143D01*
X127834763Y-110155433D01*
X127831232Y-110150397D01*
X127816881Y-110126124D01*
X127807394Y-110100178D01*
X127801790Y-110066022D01*
X127799086Y-110017119D01*
X127798299Y-109946935D01*
X127798286Y-109931200D01*
X127798322Y-109926192D01*
X127943429Y-109926192D01*
X127944273Y-109992430D01*
X127947596Y-110036386D01*
X127954583Y-110064779D01*
X127966416Y-110084325D01*
X127972457Y-110090857D01*
X128007186Y-110115680D01*
X128040903Y-110114548D01*
X128074995Y-110093016D01*
X128095329Y-110070029D01*
X128107371Y-110036478D01*
X128114134Y-109983569D01*
X128114598Y-109977399D01*
X128115752Y-109881513D01*
X128103688Y-109810299D01*
X128078570Y-109764194D01*
X128040560Y-109743635D01*
X128026992Y-109742514D01*
X127991364Y-109748152D01*
X127966994Y-109767686D01*
X127952093Y-109805042D01*
X127944875Y-109864150D01*
X127943429Y-109926192D01*
X127798322Y-109926192D01*
X127798826Y-109856413D01*
X127801096Y-109804159D01*
X127806068Y-109767949D01*
X127814713Y-109741299D01*
X127828005Y-109717722D01*
X127830943Y-109713338D01*
X127880313Y-109654249D01*
X127934109Y-109619947D01*
X127999602Y-109606331D01*
X128021842Y-109605665D01*
X128105115Y-109617962D01*
X128105115Y-109617962D01*
G37*
X128105115Y-109617962D02*
X128173145Y-109653733D01*
X128223351Y-109711301D01*
X128241185Y-109748312D01*
X128255063Y-109803882D01*
X128262167Y-109874096D01*
X128262840Y-109950727D01*
X128257427Y-110025552D01*
X128246270Y-110090342D01*
X128229714Y-110136873D01*
X128224626Y-110144887D01*
X128164355Y-110204707D01*
X128092769Y-110240535D01*
X128015092Y-110251020D01*
X127936548Y-110234810D01*
X127914689Y-110225092D01*
X127872122Y-110195143D01*
X127834763Y-110155433D01*
X127831232Y-110150397D01*
X127816881Y-110126124D01*
X127807394Y-110100178D01*
X127801790Y-110066022D01*
X127799086Y-110017119D01*
X127798299Y-109946935D01*
X127798286Y-109931200D01*
X127798322Y-109926192D01*
X127943429Y-109926192D01*
X127944273Y-109992430D01*
X127947596Y-110036386D01*
X127954583Y-110064779D01*
X127966416Y-110084325D01*
X127972457Y-110090857D01*
X128007186Y-110115680D01*
X128040903Y-110114548D01*
X128074995Y-110093016D01*
X128095329Y-110070029D01*
X128107371Y-110036478D01*
X128114134Y-109983569D01*
X128114598Y-109977399D01*
X128115752Y-109881513D01*
X128103688Y-109810299D01*
X128078570Y-109764194D01*
X128040560Y-109743635D01*
X128026992Y-109742514D01*
X127991364Y-109748152D01*
X127966994Y-109767686D01*
X127952093Y-109805042D01*
X127944875Y-109864150D01*
X127943429Y-109926192D01*
X127798322Y-109926192D01*
X127798826Y-109856413D01*
X127801096Y-109804159D01*
X127806068Y-109767949D01*
X127814713Y-109741299D01*
X127828005Y-109717722D01*
X127830943Y-109713338D01*
X127880313Y-109654249D01*
X127934109Y-109619947D01*
X127999602Y-109606331D01*
X128021842Y-109605665D01*
X128105115Y-109617962D01*
G36*
X129232303Y-109627239D02*
X129289527Y-109665735D01*
X129333749Y-109721335D01*
X129360167Y-109792086D01*
X129365510Y-109844162D01*
X129364903Y-109865893D01*
X129359822Y-109882531D01*
X129345855Y-109897437D01*
X129318589Y-109913973D01*
X129273612Y-109935498D01*
X129206511Y-109965374D01*
X129206171Y-109965524D01*
X129144407Y-109993813D01*
X129093759Y-110018933D01*
X129059404Y-110038179D01*
X129046518Y-110048848D01*
X129046514Y-110048934D01*
X129057872Y-110072166D01*
X129084431Y-110097774D01*
X129114923Y-110116221D01*
X129130370Y-110119886D01*
X129172515Y-110107212D01*
X129208808Y-110075471D01*
X129226517Y-110040572D01*
X129243552Y-110014845D01*
X129276922Y-109985546D01*
X129316149Y-109960235D01*
X129350756Y-109946471D01*
X129357993Y-109945714D01*
X129366139Y-109958160D01*
X129366630Y-109989972D01*
X129360643Y-110032866D01*
X129349357Y-110078558D01*
X129333950Y-110118761D01*
X129333171Y-110120322D01*
X129286804Y-110185062D01*
X129226711Y-110229097D01*
X129158465Y-110250711D01*
X129087638Y-110248185D01*
X129019804Y-110219804D01*
X129016788Y-110217808D01*
X128963427Y-110169448D01*
X128928340Y-110106352D01*
X128908922Y-110023387D01*
X128906316Y-110000078D01*
X128901701Y-109890055D01*
X128907233Y-109838748D01*
X129046514Y-109838748D01*
X129048324Y-109870753D01*
X129058222Y-109880093D01*
X129082898Y-109873105D01*
X129121795Y-109856587D01*
X129165275Y-109835881D01*
X129166356Y-109835333D01*
X129203209Y-109815949D01*
X129218000Y-109803013D01*
X129214353Y-109789451D01*
X129198995Y-109771632D01*
X129159923Y-109745845D01*
X129117846Y-109743950D01*
X129080103Y-109762717D01*
X129054034Y-109798915D01*
X129046514Y-109838748D01*
X128907233Y-109838748D01*
X128911194Y-109802027D01*
X128935550Y-109732212D01*
X128969456Y-109683302D01*
X129030653Y-109633878D01*
X129098063Y-109609359D01*
X129166880Y-109607797D01*
X129232303Y-109627239D01*
X129232303Y-109627239D01*
G37*
X129232303Y-109627239D02*
X129289527Y-109665735D01*
X129333749Y-109721335D01*
X129360167Y-109792086D01*
X129365510Y-109844162D01*
X129364903Y-109865893D01*
X129359822Y-109882531D01*
X129345855Y-109897437D01*
X129318589Y-109913973D01*
X129273612Y-109935498D01*
X129206511Y-109965374D01*
X129206171Y-109965524D01*
X129144407Y-109993813D01*
X129093759Y-110018933D01*
X129059404Y-110038179D01*
X129046518Y-110048848D01*
X129046514Y-110048934D01*
X129057872Y-110072166D01*
X129084431Y-110097774D01*
X129114923Y-110116221D01*
X129130370Y-110119886D01*
X129172515Y-110107212D01*
X129208808Y-110075471D01*
X129226517Y-110040572D01*
X129243552Y-110014845D01*
X129276922Y-109985546D01*
X129316149Y-109960235D01*
X129350756Y-109946471D01*
X129357993Y-109945714D01*
X129366139Y-109958160D01*
X129366630Y-109989972D01*
X129360643Y-110032866D01*
X129349357Y-110078558D01*
X129333950Y-110118761D01*
X129333171Y-110120322D01*
X129286804Y-110185062D01*
X129226711Y-110229097D01*
X129158465Y-110250711D01*
X129087638Y-110248185D01*
X129019804Y-110219804D01*
X129016788Y-110217808D01*
X128963427Y-110169448D01*
X128928340Y-110106352D01*
X128908922Y-110023387D01*
X128906316Y-110000078D01*
X128901701Y-109890055D01*
X128907233Y-109838748D01*
X129046514Y-109838748D01*
X129048324Y-109870753D01*
X129058222Y-109880093D01*
X129082898Y-109873105D01*
X129121795Y-109856587D01*
X129165275Y-109835881D01*
X129166356Y-109835333D01*
X129203209Y-109815949D01*
X129218000Y-109803013D01*
X129214353Y-109789451D01*
X129198995Y-109771632D01*
X129159923Y-109745845D01*
X129117846Y-109743950D01*
X129080103Y-109762717D01*
X129054034Y-109798915D01*
X129046514Y-109838748D01*
X128907233Y-109838748D01*
X128911194Y-109802027D01*
X128935550Y-109732212D01*
X128969456Y-109683302D01*
X129030653Y-109633878D01*
X129098063Y-109609359D01*
X129166880Y-109607797D01*
X129232303Y-109627239D01*
G36*
X130439886Y-109547289D02*
X130444139Y-109606613D01*
X130449025Y-109641572D01*
X130455795Y-109656820D01*
X130465702Y-109657015D01*
X130468914Y-109655195D01*
X130511644Y-109642015D01*
X130567227Y-109642785D01*
X130623737Y-109656333D01*
X130659082Y-109673861D01*
X130695321Y-109701861D01*
X130721813Y-109733549D01*
X130739999Y-109773813D01*
X130751322Y-109827543D01*
X130757222Y-109899626D01*
X130759143Y-109994951D01*
X130759177Y-110013237D01*
X130759200Y-110218646D01*
X130713491Y-110234580D01*
X130681027Y-110245420D01*
X130663215Y-110250468D01*
X130662691Y-110250514D01*
X130660937Y-110236828D01*
X130659444Y-110199076D01*
X130658326Y-110142224D01*
X130657697Y-110071234D01*
X130657600Y-110028073D01*
X130657398Y-109942973D01*
X130656358Y-109881981D01*
X130653831Y-109840177D01*
X130649164Y-109812642D01*
X130641707Y-109794456D01*
X130630811Y-109780698D01*
X130624007Y-109774073D01*
X130577272Y-109747375D01*
X130526272Y-109745375D01*
X130480001Y-109767955D01*
X130471444Y-109776107D01*
X130458893Y-109791436D01*
X130450188Y-109809618D01*
X130444631Y-109835909D01*
X130441526Y-109875562D01*
X130440176Y-109933832D01*
X130439886Y-110014173D01*
X130439886Y-110218646D01*
X130394177Y-110234580D01*
X130361713Y-110245420D01*
X130343901Y-110250468D01*
X130343377Y-110250514D01*
X130342037Y-110236623D01*
X130340828Y-110197439D01*
X130339801Y-110136700D01*
X130339002Y-110058141D01*
X130338481Y-109965498D01*
X130338286Y-109862509D01*
X130338286Y-109465342D01*
X130385457Y-109445444D01*
X130432629Y-109425547D01*
X130439886Y-109547289D01*
X130439886Y-109547289D01*
G37*
X130439886Y-109547289D02*
X130444139Y-109606613D01*
X130449025Y-109641572D01*
X130455795Y-109656820D01*
X130465702Y-109657015D01*
X130468914Y-109655195D01*
X130511644Y-109642015D01*
X130567227Y-109642785D01*
X130623737Y-109656333D01*
X130659082Y-109673861D01*
X130695321Y-109701861D01*
X130721813Y-109733549D01*
X130739999Y-109773813D01*
X130751322Y-109827543D01*
X130757222Y-109899626D01*
X130759143Y-109994951D01*
X130759177Y-110013237D01*
X130759200Y-110218646D01*
X130713491Y-110234580D01*
X130681027Y-110245420D01*
X130663215Y-110250468D01*
X130662691Y-110250514D01*
X130660937Y-110236828D01*
X130659444Y-110199076D01*
X130658326Y-110142224D01*
X130657697Y-110071234D01*
X130657600Y-110028073D01*
X130657398Y-109942973D01*
X130656358Y-109881981D01*
X130653831Y-109840177D01*
X130649164Y-109812642D01*
X130641707Y-109794456D01*
X130630811Y-109780698D01*
X130624007Y-109774073D01*
X130577272Y-109747375D01*
X130526272Y-109745375D01*
X130480001Y-109767955D01*
X130471444Y-109776107D01*
X130458893Y-109791436D01*
X130450188Y-109809618D01*
X130444631Y-109835909D01*
X130441526Y-109875562D01*
X130440176Y-109933832D01*
X130439886Y-110014173D01*
X130439886Y-110218646D01*
X130394177Y-110234580D01*
X130361713Y-110245420D01*
X130343901Y-110250468D01*
X130343377Y-110250514D01*
X130342037Y-110236623D01*
X130340828Y-110197439D01*
X130339801Y-110136700D01*
X130339002Y-110058141D01*
X130338481Y-109965498D01*
X130338286Y-109862509D01*
X130338286Y-109465342D01*
X130385457Y-109445444D01*
X130432629Y-109425547D01*
X130439886Y-109547289D01*
G36*
X131103744Y-109646968D02*
X131160616Y-109668087D01*
X131161267Y-109668493D01*
X131196440Y-109694380D01*
X131222407Y-109724633D01*
X131240670Y-109764058D01*
X131252732Y-109817462D01*
X131260096Y-109889651D01*
X131264264Y-109985432D01*
X131264629Y-109999078D01*
X131269876Y-110204842D01*
X131225716Y-110227678D01*
X131193763Y-110243110D01*
X131174470Y-110250423D01*
X131173578Y-110250514D01*
X131170239Y-110237022D01*
X131167587Y-110200626D01*
X131165956Y-110147452D01*
X131165600Y-110104393D01*
X131165592Y-110034641D01*
X131162403Y-109990837D01*
X131151288Y-109969944D01*
X131127501Y-109968925D01*
X131086296Y-109984741D01*
X131024086Y-110013815D01*
X130978341Y-110037963D01*
X130954813Y-110058913D01*
X130947896Y-110081747D01*
X130947886Y-110082877D01*
X130959299Y-110122212D01*
X130993092Y-110143462D01*
X131044809Y-110146539D01*
X131082061Y-110146006D01*
X131101703Y-110156735D01*
X131113952Y-110182505D01*
X131121002Y-110215337D01*
X131110842Y-110233966D01*
X131107017Y-110236632D01*
X131071001Y-110247340D01*
X131020566Y-110248856D01*
X130968626Y-110241759D01*
X130931822Y-110228788D01*
X130880938Y-110185585D01*
X130852014Y-110125446D01*
X130846286Y-110078462D01*
X130850657Y-110036082D01*
X130866475Y-110001488D01*
X130897797Y-109970763D01*
X130948678Y-109939990D01*
X131023176Y-109905252D01*
X131027714Y-109903288D01*
X131094821Y-109872287D01*
X131136232Y-109846862D01*
X131153981Y-109824014D01*
X131150107Y-109800745D01*
X131126643Y-109774056D01*
X131119627Y-109767914D01*
X131072630Y-109744100D01*
X131023933Y-109745103D01*
X130981522Y-109768451D01*
X130953384Y-109811675D01*
X130950769Y-109820160D01*
X130925308Y-109861308D01*
X130893001Y-109881128D01*
X130846286Y-109900770D01*
X130846286Y-109849950D01*
X130860496Y-109776082D01*
X130902675Y-109708327D01*
X130924624Y-109685661D01*
X130974517Y-109656569D01*
X131037967Y-109643400D01*
X131103744Y-109646968D01*
X131103744Y-109646968D01*
G37*
X131103744Y-109646968D02*
X131160616Y-109668087D01*
X131161267Y-109668493D01*
X131196440Y-109694380D01*
X131222407Y-109724633D01*
X131240670Y-109764058D01*
X131252732Y-109817462D01*
X131260096Y-109889651D01*
X131264264Y-109985432D01*
X131264629Y-109999078D01*
X131269876Y-110204842D01*
X131225716Y-110227678D01*
X131193763Y-110243110D01*
X131174470Y-110250423D01*
X131173578Y-110250514D01*
X131170239Y-110237022D01*
X131167587Y-110200626D01*
X131165956Y-110147452D01*
X131165600Y-110104393D01*
X131165592Y-110034641D01*
X131162403Y-109990837D01*
X131151288Y-109969944D01*
X131127501Y-109968925D01*
X131086296Y-109984741D01*
X131024086Y-110013815D01*
X130978341Y-110037963D01*
X130954813Y-110058913D01*
X130947896Y-110081747D01*
X130947886Y-110082877D01*
X130959299Y-110122212D01*
X130993092Y-110143462D01*
X131044809Y-110146539D01*
X131082061Y-110146006D01*
X131101703Y-110156735D01*
X131113952Y-110182505D01*
X131121002Y-110215337D01*
X131110842Y-110233966D01*
X131107017Y-110236632D01*
X131071001Y-110247340D01*
X131020566Y-110248856D01*
X130968626Y-110241759D01*
X130931822Y-110228788D01*
X130880938Y-110185585D01*
X130852014Y-110125446D01*
X130846286Y-110078462D01*
X130850657Y-110036082D01*
X130866475Y-110001488D01*
X130897797Y-109970763D01*
X130948678Y-109939990D01*
X131023176Y-109905252D01*
X131027714Y-109903288D01*
X131094821Y-109872287D01*
X131136232Y-109846862D01*
X131153981Y-109824014D01*
X131150107Y-109800745D01*
X131126643Y-109774056D01*
X131119627Y-109767914D01*
X131072630Y-109744100D01*
X131023933Y-109745103D01*
X130981522Y-109768451D01*
X130953384Y-109811675D01*
X130950769Y-109820160D01*
X130925308Y-109861308D01*
X130893001Y-109881128D01*
X130846286Y-109900770D01*
X130846286Y-109849950D01*
X130860496Y-109776082D01*
X130902675Y-109708327D01*
X130924624Y-109685661D01*
X130974517Y-109656569D01*
X131037967Y-109643400D01*
X131103744Y-109646968D01*
G36*
X131593926Y-109645755D02*
X131659858Y-109670084D01*
X131713273Y-109713117D01*
X131734164Y-109743409D01*
X131756939Y-109798994D01*
X131756466Y-109839186D01*
X131732562Y-109866217D01*
X131723717Y-109870813D01*
X131685530Y-109885144D01*
X131666028Y-109881472D01*
X131659422Y-109857407D01*
X131659086Y-109844114D01*
X131646992Y-109795210D01*
X131615471Y-109760999D01*
X131571659Y-109744476D01*
X131522695Y-109748634D01*
X131482894Y-109770227D01*
X131469450Y-109782544D01*
X131459921Y-109797487D01*
X131453485Y-109820075D01*
X131449317Y-109855328D01*
X131446597Y-109908266D01*
X131444502Y-109983907D01*
X131443960Y-110007857D01*
X131441981Y-110089790D01*
X131439731Y-110147455D01*
X131436357Y-110185608D01*
X131431006Y-110209004D01*
X131422824Y-110222398D01*
X131410959Y-110230545D01*
X131403362Y-110234144D01*
X131371102Y-110246452D01*
X131352111Y-110250514D01*
X131345836Y-110236948D01*
X131342006Y-110195934D01*
X131340600Y-110126999D01*
X131341598Y-110029669D01*
X131341908Y-110014657D01*
X131344101Y-109925859D01*
X131346693Y-109861019D01*
X131350382Y-109815067D01*
X131355864Y-109782935D01*
X131363835Y-109759553D01*
X131374993Y-109739852D01*
X131380830Y-109731410D01*
X131414296Y-109694057D01*
X131451727Y-109665003D01*
X131456309Y-109662467D01*
X131523426Y-109642443D01*
X131593926Y-109645755D01*
X131593926Y-109645755D01*
G37*
X131593926Y-109645755D02*
X131659858Y-109670084D01*
X131713273Y-109713117D01*
X131734164Y-109743409D01*
X131756939Y-109798994D01*
X131756466Y-109839186D01*
X131732562Y-109866217D01*
X131723717Y-109870813D01*
X131685530Y-109885144D01*
X131666028Y-109881472D01*
X131659422Y-109857407D01*
X131659086Y-109844114D01*
X131646992Y-109795210D01*
X131615471Y-109760999D01*
X131571659Y-109744476D01*
X131522695Y-109748634D01*
X131482894Y-109770227D01*
X131469450Y-109782544D01*
X131459921Y-109797487D01*
X131453485Y-109820075D01*
X131449317Y-109855328D01*
X131446597Y-109908266D01*
X131444502Y-109983907D01*
X131443960Y-110007857D01*
X131441981Y-110089790D01*
X131439731Y-110147455D01*
X131436357Y-110185608D01*
X131431006Y-110209004D01*
X131422824Y-110222398D01*
X131410959Y-110230545D01*
X131403362Y-110234144D01*
X131371102Y-110246452D01*
X131352111Y-110250514D01*
X131345836Y-110236948D01*
X131342006Y-110195934D01*
X131340600Y-110126999D01*
X131341598Y-110029669D01*
X131341908Y-110014657D01*
X131344101Y-109925859D01*
X131346693Y-109861019D01*
X131350382Y-109815067D01*
X131355864Y-109782935D01*
X131363835Y-109759553D01*
X131374993Y-109739852D01*
X131380830Y-109731410D01*
X131414296Y-109694057D01*
X131451727Y-109665003D01*
X131456309Y-109662467D01*
X131523426Y-109642443D01*
X131593926Y-109645755D01*
G36*
X132254117Y-109761358D02*
X132253933Y-109869837D01*
X132253219Y-109953287D01*
X132251675Y-110015704D01*
X132249001Y-110061085D01*
X132244894Y-110093429D01*
X132239055Y-110116733D01*
X132231182Y-110134995D01*
X132225221Y-110145418D01*
X132175855Y-110201945D01*
X132113264Y-110237377D01*
X132044013Y-110250090D01*
X131974668Y-110238463D01*
X131933375Y-110217568D01*
X131890025Y-110181422D01*
X131860481Y-110137276D01*
X131842655Y-110079462D01*
X131834463Y-110002313D01*
X131833302Y-109945714D01*
X131833458Y-109941647D01*
X131934857Y-109941647D01*
X131935476Y-110006550D01*
X131938314Y-110049514D01*
X131944840Y-110077622D01*
X131956523Y-110097953D01*
X131970483Y-110113288D01*
X132017365Y-110142890D01*
X132067701Y-110145419D01*
X132115276Y-110120705D01*
X132118979Y-110117356D01*
X132134783Y-110099935D01*
X132144693Y-110079209D01*
X132150058Y-110048362D01*
X132152228Y-110000577D01*
X132152571Y-109947748D01*
X132151827Y-109881381D01*
X132148748Y-109837106D01*
X132142061Y-109808009D01*
X132130496Y-109787173D01*
X132121013Y-109776107D01*
X132076960Y-109748198D01*
X132026224Y-109744843D01*
X131977796Y-109766159D01*
X131968450Y-109774073D01*
X131952540Y-109791647D01*
X131942610Y-109812587D01*
X131937278Y-109843782D01*
X131935163Y-109892122D01*
X131934857Y-109941647D01*
X131833458Y-109941647D01*
X131836810Y-109854568D01*
X131848726Y-109786086D01*
X131871135Y-109734600D01*
X131906124Y-109694443D01*
X131933375Y-109673861D01*
X131982907Y-109651625D01*
X132040316Y-109641304D01*
X132093682Y-109644067D01*
X132123543Y-109655212D01*
X132135261Y-109658383D01*
X132143037Y-109646557D01*
X132148465Y-109614866D01*
X132152571Y-109566593D01*
X132157067Y-109512829D01*
X132163313Y-109480482D01*
X132174676Y-109461985D01*
X132194528Y-109449770D01*
X132207000Y-109444362D01*
X132254171Y-109424601D01*
X132254117Y-109761358D01*
X132254117Y-109761358D01*
G37*
X132254117Y-109761358D02*
X132253933Y-109869837D01*
X132253219Y-109953287D01*
X132251675Y-110015704D01*
X132249001Y-110061085D01*
X132244894Y-110093429D01*
X132239055Y-110116733D01*
X132231182Y-110134995D01*
X132225221Y-110145418D01*
X132175855Y-110201945D01*
X132113264Y-110237377D01*
X132044013Y-110250090D01*
X131974668Y-110238463D01*
X131933375Y-110217568D01*
X131890025Y-110181422D01*
X131860481Y-110137276D01*
X131842655Y-110079462D01*
X131834463Y-110002313D01*
X131833302Y-109945714D01*
X131833458Y-109941647D01*
X131934857Y-109941647D01*
X131935476Y-110006550D01*
X131938314Y-110049514D01*
X131944840Y-110077622D01*
X131956523Y-110097953D01*
X131970483Y-110113288D01*
X132017365Y-110142890D01*
X132067701Y-110145419D01*
X132115276Y-110120705D01*
X132118979Y-110117356D01*
X132134783Y-110099935D01*
X132144693Y-110079209D01*
X132150058Y-110048362D01*
X132152228Y-110000577D01*
X132152571Y-109947748D01*
X132151827Y-109881381D01*
X132148748Y-109837106D01*
X132142061Y-109808009D01*
X132130496Y-109787173D01*
X132121013Y-109776107D01*
X132076960Y-109748198D01*
X132026224Y-109744843D01*
X131977796Y-109766159D01*
X131968450Y-109774073D01*
X131952540Y-109791647D01*
X131942610Y-109812587D01*
X131937278Y-109843782D01*
X131935163Y-109892122D01*
X131934857Y-109941647D01*
X131833458Y-109941647D01*
X131836810Y-109854568D01*
X131848726Y-109786086D01*
X131871135Y-109734600D01*
X131906124Y-109694443D01*
X131933375Y-109673861D01*
X131982907Y-109651625D01*
X132040316Y-109641304D01*
X132093682Y-109644067D01*
X132123543Y-109655212D01*
X132135261Y-109658383D01*
X132143037Y-109646557D01*
X132148465Y-109614866D01*
X132152571Y-109566593D01*
X132157067Y-109512829D01*
X132163313Y-109480482D01*
X132174676Y-109461985D01*
X132194528Y-109449770D01*
X132207000Y-109444362D01*
X132254171Y-109424601D01*
X132254117Y-109761358D01*
G36*
X132843833Y-109654663D02*
X132846048Y-109692850D01*
X132847784Y-109750886D01*
X132848899Y-109824180D01*
X132849257Y-109901055D01*
X132849257Y-110161196D01*
X132803326Y-110207127D01*
X132771675Y-110235429D01*
X132743890Y-110246893D01*
X132705915Y-110246168D01*
X132690840Y-110244321D01*
X132643726Y-110238948D01*
X132604756Y-110235869D01*
X132595257Y-110235585D01*
X132563233Y-110237445D01*
X132517432Y-110242114D01*
X132499674Y-110244321D01*
X132456057Y-110247735D01*
X132426745Y-110240320D01*
X132397680Y-110217427D01*
X132387188Y-110207127D01*
X132341257Y-110161196D01*
X132341257Y-109674602D01*
X132378226Y-109657758D01*
X132410059Y-109645282D01*
X132428683Y-109640914D01*
X132433458Y-109654718D01*
X132437921Y-109693286D01*
X132441775Y-109752356D01*
X132444722Y-109827663D01*
X132446143Y-109891286D01*
X132450114Y-110141657D01*
X132484759Y-110146556D01*
X132516268Y-110143131D01*
X132531708Y-110132041D01*
X132536023Y-110111308D01*
X132539708Y-110067145D01*
X132542469Y-110005146D01*
X132544012Y-109930909D01*
X132544235Y-109892706D01*
X132544457Y-109672783D01*
X132590166Y-109656849D01*
X132622518Y-109646015D01*
X132640115Y-109640962D01*
X132640623Y-109640914D01*
X132642388Y-109654648D01*
X132644329Y-109692730D01*
X132646282Y-109750482D01*
X132648084Y-109823227D01*
X132649343Y-109891286D01*
X132653314Y-110141657D01*
X132740400Y-110141657D01*
X132744396Y-109913240D01*
X132748392Y-109684822D01*
X132790847Y-109662868D01*
X132822192Y-109647793D01*
X132840744Y-109640951D01*
X132841279Y-109640914D01*
X132843833Y-109654663D01*
X132843833Y-109654663D01*
G37*
X132843833Y-109654663D02*
X132846048Y-109692850D01*
X132847784Y-109750886D01*
X132848899Y-109824180D01*
X132849257Y-109901055D01*
X132849257Y-110161196D01*
X132803326Y-110207127D01*
X132771675Y-110235429D01*
X132743890Y-110246893D01*
X132705915Y-110246168D01*
X132690840Y-110244321D01*
X132643726Y-110238948D01*
X132604756Y-110235869D01*
X132595257Y-110235585D01*
X132563233Y-110237445D01*
X132517432Y-110242114D01*
X132499674Y-110244321D01*
X132456057Y-110247735D01*
X132426745Y-110240320D01*
X132397680Y-110217427D01*
X132387188Y-110207127D01*
X132341257Y-110161196D01*
X132341257Y-109674602D01*
X132378226Y-109657758D01*
X132410059Y-109645282D01*
X132428683Y-109640914D01*
X132433458Y-109654718D01*
X132437921Y-109693286D01*
X132441775Y-109752356D01*
X132444722Y-109827663D01*
X132446143Y-109891286D01*
X132450114Y-110141657D01*
X132484759Y-110146556D01*
X132516268Y-110143131D01*
X132531708Y-110132041D01*
X132536023Y-110111308D01*
X132539708Y-110067145D01*
X132542469Y-110005146D01*
X132544012Y-109930909D01*
X132544235Y-109892706D01*
X132544457Y-109672783D01*
X132590166Y-109656849D01*
X132622518Y-109646015D01*
X132640115Y-109640962D01*
X132640623Y-109640914D01*
X132642388Y-109654648D01*
X132644329Y-109692730D01*
X132646282Y-109750482D01*
X132648084Y-109823227D01*
X132649343Y-109891286D01*
X132653314Y-110141657D01*
X132740400Y-110141657D01*
X132744396Y-109913240D01*
X132748392Y-109684822D01*
X132790847Y-109662868D01*
X132822192Y-109647793D01*
X132840744Y-109640951D01*
X132841279Y-109640914D01*
X132843833Y-109654663D01*
G36*
X133208876Y-109652335D02*
X133250667Y-109671344D01*
X133283469Y-109694378D01*
X133307503Y-109720133D01*
X133324097Y-109753358D01*
X133334577Y-109798800D01*
X133340271Y-109861207D01*
X133342507Y-109945327D01*
X133342743Y-110000721D01*
X133342743Y-110216826D01*
X133305774Y-110233670D01*
X133276656Y-110245981D01*
X133262231Y-110250514D01*
X133259472Y-110237025D01*
X133257282Y-110200653D01*
X133255942Y-110147542D01*
X133255657Y-110105372D01*
X133254434Y-110044447D01*
X133251136Y-109996115D01*
X133246321Y-109966518D01*
X133242496Y-109960229D01*
X133216783Y-109966652D01*
X133176418Y-109983125D01*
X133129679Y-110005458D01*
X133084845Y-110029457D01*
X133050193Y-110050930D01*
X133034002Y-110065685D01*
X133033938Y-110065845D01*
X133035330Y-110093152D01*
X133047818Y-110119219D01*
X133069743Y-110140392D01*
X133101743Y-110147474D01*
X133129092Y-110146649D01*
X133167826Y-110146042D01*
X133188158Y-110155116D01*
X133200369Y-110179092D01*
X133201909Y-110183613D01*
X133207203Y-110217806D01*
X133193047Y-110238568D01*
X133156148Y-110248462D01*
X133116289Y-110250292D01*
X133044562Y-110236727D01*
X133007432Y-110217355D01*
X132961576Y-110171845D01*
X132937256Y-110115983D01*
X132935073Y-110056957D01*
X132955629Y-110001953D01*
X132986549Y-109967486D01*
X133017420Y-109948189D01*
X133065942Y-109923759D01*
X133122485Y-109898985D01*
X133131910Y-109895199D01*
X133194019Y-109867791D01*
X133229822Y-109843634D01*
X133241337Y-109819619D01*
X133230580Y-109792635D01*
X133212114Y-109771543D01*
X133168469Y-109745572D01*
X133120446Y-109743624D01*
X133076406Y-109763637D01*
X133044709Y-109803551D01*
X133040549Y-109813848D01*
X133016327Y-109851724D01*
X132980965Y-109879842D01*
X132936343Y-109902917D01*
X132936343Y-109837485D01*
X132938969Y-109797506D01*
X132950230Y-109765997D01*
X132975199Y-109732378D01*
X132999169Y-109706484D01*
X133036441Y-109669817D01*
X133065401Y-109650121D01*
X133096505Y-109642220D01*
X133131713Y-109640914D01*
X133208876Y-109652335D01*
X133208876Y-109652335D01*
G37*
X133208876Y-109652335D02*
X133250667Y-109671344D01*
X133283469Y-109694378D01*
X133307503Y-109720133D01*
X133324097Y-109753358D01*
X133334577Y-109798800D01*
X133340271Y-109861207D01*
X133342507Y-109945327D01*
X133342743Y-110000721D01*
X133342743Y-110216826D01*
X133305774Y-110233670D01*
X133276656Y-110245981D01*
X133262231Y-110250514D01*
X133259472Y-110237025D01*
X133257282Y-110200653D01*
X133255942Y-110147542D01*
X133255657Y-110105372D01*
X133254434Y-110044447D01*
X133251136Y-109996115D01*
X133246321Y-109966518D01*
X133242496Y-109960229D01*
X133216783Y-109966652D01*
X133176418Y-109983125D01*
X133129679Y-110005458D01*
X133084845Y-110029457D01*
X133050193Y-110050930D01*
X133034002Y-110065685D01*
X133033938Y-110065845D01*
X133035330Y-110093152D01*
X133047818Y-110119219D01*
X133069743Y-110140392D01*
X133101743Y-110147474D01*
X133129092Y-110146649D01*
X133167826Y-110146042D01*
X133188158Y-110155116D01*
X133200369Y-110179092D01*
X133201909Y-110183613D01*
X133207203Y-110217806D01*
X133193047Y-110238568D01*
X133156148Y-110248462D01*
X133116289Y-110250292D01*
X133044562Y-110236727D01*
X133007432Y-110217355D01*
X132961576Y-110171845D01*
X132937256Y-110115983D01*
X132935073Y-110056957D01*
X132955629Y-110001953D01*
X132986549Y-109967486D01*
X133017420Y-109948189D01*
X133065942Y-109923759D01*
X133122485Y-109898985D01*
X133131910Y-109895199D01*
X133194019Y-109867791D01*
X133229822Y-109843634D01*
X133241337Y-109819619D01*
X133230580Y-109792635D01*
X133212114Y-109771543D01*
X133168469Y-109745572D01*
X133120446Y-109743624D01*
X133076406Y-109763637D01*
X133044709Y-109803551D01*
X133040549Y-109813848D01*
X133016327Y-109851724D01*
X132980965Y-109879842D01*
X132936343Y-109902917D01*
X132936343Y-109837485D01*
X132938969Y-109797506D01*
X132950230Y-109765997D01*
X132975199Y-109732378D01*
X132999169Y-109706484D01*
X133036441Y-109669817D01*
X133065401Y-109650121D01*
X133096505Y-109642220D01*
X133131713Y-109640914D01*
X133208876Y-109652335D01*
G36*
X133716600Y-109654752D02*
X133733948Y-109662334D01*
X133775356Y-109695128D01*
X133810765Y-109742547D01*
X133832664Y-109793151D01*
X133836229Y-109818098D01*
X133824279Y-109852927D01*
X133798067Y-109871357D01*
X133769964Y-109882516D01*
X133757095Y-109884572D01*
X133750829Y-109869649D01*
X133738456Y-109837175D01*
X133733028Y-109822502D01*
X133702590Y-109771744D01*
X133658520Y-109746427D01*
X133602010Y-109747206D01*
X133597825Y-109748203D01*
X133567655Y-109762507D01*
X133545476Y-109790393D01*
X133530327Y-109835287D01*
X133521250Y-109900615D01*
X133517286Y-109989804D01*
X133516914Y-110037261D01*
X133516730Y-110112071D01*
X133515522Y-110163069D01*
X133512309Y-110195471D01*
X133506109Y-110214495D01*
X133495940Y-110225356D01*
X133480819Y-110233272D01*
X133479946Y-110233670D01*
X133450828Y-110245981D01*
X133436403Y-110250514D01*
X133434186Y-110236809D01*
X133432289Y-110198925D01*
X133430847Y-110141715D01*
X133429998Y-110070027D01*
X133429829Y-110017565D01*
X133430692Y-109916047D01*
X133434070Y-109839032D01*
X133441142Y-109782023D01*
X133453088Y-109740526D01*
X133471090Y-109710043D01*
X133496327Y-109686080D01*
X133521247Y-109669355D01*
X133581171Y-109647097D01*
X133650911Y-109642076D01*
X133716600Y-109654752D01*
X133716600Y-109654752D01*
G37*
X133716600Y-109654752D02*
X133733948Y-109662334D01*
X133775356Y-109695128D01*
X133810765Y-109742547D01*
X133832664Y-109793151D01*
X133836229Y-109818098D01*
X133824279Y-109852927D01*
X133798067Y-109871357D01*
X133769964Y-109882516D01*
X133757095Y-109884572D01*
X133750829Y-109869649D01*
X133738456Y-109837175D01*
X133733028Y-109822502D01*
X133702590Y-109771744D01*
X133658520Y-109746427D01*
X133602010Y-109747206D01*
X133597825Y-109748203D01*
X133567655Y-109762507D01*
X133545476Y-109790393D01*
X133530327Y-109835287D01*
X133521250Y-109900615D01*
X133517286Y-109989804D01*
X133516914Y-110037261D01*
X133516730Y-110112071D01*
X133515522Y-110163069D01*
X133512309Y-110195471D01*
X133506109Y-110214495D01*
X133495940Y-110225356D01*
X133480819Y-110233272D01*
X133479946Y-110233670D01*
X133450828Y-110245981D01*
X133436403Y-110250514D01*
X133434186Y-110236809D01*
X133432289Y-110198925D01*
X133430847Y-110141715D01*
X133429998Y-110070027D01*
X133429829Y-110017565D01*
X133430692Y-109916047D01*
X133434070Y-109839032D01*
X133441142Y-109782023D01*
X133453088Y-109740526D01*
X133471090Y-109710043D01*
X133496327Y-109686080D01*
X133521247Y-109669355D01*
X133581171Y-109647097D01*
X133650911Y-109642076D01*
X133716600Y-109654752D01*
G36*
X134217595Y-109662966D02*
X134275021Y-109700497D01*
X134302719Y-109734096D01*
X134324662Y-109795064D01*
X134326405Y-109843308D01*
X134322457Y-109907816D01*
X134173686Y-109972934D01*
X134101349Y-110006202D01*
X134054084Y-110032964D01*
X134029507Y-110056144D01*
X134025237Y-110078667D01*
X134038889Y-110103455D01*
X134053943Y-110119886D01*
X134097746Y-110146235D01*
X134145389Y-110148081D01*
X134189145Y-110127546D01*
X134221289Y-110086752D01*
X134227038Y-110072347D01*
X134254576Y-110027356D01*
X134286258Y-110008182D01*
X134329714Y-109991779D01*
X134329714Y-110053966D01*
X134325872Y-110096283D01*
X134310823Y-110131969D01*
X134279280Y-110172943D01*
X134274592Y-110178267D01*
X134239506Y-110214720D01*
X134209347Y-110234283D01*
X134171615Y-110243283D01*
X134140335Y-110246230D01*
X134084385Y-110246965D01*
X134044555Y-110237660D01*
X134019708Y-110223846D01*
X133980656Y-110193467D01*
X133953625Y-110160613D01*
X133936517Y-110119294D01*
X133927238Y-110063521D01*
X133923693Y-109987305D01*
X133923410Y-109948622D01*
X133924372Y-109902247D01*
X134012007Y-109902247D01*
X134013023Y-109927126D01*
X134015556Y-109931200D01*
X134032274Y-109925665D01*
X134068249Y-109911017D01*
X134116331Y-109890190D01*
X134126386Y-109885714D01*
X134187152Y-109854814D01*
X134220632Y-109827657D01*
X134227990Y-109802220D01*
X134210391Y-109776481D01*
X134195856Y-109765109D01*
X134143410Y-109742364D01*
X134094322Y-109746122D01*
X134053227Y-109773884D01*
X134024758Y-109823152D01*
X134015631Y-109862257D01*
X134012007Y-109902247D01*
X133924372Y-109902247D01*
X133925285Y-109858249D01*
X133932196Y-109791384D01*
X133945884Y-109742695D01*
X133968096Y-109706849D01*
X134000574Y-109678513D01*
X134014733Y-109669355D01*
X134079053Y-109645507D01*
X134149473Y-109644006D01*
X134217595Y-109662966D01*
X134217595Y-109662966D01*
G37*
X134217595Y-109662966D02*
X134275021Y-109700497D01*
X134302719Y-109734096D01*
X134324662Y-109795064D01*
X134326405Y-109843308D01*
X134322457Y-109907816D01*
X134173686Y-109972934D01*
X134101349Y-110006202D01*
X134054084Y-110032964D01*
X134029507Y-110056144D01*
X134025237Y-110078667D01*
X134038889Y-110103455D01*
X134053943Y-110119886D01*
X134097746Y-110146235D01*
X134145389Y-110148081D01*
X134189145Y-110127546D01*
X134221289Y-110086752D01*
X134227038Y-110072347D01*
X134254576Y-110027356D01*
X134286258Y-110008182D01*
X134329714Y-109991779D01*
X134329714Y-110053966D01*
X134325872Y-110096283D01*
X134310823Y-110131969D01*
X134279280Y-110172943D01*
X134274592Y-110178267D01*
X134239506Y-110214720D01*
X134209347Y-110234283D01*
X134171615Y-110243283D01*
X134140335Y-110246230D01*
X134084385Y-110246965D01*
X134044555Y-110237660D01*
X134019708Y-110223846D01*
X133980656Y-110193467D01*
X133953625Y-110160613D01*
X133936517Y-110119294D01*
X133927238Y-110063521D01*
X133923693Y-109987305D01*
X133923410Y-109948622D01*
X133924372Y-109902247D01*
X134012007Y-109902247D01*
X134013023Y-109927126D01*
X134015556Y-109931200D01*
X134032274Y-109925665D01*
X134068249Y-109911017D01*
X134116331Y-109890190D01*
X134126386Y-109885714D01*
X134187152Y-109854814D01*
X134220632Y-109827657D01*
X134227990Y-109802220D01*
X134210391Y-109776481D01*
X134195856Y-109765109D01*
X134143410Y-109742364D01*
X134094322Y-109746122D01*
X134053227Y-109773884D01*
X134024758Y-109823152D01*
X134015631Y-109862257D01*
X134012007Y-109902247D01*
X133924372Y-109902247D01*
X133925285Y-109858249D01*
X133932196Y-109791384D01*
X133945884Y-109742695D01*
X133968096Y-109706849D01*
X134000574Y-109678513D01*
X134014733Y-109669355D01*
X134079053Y-109645507D01*
X134149473Y-109644006D01*
X134217595Y-109662966D01*
G36*
X131167910Y-104938348D02*
X131246454Y-104938778D01*
X131303298Y-104939942D01*
X131342105Y-104942207D01*
X131366538Y-104945940D01*
X131380262Y-104951506D01*
X131386940Y-104959273D01*
X131390236Y-104969605D01*
X131390556Y-104970943D01*
X131395562Y-104995079D01*
X131404829Y-105042701D01*
X131417392Y-105108741D01*
X131432287Y-105188128D01*
X131448551Y-105275796D01*
X131449119Y-105278875D01*
X131465410Y-105364789D01*
X131480652Y-105440696D01*
X131493861Y-105502045D01*
X131504054Y-105544282D01*
X131510248Y-105562855D01*
X131510543Y-105563184D01*
X131528788Y-105572253D01*
X131566405Y-105587367D01*
X131615271Y-105605262D01*
X131615543Y-105605358D01*
X131677093Y-105628493D01*
X131749657Y-105657965D01*
X131818057Y-105687597D01*
X131821294Y-105689062D01*
X131932702Y-105739626D01*
X132179399Y-105571160D01*
X132255077Y-105519803D01*
X132323631Y-105473889D01*
X132381088Y-105436030D01*
X132423476Y-105408837D01*
X132446825Y-105394921D01*
X132449042Y-105393889D01*
X132466010Y-105398484D01*
X132497701Y-105420655D01*
X132545352Y-105461447D01*
X132610198Y-105521905D01*
X132676397Y-105586227D01*
X132740214Y-105649612D01*
X132797329Y-105707451D01*
X132844305Y-105756175D01*
X132877703Y-105792210D01*
X132894085Y-105811984D01*
X132894694Y-105813002D01*
X132896505Y-105826572D01*
X132889683Y-105848733D01*
X132872540Y-105882478D01*
X132843393Y-105930800D01*
X132800555Y-105996692D01*
X132743448Y-106081517D01*
X132692766Y-106156177D01*
X132647461Y-106223140D01*
X132610150Y-106278516D01*
X132583452Y-106318420D01*
X132569985Y-106338962D01*
X132569137Y-106340356D01*
X132570781Y-106360038D01*
X132583245Y-106398293D01*
X132604048Y-106447889D01*
X132611462Y-106463728D01*
X132643814Y-106534290D01*
X132678328Y-106614353D01*
X132706365Y-106683629D01*
X132726568Y-106735045D01*
X132742615Y-106774119D01*
X132751888Y-106794541D01*
X132753041Y-106796114D01*
X132770096Y-106798721D01*
X132810298Y-106805863D01*
X132868302Y-106816523D01*
X132938763Y-106829685D01*
X133016335Y-106844333D01*
X133095672Y-106859449D01*
X133171431Y-106874018D01*
X133238264Y-106887022D01*
X133290828Y-106897445D01*
X133323776Y-106904270D01*
X133331857Y-106906199D01*
X133340205Y-106910962D01*
X133346506Y-106921718D01*
X133351045Y-106942098D01*
X133354104Y-106975734D01*
X133355967Y-107026255D01*
X133356918Y-107097292D01*
X133357240Y-107192476D01*
X133357257Y-107231492D01*
X133357257Y-107548799D01*
X133281057Y-107563839D01*
X133238663Y-107571995D01*
X133175400Y-107583899D01*
X133098962Y-107598116D01*
X133017043Y-107613210D01*
X132994400Y-107617355D01*
X132918806Y-107632053D01*
X132852953Y-107646505D01*
X132802366Y-107659375D01*
X132772574Y-107669322D01*
X132767612Y-107672287D01*
X132755426Y-107693283D01*
X132737953Y-107733967D01*
X132718577Y-107786322D01*
X132714734Y-107797600D01*
X132689339Y-107867523D01*
X132657817Y-107946418D01*
X132626969Y-108017266D01*
X132626817Y-108017595D01*
X132575447Y-108128733D01*
X132744399Y-108377253D01*
X132913352Y-108625772D01*
X132696429Y-108843058D01*
X132630819Y-108907726D01*
X132570979Y-108964733D01*
X132520267Y-109011033D01*
X132482046Y-109043584D01*
X132459675Y-109059343D01*
X132456466Y-109060343D01*
X132437626Y-109052469D01*
X132399180Y-109030578D01*
X132345330Y-108997267D01*
X132280276Y-108955131D01*
X132209940Y-108907943D01*
X132138555Y-108859810D01*
X132074908Y-108817928D01*
X132023041Y-108784871D01*
X131986995Y-108763218D01*
X131970867Y-108755543D01*
X131951189Y-108762037D01*
X131913875Y-108779150D01*
X131866621Y-108803326D01*
X131861612Y-108806013D01*
X131797977Y-108837927D01*
X131754341Y-108853579D01*
X131727202Y-108853745D01*
X131713057Y-108839204D01*
X131712975Y-108839000D01*
X131705905Y-108821779D01*
X131689042Y-108780899D01*
X131663695Y-108719525D01*
X131631171Y-108640819D01*
X131592778Y-108547947D01*
X131549822Y-108444072D01*
X131508222Y-108343502D01*
X131462504Y-108232516D01*
X131420526Y-108129703D01*
X131383548Y-108038215D01*
X131352827Y-107961201D01*
X131329622Y-107901815D01*
X131315190Y-107863209D01*
X131310743Y-107848800D01*
X131321896Y-107832272D01*
X131351069Y-107805930D01*
X131389971Y-107776887D01*
X131500757Y-107685039D01*
X131587351Y-107579759D01*
X131648716Y-107463266D01*
X131683815Y-107337776D01*
X131691608Y-107205507D01*
X131685943Y-107144457D01*
X131655078Y-107017795D01*
X131601920Y-106905941D01*
X131529767Y-106810001D01*
X131441917Y-106731076D01*
X131341665Y-106670270D01*
X131232310Y-106628687D01*
X131117147Y-106607428D01*
X130999475Y-106607599D01*
X130882590Y-106630301D01*
X130769789Y-106676638D01*
X130664369Y-106747713D01*
X130620368Y-106787911D01*
X130535979Y-106891129D01*
X130477222Y-107003925D01*
X130443704Y-107123010D01*
X130435035Y-107245095D01*
X130450823Y-107366893D01*
X130490678Y-107485116D01*
X130554207Y-107596475D01*
X130641021Y-107697684D01*
X130738029Y-107776887D01*
X130778437Y-107807162D01*
X130806982Y-107833219D01*
X130817257Y-107848825D01*
X130811877Y-107865843D01*
X130796575Y-107906500D01*
X130772612Y-107967642D01*
X130741244Y-108046119D01*
X130703732Y-108138780D01*
X130661333Y-108242472D01*
X130619663Y-108343526D01*
X130573690Y-108454607D01*
X130531107Y-108557541D01*
X130493221Y-108649165D01*
X130461340Y-108726316D01*
X130436771Y-108785831D01*
X130420820Y-108824544D01*
X130414910Y-108839000D01*
X130400948Y-108853685D01*
X130373940Y-108853642D01*
X130330413Y-108838099D01*
X130266890Y-108806284D01*
X130266388Y-108806013D01*
X130218560Y-108781323D01*
X130179897Y-108763338D01*
X130158095Y-108755614D01*
X130157133Y-108755543D01*
X130140721Y-108763378D01*
X130104487Y-108785165D01*
X130052474Y-108818328D01*
X129988725Y-108860291D01*
X129918060Y-108907943D01*
X129846116Y-108956191D01*
X129781274Y-108998151D01*
X129727735Y-109031227D01*
X129689697Y-109052821D01*
X129671533Y-109060343D01*
X129654808Y-109050457D01*
X129621180Y-109022826D01*
X129574010Y-108980495D01*
X129516658Y-108926505D01*
X129452484Y-108863899D01*
X129431497Y-108842983D01*
X129214499Y-108625623D01*
X129379668Y-108383220D01*
X129429864Y-108308781D01*
X129473919Y-108241972D01*
X129509362Y-108186665D01*
X129533719Y-108146729D01*
X129544522Y-108126036D01*
X129544838Y-108124563D01*
X129539143Y-108105058D01*
X129523826Y-108065822D01*
X129501537Y-108013430D01*
X129485893Y-107978355D01*
X129456641Y-107911201D01*
X129429094Y-107843358D01*
X129407737Y-107786034D01*
X129401935Y-107768572D01*
X129385452Y-107721938D01*
X129369340Y-107685905D01*
X129360490Y-107672287D01*
X129340960Y-107663952D01*
X129298334Y-107652137D01*
X129238145Y-107638181D01*
X129165922Y-107623422D01*
X129133600Y-107617355D01*
X129051522Y-107602273D01*
X128972795Y-107587669D01*
X128905109Y-107574980D01*
X128856160Y-107565642D01*
X128846943Y-107563839D01*
X128770743Y-107548799D01*
X128770743Y-107231492D01*
X128770914Y-107127154D01*
X128771616Y-107048213D01*
X128773134Y-106991038D01*
X128775749Y-106951999D01*
X128779746Y-106927465D01*
X128785409Y-106913805D01*
X128793020Y-106907389D01*
X128796143Y-106906199D01*
X128814978Y-106901980D01*
X128856588Y-106893562D01*
X128915630Y-106881961D01*
X128986757Y-106868195D01*
X129064625Y-106853280D01*
X129143887Y-106838232D01*
X129219198Y-106824069D01*
X129285213Y-106811806D01*
X129336587Y-106802461D01*
X129367975Y-106797050D01*
X129374959Y-106796114D01*
X129381285Y-106783596D01*
X129395290Y-106750246D01*
X129414355Y-106702377D01*
X129421634Y-106683629D01*
X129450996Y-106611195D01*
X129485571Y-106531170D01*
X129516537Y-106463728D01*
X129539323Y-106412159D01*
X129554482Y-106369785D01*
X129559542Y-106343834D01*
X129558736Y-106340356D01*
X129548041Y-106323936D01*
X129523620Y-106287417D01*
X129488095Y-106234687D01*
X129444087Y-106169635D01*
X129394217Y-106096151D01*
X129384356Y-106081645D01*
X129326492Y-105995704D01*
X129283956Y-105930261D01*
X129255054Y-105882304D01*
X129238090Y-105848820D01*
X129231367Y-105826795D01*
X129233190Y-105813217D01*
X129233236Y-105813131D01*
X129247586Y-105795297D01*
X129279323Y-105760817D01*
X129325010Y-105713268D01*
X129381204Y-105656222D01*
X129444468Y-105593255D01*
X129451602Y-105586227D01*
X129531330Y-105509020D01*
X129592857Y-105452330D01*
X129637421Y-105415110D01*
X129666257Y-105396315D01*
X129678958Y-105393889D01*
X129697494Y-105404471D01*
X129735961Y-105428916D01*
X129790386Y-105464612D01*
X129856798Y-105508947D01*
X129931225Y-105559311D01*
X129948601Y-105571160D01*
X130195297Y-105739626D01*
X130306706Y-105689062D01*
X130374457Y-105659595D01*
X130447183Y-105629959D01*
X130509703Y-105606330D01*
X130512457Y-105605358D01*
X130561360Y-105587457D01*
X130599057Y-105572320D01*
X130617425Y-105563210D01*
X130617456Y-105563184D01*
X130623285Y-105546717D01*
X130633192Y-105506219D01*
X130646195Y-105446242D01*
X130661309Y-105371340D01*
X130677552Y-105286064D01*
X130678881Y-105278875D01*
X130695175Y-105191014D01*
X130710133Y-105111260D01*
X130722791Y-105044681D01*
X130732186Y-104996347D01*
X130737354Y-104971325D01*
X130737444Y-104970943D01*
X130740589Y-104960299D01*
X130746704Y-104952262D01*
X130759453Y-104946467D01*
X130782500Y-104942547D01*
X130819509Y-104940135D01*
X130874144Y-104938865D01*
X130950067Y-104938371D01*
X131050944Y-104938286D01*
X131064000Y-104938286D01*
X131167910Y-104938348D01*
X131167910Y-104938348D01*
G37*
X131167910Y-104938348D02*
X131246454Y-104938778D01*
X131303298Y-104939942D01*
X131342105Y-104942207D01*
X131366538Y-104945940D01*
X131380262Y-104951506D01*
X131386940Y-104959273D01*
X131390236Y-104969605D01*
X131390556Y-104970943D01*
X131395562Y-104995079D01*
X131404829Y-105042701D01*
X131417392Y-105108741D01*
X131432287Y-105188128D01*
X131448551Y-105275796D01*
X131449119Y-105278875D01*
X131465410Y-105364789D01*
X131480652Y-105440696D01*
X131493861Y-105502045D01*
X131504054Y-105544282D01*
X131510248Y-105562855D01*
X131510543Y-105563184D01*
X131528788Y-105572253D01*
X131566405Y-105587367D01*
X131615271Y-105605262D01*
X131615543Y-105605358D01*
X131677093Y-105628493D01*
X131749657Y-105657965D01*
X131818057Y-105687597D01*
X131821294Y-105689062D01*
X131932702Y-105739626D01*
X132179399Y-105571160D01*
X132255077Y-105519803D01*
X132323631Y-105473889D01*
X132381088Y-105436030D01*
X132423476Y-105408837D01*
X132446825Y-105394921D01*
X132449042Y-105393889D01*
X132466010Y-105398484D01*
X132497701Y-105420655D01*
X132545352Y-105461447D01*
X132610198Y-105521905D01*
X132676397Y-105586227D01*
X132740214Y-105649612D01*
X132797329Y-105707451D01*
X132844305Y-105756175D01*
X132877703Y-105792210D01*
X132894085Y-105811984D01*
X132894694Y-105813002D01*
X132896505Y-105826572D01*
X132889683Y-105848733D01*
X132872540Y-105882478D01*
X132843393Y-105930800D01*
X132800555Y-105996692D01*
X132743448Y-106081517D01*
X132692766Y-106156177D01*
X132647461Y-106223140D01*
X132610150Y-106278516D01*
X132583452Y-106318420D01*
X132569985Y-106338962D01*
X132569137Y-106340356D01*
X132570781Y-106360038D01*
X132583245Y-106398293D01*
X132604048Y-106447889D01*
X132611462Y-106463728D01*
X132643814Y-106534290D01*
X132678328Y-106614353D01*
X132706365Y-106683629D01*
X132726568Y-106735045D01*
X132742615Y-106774119D01*
X132751888Y-106794541D01*
X132753041Y-106796114D01*
X132770096Y-106798721D01*
X132810298Y-106805863D01*
X132868302Y-106816523D01*
X132938763Y-106829685D01*
X133016335Y-106844333D01*
X133095672Y-106859449D01*
X133171431Y-106874018D01*
X133238264Y-106887022D01*
X133290828Y-106897445D01*
X133323776Y-106904270D01*
X133331857Y-106906199D01*
X133340205Y-106910962D01*
X133346506Y-106921718D01*
X133351045Y-106942098D01*
X133354104Y-106975734D01*
X133355967Y-107026255D01*
X133356918Y-107097292D01*
X133357240Y-107192476D01*
X133357257Y-107231492D01*
X133357257Y-107548799D01*
X133281057Y-107563839D01*
X133238663Y-107571995D01*
X133175400Y-107583899D01*
X133098962Y-107598116D01*
X133017043Y-107613210D01*
X132994400Y-107617355D01*
X132918806Y-107632053D01*
X132852953Y-107646505D01*
X132802366Y-107659375D01*
X132772574Y-107669322D01*
X132767612Y-107672287D01*
X132755426Y-107693283D01*
X132737953Y-107733967D01*
X132718577Y-107786322D01*
X132714734Y-107797600D01*
X132689339Y-107867523D01*
X132657817Y-107946418D01*
X132626969Y-108017266D01*
X132626817Y-108017595D01*
X132575447Y-108128733D01*
X132744399Y-108377253D01*
X132913352Y-108625772D01*
X132696429Y-108843058D01*
X132630819Y-108907726D01*
X132570979Y-108964733D01*
X132520267Y-109011033D01*
X132482046Y-109043584D01*
X132459675Y-109059343D01*
X132456466Y-109060343D01*
X132437626Y-109052469D01*
X132399180Y-109030578D01*
X132345330Y-108997267D01*
X132280276Y-108955131D01*
X132209940Y-108907943D01*
X132138555Y-108859810D01*
X132074908Y-108817928D01*
X132023041Y-108784871D01*
X131986995Y-108763218D01*
X131970867Y-108755543D01*
X131951189Y-108762037D01*
X131913875Y-108779150D01*
X131866621Y-108803326D01*
X131861612Y-108806013D01*
X131797977Y-108837927D01*
X131754341Y-108853579D01*
X131727202Y-108853745D01*
X131713057Y-108839204D01*
X131712975Y-108839000D01*
X131705905Y-108821779D01*
X131689042Y-108780899D01*
X131663695Y-108719525D01*
X131631171Y-108640819D01*
X131592778Y-108547947D01*
X131549822Y-108444072D01*
X131508222Y-108343502D01*
X131462504Y-108232516D01*
X131420526Y-108129703D01*
X131383548Y-108038215D01*
X131352827Y-107961201D01*
X131329622Y-107901815D01*
X131315190Y-107863209D01*
X131310743Y-107848800D01*
X131321896Y-107832272D01*
X131351069Y-107805930D01*
X131389971Y-107776887D01*
X131500757Y-107685039D01*
X131587351Y-107579759D01*
X131648716Y-107463266D01*
X131683815Y-107337776D01*
X131691608Y-107205507D01*
X131685943Y-107144457D01*
X131655078Y-107017795D01*
X131601920Y-106905941D01*
X131529767Y-106810001D01*
X131441917Y-106731076D01*
X131341665Y-106670270D01*
X131232310Y-106628687D01*
X131117147Y-106607428D01*
X130999475Y-106607599D01*
X130882590Y-106630301D01*
X130769789Y-106676638D01*
X130664369Y-106747713D01*
X130620368Y-106787911D01*
X130535979Y-106891129D01*
X130477222Y-107003925D01*
X130443704Y-107123010D01*
X130435035Y-107245095D01*
X130450823Y-107366893D01*
X130490678Y-107485116D01*
X130554207Y-107596475D01*
X130641021Y-107697684D01*
X130738029Y-107776887D01*
X130778437Y-107807162D01*
X130806982Y-107833219D01*
X130817257Y-107848825D01*
X130811877Y-107865843D01*
X130796575Y-107906500D01*
X130772612Y-107967642D01*
X130741244Y-108046119D01*
X130703732Y-108138780D01*
X130661333Y-108242472D01*
X130619663Y-108343526D01*
X130573690Y-108454607D01*
X130531107Y-108557541D01*
X130493221Y-108649165D01*
X130461340Y-108726316D01*
X130436771Y-108785831D01*
X130420820Y-108824544D01*
X130414910Y-108839000D01*
X130400948Y-108853685D01*
X130373940Y-108853642D01*
X130330413Y-108838099D01*
X130266890Y-108806284D01*
X130266388Y-108806013D01*
X130218560Y-108781323D01*
X130179897Y-108763338D01*
X130158095Y-108755614D01*
X130157133Y-108755543D01*
X130140721Y-108763378D01*
X130104487Y-108785165D01*
X130052474Y-108818328D01*
X129988725Y-108860291D01*
X129918060Y-108907943D01*
X129846116Y-108956191D01*
X129781274Y-108998151D01*
X129727735Y-109031227D01*
X129689697Y-109052821D01*
X129671533Y-109060343D01*
X129654808Y-109050457D01*
X129621180Y-109022826D01*
X129574010Y-108980495D01*
X129516658Y-108926505D01*
X129452484Y-108863899D01*
X129431497Y-108842983D01*
X129214499Y-108625623D01*
X129379668Y-108383220D01*
X129429864Y-108308781D01*
X129473919Y-108241972D01*
X129509362Y-108186665D01*
X129533719Y-108146729D01*
X129544522Y-108126036D01*
X129544838Y-108124563D01*
X129539143Y-108105058D01*
X129523826Y-108065822D01*
X129501537Y-108013430D01*
X129485893Y-107978355D01*
X129456641Y-107911201D01*
X129429094Y-107843358D01*
X129407737Y-107786034D01*
X129401935Y-107768572D01*
X129385452Y-107721938D01*
X129369340Y-107685905D01*
X129360490Y-107672287D01*
X129340960Y-107663952D01*
X129298334Y-107652137D01*
X129238145Y-107638181D01*
X129165922Y-107623422D01*
X129133600Y-107617355D01*
X129051522Y-107602273D01*
X128972795Y-107587669D01*
X128905109Y-107574980D01*
X128856160Y-107565642D01*
X128846943Y-107563839D01*
X128770743Y-107548799D01*
X128770743Y-107231492D01*
X128770914Y-107127154D01*
X128771616Y-107048213D01*
X128773134Y-106991038D01*
X128775749Y-106951999D01*
X128779746Y-106927465D01*
X128785409Y-106913805D01*
X128793020Y-106907389D01*
X128796143Y-106906199D01*
X128814978Y-106901980D01*
X128856588Y-106893562D01*
X128915630Y-106881961D01*
X128986757Y-106868195D01*
X129064625Y-106853280D01*
X129143887Y-106838232D01*
X129219198Y-106824069D01*
X129285213Y-106811806D01*
X129336587Y-106802461D01*
X129367975Y-106797050D01*
X129374959Y-106796114D01*
X129381285Y-106783596D01*
X129395290Y-106750246D01*
X129414355Y-106702377D01*
X129421634Y-106683629D01*
X129450996Y-106611195D01*
X129485571Y-106531170D01*
X129516537Y-106463728D01*
X129539323Y-106412159D01*
X129554482Y-106369785D01*
X129559542Y-106343834D01*
X129558736Y-106340356D01*
X129548041Y-106323936D01*
X129523620Y-106287417D01*
X129488095Y-106234687D01*
X129444087Y-106169635D01*
X129394217Y-106096151D01*
X129384356Y-106081645D01*
X129326492Y-105995704D01*
X129283956Y-105930261D01*
X129255054Y-105882304D01*
X129238090Y-105848820D01*
X129231367Y-105826795D01*
X129233190Y-105813217D01*
X129233236Y-105813131D01*
X129247586Y-105795297D01*
X129279323Y-105760817D01*
X129325010Y-105713268D01*
X129381204Y-105656222D01*
X129444468Y-105593255D01*
X129451602Y-105586227D01*
X129531330Y-105509020D01*
X129592857Y-105452330D01*
X129637421Y-105415110D01*
X129666257Y-105396315D01*
X129678958Y-105393889D01*
X129697494Y-105404471D01*
X129735961Y-105428916D01*
X129790386Y-105464612D01*
X129856798Y-105508947D01*
X129931225Y-105559311D01*
X129948601Y-105571160D01*
X130195297Y-105739626D01*
X130306706Y-105689062D01*
X130374457Y-105659595D01*
X130447183Y-105629959D01*
X130509703Y-105606330D01*
X130512457Y-105605358D01*
X130561360Y-105587457D01*
X130599057Y-105572320D01*
X130617425Y-105563210D01*
X130617456Y-105563184D01*
X130623285Y-105546717D01*
X130633192Y-105506219D01*
X130646195Y-105446242D01*
X130661309Y-105371340D01*
X130677552Y-105286064D01*
X130678881Y-105278875D01*
X130695175Y-105191014D01*
X130710133Y-105111260D01*
X130722791Y-105044681D01*
X130732186Y-104996347D01*
X130737354Y-104971325D01*
X130737444Y-104970943D01*
X130740589Y-104960299D01*
X130746704Y-104952262D01*
X130759453Y-104946467D01*
X130782500Y-104942547D01*
X130819509Y-104940135D01*
X130874144Y-104938865D01*
X130950067Y-104938371D01*
X131050944Y-104938286D01*
X131064000Y-104938286D01*
X131167910Y-104938348D01*
D12*
X144200000Y-121700000D02*
X145750000Y-121700000D01*
X144200000Y-123200000D02*
X144200000Y-121700000D01*
X145750000Y-123200000D02*
X144200000Y-123200000D01*
X145750000Y-121700000D02*
X145750000Y-123200000D01*
X146900000Y-105100000D02*
X146900000Y-106900000D01*
X146900000Y-106900000D02*
X143100000Y-106900000D01*
X143100000Y-106900000D02*
X143100000Y-105100000D01*
X143100000Y-105100000D02*
X146900000Y-105100000D01*
D13*
X144900000Y-105200000D02*
X144900000Y-106800000D01*
X145100000Y-105800000D02*
X145100000Y-106200000D01*
D12*
X144750000Y-108225000D02*
X145250000Y-108225000D01*
X145250000Y-107175000D02*
X144750000Y-107175000D01*
X147850000Y-102900000D02*
X147850000Y-103600000D01*
X146650000Y-103600000D02*
X146650000Y-102900000D01*
X160400000Y-109600000D02*
X160400000Y-108900000D01*
X161600000Y-108900000D02*
X161600000Y-109600000D01*
X151150000Y-92650000D02*
X151850000Y-92650000D01*
X151850000Y-93850000D02*
X151150000Y-93850000D01*
X158150000Y-108150000D02*
X158850000Y-108150000D01*
X158850000Y-109350000D02*
X158150000Y-109350000D01*
X152350000Y-109350000D02*
X151650000Y-109350000D01*
X151650000Y-108150000D02*
X152350000Y-108150000D01*
X147400000Y-122350000D02*
X147400000Y-121650000D01*
X148600000Y-121650000D02*
X148600000Y-122350000D01*
X148100000Y-106650000D02*
X148100000Y-107350000D01*
X146900000Y-107350000D02*
X146900000Y-106650000D01*
X146650000Y-97100000D02*
X146650000Y-96400000D01*
X147850000Y-96400000D02*
X147850000Y-97100000D01*
X147850000Y-99900000D02*
X147850000Y-100600000D01*
X146650000Y-100600000D02*
X146650000Y-99900000D01*
X162150000Y-97850000D02*
X162150000Y-97150000D01*
X163350000Y-97150000D02*
X163350000Y-97850000D01*
X128700000Y-118400000D02*
X128700000Y-121700000D01*
X131300000Y-118400000D02*
X131300000Y-121600000D01*
X130300000Y-122300000D02*
X129700000Y-122300000D01*
X129700000Y-117700000D02*
X130300000Y-117700000D01*
D10*
X151926190Y-69380952D02*
X152330952Y-69380952D01*
X152378571Y-69357142D01*
X152402380Y-69333333D01*
X152426190Y-69285714D01*
X152426190Y-69190476D01*
X152402380Y-69142857D01*
X152378571Y-69119047D01*
X152330952Y-69095238D01*
X151926190Y-69095238D01*
X152426190Y-68595238D02*
X152426190Y-68880952D01*
X152426190Y-68738095D02*
X151926190Y-68738095D01*
X151997619Y-68785714D01*
X152045238Y-68833333D01*
X152069047Y-68880952D01*
X131552380Y-69973809D02*
X131504761Y-69950000D01*
X131457142Y-69902380D01*
X131385714Y-69830952D01*
X131338095Y-69807142D01*
X131290476Y-69807142D01*
X131314285Y-69926190D02*
X131266666Y-69902380D01*
X131219047Y-69854761D01*
X131195238Y-69759523D01*
X131195238Y-69592857D01*
X131219047Y-69497619D01*
X131266666Y-69450000D01*
X131314285Y-69426190D01*
X131409523Y-69426190D01*
X131457142Y-69450000D01*
X131504761Y-69497619D01*
X131528571Y-69592857D01*
X131528571Y-69759523D01*
X131504761Y-69854761D01*
X131457142Y-69902380D01*
X131409523Y-69926190D01*
X131314285Y-69926190D01*
X132004761Y-69926190D02*
X131719047Y-69926190D01*
X131861904Y-69926190D02*
X131861904Y-69426190D01*
X131814285Y-69497619D01*
X131766666Y-69545238D01*
X131719047Y-69569047D01*
X144214285Y-82483333D02*
X144452380Y-82483333D01*
X144166666Y-82626190D02*
X144333333Y-82126190D01*
X144500000Y-82626190D01*
X144833333Y-82364285D02*
X144666666Y-82364285D01*
X144666666Y-82626190D02*
X144666666Y-82126190D01*
X144904761Y-82126190D01*
X145261904Y-82364285D02*
X145095238Y-82364285D01*
X145095238Y-82626190D02*
X145095238Y-82126190D01*
X145333333Y-82126190D01*
X145785714Y-82626190D02*
X145500000Y-82626190D01*
X145642857Y-82626190D02*
X145642857Y-82126190D01*
X145595238Y-82197619D01*
X145547619Y-82245238D01*
X145500000Y-82269047D01*
X144678571Y-95978571D02*
X144654761Y-96002380D01*
X144583333Y-96026190D01*
X144535714Y-96026190D01*
X144464285Y-96002380D01*
X144416666Y-95954761D01*
X144392857Y-95907142D01*
X144369047Y-95811904D01*
X144369047Y-95740476D01*
X144392857Y-95645238D01*
X144416666Y-95597619D01*
X144464285Y-95550000D01*
X144535714Y-95526190D01*
X144583333Y-95526190D01*
X144654761Y-95550000D01*
X144678571Y-95573809D01*
X145154761Y-96026190D02*
X144869047Y-96026190D01*
X145011904Y-96026190D02*
X145011904Y-95526190D01*
X144964285Y-95597619D01*
X144916666Y-95645238D01*
X144869047Y-95669047D01*
X145392857Y-96026190D02*
X145488095Y-96026190D01*
X145535714Y-96002380D01*
X145559523Y-95978571D01*
X145607142Y-95907142D01*
X145630952Y-95811904D01*
X145630952Y-95621428D01*
X145607142Y-95573809D01*
X145583333Y-95550000D01*
X145535714Y-95526190D01*
X145440476Y-95526190D01*
X145392857Y-95550000D01*
X145369047Y-95573809D01*
X145345238Y-95621428D01*
X145345238Y-95740476D01*
X145369047Y-95788095D01*
X145392857Y-95811904D01*
X145440476Y-95835714D01*
X145535714Y-95835714D01*
X145583333Y-95811904D01*
X145607142Y-95788095D01*
X145630952Y-95740476D01*
X139626190Y-92821428D02*
X139388095Y-92988095D01*
X139626190Y-93107142D02*
X139126190Y-93107142D01*
X139126190Y-92916666D01*
X139150000Y-92869047D01*
X139173809Y-92845238D01*
X139221428Y-92821428D01*
X139292857Y-92821428D01*
X139340476Y-92845238D01*
X139364285Y-92869047D01*
X139388095Y-92916666D01*
X139388095Y-93107142D01*
X139626190Y-92345238D02*
X139626190Y-92630952D01*
X139626190Y-92488095D02*
X139126190Y-92488095D01*
X139197619Y-92535714D01*
X139245238Y-92583333D01*
X139269047Y-92630952D01*
X139292857Y-91916666D02*
X139626190Y-91916666D01*
X139102380Y-92035714D02*
X139459523Y-92154761D01*
X139459523Y-91845238D01*
X136726190Y-95821428D02*
X136488095Y-95988095D01*
X136726190Y-96107142D02*
X136226190Y-96107142D01*
X136226190Y-95916666D01*
X136250000Y-95869047D01*
X136273809Y-95845238D01*
X136321428Y-95821428D01*
X136392857Y-95821428D01*
X136440476Y-95845238D01*
X136464285Y-95869047D01*
X136488095Y-95916666D01*
X136488095Y-96107142D01*
X136726190Y-95345238D02*
X136726190Y-95630952D01*
X136726190Y-95488095D02*
X136226190Y-95488095D01*
X136297619Y-95535714D01*
X136345238Y-95583333D01*
X136369047Y-95630952D01*
X136226190Y-95178571D02*
X136226190Y-94869047D01*
X136416666Y-95035714D01*
X136416666Y-94964285D01*
X136440476Y-94916666D01*
X136464285Y-94892857D01*
X136511904Y-94869047D01*
X136630952Y-94869047D01*
X136678571Y-94892857D01*
X136702380Y-94916666D01*
X136726190Y-94964285D01*
X136726190Y-95107142D01*
X136702380Y-95154761D01*
X136678571Y-95178571D01*
X136278571Y-93921428D02*
X136302380Y-93945238D01*
X136326190Y-94016666D01*
X136326190Y-94064285D01*
X136302380Y-94135714D01*
X136254761Y-94183333D01*
X136207142Y-94207142D01*
X136111904Y-94230952D01*
X136040476Y-94230952D01*
X135945238Y-94207142D01*
X135897619Y-94183333D01*
X135850000Y-94135714D01*
X135826190Y-94064285D01*
X135826190Y-94016666D01*
X135850000Y-93945238D01*
X135873809Y-93921428D01*
X135873809Y-93730952D02*
X135850000Y-93707142D01*
X135826190Y-93659523D01*
X135826190Y-93540476D01*
X135850000Y-93492857D01*
X135873809Y-93469047D01*
X135921428Y-93445238D01*
X135969047Y-93445238D01*
X136040476Y-93469047D01*
X136326190Y-93754761D01*
X136326190Y-93445238D01*
X135826190Y-93135714D02*
X135826190Y-93088095D01*
X135850000Y-93040476D01*
X135873809Y-93016666D01*
X135921428Y-92992857D01*
X136016666Y-92969047D01*
X136135714Y-92969047D01*
X136230952Y-92992857D01*
X136278571Y-93016666D01*
X136302380Y-93040476D01*
X136326190Y-93088095D01*
X136326190Y-93135714D01*
X136302380Y-93183333D01*
X136278571Y-93207142D01*
X136230952Y-93230952D01*
X136135714Y-93254761D01*
X136016666Y-93254761D01*
X135921428Y-93230952D01*
X135873809Y-93207142D01*
X135850000Y-93183333D01*
X135826190Y-93135714D01*
X142845238Y-99976190D02*
X143178571Y-100476190D01*
X143178571Y-99976190D02*
X142845238Y-100476190D01*
X143630952Y-100476190D02*
X143345238Y-100476190D01*
X143488095Y-100476190D02*
X143488095Y-99976190D01*
X143440476Y-100047619D01*
X143392857Y-100095238D01*
X143345238Y-100119047D01*
X153978571Y-91521428D02*
X154002380Y-91545238D01*
X154026190Y-91616666D01*
X154026190Y-91664285D01*
X154002380Y-91735714D01*
X153954761Y-91783333D01*
X153907142Y-91807142D01*
X153811904Y-91830952D01*
X153740476Y-91830952D01*
X153645238Y-91807142D01*
X153597619Y-91783333D01*
X153550000Y-91735714D01*
X153526190Y-91664285D01*
X153526190Y-91616666D01*
X153550000Y-91545238D01*
X153573809Y-91521428D01*
X154026190Y-91045238D02*
X154026190Y-91330952D01*
X154026190Y-91188095D02*
X153526190Y-91188095D01*
X153597619Y-91235714D01*
X153645238Y-91283333D01*
X153669047Y-91330952D01*
X153526190Y-90616666D02*
X153526190Y-90711904D01*
X153550000Y-90759523D01*
X153573809Y-90783333D01*
X153645238Y-90830952D01*
X153740476Y-90854761D01*
X153930952Y-90854761D01*
X153978571Y-90830952D01*
X154002380Y-90807142D01*
X154026190Y-90759523D01*
X154026190Y-90664285D01*
X154002380Y-90616666D01*
X153978571Y-90592857D01*
X153930952Y-90569047D01*
X153811904Y-90569047D01*
X153764285Y-90592857D01*
X153740476Y-90616666D01*
X153716666Y-90664285D01*
X153716666Y-90759523D01*
X153740476Y-90807142D01*
X153764285Y-90830952D01*
X153811904Y-90854761D01*
X148869047Y-95226190D02*
X148869047Y-95630952D01*
X148892857Y-95678571D01*
X148916666Y-95702380D01*
X148964285Y-95726190D01*
X149059523Y-95726190D01*
X149107142Y-95702380D01*
X149130952Y-95678571D01*
X149154761Y-95630952D01*
X149154761Y-95226190D01*
X149345238Y-95226190D02*
X149654761Y-95226190D01*
X149488095Y-95416666D01*
X149559523Y-95416666D01*
X149607142Y-95440476D01*
X149630952Y-95464285D01*
X149654761Y-95511904D01*
X149654761Y-95630952D01*
X149630952Y-95678571D01*
X149607142Y-95702380D01*
X149559523Y-95726190D01*
X149416666Y-95726190D01*
X149369047Y-95702380D01*
X149345238Y-95678571D01*
X157928571Y-124021428D02*
X157952380Y-124045238D01*
X157976190Y-124116666D01*
X157976190Y-124164285D01*
X157952380Y-124235714D01*
X157904761Y-124283333D01*
X157857142Y-124307142D01*
X157761904Y-124330952D01*
X157690476Y-124330952D01*
X157595238Y-124307142D01*
X157547619Y-124283333D01*
X157500000Y-124235714D01*
X157476190Y-124164285D01*
X157476190Y-124116666D01*
X157500000Y-124045238D01*
X157523809Y-124021428D01*
X157976190Y-123545238D02*
X157976190Y-123830952D01*
X157976190Y-123688095D02*
X157476190Y-123688095D01*
X157547619Y-123735714D01*
X157595238Y-123783333D01*
X157619047Y-123830952D01*
X157476190Y-123378571D02*
X157476190Y-123045238D01*
X157976190Y-123259523D01*
X141619047Y-91726190D02*
X141619047Y-92130952D01*
X141642857Y-92178571D01*
X141666666Y-92202380D01*
X141714285Y-92226190D01*
X141809523Y-92226190D01*
X141857142Y-92202380D01*
X141880952Y-92178571D01*
X141904761Y-92130952D01*
X141904761Y-91726190D01*
X142380952Y-91726190D02*
X142142857Y-91726190D01*
X142119047Y-91964285D01*
X142142857Y-91940476D01*
X142190476Y-91916666D01*
X142309523Y-91916666D01*
X142357142Y-91940476D01*
X142380952Y-91964285D01*
X142404761Y-92011904D01*
X142404761Y-92130952D01*
X142380952Y-92178571D01*
X142357142Y-92202380D01*
X142309523Y-92226190D01*
X142190476Y-92226190D01*
X142142857Y-92202380D01*
X142119047Y-92178571D01*
X146178571Y-74083333D02*
X146202380Y-74107142D01*
X146226190Y-74178571D01*
X146226190Y-74226190D01*
X146202380Y-74297619D01*
X146154761Y-74345238D01*
X146107142Y-74369047D01*
X146011904Y-74392857D01*
X145940476Y-74392857D01*
X145845238Y-74369047D01*
X145797619Y-74345238D01*
X145750000Y-74297619D01*
X145726190Y-74226190D01*
X145726190Y-74178571D01*
X145750000Y-74107142D01*
X145773809Y-74083333D01*
X146226190Y-73607142D02*
X146226190Y-73892857D01*
X146226190Y-73750000D02*
X145726190Y-73750000D01*
X145797619Y-73797619D01*
X145845238Y-73845238D01*
X145869047Y-73892857D01*
X156316666Y-67578571D02*
X156292857Y-67602380D01*
X156221428Y-67626190D01*
X156173809Y-67626190D01*
X156102380Y-67602380D01*
X156054761Y-67554761D01*
X156030952Y-67507142D01*
X156007142Y-67411904D01*
X156007142Y-67340476D01*
X156030952Y-67245238D01*
X156054761Y-67197619D01*
X156102380Y-67150000D01*
X156173809Y-67126190D01*
X156221428Y-67126190D01*
X156292857Y-67150000D01*
X156316666Y-67173809D01*
X156507142Y-67173809D02*
X156530952Y-67150000D01*
X156578571Y-67126190D01*
X156697619Y-67126190D01*
X156745238Y-67150000D01*
X156769047Y-67173809D01*
X156792857Y-67221428D01*
X156792857Y-67269047D01*
X156769047Y-67340476D01*
X156483333Y-67626190D01*
X156792857Y-67626190D01*
X160478571Y-75583333D02*
X160502380Y-75607142D01*
X160526190Y-75678571D01*
X160526190Y-75726190D01*
X160502380Y-75797619D01*
X160454761Y-75845238D01*
X160407142Y-75869047D01*
X160311904Y-75892857D01*
X160240476Y-75892857D01*
X160145238Y-75869047D01*
X160097619Y-75845238D01*
X160050000Y-75797619D01*
X160026190Y-75726190D01*
X160026190Y-75678571D01*
X160050000Y-75607142D01*
X160073809Y-75583333D01*
X160026190Y-75416666D02*
X160026190Y-75107142D01*
X160216666Y-75273809D01*
X160216666Y-75202380D01*
X160240476Y-75154761D01*
X160264285Y-75130952D01*
X160311904Y-75107142D01*
X160430952Y-75107142D01*
X160478571Y-75130952D01*
X160502380Y-75154761D01*
X160526190Y-75202380D01*
X160526190Y-75345238D01*
X160502380Y-75392857D01*
X160478571Y-75416666D01*
X143928571Y-103333333D02*
X143952380Y-103357142D01*
X143976190Y-103428571D01*
X143976190Y-103476190D01*
X143952380Y-103547619D01*
X143904761Y-103595238D01*
X143857142Y-103619047D01*
X143761904Y-103642857D01*
X143690476Y-103642857D01*
X143595238Y-103619047D01*
X143547619Y-103595238D01*
X143500000Y-103547619D01*
X143476190Y-103476190D01*
X143476190Y-103428571D01*
X143500000Y-103357142D01*
X143523809Y-103333333D01*
X143476190Y-102904761D02*
X143476190Y-103000000D01*
X143500000Y-103047619D01*
X143523809Y-103071428D01*
X143595238Y-103119047D01*
X143690476Y-103142857D01*
X143880952Y-103142857D01*
X143928571Y-103119047D01*
X143952380Y-103095238D01*
X143976190Y-103047619D01*
X143976190Y-102952380D01*
X143952380Y-102904761D01*
X143928571Y-102880952D01*
X143880952Y-102857142D01*
X143761904Y-102857142D01*
X143714285Y-102880952D01*
X143690476Y-102904761D01*
X143666666Y-102952380D01*
X143666666Y-103047619D01*
X143690476Y-103095238D01*
X143714285Y-103119047D01*
X143761904Y-103142857D01*
X164178571Y-106083333D02*
X164202380Y-106107142D01*
X164226190Y-106178571D01*
X164226190Y-106226190D01*
X164202380Y-106297619D01*
X164154761Y-106345238D01*
X164107142Y-106369047D01*
X164011904Y-106392857D01*
X163940476Y-106392857D01*
X163845238Y-106369047D01*
X163797619Y-106345238D01*
X163750000Y-106297619D01*
X163726190Y-106226190D01*
X163726190Y-106178571D01*
X163750000Y-106107142D01*
X163773809Y-106083333D01*
X163726190Y-105916666D02*
X163726190Y-105583333D01*
X164226190Y-105797619D01*
X166478571Y-97821428D02*
X166502380Y-97845238D01*
X166526190Y-97916666D01*
X166526190Y-97964285D01*
X166502380Y-98035714D01*
X166454761Y-98083333D01*
X166407142Y-98107142D01*
X166311904Y-98130952D01*
X166240476Y-98130952D01*
X166145238Y-98107142D01*
X166097619Y-98083333D01*
X166050000Y-98035714D01*
X166026190Y-97964285D01*
X166026190Y-97916666D01*
X166050000Y-97845238D01*
X166073809Y-97821428D01*
X166526190Y-97345238D02*
X166526190Y-97630952D01*
X166526190Y-97488095D02*
X166026190Y-97488095D01*
X166097619Y-97535714D01*
X166145238Y-97583333D01*
X166169047Y-97630952D01*
X166026190Y-97035714D02*
X166026190Y-96988095D01*
X166050000Y-96940476D01*
X166073809Y-96916666D01*
X166121428Y-96892857D01*
X166216666Y-96869047D01*
X166335714Y-96869047D01*
X166430952Y-96892857D01*
X166478571Y-96916666D01*
X166502380Y-96940476D01*
X166526190Y-96988095D01*
X166526190Y-97035714D01*
X166502380Y-97083333D01*
X166478571Y-97107142D01*
X166430952Y-97130952D01*
X166335714Y-97154761D01*
X166216666Y-97154761D01*
X166121428Y-97130952D01*
X166073809Y-97107142D01*
X166050000Y-97083333D01*
X166026190Y-97035714D01*
X137928571Y-124071428D02*
X137952380Y-124095238D01*
X137976190Y-124166666D01*
X137976190Y-124214285D01*
X137952380Y-124285714D01*
X137904761Y-124333333D01*
X137857142Y-124357142D01*
X137761904Y-124380952D01*
X137690476Y-124380952D01*
X137595238Y-124357142D01*
X137547619Y-124333333D01*
X137500000Y-124285714D01*
X137476190Y-124214285D01*
X137476190Y-124166666D01*
X137500000Y-124095238D01*
X137523809Y-124071428D01*
X137976190Y-123595238D02*
X137976190Y-123880952D01*
X137976190Y-123738095D02*
X137476190Y-123738095D01*
X137547619Y-123785714D01*
X137595238Y-123833333D01*
X137619047Y-123880952D01*
X137476190Y-123142857D02*
X137476190Y-123380952D01*
X137714285Y-123404761D01*
X137690476Y-123380952D01*
X137666666Y-123333333D01*
X137666666Y-123214285D01*
X137690476Y-123166666D01*
X137714285Y-123142857D01*
X137761904Y-123119047D01*
X137880952Y-123119047D01*
X137928571Y-123142857D01*
X137952380Y-123166666D01*
X137976190Y-123214285D01*
X137976190Y-123333333D01*
X137952380Y-123380952D01*
X137928571Y-123404761D01*
X126130952Y-72326190D02*
X126130952Y-71826190D01*
X126250000Y-71826190D01*
X126321428Y-71850000D01*
X126369047Y-71897619D01*
X126392857Y-71945238D01*
X126416666Y-72040476D01*
X126416666Y-72111904D01*
X126392857Y-72207142D01*
X126369047Y-72254761D01*
X126321428Y-72302380D01*
X126250000Y-72326190D01*
X126130952Y-72326190D01*
X126892857Y-72326190D02*
X126607142Y-72326190D01*
X126750000Y-72326190D02*
X126750000Y-71826190D01*
X126702380Y-71897619D01*
X126654761Y-71945238D01*
X126607142Y-71969047D01*
X129469047Y-76126190D02*
X129469047Y-75626190D01*
X129754761Y-76126190D02*
X129540476Y-75840476D01*
X129754761Y-75626190D02*
X129469047Y-75911904D01*
X123280952Y-75983333D02*
X123519047Y-75983333D01*
X123233333Y-76126190D02*
X123400000Y-75626190D01*
X123566666Y-76126190D01*
X142630952Y-66726190D02*
X142630952Y-66226190D01*
X142750000Y-66226190D01*
X142821428Y-66250000D01*
X142869047Y-66297619D01*
X142892857Y-66345238D01*
X142916666Y-66440476D01*
X142916666Y-66511904D01*
X142892857Y-66607142D01*
X142869047Y-66654761D01*
X142821428Y-66702380D01*
X142750000Y-66726190D01*
X142630952Y-66726190D01*
X143107142Y-66273809D02*
X143130952Y-66250000D01*
X143178571Y-66226190D01*
X143297619Y-66226190D01*
X143345238Y-66250000D01*
X143369047Y-66273809D01*
X143392857Y-66321428D01*
X143392857Y-66369047D01*
X143369047Y-66440476D01*
X143083333Y-66726190D01*
X143392857Y-66726190D01*
X144626190Y-74630952D02*
X144126190Y-74630952D01*
X144626190Y-74345238D02*
X144340476Y-74559523D01*
X144126190Y-74345238D02*
X144411904Y-74630952D01*
X144483333Y-68619047D02*
X144483333Y-68380952D01*
X144626190Y-68666666D02*
X144126190Y-68500000D01*
X144626190Y-68333333D01*
X152230952Y-75826190D02*
X152230952Y-75326190D01*
X152350000Y-75326190D01*
X152421428Y-75350000D01*
X152469047Y-75397619D01*
X152492857Y-75445238D01*
X152516666Y-75540476D01*
X152516666Y-75611904D01*
X152492857Y-75707142D01*
X152469047Y-75754761D01*
X152421428Y-75802380D01*
X152350000Y-75826190D01*
X152230952Y-75826190D01*
X152683333Y-75326190D02*
X152992857Y-75326190D01*
X152826190Y-75516666D01*
X152897619Y-75516666D01*
X152945238Y-75540476D01*
X152969047Y-75564285D01*
X152992857Y-75611904D01*
X152992857Y-75730952D01*
X152969047Y-75778571D01*
X152945238Y-75802380D01*
X152897619Y-75826190D01*
X152754761Y-75826190D01*
X152707142Y-75802380D01*
X152683333Y-75778571D01*
X158630952Y-117476190D02*
X158630952Y-116976190D01*
X158750000Y-116976190D01*
X158821428Y-117000000D01*
X158869047Y-117047619D01*
X158892857Y-117095238D01*
X158916666Y-117190476D01*
X158916666Y-117261904D01*
X158892857Y-117357142D01*
X158869047Y-117404761D01*
X158821428Y-117452380D01*
X158750000Y-117476190D01*
X158630952Y-117476190D01*
X159345238Y-117142857D02*
X159345238Y-117476190D01*
X159226190Y-116952380D02*
X159107142Y-117309523D01*
X159416666Y-117309523D01*
X160880952Y-117476190D02*
X160880952Y-116976190D01*
X161000000Y-116976190D01*
X161071428Y-117000000D01*
X161119047Y-117047619D01*
X161142857Y-117095238D01*
X161166666Y-117190476D01*
X161166666Y-117261904D01*
X161142857Y-117357142D01*
X161119047Y-117404761D01*
X161071428Y-117452380D01*
X161000000Y-117476190D01*
X160880952Y-117476190D01*
X161619047Y-116976190D02*
X161380952Y-116976190D01*
X161357142Y-117214285D01*
X161380952Y-117190476D01*
X161428571Y-117166666D01*
X161547619Y-117166666D01*
X161595238Y-117190476D01*
X161619047Y-117214285D01*
X161642857Y-117261904D01*
X161642857Y-117380952D01*
X161619047Y-117428571D01*
X161595238Y-117452380D01*
X161547619Y-117476190D01*
X161428571Y-117476190D01*
X161380952Y-117452380D01*
X161357142Y-117428571D01*
X159916666Y-67426190D02*
X159678571Y-67426190D01*
X159678571Y-66926190D01*
X160345238Y-67426190D02*
X160059523Y-67426190D01*
X160202380Y-67426190D02*
X160202380Y-66926190D01*
X160154761Y-66997619D01*
X160107142Y-67045238D01*
X160059523Y-67069047D01*
X138926190Y-68583333D02*
X138688095Y-68750000D01*
X138926190Y-68869047D02*
X138426190Y-68869047D01*
X138426190Y-68678571D01*
X138450000Y-68630952D01*
X138473809Y-68607142D01*
X138521428Y-68583333D01*
X138592857Y-68583333D01*
X138640476Y-68607142D01*
X138664285Y-68630952D01*
X138688095Y-68678571D01*
X138688095Y-68869047D01*
X138926190Y-68107142D02*
X138926190Y-68392857D01*
X138926190Y-68250000D02*
X138426190Y-68250000D01*
X138497619Y-68297619D01*
X138545238Y-68345238D01*
X138569047Y-68392857D01*
X146916666Y-69626190D02*
X146750000Y-69388095D01*
X146630952Y-69626190D02*
X146630952Y-69126190D01*
X146821428Y-69126190D01*
X146869047Y-69150000D01*
X146892857Y-69173809D01*
X146916666Y-69221428D01*
X146916666Y-69292857D01*
X146892857Y-69340476D01*
X146869047Y-69364285D01*
X146821428Y-69388095D01*
X146630952Y-69388095D01*
X147107142Y-69173809D02*
X147130952Y-69150000D01*
X147178571Y-69126190D01*
X147297619Y-69126190D01*
X147345238Y-69150000D01*
X147369047Y-69173809D01*
X147392857Y-69221428D01*
X147392857Y-69269047D01*
X147369047Y-69340476D01*
X147083333Y-69626190D01*
X147392857Y-69626190D01*
X151726190Y-66083333D02*
X151488095Y-66250000D01*
X151726190Y-66369047D02*
X151226190Y-66369047D01*
X151226190Y-66178571D01*
X151250000Y-66130952D01*
X151273809Y-66107142D01*
X151321428Y-66083333D01*
X151392857Y-66083333D01*
X151440476Y-66107142D01*
X151464285Y-66130952D01*
X151488095Y-66178571D01*
X151488095Y-66369047D01*
X151226190Y-65916666D02*
X151226190Y-65607142D01*
X151416666Y-65773809D01*
X151416666Y-65702380D01*
X151440476Y-65654761D01*
X151464285Y-65630952D01*
X151511904Y-65607142D01*
X151630952Y-65607142D01*
X151678571Y-65630952D01*
X151702380Y-65654761D01*
X151726190Y-65702380D01*
X151726190Y-65845238D01*
X151702380Y-65892857D01*
X151678571Y-65916666D01*
X146826190Y-66083333D02*
X146588095Y-66250000D01*
X146826190Y-66369047D02*
X146326190Y-66369047D01*
X146326190Y-66178571D01*
X146350000Y-66130952D01*
X146373809Y-66107142D01*
X146421428Y-66083333D01*
X146492857Y-66083333D01*
X146540476Y-66107142D01*
X146564285Y-66130952D01*
X146588095Y-66178571D01*
X146588095Y-66369047D01*
X146492857Y-65654761D02*
X146826190Y-65654761D01*
X146302380Y-65773809D02*
X146659523Y-65892857D01*
X146659523Y-65583333D01*
X165916666Y-110726190D02*
X165750000Y-110488095D01*
X165630952Y-110726190D02*
X165630952Y-110226190D01*
X165821428Y-110226190D01*
X165869047Y-110250000D01*
X165892857Y-110273809D01*
X165916666Y-110321428D01*
X165916666Y-110392857D01*
X165892857Y-110440476D01*
X165869047Y-110464285D01*
X165821428Y-110488095D01*
X165630952Y-110488095D01*
X166369047Y-110226190D02*
X166130952Y-110226190D01*
X166107142Y-110464285D01*
X166130952Y-110440476D01*
X166178571Y-110416666D01*
X166297619Y-110416666D01*
X166345238Y-110440476D01*
X166369047Y-110464285D01*
X166392857Y-110511904D01*
X166392857Y-110630952D01*
X166369047Y-110678571D01*
X166345238Y-110702380D01*
X166297619Y-110726190D01*
X166178571Y-110726190D01*
X166130952Y-110702380D01*
X166107142Y-110678571D01*
X167416666Y-110726190D02*
X167250000Y-110488095D01*
X167130952Y-110726190D02*
X167130952Y-110226190D01*
X167321428Y-110226190D01*
X167369047Y-110250000D01*
X167392857Y-110273809D01*
X167416666Y-110321428D01*
X167416666Y-110392857D01*
X167392857Y-110440476D01*
X167369047Y-110464285D01*
X167321428Y-110488095D01*
X167130952Y-110488095D01*
X167845238Y-110226190D02*
X167750000Y-110226190D01*
X167702380Y-110250000D01*
X167678571Y-110273809D01*
X167630952Y-110345238D01*
X167607142Y-110440476D01*
X167607142Y-110630952D01*
X167630952Y-110678571D01*
X167654761Y-110702380D01*
X167702380Y-110726190D01*
X167797619Y-110726190D01*
X167845238Y-110702380D01*
X167869047Y-110678571D01*
X167892857Y-110630952D01*
X167892857Y-110511904D01*
X167869047Y-110464285D01*
X167845238Y-110440476D01*
X167797619Y-110416666D01*
X167702380Y-110416666D01*
X167654761Y-110440476D01*
X167630952Y-110464285D01*
X167607142Y-110511904D01*
X158916666Y-123226190D02*
X158750000Y-122988095D01*
X158630952Y-123226190D02*
X158630952Y-122726190D01*
X158821428Y-122726190D01*
X158869047Y-122750000D01*
X158892857Y-122773809D01*
X158916666Y-122821428D01*
X158916666Y-122892857D01*
X158892857Y-122940476D01*
X158869047Y-122964285D01*
X158821428Y-122988095D01*
X158630952Y-122988095D01*
X159083333Y-122726190D02*
X159416666Y-122726190D01*
X159202380Y-123226190D01*
X161166666Y-123226190D02*
X161000000Y-122988095D01*
X160880952Y-123226190D02*
X160880952Y-122726190D01*
X161071428Y-122726190D01*
X161119047Y-122750000D01*
X161142857Y-122773809D01*
X161166666Y-122821428D01*
X161166666Y-122892857D01*
X161142857Y-122940476D01*
X161119047Y-122964285D01*
X161071428Y-122988095D01*
X160880952Y-122988095D01*
X161452380Y-122940476D02*
X161404761Y-122916666D01*
X161380952Y-122892857D01*
X161357142Y-122845238D01*
X161357142Y-122821428D01*
X161380952Y-122773809D01*
X161404761Y-122750000D01*
X161452380Y-122726190D01*
X161547619Y-122726190D01*
X161595238Y-122750000D01*
X161619047Y-122773809D01*
X161642857Y-122821428D01*
X161642857Y-122845238D01*
X161619047Y-122892857D01*
X161595238Y-122916666D01*
X161547619Y-122940476D01*
X161452380Y-122940476D01*
X161404761Y-122964285D01*
X161380952Y-122988095D01*
X161357142Y-123035714D01*
X161357142Y-123130952D01*
X161380952Y-123178571D01*
X161404761Y-123202380D01*
X161452380Y-123226190D01*
X161547619Y-123226190D01*
X161595238Y-123202380D01*
X161619047Y-123178571D01*
X161642857Y-123130952D01*
X161642857Y-123035714D01*
X161619047Y-122988095D01*
X161595238Y-122964285D01*
X161547619Y-122940476D01*
X132726190Y-123833333D02*
X132488095Y-124000000D01*
X132726190Y-124119047D02*
X132226190Y-124119047D01*
X132226190Y-123928571D01*
X132250000Y-123880952D01*
X132273809Y-123857142D01*
X132321428Y-123833333D01*
X132392857Y-123833333D01*
X132440476Y-123857142D01*
X132464285Y-123880952D01*
X132488095Y-123928571D01*
X132488095Y-124119047D01*
X132726190Y-123595238D02*
X132726190Y-123500000D01*
X132702380Y-123452380D01*
X132678571Y-123428571D01*
X132607142Y-123380952D01*
X132511904Y-123357142D01*
X132321428Y-123357142D01*
X132273809Y-123380952D01*
X132250000Y-123404761D01*
X132226190Y-123452380D01*
X132226190Y-123547619D01*
X132250000Y-123595238D01*
X132273809Y-123619047D01*
X132321428Y-123642857D01*
X132440476Y-123642857D01*
X132488095Y-123619047D01*
X132511904Y-123595238D01*
X132535714Y-123547619D01*
X132535714Y-123452380D01*
X132511904Y-123404761D01*
X132488095Y-123380952D01*
X132440476Y-123357142D01*
X148178571Y-111826190D02*
X148011904Y-111588095D01*
X147892857Y-111826190D02*
X147892857Y-111326190D01*
X148083333Y-111326190D01*
X148130952Y-111350000D01*
X148154761Y-111373809D01*
X148178571Y-111421428D01*
X148178571Y-111492857D01*
X148154761Y-111540476D01*
X148130952Y-111564285D01*
X148083333Y-111588095D01*
X147892857Y-111588095D01*
X148654761Y-111826190D02*
X148369047Y-111826190D01*
X148511904Y-111826190D02*
X148511904Y-111326190D01*
X148464285Y-111397619D01*
X148416666Y-111445238D01*
X148369047Y-111469047D01*
X148964285Y-111326190D02*
X149011904Y-111326190D01*
X149059523Y-111350000D01*
X149083333Y-111373809D01*
X149107142Y-111421428D01*
X149130952Y-111516666D01*
X149130952Y-111635714D01*
X149107142Y-111730952D01*
X149083333Y-111778571D01*
X149059523Y-111802380D01*
X149011904Y-111826190D01*
X148964285Y-111826190D01*
X148916666Y-111802380D01*
X148892857Y-111778571D01*
X148869047Y-111730952D01*
X148845238Y-111635714D01*
X148845238Y-111516666D01*
X148869047Y-111421428D01*
X148892857Y-111373809D01*
X148916666Y-111350000D01*
X148964285Y-111326190D01*
X151678571Y-111826190D02*
X151511904Y-111588095D01*
X151392857Y-111826190D02*
X151392857Y-111326190D01*
X151583333Y-111326190D01*
X151630952Y-111350000D01*
X151654761Y-111373809D01*
X151678571Y-111421428D01*
X151678571Y-111492857D01*
X151654761Y-111540476D01*
X151630952Y-111564285D01*
X151583333Y-111588095D01*
X151392857Y-111588095D01*
X152154761Y-111826190D02*
X151869047Y-111826190D01*
X152011904Y-111826190D02*
X152011904Y-111326190D01*
X151964285Y-111397619D01*
X151916666Y-111445238D01*
X151869047Y-111469047D01*
X152630952Y-111826190D02*
X152345238Y-111826190D01*
X152488095Y-111826190D02*
X152488095Y-111326190D01*
X152440476Y-111397619D01*
X152392857Y-111445238D01*
X152345238Y-111469047D01*
X152476190Y-124071428D02*
X152238095Y-124238095D01*
X152476190Y-124357142D02*
X151976190Y-124357142D01*
X151976190Y-124166666D01*
X152000000Y-124119047D01*
X152023809Y-124095238D01*
X152071428Y-124071428D01*
X152142857Y-124071428D01*
X152190476Y-124095238D01*
X152214285Y-124119047D01*
X152238095Y-124166666D01*
X152238095Y-124357142D01*
X152476190Y-123595238D02*
X152476190Y-123880952D01*
X152476190Y-123738095D02*
X151976190Y-123738095D01*
X152047619Y-123785714D01*
X152095238Y-123833333D01*
X152119047Y-123880952D01*
X152023809Y-123404761D02*
X152000000Y-123380952D01*
X151976190Y-123333333D01*
X151976190Y-123214285D01*
X152000000Y-123166666D01*
X152023809Y-123142857D01*
X152071428Y-123119047D01*
X152119047Y-123119047D01*
X152190476Y-123142857D01*
X152476190Y-123428571D01*
X152476190Y-123119047D01*
D12*
X133666666Y-116904761D02*
X133809523Y-116952380D01*
X134047619Y-116952380D01*
X134142857Y-116904761D01*
X134190476Y-116857142D01*
X134238095Y-116761904D01*
X134238095Y-116666666D01*
X134190476Y-116571428D01*
X134142857Y-116523809D01*
X134047619Y-116476190D01*
X133857142Y-116428571D01*
X133761904Y-116380952D01*
X133714285Y-116333333D01*
X133666666Y-116238095D01*
X133666666Y-116142857D01*
X133714285Y-116047619D01*
X133761904Y-116000000D01*
X133857142Y-115952380D01*
X134095238Y-115952380D01*
X134238095Y-116000000D01*
X134571428Y-115952380D02*
X134809523Y-116952380D01*
X135000000Y-116238095D01*
X135190476Y-116952380D01*
X135428571Y-115952380D01*
X135761904Y-116047619D02*
X135809523Y-116000000D01*
X135904761Y-115952380D01*
X136142857Y-115952380D01*
X136238095Y-116000000D01*
X136285714Y-116047619D01*
X136333333Y-116142857D01*
X136333333Y-116238095D01*
X136285714Y-116380952D01*
X135714285Y-116952380D01*
X136333333Y-116952380D01*
X153666666Y-116804761D02*
X153809523Y-116852380D01*
X154047619Y-116852380D01*
X154142857Y-116804761D01*
X154190476Y-116757142D01*
X154238095Y-116661904D01*
X154238095Y-116566666D01*
X154190476Y-116471428D01*
X154142857Y-116423809D01*
X154047619Y-116376190D01*
X153857142Y-116328571D01*
X153761904Y-116280952D01*
X153714285Y-116233333D01*
X153666666Y-116138095D01*
X153666666Y-116042857D01*
X153714285Y-115947619D01*
X153761904Y-115900000D01*
X153857142Y-115852380D01*
X154095238Y-115852380D01*
X154238095Y-115900000D01*
X154571428Y-115852380D02*
X154809523Y-116852380D01*
X155000000Y-116138095D01*
X155190476Y-116852380D01*
X155428571Y-115852380D01*
X155714285Y-115852380D02*
X156333333Y-115852380D01*
X156000000Y-116233333D01*
X156142857Y-116233333D01*
X156238095Y-116280952D01*
X156285714Y-116328571D01*
X156333333Y-116423809D01*
X156333333Y-116661904D01*
X156285714Y-116757142D01*
X156238095Y-116804761D01*
X156142857Y-116852380D01*
X155857142Y-116852380D01*
X155761904Y-116804761D01*
X155714285Y-116757142D01*
D10*
X168226190Y-106380952D02*
X168630952Y-106380952D01*
X168678571Y-106357142D01*
X168702380Y-106333333D01*
X168726190Y-106285714D01*
X168726190Y-106190476D01*
X168702380Y-106142857D01*
X168678571Y-106119047D01*
X168630952Y-106095238D01*
X168226190Y-106095238D01*
X168273809Y-105880952D02*
X168250000Y-105857142D01*
X168226190Y-105809523D01*
X168226190Y-105690476D01*
X168250000Y-105642857D01*
X168273809Y-105619047D01*
X168321428Y-105595238D01*
X168369047Y-105595238D01*
X168440476Y-105619047D01*
X168726190Y-105904761D01*
X168726190Y-105595238D01*
X144619047Y-119226190D02*
X144619047Y-119630952D01*
X144642857Y-119678571D01*
X144666666Y-119702380D01*
X144714285Y-119726190D01*
X144809523Y-119726190D01*
X144857142Y-119702380D01*
X144880952Y-119678571D01*
X144904761Y-119630952D01*
X144904761Y-119226190D01*
X145357142Y-119392857D02*
X145357142Y-119726190D01*
X145238095Y-119202380D02*
X145119047Y-119559523D01*
X145428571Y-119559523D01*
X142773809Y-106047619D02*
X142750000Y-106095238D01*
X142702380Y-106142857D01*
X142630952Y-106214285D01*
X142607142Y-106261904D01*
X142607142Y-106309523D01*
X142726190Y-106285714D02*
X142702380Y-106333333D01*
X142654761Y-106380952D01*
X142559523Y-106404761D01*
X142392857Y-106404761D01*
X142297619Y-106380952D01*
X142250000Y-106333333D01*
X142226190Y-106285714D01*
X142226190Y-106190476D01*
X142250000Y-106142857D01*
X142297619Y-106095238D01*
X142392857Y-106071428D01*
X142559523Y-106071428D01*
X142654761Y-106095238D01*
X142702380Y-106142857D01*
X142726190Y-106190476D01*
X142726190Y-106285714D01*
X142273809Y-105880952D02*
X142250000Y-105857142D01*
X142226190Y-105809523D01*
X142226190Y-105690476D01*
X142250000Y-105642857D01*
X142273809Y-105619047D01*
X142321428Y-105595238D01*
X142369047Y-105595238D01*
X142440476Y-105619047D01*
X142726190Y-105904761D01*
X142726190Y-105595238D01*
X146678571Y-107095238D02*
X146702380Y-107119047D01*
X146726190Y-107190476D01*
X146726190Y-107238095D01*
X146702380Y-107309523D01*
X146654761Y-107357142D01*
X146607142Y-107380952D01*
X146511904Y-107404761D01*
X146440476Y-107404761D01*
X146345238Y-107380952D01*
X146297619Y-107357142D01*
X146250000Y-107309523D01*
X146226190Y-107238095D01*
X146226190Y-107190476D01*
X146250000Y-107119047D01*
X146273809Y-107095238D01*
X143714285Y-107357142D02*
X143714285Y-107190476D01*
X143976190Y-107119047D02*
X143976190Y-107357142D01*
X143476190Y-107357142D01*
X143476190Y-107119047D01*
X144678571Y-108976190D02*
X144511904Y-108738095D01*
X144392857Y-108976190D02*
X144392857Y-108476190D01*
X144583333Y-108476190D01*
X144630952Y-108500000D01*
X144654761Y-108523809D01*
X144678571Y-108571428D01*
X144678571Y-108642857D01*
X144654761Y-108690476D01*
X144630952Y-108714285D01*
X144583333Y-108738095D01*
X144392857Y-108738095D01*
X145154761Y-108976190D02*
X144869047Y-108976190D01*
X145011904Y-108976190D02*
X145011904Y-108476190D01*
X144964285Y-108547619D01*
X144916666Y-108595238D01*
X144869047Y-108619047D01*
X145440476Y-108690476D02*
X145392857Y-108666666D01*
X145369047Y-108642857D01*
X145345238Y-108595238D01*
X145345238Y-108571428D01*
X145369047Y-108523809D01*
X145392857Y-108500000D01*
X145440476Y-108476190D01*
X145535714Y-108476190D01*
X145583333Y-108500000D01*
X145607142Y-108523809D01*
X145630952Y-108571428D01*
X145630952Y-108595238D01*
X145607142Y-108642857D01*
X145583333Y-108666666D01*
X145535714Y-108690476D01*
X145440476Y-108690476D01*
X145392857Y-108714285D01*
X145369047Y-108738095D01*
X145345238Y-108785714D01*
X145345238Y-108880952D01*
X145369047Y-108928571D01*
X145392857Y-108952380D01*
X145440476Y-108976190D01*
X145535714Y-108976190D01*
X145583333Y-108952380D01*
X145607142Y-108928571D01*
X145630952Y-108880952D01*
X145630952Y-108785714D01*
X145607142Y-108738095D01*
X145583333Y-108714285D01*
X145535714Y-108690476D01*
X148678571Y-103333333D02*
X148702380Y-103357142D01*
X148726190Y-103428571D01*
X148726190Y-103476190D01*
X148702380Y-103547619D01*
X148654761Y-103595238D01*
X148607142Y-103619047D01*
X148511904Y-103642857D01*
X148440476Y-103642857D01*
X148345238Y-103619047D01*
X148297619Y-103595238D01*
X148250000Y-103547619D01*
X148226190Y-103476190D01*
X148226190Y-103428571D01*
X148250000Y-103357142D01*
X148273809Y-103333333D01*
X148440476Y-103047619D02*
X148416666Y-103095238D01*
X148392857Y-103119047D01*
X148345238Y-103142857D01*
X148321428Y-103142857D01*
X148273809Y-103119047D01*
X148250000Y-103095238D01*
X148226190Y-103047619D01*
X148226190Y-102952380D01*
X148250000Y-102904761D01*
X148273809Y-102880952D01*
X148321428Y-102857142D01*
X148345238Y-102857142D01*
X148392857Y-102880952D01*
X148416666Y-102904761D01*
X148440476Y-102952380D01*
X148440476Y-103047619D01*
X148464285Y-103095238D01*
X148488095Y-103119047D01*
X148535714Y-103142857D01*
X148630952Y-103142857D01*
X148678571Y-103119047D01*
X148702380Y-103095238D01*
X148726190Y-103047619D01*
X148726190Y-102952380D01*
X148702380Y-102904761D01*
X148678571Y-102880952D01*
X148630952Y-102857142D01*
X148535714Y-102857142D01*
X148488095Y-102880952D01*
X148464285Y-102904761D01*
X148440476Y-102952380D01*
X160916666Y-111378571D02*
X160892857Y-111402380D01*
X160821428Y-111426190D01*
X160773809Y-111426190D01*
X160702380Y-111402380D01*
X160654761Y-111354761D01*
X160630952Y-111307142D01*
X160607142Y-111211904D01*
X160607142Y-111140476D01*
X160630952Y-111045238D01*
X160654761Y-110997619D01*
X160702380Y-110950000D01*
X160773809Y-110926190D01*
X160821428Y-110926190D01*
X160892857Y-110950000D01*
X160916666Y-110973809D01*
X161154761Y-111426190D02*
X161250000Y-111426190D01*
X161297619Y-111402380D01*
X161321428Y-111378571D01*
X161369047Y-111307142D01*
X161392857Y-111211904D01*
X161392857Y-111021428D01*
X161369047Y-110973809D01*
X161345238Y-110950000D01*
X161297619Y-110926190D01*
X161202380Y-110926190D01*
X161154761Y-110950000D01*
X161130952Y-110973809D01*
X161107142Y-111021428D01*
X161107142Y-111140476D01*
X161130952Y-111188095D01*
X161154761Y-111211904D01*
X161202380Y-111235714D01*
X161297619Y-111235714D01*
X161345238Y-111211904D01*
X161369047Y-111188095D01*
X161392857Y-111140476D01*
X149678571Y-93521428D02*
X149702380Y-93545238D01*
X149726190Y-93616666D01*
X149726190Y-93664285D01*
X149702380Y-93735714D01*
X149654761Y-93783333D01*
X149607142Y-93807142D01*
X149511904Y-93830952D01*
X149440476Y-93830952D01*
X149345238Y-93807142D01*
X149297619Y-93783333D01*
X149250000Y-93735714D01*
X149226190Y-93664285D01*
X149226190Y-93616666D01*
X149250000Y-93545238D01*
X149273809Y-93521428D01*
X149726190Y-93045238D02*
X149726190Y-93330952D01*
X149726190Y-93188095D02*
X149226190Y-93188095D01*
X149297619Y-93235714D01*
X149345238Y-93283333D01*
X149369047Y-93330952D01*
X149273809Y-92854761D02*
X149250000Y-92830952D01*
X149226190Y-92783333D01*
X149226190Y-92664285D01*
X149250000Y-92616666D01*
X149273809Y-92592857D01*
X149321428Y-92569047D01*
X149369047Y-92569047D01*
X149440476Y-92592857D01*
X149726190Y-92878571D01*
X149726190Y-92569047D01*
X158178571Y-110178571D02*
X158154761Y-110202380D01*
X158083333Y-110226190D01*
X158035714Y-110226190D01*
X157964285Y-110202380D01*
X157916666Y-110154761D01*
X157892857Y-110107142D01*
X157869047Y-110011904D01*
X157869047Y-109940476D01*
X157892857Y-109845238D01*
X157916666Y-109797619D01*
X157964285Y-109750000D01*
X158035714Y-109726190D01*
X158083333Y-109726190D01*
X158154761Y-109750000D01*
X158178571Y-109773809D01*
X158654761Y-110226190D02*
X158369047Y-110226190D01*
X158511904Y-110226190D02*
X158511904Y-109726190D01*
X158464285Y-109797619D01*
X158416666Y-109845238D01*
X158369047Y-109869047D01*
X158821428Y-109726190D02*
X159130952Y-109726190D01*
X158964285Y-109916666D01*
X159035714Y-109916666D01*
X159083333Y-109940476D01*
X159107142Y-109964285D01*
X159130952Y-110011904D01*
X159130952Y-110130952D01*
X159107142Y-110178571D01*
X159083333Y-110202380D01*
X159035714Y-110226190D01*
X158892857Y-110226190D01*
X158845238Y-110202380D01*
X158821428Y-110178571D01*
X151678571Y-107778571D02*
X151654761Y-107802380D01*
X151583333Y-107826190D01*
X151535714Y-107826190D01*
X151464285Y-107802380D01*
X151416666Y-107754761D01*
X151392857Y-107707142D01*
X151369047Y-107611904D01*
X151369047Y-107540476D01*
X151392857Y-107445238D01*
X151416666Y-107397619D01*
X151464285Y-107350000D01*
X151535714Y-107326190D01*
X151583333Y-107326190D01*
X151654761Y-107350000D01*
X151678571Y-107373809D01*
X152154761Y-107826190D02*
X151869047Y-107826190D01*
X152011904Y-107826190D02*
X152011904Y-107326190D01*
X151964285Y-107397619D01*
X151916666Y-107445238D01*
X151869047Y-107469047D01*
X152583333Y-107492857D02*
X152583333Y-107826190D01*
X152464285Y-107302380D02*
X152345238Y-107659523D01*
X152654761Y-107659523D01*
X147678571Y-124178571D02*
X147654761Y-124202380D01*
X147583333Y-124226190D01*
X147535714Y-124226190D01*
X147464285Y-124202380D01*
X147416666Y-124154761D01*
X147392857Y-124107142D01*
X147369047Y-124011904D01*
X147369047Y-123940476D01*
X147392857Y-123845238D01*
X147416666Y-123797619D01*
X147464285Y-123750000D01*
X147535714Y-123726190D01*
X147583333Y-123726190D01*
X147654761Y-123750000D01*
X147678571Y-123773809D01*
X148154761Y-124226190D02*
X147869047Y-124226190D01*
X148011904Y-124226190D02*
X148011904Y-123726190D01*
X147964285Y-123797619D01*
X147916666Y-123845238D01*
X147869047Y-123869047D01*
X148440476Y-123940476D02*
X148392857Y-123916666D01*
X148369047Y-123892857D01*
X148345238Y-123845238D01*
X148345238Y-123821428D01*
X148369047Y-123773809D01*
X148392857Y-123750000D01*
X148440476Y-123726190D01*
X148535714Y-123726190D01*
X148583333Y-123750000D01*
X148607142Y-123773809D01*
X148630952Y-123821428D01*
X148630952Y-123845238D01*
X148607142Y-123892857D01*
X148583333Y-123916666D01*
X148535714Y-123940476D01*
X148440476Y-123940476D01*
X148392857Y-123964285D01*
X148369047Y-123988095D01*
X148345238Y-124035714D01*
X148345238Y-124130952D01*
X148369047Y-124178571D01*
X148392857Y-124202380D01*
X148440476Y-124226190D01*
X148535714Y-124226190D01*
X148583333Y-124202380D01*
X148607142Y-124178571D01*
X148630952Y-124130952D01*
X148630952Y-124035714D01*
X148607142Y-123988095D01*
X148583333Y-123964285D01*
X148535714Y-123940476D01*
X147178571Y-108928571D02*
X147154761Y-108952380D01*
X147083333Y-108976190D01*
X147035714Y-108976190D01*
X146964285Y-108952380D01*
X146916666Y-108904761D01*
X146892857Y-108857142D01*
X146869047Y-108761904D01*
X146869047Y-108690476D01*
X146892857Y-108595238D01*
X146916666Y-108547619D01*
X146964285Y-108500000D01*
X147035714Y-108476190D01*
X147083333Y-108476190D01*
X147154761Y-108500000D01*
X147178571Y-108523809D01*
X147369047Y-108523809D02*
X147392857Y-108500000D01*
X147440476Y-108476190D01*
X147559523Y-108476190D01*
X147607142Y-108500000D01*
X147630952Y-108523809D01*
X147654761Y-108571428D01*
X147654761Y-108619047D01*
X147630952Y-108690476D01*
X147345238Y-108976190D01*
X147654761Y-108976190D01*
X148130952Y-108976190D02*
X147845238Y-108976190D01*
X147988095Y-108976190D02*
X147988095Y-108476190D01*
X147940476Y-108547619D01*
X147892857Y-108595238D01*
X147845238Y-108619047D01*
X146428571Y-96833333D02*
X146452380Y-96857142D01*
X146476190Y-96928571D01*
X146476190Y-96976190D01*
X146452380Y-97047619D01*
X146404761Y-97095238D01*
X146357142Y-97119047D01*
X146261904Y-97142857D01*
X146190476Y-97142857D01*
X146095238Y-97119047D01*
X146047619Y-97095238D01*
X146000000Y-97047619D01*
X145976190Y-96976190D01*
X145976190Y-96928571D01*
X146000000Y-96857142D01*
X146023809Y-96833333D01*
X146142857Y-96404761D02*
X146476190Y-96404761D01*
X145952380Y-96523809D02*
X146309523Y-96642857D01*
X146309523Y-96333333D01*
X145916666Y-101178571D02*
X145892857Y-101202380D01*
X145821428Y-101226190D01*
X145773809Y-101226190D01*
X145702380Y-101202380D01*
X145654761Y-101154761D01*
X145630952Y-101107142D01*
X145607142Y-101011904D01*
X145607142Y-100940476D01*
X145630952Y-100845238D01*
X145654761Y-100797619D01*
X145702380Y-100750000D01*
X145773809Y-100726190D01*
X145821428Y-100726190D01*
X145892857Y-100750000D01*
X145916666Y-100773809D01*
X146369047Y-100726190D02*
X146130952Y-100726190D01*
X146107142Y-100964285D01*
X146130952Y-100940476D01*
X146178571Y-100916666D01*
X146297619Y-100916666D01*
X146345238Y-100940476D01*
X146369047Y-100964285D01*
X146392857Y-101011904D01*
X146392857Y-101130952D01*
X146369047Y-101178571D01*
X146345238Y-101202380D01*
X146297619Y-101226190D01*
X146178571Y-101226190D01*
X146130952Y-101202380D01*
X146107142Y-101178571D01*
X162378571Y-95878571D02*
X162354761Y-95902380D01*
X162283333Y-95926190D01*
X162235714Y-95926190D01*
X162164285Y-95902380D01*
X162116666Y-95854761D01*
X162092857Y-95807142D01*
X162069047Y-95711904D01*
X162069047Y-95640476D01*
X162092857Y-95545238D01*
X162116666Y-95497619D01*
X162164285Y-95450000D01*
X162235714Y-95426190D01*
X162283333Y-95426190D01*
X162354761Y-95450000D01*
X162378571Y-95473809D01*
X162854761Y-95926190D02*
X162569047Y-95926190D01*
X162711904Y-95926190D02*
X162711904Y-95426190D01*
X162664285Y-95497619D01*
X162616666Y-95545238D01*
X162569047Y-95569047D01*
X163330952Y-95926190D02*
X163045238Y-95926190D01*
X163188095Y-95926190D02*
X163188095Y-95426190D01*
X163140476Y-95497619D01*
X163092857Y-95545238D01*
X163045238Y-95569047D01*
X146347619Y-92026190D02*
X146466666Y-92526190D01*
X146561904Y-92169047D01*
X146657142Y-92526190D01*
X146776190Y-92026190D01*
X147228571Y-92526190D02*
X146942857Y-92526190D01*
X147085714Y-92526190D02*
X147085714Y-92026190D01*
X147038095Y-92097619D01*
X146990476Y-92145238D01*
X146942857Y-92169047D01*
X139647619Y-91026190D02*
X139766666Y-91526190D01*
X139861904Y-91169047D01*
X139957142Y-91526190D01*
X140076190Y-91026190D01*
X140242857Y-91073809D02*
X140266666Y-91050000D01*
X140314285Y-91026190D01*
X140433333Y-91026190D01*
X140480952Y-91050000D01*
X140504761Y-91073809D01*
X140528571Y-91121428D01*
X140528571Y-91169047D01*
X140504761Y-91240476D01*
X140219047Y-91526190D01*
X140528571Y-91526190D01*
X161853619Y-102726190D02*
X161972666Y-103226190D01*
X162067904Y-102869047D01*
X162163142Y-103226190D01*
X162282190Y-102726190D01*
X162425047Y-102726190D02*
X162734571Y-102726190D01*
X162567904Y-102916666D01*
X162639333Y-102916666D01*
X162686952Y-102940476D01*
X162710761Y-102964285D01*
X162734571Y-103011904D01*
X162734571Y-103130952D01*
X162710761Y-103178571D01*
X162686952Y-103202380D01*
X162639333Y-103226190D01*
X162496476Y-103226190D01*
X162448857Y-103202380D01*
X162425047Y-103178571D01*
X154147619Y-92126190D02*
X154266666Y-92626190D01*
X154361904Y-92269047D01*
X154457142Y-92626190D01*
X154576190Y-92126190D01*
X154980952Y-92126190D02*
X154885714Y-92126190D01*
X154838095Y-92150000D01*
X154814285Y-92173809D01*
X154766666Y-92245238D01*
X154742857Y-92340476D01*
X154742857Y-92530952D01*
X154766666Y-92578571D01*
X154790476Y-92602380D01*
X154838095Y-92626190D01*
X154933333Y-92626190D01*
X154980952Y-92602380D01*
X155004761Y-92578571D01*
X155028571Y-92530952D01*
X155028571Y-92411904D01*
X155004761Y-92364285D01*
X154980952Y-92340476D01*
X154933333Y-92316666D01*
X154838095Y-92316666D01*
X154790476Y-92340476D01*
X154766666Y-92364285D01*
X154742857Y-92411904D01*
D12*
X128666666Y-116904761D02*
X128809523Y-116952380D01*
X129047619Y-116952380D01*
X129142857Y-116904761D01*
X129190476Y-116857142D01*
X129238095Y-116761904D01*
X129238095Y-116666666D01*
X129190476Y-116571428D01*
X129142857Y-116523809D01*
X129047619Y-116476190D01*
X128857142Y-116428571D01*
X128761904Y-116380952D01*
X128714285Y-116333333D01*
X128666666Y-116238095D01*
X128666666Y-116142857D01*
X128714285Y-116047619D01*
X128761904Y-116000000D01*
X128857142Y-115952380D01*
X129095238Y-115952380D01*
X129238095Y-116000000D01*
X129571428Y-115952380D02*
X129809523Y-116952380D01*
X130000000Y-116238095D01*
X130190476Y-116952380D01*
X130428571Y-115952380D01*
X131333333Y-116952380D02*
X130761904Y-116952380D01*
X131047619Y-116952380D02*
X131047619Y-115952380D01*
X130952380Y-116095238D01*
X130857142Y-116190476D01*
X130761904Y-116238095D01*
M02*
