G04 #@! TF.FileFunction,Legend,Bot*
%FSLAX46Y46*%
G04 Gerber Fmt 4.6, Leading zero omitted, Abs format (unit mm)*
G04 Created by KiCad (PCBNEW 4.0.4+dfsg1-stable) date Sat Nov 19 15:53:21 2016*
%MOMM*%
%LPD*%
G01*
G04 APERTURE LIST*
%ADD10C,0.100000*%
%ADD11C,0.150000*%
G04 APERTURE END LIST*
D10*
D11*
X150800000Y-75800000D02*
X150800000Y-88800000D01*
X150000000Y-75800000D02*
X150800000Y-75800000D01*
X150800000Y-83300000D02*
X140000000Y-83300000D01*
X150000000Y-86500000D02*
X140000000Y-86500000D01*
X140000000Y-86500000D02*
X140000000Y-88800000D01*
X142500000Y-86500000D02*
X142500000Y-88800000D01*
X145000000Y-86500000D02*
X145000000Y-88800000D01*
X147500000Y-86500000D02*
X147500000Y-88800000D01*
X150000000Y-88800000D02*
X150000000Y-86500000D01*
X150000000Y-75800000D02*
X140000000Y-75800000D01*
X150000000Y-88800000D02*
X150000000Y-75800000D01*
X140000000Y-88800000D02*
X150800000Y-88800000D01*
X140000000Y-75800000D02*
X140000000Y-88800000D01*
X148500000Y-78500000D02*
X149000000Y-78500000D01*
X149000000Y-78500000D02*
X149000000Y-76500000D01*
X148500000Y-76500000D02*
X148500000Y-78500000D01*
X149000000Y-76500000D02*
X148500000Y-76500000D01*
X146500000Y-76500000D02*
X146000000Y-76500000D01*
X146000000Y-78500000D02*
X146500000Y-78500000D01*
X146000000Y-76500000D02*
X146000000Y-78500000D01*
X146500000Y-78500000D02*
X146500000Y-76500000D01*
X143500000Y-76500000D02*
X143500000Y-78500000D01*
X143500000Y-78500000D02*
X144000000Y-78500000D01*
X144000000Y-78500000D02*
X144000000Y-76500000D01*
X144000000Y-76500000D02*
X143500000Y-76500000D01*
X141500000Y-76500000D02*
X141000000Y-76500000D01*
X141000000Y-78500000D02*
X141500000Y-78500000D01*
X141000000Y-76500000D02*
X141000000Y-78500000D01*
X141500000Y-78500000D02*
X141500000Y-76500000D01*
X124150000Y-92400000D02*
X136850000Y-92400000D01*
X124150000Y-87400000D02*
X124150000Y-92400000D01*
X136850000Y-87400000D02*
X124150000Y-87400000D01*
X136850000Y-92400000D02*
X136850000Y-87400000D01*
X153190000Y-92400000D02*
X165890000Y-92400000D01*
X153190000Y-87400000D02*
X153190000Y-92400000D01*
X165890000Y-87400000D02*
X153190000Y-87400000D01*
X165890000Y-92400000D02*
X165890000Y-87400000D01*
X161750000Y-100250000D02*
X161750000Y-99440000D01*
X158750000Y-100250000D02*
X161750000Y-100250000D01*
X158750000Y-99440000D02*
X158750000Y-100250000D01*
X162750000Y-114060000D02*
X157750000Y-114060000D01*
X162750000Y-99440000D02*
X162750000Y-114060000D01*
X157750000Y-99440000D02*
X158750000Y-99440000D01*
X157750000Y-114060000D02*
X157750000Y-99440000D01*
X161750000Y-99440000D02*
X162750000Y-99440000D01*
X145738095Y-75352381D02*
X145738095Y-74352381D01*
X145357142Y-74352381D01*
X145261904Y-74400000D01*
X145214285Y-74447619D01*
X145166666Y-74542857D01*
X145166666Y-74685714D01*
X145214285Y-74780952D01*
X145261904Y-74828571D01*
X145357142Y-74876190D01*
X145738095Y-74876190D01*
X144833333Y-74352381D02*
X144214285Y-74352381D01*
X144547619Y-74733333D01*
X144404761Y-74733333D01*
X144309523Y-74780952D01*
X144261904Y-74828571D01*
X144214285Y-74923810D01*
X144214285Y-75161905D01*
X144261904Y-75257143D01*
X144309523Y-75304762D01*
X144404761Y-75352381D01*
X144690476Y-75352381D01*
X144785714Y-75304762D01*
X144833333Y-75257143D01*
X138652381Y-89161905D02*
X137652381Y-89161905D01*
X137652381Y-89542858D01*
X137700000Y-89638096D01*
X137747619Y-89685715D01*
X137842857Y-89733334D01*
X137985714Y-89733334D01*
X138080952Y-89685715D01*
X138128571Y-89638096D01*
X138176190Y-89542858D01*
X138176190Y-89161905D01*
X137985714Y-90590477D02*
X138652381Y-90590477D01*
X137604762Y-90352381D02*
X138319048Y-90114286D01*
X138319048Y-90733334D01*
X152118381Y-89161905D02*
X151118381Y-89161905D01*
X151118381Y-89542858D01*
X151166000Y-89638096D01*
X151213619Y-89685715D01*
X151308857Y-89733334D01*
X151451714Y-89733334D01*
X151546952Y-89685715D01*
X151594571Y-89638096D01*
X151642190Y-89542858D01*
X151642190Y-89161905D01*
X151118381Y-90638096D02*
X151118381Y-90161905D01*
X151594571Y-90114286D01*
X151546952Y-90161905D01*
X151499333Y-90257143D01*
X151499333Y-90495239D01*
X151546952Y-90590477D01*
X151594571Y-90638096D01*
X151689810Y-90685715D01*
X151927905Y-90685715D01*
X152023143Y-90638096D01*
X152070762Y-90590477D01*
X152118381Y-90495239D01*
X152118381Y-90257143D01*
X152070762Y-90161905D01*
X152023143Y-90114286D01*
X165702381Y-106011905D02*
X164702381Y-106011905D01*
X164702381Y-106392858D01*
X164750000Y-106488096D01*
X164797619Y-106535715D01*
X164892857Y-106583334D01*
X165035714Y-106583334D01*
X165130952Y-106535715D01*
X165178571Y-106488096D01*
X165226190Y-106392858D01*
X165226190Y-106011905D01*
X165702381Y-107535715D02*
X165702381Y-106964286D01*
X165702381Y-107250000D02*
X164702381Y-107250000D01*
X164845238Y-107154762D01*
X164940476Y-107059524D01*
X164988095Y-106964286D01*
M02*
