G04 #@! TF.GenerationSoftware,KiCad,Pcbnew,5.0.0-rc3-6a2723a~65~ubuntu18.04.1*
G04 #@! TF.CreationDate,2018-07-14T21:10:54+02:00*
G04 #@! TF.ProjectId,can-node,63616E2D6E6F64652E6B696361645F70,1.1*
G04 #@! TF.SameCoordinates,Original*
G04 #@! TF.FileFunction,Soldermask,Bot*
G04 #@! TF.FilePolarity,Negative*
%FSLAX46Y46*%
G04 Gerber Fmt 4.6, Leading zero omitted, Abs format (unit mm)*
G04 Created by KiCad (PCBNEW 5.0.0-rc3-6a2723a~65~ubuntu18.04.1) date Sat Jul 14 21:10:54 2018*
%MOMM*%
%LPD*%
G01*
G04 APERTURE LIST*
%ADD10C,1.000000*%
%ADD11C,2.000000*%
%ADD12R,1.600000X4.000000*%
%ADD13C,0.600000*%
%ADD14C,1.750000*%
%ADD15C,1.500000*%
%ADD16R,2.000000X2.000000*%
%ADD17R,3.000000X1.500000*%
%ADD18R,1.900000X0.800000*%
%ADD19R,0.800000X1.900000*%
%ADD20C,0.100000*%
%ADD21C,0.950000*%
G04 APERTURE END LIST*
D10*
G04 #@! TO.C,W3*
X161000000Y-105500000D03*
G04 #@! TD*
G04 #@! TO.C,W6*
X154200000Y-94900000D03*
G04 #@! TD*
G04 #@! TO.C,W9*
X137500000Y-72250000D03*
G04 #@! TD*
G04 #@! TO.C,W10*
X135000000Y-69600000D03*
G04 #@! TD*
G04 #@! TO.C,W11*
X142000000Y-71000000D03*
G04 #@! TD*
G04 #@! TO.C,W17*
X146500000Y-108500000D03*
G04 #@! TD*
D11*
G04 #@! TO.C,REF\002A\002A*
X167000000Y-115000000D03*
G04 #@! TD*
G04 #@! TO.C,REF\002A\002A*
X123500000Y-115000000D03*
G04 #@! TD*
G04 #@! TO.C,REF\002A\002A*
X167000000Y-69000000D03*
G04 #@! TD*
G04 #@! TO.C,REF\002A\002A*
X123500000Y-68500000D03*
G04 #@! TD*
D12*
G04 #@! TO.C,U4*
X145000000Y-122000000D03*
D13*
X145400000Y-121150000D03*
X145400000Y-122850000D03*
X145400000Y-122000000D03*
X144600000Y-121150000D03*
X144600000Y-122850000D03*
X144600000Y-122000000D03*
G04 #@! TD*
D14*
G04 #@! TO.C,P2*
X131500000Y-98750000D03*
X131500000Y-96250000D03*
X131500000Y-93750000D03*
X131500000Y-91250000D03*
X126500000Y-98750000D03*
X126500000Y-96250000D03*
X126500000Y-93750000D03*
X126500000Y-91250000D03*
G04 #@! TD*
D15*
G04 #@! TO.C,AFF1*
X136110000Y-78420000D03*
X138650000Y-78420000D03*
X141190000Y-78420000D03*
X143730000Y-78420000D03*
X148810000Y-78420000D03*
X153890000Y-78420000D03*
X153890000Y-88580000D03*
X151350000Y-88580000D03*
X148810000Y-88580000D03*
X146270000Y-88580000D03*
X143730000Y-88580000D03*
X141190000Y-88580000D03*
X138650000Y-88580000D03*
X136110000Y-88580000D03*
G04 #@! TD*
G04 #@! TO.C,W15*
X121500000Y-112500000D03*
G04 #@! TD*
G04 #@! TO.C,W19*
X121500000Y-102000000D03*
G04 #@! TD*
D11*
G04 #@! TO.C,C22*
X123800000Y-107200000D03*
D16*
X133800000Y-107200000D03*
G04 #@! TD*
D17*
G04 #@! TO.C,P1*
X160500000Y-89920000D03*
X165000000Y-91190000D03*
X160500000Y-92460000D03*
X165000000Y-93730000D03*
X160500000Y-95000000D03*
X165000000Y-96270000D03*
X160500000Y-97540000D03*
X165000000Y-98810000D03*
X160500000Y-100080000D03*
X165000000Y-101350000D03*
G04 #@! TD*
D18*
G04 #@! TO.C,Q3*
X128950000Y-83950000D03*
X128950000Y-82050000D03*
X131950000Y-83000000D03*
G04 #@! TD*
G04 #@! TO.C,Q4*
X131950000Y-79500000D03*
X128950000Y-78550000D03*
X128950000Y-80450000D03*
G04 #@! TD*
G04 #@! TO.C,Q5*
X128950000Y-87450000D03*
X128950000Y-85550000D03*
X131950000Y-86500000D03*
G04 #@! TD*
D19*
G04 #@! TO.C,Q6*
X139200000Y-93200000D03*
X138250000Y-96200000D03*
X140150000Y-96200000D03*
G04 #@! TD*
G04 #@! TO.C,Q7*
X145750000Y-86100000D03*
X143850000Y-86100000D03*
X144800000Y-83100000D03*
G04 #@! TD*
G04 #@! TO.C,Q8*
X156300000Y-79100000D03*
X155350000Y-82100000D03*
X157250000Y-82100000D03*
G04 #@! TD*
G04 #@! TO.C,Q9*
X142250000Y-86100000D03*
X140350000Y-86100000D03*
X141300000Y-83100000D03*
G04 #@! TD*
D18*
G04 #@! TO.C,Q10*
X159500000Y-80700000D03*
X162500000Y-81650000D03*
X162500000Y-79750000D03*
G04 #@! TD*
D19*
G04 #@! TO.C,Q11*
X138750000Y-86100000D03*
X136850000Y-86100000D03*
X137800000Y-83100000D03*
G04 #@! TD*
D18*
G04 #@! TO.C,Q12*
X138800000Y-100100000D03*
X141800000Y-101050000D03*
X141800000Y-99150000D03*
G04 #@! TD*
G04 #@! TO.C,Q13*
X151800000Y-85500000D03*
X154800000Y-86450000D03*
X154800000Y-84550000D03*
G04 #@! TD*
G04 #@! TO.C,Q14*
X163500000Y-84050000D03*
X163500000Y-85950000D03*
X160500000Y-85000000D03*
G04 #@! TD*
D19*
G04 #@! TO.C,Q15*
X142900000Y-92400000D03*
X141950000Y-95400000D03*
X143850000Y-95400000D03*
G04 #@! TD*
D10*
G04 #@! TO.C,W4*
X158250000Y-96250000D03*
G04 #@! TD*
G04 #@! TO.C,W5*
X167500000Y-99500000D03*
G04 #@! TD*
G04 #@! TO.C,W16*
X143500000Y-108500000D03*
G04 #@! TD*
D20*
G04 #@! TO.C,R25*
G36*
X142685779Y-80026144D02*
X142708834Y-80029563D01*
X142731443Y-80035227D01*
X142753387Y-80043079D01*
X142774457Y-80053044D01*
X142794448Y-80065026D01*
X142813168Y-80078910D01*
X142830438Y-80094562D01*
X142846090Y-80111832D01*
X142859974Y-80130552D01*
X142871956Y-80150543D01*
X142881921Y-80171613D01*
X142889773Y-80193557D01*
X142895437Y-80216166D01*
X142898856Y-80239221D01*
X142900000Y-80262500D01*
X142900000Y-80737500D01*
X142898856Y-80760779D01*
X142895437Y-80783834D01*
X142889773Y-80806443D01*
X142881921Y-80828387D01*
X142871956Y-80849457D01*
X142859974Y-80869448D01*
X142846090Y-80888168D01*
X142830438Y-80905438D01*
X142813168Y-80921090D01*
X142794448Y-80934974D01*
X142774457Y-80946956D01*
X142753387Y-80956921D01*
X142731443Y-80964773D01*
X142708834Y-80970437D01*
X142685779Y-80973856D01*
X142662500Y-80975000D01*
X142087500Y-80975000D01*
X142064221Y-80973856D01*
X142041166Y-80970437D01*
X142018557Y-80964773D01*
X141996613Y-80956921D01*
X141975543Y-80946956D01*
X141955552Y-80934974D01*
X141936832Y-80921090D01*
X141919562Y-80905438D01*
X141903910Y-80888168D01*
X141890026Y-80869448D01*
X141878044Y-80849457D01*
X141868079Y-80828387D01*
X141860227Y-80806443D01*
X141854563Y-80783834D01*
X141851144Y-80760779D01*
X141850000Y-80737500D01*
X141850000Y-80262500D01*
X141851144Y-80239221D01*
X141854563Y-80216166D01*
X141860227Y-80193557D01*
X141868079Y-80171613D01*
X141878044Y-80150543D01*
X141890026Y-80130552D01*
X141903910Y-80111832D01*
X141919562Y-80094562D01*
X141936832Y-80078910D01*
X141955552Y-80065026D01*
X141975543Y-80053044D01*
X141996613Y-80043079D01*
X142018557Y-80035227D01*
X142041166Y-80029563D01*
X142064221Y-80026144D01*
X142087500Y-80025000D01*
X142662500Y-80025000D01*
X142685779Y-80026144D01*
X142685779Y-80026144D01*
G37*
D21*
X142375000Y-80500000D03*
D20*
G36*
X140935779Y-80026144D02*
X140958834Y-80029563D01*
X140981443Y-80035227D01*
X141003387Y-80043079D01*
X141024457Y-80053044D01*
X141044448Y-80065026D01*
X141063168Y-80078910D01*
X141080438Y-80094562D01*
X141096090Y-80111832D01*
X141109974Y-80130552D01*
X141121956Y-80150543D01*
X141131921Y-80171613D01*
X141139773Y-80193557D01*
X141145437Y-80216166D01*
X141148856Y-80239221D01*
X141150000Y-80262500D01*
X141150000Y-80737500D01*
X141148856Y-80760779D01*
X141145437Y-80783834D01*
X141139773Y-80806443D01*
X141131921Y-80828387D01*
X141121956Y-80849457D01*
X141109974Y-80869448D01*
X141096090Y-80888168D01*
X141080438Y-80905438D01*
X141063168Y-80921090D01*
X141044448Y-80934974D01*
X141024457Y-80946956D01*
X141003387Y-80956921D01*
X140981443Y-80964773D01*
X140958834Y-80970437D01*
X140935779Y-80973856D01*
X140912500Y-80975000D01*
X140337500Y-80975000D01*
X140314221Y-80973856D01*
X140291166Y-80970437D01*
X140268557Y-80964773D01*
X140246613Y-80956921D01*
X140225543Y-80946956D01*
X140205552Y-80934974D01*
X140186832Y-80921090D01*
X140169562Y-80905438D01*
X140153910Y-80888168D01*
X140140026Y-80869448D01*
X140128044Y-80849457D01*
X140118079Y-80828387D01*
X140110227Y-80806443D01*
X140104563Y-80783834D01*
X140101144Y-80760779D01*
X140100000Y-80737500D01*
X140100000Y-80262500D01*
X140101144Y-80239221D01*
X140104563Y-80216166D01*
X140110227Y-80193557D01*
X140118079Y-80171613D01*
X140128044Y-80150543D01*
X140140026Y-80130552D01*
X140153910Y-80111832D01*
X140169562Y-80094562D01*
X140186832Y-80078910D01*
X140205552Y-80065026D01*
X140225543Y-80053044D01*
X140246613Y-80043079D01*
X140268557Y-80035227D01*
X140291166Y-80029563D01*
X140314221Y-80026144D01*
X140337500Y-80025000D01*
X140912500Y-80025000D01*
X140935779Y-80026144D01*
X140935779Y-80026144D01*
G37*
D21*
X140625000Y-80500000D03*
G04 #@! TD*
D20*
G04 #@! TO.C,R26*
G36*
X134260779Y-80226144D02*
X134283834Y-80229563D01*
X134306443Y-80235227D01*
X134328387Y-80243079D01*
X134349457Y-80253044D01*
X134369448Y-80265026D01*
X134388168Y-80278910D01*
X134405438Y-80294562D01*
X134421090Y-80311832D01*
X134434974Y-80330552D01*
X134446956Y-80350543D01*
X134456921Y-80371613D01*
X134464773Y-80393557D01*
X134470437Y-80416166D01*
X134473856Y-80439221D01*
X134475000Y-80462500D01*
X134475000Y-81037500D01*
X134473856Y-81060779D01*
X134470437Y-81083834D01*
X134464773Y-81106443D01*
X134456921Y-81128387D01*
X134446956Y-81149457D01*
X134434974Y-81169448D01*
X134421090Y-81188168D01*
X134405438Y-81205438D01*
X134388168Y-81221090D01*
X134369448Y-81234974D01*
X134349457Y-81246956D01*
X134328387Y-81256921D01*
X134306443Y-81264773D01*
X134283834Y-81270437D01*
X134260779Y-81273856D01*
X134237500Y-81275000D01*
X133762500Y-81275000D01*
X133739221Y-81273856D01*
X133716166Y-81270437D01*
X133693557Y-81264773D01*
X133671613Y-81256921D01*
X133650543Y-81246956D01*
X133630552Y-81234974D01*
X133611832Y-81221090D01*
X133594562Y-81205438D01*
X133578910Y-81188168D01*
X133565026Y-81169448D01*
X133553044Y-81149457D01*
X133543079Y-81128387D01*
X133535227Y-81106443D01*
X133529563Y-81083834D01*
X133526144Y-81060779D01*
X133525000Y-81037500D01*
X133525000Y-80462500D01*
X133526144Y-80439221D01*
X133529563Y-80416166D01*
X133535227Y-80393557D01*
X133543079Y-80371613D01*
X133553044Y-80350543D01*
X133565026Y-80330552D01*
X133578910Y-80311832D01*
X133594562Y-80294562D01*
X133611832Y-80278910D01*
X133630552Y-80265026D01*
X133650543Y-80253044D01*
X133671613Y-80243079D01*
X133693557Y-80235227D01*
X133716166Y-80229563D01*
X133739221Y-80226144D01*
X133762500Y-80225000D01*
X134237500Y-80225000D01*
X134260779Y-80226144D01*
X134260779Y-80226144D01*
G37*
D21*
X134000000Y-80750000D03*
D20*
G36*
X134260779Y-78476144D02*
X134283834Y-78479563D01*
X134306443Y-78485227D01*
X134328387Y-78493079D01*
X134349457Y-78503044D01*
X134369448Y-78515026D01*
X134388168Y-78528910D01*
X134405438Y-78544562D01*
X134421090Y-78561832D01*
X134434974Y-78580552D01*
X134446956Y-78600543D01*
X134456921Y-78621613D01*
X134464773Y-78643557D01*
X134470437Y-78666166D01*
X134473856Y-78689221D01*
X134475000Y-78712500D01*
X134475000Y-79287500D01*
X134473856Y-79310779D01*
X134470437Y-79333834D01*
X134464773Y-79356443D01*
X134456921Y-79378387D01*
X134446956Y-79399457D01*
X134434974Y-79419448D01*
X134421090Y-79438168D01*
X134405438Y-79455438D01*
X134388168Y-79471090D01*
X134369448Y-79484974D01*
X134349457Y-79496956D01*
X134328387Y-79506921D01*
X134306443Y-79514773D01*
X134283834Y-79520437D01*
X134260779Y-79523856D01*
X134237500Y-79525000D01*
X133762500Y-79525000D01*
X133739221Y-79523856D01*
X133716166Y-79520437D01*
X133693557Y-79514773D01*
X133671613Y-79506921D01*
X133650543Y-79496956D01*
X133630552Y-79484974D01*
X133611832Y-79471090D01*
X133594562Y-79455438D01*
X133578910Y-79438168D01*
X133565026Y-79419448D01*
X133553044Y-79399457D01*
X133543079Y-79378387D01*
X133535227Y-79356443D01*
X133529563Y-79333834D01*
X133526144Y-79310779D01*
X133525000Y-79287500D01*
X133525000Y-78712500D01*
X133526144Y-78689221D01*
X133529563Y-78666166D01*
X133535227Y-78643557D01*
X133543079Y-78621613D01*
X133553044Y-78600543D01*
X133565026Y-78580552D01*
X133578910Y-78561832D01*
X133594562Y-78544562D01*
X133611832Y-78528910D01*
X133630552Y-78515026D01*
X133650543Y-78503044D01*
X133671613Y-78493079D01*
X133693557Y-78485227D01*
X133716166Y-78479563D01*
X133739221Y-78476144D01*
X133762500Y-78475000D01*
X134237500Y-78475000D01*
X134260779Y-78476144D01*
X134260779Y-78476144D01*
G37*
D21*
X134000000Y-79000000D03*
G04 #@! TD*
D20*
G04 #@! TO.C,R27*
G36*
X145435779Y-80026144D02*
X145458834Y-80029563D01*
X145481443Y-80035227D01*
X145503387Y-80043079D01*
X145524457Y-80053044D01*
X145544448Y-80065026D01*
X145563168Y-80078910D01*
X145580438Y-80094562D01*
X145596090Y-80111832D01*
X145609974Y-80130552D01*
X145621956Y-80150543D01*
X145631921Y-80171613D01*
X145639773Y-80193557D01*
X145645437Y-80216166D01*
X145648856Y-80239221D01*
X145650000Y-80262500D01*
X145650000Y-80737500D01*
X145648856Y-80760779D01*
X145645437Y-80783834D01*
X145639773Y-80806443D01*
X145631921Y-80828387D01*
X145621956Y-80849457D01*
X145609974Y-80869448D01*
X145596090Y-80888168D01*
X145580438Y-80905438D01*
X145563168Y-80921090D01*
X145544448Y-80934974D01*
X145524457Y-80946956D01*
X145503387Y-80956921D01*
X145481443Y-80964773D01*
X145458834Y-80970437D01*
X145435779Y-80973856D01*
X145412500Y-80975000D01*
X144837500Y-80975000D01*
X144814221Y-80973856D01*
X144791166Y-80970437D01*
X144768557Y-80964773D01*
X144746613Y-80956921D01*
X144725543Y-80946956D01*
X144705552Y-80934974D01*
X144686832Y-80921090D01*
X144669562Y-80905438D01*
X144653910Y-80888168D01*
X144640026Y-80869448D01*
X144628044Y-80849457D01*
X144618079Y-80828387D01*
X144610227Y-80806443D01*
X144604563Y-80783834D01*
X144601144Y-80760779D01*
X144600000Y-80737500D01*
X144600000Y-80262500D01*
X144601144Y-80239221D01*
X144604563Y-80216166D01*
X144610227Y-80193557D01*
X144618079Y-80171613D01*
X144628044Y-80150543D01*
X144640026Y-80130552D01*
X144653910Y-80111832D01*
X144669562Y-80094562D01*
X144686832Y-80078910D01*
X144705552Y-80065026D01*
X144725543Y-80053044D01*
X144746613Y-80043079D01*
X144768557Y-80035227D01*
X144791166Y-80029563D01*
X144814221Y-80026144D01*
X144837500Y-80025000D01*
X145412500Y-80025000D01*
X145435779Y-80026144D01*
X145435779Y-80026144D01*
G37*
D21*
X145125000Y-80500000D03*
D20*
G36*
X147185779Y-80026144D02*
X147208834Y-80029563D01*
X147231443Y-80035227D01*
X147253387Y-80043079D01*
X147274457Y-80053044D01*
X147294448Y-80065026D01*
X147313168Y-80078910D01*
X147330438Y-80094562D01*
X147346090Y-80111832D01*
X147359974Y-80130552D01*
X147371956Y-80150543D01*
X147381921Y-80171613D01*
X147389773Y-80193557D01*
X147395437Y-80216166D01*
X147398856Y-80239221D01*
X147400000Y-80262500D01*
X147400000Y-80737500D01*
X147398856Y-80760779D01*
X147395437Y-80783834D01*
X147389773Y-80806443D01*
X147381921Y-80828387D01*
X147371956Y-80849457D01*
X147359974Y-80869448D01*
X147346090Y-80888168D01*
X147330438Y-80905438D01*
X147313168Y-80921090D01*
X147294448Y-80934974D01*
X147274457Y-80946956D01*
X147253387Y-80956921D01*
X147231443Y-80964773D01*
X147208834Y-80970437D01*
X147185779Y-80973856D01*
X147162500Y-80975000D01*
X146587500Y-80975000D01*
X146564221Y-80973856D01*
X146541166Y-80970437D01*
X146518557Y-80964773D01*
X146496613Y-80956921D01*
X146475543Y-80946956D01*
X146455552Y-80934974D01*
X146436832Y-80921090D01*
X146419562Y-80905438D01*
X146403910Y-80888168D01*
X146390026Y-80869448D01*
X146378044Y-80849457D01*
X146368079Y-80828387D01*
X146360227Y-80806443D01*
X146354563Y-80783834D01*
X146351144Y-80760779D01*
X146350000Y-80737500D01*
X146350000Y-80262500D01*
X146351144Y-80239221D01*
X146354563Y-80216166D01*
X146360227Y-80193557D01*
X146368079Y-80171613D01*
X146378044Y-80150543D01*
X146390026Y-80130552D01*
X146403910Y-80111832D01*
X146419562Y-80094562D01*
X146436832Y-80078910D01*
X146455552Y-80065026D01*
X146475543Y-80053044D01*
X146496613Y-80043079D01*
X146518557Y-80035227D01*
X146541166Y-80029563D01*
X146564221Y-80026144D01*
X146587500Y-80025000D01*
X147162500Y-80025000D01*
X147185779Y-80026144D01*
X147185779Y-80026144D01*
G37*
D21*
X146875000Y-80500000D03*
G04 #@! TD*
D20*
G04 #@! TO.C,R35*
G36*
X138185779Y-80026144D02*
X138208834Y-80029563D01*
X138231443Y-80035227D01*
X138253387Y-80043079D01*
X138274457Y-80053044D01*
X138294448Y-80065026D01*
X138313168Y-80078910D01*
X138330438Y-80094562D01*
X138346090Y-80111832D01*
X138359974Y-80130552D01*
X138371956Y-80150543D01*
X138381921Y-80171613D01*
X138389773Y-80193557D01*
X138395437Y-80216166D01*
X138398856Y-80239221D01*
X138400000Y-80262500D01*
X138400000Y-80737500D01*
X138398856Y-80760779D01*
X138395437Y-80783834D01*
X138389773Y-80806443D01*
X138381921Y-80828387D01*
X138371956Y-80849457D01*
X138359974Y-80869448D01*
X138346090Y-80888168D01*
X138330438Y-80905438D01*
X138313168Y-80921090D01*
X138294448Y-80934974D01*
X138274457Y-80946956D01*
X138253387Y-80956921D01*
X138231443Y-80964773D01*
X138208834Y-80970437D01*
X138185779Y-80973856D01*
X138162500Y-80975000D01*
X137587500Y-80975000D01*
X137564221Y-80973856D01*
X137541166Y-80970437D01*
X137518557Y-80964773D01*
X137496613Y-80956921D01*
X137475543Y-80946956D01*
X137455552Y-80934974D01*
X137436832Y-80921090D01*
X137419562Y-80905438D01*
X137403910Y-80888168D01*
X137390026Y-80869448D01*
X137378044Y-80849457D01*
X137368079Y-80828387D01*
X137360227Y-80806443D01*
X137354563Y-80783834D01*
X137351144Y-80760779D01*
X137350000Y-80737500D01*
X137350000Y-80262500D01*
X137351144Y-80239221D01*
X137354563Y-80216166D01*
X137360227Y-80193557D01*
X137368079Y-80171613D01*
X137378044Y-80150543D01*
X137390026Y-80130552D01*
X137403910Y-80111832D01*
X137419562Y-80094562D01*
X137436832Y-80078910D01*
X137455552Y-80065026D01*
X137475543Y-80053044D01*
X137496613Y-80043079D01*
X137518557Y-80035227D01*
X137541166Y-80029563D01*
X137564221Y-80026144D01*
X137587500Y-80025000D01*
X138162500Y-80025000D01*
X138185779Y-80026144D01*
X138185779Y-80026144D01*
G37*
D21*
X137875000Y-80500000D03*
D20*
G36*
X136435779Y-80026144D02*
X136458834Y-80029563D01*
X136481443Y-80035227D01*
X136503387Y-80043079D01*
X136524457Y-80053044D01*
X136544448Y-80065026D01*
X136563168Y-80078910D01*
X136580438Y-80094562D01*
X136596090Y-80111832D01*
X136609974Y-80130552D01*
X136621956Y-80150543D01*
X136631921Y-80171613D01*
X136639773Y-80193557D01*
X136645437Y-80216166D01*
X136648856Y-80239221D01*
X136650000Y-80262500D01*
X136650000Y-80737500D01*
X136648856Y-80760779D01*
X136645437Y-80783834D01*
X136639773Y-80806443D01*
X136631921Y-80828387D01*
X136621956Y-80849457D01*
X136609974Y-80869448D01*
X136596090Y-80888168D01*
X136580438Y-80905438D01*
X136563168Y-80921090D01*
X136544448Y-80934974D01*
X136524457Y-80946956D01*
X136503387Y-80956921D01*
X136481443Y-80964773D01*
X136458834Y-80970437D01*
X136435779Y-80973856D01*
X136412500Y-80975000D01*
X135837500Y-80975000D01*
X135814221Y-80973856D01*
X135791166Y-80970437D01*
X135768557Y-80964773D01*
X135746613Y-80956921D01*
X135725543Y-80946956D01*
X135705552Y-80934974D01*
X135686832Y-80921090D01*
X135669562Y-80905438D01*
X135653910Y-80888168D01*
X135640026Y-80869448D01*
X135628044Y-80849457D01*
X135618079Y-80828387D01*
X135610227Y-80806443D01*
X135604563Y-80783834D01*
X135601144Y-80760779D01*
X135600000Y-80737500D01*
X135600000Y-80262500D01*
X135601144Y-80239221D01*
X135604563Y-80216166D01*
X135610227Y-80193557D01*
X135618079Y-80171613D01*
X135628044Y-80150543D01*
X135640026Y-80130552D01*
X135653910Y-80111832D01*
X135669562Y-80094562D01*
X135686832Y-80078910D01*
X135705552Y-80065026D01*
X135725543Y-80053044D01*
X135746613Y-80043079D01*
X135768557Y-80035227D01*
X135791166Y-80029563D01*
X135814221Y-80026144D01*
X135837500Y-80025000D01*
X136412500Y-80025000D01*
X136435779Y-80026144D01*
X136435779Y-80026144D01*
G37*
D21*
X136125000Y-80500000D03*
G04 #@! TD*
D20*
G04 #@! TO.C,R28*
G36*
X141285779Y-90326144D02*
X141308834Y-90329563D01*
X141331443Y-90335227D01*
X141353387Y-90343079D01*
X141374457Y-90353044D01*
X141394448Y-90365026D01*
X141413168Y-90378910D01*
X141430438Y-90394562D01*
X141446090Y-90411832D01*
X141459974Y-90430552D01*
X141471956Y-90450543D01*
X141481921Y-90471613D01*
X141489773Y-90493557D01*
X141495437Y-90516166D01*
X141498856Y-90539221D01*
X141500000Y-90562500D01*
X141500000Y-91037500D01*
X141498856Y-91060779D01*
X141495437Y-91083834D01*
X141489773Y-91106443D01*
X141481921Y-91128387D01*
X141471956Y-91149457D01*
X141459974Y-91169448D01*
X141446090Y-91188168D01*
X141430438Y-91205438D01*
X141413168Y-91221090D01*
X141394448Y-91234974D01*
X141374457Y-91246956D01*
X141353387Y-91256921D01*
X141331443Y-91264773D01*
X141308834Y-91270437D01*
X141285779Y-91273856D01*
X141262500Y-91275000D01*
X140687500Y-91275000D01*
X140664221Y-91273856D01*
X140641166Y-91270437D01*
X140618557Y-91264773D01*
X140596613Y-91256921D01*
X140575543Y-91246956D01*
X140555552Y-91234974D01*
X140536832Y-91221090D01*
X140519562Y-91205438D01*
X140503910Y-91188168D01*
X140490026Y-91169448D01*
X140478044Y-91149457D01*
X140468079Y-91128387D01*
X140460227Y-91106443D01*
X140454563Y-91083834D01*
X140451144Y-91060779D01*
X140450000Y-91037500D01*
X140450000Y-90562500D01*
X140451144Y-90539221D01*
X140454563Y-90516166D01*
X140460227Y-90493557D01*
X140468079Y-90471613D01*
X140478044Y-90450543D01*
X140490026Y-90430552D01*
X140503910Y-90411832D01*
X140519562Y-90394562D01*
X140536832Y-90378910D01*
X140555552Y-90365026D01*
X140575543Y-90353044D01*
X140596613Y-90343079D01*
X140618557Y-90335227D01*
X140641166Y-90329563D01*
X140664221Y-90326144D01*
X140687500Y-90325000D01*
X141262500Y-90325000D01*
X141285779Y-90326144D01*
X141285779Y-90326144D01*
G37*
D21*
X140975000Y-90800000D03*
D20*
G36*
X139535779Y-90326144D02*
X139558834Y-90329563D01*
X139581443Y-90335227D01*
X139603387Y-90343079D01*
X139624457Y-90353044D01*
X139644448Y-90365026D01*
X139663168Y-90378910D01*
X139680438Y-90394562D01*
X139696090Y-90411832D01*
X139709974Y-90430552D01*
X139721956Y-90450543D01*
X139731921Y-90471613D01*
X139739773Y-90493557D01*
X139745437Y-90516166D01*
X139748856Y-90539221D01*
X139750000Y-90562500D01*
X139750000Y-91037500D01*
X139748856Y-91060779D01*
X139745437Y-91083834D01*
X139739773Y-91106443D01*
X139731921Y-91128387D01*
X139721956Y-91149457D01*
X139709974Y-91169448D01*
X139696090Y-91188168D01*
X139680438Y-91205438D01*
X139663168Y-91221090D01*
X139644448Y-91234974D01*
X139624457Y-91246956D01*
X139603387Y-91256921D01*
X139581443Y-91264773D01*
X139558834Y-91270437D01*
X139535779Y-91273856D01*
X139512500Y-91275000D01*
X138937500Y-91275000D01*
X138914221Y-91273856D01*
X138891166Y-91270437D01*
X138868557Y-91264773D01*
X138846613Y-91256921D01*
X138825543Y-91246956D01*
X138805552Y-91234974D01*
X138786832Y-91221090D01*
X138769562Y-91205438D01*
X138753910Y-91188168D01*
X138740026Y-91169448D01*
X138728044Y-91149457D01*
X138718079Y-91128387D01*
X138710227Y-91106443D01*
X138704563Y-91083834D01*
X138701144Y-91060779D01*
X138700000Y-91037500D01*
X138700000Y-90562500D01*
X138701144Y-90539221D01*
X138704563Y-90516166D01*
X138710227Y-90493557D01*
X138718079Y-90471613D01*
X138728044Y-90450543D01*
X138740026Y-90430552D01*
X138753910Y-90411832D01*
X138769562Y-90394562D01*
X138786832Y-90378910D01*
X138805552Y-90365026D01*
X138825543Y-90353044D01*
X138846613Y-90343079D01*
X138868557Y-90335227D01*
X138891166Y-90329563D01*
X138914221Y-90326144D01*
X138937500Y-90325000D01*
X139512500Y-90325000D01*
X139535779Y-90326144D01*
X139535779Y-90326144D01*
G37*
D21*
X139225000Y-90800000D03*
G04 #@! TD*
D20*
G04 #@! TO.C,R33*
G36*
X149010779Y-83851144D02*
X149033834Y-83854563D01*
X149056443Y-83860227D01*
X149078387Y-83868079D01*
X149099457Y-83878044D01*
X149119448Y-83890026D01*
X149138168Y-83903910D01*
X149155438Y-83919562D01*
X149171090Y-83936832D01*
X149184974Y-83955552D01*
X149196956Y-83975543D01*
X149206921Y-83996613D01*
X149214773Y-84018557D01*
X149220437Y-84041166D01*
X149223856Y-84064221D01*
X149225000Y-84087500D01*
X149225000Y-84662500D01*
X149223856Y-84685779D01*
X149220437Y-84708834D01*
X149214773Y-84731443D01*
X149206921Y-84753387D01*
X149196956Y-84774457D01*
X149184974Y-84794448D01*
X149171090Y-84813168D01*
X149155438Y-84830438D01*
X149138168Y-84846090D01*
X149119448Y-84859974D01*
X149099457Y-84871956D01*
X149078387Y-84881921D01*
X149056443Y-84889773D01*
X149033834Y-84895437D01*
X149010779Y-84898856D01*
X148987500Y-84900000D01*
X148512500Y-84900000D01*
X148489221Y-84898856D01*
X148466166Y-84895437D01*
X148443557Y-84889773D01*
X148421613Y-84881921D01*
X148400543Y-84871956D01*
X148380552Y-84859974D01*
X148361832Y-84846090D01*
X148344562Y-84830438D01*
X148328910Y-84813168D01*
X148315026Y-84794448D01*
X148303044Y-84774457D01*
X148293079Y-84753387D01*
X148285227Y-84731443D01*
X148279563Y-84708834D01*
X148276144Y-84685779D01*
X148275000Y-84662500D01*
X148275000Y-84087500D01*
X148276144Y-84064221D01*
X148279563Y-84041166D01*
X148285227Y-84018557D01*
X148293079Y-83996613D01*
X148303044Y-83975543D01*
X148315026Y-83955552D01*
X148328910Y-83936832D01*
X148344562Y-83919562D01*
X148361832Y-83903910D01*
X148380552Y-83890026D01*
X148400543Y-83878044D01*
X148421613Y-83868079D01*
X148443557Y-83860227D01*
X148466166Y-83854563D01*
X148489221Y-83851144D01*
X148512500Y-83850000D01*
X148987500Y-83850000D01*
X149010779Y-83851144D01*
X149010779Y-83851144D01*
G37*
D21*
X148750000Y-84375000D03*
D20*
G36*
X149010779Y-85601144D02*
X149033834Y-85604563D01*
X149056443Y-85610227D01*
X149078387Y-85618079D01*
X149099457Y-85628044D01*
X149119448Y-85640026D01*
X149138168Y-85653910D01*
X149155438Y-85669562D01*
X149171090Y-85686832D01*
X149184974Y-85705552D01*
X149196956Y-85725543D01*
X149206921Y-85746613D01*
X149214773Y-85768557D01*
X149220437Y-85791166D01*
X149223856Y-85814221D01*
X149225000Y-85837500D01*
X149225000Y-86412500D01*
X149223856Y-86435779D01*
X149220437Y-86458834D01*
X149214773Y-86481443D01*
X149206921Y-86503387D01*
X149196956Y-86524457D01*
X149184974Y-86544448D01*
X149171090Y-86563168D01*
X149155438Y-86580438D01*
X149138168Y-86596090D01*
X149119448Y-86609974D01*
X149099457Y-86621956D01*
X149078387Y-86631921D01*
X149056443Y-86639773D01*
X149033834Y-86645437D01*
X149010779Y-86648856D01*
X148987500Y-86650000D01*
X148512500Y-86650000D01*
X148489221Y-86648856D01*
X148466166Y-86645437D01*
X148443557Y-86639773D01*
X148421613Y-86631921D01*
X148400543Y-86621956D01*
X148380552Y-86609974D01*
X148361832Y-86596090D01*
X148344562Y-86580438D01*
X148328910Y-86563168D01*
X148315026Y-86544448D01*
X148303044Y-86524457D01*
X148293079Y-86503387D01*
X148285227Y-86481443D01*
X148279563Y-86458834D01*
X148276144Y-86435779D01*
X148275000Y-86412500D01*
X148275000Y-85837500D01*
X148276144Y-85814221D01*
X148279563Y-85791166D01*
X148285227Y-85768557D01*
X148293079Y-85746613D01*
X148303044Y-85725543D01*
X148315026Y-85705552D01*
X148328910Y-85686832D01*
X148344562Y-85669562D01*
X148361832Y-85653910D01*
X148380552Y-85640026D01*
X148400543Y-85628044D01*
X148421613Y-85618079D01*
X148443557Y-85610227D01*
X148466166Y-85604563D01*
X148489221Y-85601144D01*
X148512500Y-85600000D01*
X148987500Y-85600000D01*
X149010779Y-85601144D01*
X149010779Y-85601144D01*
G37*
D21*
X148750000Y-86125000D03*
G04 #@! TD*
D20*
G04 #@! TO.C,R34*
G36*
X151960779Y-78101144D02*
X151983834Y-78104563D01*
X152006443Y-78110227D01*
X152028387Y-78118079D01*
X152049457Y-78128044D01*
X152069448Y-78140026D01*
X152088168Y-78153910D01*
X152105438Y-78169562D01*
X152121090Y-78186832D01*
X152134974Y-78205552D01*
X152146956Y-78225543D01*
X152156921Y-78246613D01*
X152164773Y-78268557D01*
X152170437Y-78291166D01*
X152173856Y-78314221D01*
X152175000Y-78337500D01*
X152175000Y-78912500D01*
X152173856Y-78935779D01*
X152170437Y-78958834D01*
X152164773Y-78981443D01*
X152156921Y-79003387D01*
X152146956Y-79024457D01*
X152134974Y-79044448D01*
X152121090Y-79063168D01*
X152105438Y-79080438D01*
X152088168Y-79096090D01*
X152069448Y-79109974D01*
X152049457Y-79121956D01*
X152028387Y-79131921D01*
X152006443Y-79139773D01*
X151983834Y-79145437D01*
X151960779Y-79148856D01*
X151937500Y-79150000D01*
X151462500Y-79150000D01*
X151439221Y-79148856D01*
X151416166Y-79145437D01*
X151393557Y-79139773D01*
X151371613Y-79131921D01*
X151350543Y-79121956D01*
X151330552Y-79109974D01*
X151311832Y-79096090D01*
X151294562Y-79080438D01*
X151278910Y-79063168D01*
X151265026Y-79044448D01*
X151253044Y-79024457D01*
X151243079Y-79003387D01*
X151235227Y-78981443D01*
X151229563Y-78958834D01*
X151226144Y-78935779D01*
X151225000Y-78912500D01*
X151225000Y-78337500D01*
X151226144Y-78314221D01*
X151229563Y-78291166D01*
X151235227Y-78268557D01*
X151243079Y-78246613D01*
X151253044Y-78225543D01*
X151265026Y-78205552D01*
X151278910Y-78186832D01*
X151294562Y-78169562D01*
X151311832Y-78153910D01*
X151330552Y-78140026D01*
X151350543Y-78128044D01*
X151371613Y-78118079D01*
X151393557Y-78110227D01*
X151416166Y-78104563D01*
X151439221Y-78101144D01*
X151462500Y-78100000D01*
X151937500Y-78100000D01*
X151960779Y-78101144D01*
X151960779Y-78101144D01*
G37*
D21*
X151700000Y-78625000D03*
D20*
G36*
X151960779Y-79851144D02*
X151983834Y-79854563D01*
X152006443Y-79860227D01*
X152028387Y-79868079D01*
X152049457Y-79878044D01*
X152069448Y-79890026D01*
X152088168Y-79903910D01*
X152105438Y-79919562D01*
X152121090Y-79936832D01*
X152134974Y-79955552D01*
X152146956Y-79975543D01*
X152156921Y-79996613D01*
X152164773Y-80018557D01*
X152170437Y-80041166D01*
X152173856Y-80064221D01*
X152175000Y-80087500D01*
X152175000Y-80662500D01*
X152173856Y-80685779D01*
X152170437Y-80708834D01*
X152164773Y-80731443D01*
X152156921Y-80753387D01*
X152146956Y-80774457D01*
X152134974Y-80794448D01*
X152121090Y-80813168D01*
X152105438Y-80830438D01*
X152088168Y-80846090D01*
X152069448Y-80859974D01*
X152049457Y-80871956D01*
X152028387Y-80881921D01*
X152006443Y-80889773D01*
X151983834Y-80895437D01*
X151960779Y-80898856D01*
X151937500Y-80900000D01*
X151462500Y-80900000D01*
X151439221Y-80898856D01*
X151416166Y-80895437D01*
X151393557Y-80889773D01*
X151371613Y-80881921D01*
X151350543Y-80871956D01*
X151330552Y-80859974D01*
X151311832Y-80846090D01*
X151294562Y-80830438D01*
X151278910Y-80813168D01*
X151265026Y-80794448D01*
X151253044Y-80774457D01*
X151243079Y-80753387D01*
X151235227Y-80731443D01*
X151229563Y-80708834D01*
X151226144Y-80685779D01*
X151225000Y-80662500D01*
X151225000Y-80087500D01*
X151226144Y-80064221D01*
X151229563Y-80041166D01*
X151235227Y-80018557D01*
X151243079Y-79996613D01*
X151253044Y-79975543D01*
X151265026Y-79955552D01*
X151278910Y-79936832D01*
X151294562Y-79919562D01*
X151311832Y-79903910D01*
X151330552Y-79890026D01*
X151350543Y-79878044D01*
X151371613Y-79868079D01*
X151393557Y-79860227D01*
X151416166Y-79854563D01*
X151439221Y-79851144D01*
X151462500Y-79850000D01*
X151937500Y-79850000D01*
X151960779Y-79851144D01*
X151960779Y-79851144D01*
G37*
D21*
X151700000Y-80375000D03*
G04 #@! TD*
D20*
G04 #@! TO.C,R36*
G36*
X157510779Y-84476144D02*
X157533834Y-84479563D01*
X157556443Y-84485227D01*
X157578387Y-84493079D01*
X157599457Y-84503044D01*
X157619448Y-84515026D01*
X157638168Y-84528910D01*
X157655438Y-84544562D01*
X157671090Y-84561832D01*
X157684974Y-84580552D01*
X157696956Y-84600543D01*
X157706921Y-84621613D01*
X157714773Y-84643557D01*
X157720437Y-84666166D01*
X157723856Y-84689221D01*
X157725000Y-84712500D01*
X157725000Y-85287500D01*
X157723856Y-85310779D01*
X157720437Y-85333834D01*
X157714773Y-85356443D01*
X157706921Y-85378387D01*
X157696956Y-85399457D01*
X157684974Y-85419448D01*
X157671090Y-85438168D01*
X157655438Y-85455438D01*
X157638168Y-85471090D01*
X157619448Y-85484974D01*
X157599457Y-85496956D01*
X157578387Y-85506921D01*
X157556443Y-85514773D01*
X157533834Y-85520437D01*
X157510779Y-85523856D01*
X157487500Y-85525000D01*
X157012500Y-85525000D01*
X156989221Y-85523856D01*
X156966166Y-85520437D01*
X156943557Y-85514773D01*
X156921613Y-85506921D01*
X156900543Y-85496956D01*
X156880552Y-85484974D01*
X156861832Y-85471090D01*
X156844562Y-85455438D01*
X156828910Y-85438168D01*
X156815026Y-85419448D01*
X156803044Y-85399457D01*
X156793079Y-85378387D01*
X156785227Y-85356443D01*
X156779563Y-85333834D01*
X156776144Y-85310779D01*
X156775000Y-85287500D01*
X156775000Y-84712500D01*
X156776144Y-84689221D01*
X156779563Y-84666166D01*
X156785227Y-84643557D01*
X156793079Y-84621613D01*
X156803044Y-84600543D01*
X156815026Y-84580552D01*
X156828910Y-84561832D01*
X156844562Y-84544562D01*
X156861832Y-84528910D01*
X156880552Y-84515026D01*
X156900543Y-84503044D01*
X156921613Y-84493079D01*
X156943557Y-84485227D01*
X156966166Y-84479563D01*
X156989221Y-84476144D01*
X157012500Y-84475000D01*
X157487500Y-84475000D01*
X157510779Y-84476144D01*
X157510779Y-84476144D01*
G37*
D21*
X157250000Y-85000000D03*
D20*
G36*
X157510779Y-86226144D02*
X157533834Y-86229563D01*
X157556443Y-86235227D01*
X157578387Y-86243079D01*
X157599457Y-86253044D01*
X157619448Y-86265026D01*
X157638168Y-86278910D01*
X157655438Y-86294562D01*
X157671090Y-86311832D01*
X157684974Y-86330552D01*
X157696956Y-86350543D01*
X157706921Y-86371613D01*
X157714773Y-86393557D01*
X157720437Y-86416166D01*
X157723856Y-86439221D01*
X157725000Y-86462500D01*
X157725000Y-87037500D01*
X157723856Y-87060779D01*
X157720437Y-87083834D01*
X157714773Y-87106443D01*
X157706921Y-87128387D01*
X157696956Y-87149457D01*
X157684974Y-87169448D01*
X157671090Y-87188168D01*
X157655438Y-87205438D01*
X157638168Y-87221090D01*
X157619448Y-87234974D01*
X157599457Y-87246956D01*
X157578387Y-87256921D01*
X157556443Y-87264773D01*
X157533834Y-87270437D01*
X157510779Y-87273856D01*
X157487500Y-87275000D01*
X157012500Y-87275000D01*
X156989221Y-87273856D01*
X156966166Y-87270437D01*
X156943557Y-87264773D01*
X156921613Y-87256921D01*
X156900543Y-87246956D01*
X156880552Y-87234974D01*
X156861832Y-87221090D01*
X156844562Y-87205438D01*
X156828910Y-87188168D01*
X156815026Y-87169448D01*
X156803044Y-87149457D01*
X156793079Y-87128387D01*
X156785227Y-87106443D01*
X156779563Y-87083834D01*
X156776144Y-87060779D01*
X156775000Y-87037500D01*
X156775000Y-86462500D01*
X156776144Y-86439221D01*
X156779563Y-86416166D01*
X156785227Y-86393557D01*
X156793079Y-86371613D01*
X156803044Y-86350543D01*
X156815026Y-86330552D01*
X156828910Y-86311832D01*
X156844562Y-86294562D01*
X156861832Y-86278910D01*
X156880552Y-86265026D01*
X156900543Y-86253044D01*
X156921613Y-86243079D01*
X156943557Y-86235227D01*
X156966166Y-86229563D01*
X156989221Y-86226144D01*
X157012500Y-86225000D01*
X157487500Y-86225000D01*
X157510779Y-86226144D01*
X157510779Y-86226144D01*
G37*
D21*
X157250000Y-86750000D03*
G04 #@! TD*
M02*
