G04 #@! TF.GenerationSoftware,KiCad,Pcbnew,no-vcs-found-7433~57~ubuntu16.10.1*
G04 #@! TF.CreationDate,2017-01-13T10:15:15+01:00*
G04 #@! TF.ProjectId,can-node,63616E2D6E6F64652E6B696361645F70,1.1*
G04 #@! TF.FileFunction,Legend,Top*
G04 #@! TF.FilePolarity,Positive*
%FSLAX46Y46*%
G04 Gerber Fmt 4.6, Leading zero omitted, Abs format (unit mm)*
G04 Created by KiCad (PCBNEW no-vcs-found-7433~57~ubuntu16.10.1) date Fri Jan 13 10:15:15 2017*
%MOMM*%
%LPD*%
G01*
G04 APERTURE LIST*
%ADD10C,0.100000*%
%ADD11C,0.125000*%
%ADD12C,0.150000*%
%ADD13C,0.300000*%
%ADD14C,0.200000*%
%ADD15C,0.010000*%
%ADD16C,1.000000*%
G04 APERTURE END LIST*
D10*
D11*
X121340476Y-116178571D02*
X121316666Y-116202380D01*
X121245238Y-116226190D01*
X121197619Y-116226190D01*
X121126190Y-116202380D01*
X121078571Y-116154761D01*
X121054761Y-116107142D01*
X121030952Y-116011904D01*
X121030952Y-115940476D01*
X121054761Y-115845238D01*
X121078571Y-115797619D01*
X121126190Y-115750000D01*
X121197619Y-115726190D01*
X121245238Y-115726190D01*
X121316666Y-115750000D01*
X121340476Y-115773809D01*
X121530952Y-116083333D02*
X121769047Y-116083333D01*
X121483333Y-116226190D02*
X121650000Y-115726190D01*
X121816666Y-116226190D01*
X121983333Y-116226190D02*
X121983333Y-115726190D01*
X122269047Y-116226190D01*
X122269047Y-115726190D01*
X122507142Y-116035714D02*
X122888095Y-116035714D01*
X123126190Y-116226190D02*
X123126190Y-115726190D01*
X123411904Y-116226190D01*
X123411904Y-115726190D01*
X123721428Y-116226190D02*
X123673809Y-116202380D01*
X123650000Y-116178571D01*
X123626190Y-116130952D01*
X123626190Y-115988095D01*
X123650000Y-115940476D01*
X123673809Y-115916666D01*
X123721428Y-115892857D01*
X123792857Y-115892857D01*
X123840476Y-115916666D01*
X123864285Y-115940476D01*
X123888095Y-115988095D01*
X123888095Y-116130952D01*
X123864285Y-116178571D01*
X123840476Y-116202380D01*
X123792857Y-116226190D01*
X123721428Y-116226190D01*
X124316666Y-116226190D02*
X124316666Y-115726190D01*
X124316666Y-116202380D02*
X124269047Y-116226190D01*
X124173809Y-116226190D01*
X124126190Y-116202380D01*
X124102380Y-116178571D01*
X124078571Y-116130952D01*
X124078571Y-115988095D01*
X124102380Y-115940476D01*
X124126190Y-115916666D01*
X124173809Y-115892857D01*
X124269047Y-115892857D01*
X124316666Y-115916666D01*
X124745238Y-116202380D02*
X124697619Y-116226190D01*
X124602380Y-116226190D01*
X124554761Y-116202380D01*
X124530952Y-116154761D01*
X124530952Y-115964285D01*
X124554761Y-115916666D01*
X124602380Y-115892857D01*
X124697619Y-115892857D01*
X124745238Y-115916666D01*
X124769047Y-115964285D01*
X124769047Y-116011904D01*
X124530952Y-116059523D01*
X125292857Y-115726190D02*
X125459523Y-116226190D01*
X125626190Y-115726190D01*
X126054761Y-116226190D02*
X125769047Y-116226190D01*
X125911904Y-116226190D02*
X125911904Y-115726190D01*
X125864285Y-115797619D01*
X125816666Y-115845238D01*
X125769047Y-115869047D01*
X126269047Y-116178571D02*
X126292857Y-116202380D01*
X126269047Y-116226190D01*
X126245238Y-116202380D01*
X126269047Y-116178571D01*
X126269047Y-116226190D01*
X126769047Y-116226190D02*
X126483333Y-116226190D01*
X126626190Y-116226190D02*
X126626190Y-115726190D01*
X126578571Y-115797619D01*
X126530952Y-115845238D01*
X126483333Y-115869047D01*
D12*
X134200000Y-104353571D02*
X134771428Y-104353571D01*
X134485714Y-104639285D02*
X134485714Y-104067857D01*
X135057142Y-103889285D02*
X135521428Y-103889285D01*
X135271428Y-104175000D01*
X135378571Y-104175000D01*
X135450000Y-104210714D01*
X135485714Y-104246428D01*
X135521428Y-104317857D01*
X135521428Y-104496428D01*
X135485714Y-104567857D01*
X135450000Y-104603571D01*
X135378571Y-104639285D01*
X135164285Y-104639285D01*
X135092857Y-104603571D01*
X135057142Y-104567857D01*
X135842857Y-104567857D02*
X135878571Y-104603571D01*
X135842857Y-104639285D01*
X135807142Y-104603571D01*
X135842857Y-104567857D01*
X135842857Y-104639285D01*
X136128571Y-103889285D02*
X136592857Y-103889285D01*
X136342857Y-104175000D01*
X136450000Y-104175000D01*
X136521428Y-104210714D01*
X136557142Y-104246428D01*
X136592857Y-104317857D01*
X136592857Y-104496428D01*
X136557142Y-104567857D01*
X136521428Y-104603571D01*
X136450000Y-104639285D01*
X136235714Y-104639285D01*
X136164285Y-104603571D01*
X136128571Y-104567857D01*
X136807142Y-103889285D02*
X137057142Y-104639285D01*
X137307142Y-103889285D01*
X135328571Y-111225000D02*
X135257142Y-111189285D01*
X135150000Y-111189285D01*
X135042857Y-111225000D01*
X134971428Y-111296428D01*
X134935714Y-111367857D01*
X134900000Y-111510714D01*
X134900000Y-111617857D01*
X134935714Y-111760714D01*
X134971428Y-111832142D01*
X135042857Y-111903571D01*
X135150000Y-111939285D01*
X135221428Y-111939285D01*
X135328571Y-111903571D01*
X135364285Y-111867857D01*
X135364285Y-111617857D01*
X135221428Y-111617857D01*
X135685714Y-111939285D02*
X135685714Y-111189285D01*
X136114285Y-111939285D01*
X136114285Y-111189285D01*
X136471428Y-111939285D02*
X136471428Y-111189285D01*
X136650000Y-111189285D01*
X136757142Y-111225000D01*
X136828571Y-111296428D01*
X136864285Y-111367857D01*
X136900000Y-111510714D01*
X136900000Y-111617857D01*
X136864285Y-111760714D01*
X136828571Y-111832142D01*
X136757142Y-111903571D01*
X136650000Y-111939285D01*
X136471428Y-111939285D01*
X148500000Y-69800000D02*
X148500000Y-68300000D01*
D13*
X151500000Y-69800000D02*
X151500000Y-68200000D01*
D12*
X140300000Y-70295000D02*
X140300000Y-74905000D01*
X131700000Y-70295000D02*
X140300000Y-70295000D01*
X131700000Y-75705000D02*
X131700000Y-70295000D01*
X139500000Y-75705000D02*
X131700000Y-75705000D01*
X140300000Y-74905000D02*
X139500000Y-75705000D01*
X165900000Y-89900000D02*
X124100000Y-89900000D01*
X165900000Y-77100000D02*
X165900000Y-89900000D01*
X124100000Y-77100000D02*
X165900000Y-77100000D01*
X124100000Y-89900000D02*
X124100000Y-77100000D01*
X145600000Y-93650000D02*
X145600000Y-94350000D01*
X144400000Y-94350000D02*
X144400000Y-93650000D01*
X138250000Y-91975000D02*
X137750000Y-91975000D01*
X137750000Y-93025000D02*
X138250000Y-93025000D01*
X138250000Y-94975000D02*
X137750000Y-94975000D01*
X137750000Y-96025000D02*
X138250000Y-96025000D01*
X137650000Y-93400000D02*
X138350000Y-93400000D01*
X138350000Y-94600000D02*
X137650000Y-94600000D01*
D14*
X143500000Y-97500000D02*
X137200000Y-97500000D01*
X137200000Y-97500000D02*
X137200000Y-99500000D01*
X137200000Y-99500000D02*
X143500000Y-99500000D01*
X143500000Y-99500000D02*
X143500000Y-97500000D01*
X143500000Y-98000000D02*
X144000000Y-98000000D01*
X143500000Y-99000000D02*
X144000000Y-99000000D01*
D12*
X152000000Y-90400000D02*
X151000000Y-90400000D01*
X151000000Y-92100000D02*
X152000000Y-92100000D01*
X149825000Y-95825000D02*
X149825000Y-96825000D01*
X160175000Y-95825000D02*
X160175000Y-96900000D01*
X160175000Y-106175000D02*
X160175000Y-105100000D01*
X149825000Y-106175000D02*
X149825000Y-105100000D01*
X149825000Y-95825000D02*
X150900000Y-95825000D01*
X149825000Y-106175000D02*
X150900000Y-106175000D01*
X160175000Y-106175000D02*
X159100000Y-106175000D01*
X160175000Y-95825000D02*
X159100000Y-95825000D01*
X149825000Y-96825000D02*
X148800000Y-96825000D01*
X156450000Y-123225000D02*
X155950000Y-123225000D01*
X155950000Y-124175000D02*
X156450000Y-124175000D01*
X141800000Y-95600000D02*
X142000000Y-95400000D01*
X142000000Y-95400000D02*
X142200000Y-95600000D01*
X142200000Y-95600000D02*
X142650000Y-95600000D01*
X142650000Y-92400000D02*
X141350000Y-92400000D01*
X141350000Y-95600000D02*
X141800000Y-95600000D01*
X149475000Y-75000000D02*
X149475000Y-73000000D01*
X146525000Y-73000000D02*
X146525000Y-75000000D01*
X153500000Y-67600000D02*
X154500000Y-67600000D01*
X154500000Y-65900000D02*
X153500000Y-65900000D01*
X156500000Y-76525000D02*
X158500000Y-76525000D01*
X158500000Y-74475000D02*
X156500000Y-74475000D01*
X144400000Y-102750000D02*
X144400000Y-103750000D01*
X146100000Y-103750000D02*
X146100000Y-102750000D01*
X165475000Y-106250000D02*
X165475000Y-105750000D01*
X164525000Y-105750000D02*
X164525000Y-106250000D01*
X165600000Y-98000000D02*
X165600000Y-97000000D01*
X163900000Y-97000000D02*
X163900000Y-98000000D01*
X136450000Y-123225000D02*
X135950000Y-123225000D01*
X135950000Y-124175000D02*
X136450000Y-124175000D01*
X126750000Y-74500000D02*
X126200000Y-74950000D01*
X126200000Y-74950000D02*
X126200000Y-74050000D01*
X126200000Y-74050000D02*
X126750000Y-74500000D01*
X126750000Y-75050000D02*
X126750000Y-73950000D01*
X128299140Y-72749940D02*
X128299140Y-73100460D01*
X128299140Y-76250060D02*
X128299140Y-75899540D01*
X124249560Y-72749940D02*
X124249560Y-73100460D01*
X128750440Y-72749940D02*
X128750440Y-73100460D01*
X128750440Y-76250060D02*
X128750440Y-75899540D01*
X124249560Y-76250060D02*
X124249560Y-75899540D01*
X128750440Y-72749940D02*
X124249560Y-72749940D01*
X128750440Y-76250060D02*
X124249560Y-76250060D01*
X143000000Y-71750000D02*
X142550000Y-71200000D01*
X142550000Y-71200000D02*
X143450000Y-71200000D01*
X143450000Y-71200000D02*
X143000000Y-71750000D01*
X142450000Y-71750000D02*
X143550000Y-71750000D01*
X144750060Y-73299140D02*
X144399540Y-73299140D01*
X141249940Y-73299140D02*
X141600460Y-73299140D01*
X144750060Y-69249560D02*
X144399540Y-69249560D01*
X144750060Y-73750440D02*
X144399540Y-73750440D01*
X141249940Y-73750440D02*
X141600460Y-73750440D01*
X141249940Y-69249560D02*
X141600460Y-69249560D01*
X144750060Y-73750440D02*
X144750060Y-69249560D01*
X141249940Y-73750440D02*
X141249940Y-69249560D01*
X151900000Y-72000000D02*
X151900000Y-75540000D01*
X150100000Y-72000000D02*
X150100000Y-75540000D01*
X151508000Y-73682500D02*
X150492000Y-73682500D01*
X150619000Y-74317500D02*
X151000000Y-73682500D01*
X151381000Y-74317500D02*
X150619000Y-74317500D01*
X151000000Y-73682500D02*
X151381000Y-74317500D01*
X151000000Y-73301500D02*
X151000000Y-73682500D01*
X151000000Y-74317500D02*
X151000000Y-74698500D01*
X159550000Y-120100000D02*
X159550000Y-118200000D01*
X158450000Y-120100000D02*
X158450000Y-118200000D01*
X159000000Y-119200000D02*
X159000000Y-118750000D01*
X158750000Y-119250000D02*
X159250000Y-119250000D01*
X159000000Y-119250000D02*
X158750000Y-119000000D01*
X158750000Y-119000000D02*
X159250000Y-119000000D01*
X159250000Y-119000000D02*
X159000000Y-119250000D01*
X161800000Y-120100700D02*
X161800000Y-118200700D01*
X160700000Y-120100700D02*
X160700000Y-118200700D01*
X161250000Y-119200700D02*
X161250000Y-118750700D01*
X161000000Y-119250700D02*
X161500000Y-119250700D01*
X161250000Y-119250700D02*
X161000000Y-119000700D01*
X161000000Y-119000700D02*
X161500000Y-119000700D01*
X161500000Y-119000700D02*
X161250000Y-119250700D01*
X156700000Y-73800000D02*
X158300000Y-73800000D01*
X156700000Y-68200000D02*
X158300000Y-68200000D01*
X135000000Y-67425000D02*
X137000000Y-67425000D01*
X137000000Y-69575000D02*
X135000000Y-69575000D01*
X147250000Y-69975000D02*
X146750000Y-69975000D01*
X146750000Y-71025000D02*
X147250000Y-71025000D01*
X149750000Y-66525000D02*
X150250000Y-66525000D01*
X150250000Y-65475000D02*
X149750000Y-65475000D01*
X147750000Y-66525000D02*
X148250000Y-66525000D01*
X148250000Y-65475000D02*
X147750000Y-65475000D01*
X165475000Y-108750000D02*
X165475000Y-109250000D01*
X166525000Y-109250000D02*
X166525000Y-108750000D01*
X166975000Y-108750000D02*
X166975000Y-109250000D01*
X168025000Y-109250000D02*
X168025000Y-108750000D01*
X158475000Y-121250000D02*
X158475000Y-121750000D01*
X159525000Y-121750000D02*
X159525000Y-121250000D01*
X160725000Y-121250000D02*
X160725000Y-121750000D01*
X161775000Y-121750000D02*
X161775000Y-121250000D01*
X134050000Y-123175000D02*
X133550000Y-123175000D01*
X133550000Y-124225000D02*
X134050000Y-124225000D01*
X148750000Y-109975000D02*
X148250000Y-109975000D01*
X148250000Y-111025000D02*
X148750000Y-111025000D01*
X151750000Y-111025000D02*
X152250000Y-111025000D01*
X152250000Y-109975000D02*
X151750000Y-109975000D01*
X153550000Y-124225000D02*
X154050000Y-124225000D01*
X154050000Y-123175000D02*
X153550000Y-123175000D01*
X136300000Y-121600000D02*
X136300000Y-118300000D01*
X133700000Y-121600000D02*
X133700000Y-118400000D01*
X134700000Y-117700000D02*
X135300000Y-117700000D01*
X135300000Y-122300000D02*
X134700000Y-122300000D01*
X156300000Y-121600000D02*
X156300000Y-118300000D01*
X153700000Y-121600000D02*
X153700000Y-118400000D01*
X154700000Y-117700000D02*
X155300000Y-117700000D01*
X155300000Y-122300000D02*
X154700000Y-122300000D01*
X165850000Y-106000000D02*
X165600000Y-105750000D01*
X165600000Y-106250000D02*
X165850000Y-106000000D01*
D15*
G36*
X160999744Y-84819918D02*
X161055201Y-84847568D01*
X161104148Y-84898480D01*
X161117629Y-84917338D01*
X161132314Y-84942015D01*
X161141842Y-84968816D01*
X161147293Y-85004587D01*
X161149747Y-85056169D01*
X161150286Y-85124267D01*
X161147852Y-85217588D01*
X161139394Y-85287657D01*
X161123174Y-85339931D01*
X161097454Y-85379869D01*
X161060497Y-85412929D01*
X161057782Y-85414886D01*
X161021360Y-85434908D01*
X160977502Y-85444815D01*
X160921724Y-85447257D01*
X160831048Y-85447257D01*
X160831010Y-85535283D01*
X160830166Y-85584308D01*
X160825024Y-85613065D01*
X160811587Y-85630311D01*
X160785858Y-85644808D01*
X160779679Y-85647769D01*
X160750764Y-85661648D01*
X160728376Y-85670414D01*
X160711729Y-85671171D01*
X160700036Y-85661023D01*
X160692510Y-85637073D01*
X160688366Y-85596426D01*
X160686815Y-85536186D01*
X160687071Y-85453455D01*
X160688349Y-85345339D01*
X160688748Y-85313000D01*
X160690185Y-85201524D01*
X160691472Y-85128603D01*
X160830971Y-85128603D01*
X160831755Y-85190499D01*
X160835240Y-85230997D01*
X160843124Y-85257708D01*
X160857105Y-85278244D01*
X160866597Y-85288260D01*
X160905404Y-85317567D01*
X160939763Y-85319952D01*
X160975216Y-85295750D01*
X160976114Y-85294857D01*
X160990539Y-85276153D01*
X160999313Y-85250732D01*
X161003739Y-85211584D01*
X161005118Y-85151697D01*
X161005143Y-85138430D01*
X161001812Y-85055901D01*
X160990969Y-84998691D01*
X160971340Y-84963766D01*
X160941650Y-84948094D01*
X160924491Y-84946514D01*
X160883766Y-84953926D01*
X160855832Y-84978330D01*
X160839017Y-85022980D01*
X160831650Y-85091130D01*
X160830971Y-85128603D01*
X160691472Y-85128603D01*
X160691708Y-85115245D01*
X160693677Y-85050333D01*
X160696450Y-85002958D01*
X160700388Y-84969290D01*
X160705849Y-84945498D01*
X160713192Y-84927753D01*
X160722777Y-84912224D01*
X160726887Y-84906381D01*
X160781405Y-84851185D01*
X160850336Y-84819890D01*
X160930072Y-84811165D01*
X160999744Y-84819918D01*
X160999744Y-84819918D01*
G37*
X160999744Y-84819918D02*
X161055201Y-84847568D01*
X161104148Y-84898480D01*
X161117629Y-84917338D01*
X161132314Y-84942015D01*
X161141842Y-84968816D01*
X161147293Y-85004587D01*
X161149747Y-85056169D01*
X161150286Y-85124267D01*
X161147852Y-85217588D01*
X161139394Y-85287657D01*
X161123174Y-85339931D01*
X161097454Y-85379869D01*
X161060497Y-85412929D01*
X161057782Y-85414886D01*
X161021360Y-85434908D01*
X160977502Y-85444815D01*
X160921724Y-85447257D01*
X160831048Y-85447257D01*
X160831010Y-85535283D01*
X160830166Y-85584308D01*
X160825024Y-85613065D01*
X160811587Y-85630311D01*
X160785858Y-85644808D01*
X160779679Y-85647769D01*
X160750764Y-85661648D01*
X160728376Y-85670414D01*
X160711729Y-85671171D01*
X160700036Y-85661023D01*
X160692510Y-85637073D01*
X160688366Y-85596426D01*
X160686815Y-85536186D01*
X160687071Y-85453455D01*
X160688349Y-85345339D01*
X160688748Y-85313000D01*
X160690185Y-85201524D01*
X160691472Y-85128603D01*
X160830971Y-85128603D01*
X160831755Y-85190499D01*
X160835240Y-85230997D01*
X160843124Y-85257708D01*
X160857105Y-85278244D01*
X160866597Y-85288260D01*
X160905404Y-85317567D01*
X160939763Y-85319952D01*
X160975216Y-85295750D01*
X160976114Y-85294857D01*
X160990539Y-85276153D01*
X160999313Y-85250732D01*
X161003739Y-85211584D01*
X161005118Y-85151697D01*
X161005143Y-85138430D01*
X161001812Y-85055901D01*
X160990969Y-84998691D01*
X160971340Y-84963766D01*
X160941650Y-84948094D01*
X160924491Y-84946514D01*
X160883766Y-84953926D01*
X160855832Y-84978330D01*
X160839017Y-85022980D01*
X160831650Y-85091130D01*
X160830971Y-85128603D01*
X160691472Y-85128603D01*
X160691708Y-85115245D01*
X160693677Y-85050333D01*
X160696450Y-85002958D01*
X160700388Y-84969290D01*
X160705849Y-84945498D01*
X160713192Y-84927753D01*
X160722777Y-84912224D01*
X160726887Y-84906381D01*
X160781405Y-84851185D01*
X160850336Y-84819890D01*
X160930072Y-84811165D01*
X160999744Y-84819918D01*
G36*
X162116093Y-84827780D02*
X162162672Y-84854723D01*
X162195057Y-84881466D01*
X162218742Y-84909484D01*
X162235059Y-84943748D01*
X162245339Y-84989227D01*
X162250914Y-85050892D01*
X162253116Y-85133711D01*
X162253371Y-85193246D01*
X162253371Y-85412391D01*
X162191686Y-85440044D01*
X162130000Y-85467697D01*
X162122743Y-85227670D01*
X162119744Y-85138028D01*
X162116598Y-85072962D01*
X162112701Y-85028026D01*
X162107447Y-84998770D01*
X162100231Y-84980748D01*
X162090450Y-84969511D01*
X162087312Y-84967079D01*
X162039761Y-84948083D01*
X161991697Y-84955600D01*
X161963086Y-84975543D01*
X161951447Y-84989675D01*
X161943391Y-85008220D01*
X161938271Y-85036334D01*
X161935441Y-85079173D01*
X161934256Y-85141895D01*
X161934057Y-85207261D01*
X161934018Y-85289268D01*
X161932614Y-85347316D01*
X161927914Y-85386465D01*
X161917987Y-85411780D01*
X161900903Y-85428323D01*
X161874732Y-85441156D01*
X161839775Y-85454491D01*
X161801596Y-85469007D01*
X161806141Y-85211389D01*
X161807971Y-85118519D01*
X161810112Y-85049889D01*
X161813181Y-85000711D01*
X161817794Y-84966198D01*
X161824568Y-84941562D01*
X161834119Y-84922016D01*
X161845634Y-84904770D01*
X161901190Y-84849680D01*
X161968980Y-84817822D01*
X162042713Y-84810191D01*
X162116093Y-84827780D01*
X162116093Y-84827780D01*
G37*
X162116093Y-84827780D02*
X162162672Y-84854723D01*
X162195057Y-84881466D01*
X162218742Y-84909484D01*
X162235059Y-84943748D01*
X162245339Y-84989227D01*
X162250914Y-85050892D01*
X162253116Y-85133711D01*
X162253371Y-85193246D01*
X162253371Y-85412391D01*
X162191686Y-85440044D01*
X162130000Y-85467697D01*
X162122743Y-85227670D01*
X162119744Y-85138028D01*
X162116598Y-85072962D01*
X162112701Y-85028026D01*
X162107447Y-84998770D01*
X162100231Y-84980748D01*
X162090450Y-84969511D01*
X162087312Y-84967079D01*
X162039761Y-84948083D01*
X161991697Y-84955600D01*
X161963086Y-84975543D01*
X161951447Y-84989675D01*
X161943391Y-85008220D01*
X161938271Y-85036334D01*
X161935441Y-85079173D01*
X161934256Y-85141895D01*
X161934057Y-85207261D01*
X161934018Y-85289268D01*
X161932614Y-85347316D01*
X161927914Y-85386465D01*
X161917987Y-85411780D01*
X161900903Y-85428323D01*
X161874732Y-85441156D01*
X161839775Y-85454491D01*
X161801596Y-85469007D01*
X161806141Y-85211389D01*
X161807971Y-85118519D01*
X161810112Y-85049889D01*
X161813181Y-85000711D01*
X161817794Y-84966198D01*
X161824568Y-84941562D01*
X161834119Y-84922016D01*
X161845634Y-84904770D01*
X161901190Y-84849680D01*
X161968980Y-84817822D01*
X162042713Y-84810191D01*
X162116093Y-84827780D01*
G36*
X160441115Y-84821962D02*
X160509145Y-84857733D01*
X160559351Y-84915301D01*
X160577185Y-84952312D01*
X160591063Y-85007882D01*
X160598167Y-85078096D01*
X160598840Y-85154727D01*
X160593427Y-85229552D01*
X160582270Y-85294342D01*
X160565714Y-85340873D01*
X160560626Y-85348887D01*
X160500355Y-85408707D01*
X160428769Y-85444535D01*
X160351092Y-85455020D01*
X160272548Y-85438810D01*
X160250689Y-85429092D01*
X160208122Y-85399143D01*
X160170763Y-85359433D01*
X160167232Y-85354397D01*
X160152881Y-85330124D01*
X160143394Y-85304178D01*
X160137790Y-85270022D01*
X160135086Y-85221119D01*
X160134299Y-85150935D01*
X160134286Y-85135200D01*
X160134322Y-85130192D01*
X160279429Y-85130192D01*
X160280273Y-85196430D01*
X160283596Y-85240386D01*
X160290583Y-85268779D01*
X160302416Y-85288325D01*
X160308457Y-85294857D01*
X160343186Y-85319680D01*
X160376903Y-85318548D01*
X160410995Y-85297016D01*
X160431329Y-85274029D01*
X160443371Y-85240478D01*
X160450134Y-85187569D01*
X160450598Y-85181399D01*
X160451752Y-85085513D01*
X160439688Y-85014299D01*
X160414570Y-84968194D01*
X160376560Y-84947635D01*
X160362992Y-84946514D01*
X160327364Y-84952152D01*
X160302994Y-84971686D01*
X160288093Y-85009042D01*
X160280875Y-85068150D01*
X160279429Y-85130192D01*
X160134322Y-85130192D01*
X160134826Y-85060413D01*
X160137096Y-85008159D01*
X160142068Y-84971949D01*
X160150713Y-84945299D01*
X160164005Y-84921722D01*
X160166943Y-84917338D01*
X160216313Y-84858249D01*
X160270109Y-84823947D01*
X160335602Y-84810331D01*
X160357842Y-84809665D01*
X160441115Y-84821962D01*
X160441115Y-84821962D01*
G37*
X160441115Y-84821962D02*
X160509145Y-84857733D01*
X160559351Y-84915301D01*
X160577185Y-84952312D01*
X160591063Y-85007882D01*
X160598167Y-85078096D01*
X160598840Y-85154727D01*
X160593427Y-85229552D01*
X160582270Y-85294342D01*
X160565714Y-85340873D01*
X160560626Y-85348887D01*
X160500355Y-85408707D01*
X160428769Y-85444535D01*
X160351092Y-85455020D01*
X160272548Y-85438810D01*
X160250689Y-85429092D01*
X160208122Y-85399143D01*
X160170763Y-85359433D01*
X160167232Y-85354397D01*
X160152881Y-85330124D01*
X160143394Y-85304178D01*
X160137790Y-85270022D01*
X160135086Y-85221119D01*
X160134299Y-85150935D01*
X160134286Y-85135200D01*
X160134322Y-85130192D01*
X160279429Y-85130192D01*
X160280273Y-85196430D01*
X160283596Y-85240386D01*
X160290583Y-85268779D01*
X160302416Y-85288325D01*
X160308457Y-85294857D01*
X160343186Y-85319680D01*
X160376903Y-85318548D01*
X160410995Y-85297016D01*
X160431329Y-85274029D01*
X160443371Y-85240478D01*
X160450134Y-85187569D01*
X160450598Y-85181399D01*
X160451752Y-85085513D01*
X160439688Y-85014299D01*
X160414570Y-84968194D01*
X160376560Y-84947635D01*
X160362992Y-84946514D01*
X160327364Y-84952152D01*
X160302994Y-84971686D01*
X160288093Y-85009042D01*
X160280875Y-85068150D01*
X160279429Y-85130192D01*
X160134322Y-85130192D01*
X160134826Y-85060413D01*
X160137096Y-85008159D01*
X160142068Y-84971949D01*
X160150713Y-84945299D01*
X160164005Y-84921722D01*
X160166943Y-84917338D01*
X160216313Y-84858249D01*
X160270109Y-84823947D01*
X160335602Y-84810331D01*
X160357842Y-84809665D01*
X160441115Y-84821962D01*
G36*
X161568303Y-84831239D02*
X161625527Y-84869735D01*
X161669749Y-84925335D01*
X161696167Y-84996086D01*
X161701510Y-85048162D01*
X161700903Y-85069893D01*
X161695822Y-85086531D01*
X161681855Y-85101437D01*
X161654589Y-85117973D01*
X161609612Y-85139498D01*
X161542511Y-85169374D01*
X161542171Y-85169524D01*
X161480407Y-85197813D01*
X161429759Y-85222933D01*
X161395404Y-85242179D01*
X161382518Y-85252848D01*
X161382514Y-85252934D01*
X161393872Y-85276166D01*
X161420431Y-85301774D01*
X161450923Y-85320221D01*
X161466370Y-85323886D01*
X161508515Y-85311212D01*
X161544808Y-85279471D01*
X161562517Y-85244572D01*
X161579552Y-85218845D01*
X161612922Y-85189546D01*
X161652149Y-85164235D01*
X161686756Y-85150471D01*
X161693993Y-85149714D01*
X161702139Y-85162160D01*
X161702630Y-85193972D01*
X161696643Y-85236866D01*
X161685357Y-85282558D01*
X161669950Y-85322761D01*
X161669171Y-85324322D01*
X161622804Y-85389062D01*
X161562711Y-85433097D01*
X161494465Y-85454711D01*
X161423638Y-85452185D01*
X161355804Y-85423804D01*
X161352788Y-85421808D01*
X161299427Y-85373448D01*
X161264340Y-85310352D01*
X161244922Y-85227387D01*
X161242316Y-85204078D01*
X161237701Y-85094055D01*
X161243233Y-85042748D01*
X161382514Y-85042748D01*
X161384324Y-85074753D01*
X161394222Y-85084093D01*
X161418898Y-85077105D01*
X161457795Y-85060587D01*
X161501275Y-85039881D01*
X161502356Y-85039333D01*
X161539209Y-85019949D01*
X161554000Y-85007013D01*
X161550353Y-84993451D01*
X161534995Y-84975632D01*
X161495923Y-84949845D01*
X161453846Y-84947950D01*
X161416103Y-84966717D01*
X161390034Y-85002915D01*
X161382514Y-85042748D01*
X161243233Y-85042748D01*
X161247194Y-85006027D01*
X161271550Y-84936212D01*
X161305456Y-84887302D01*
X161366653Y-84837878D01*
X161434063Y-84813359D01*
X161502880Y-84811797D01*
X161568303Y-84831239D01*
X161568303Y-84831239D01*
G37*
X161568303Y-84831239D02*
X161625527Y-84869735D01*
X161669749Y-84925335D01*
X161696167Y-84996086D01*
X161701510Y-85048162D01*
X161700903Y-85069893D01*
X161695822Y-85086531D01*
X161681855Y-85101437D01*
X161654589Y-85117973D01*
X161609612Y-85139498D01*
X161542511Y-85169374D01*
X161542171Y-85169524D01*
X161480407Y-85197813D01*
X161429759Y-85222933D01*
X161395404Y-85242179D01*
X161382518Y-85252848D01*
X161382514Y-85252934D01*
X161393872Y-85276166D01*
X161420431Y-85301774D01*
X161450923Y-85320221D01*
X161466370Y-85323886D01*
X161508515Y-85311212D01*
X161544808Y-85279471D01*
X161562517Y-85244572D01*
X161579552Y-85218845D01*
X161612922Y-85189546D01*
X161652149Y-85164235D01*
X161686756Y-85150471D01*
X161693993Y-85149714D01*
X161702139Y-85162160D01*
X161702630Y-85193972D01*
X161696643Y-85236866D01*
X161685357Y-85282558D01*
X161669950Y-85322761D01*
X161669171Y-85324322D01*
X161622804Y-85389062D01*
X161562711Y-85433097D01*
X161494465Y-85454711D01*
X161423638Y-85452185D01*
X161355804Y-85423804D01*
X161352788Y-85421808D01*
X161299427Y-85373448D01*
X161264340Y-85310352D01*
X161244922Y-85227387D01*
X161242316Y-85204078D01*
X161237701Y-85094055D01*
X161243233Y-85042748D01*
X161382514Y-85042748D01*
X161384324Y-85074753D01*
X161394222Y-85084093D01*
X161418898Y-85077105D01*
X161457795Y-85060587D01*
X161501275Y-85039881D01*
X161502356Y-85039333D01*
X161539209Y-85019949D01*
X161554000Y-85007013D01*
X161550353Y-84993451D01*
X161534995Y-84975632D01*
X161495923Y-84949845D01*
X161453846Y-84947950D01*
X161416103Y-84966717D01*
X161390034Y-85002915D01*
X161382514Y-85042748D01*
X161243233Y-85042748D01*
X161247194Y-85006027D01*
X161271550Y-84936212D01*
X161305456Y-84887302D01*
X161366653Y-84837878D01*
X161434063Y-84813359D01*
X161502880Y-84811797D01*
X161568303Y-84831239D01*
G36*
X162775886Y-84751289D02*
X162780139Y-84810613D01*
X162785025Y-84845572D01*
X162791795Y-84860820D01*
X162801702Y-84861015D01*
X162804914Y-84859195D01*
X162847644Y-84846015D01*
X162903227Y-84846785D01*
X162959737Y-84860333D01*
X162995082Y-84877861D01*
X163031321Y-84905861D01*
X163057813Y-84937549D01*
X163075999Y-84977813D01*
X163087322Y-85031543D01*
X163093222Y-85103626D01*
X163095143Y-85198951D01*
X163095177Y-85217237D01*
X163095200Y-85422646D01*
X163049491Y-85438580D01*
X163017027Y-85449420D01*
X162999215Y-85454468D01*
X162998691Y-85454514D01*
X162996937Y-85440828D01*
X162995444Y-85403076D01*
X162994326Y-85346224D01*
X162993697Y-85275234D01*
X162993600Y-85232073D01*
X162993398Y-85146973D01*
X162992358Y-85085981D01*
X162989831Y-85044177D01*
X162985164Y-85016642D01*
X162977707Y-84998456D01*
X162966811Y-84984698D01*
X162960007Y-84978073D01*
X162913272Y-84951375D01*
X162862272Y-84949375D01*
X162816001Y-84971955D01*
X162807444Y-84980107D01*
X162794893Y-84995436D01*
X162786188Y-85013618D01*
X162780631Y-85039909D01*
X162777526Y-85079562D01*
X162776176Y-85137832D01*
X162775886Y-85218173D01*
X162775886Y-85422646D01*
X162730177Y-85438580D01*
X162697713Y-85449420D01*
X162679901Y-85454468D01*
X162679377Y-85454514D01*
X162678037Y-85440623D01*
X162676828Y-85401439D01*
X162675801Y-85340700D01*
X162675002Y-85262141D01*
X162674481Y-85169498D01*
X162674286Y-85066509D01*
X162674286Y-84669342D01*
X162721457Y-84649444D01*
X162768629Y-84629547D01*
X162775886Y-84751289D01*
X162775886Y-84751289D01*
G37*
X162775886Y-84751289D02*
X162780139Y-84810613D01*
X162785025Y-84845572D01*
X162791795Y-84860820D01*
X162801702Y-84861015D01*
X162804914Y-84859195D01*
X162847644Y-84846015D01*
X162903227Y-84846785D01*
X162959737Y-84860333D01*
X162995082Y-84877861D01*
X163031321Y-84905861D01*
X163057813Y-84937549D01*
X163075999Y-84977813D01*
X163087322Y-85031543D01*
X163093222Y-85103626D01*
X163095143Y-85198951D01*
X163095177Y-85217237D01*
X163095200Y-85422646D01*
X163049491Y-85438580D01*
X163017027Y-85449420D01*
X162999215Y-85454468D01*
X162998691Y-85454514D01*
X162996937Y-85440828D01*
X162995444Y-85403076D01*
X162994326Y-85346224D01*
X162993697Y-85275234D01*
X162993600Y-85232073D01*
X162993398Y-85146973D01*
X162992358Y-85085981D01*
X162989831Y-85044177D01*
X162985164Y-85016642D01*
X162977707Y-84998456D01*
X162966811Y-84984698D01*
X162960007Y-84978073D01*
X162913272Y-84951375D01*
X162862272Y-84949375D01*
X162816001Y-84971955D01*
X162807444Y-84980107D01*
X162794893Y-84995436D01*
X162786188Y-85013618D01*
X162780631Y-85039909D01*
X162777526Y-85079562D01*
X162776176Y-85137832D01*
X162775886Y-85218173D01*
X162775886Y-85422646D01*
X162730177Y-85438580D01*
X162697713Y-85449420D01*
X162679901Y-85454468D01*
X162679377Y-85454514D01*
X162678037Y-85440623D01*
X162676828Y-85401439D01*
X162675801Y-85340700D01*
X162675002Y-85262141D01*
X162674481Y-85169498D01*
X162674286Y-85066509D01*
X162674286Y-84669342D01*
X162721457Y-84649444D01*
X162768629Y-84629547D01*
X162775886Y-84751289D01*
G36*
X163439744Y-84850968D02*
X163496616Y-84872087D01*
X163497267Y-84872493D01*
X163532440Y-84898380D01*
X163558407Y-84928633D01*
X163576670Y-84968058D01*
X163588732Y-85021462D01*
X163596096Y-85093651D01*
X163600264Y-85189432D01*
X163600629Y-85203078D01*
X163605876Y-85408842D01*
X163561716Y-85431678D01*
X163529763Y-85447110D01*
X163510470Y-85454423D01*
X163509578Y-85454514D01*
X163506239Y-85441022D01*
X163503587Y-85404626D01*
X163501956Y-85351452D01*
X163501600Y-85308393D01*
X163501592Y-85238641D01*
X163498403Y-85194837D01*
X163487288Y-85173944D01*
X163463501Y-85172925D01*
X163422296Y-85188741D01*
X163360086Y-85217815D01*
X163314341Y-85241963D01*
X163290813Y-85262913D01*
X163283896Y-85285747D01*
X163283886Y-85286877D01*
X163295299Y-85326212D01*
X163329092Y-85347462D01*
X163380809Y-85350539D01*
X163418061Y-85350006D01*
X163437703Y-85360735D01*
X163449952Y-85386505D01*
X163457002Y-85419337D01*
X163446842Y-85437966D01*
X163443017Y-85440632D01*
X163407001Y-85451340D01*
X163356566Y-85452856D01*
X163304626Y-85445759D01*
X163267822Y-85432788D01*
X163216938Y-85389585D01*
X163188014Y-85329446D01*
X163182286Y-85282462D01*
X163186657Y-85240082D01*
X163202475Y-85205488D01*
X163233797Y-85174763D01*
X163284678Y-85143990D01*
X163359176Y-85109252D01*
X163363714Y-85107288D01*
X163430821Y-85076287D01*
X163472232Y-85050862D01*
X163489981Y-85028014D01*
X163486107Y-85004745D01*
X163462643Y-84978056D01*
X163455627Y-84971914D01*
X163408630Y-84948100D01*
X163359933Y-84949103D01*
X163317522Y-84972451D01*
X163289384Y-85015675D01*
X163286769Y-85024160D01*
X163261308Y-85065308D01*
X163229001Y-85085128D01*
X163182286Y-85104770D01*
X163182286Y-85053950D01*
X163196496Y-84980082D01*
X163238675Y-84912327D01*
X163260624Y-84889661D01*
X163310517Y-84860569D01*
X163373967Y-84847400D01*
X163439744Y-84850968D01*
X163439744Y-84850968D01*
G37*
X163439744Y-84850968D02*
X163496616Y-84872087D01*
X163497267Y-84872493D01*
X163532440Y-84898380D01*
X163558407Y-84928633D01*
X163576670Y-84968058D01*
X163588732Y-85021462D01*
X163596096Y-85093651D01*
X163600264Y-85189432D01*
X163600629Y-85203078D01*
X163605876Y-85408842D01*
X163561716Y-85431678D01*
X163529763Y-85447110D01*
X163510470Y-85454423D01*
X163509578Y-85454514D01*
X163506239Y-85441022D01*
X163503587Y-85404626D01*
X163501956Y-85351452D01*
X163501600Y-85308393D01*
X163501592Y-85238641D01*
X163498403Y-85194837D01*
X163487288Y-85173944D01*
X163463501Y-85172925D01*
X163422296Y-85188741D01*
X163360086Y-85217815D01*
X163314341Y-85241963D01*
X163290813Y-85262913D01*
X163283896Y-85285747D01*
X163283886Y-85286877D01*
X163295299Y-85326212D01*
X163329092Y-85347462D01*
X163380809Y-85350539D01*
X163418061Y-85350006D01*
X163437703Y-85360735D01*
X163449952Y-85386505D01*
X163457002Y-85419337D01*
X163446842Y-85437966D01*
X163443017Y-85440632D01*
X163407001Y-85451340D01*
X163356566Y-85452856D01*
X163304626Y-85445759D01*
X163267822Y-85432788D01*
X163216938Y-85389585D01*
X163188014Y-85329446D01*
X163182286Y-85282462D01*
X163186657Y-85240082D01*
X163202475Y-85205488D01*
X163233797Y-85174763D01*
X163284678Y-85143990D01*
X163359176Y-85109252D01*
X163363714Y-85107288D01*
X163430821Y-85076287D01*
X163472232Y-85050862D01*
X163489981Y-85028014D01*
X163486107Y-85004745D01*
X163462643Y-84978056D01*
X163455627Y-84971914D01*
X163408630Y-84948100D01*
X163359933Y-84949103D01*
X163317522Y-84972451D01*
X163289384Y-85015675D01*
X163286769Y-85024160D01*
X163261308Y-85065308D01*
X163229001Y-85085128D01*
X163182286Y-85104770D01*
X163182286Y-85053950D01*
X163196496Y-84980082D01*
X163238675Y-84912327D01*
X163260624Y-84889661D01*
X163310517Y-84860569D01*
X163373967Y-84847400D01*
X163439744Y-84850968D01*
G36*
X163929926Y-84849755D02*
X163995858Y-84874084D01*
X164049273Y-84917117D01*
X164070164Y-84947409D01*
X164092939Y-85002994D01*
X164092466Y-85043186D01*
X164068562Y-85070217D01*
X164059717Y-85074813D01*
X164021530Y-85089144D01*
X164002028Y-85085472D01*
X163995422Y-85061407D01*
X163995086Y-85048114D01*
X163982992Y-84999210D01*
X163951471Y-84964999D01*
X163907659Y-84948476D01*
X163858695Y-84952634D01*
X163818894Y-84974227D01*
X163805450Y-84986544D01*
X163795921Y-85001487D01*
X163789485Y-85024075D01*
X163785317Y-85059328D01*
X163782597Y-85112266D01*
X163780502Y-85187907D01*
X163779960Y-85211857D01*
X163777981Y-85293790D01*
X163775731Y-85351455D01*
X163772357Y-85389608D01*
X163767006Y-85413004D01*
X163758824Y-85426398D01*
X163746959Y-85434545D01*
X163739362Y-85438144D01*
X163707102Y-85450452D01*
X163688111Y-85454514D01*
X163681836Y-85440948D01*
X163678006Y-85399934D01*
X163676600Y-85330999D01*
X163677598Y-85233669D01*
X163677908Y-85218657D01*
X163680101Y-85129859D01*
X163682693Y-85065019D01*
X163686382Y-85019067D01*
X163691864Y-84986935D01*
X163699835Y-84963553D01*
X163710993Y-84943852D01*
X163716830Y-84935410D01*
X163750296Y-84898057D01*
X163787727Y-84869003D01*
X163792309Y-84866467D01*
X163859426Y-84846443D01*
X163929926Y-84849755D01*
X163929926Y-84849755D01*
G37*
X163929926Y-84849755D02*
X163995858Y-84874084D01*
X164049273Y-84917117D01*
X164070164Y-84947409D01*
X164092939Y-85002994D01*
X164092466Y-85043186D01*
X164068562Y-85070217D01*
X164059717Y-85074813D01*
X164021530Y-85089144D01*
X164002028Y-85085472D01*
X163995422Y-85061407D01*
X163995086Y-85048114D01*
X163982992Y-84999210D01*
X163951471Y-84964999D01*
X163907659Y-84948476D01*
X163858695Y-84952634D01*
X163818894Y-84974227D01*
X163805450Y-84986544D01*
X163795921Y-85001487D01*
X163789485Y-85024075D01*
X163785317Y-85059328D01*
X163782597Y-85112266D01*
X163780502Y-85187907D01*
X163779960Y-85211857D01*
X163777981Y-85293790D01*
X163775731Y-85351455D01*
X163772357Y-85389608D01*
X163767006Y-85413004D01*
X163758824Y-85426398D01*
X163746959Y-85434545D01*
X163739362Y-85438144D01*
X163707102Y-85450452D01*
X163688111Y-85454514D01*
X163681836Y-85440948D01*
X163678006Y-85399934D01*
X163676600Y-85330999D01*
X163677598Y-85233669D01*
X163677908Y-85218657D01*
X163680101Y-85129859D01*
X163682693Y-85065019D01*
X163686382Y-85019067D01*
X163691864Y-84986935D01*
X163699835Y-84963553D01*
X163710993Y-84943852D01*
X163716830Y-84935410D01*
X163750296Y-84898057D01*
X163787727Y-84869003D01*
X163792309Y-84866467D01*
X163859426Y-84846443D01*
X163929926Y-84849755D01*
G36*
X164590117Y-84965358D02*
X164589933Y-85073837D01*
X164589219Y-85157287D01*
X164587675Y-85219704D01*
X164585001Y-85265085D01*
X164580894Y-85297429D01*
X164575055Y-85320733D01*
X164567182Y-85338995D01*
X164561221Y-85349418D01*
X164511855Y-85405945D01*
X164449264Y-85441377D01*
X164380013Y-85454090D01*
X164310668Y-85442463D01*
X164269375Y-85421568D01*
X164226025Y-85385422D01*
X164196481Y-85341276D01*
X164178655Y-85283462D01*
X164170463Y-85206313D01*
X164169302Y-85149714D01*
X164169458Y-85145647D01*
X164270857Y-85145647D01*
X164271476Y-85210550D01*
X164274314Y-85253514D01*
X164280840Y-85281622D01*
X164292523Y-85301953D01*
X164306483Y-85317288D01*
X164353365Y-85346890D01*
X164403701Y-85349419D01*
X164451276Y-85324705D01*
X164454979Y-85321356D01*
X164470783Y-85303935D01*
X164480693Y-85283209D01*
X164486058Y-85252362D01*
X164488228Y-85204577D01*
X164488571Y-85151748D01*
X164487827Y-85085381D01*
X164484748Y-85041106D01*
X164478061Y-85012009D01*
X164466496Y-84991173D01*
X164457013Y-84980107D01*
X164412960Y-84952198D01*
X164362224Y-84948843D01*
X164313796Y-84970159D01*
X164304450Y-84978073D01*
X164288540Y-84995647D01*
X164278610Y-85016587D01*
X164273278Y-85047782D01*
X164271163Y-85096122D01*
X164270857Y-85145647D01*
X164169458Y-85145647D01*
X164172810Y-85058568D01*
X164184726Y-84990086D01*
X164207135Y-84938600D01*
X164242124Y-84898443D01*
X164269375Y-84877861D01*
X164318907Y-84855625D01*
X164376316Y-84845304D01*
X164429682Y-84848067D01*
X164459543Y-84859212D01*
X164471261Y-84862383D01*
X164479037Y-84850557D01*
X164484465Y-84818866D01*
X164488571Y-84770593D01*
X164493067Y-84716829D01*
X164499313Y-84684482D01*
X164510676Y-84665985D01*
X164530528Y-84653770D01*
X164543000Y-84648362D01*
X164590171Y-84628601D01*
X164590117Y-84965358D01*
X164590117Y-84965358D01*
G37*
X164590117Y-84965358D02*
X164589933Y-85073837D01*
X164589219Y-85157287D01*
X164587675Y-85219704D01*
X164585001Y-85265085D01*
X164580894Y-85297429D01*
X164575055Y-85320733D01*
X164567182Y-85338995D01*
X164561221Y-85349418D01*
X164511855Y-85405945D01*
X164449264Y-85441377D01*
X164380013Y-85454090D01*
X164310668Y-85442463D01*
X164269375Y-85421568D01*
X164226025Y-85385422D01*
X164196481Y-85341276D01*
X164178655Y-85283462D01*
X164170463Y-85206313D01*
X164169302Y-85149714D01*
X164169458Y-85145647D01*
X164270857Y-85145647D01*
X164271476Y-85210550D01*
X164274314Y-85253514D01*
X164280840Y-85281622D01*
X164292523Y-85301953D01*
X164306483Y-85317288D01*
X164353365Y-85346890D01*
X164403701Y-85349419D01*
X164451276Y-85324705D01*
X164454979Y-85321356D01*
X164470783Y-85303935D01*
X164480693Y-85283209D01*
X164486058Y-85252362D01*
X164488228Y-85204577D01*
X164488571Y-85151748D01*
X164487827Y-85085381D01*
X164484748Y-85041106D01*
X164478061Y-85012009D01*
X164466496Y-84991173D01*
X164457013Y-84980107D01*
X164412960Y-84952198D01*
X164362224Y-84948843D01*
X164313796Y-84970159D01*
X164304450Y-84978073D01*
X164288540Y-84995647D01*
X164278610Y-85016587D01*
X164273278Y-85047782D01*
X164271163Y-85096122D01*
X164270857Y-85145647D01*
X164169458Y-85145647D01*
X164172810Y-85058568D01*
X164184726Y-84990086D01*
X164207135Y-84938600D01*
X164242124Y-84898443D01*
X164269375Y-84877861D01*
X164318907Y-84855625D01*
X164376316Y-84845304D01*
X164429682Y-84848067D01*
X164459543Y-84859212D01*
X164471261Y-84862383D01*
X164479037Y-84850557D01*
X164484465Y-84818866D01*
X164488571Y-84770593D01*
X164493067Y-84716829D01*
X164499313Y-84684482D01*
X164510676Y-84665985D01*
X164530528Y-84653770D01*
X164543000Y-84648362D01*
X164590171Y-84628601D01*
X164590117Y-84965358D01*
G36*
X165179833Y-84858663D02*
X165182048Y-84896850D01*
X165183784Y-84954886D01*
X165184899Y-85028180D01*
X165185257Y-85105055D01*
X165185257Y-85365196D01*
X165139326Y-85411127D01*
X165107675Y-85439429D01*
X165079890Y-85450893D01*
X165041915Y-85450168D01*
X165026840Y-85448321D01*
X164979726Y-85442948D01*
X164940756Y-85439869D01*
X164931257Y-85439585D01*
X164899233Y-85441445D01*
X164853432Y-85446114D01*
X164835674Y-85448321D01*
X164792057Y-85451735D01*
X164762745Y-85444320D01*
X164733680Y-85421427D01*
X164723188Y-85411127D01*
X164677257Y-85365196D01*
X164677257Y-84878602D01*
X164714226Y-84861758D01*
X164746059Y-84849282D01*
X164764683Y-84844914D01*
X164769458Y-84858718D01*
X164773921Y-84897286D01*
X164777775Y-84956356D01*
X164780722Y-85031663D01*
X164782143Y-85095286D01*
X164786114Y-85345657D01*
X164820759Y-85350556D01*
X164852268Y-85347131D01*
X164867708Y-85336041D01*
X164872023Y-85315308D01*
X164875708Y-85271145D01*
X164878469Y-85209146D01*
X164880012Y-85134909D01*
X164880235Y-85096706D01*
X164880457Y-84876783D01*
X164926166Y-84860849D01*
X164958518Y-84850015D01*
X164976115Y-84844962D01*
X164976623Y-84844914D01*
X164978388Y-84858648D01*
X164980329Y-84896730D01*
X164982282Y-84954482D01*
X164984084Y-85027227D01*
X164985343Y-85095286D01*
X164989314Y-85345657D01*
X165076400Y-85345657D01*
X165080396Y-85117240D01*
X165084392Y-84888822D01*
X165126847Y-84866868D01*
X165158192Y-84851793D01*
X165176744Y-84844951D01*
X165177279Y-84844914D01*
X165179833Y-84858663D01*
X165179833Y-84858663D01*
G37*
X165179833Y-84858663D02*
X165182048Y-84896850D01*
X165183784Y-84954886D01*
X165184899Y-85028180D01*
X165185257Y-85105055D01*
X165185257Y-85365196D01*
X165139326Y-85411127D01*
X165107675Y-85439429D01*
X165079890Y-85450893D01*
X165041915Y-85450168D01*
X165026840Y-85448321D01*
X164979726Y-85442948D01*
X164940756Y-85439869D01*
X164931257Y-85439585D01*
X164899233Y-85441445D01*
X164853432Y-85446114D01*
X164835674Y-85448321D01*
X164792057Y-85451735D01*
X164762745Y-85444320D01*
X164733680Y-85421427D01*
X164723188Y-85411127D01*
X164677257Y-85365196D01*
X164677257Y-84878602D01*
X164714226Y-84861758D01*
X164746059Y-84849282D01*
X164764683Y-84844914D01*
X164769458Y-84858718D01*
X164773921Y-84897286D01*
X164777775Y-84956356D01*
X164780722Y-85031663D01*
X164782143Y-85095286D01*
X164786114Y-85345657D01*
X164820759Y-85350556D01*
X164852268Y-85347131D01*
X164867708Y-85336041D01*
X164872023Y-85315308D01*
X164875708Y-85271145D01*
X164878469Y-85209146D01*
X164880012Y-85134909D01*
X164880235Y-85096706D01*
X164880457Y-84876783D01*
X164926166Y-84860849D01*
X164958518Y-84850015D01*
X164976115Y-84844962D01*
X164976623Y-84844914D01*
X164978388Y-84858648D01*
X164980329Y-84896730D01*
X164982282Y-84954482D01*
X164984084Y-85027227D01*
X164985343Y-85095286D01*
X164989314Y-85345657D01*
X165076400Y-85345657D01*
X165080396Y-85117240D01*
X165084392Y-84888822D01*
X165126847Y-84866868D01*
X165158192Y-84851793D01*
X165176744Y-84844951D01*
X165177279Y-84844914D01*
X165179833Y-84858663D01*
G36*
X165544876Y-84856335D02*
X165586667Y-84875344D01*
X165619469Y-84898378D01*
X165643503Y-84924133D01*
X165660097Y-84957358D01*
X165670577Y-85002800D01*
X165676271Y-85065207D01*
X165678507Y-85149327D01*
X165678743Y-85204721D01*
X165678743Y-85420826D01*
X165641774Y-85437670D01*
X165612656Y-85449981D01*
X165598231Y-85454514D01*
X165595472Y-85441025D01*
X165593282Y-85404653D01*
X165591942Y-85351542D01*
X165591657Y-85309372D01*
X165590434Y-85248447D01*
X165587136Y-85200115D01*
X165582321Y-85170518D01*
X165578496Y-85164229D01*
X165552783Y-85170652D01*
X165512418Y-85187125D01*
X165465679Y-85209458D01*
X165420845Y-85233457D01*
X165386193Y-85254930D01*
X165370002Y-85269685D01*
X165369938Y-85269845D01*
X165371330Y-85297152D01*
X165383818Y-85323219D01*
X165405743Y-85344392D01*
X165437743Y-85351474D01*
X165465092Y-85350649D01*
X165503826Y-85350042D01*
X165524158Y-85359116D01*
X165536369Y-85383092D01*
X165537909Y-85387613D01*
X165543203Y-85421806D01*
X165529047Y-85442568D01*
X165492148Y-85452462D01*
X165452289Y-85454292D01*
X165380562Y-85440727D01*
X165343432Y-85421355D01*
X165297576Y-85375845D01*
X165273256Y-85319983D01*
X165271073Y-85260957D01*
X165291629Y-85205953D01*
X165322549Y-85171486D01*
X165353420Y-85152189D01*
X165401942Y-85127759D01*
X165458485Y-85102985D01*
X165467910Y-85099199D01*
X165530019Y-85071791D01*
X165565822Y-85047634D01*
X165577337Y-85023619D01*
X165566580Y-84996635D01*
X165548114Y-84975543D01*
X165504469Y-84949572D01*
X165456446Y-84947624D01*
X165412406Y-84967637D01*
X165380709Y-85007551D01*
X165376549Y-85017848D01*
X165352327Y-85055724D01*
X165316965Y-85083842D01*
X165272343Y-85106917D01*
X165272343Y-85041485D01*
X165274969Y-85001506D01*
X165286230Y-84969997D01*
X165311199Y-84936378D01*
X165335169Y-84910484D01*
X165372441Y-84873817D01*
X165401401Y-84854121D01*
X165432505Y-84846220D01*
X165467713Y-84844914D01*
X165544876Y-84856335D01*
X165544876Y-84856335D01*
G37*
X165544876Y-84856335D02*
X165586667Y-84875344D01*
X165619469Y-84898378D01*
X165643503Y-84924133D01*
X165660097Y-84957358D01*
X165670577Y-85002800D01*
X165676271Y-85065207D01*
X165678507Y-85149327D01*
X165678743Y-85204721D01*
X165678743Y-85420826D01*
X165641774Y-85437670D01*
X165612656Y-85449981D01*
X165598231Y-85454514D01*
X165595472Y-85441025D01*
X165593282Y-85404653D01*
X165591942Y-85351542D01*
X165591657Y-85309372D01*
X165590434Y-85248447D01*
X165587136Y-85200115D01*
X165582321Y-85170518D01*
X165578496Y-85164229D01*
X165552783Y-85170652D01*
X165512418Y-85187125D01*
X165465679Y-85209458D01*
X165420845Y-85233457D01*
X165386193Y-85254930D01*
X165370002Y-85269685D01*
X165369938Y-85269845D01*
X165371330Y-85297152D01*
X165383818Y-85323219D01*
X165405743Y-85344392D01*
X165437743Y-85351474D01*
X165465092Y-85350649D01*
X165503826Y-85350042D01*
X165524158Y-85359116D01*
X165536369Y-85383092D01*
X165537909Y-85387613D01*
X165543203Y-85421806D01*
X165529047Y-85442568D01*
X165492148Y-85452462D01*
X165452289Y-85454292D01*
X165380562Y-85440727D01*
X165343432Y-85421355D01*
X165297576Y-85375845D01*
X165273256Y-85319983D01*
X165271073Y-85260957D01*
X165291629Y-85205953D01*
X165322549Y-85171486D01*
X165353420Y-85152189D01*
X165401942Y-85127759D01*
X165458485Y-85102985D01*
X165467910Y-85099199D01*
X165530019Y-85071791D01*
X165565822Y-85047634D01*
X165577337Y-85023619D01*
X165566580Y-84996635D01*
X165548114Y-84975543D01*
X165504469Y-84949572D01*
X165456446Y-84947624D01*
X165412406Y-84967637D01*
X165380709Y-85007551D01*
X165376549Y-85017848D01*
X165352327Y-85055724D01*
X165316965Y-85083842D01*
X165272343Y-85106917D01*
X165272343Y-85041485D01*
X165274969Y-85001506D01*
X165286230Y-84969997D01*
X165311199Y-84936378D01*
X165335169Y-84910484D01*
X165372441Y-84873817D01*
X165401401Y-84854121D01*
X165432505Y-84846220D01*
X165467713Y-84844914D01*
X165544876Y-84856335D01*
G36*
X166052600Y-84858752D02*
X166069948Y-84866334D01*
X166111356Y-84899128D01*
X166146765Y-84946547D01*
X166168664Y-84997151D01*
X166172229Y-85022098D01*
X166160279Y-85056927D01*
X166134067Y-85075357D01*
X166105964Y-85086516D01*
X166093095Y-85088572D01*
X166086829Y-85073649D01*
X166074456Y-85041175D01*
X166069028Y-85026502D01*
X166038590Y-84975744D01*
X165994520Y-84950427D01*
X165938010Y-84951206D01*
X165933825Y-84952203D01*
X165903655Y-84966507D01*
X165881476Y-84994393D01*
X165866327Y-85039287D01*
X165857250Y-85104615D01*
X165853286Y-85193804D01*
X165852914Y-85241261D01*
X165852730Y-85316071D01*
X165851522Y-85367069D01*
X165848309Y-85399471D01*
X165842109Y-85418495D01*
X165831940Y-85429356D01*
X165816819Y-85437272D01*
X165815946Y-85437670D01*
X165786828Y-85449981D01*
X165772403Y-85454514D01*
X165770186Y-85440809D01*
X165768289Y-85402925D01*
X165766847Y-85345715D01*
X165765998Y-85274027D01*
X165765829Y-85221565D01*
X165766692Y-85120047D01*
X165770070Y-85043032D01*
X165777142Y-84986023D01*
X165789088Y-84944526D01*
X165807090Y-84914043D01*
X165832327Y-84890080D01*
X165857247Y-84873355D01*
X165917171Y-84851097D01*
X165986911Y-84846076D01*
X166052600Y-84858752D01*
X166052600Y-84858752D01*
G37*
X166052600Y-84858752D02*
X166069948Y-84866334D01*
X166111356Y-84899128D01*
X166146765Y-84946547D01*
X166168664Y-84997151D01*
X166172229Y-85022098D01*
X166160279Y-85056927D01*
X166134067Y-85075357D01*
X166105964Y-85086516D01*
X166093095Y-85088572D01*
X166086829Y-85073649D01*
X166074456Y-85041175D01*
X166069028Y-85026502D01*
X166038590Y-84975744D01*
X165994520Y-84950427D01*
X165938010Y-84951206D01*
X165933825Y-84952203D01*
X165903655Y-84966507D01*
X165881476Y-84994393D01*
X165866327Y-85039287D01*
X165857250Y-85104615D01*
X165853286Y-85193804D01*
X165852914Y-85241261D01*
X165852730Y-85316071D01*
X165851522Y-85367069D01*
X165848309Y-85399471D01*
X165842109Y-85418495D01*
X165831940Y-85429356D01*
X165816819Y-85437272D01*
X165815946Y-85437670D01*
X165786828Y-85449981D01*
X165772403Y-85454514D01*
X165770186Y-85440809D01*
X165768289Y-85402925D01*
X165766847Y-85345715D01*
X165765998Y-85274027D01*
X165765829Y-85221565D01*
X165766692Y-85120047D01*
X165770070Y-85043032D01*
X165777142Y-84986023D01*
X165789088Y-84944526D01*
X165807090Y-84914043D01*
X165832327Y-84890080D01*
X165857247Y-84873355D01*
X165917171Y-84851097D01*
X165986911Y-84846076D01*
X166052600Y-84858752D01*
G36*
X166553595Y-84866966D02*
X166611021Y-84904497D01*
X166638719Y-84938096D01*
X166660662Y-84999064D01*
X166662405Y-85047308D01*
X166658457Y-85111816D01*
X166509686Y-85176934D01*
X166437349Y-85210202D01*
X166390084Y-85236964D01*
X166365507Y-85260144D01*
X166361237Y-85282667D01*
X166374889Y-85307455D01*
X166389943Y-85323886D01*
X166433746Y-85350235D01*
X166481389Y-85352081D01*
X166525145Y-85331546D01*
X166557289Y-85290752D01*
X166563038Y-85276347D01*
X166590576Y-85231356D01*
X166622258Y-85212182D01*
X166665714Y-85195779D01*
X166665714Y-85257966D01*
X166661872Y-85300283D01*
X166646823Y-85335969D01*
X166615280Y-85376943D01*
X166610592Y-85382267D01*
X166575506Y-85418720D01*
X166545347Y-85438283D01*
X166507615Y-85447283D01*
X166476335Y-85450230D01*
X166420385Y-85450965D01*
X166380555Y-85441660D01*
X166355708Y-85427846D01*
X166316656Y-85397467D01*
X166289625Y-85364613D01*
X166272517Y-85323294D01*
X166263238Y-85267521D01*
X166259693Y-85191305D01*
X166259410Y-85152622D01*
X166260372Y-85106247D01*
X166348007Y-85106247D01*
X166349023Y-85131126D01*
X166351556Y-85135200D01*
X166368274Y-85129665D01*
X166404249Y-85115017D01*
X166452331Y-85094190D01*
X166462386Y-85089714D01*
X166523152Y-85058814D01*
X166556632Y-85031657D01*
X166563990Y-85006220D01*
X166546391Y-84980481D01*
X166531856Y-84969109D01*
X166479410Y-84946364D01*
X166430322Y-84950122D01*
X166389227Y-84977884D01*
X166360758Y-85027152D01*
X166351631Y-85066257D01*
X166348007Y-85106247D01*
X166260372Y-85106247D01*
X166261285Y-85062249D01*
X166268196Y-84995384D01*
X166281884Y-84946695D01*
X166304096Y-84910849D01*
X166336574Y-84882513D01*
X166350733Y-84873355D01*
X166415053Y-84849507D01*
X166485473Y-84848006D01*
X166553595Y-84866966D01*
X166553595Y-84866966D01*
G37*
X166553595Y-84866966D02*
X166611021Y-84904497D01*
X166638719Y-84938096D01*
X166660662Y-84999064D01*
X166662405Y-85047308D01*
X166658457Y-85111816D01*
X166509686Y-85176934D01*
X166437349Y-85210202D01*
X166390084Y-85236964D01*
X166365507Y-85260144D01*
X166361237Y-85282667D01*
X166374889Y-85307455D01*
X166389943Y-85323886D01*
X166433746Y-85350235D01*
X166481389Y-85352081D01*
X166525145Y-85331546D01*
X166557289Y-85290752D01*
X166563038Y-85276347D01*
X166590576Y-85231356D01*
X166622258Y-85212182D01*
X166665714Y-85195779D01*
X166665714Y-85257966D01*
X166661872Y-85300283D01*
X166646823Y-85335969D01*
X166615280Y-85376943D01*
X166610592Y-85382267D01*
X166575506Y-85418720D01*
X166545347Y-85438283D01*
X166507615Y-85447283D01*
X166476335Y-85450230D01*
X166420385Y-85450965D01*
X166380555Y-85441660D01*
X166355708Y-85427846D01*
X166316656Y-85397467D01*
X166289625Y-85364613D01*
X166272517Y-85323294D01*
X166263238Y-85267521D01*
X166259693Y-85191305D01*
X166259410Y-85152622D01*
X166260372Y-85106247D01*
X166348007Y-85106247D01*
X166349023Y-85131126D01*
X166351556Y-85135200D01*
X166368274Y-85129665D01*
X166404249Y-85115017D01*
X166452331Y-85094190D01*
X166462386Y-85089714D01*
X166523152Y-85058814D01*
X166556632Y-85031657D01*
X166563990Y-85006220D01*
X166546391Y-84980481D01*
X166531856Y-84969109D01*
X166479410Y-84946364D01*
X166430322Y-84950122D01*
X166389227Y-84977884D01*
X166360758Y-85027152D01*
X166351631Y-85066257D01*
X166348007Y-85106247D01*
X166260372Y-85106247D01*
X166261285Y-85062249D01*
X166268196Y-84995384D01*
X166281884Y-84946695D01*
X166304096Y-84910849D01*
X166336574Y-84882513D01*
X166350733Y-84873355D01*
X166415053Y-84849507D01*
X166485473Y-84848006D01*
X166553595Y-84866966D01*
G36*
X163503910Y-80142348D02*
X163582454Y-80142778D01*
X163639298Y-80143942D01*
X163678105Y-80146207D01*
X163702538Y-80149940D01*
X163716262Y-80155506D01*
X163722940Y-80163273D01*
X163726236Y-80173605D01*
X163726556Y-80174943D01*
X163731562Y-80199079D01*
X163740829Y-80246701D01*
X163753392Y-80312741D01*
X163768287Y-80392128D01*
X163784551Y-80479796D01*
X163785119Y-80482875D01*
X163801410Y-80568789D01*
X163816652Y-80644696D01*
X163829861Y-80706045D01*
X163840054Y-80748282D01*
X163846248Y-80766855D01*
X163846543Y-80767184D01*
X163864788Y-80776253D01*
X163902405Y-80791367D01*
X163951271Y-80809262D01*
X163951543Y-80809358D01*
X164013093Y-80832493D01*
X164085657Y-80861965D01*
X164154057Y-80891597D01*
X164157294Y-80893062D01*
X164268702Y-80943626D01*
X164515399Y-80775160D01*
X164591077Y-80723803D01*
X164659631Y-80677889D01*
X164717088Y-80640030D01*
X164759476Y-80612837D01*
X164782825Y-80598921D01*
X164785042Y-80597889D01*
X164802010Y-80602484D01*
X164833701Y-80624655D01*
X164881352Y-80665447D01*
X164946198Y-80725905D01*
X165012397Y-80790227D01*
X165076214Y-80853612D01*
X165133329Y-80911451D01*
X165180305Y-80960175D01*
X165213703Y-80996210D01*
X165230085Y-81015984D01*
X165230694Y-81017002D01*
X165232505Y-81030572D01*
X165225683Y-81052733D01*
X165208540Y-81086478D01*
X165179393Y-81134800D01*
X165136555Y-81200692D01*
X165079448Y-81285517D01*
X165028766Y-81360177D01*
X164983461Y-81427140D01*
X164946150Y-81482516D01*
X164919452Y-81522420D01*
X164905985Y-81542962D01*
X164905137Y-81544356D01*
X164906781Y-81564038D01*
X164919245Y-81602293D01*
X164940048Y-81651889D01*
X164947462Y-81667728D01*
X164979814Y-81738290D01*
X165014328Y-81818353D01*
X165042365Y-81887629D01*
X165062568Y-81939045D01*
X165078615Y-81978119D01*
X165087888Y-81998541D01*
X165089041Y-82000114D01*
X165106096Y-82002721D01*
X165146298Y-82009863D01*
X165204302Y-82020523D01*
X165274763Y-82033685D01*
X165352335Y-82048333D01*
X165431672Y-82063449D01*
X165507431Y-82078018D01*
X165574264Y-82091022D01*
X165626828Y-82101445D01*
X165659776Y-82108270D01*
X165667857Y-82110199D01*
X165676205Y-82114962D01*
X165682506Y-82125718D01*
X165687045Y-82146098D01*
X165690104Y-82179734D01*
X165691967Y-82230255D01*
X165692918Y-82301292D01*
X165693240Y-82396476D01*
X165693257Y-82435492D01*
X165693257Y-82752799D01*
X165617057Y-82767839D01*
X165574663Y-82775995D01*
X165511400Y-82787899D01*
X165434962Y-82802116D01*
X165353043Y-82817210D01*
X165330400Y-82821355D01*
X165254806Y-82836053D01*
X165188953Y-82850505D01*
X165138366Y-82863375D01*
X165108574Y-82873322D01*
X165103612Y-82876287D01*
X165091426Y-82897283D01*
X165073953Y-82937967D01*
X165054577Y-82990322D01*
X165050734Y-83001600D01*
X165025339Y-83071523D01*
X164993817Y-83150418D01*
X164962969Y-83221266D01*
X164962817Y-83221595D01*
X164911447Y-83332733D01*
X165080399Y-83581253D01*
X165249352Y-83829772D01*
X165032429Y-84047058D01*
X164966819Y-84111726D01*
X164906979Y-84168733D01*
X164856267Y-84215033D01*
X164818046Y-84247584D01*
X164795675Y-84263343D01*
X164792466Y-84264343D01*
X164773626Y-84256469D01*
X164735180Y-84234578D01*
X164681330Y-84201267D01*
X164616276Y-84159131D01*
X164545940Y-84111943D01*
X164474555Y-84063810D01*
X164410908Y-84021928D01*
X164359041Y-83988871D01*
X164322995Y-83967218D01*
X164306867Y-83959543D01*
X164287189Y-83966037D01*
X164249875Y-83983150D01*
X164202621Y-84007326D01*
X164197612Y-84010013D01*
X164133977Y-84041927D01*
X164090341Y-84057579D01*
X164063202Y-84057745D01*
X164049057Y-84043204D01*
X164048975Y-84043000D01*
X164041905Y-84025779D01*
X164025042Y-83984899D01*
X163999695Y-83923525D01*
X163967171Y-83844819D01*
X163928778Y-83751947D01*
X163885822Y-83648072D01*
X163844222Y-83547502D01*
X163798504Y-83436516D01*
X163756526Y-83333703D01*
X163719548Y-83242215D01*
X163688827Y-83165201D01*
X163665622Y-83105815D01*
X163651190Y-83067209D01*
X163646743Y-83052800D01*
X163657896Y-83036272D01*
X163687069Y-83009930D01*
X163725971Y-82980887D01*
X163836757Y-82889039D01*
X163923351Y-82783759D01*
X163984716Y-82667266D01*
X164019815Y-82541776D01*
X164027608Y-82409507D01*
X164021943Y-82348457D01*
X163991078Y-82221795D01*
X163937920Y-82109941D01*
X163865767Y-82014001D01*
X163777917Y-81935076D01*
X163677665Y-81874270D01*
X163568310Y-81832687D01*
X163453147Y-81811428D01*
X163335475Y-81811599D01*
X163218590Y-81834301D01*
X163105789Y-81880638D01*
X163000369Y-81951713D01*
X162956368Y-81991911D01*
X162871979Y-82095129D01*
X162813222Y-82207925D01*
X162779704Y-82327010D01*
X162771035Y-82449095D01*
X162786823Y-82570893D01*
X162826678Y-82689116D01*
X162890207Y-82800475D01*
X162977021Y-82901684D01*
X163074029Y-82980887D01*
X163114437Y-83011162D01*
X163142982Y-83037219D01*
X163153257Y-83052825D01*
X163147877Y-83069843D01*
X163132575Y-83110500D01*
X163108612Y-83171642D01*
X163077244Y-83250119D01*
X163039732Y-83342780D01*
X162997333Y-83446472D01*
X162955663Y-83547526D01*
X162909690Y-83658607D01*
X162867107Y-83761541D01*
X162829221Y-83853165D01*
X162797340Y-83930316D01*
X162772771Y-83989831D01*
X162756820Y-84028544D01*
X162750910Y-84043000D01*
X162736948Y-84057685D01*
X162709940Y-84057642D01*
X162666413Y-84042099D01*
X162602890Y-84010284D01*
X162602388Y-84010013D01*
X162554560Y-83985323D01*
X162515897Y-83967338D01*
X162494095Y-83959614D01*
X162493133Y-83959543D01*
X162476721Y-83967378D01*
X162440487Y-83989165D01*
X162388474Y-84022328D01*
X162324725Y-84064291D01*
X162254060Y-84111943D01*
X162182116Y-84160191D01*
X162117274Y-84202151D01*
X162063735Y-84235227D01*
X162025697Y-84256821D01*
X162007533Y-84264343D01*
X161990808Y-84254457D01*
X161957180Y-84226826D01*
X161910010Y-84184495D01*
X161852658Y-84130505D01*
X161788484Y-84067899D01*
X161767497Y-84046983D01*
X161550499Y-83829623D01*
X161715668Y-83587220D01*
X161765864Y-83512781D01*
X161809919Y-83445972D01*
X161845362Y-83390665D01*
X161869719Y-83350729D01*
X161880522Y-83330036D01*
X161880838Y-83328563D01*
X161875143Y-83309058D01*
X161859826Y-83269822D01*
X161837537Y-83217430D01*
X161821893Y-83182355D01*
X161792641Y-83115201D01*
X161765094Y-83047358D01*
X161743737Y-82990034D01*
X161737935Y-82972572D01*
X161721452Y-82925938D01*
X161705340Y-82889905D01*
X161696490Y-82876287D01*
X161676960Y-82867952D01*
X161634334Y-82856137D01*
X161574145Y-82842181D01*
X161501922Y-82827422D01*
X161469600Y-82821355D01*
X161387522Y-82806273D01*
X161308795Y-82791669D01*
X161241109Y-82778980D01*
X161192160Y-82769642D01*
X161182943Y-82767839D01*
X161106743Y-82752799D01*
X161106743Y-82435492D01*
X161106914Y-82331154D01*
X161107616Y-82252213D01*
X161109134Y-82195038D01*
X161111749Y-82155999D01*
X161115746Y-82131465D01*
X161121409Y-82117805D01*
X161129020Y-82111389D01*
X161132143Y-82110199D01*
X161150978Y-82105980D01*
X161192588Y-82097562D01*
X161251630Y-82085961D01*
X161322757Y-82072195D01*
X161400625Y-82057280D01*
X161479887Y-82042232D01*
X161555198Y-82028069D01*
X161621213Y-82015806D01*
X161672587Y-82006461D01*
X161703975Y-82001050D01*
X161710959Y-82000114D01*
X161717285Y-81987596D01*
X161731290Y-81954246D01*
X161750355Y-81906377D01*
X161757634Y-81887629D01*
X161786996Y-81815195D01*
X161821571Y-81735170D01*
X161852537Y-81667728D01*
X161875323Y-81616159D01*
X161890482Y-81573785D01*
X161895542Y-81547834D01*
X161894736Y-81544356D01*
X161884041Y-81527936D01*
X161859620Y-81491417D01*
X161824095Y-81438687D01*
X161780087Y-81373635D01*
X161730217Y-81300151D01*
X161720356Y-81285645D01*
X161662492Y-81199704D01*
X161619956Y-81134261D01*
X161591054Y-81086304D01*
X161574090Y-81052820D01*
X161567367Y-81030795D01*
X161569190Y-81017217D01*
X161569236Y-81017131D01*
X161583586Y-80999297D01*
X161615323Y-80964817D01*
X161661010Y-80917268D01*
X161717204Y-80860222D01*
X161780468Y-80797255D01*
X161787602Y-80790227D01*
X161867330Y-80713020D01*
X161928857Y-80656330D01*
X161973421Y-80619110D01*
X162002257Y-80600315D01*
X162014958Y-80597889D01*
X162033494Y-80608471D01*
X162071961Y-80632916D01*
X162126386Y-80668612D01*
X162192798Y-80712947D01*
X162267225Y-80763311D01*
X162284601Y-80775160D01*
X162531297Y-80943626D01*
X162642706Y-80893062D01*
X162710457Y-80863595D01*
X162783183Y-80833959D01*
X162845703Y-80810330D01*
X162848457Y-80809358D01*
X162897360Y-80791457D01*
X162935057Y-80776320D01*
X162953425Y-80767210D01*
X162953456Y-80767184D01*
X162959285Y-80750717D01*
X162969192Y-80710219D01*
X162982195Y-80650242D01*
X162997309Y-80575340D01*
X163013552Y-80490064D01*
X163014881Y-80482875D01*
X163031175Y-80395014D01*
X163046133Y-80315260D01*
X163058791Y-80248681D01*
X163068186Y-80200347D01*
X163073354Y-80175325D01*
X163073444Y-80174943D01*
X163076589Y-80164299D01*
X163082704Y-80156262D01*
X163095453Y-80150467D01*
X163118500Y-80146547D01*
X163155509Y-80144135D01*
X163210144Y-80142865D01*
X163286067Y-80142371D01*
X163386944Y-80142286D01*
X163400000Y-80142286D01*
X163503910Y-80142348D01*
X163503910Y-80142348D01*
G37*
X163503910Y-80142348D02*
X163582454Y-80142778D01*
X163639298Y-80143942D01*
X163678105Y-80146207D01*
X163702538Y-80149940D01*
X163716262Y-80155506D01*
X163722940Y-80163273D01*
X163726236Y-80173605D01*
X163726556Y-80174943D01*
X163731562Y-80199079D01*
X163740829Y-80246701D01*
X163753392Y-80312741D01*
X163768287Y-80392128D01*
X163784551Y-80479796D01*
X163785119Y-80482875D01*
X163801410Y-80568789D01*
X163816652Y-80644696D01*
X163829861Y-80706045D01*
X163840054Y-80748282D01*
X163846248Y-80766855D01*
X163846543Y-80767184D01*
X163864788Y-80776253D01*
X163902405Y-80791367D01*
X163951271Y-80809262D01*
X163951543Y-80809358D01*
X164013093Y-80832493D01*
X164085657Y-80861965D01*
X164154057Y-80891597D01*
X164157294Y-80893062D01*
X164268702Y-80943626D01*
X164515399Y-80775160D01*
X164591077Y-80723803D01*
X164659631Y-80677889D01*
X164717088Y-80640030D01*
X164759476Y-80612837D01*
X164782825Y-80598921D01*
X164785042Y-80597889D01*
X164802010Y-80602484D01*
X164833701Y-80624655D01*
X164881352Y-80665447D01*
X164946198Y-80725905D01*
X165012397Y-80790227D01*
X165076214Y-80853612D01*
X165133329Y-80911451D01*
X165180305Y-80960175D01*
X165213703Y-80996210D01*
X165230085Y-81015984D01*
X165230694Y-81017002D01*
X165232505Y-81030572D01*
X165225683Y-81052733D01*
X165208540Y-81086478D01*
X165179393Y-81134800D01*
X165136555Y-81200692D01*
X165079448Y-81285517D01*
X165028766Y-81360177D01*
X164983461Y-81427140D01*
X164946150Y-81482516D01*
X164919452Y-81522420D01*
X164905985Y-81542962D01*
X164905137Y-81544356D01*
X164906781Y-81564038D01*
X164919245Y-81602293D01*
X164940048Y-81651889D01*
X164947462Y-81667728D01*
X164979814Y-81738290D01*
X165014328Y-81818353D01*
X165042365Y-81887629D01*
X165062568Y-81939045D01*
X165078615Y-81978119D01*
X165087888Y-81998541D01*
X165089041Y-82000114D01*
X165106096Y-82002721D01*
X165146298Y-82009863D01*
X165204302Y-82020523D01*
X165274763Y-82033685D01*
X165352335Y-82048333D01*
X165431672Y-82063449D01*
X165507431Y-82078018D01*
X165574264Y-82091022D01*
X165626828Y-82101445D01*
X165659776Y-82108270D01*
X165667857Y-82110199D01*
X165676205Y-82114962D01*
X165682506Y-82125718D01*
X165687045Y-82146098D01*
X165690104Y-82179734D01*
X165691967Y-82230255D01*
X165692918Y-82301292D01*
X165693240Y-82396476D01*
X165693257Y-82435492D01*
X165693257Y-82752799D01*
X165617057Y-82767839D01*
X165574663Y-82775995D01*
X165511400Y-82787899D01*
X165434962Y-82802116D01*
X165353043Y-82817210D01*
X165330400Y-82821355D01*
X165254806Y-82836053D01*
X165188953Y-82850505D01*
X165138366Y-82863375D01*
X165108574Y-82873322D01*
X165103612Y-82876287D01*
X165091426Y-82897283D01*
X165073953Y-82937967D01*
X165054577Y-82990322D01*
X165050734Y-83001600D01*
X165025339Y-83071523D01*
X164993817Y-83150418D01*
X164962969Y-83221266D01*
X164962817Y-83221595D01*
X164911447Y-83332733D01*
X165080399Y-83581253D01*
X165249352Y-83829772D01*
X165032429Y-84047058D01*
X164966819Y-84111726D01*
X164906979Y-84168733D01*
X164856267Y-84215033D01*
X164818046Y-84247584D01*
X164795675Y-84263343D01*
X164792466Y-84264343D01*
X164773626Y-84256469D01*
X164735180Y-84234578D01*
X164681330Y-84201267D01*
X164616276Y-84159131D01*
X164545940Y-84111943D01*
X164474555Y-84063810D01*
X164410908Y-84021928D01*
X164359041Y-83988871D01*
X164322995Y-83967218D01*
X164306867Y-83959543D01*
X164287189Y-83966037D01*
X164249875Y-83983150D01*
X164202621Y-84007326D01*
X164197612Y-84010013D01*
X164133977Y-84041927D01*
X164090341Y-84057579D01*
X164063202Y-84057745D01*
X164049057Y-84043204D01*
X164048975Y-84043000D01*
X164041905Y-84025779D01*
X164025042Y-83984899D01*
X163999695Y-83923525D01*
X163967171Y-83844819D01*
X163928778Y-83751947D01*
X163885822Y-83648072D01*
X163844222Y-83547502D01*
X163798504Y-83436516D01*
X163756526Y-83333703D01*
X163719548Y-83242215D01*
X163688827Y-83165201D01*
X163665622Y-83105815D01*
X163651190Y-83067209D01*
X163646743Y-83052800D01*
X163657896Y-83036272D01*
X163687069Y-83009930D01*
X163725971Y-82980887D01*
X163836757Y-82889039D01*
X163923351Y-82783759D01*
X163984716Y-82667266D01*
X164019815Y-82541776D01*
X164027608Y-82409507D01*
X164021943Y-82348457D01*
X163991078Y-82221795D01*
X163937920Y-82109941D01*
X163865767Y-82014001D01*
X163777917Y-81935076D01*
X163677665Y-81874270D01*
X163568310Y-81832687D01*
X163453147Y-81811428D01*
X163335475Y-81811599D01*
X163218590Y-81834301D01*
X163105789Y-81880638D01*
X163000369Y-81951713D01*
X162956368Y-81991911D01*
X162871979Y-82095129D01*
X162813222Y-82207925D01*
X162779704Y-82327010D01*
X162771035Y-82449095D01*
X162786823Y-82570893D01*
X162826678Y-82689116D01*
X162890207Y-82800475D01*
X162977021Y-82901684D01*
X163074029Y-82980887D01*
X163114437Y-83011162D01*
X163142982Y-83037219D01*
X163153257Y-83052825D01*
X163147877Y-83069843D01*
X163132575Y-83110500D01*
X163108612Y-83171642D01*
X163077244Y-83250119D01*
X163039732Y-83342780D01*
X162997333Y-83446472D01*
X162955663Y-83547526D01*
X162909690Y-83658607D01*
X162867107Y-83761541D01*
X162829221Y-83853165D01*
X162797340Y-83930316D01*
X162772771Y-83989831D01*
X162756820Y-84028544D01*
X162750910Y-84043000D01*
X162736948Y-84057685D01*
X162709940Y-84057642D01*
X162666413Y-84042099D01*
X162602890Y-84010284D01*
X162602388Y-84010013D01*
X162554560Y-83985323D01*
X162515897Y-83967338D01*
X162494095Y-83959614D01*
X162493133Y-83959543D01*
X162476721Y-83967378D01*
X162440487Y-83989165D01*
X162388474Y-84022328D01*
X162324725Y-84064291D01*
X162254060Y-84111943D01*
X162182116Y-84160191D01*
X162117274Y-84202151D01*
X162063735Y-84235227D01*
X162025697Y-84256821D01*
X162007533Y-84264343D01*
X161990808Y-84254457D01*
X161957180Y-84226826D01*
X161910010Y-84184495D01*
X161852658Y-84130505D01*
X161788484Y-84067899D01*
X161767497Y-84046983D01*
X161550499Y-83829623D01*
X161715668Y-83587220D01*
X161765864Y-83512781D01*
X161809919Y-83445972D01*
X161845362Y-83390665D01*
X161869719Y-83350729D01*
X161880522Y-83330036D01*
X161880838Y-83328563D01*
X161875143Y-83309058D01*
X161859826Y-83269822D01*
X161837537Y-83217430D01*
X161821893Y-83182355D01*
X161792641Y-83115201D01*
X161765094Y-83047358D01*
X161743737Y-82990034D01*
X161737935Y-82972572D01*
X161721452Y-82925938D01*
X161705340Y-82889905D01*
X161696490Y-82876287D01*
X161676960Y-82867952D01*
X161634334Y-82856137D01*
X161574145Y-82842181D01*
X161501922Y-82827422D01*
X161469600Y-82821355D01*
X161387522Y-82806273D01*
X161308795Y-82791669D01*
X161241109Y-82778980D01*
X161192160Y-82769642D01*
X161182943Y-82767839D01*
X161106743Y-82752799D01*
X161106743Y-82435492D01*
X161106914Y-82331154D01*
X161107616Y-82252213D01*
X161109134Y-82195038D01*
X161111749Y-82155999D01*
X161115746Y-82131465D01*
X161121409Y-82117805D01*
X161129020Y-82111389D01*
X161132143Y-82110199D01*
X161150978Y-82105980D01*
X161192588Y-82097562D01*
X161251630Y-82085961D01*
X161322757Y-82072195D01*
X161400625Y-82057280D01*
X161479887Y-82042232D01*
X161555198Y-82028069D01*
X161621213Y-82015806D01*
X161672587Y-82006461D01*
X161703975Y-82001050D01*
X161710959Y-82000114D01*
X161717285Y-81987596D01*
X161731290Y-81954246D01*
X161750355Y-81906377D01*
X161757634Y-81887629D01*
X161786996Y-81815195D01*
X161821571Y-81735170D01*
X161852537Y-81667728D01*
X161875323Y-81616159D01*
X161890482Y-81573785D01*
X161895542Y-81547834D01*
X161894736Y-81544356D01*
X161884041Y-81527936D01*
X161859620Y-81491417D01*
X161824095Y-81438687D01*
X161780087Y-81373635D01*
X161730217Y-81300151D01*
X161720356Y-81285645D01*
X161662492Y-81199704D01*
X161619956Y-81134261D01*
X161591054Y-81086304D01*
X161574090Y-81052820D01*
X161567367Y-81030795D01*
X161569190Y-81017217D01*
X161569236Y-81017131D01*
X161583586Y-80999297D01*
X161615323Y-80964817D01*
X161661010Y-80917268D01*
X161717204Y-80860222D01*
X161780468Y-80797255D01*
X161787602Y-80790227D01*
X161867330Y-80713020D01*
X161928857Y-80656330D01*
X161973421Y-80619110D01*
X162002257Y-80600315D01*
X162014958Y-80597889D01*
X162033494Y-80608471D01*
X162071961Y-80632916D01*
X162126386Y-80668612D01*
X162192798Y-80712947D01*
X162267225Y-80763311D01*
X162284601Y-80775160D01*
X162531297Y-80943626D01*
X162642706Y-80893062D01*
X162710457Y-80863595D01*
X162783183Y-80833959D01*
X162845703Y-80810330D01*
X162848457Y-80809358D01*
X162897360Y-80791457D01*
X162935057Y-80776320D01*
X162953425Y-80767210D01*
X162953456Y-80767184D01*
X162959285Y-80750717D01*
X162969192Y-80710219D01*
X162982195Y-80650242D01*
X162997309Y-80575340D01*
X163013552Y-80490064D01*
X163014881Y-80482875D01*
X163031175Y-80395014D01*
X163046133Y-80315260D01*
X163058791Y-80248681D01*
X163068186Y-80200347D01*
X163073354Y-80175325D01*
X163073444Y-80174943D01*
X163076589Y-80164299D01*
X163082704Y-80156262D01*
X163095453Y-80150467D01*
X163118500Y-80146547D01*
X163155509Y-80144135D01*
X163210144Y-80142865D01*
X163286067Y-80142371D01*
X163386944Y-80142286D01*
X163400000Y-80142286D01*
X163503910Y-80142348D01*
D12*
X144200000Y-121700000D02*
X145750000Y-121700000D01*
X144200000Y-123200000D02*
X144200000Y-121700000D01*
X145750000Y-123200000D02*
X144200000Y-123200000D01*
X145750000Y-121700000D02*
X145750000Y-123200000D01*
X146900000Y-105100000D02*
X146900000Y-106900000D01*
X146900000Y-106900000D02*
X143100000Y-106900000D01*
X143100000Y-106900000D02*
X143100000Y-105100000D01*
X143100000Y-105100000D02*
X146900000Y-105100000D01*
D13*
X144900000Y-105200000D02*
X144900000Y-106800000D01*
X145100000Y-105800000D02*
X145100000Y-106200000D01*
D12*
X144750000Y-108225000D02*
X145250000Y-108225000D01*
X145250000Y-107175000D02*
X144750000Y-107175000D01*
X147850000Y-102900000D02*
X147850000Y-103600000D01*
X146650000Y-103600000D02*
X146650000Y-102900000D01*
X160400000Y-109600000D02*
X160400000Y-108900000D01*
X161600000Y-108900000D02*
X161600000Y-109600000D01*
X151150000Y-92650000D02*
X151850000Y-92650000D01*
X151850000Y-93850000D02*
X151150000Y-93850000D01*
X158150000Y-108150000D02*
X158850000Y-108150000D01*
X158850000Y-109350000D02*
X158150000Y-109350000D01*
X152350000Y-109350000D02*
X151650000Y-109350000D01*
X151650000Y-108150000D02*
X152350000Y-108150000D01*
X147400000Y-122350000D02*
X147400000Y-121650000D01*
X148600000Y-121650000D02*
X148600000Y-122350000D01*
X148100000Y-106650000D02*
X148100000Y-107350000D01*
X146900000Y-107350000D02*
X146900000Y-106650000D01*
X146650000Y-97100000D02*
X146650000Y-96400000D01*
X147850000Y-96400000D02*
X147850000Y-97100000D01*
X147850000Y-99900000D02*
X147850000Y-100600000D01*
X146650000Y-100600000D02*
X146650000Y-99900000D01*
X162150000Y-97850000D02*
X162150000Y-97150000D01*
X163350000Y-97150000D02*
X163350000Y-97850000D01*
X128700000Y-118400000D02*
X128700000Y-121700000D01*
X131300000Y-118400000D02*
X131300000Y-121600000D01*
X130300000Y-122300000D02*
X129700000Y-122300000D01*
X129700000Y-117700000D02*
X130300000Y-117700000D01*
D14*
X135300000Y-107200000D02*
G75*
G03X135300000Y-107200000I-6500000J0D01*
G01*
D16*
X125000000Y-107200000D02*
G75*
G03X125000000Y-107200000I-1200000J0D01*
G01*
D12*
X138100000Y-107000000D02*
X138100000Y-104000000D01*
X139900000Y-107000000D02*
X139900000Y-104000000D01*
X139875000Y-109400000D02*
X139875000Y-110600000D01*
X138125000Y-110600000D02*
X138125000Y-109400000D01*
D10*
X151926190Y-69380952D02*
X152330952Y-69380952D01*
X152378571Y-69357142D01*
X152402380Y-69333333D01*
X152426190Y-69285714D01*
X152426190Y-69190476D01*
X152402380Y-69142857D01*
X152378571Y-69119047D01*
X152330952Y-69095238D01*
X151926190Y-69095238D01*
X152426190Y-68595238D02*
X152426190Y-68880952D01*
X152426190Y-68738095D02*
X151926190Y-68738095D01*
X151997619Y-68785714D01*
X152045238Y-68833333D01*
X152069047Y-68880952D01*
X131552380Y-69973809D02*
X131504761Y-69950000D01*
X131457142Y-69902380D01*
X131385714Y-69830952D01*
X131338095Y-69807142D01*
X131290476Y-69807142D01*
X131314285Y-69926190D02*
X131266666Y-69902380D01*
X131219047Y-69854761D01*
X131195238Y-69759523D01*
X131195238Y-69592857D01*
X131219047Y-69497619D01*
X131266666Y-69450000D01*
X131314285Y-69426190D01*
X131409523Y-69426190D01*
X131457142Y-69450000D01*
X131504761Y-69497619D01*
X131528571Y-69592857D01*
X131528571Y-69759523D01*
X131504761Y-69854761D01*
X131457142Y-69902380D01*
X131409523Y-69926190D01*
X131314285Y-69926190D01*
X132004761Y-69926190D02*
X131719047Y-69926190D01*
X131861904Y-69926190D02*
X131861904Y-69426190D01*
X131814285Y-69497619D01*
X131766666Y-69545238D01*
X131719047Y-69569047D01*
X144214285Y-82483333D02*
X144452380Y-82483333D01*
X144166666Y-82626190D02*
X144333333Y-82126190D01*
X144500000Y-82626190D01*
X144833333Y-82364285D02*
X144666666Y-82364285D01*
X144666666Y-82626190D02*
X144666666Y-82126190D01*
X144904761Y-82126190D01*
X145261904Y-82364285D02*
X145095238Y-82364285D01*
X145095238Y-82626190D02*
X145095238Y-82126190D01*
X145333333Y-82126190D01*
X145785714Y-82626190D02*
X145500000Y-82626190D01*
X145642857Y-82626190D02*
X145642857Y-82126190D01*
X145595238Y-82197619D01*
X145547619Y-82245238D01*
X145500000Y-82269047D01*
X144678571Y-95978571D02*
X144654761Y-96002380D01*
X144583333Y-96026190D01*
X144535714Y-96026190D01*
X144464285Y-96002380D01*
X144416666Y-95954761D01*
X144392857Y-95907142D01*
X144369047Y-95811904D01*
X144369047Y-95740476D01*
X144392857Y-95645238D01*
X144416666Y-95597619D01*
X144464285Y-95550000D01*
X144535714Y-95526190D01*
X144583333Y-95526190D01*
X144654761Y-95550000D01*
X144678571Y-95573809D01*
X145154761Y-96026190D02*
X144869047Y-96026190D01*
X145011904Y-96026190D02*
X145011904Y-95526190D01*
X144964285Y-95597619D01*
X144916666Y-95645238D01*
X144869047Y-95669047D01*
X145392857Y-96026190D02*
X145488095Y-96026190D01*
X145535714Y-96002380D01*
X145559523Y-95978571D01*
X145607142Y-95907142D01*
X145630952Y-95811904D01*
X145630952Y-95621428D01*
X145607142Y-95573809D01*
X145583333Y-95550000D01*
X145535714Y-95526190D01*
X145440476Y-95526190D01*
X145392857Y-95550000D01*
X145369047Y-95573809D01*
X145345238Y-95621428D01*
X145345238Y-95740476D01*
X145369047Y-95788095D01*
X145392857Y-95811904D01*
X145440476Y-95835714D01*
X145535714Y-95835714D01*
X145583333Y-95811904D01*
X145607142Y-95788095D01*
X145630952Y-95740476D01*
X139626190Y-92821428D02*
X139388095Y-92988095D01*
X139626190Y-93107142D02*
X139126190Y-93107142D01*
X139126190Y-92916666D01*
X139150000Y-92869047D01*
X139173809Y-92845238D01*
X139221428Y-92821428D01*
X139292857Y-92821428D01*
X139340476Y-92845238D01*
X139364285Y-92869047D01*
X139388095Y-92916666D01*
X139388095Y-93107142D01*
X139626190Y-92345238D02*
X139626190Y-92630952D01*
X139626190Y-92488095D02*
X139126190Y-92488095D01*
X139197619Y-92535714D01*
X139245238Y-92583333D01*
X139269047Y-92630952D01*
X139292857Y-91916666D02*
X139626190Y-91916666D01*
X139102380Y-92035714D02*
X139459523Y-92154761D01*
X139459523Y-91845238D01*
X136726190Y-95821428D02*
X136488095Y-95988095D01*
X136726190Y-96107142D02*
X136226190Y-96107142D01*
X136226190Y-95916666D01*
X136250000Y-95869047D01*
X136273809Y-95845238D01*
X136321428Y-95821428D01*
X136392857Y-95821428D01*
X136440476Y-95845238D01*
X136464285Y-95869047D01*
X136488095Y-95916666D01*
X136488095Y-96107142D01*
X136726190Y-95345238D02*
X136726190Y-95630952D01*
X136726190Y-95488095D02*
X136226190Y-95488095D01*
X136297619Y-95535714D01*
X136345238Y-95583333D01*
X136369047Y-95630952D01*
X136226190Y-95178571D02*
X136226190Y-94869047D01*
X136416666Y-95035714D01*
X136416666Y-94964285D01*
X136440476Y-94916666D01*
X136464285Y-94892857D01*
X136511904Y-94869047D01*
X136630952Y-94869047D01*
X136678571Y-94892857D01*
X136702380Y-94916666D01*
X136726190Y-94964285D01*
X136726190Y-95107142D01*
X136702380Y-95154761D01*
X136678571Y-95178571D01*
X136278571Y-93921428D02*
X136302380Y-93945238D01*
X136326190Y-94016666D01*
X136326190Y-94064285D01*
X136302380Y-94135714D01*
X136254761Y-94183333D01*
X136207142Y-94207142D01*
X136111904Y-94230952D01*
X136040476Y-94230952D01*
X135945238Y-94207142D01*
X135897619Y-94183333D01*
X135850000Y-94135714D01*
X135826190Y-94064285D01*
X135826190Y-94016666D01*
X135850000Y-93945238D01*
X135873809Y-93921428D01*
X135873809Y-93730952D02*
X135850000Y-93707142D01*
X135826190Y-93659523D01*
X135826190Y-93540476D01*
X135850000Y-93492857D01*
X135873809Y-93469047D01*
X135921428Y-93445238D01*
X135969047Y-93445238D01*
X136040476Y-93469047D01*
X136326190Y-93754761D01*
X136326190Y-93445238D01*
X135826190Y-93135714D02*
X135826190Y-93088095D01*
X135850000Y-93040476D01*
X135873809Y-93016666D01*
X135921428Y-92992857D01*
X136016666Y-92969047D01*
X136135714Y-92969047D01*
X136230952Y-92992857D01*
X136278571Y-93016666D01*
X136302380Y-93040476D01*
X136326190Y-93088095D01*
X136326190Y-93135714D01*
X136302380Y-93183333D01*
X136278571Y-93207142D01*
X136230952Y-93230952D01*
X136135714Y-93254761D01*
X136016666Y-93254761D01*
X135921428Y-93230952D01*
X135873809Y-93207142D01*
X135850000Y-93183333D01*
X135826190Y-93135714D01*
X142845238Y-99976190D02*
X143178571Y-100476190D01*
X143178571Y-99976190D02*
X142845238Y-100476190D01*
X143630952Y-100476190D02*
X143345238Y-100476190D01*
X143488095Y-100476190D02*
X143488095Y-99976190D01*
X143440476Y-100047619D01*
X143392857Y-100095238D01*
X143345238Y-100119047D01*
X153978571Y-91521428D02*
X154002380Y-91545238D01*
X154026190Y-91616666D01*
X154026190Y-91664285D01*
X154002380Y-91735714D01*
X153954761Y-91783333D01*
X153907142Y-91807142D01*
X153811904Y-91830952D01*
X153740476Y-91830952D01*
X153645238Y-91807142D01*
X153597619Y-91783333D01*
X153550000Y-91735714D01*
X153526190Y-91664285D01*
X153526190Y-91616666D01*
X153550000Y-91545238D01*
X153573809Y-91521428D01*
X154026190Y-91045238D02*
X154026190Y-91330952D01*
X154026190Y-91188095D02*
X153526190Y-91188095D01*
X153597619Y-91235714D01*
X153645238Y-91283333D01*
X153669047Y-91330952D01*
X153526190Y-90616666D02*
X153526190Y-90711904D01*
X153550000Y-90759523D01*
X153573809Y-90783333D01*
X153645238Y-90830952D01*
X153740476Y-90854761D01*
X153930952Y-90854761D01*
X153978571Y-90830952D01*
X154002380Y-90807142D01*
X154026190Y-90759523D01*
X154026190Y-90664285D01*
X154002380Y-90616666D01*
X153978571Y-90592857D01*
X153930952Y-90569047D01*
X153811904Y-90569047D01*
X153764285Y-90592857D01*
X153740476Y-90616666D01*
X153716666Y-90664285D01*
X153716666Y-90759523D01*
X153740476Y-90807142D01*
X153764285Y-90830952D01*
X153811904Y-90854761D01*
X148869047Y-95226190D02*
X148869047Y-95630952D01*
X148892857Y-95678571D01*
X148916666Y-95702380D01*
X148964285Y-95726190D01*
X149059523Y-95726190D01*
X149107142Y-95702380D01*
X149130952Y-95678571D01*
X149154761Y-95630952D01*
X149154761Y-95226190D01*
X149345238Y-95226190D02*
X149654761Y-95226190D01*
X149488095Y-95416666D01*
X149559523Y-95416666D01*
X149607142Y-95440476D01*
X149630952Y-95464285D01*
X149654761Y-95511904D01*
X149654761Y-95630952D01*
X149630952Y-95678571D01*
X149607142Y-95702380D01*
X149559523Y-95726190D01*
X149416666Y-95726190D01*
X149369047Y-95702380D01*
X149345238Y-95678571D01*
X157928571Y-124021428D02*
X157952380Y-124045238D01*
X157976190Y-124116666D01*
X157976190Y-124164285D01*
X157952380Y-124235714D01*
X157904761Y-124283333D01*
X157857142Y-124307142D01*
X157761904Y-124330952D01*
X157690476Y-124330952D01*
X157595238Y-124307142D01*
X157547619Y-124283333D01*
X157500000Y-124235714D01*
X157476190Y-124164285D01*
X157476190Y-124116666D01*
X157500000Y-124045238D01*
X157523809Y-124021428D01*
X157976190Y-123545238D02*
X157976190Y-123830952D01*
X157976190Y-123688095D02*
X157476190Y-123688095D01*
X157547619Y-123735714D01*
X157595238Y-123783333D01*
X157619047Y-123830952D01*
X157476190Y-123378571D02*
X157476190Y-123045238D01*
X157976190Y-123259523D01*
X141619047Y-91726190D02*
X141619047Y-92130952D01*
X141642857Y-92178571D01*
X141666666Y-92202380D01*
X141714285Y-92226190D01*
X141809523Y-92226190D01*
X141857142Y-92202380D01*
X141880952Y-92178571D01*
X141904761Y-92130952D01*
X141904761Y-91726190D01*
X142380952Y-91726190D02*
X142142857Y-91726190D01*
X142119047Y-91964285D01*
X142142857Y-91940476D01*
X142190476Y-91916666D01*
X142309523Y-91916666D01*
X142357142Y-91940476D01*
X142380952Y-91964285D01*
X142404761Y-92011904D01*
X142404761Y-92130952D01*
X142380952Y-92178571D01*
X142357142Y-92202380D01*
X142309523Y-92226190D01*
X142190476Y-92226190D01*
X142142857Y-92202380D01*
X142119047Y-92178571D01*
X146178571Y-74083333D02*
X146202380Y-74107142D01*
X146226190Y-74178571D01*
X146226190Y-74226190D01*
X146202380Y-74297619D01*
X146154761Y-74345238D01*
X146107142Y-74369047D01*
X146011904Y-74392857D01*
X145940476Y-74392857D01*
X145845238Y-74369047D01*
X145797619Y-74345238D01*
X145750000Y-74297619D01*
X145726190Y-74226190D01*
X145726190Y-74178571D01*
X145750000Y-74107142D01*
X145773809Y-74083333D01*
X146226190Y-73607142D02*
X146226190Y-73892857D01*
X146226190Y-73750000D02*
X145726190Y-73750000D01*
X145797619Y-73797619D01*
X145845238Y-73845238D01*
X145869047Y-73892857D01*
X156316666Y-67578571D02*
X156292857Y-67602380D01*
X156221428Y-67626190D01*
X156173809Y-67626190D01*
X156102380Y-67602380D01*
X156054761Y-67554761D01*
X156030952Y-67507142D01*
X156007142Y-67411904D01*
X156007142Y-67340476D01*
X156030952Y-67245238D01*
X156054761Y-67197619D01*
X156102380Y-67150000D01*
X156173809Y-67126190D01*
X156221428Y-67126190D01*
X156292857Y-67150000D01*
X156316666Y-67173809D01*
X156507142Y-67173809D02*
X156530952Y-67150000D01*
X156578571Y-67126190D01*
X156697619Y-67126190D01*
X156745238Y-67150000D01*
X156769047Y-67173809D01*
X156792857Y-67221428D01*
X156792857Y-67269047D01*
X156769047Y-67340476D01*
X156483333Y-67626190D01*
X156792857Y-67626190D01*
X160478571Y-75583333D02*
X160502380Y-75607142D01*
X160526190Y-75678571D01*
X160526190Y-75726190D01*
X160502380Y-75797619D01*
X160454761Y-75845238D01*
X160407142Y-75869047D01*
X160311904Y-75892857D01*
X160240476Y-75892857D01*
X160145238Y-75869047D01*
X160097619Y-75845238D01*
X160050000Y-75797619D01*
X160026190Y-75726190D01*
X160026190Y-75678571D01*
X160050000Y-75607142D01*
X160073809Y-75583333D01*
X160026190Y-75416666D02*
X160026190Y-75107142D01*
X160216666Y-75273809D01*
X160216666Y-75202380D01*
X160240476Y-75154761D01*
X160264285Y-75130952D01*
X160311904Y-75107142D01*
X160430952Y-75107142D01*
X160478571Y-75130952D01*
X160502380Y-75154761D01*
X160526190Y-75202380D01*
X160526190Y-75345238D01*
X160502380Y-75392857D01*
X160478571Y-75416666D01*
X143928571Y-103333333D02*
X143952380Y-103357142D01*
X143976190Y-103428571D01*
X143976190Y-103476190D01*
X143952380Y-103547619D01*
X143904761Y-103595238D01*
X143857142Y-103619047D01*
X143761904Y-103642857D01*
X143690476Y-103642857D01*
X143595238Y-103619047D01*
X143547619Y-103595238D01*
X143500000Y-103547619D01*
X143476190Y-103476190D01*
X143476190Y-103428571D01*
X143500000Y-103357142D01*
X143523809Y-103333333D01*
X143476190Y-102904761D02*
X143476190Y-103000000D01*
X143500000Y-103047619D01*
X143523809Y-103071428D01*
X143595238Y-103119047D01*
X143690476Y-103142857D01*
X143880952Y-103142857D01*
X143928571Y-103119047D01*
X143952380Y-103095238D01*
X143976190Y-103047619D01*
X143976190Y-102952380D01*
X143952380Y-102904761D01*
X143928571Y-102880952D01*
X143880952Y-102857142D01*
X143761904Y-102857142D01*
X143714285Y-102880952D01*
X143690476Y-102904761D01*
X143666666Y-102952380D01*
X143666666Y-103047619D01*
X143690476Y-103095238D01*
X143714285Y-103119047D01*
X143761904Y-103142857D01*
X164178571Y-106083333D02*
X164202380Y-106107142D01*
X164226190Y-106178571D01*
X164226190Y-106226190D01*
X164202380Y-106297619D01*
X164154761Y-106345238D01*
X164107142Y-106369047D01*
X164011904Y-106392857D01*
X163940476Y-106392857D01*
X163845238Y-106369047D01*
X163797619Y-106345238D01*
X163750000Y-106297619D01*
X163726190Y-106226190D01*
X163726190Y-106178571D01*
X163750000Y-106107142D01*
X163773809Y-106083333D01*
X163726190Y-105916666D02*
X163726190Y-105583333D01*
X164226190Y-105797619D01*
X166478571Y-97821428D02*
X166502380Y-97845238D01*
X166526190Y-97916666D01*
X166526190Y-97964285D01*
X166502380Y-98035714D01*
X166454761Y-98083333D01*
X166407142Y-98107142D01*
X166311904Y-98130952D01*
X166240476Y-98130952D01*
X166145238Y-98107142D01*
X166097619Y-98083333D01*
X166050000Y-98035714D01*
X166026190Y-97964285D01*
X166026190Y-97916666D01*
X166050000Y-97845238D01*
X166073809Y-97821428D01*
X166526190Y-97345238D02*
X166526190Y-97630952D01*
X166526190Y-97488095D02*
X166026190Y-97488095D01*
X166097619Y-97535714D01*
X166145238Y-97583333D01*
X166169047Y-97630952D01*
X166026190Y-97035714D02*
X166026190Y-96988095D01*
X166050000Y-96940476D01*
X166073809Y-96916666D01*
X166121428Y-96892857D01*
X166216666Y-96869047D01*
X166335714Y-96869047D01*
X166430952Y-96892857D01*
X166478571Y-96916666D01*
X166502380Y-96940476D01*
X166526190Y-96988095D01*
X166526190Y-97035714D01*
X166502380Y-97083333D01*
X166478571Y-97107142D01*
X166430952Y-97130952D01*
X166335714Y-97154761D01*
X166216666Y-97154761D01*
X166121428Y-97130952D01*
X166073809Y-97107142D01*
X166050000Y-97083333D01*
X166026190Y-97035714D01*
X137928571Y-124071428D02*
X137952380Y-124095238D01*
X137976190Y-124166666D01*
X137976190Y-124214285D01*
X137952380Y-124285714D01*
X137904761Y-124333333D01*
X137857142Y-124357142D01*
X137761904Y-124380952D01*
X137690476Y-124380952D01*
X137595238Y-124357142D01*
X137547619Y-124333333D01*
X137500000Y-124285714D01*
X137476190Y-124214285D01*
X137476190Y-124166666D01*
X137500000Y-124095238D01*
X137523809Y-124071428D01*
X137976190Y-123595238D02*
X137976190Y-123880952D01*
X137976190Y-123738095D02*
X137476190Y-123738095D01*
X137547619Y-123785714D01*
X137595238Y-123833333D01*
X137619047Y-123880952D01*
X137476190Y-123142857D02*
X137476190Y-123380952D01*
X137714285Y-123404761D01*
X137690476Y-123380952D01*
X137666666Y-123333333D01*
X137666666Y-123214285D01*
X137690476Y-123166666D01*
X137714285Y-123142857D01*
X137761904Y-123119047D01*
X137880952Y-123119047D01*
X137928571Y-123142857D01*
X137952380Y-123166666D01*
X137976190Y-123214285D01*
X137976190Y-123333333D01*
X137952380Y-123380952D01*
X137928571Y-123404761D01*
X126130952Y-72326190D02*
X126130952Y-71826190D01*
X126250000Y-71826190D01*
X126321428Y-71850000D01*
X126369047Y-71897619D01*
X126392857Y-71945238D01*
X126416666Y-72040476D01*
X126416666Y-72111904D01*
X126392857Y-72207142D01*
X126369047Y-72254761D01*
X126321428Y-72302380D01*
X126250000Y-72326190D01*
X126130952Y-72326190D01*
X126892857Y-72326190D02*
X126607142Y-72326190D01*
X126750000Y-72326190D02*
X126750000Y-71826190D01*
X126702380Y-71897619D01*
X126654761Y-71945238D01*
X126607142Y-71969047D01*
X129469047Y-76126190D02*
X129469047Y-75626190D01*
X129754761Y-76126190D02*
X129540476Y-75840476D01*
X129754761Y-75626190D02*
X129469047Y-75911904D01*
X123280952Y-75983333D02*
X123519047Y-75983333D01*
X123233333Y-76126190D02*
X123400000Y-75626190D01*
X123566666Y-76126190D01*
X142630952Y-66726190D02*
X142630952Y-66226190D01*
X142750000Y-66226190D01*
X142821428Y-66250000D01*
X142869047Y-66297619D01*
X142892857Y-66345238D01*
X142916666Y-66440476D01*
X142916666Y-66511904D01*
X142892857Y-66607142D01*
X142869047Y-66654761D01*
X142821428Y-66702380D01*
X142750000Y-66726190D01*
X142630952Y-66726190D01*
X143107142Y-66273809D02*
X143130952Y-66250000D01*
X143178571Y-66226190D01*
X143297619Y-66226190D01*
X143345238Y-66250000D01*
X143369047Y-66273809D01*
X143392857Y-66321428D01*
X143392857Y-66369047D01*
X143369047Y-66440476D01*
X143083333Y-66726190D01*
X143392857Y-66726190D01*
X144626190Y-74630952D02*
X144126190Y-74630952D01*
X144626190Y-74345238D02*
X144340476Y-74559523D01*
X144126190Y-74345238D02*
X144411904Y-74630952D01*
X144483333Y-68619047D02*
X144483333Y-68380952D01*
X144626190Y-68666666D02*
X144126190Y-68500000D01*
X144626190Y-68333333D01*
X152230952Y-75826190D02*
X152230952Y-75326190D01*
X152350000Y-75326190D01*
X152421428Y-75350000D01*
X152469047Y-75397619D01*
X152492857Y-75445238D01*
X152516666Y-75540476D01*
X152516666Y-75611904D01*
X152492857Y-75707142D01*
X152469047Y-75754761D01*
X152421428Y-75802380D01*
X152350000Y-75826190D01*
X152230952Y-75826190D01*
X152683333Y-75326190D02*
X152992857Y-75326190D01*
X152826190Y-75516666D01*
X152897619Y-75516666D01*
X152945238Y-75540476D01*
X152969047Y-75564285D01*
X152992857Y-75611904D01*
X152992857Y-75730952D01*
X152969047Y-75778571D01*
X152945238Y-75802380D01*
X152897619Y-75826190D01*
X152754761Y-75826190D01*
X152707142Y-75802380D01*
X152683333Y-75778571D01*
X158630952Y-117476190D02*
X158630952Y-116976190D01*
X158750000Y-116976190D01*
X158821428Y-117000000D01*
X158869047Y-117047619D01*
X158892857Y-117095238D01*
X158916666Y-117190476D01*
X158916666Y-117261904D01*
X158892857Y-117357142D01*
X158869047Y-117404761D01*
X158821428Y-117452380D01*
X158750000Y-117476190D01*
X158630952Y-117476190D01*
X159345238Y-117142857D02*
X159345238Y-117476190D01*
X159226190Y-116952380D02*
X159107142Y-117309523D01*
X159416666Y-117309523D01*
X160880952Y-117476190D02*
X160880952Y-116976190D01*
X161000000Y-116976190D01*
X161071428Y-117000000D01*
X161119047Y-117047619D01*
X161142857Y-117095238D01*
X161166666Y-117190476D01*
X161166666Y-117261904D01*
X161142857Y-117357142D01*
X161119047Y-117404761D01*
X161071428Y-117452380D01*
X161000000Y-117476190D01*
X160880952Y-117476190D01*
X161619047Y-116976190D02*
X161380952Y-116976190D01*
X161357142Y-117214285D01*
X161380952Y-117190476D01*
X161428571Y-117166666D01*
X161547619Y-117166666D01*
X161595238Y-117190476D01*
X161619047Y-117214285D01*
X161642857Y-117261904D01*
X161642857Y-117380952D01*
X161619047Y-117428571D01*
X161595238Y-117452380D01*
X161547619Y-117476190D01*
X161428571Y-117476190D01*
X161380952Y-117452380D01*
X161357142Y-117428571D01*
X159916666Y-67426190D02*
X159678571Y-67426190D01*
X159678571Y-66926190D01*
X160345238Y-67426190D02*
X160059523Y-67426190D01*
X160202380Y-67426190D02*
X160202380Y-66926190D01*
X160154761Y-66997619D01*
X160107142Y-67045238D01*
X160059523Y-67069047D01*
X138926190Y-68583333D02*
X138688095Y-68750000D01*
X138926190Y-68869047D02*
X138426190Y-68869047D01*
X138426190Y-68678571D01*
X138450000Y-68630952D01*
X138473809Y-68607142D01*
X138521428Y-68583333D01*
X138592857Y-68583333D01*
X138640476Y-68607142D01*
X138664285Y-68630952D01*
X138688095Y-68678571D01*
X138688095Y-68869047D01*
X138926190Y-68107142D02*
X138926190Y-68392857D01*
X138926190Y-68250000D02*
X138426190Y-68250000D01*
X138497619Y-68297619D01*
X138545238Y-68345238D01*
X138569047Y-68392857D01*
X146916666Y-69626190D02*
X146750000Y-69388095D01*
X146630952Y-69626190D02*
X146630952Y-69126190D01*
X146821428Y-69126190D01*
X146869047Y-69150000D01*
X146892857Y-69173809D01*
X146916666Y-69221428D01*
X146916666Y-69292857D01*
X146892857Y-69340476D01*
X146869047Y-69364285D01*
X146821428Y-69388095D01*
X146630952Y-69388095D01*
X147107142Y-69173809D02*
X147130952Y-69150000D01*
X147178571Y-69126190D01*
X147297619Y-69126190D01*
X147345238Y-69150000D01*
X147369047Y-69173809D01*
X147392857Y-69221428D01*
X147392857Y-69269047D01*
X147369047Y-69340476D01*
X147083333Y-69626190D01*
X147392857Y-69626190D01*
X151726190Y-66083333D02*
X151488095Y-66250000D01*
X151726190Y-66369047D02*
X151226190Y-66369047D01*
X151226190Y-66178571D01*
X151250000Y-66130952D01*
X151273809Y-66107142D01*
X151321428Y-66083333D01*
X151392857Y-66083333D01*
X151440476Y-66107142D01*
X151464285Y-66130952D01*
X151488095Y-66178571D01*
X151488095Y-66369047D01*
X151226190Y-65916666D02*
X151226190Y-65607142D01*
X151416666Y-65773809D01*
X151416666Y-65702380D01*
X151440476Y-65654761D01*
X151464285Y-65630952D01*
X151511904Y-65607142D01*
X151630952Y-65607142D01*
X151678571Y-65630952D01*
X151702380Y-65654761D01*
X151726190Y-65702380D01*
X151726190Y-65845238D01*
X151702380Y-65892857D01*
X151678571Y-65916666D01*
X146826190Y-66083333D02*
X146588095Y-66250000D01*
X146826190Y-66369047D02*
X146326190Y-66369047D01*
X146326190Y-66178571D01*
X146350000Y-66130952D01*
X146373809Y-66107142D01*
X146421428Y-66083333D01*
X146492857Y-66083333D01*
X146540476Y-66107142D01*
X146564285Y-66130952D01*
X146588095Y-66178571D01*
X146588095Y-66369047D01*
X146492857Y-65654761D02*
X146826190Y-65654761D01*
X146302380Y-65773809D02*
X146659523Y-65892857D01*
X146659523Y-65583333D01*
X165916666Y-110726190D02*
X165750000Y-110488095D01*
X165630952Y-110726190D02*
X165630952Y-110226190D01*
X165821428Y-110226190D01*
X165869047Y-110250000D01*
X165892857Y-110273809D01*
X165916666Y-110321428D01*
X165916666Y-110392857D01*
X165892857Y-110440476D01*
X165869047Y-110464285D01*
X165821428Y-110488095D01*
X165630952Y-110488095D01*
X166369047Y-110226190D02*
X166130952Y-110226190D01*
X166107142Y-110464285D01*
X166130952Y-110440476D01*
X166178571Y-110416666D01*
X166297619Y-110416666D01*
X166345238Y-110440476D01*
X166369047Y-110464285D01*
X166392857Y-110511904D01*
X166392857Y-110630952D01*
X166369047Y-110678571D01*
X166345238Y-110702380D01*
X166297619Y-110726190D01*
X166178571Y-110726190D01*
X166130952Y-110702380D01*
X166107142Y-110678571D01*
X167416666Y-110726190D02*
X167250000Y-110488095D01*
X167130952Y-110726190D02*
X167130952Y-110226190D01*
X167321428Y-110226190D01*
X167369047Y-110250000D01*
X167392857Y-110273809D01*
X167416666Y-110321428D01*
X167416666Y-110392857D01*
X167392857Y-110440476D01*
X167369047Y-110464285D01*
X167321428Y-110488095D01*
X167130952Y-110488095D01*
X167845238Y-110226190D02*
X167750000Y-110226190D01*
X167702380Y-110250000D01*
X167678571Y-110273809D01*
X167630952Y-110345238D01*
X167607142Y-110440476D01*
X167607142Y-110630952D01*
X167630952Y-110678571D01*
X167654761Y-110702380D01*
X167702380Y-110726190D01*
X167797619Y-110726190D01*
X167845238Y-110702380D01*
X167869047Y-110678571D01*
X167892857Y-110630952D01*
X167892857Y-110511904D01*
X167869047Y-110464285D01*
X167845238Y-110440476D01*
X167797619Y-110416666D01*
X167702380Y-110416666D01*
X167654761Y-110440476D01*
X167630952Y-110464285D01*
X167607142Y-110511904D01*
X158916666Y-123226190D02*
X158750000Y-122988095D01*
X158630952Y-123226190D02*
X158630952Y-122726190D01*
X158821428Y-122726190D01*
X158869047Y-122750000D01*
X158892857Y-122773809D01*
X158916666Y-122821428D01*
X158916666Y-122892857D01*
X158892857Y-122940476D01*
X158869047Y-122964285D01*
X158821428Y-122988095D01*
X158630952Y-122988095D01*
X159083333Y-122726190D02*
X159416666Y-122726190D01*
X159202380Y-123226190D01*
X161166666Y-123226190D02*
X161000000Y-122988095D01*
X160880952Y-123226190D02*
X160880952Y-122726190D01*
X161071428Y-122726190D01*
X161119047Y-122750000D01*
X161142857Y-122773809D01*
X161166666Y-122821428D01*
X161166666Y-122892857D01*
X161142857Y-122940476D01*
X161119047Y-122964285D01*
X161071428Y-122988095D01*
X160880952Y-122988095D01*
X161452380Y-122940476D02*
X161404761Y-122916666D01*
X161380952Y-122892857D01*
X161357142Y-122845238D01*
X161357142Y-122821428D01*
X161380952Y-122773809D01*
X161404761Y-122750000D01*
X161452380Y-122726190D01*
X161547619Y-122726190D01*
X161595238Y-122750000D01*
X161619047Y-122773809D01*
X161642857Y-122821428D01*
X161642857Y-122845238D01*
X161619047Y-122892857D01*
X161595238Y-122916666D01*
X161547619Y-122940476D01*
X161452380Y-122940476D01*
X161404761Y-122964285D01*
X161380952Y-122988095D01*
X161357142Y-123035714D01*
X161357142Y-123130952D01*
X161380952Y-123178571D01*
X161404761Y-123202380D01*
X161452380Y-123226190D01*
X161547619Y-123226190D01*
X161595238Y-123202380D01*
X161619047Y-123178571D01*
X161642857Y-123130952D01*
X161642857Y-123035714D01*
X161619047Y-122988095D01*
X161595238Y-122964285D01*
X161547619Y-122940476D01*
X132726190Y-123833333D02*
X132488095Y-124000000D01*
X132726190Y-124119047D02*
X132226190Y-124119047D01*
X132226190Y-123928571D01*
X132250000Y-123880952D01*
X132273809Y-123857142D01*
X132321428Y-123833333D01*
X132392857Y-123833333D01*
X132440476Y-123857142D01*
X132464285Y-123880952D01*
X132488095Y-123928571D01*
X132488095Y-124119047D01*
X132726190Y-123595238D02*
X132726190Y-123500000D01*
X132702380Y-123452380D01*
X132678571Y-123428571D01*
X132607142Y-123380952D01*
X132511904Y-123357142D01*
X132321428Y-123357142D01*
X132273809Y-123380952D01*
X132250000Y-123404761D01*
X132226190Y-123452380D01*
X132226190Y-123547619D01*
X132250000Y-123595238D01*
X132273809Y-123619047D01*
X132321428Y-123642857D01*
X132440476Y-123642857D01*
X132488095Y-123619047D01*
X132511904Y-123595238D01*
X132535714Y-123547619D01*
X132535714Y-123452380D01*
X132511904Y-123404761D01*
X132488095Y-123380952D01*
X132440476Y-123357142D01*
X148178571Y-111826190D02*
X148011904Y-111588095D01*
X147892857Y-111826190D02*
X147892857Y-111326190D01*
X148083333Y-111326190D01*
X148130952Y-111350000D01*
X148154761Y-111373809D01*
X148178571Y-111421428D01*
X148178571Y-111492857D01*
X148154761Y-111540476D01*
X148130952Y-111564285D01*
X148083333Y-111588095D01*
X147892857Y-111588095D01*
X148654761Y-111826190D02*
X148369047Y-111826190D01*
X148511904Y-111826190D02*
X148511904Y-111326190D01*
X148464285Y-111397619D01*
X148416666Y-111445238D01*
X148369047Y-111469047D01*
X148964285Y-111326190D02*
X149011904Y-111326190D01*
X149059523Y-111350000D01*
X149083333Y-111373809D01*
X149107142Y-111421428D01*
X149130952Y-111516666D01*
X149130952Y-111635714D01*
X149107142Y-111730952D01*
X149083333Y-111778571D01*
X149059523Y-111802380D01*
X149011904Y-111826190D01*
X148964285Y-111826190D01*
X148916666Y-111802380D01*
X148892857Y-111778571D01*
X148869047Y-111730952D01*
X148845238Y-111635714D01*
X148845238Y-111516666D01*
X148869047Y-111421428D01*
X148892857Y-111373809D01*
X148916666Y-111350000D01*
X148964285Y-111326190D01*
X151678571Y-111826190D02*
X151511904Y-111588095D01*
X151392857Y-111826190D02*
X151392857Y-111326190D01*
X151583333Y-111326190D01*
X151630952Y-111350000D01*
X151654761Y-111373809D01*
X151678571Y-111421428D01*
X151678571Y-111492857D01*
X151654761Y-111540476D01*
X151630952Y-111564285D01*
X151583333Y-111588095D01*
X151392857Y-111588095D01*
X152154761Y-111826190D02*
X151869047Y-111826190D01*
X152011904Y-111826190D02*
X152011904Y-111326190D01*
X151964285Y-111397619D01*
X151916666Y-111445238D01*
X151869047Y-111469047D01*
X152630952Y-111826190D02*
X152345238Y-111826190D01*
X152488095Y-111826190D02*
X152488095Y-111326190D01*
X152440476Y-111397619D01*
X152392857Y-111445238D01*
X152345238Y-111469047D01*
X152476190Y-124071428D02*
X152238095Y-124238095D01*
X152476190Y-124357142D02*
X151976190Y-124357142D01*
X151976190Y-124166666D01*
X152000000Y-124119047D01*
X152023809Y-124095238D01*
X152071428Y-124071428D01*
X152142857Y-124071428D01*
X152190476Y-124095238D01*
X152214285Y-124119047D01*
X152238095Y-124166666D01*
X152238095Y-124357142D01*
X152476190Y-123595238D02*
X152476190Y-123880952D01*
X152476190Y-123738095D02*
X151976190Y-123738095D01*
X152047619Y-123785714D01*
X152095238Y-123833333D01*
X152119047Y-123880952D01*
X152023809Y-123404761D02*
X152000000Y-123380952D01*
X151976190Y-123333333D01*
X151976190Y-123214285D01*
X152000000Y-123166666D01*
X152023809Y-123142857D01*
X152071428Y-123119047D01*
X152119047Y-123119047D01*
X152190476Y-123142857D01*
X152476190Y-123428571D01*
X152476190Y-123119047D01*
D12*
X133666666Y-116904761D02*
X133809523Y-116952380D01*
X134047619Y-116952380D01*
X134142857Y-116904761D01*
X134190476Y-116857142D01*
X134238095Y-116761904D01*
X134238095Y-116666666D01*
X134190476Y-116571428D01*
X134142857Y-116523809D01*
X134047619Y-116476190D01*
X133857142Y-116428571D01*
X133761904Y-116380952D01*
X133714285Y-116333333D01*
X133666666Y-116238095D01*
X133666666Y-116142857D01*
X133714285Y-116047619D01*
X133761904Y-116000000D01*
X133857142Y-115952380D01*
X134095238Y-115952380D01*
X134238095Y-116000000D01*
X134571428Y-115952380D02*
X134809523Y-116952380D01*
X135000000Y-116238095D01*
X135190476Y-116952380D01*
X135428571Y-115952380D01*
X135761904Y-116047619D02*
X135809523Y-116000000D01*
X135904761Y-115952380D01*
X136142857Y-115952380D01*
X136238095Y-116000000D01*
X136285714Y-116047619D01*
X136333333Y-116142857D01*
X136333333Y-116238095D01*
X136285714Y-116380952D01*
X135714285Y-116952380D01*
X136333333Y-116952380D01*
X153666666Y-116804761D02*
X153809523Y-116852380D01*
X154047619Y-116852380D01*
X154142857Y-116804761D01*
X154190476Y-116757142D01*
X154238095Y-116661904D01*
X154238095Y-116566666D01*
X154190476Y-116471428D01*
X154142857Y-116423809D01*
X154047619Y-116376190D01*
X153857142Y-116328571D01*
X153761904Y-116280952D01*
X153714285Y-116233333D01*
X153666666Y-116138095D01*
X153666666Y-116042857D01*
X153714285Y-115947619D01*
X153761904Y-115900000D01*
X153857142Y-115852380D01*
X154095238Y-115852380D01*
X154238095Y-115900000D01*
X154571428Y-115852380D02*
X154809523Y-116852380D01*
X155000000Y-116138095D01*
X155190476Y-116852380D01*
X155428571Y-115852380D01*
X155714285Y-115852380D02*
X156333333Y-115852380D01*
X156000000Y-116233333D01*
X156142857Y-116233333D01*
X156238095Y-116280952D01*
X156285714Y-116328571D01*
X156333333Y-116423809D01*
X156333333Y-116661904D01*
X156285714Y-116757142D01*
X156238095Y-116804761D01*
X156142857Y-116852380D01*
X155857142Y-116852380D01*
X155761904Y-116804761D01*
X155714285Y-116757142D01*
D10*
X168226190Y-106380952D02*
X168630952Y-106380952D01*
X168678571Y-106357142D01*
X168702380Y-106333333D01*
X168726190Y-106285714D01*
X168726190Y-106190476D01*
X168702380Y-106142857D01*
X168678571Y-106119047D01*
X168630952Y-106095238D01*
X168226190Y-106095238D01*
X168273809Y-105880952D02*
X168250000Y-105857142D01*
X168226190Y-105809523D01*
X168226190Y-105690476D01*
X168250000Y-105642857D01*
X168273809Y-105619047D01*
X168321428Y-105595238D01*
X168369047Y-105595238D01*
X168440476Y-105619047D01*
X168726190Y-105904761D01*
X168726190Y-105595238D01*
X144619047Y-119226190D02*
X144619047Y-119630952D01*
X144642857Y-119678571D01*
X144666666Y-119702380D01*
X144714285Y-119726190D01*
X144809523Y-119726190D01*
X144857142Y-119702380D01*
X144880952Y-119678571D01*
X144904761Y-119630952D01*
X144904761Y-119226190D01*
X145357142Y-119392857D02*
X145357142Y-119726190D01*
X145238095Y-119202380D02*
X145119047Y-119559523D01*
X145428571Y-119559523D01*
X142773809Y-106047619D02*
X142750000Y-106095238D01*
X142702380Y-106142857D01*
X142630952Y-106214285D01*
X142607142Y-106261904D01*
X142607142Y-106309523D01*
X142726190Y-106285714D02*
X142702380Y-106333333D01*
X142654761Y-106380952D01*
X142559523Y-106404761D01*
X142392857Y-106404761D01*
X142297619Y-106380952D01*
X142250000Y-106333333D01*
X142226190Y-106285714D01*
X142226190Y-106190476D01*
X142250000Y-106142857D01*
X142297619Y-106095238D01*
X142392857Y-106071428D01*
X142559523Y-106071428D01*
X142654761Y-106095238D01*
X142702380Y-106142857D01*
X142726190Y-106190476D01*
X142726190Y-106285714D01*
X142273809Y-105880952D02*
X142250000Y-105857142D01*
X142226190Y-105809523D01*
X142226190Y-105690476D01*
X142250000Y-105642857D01*
X142273809Y-105619047D01*
X142321428Y-105595238D01*
X142369047Y-105595238D01*
X142440476Y-105619047D01*
X142726190Y-105904761D01*
X142726190Y-105595238D01*
X146678571Y-107095238D02*
X146702380Y-107119047D01*
X146726190Y-107190476D01*
X146726190Y-107238095D01*
X146702380Y-107309523D01*
X146654761Y-107357142D01*
X146607142Y-107380952D01*
X146511904Y-107404761D01*
X146440476Y-107404761D01*
X146345238Y-107380952D01*
X146297619Y-107357142D01*
X146250000Y-107309523D01*
X146226190Y-107238095D01*
X146226190Y-107190476D01*
X146250000Y-107119047D01*
X146273809Y-107095238D01*
X143714285Y-107357142D02*
X143714285Y-107190476D01*
X143976190Y-107119047D02*
X143976190Y-107357142D01*
X143476190Y-107357142D01*
X143476190Y-107119047D01*
X144678571Y-108976190D02*
X144511904Y-108738095D01*
X144392857Y-108976190D02*
X144392857Y-108476190D01*
X144583333Y-108476190D01*
X144630952Y-108500000D01*
X144654761Y-108523809D01*
X144678571Y-108571428D01*
X144678571Y-108642857D01*
X144654761Y-108690476D01*
X144630952Y-108714285D01*
X144583333Y-108738095D01*
X144392857Y-108738095D01*
X145154761Y-108976190D02*
X144869047Y-108976190D01*
X145011904Y-108976190D02*
X145011904Y-108476190D01*
X144964285Y-108547619D01*
X144916666Y-108595238D01*
X144869047Y-108619047D01*
X145440476Y-108690476D02*
X145392857Y-108666666D01*
X145369047Y-108642857D01*
X145345238Y-108595238D01*
X145345238Y-108571428D01*
X145369047Y-108523809D01*
X145392857Y-108500000D01*
X145440476Y-108476190D01*
X145535714Y-108476190D01*
X145583333Y-108500000D01*
X145607142Y-108523809D01*
X145630952Y-108571428D01*
X145630952Y-108595238D01*
X145607142Y-108642857D01*
X145583333Y-108666666D01*
X145535714Y-108690476D01*
X145440476Y-108690476D01*
X145392857Y-108714285D01*
X145369047Y-108738095D01*
X145345238Y-108785714D01*
X145345238Y-108880952D01*
X145369047Y-108928571D01*
X145392857Y-108952380D01*
X145440476Y-108976190D01*
X145535714Y-108976190D01*
X145583333Y-108952380D01*
X145607142Y-108928571D01*
X145630952Y-108880952D01*
X145630952Y-108785714D01*
X145607142Y-108738095D01*
X145583333Y-108714285D01*
X145535714Y-108690476D01*
X148678571Y-103333333D02*
X148702380Y-103357142D01*
X148726190Y-103428571D01*
X148726190Y-103476190D01*
X148702380Y-103547619D01*
X148654761Y-103595238D01*
X148607142Y-103619047D01*
X148511904Y-103642857D01*
X148440476Y-103642857D01*
X148345238Y-103619047D01*
X148297619Y-103595238D01*
X148250000Y-103547619D01*
X148226190Y-103476190D01*
X148226190Y-103428571D01*
X148250000Y-103357142D01*
X148273809Y-103333333D01*
X148440476Y-103047619D02*
X148416666Y-103095238D01*
X148392857Y-103119047D01*
X148345238Y-103142857D01*
X148321428Y-103142857D01*
X148273809Y-103119047D01*
X148250000Y-103095238D01*
X148226190Y-103047619D01*
X148226190Y-102952380D01*
X148250000Y-102904761D01*
X148273809Y-102880952D01*
X148321428Y-102857142D01*
X148345238Y-102857142D01*
X148392857Y-102880952D01*
X148416666Y-102904761D01*
X148440476Y-102952380D01*
X148440476Y-103047619D01*
X148464285Y-103095238D01*
X148488095Y-103119047D01*
X148535714Y-103142857D01*
X148630952Y-103142857D01*
X148678571Y-103119047D01*
X148702380Y-103095238D01*
X148726190Y-103047619D01*
X148726190Y-102952380D01*
X148702380Y-102904761D01*
X148678571Y-102880952D01*
X148630952Y-102857142D01*
X148535714Y-102857142D01*
X148488095Y-102880952D01*
X148464285Y-102904761D01*
X148440476Y-102952380D01*
X160916666Y-111378571D02*
X160892857Y-111402380D01*
X160821428Y-111426190D01*
X160773809Y-111426190D01*
X160702380Y-111402380D01*
X160654761Y-111354761D01*
X160630952Y-111307142D01*
X160607142Y-111211904D01*
X160607142Y-111140476D01*
X160630952Y-111045238D01*
X160654761Y-110997619D01*
X160702380Y-110950000D01*
X160773809Y-110926190D01*
X160821428Y-110926190D01*
X160892857Y-110950000D01*
X160916666Y-110973809D01*
X161154761Y-111426190D02*
X161250000Y-111426190D01*
X161297619Y-111402380D01*
X161321428Y-111378571D01*
X161369047Y-111307142D01*
X161392857Y-111211904D01*
X161392857Y-111021428D01*
X161369047Y-110973809D01*
X161345238Y-110950000D01*
X161297619Y-110926190D01*
X161202380Y-110926190D01*
X161154761Y-110950000D01*
X161130952Y-110973809D01*
X161107142Y-111021428D01*
X161107142Y-111140476D01*
X161130952Y-111188095D01*
X161154761Y-111211904D01*
X161202380Y-111235714D01*
X161297619Y-111235714D01*
X161345238Y-111211904D01*
X161369047Y-111188095D01*
X161392857Y-111140476D01*
X149678571Y-93521428D02*
X149702380Y-93545238D01*
X149726190Y-93616666D01*
X149726190Y-93664285D01*
X149702380Y-93735714D01*
X149654761Y-93783333D01*
X149607142Y-93807142D01*
X149511904Y-93830952D01*
X149440476Y-93830952D01*
X149345238Y-93807142D01*
X149297619Y-93783333D01*
X149250000Y-93735714D01*
X149226190Y-93664285D01*
X149226190Y-93616666D01*
X149250000Y-93545238D01*
X149273809Y-93521428D01*
X149726190Y-93045238D02*
X149726190Y-93330952D01*
X149726190Y-93188095D02*
X149226190Y-93188095D01*
X149297619Y-93235714D01*
X149345238Y-93283333D01*
X149369047Y-93330952D01*
X149273809Y-92854761D02*
X149250000Y-92830952D01*
X149226190Y-92783333D01*
X149226190Y-92664285D01*
X149250000Y-92616666D01*
X149273809Y-92592857D01*
X149321428Y-92569047D01*
X149369047Y-92569047D01*
X149440476Y-92592857D01*
X149726190Y-92878571D01*
X149726190Y-92569047D01*
X158178571Y-110178571D02*
X158154761Y-110202380D01*
X158083333Y-110226190D01*
X158035714Y-110226190D01*
X157964285Y-110202380D01*
X157916666Y-110154761D01*
X157892857Y-110107142D01*
X157869047Y-110011904D01*
X157869047Y-109940476D01*
X157892857Y-109845238D01*
X157916666Y-109797619D01*
X157964285Y-109750000D01*
X158035714Y-109726190D01*
X158083333Y-109726190D01*
X158154761Y-109750000D01*
X158178571Y-109773809D01*
X158654761Y-110226190D02*
X158369047Y-110226190D01*
X158511904Y-110226190D02*
X158511904Y-109726190D01*
X158464285Y-109797619D01*
X158416666Y-109845238D01*
X158369047Y-109869047D01*
X158821428Y-109726190D02*
X159130952Y-109726190D01*
X158964285Y-109916666D01*
X159035714Y-109916666D01*
X159083333Y-109940476D01*
X159107142Y-109964285D01*
X159130952Y-110011904D01*
X159130952Y-110130952D01*
X159107142Y-110178571D01*
X159083333Y-110202380D01*
X159035714Y-110226190D01*
X158892857Y-110226190D01*
X158845238Y-110202380D01*
X158821428Y-110178571D01*
X151678571Y-107778571D02*
X151654761Y-107802380D01*
X151583333Y-107826190D01*
X151535714Y-107826190D01*
X151464285Y-107802380D01*
X151416666Y-107754761D01*
X151392857Y-107707142D01*
X151369047Y-107611904D01*
X151369047Y-107540476D01*
X151392857Y-107445238D01*
X151416666Y-107397619D01*
X151464285Y-107350000D01*
X151535714Y-107326190D01*
X151583333Y-107326190D01*
X151654761Y-107350000D01*
X151678571Y-107373809D01*
X152154761Y-107826190D02*
X151869047Y-107826190D01*
X152011904Y-107826190D02*
X152011904Y-107326190D01*
X151964285Y-107397619D01*
X151916666Y-107445238D01*
X151869047Y-107469047D01*
X152583333Y-107492857D02*
X152583333Y-107826190D01*
X152464285Y-107302380D02*
X152345238Y-107659523D01*
X152654761Y-107659523D01*
X147678571Y-124178571D02*
X147654761Y-124202380D01*
X147583333Y-124226190D01*
X147535714Y-124226190D01*
X147464285Y-124202380D01*
X147416666Y-124154761D01*
X147392857Y-124107142D01*
X147369047Y-124011904D01*
X147369047Y-123940476D01*
X147392857Y-123845238D01*
X147416666Y-123797619D01*
X147464285Y-123750000D01*
X147535714Y-123726190D01*
X147583333Y-123726190D01*
X147654761Y-123750000D01*
X147678571Y-123773809D01*
X148154761Y-124226190D02*
X147869047Y-124226190D01*
X148011904Y-124226190D02*
X148011904Y-123726190D01*
X147964285Y-123797619D01*
X147916666Y-123845238D01*
X147869047Y-123869047D01*
X148440476Y-123940476D02*
X148392857Y-123916666D01*
X148369047Y-123892857D01*
X148345238Y-123845238D01*
X148345238Y-123821428D01*
X148369047Y-123773809D01*
X148392857Y-123750000D01*
X148440476Y-123726190D01*
X148535714Y-123726190D01*
X148583333Y-123750000D01*
X148607142Y-123773809D01*
X148630952Y-123821428D01*
X148630952Y-123845238D01*
X148607142Y-123892857D01*
X148583333Y-123916666D01*
X148535714Y-123940476D01*
X148440476Y-123940476D01*
X148392857Y-123964285D01*
X148369047Y-123988095D01*
X148345238Y-124035714D01*
X148345238Y-124130952D01*
X148369047Y-124178571D01*
X148392857Y-124202380D01*
X148440476Y-124226190D01*
X148535714Y-124226190D01*
X148583333Y-124202380D01*
X148607142Y-124178571D01*
X148630952Y-124130952D01*
X148630952Y-124035714D01*
X148607142Y-123988095D01*
X148583333Y-123964285D01*
X148535714Y-123940476D01*
X147178571Y-108928571D02*
X147154761Y-108952380D01*
X147083333Y-108976190D01*
X147035714Y-108976190D01*
X146964285Y-108952380D01*
X146916666Y-108904761D01*
X146892857Y-108857142D01*
X146869047Y-108761904D01*
X146869047Y-108690476D01*
X146892857Y-108595238D01*
X146916666Y-108547619D01*
X146964285Y-108500000D01*
X147035714Y-108476190D01*
X147083333Y-108476190D01*
X147154761Y-108500000D01*
X147178571Y-108523809D01*
X147369047Y-108523809D02*
X147392857Y-108500000D01*
X147440476Y-108476190D01*
X147559523Y-108476190D01*
X147607142Y-108500000D01*
X147630952Y-108523809D01*
X147654761Y-108571428D01*
X147654761Y-108619047D01*
X147630952Y-108690476D01*
X147345238Y-108976190D01*
X147654761Y-108976190D01*
X148130952Y-108976190D02*
X147845238Y-108976190D01*
X147988095Y-108976190D02*
X147988095Y-108476190D01*
X147940476Y-108547619D01*
X147892857Y-108595238D01*
X147845238Y-108619047D01*
X146428571Y-96833333D02*
X146452380Y-96857142D01*
X146476190Y-96928571D01*
X146476190Y-96976190D01*
X146452380Y-97047619D01*
X146404761Y-97095238D01*
X146357142Y-97119047D01*
X146261904Y-97142857D01*
X146190476Y-97142857D01*
X146095238Y-97119047D01*
X146047619Y-97095238D01*
X146000000Y-97047619D01*
X145976190Y-96976190D01*
X145976190Y-96928571D01*
X146000000Y-96857142D01*
X146023809Y-96833333D01*
X146142857Y-96404761D02*
X146476190Y-96404761D01*
X145952380Y-96523809D02*
X146309523Y-96642857D01*
X146309523Y-96333333D01*
X145916666Y-101178571D02*
X145892857Y-101202380D01*
X145821428Y-101226190D01*
X145773809Y-101226190D01*
X145702380Y-101202380D01*
X145654761Y-101154761D01*
X145630952Y-101107142D01*
X145607142Y-101011904D01*
X145607142Y-100940476D01*
X145630952Y-100845238D01*
X145654761Y-100797619D01*
X145702380Y-100750000D01*
X145773809Y-100726190D01*
X145821428Y-100726190D01*
X145892857Y-100750000D01*
X145916666Y-100773809D01*
X146369047Y-100726190D02*
X146130952Y-100726190D01*
X146107142Y-100964285D01*
X146130952Y-100940476D01*
X146178571Y-100916666D01*
X146297619Y-100916666D01*
X146345238Y-100940476D01*
X146369047Y-100964285D01*
X146392857Y-101011904D01*
X146392857Y-101130952D01*
X146369047Y-101178571D01*
X146345238Y-101202380D01*
X146297619Y-101226190D01*
X146178571Y-101226190D01*
X146130952Y-101202380D01*
X146107142Y-101178571D01*
X162378571Y-95878571D02*
X162354761Y-95902380D01*
X162283333Y-95926190D01*
X162235714Y-95926190D01*
X162164285Y-95902380D01*
X162116666Y-95854761D01*
X162092857Y-95807142D01*
X162069047Y-95711904D01*
X162069047Y-95640476D01*
X162092857Y-95545238D01*
X162116666Y-95497619D01*
X162164285Y-95450000D01*
X162235714Y-95426190D01*
X162283333Y-95426190D01*
X162354761Y-95450000D01*
X162378571Y-95473809D01*
X162854761Y-95926190D02*
X162569047Y-95926190D01*
X162711904Y-95926190D02*
X162711904Y-95426190D01*
X162664285Y-95497619D01*
X162616666Y-95545238D01*
X162569047Y-95569047D01*
X163330952Y-95926190D02*
X163045238Y-95926190D01*
X163188095Y-95926190D02*
X163188095Y-95426190D01*
X163140476Y-95497619D01*
X163092857Y-95545238D01*
X163045238Y-95569047D01*
X146347619Y-92026190D02*
X146466666Y-92526190D01*
X146561904Y-92169047D01*
X146657142Y-92526190D01*
X146776190Y-92026190D01*
X147228571Y-92526190D02*
X146942857Y-92526190D01*
X147085714Y-92526190D02*
X147085714Y-92026190D01*
X147038095Y-92097619D01*
X146990476Y-92145238D01*
X146942857Y-92169047D01*
X139647619Y-91026190D02*
X139766666Y-91526190D01*
X139861904Y-91169047D01*
X139957142Y-91526190D01*
X140076190Y-91026190D01*
X140242857Y-91073809D02*
X140266666Y-91050000D01*
X140314285Y-91026190D01*
X140433333Y-91026190D01*
X140480952Y-91050000D01*
X140504761Y-91073809D01*
X140528571Y-91121428D01*
X140528571Y-91169047D01*
X140504761Y-91240476D01*
X140219047Y-91526190D01*
X140528571Y-91526190D01*
X161853619Y-102726190D02*
X161972666Y-103226190D01*
X162067904Y-102869047D01*
X162163142Y-103226190D01*
X162282190Y-102726190D01*
X162425047Y-102726190D02*
X162734571Y-102726190D01*
X162567904Y-102916666D01*
X162639333Y-102916666D01*
X162686952Y-102940476D01*
X162710761Y-102964285D01*
X162734571Y-103011904D01*
X162734571Y-103130952D01*
X162710761Y-103178571D01*
X162686952Y-103202380D01*
X162639333Y-103226190D01*
X162496476Y-103226190D01*
X162448857Y-103202380D01*
X162425047Y-103178571D01*
X154147619Y-92126190D02*
X154266666Y-92626190D01*
X154361904Y-92269047D01*
X154457142Y-92626190D01*
X154576190Y-92126190D01*
X154980952Y-92126190D02*
X154885714Y-92126190D01*
X154838095Y-92150000D01*
X154814285Y-92173809D01*
X154766666Y-92245238D01*
X154742857Y-92340476D01*
X154742857Y-92530952D01*
X154766666Y-92578571D01*
X154790476Y-92602380D01*
X154838095Y-92626190D01*
X154933333Y-92626190D01*
X154980952Y-92602380D01*
X155004761Y-92578571D01*
X155028571Y-92530952D01*
X155028571Y-92411904D01*
X155004761Y-92364285D01*
X154980952Y-92340476D01*
X154933333Y-92316666D01*
X154838095Y-92316666D01*
X154790476Y-92340476D01*
X154766666Y-92364285D01*
X154742857Y-92411904D01*
D12*
X128666666Y-116904761D02*
X128809523Y-116952380D01*
X129047619Y-116952380D01*
X129142857Y-116904761D01*
X129190476Y-116857142D01*
X129238095Y-116761904D01*
X129238095Y-116666666D01*
X129190476Y-116571428D01*
X129142857Y-116523809D01*
X129047619Y-116476190D01*
X128857142Y-116428571D01*
X128761904Y-116380952D01*
X128714285Y-116333333D01*
X128666666Y-116238095D01*
X128666666Y-116142857D01*
X128714285Y-116047619D01*
X128761904Y-116000000D01*
X128857142Y-115952380D01*
X129095238Y-115952380D01*
X129238095Y-116000000D01*
X129571428Y-115952380D02*
X129809523Y-116952380D01*
X130000000Y-116238095D01*
X130190476Y-116952380D01*
X130428571Y-115952380D01*
X131333333Y-116952380D02*
X130761904Y-116952380D01*
X131047619Y-116952380D02*
X131047619Y-115952380D01*
X130952380Y-116095238D01*
X130857142Y-116190476D01*
X130761904Y-116238095D01*
D10*
X128478571Y-100278571D02*
X128454761Y-100302380D01*
X128383333Y-100326190D01*
X128335714Y-100326190D01*
X128264285Y-100302380D01*
X128216666Y-100254761D01*
X128192857Y-100207142D01*
X128169047Y-100111904D01*
X128169047Y-100040476D01*
X128192857Y-99945238D01*
X128216666Y-99897619D01*
X128264285Y-99850000D01*
X128335714Y-99826190D01*
X128383333Y-99826190D01*
X128454761Y-99850000D01*
X128478571Y-99873809D01*
X128669047Y-99873809D02*
X128692857Y-99850000D01*
X128740476Y-99826190D01*
X128859523Y-99826190D01*
X128907142Y-99850000D01*
X128930952Y-99873809D01*
X128954761Y-99921428D01*
X128954761Y-99969047D01*
X128930952Y-100040476D01*
X128645238Y-100326190D01*
X128954761Y-100326190D01*
X129145238Y-99873809D02*
X129169047Y-99850000D01*
X129216666Y-99826190D01*
X129335714Y-99826190D01*
X129383333Y-99850000D01*
X129407142Y-99873809D01*
X129430952Y-99921428D01*
X129430952Y-99969047D01*
X129407142Y-100040476D01*
X129121428Y-100326190D01*
X129430952Y-100326190D01*
D12*
X120819047Y-107271428D02*
X121580952Y-107271428D01*
D10*
X137626190Y-105369047D02*
X137126190Y-105369047D01*
X137126190Y-105250000D01*
X137150000Y-105178571D01*
X137197619Y-105130952D01*
X137245238Y-105107142D01*
X137340476Y-105083333D01*
X137411904Y-105083333D01*
X137507142Y-105107142D01*
X137554761Y-105130952D01*
X137602380Y-105178571D01*
X137626190Y-105250000D01*
X137626190Y-105369047D01*
X137126190Y-104654761D02*
X137126190Y-104750000D01*
X137150000Y-104797619D01*
X137173809Y-104821428D01*
X137245238Y-104869047D01*
X137340476Y-104892857D01*
X137530952Y-104892857D01*
X137578571Y-104869047D01*
X137602380Y-104845238D01*
X137626190Y-104797619D01*
X137626190Y-104702380D01*
X137602380Y-104654761D01*
X137578571Y-104630952D01*
X137530952Y-104607142D01*
X137411904Y-104607142D01*
X137364285Y-104630952D01*
X137340476Y-104654761D01*
X137316666Y-104702380D01*
X137316666Y-104797619D01*
X137340476Y-104845238D01*
X137364285Y-104869047D01*
X137411904Y-104892857D01*
X140726190Y-110321428D02*
X140488095Y-110488095D01*
X140726190Y-110607142D02*
X140226190Y-110607142D01*
X140226190Y-110416666D01*
X140250000Y-110369047D01*
X140273809Y-110345238D01*
X140321428Y-110321428D01*
X140392857Y-110321428D01*
X140440476Y-110345238D01*
X140464285Y-110369047D01*
X140488095Y-110416666D01*
X140488095Y-110607142D01*
X140726190Y-109845238D02*
X140726190Y-110130952D01*
X140726190Y-109988095D02*
X140226190Y-109988095D01*
X140297619Y-110035714D01*
X140345238Y-110083333D01*
X140369047Y-110130952D01*
X140226190Y-109392857D02*
X140226190Y-109630952D01*
X140464285Y-109654761D01*
X140440476Y-109630952D01*
X140416666Y-109583333D01*
X140416666Y-109464285D01*
X140440476Y-109416666D01*
X140464285Y-109392857D01*
X140511904Y-109369047D01*
X140630952Y-109369047D01*
X140678571Y-109392857D01*
X140702380Y-109416666D01*
X140726190Y-109464285D01*
X140726190Y-109583333D01*
X140702380Y-109630952D01*
X140678571Y-109654761D01*
M02*
