G04 #@! TF.FileFunction,Drawing*
%FSLAX46Y46*%
G04 Gerber Fmt 4.6, Leading zero omitted, Abs format (unit mm)*
G04 Created by KiCad (PCBNEW 4.0.4+dfsg1-stable) date Sat Dec  3 18:58:41 2016*
%MOMM*%
%LPD*%
G01*
G04 APERTURE LIST*
%ADD10C,0.100000*%
%ADD11C,0.200000*%
G04 APERTURE END LIST*
D10*
D11*
X150190477Y-128452381D02*
X149428572Y-129452381D01*
X149714286Y-129452381D02*
X149619048Y-129404762D01*
X149523810Y-129309524D01*
X149476191Y-129119048D01*
X149476191Y-128785714D01*
X149523810Y-128595238D01*
X149619048Y-128500000D01*
X149714286Y-128452381D01*
X149904763Y-128452381D01*
X150000001Y-128500000D01*
X150095239Y-128595238D01*
X150142858Y-128785714D01*
X150142858Y-129119048D01*
X150095239Y-129309524D01*
X150000001Y-129404762D01*
X149904763Y-129452381D01*
X149714286Y-129452381D01*
X151285715Y-128547619D02*
X151333334Y-128500000D01*
X151428572Y-128452381D01*
X151666668Y-128452381D01*
X151761906Y-128500000D01*
X151809525Y-128547619D01*
X151857144Y-128642857D01*
X151857144Y-128738095D01*
X151809525Y-128880952D01*
X151238096Y-129452381D01*
X151857144Y-129452381D01*
X152285715Y-129452381D02*
X152285715Y-128785714D01*
X152285715Y-128880952D02*
X152333334Y-128833333D01*
X152428572Y-128785714D01*
X152571430Y-128785714D01*
X152666668Y-128833333D01*
X152714287Y-128928571D01*
X152714287Y-129452381D01*
X152714287Y-128928571D02*
X152761906Y-128833333D01*
X152857144Y-128785714D01*
X153000001Y-128785714D01*
X153095239Y-128833333D01*
X153142858Y-128928571D01*
X153142858Y-129452381D01*
X153619048Y-129452381D02*
X153619048Y-128785714D01*
X153619048Y-128880952D02*
X153666667Y-128833333D01*
X153761905Y-128785714D01*
X153904763Y-128785714D01*
X154000001Y-128833333D01*
X154047620Y-128928571D01*
X154047620Y-129452381D01*
X154047620Y-128928571D02*
X154095239Y-128833333D01*
X154190477Y-128785714D01*
X154333334Y-128785714D01*
X154428572Y-128833333D01*
X154476191Y-128928571D01*
X154476191Y-129452381D01*
X152000000Y-125000000D02*
X152000000Y-128000000D01*
X141333334Y-142852381D02*
X141142857Y-142852381D01*
X141047619Y-142900000D01*
X141000000Y-142947619D01*
X140904762Y-143090476D01*
X140857143Y-143280952D01*
X140857143Y-143661905D01*
X140904762Y-143757143D01*
X140952381Y-143804762D01*
X141047619Y-143852381D01*
X141238096Y-143852381D01*
X141333334Y-143804762D01*
X141380953Y-143757143D01*
X141428572Y-143661905D01*
X141428572Y-143423810D01*
X141380953Y-143328571D01*
X141333334Y-143280952D01*
X141238096Y-143233333D01*
X141047619Y-143233333D01*
X140952381Y-143280952D01*
X140904762Y-143328571D01*
X140857143Y-143423810D01*
X142047619Y-142852381D02*
X142142858Y-142852381D01*
X142238096Y-142900000D01*
X142285715Y-142947619D01*
X142333334Y-143042857D01*
X142380953Y-143233333D01*
X142380953Y-143471429D01*
X142333334Y-143661905D01*
X142285715Y-143757143D01*
X142238096Y-143804762D01*
X142142858Y-143852381D01*
X142047619Y-143852381D01*
X141952381Y-143804762D01*
X141904762Y-143757143D01*
X141857143Y-143661905D01*
X141809524Y-143471429D01*
X141809524Y-143233333D01*
X141857143Y-143042857D01*
X141904762Y-142947619D01*
X141952381Y-142900000D01*
X142047619Y-142852381D01*
X142857143Y-143804762D02*
X142857143Y-143852381D01*
X142809524Y-143947619D01*
X142761905Y-143995238D01*
X143476190Y-142852381D02*
X143571429Y-142852381D01*
X143666667Y-142900000D01*
X143714286Y-142947619D01*
X143761905Y-143042857D01*
X143809524Y-143233333D01*
X143809524Y-143471429D01*
X143761905Y-143661905D01*
X143714286Y-143757143D01*
X143666667Y-143804762D01*
X143571429Y-143852381D01*
X143476190Y-143852381D01*
X143380952Y-143804762D01*
X143333333Y-143757143D01*
X143285714Y-143661905D01*
X143238095Y-143471429D01*
X143238095Y-143233333D01*
X143285714Y-143042857D01*
X143333333Y-142947619D01*
X143380952Y-142900000D01*
X143476190Y-142852381D01*
X144428571Y-142852381D02*
X144523810Y-142852381D01*
X144619048Y-142900000D01*
X144666667Y-142947619D01*
X144714286Y-143042857D01*
X144761905Y-143233333D01*
X144761905Y-143471429D01*
X144714286Y-143661905D01*
X144666667Y-143757143D01*
X144619048Y-143804762D01*
X144523810Y-143852381D01*
X144428571Y-143852381D01*
X144333333Y-143804762D01*
X144285714Y-143757143D01*
X144238095Y-143661905D01*
X144190476Y-143471429D01*
X144190476Y-143233333D01*
X144238095Y-143042857D01*
X144285714Y-142947619D01*
X144333333Y-142900000D01*
X144428571Y-142852381D01*
X145380952Y-142852381D02*
X145476191Y-142852381D01*
X145571429Y-142900000D01*
X145619048Y-142947619D01*
X145666667Y-143042857D01*
X145714286Y-143233333D01*
X145714286Y-143471429D01*
X145666667Y-143661905D01*
X145619048Y-143757143D01*
X145571429Y-143804762D01*
X145476191Y-143852381D01*
X145380952Y-143852381D01*
X145285714Y-143804762D01*
X145238095Y-143757143D01*
X145190476Y-143661905D01*
X145142857Y-143471429D01*
X145142857Y-143233333D01*
X145190476Y-143042857D01*
X145238095Y-142947619D01*
X145285714Y-142900000D01*
X145380952Y-142852381D01*
X146904762Y-143852381D02*
X146904762Y-143185714D01*
X146904762Y-143280952D02*
X146952381Y-143233333D01*
X147047619Y-143185714D01*
X147190477Y-143185714D01*
X147285715Y-143233333D01*
X147333334Y-143328571D01*
X147333334Y-143852381D01*
X147333334Y-143328571D02*
X147380953Y-143233333D01*
X147476191Y-143185714D01*
X147619048Y-143185714D01*
X147714286Y-143233333D01*
X147761905Y-143328571D01*
X147761905Y-143852381D01*
X148238095Y-143852381D02*
X148238095Y-143185714D01*
X148238095Y-143280952D02*
X148285714Y-143233333D01*
X148380952Y-143185714D01*
X148523810Y-143185714D01*
X148619048Y-143233333D01*
X148666667Y-143328571D01*
X148666667Y-143852381D01*
X148666667Y-143328571D02*
X148714286Y-143233333D01*
X148809524Y-143185714D01*
X148952381Y-143185714D01*
X149047619Y-143233333D01*
X149095238Y-143328571D01*
X149095238Y-143852381D01*
X115000000Y-142500000D02*
X175000000Y-142500000D01*
X115000000Y-95000000D02*
X115000000Y-144300000D01*
X175000000Y-95000000D02*
X175000000Y-144300000D01*
X175000000Y-142500000D02*
X173873496Y-143086421D01*
X175000000Y-142500000D02*
X173873496Y-141913579D01*
X115000000Y-142500000D02*
X116126504Y-143086421D01*
X115000000Y-142500000D02*
X116126504Y-141913579D01*
X137285715Y-126220879D02*
X137333334Y-126173260D01*
X137428572Y-126125641D01*
X137666668Y-126125641D01*
X137761906Y-126173260D01*
X137809525Y-126220879D01*
X137857144Y-126316117D01*
X137857144Y-126411355D01*
X137809525Y-126554212D01*
X137238096Y-127125641D01*
X137857144Y-127125641D01*
X138333334Y-127078022D02*
X138333334Y-127125641D01*
X138285715Y-127220879D01*
X138238096Y-127268498D01*
X138952381Y-126125641D02*
X139047620Y-126125641D01*
X139142858Y-126173260D01*
X139190477Y-126220879D01*
X139238096Y-126316117D01*
X139285715Y-126506593D01*
X139285715Y-126744689D01*
X139238096Y-126935165D01*
X139190477Y-127030403D01*
X139142858Y-127078022D01*
X139047620Y-127125641D01*
X138952381Y-127125641D01*
X138857143Y-127078022D01*
X138809524Y-127030403D01*
X138761905Y-126935165D01*
X138714286Y-126744689D01*
X138714286Y-126506593D01*
X138761905Y-126316117D01*
X138809524Y-126220879D01*
X138857143Y-126173260D01*
X138952381Y-126125641D01*
X140476191Y-127125641D02*
X140476191Y-126458974D01*
X140476191Y-126554212D02*
X140523810Y-126506593D01*
X140619048Y-126458974D01*
X140761906Y-126458974D01*
X140857144Y-126506593D01*
X140904763Y-126601831D01*
X140904763Y-127125641D01*
X140904763Y-126601831D02*
X140952382Y-126506593D01*
X141047620Y-126458974D01*
X141190477Y-126458974D01*
X141285715Y-126506593D01*
X141333334Y-126601831D01*
X141333334Y-127125641D01*
X141809524Y-127125641D02*
X141809524Y-126458974D01*
X141809524Y-126554212D02*
X141857143Y-126506593D01*
X141952381Y-126458974D01*
X142095239Y-126458974D01*
X142190477Y-126506593D01*
X142238096Y-126601831D01*
X142238096Y-127125641D01*
X142238096Y-126601831D02*
X142285715Y-126506593D01*
X142380953Y-126458974D01*
X142523810Y-126458974D01*
X142619048Y-126506593D01*
X142666667Y-126601831D01*
X142666667Y-127125641D01*
X139000000Y-125323260D02*
X141000000Y-125323260D01*
X139000000Y-124250000D02*
X139000000Y-128023260D01*
X141000000Y-124250000D02*
X141000000Y-128023260D01*
X141000000Y-125323260D02*
X139873496Y-125909681D01*
X141000000Y-125323260D02*
X139873496Y-124736839D01*
X139000000Y-125323260D02*
X140126504Y-125909681D01*
X139000000Y-125323260D02*
X140126504Y-124736839D01*
X108647619Y-117642857D02*
X108600000Y-117595238D01*
X108552381Y-117500000D01*
X108552381Y-117261904D01*
X108600000Y-117166666D01*
X108647619Y-117119047D01*
X108742857Y-117071428D01*
X108838095Y-117071428D01*
X108980952Y-117119047D01*
X109552381Y-117690476D01*
X109552381Y-117071428D01*
X108552381Y-116738095D02*
X108552381Y-116119047D01*
X108933333Y-116452381D01*
X108933333Y-116309523D01*
X108980952Y-116214285D01*
X109028571Y-116166666D01*
X109123810Y-116119047D01*
X109361905Y-116119047D01*
X109457143Y-116166666D01*
X109504762Y-116214285D01*
X109552381Y-116309523D01*
X109552381Y-116595238D01*
X109504762Y-116690476D01*
X109457143Y-116738095D01*
X109504762Y-115642857D02*
X109552381Y-115642857D01*
X109647619Y-115690476D01*
X109695238Y-115738095D01*
X108552381Y-115023810D02*
X108552381Y-114928571D01*
X108600000Y-114833333D01*
X108647619Y-114785714D01*
X108742857Y-114738095D01*
X108933333Y-114690476D01*
X109171429Y-114690476D01*
X109361905Y-114738095D01*
X109457143Y-114785714D01*
X109504762Y-114833333D01*
X109552381Y-114928571D01*
X109552381Y-115023810D01*
X109504762Y-115119048D01*
X109457143Y-115166667D01*
X109361905Y-115214286D01*
X109171429Y-115261905D01*
X108933333Y-115261905D01*
X108742857Y-115214286D01*
X108647619Y-115166667D01*
X108600000Y-115119048D01*
X108552381Y-115023810D01*
X108552381Y-114071429D02*
X108552381Y-113976190D01*
X108600000Y-113880952D01*
X108647619Y-113833333D01*
X108742857Y-113785714D01*
X108933333Y-113738095D01*
X109171429Y-113738095D01*
X109361905Y-113785714D01*
X109457143Y-113833333D01*
X109504762Y-113880952D01*
X109552381Y-113976190D01*
X109552381Y-114071429D01*
X109504762Y-114166667D01*
X109457143Y-114214286D01*
X109361905Y-114261905D01*
X109171429Y-114309524D01*
X108933333Y-114309524D01*
X108742857Y-114261905D01*
X108647619Y-114214286D01*
X108600000Y-114166667D01*
X108552381Y-114071429D01*
X108552381Y-113119048D02*
X108552381Y-113023809D01*
X108600000Y-112928571D01*
X108647619Y-112880952D01*
X108742857Y-112833333D01*
X108933333Y-112785714D01*
X109171429Y-112785714D01*
X109361905Y-112833333D01*
X109457143Y-112880952D01*
X109504762Y-112928571D01*
X109552381Y-113023809D01*
X109552381Y-113119048D01*
X109504762Y-113214286D01*
X109457143Y-113261905D01*
X109361905Y-113309524D01*
X109171429Y-113357143D01*
X108933333Y-113357143D01*
X108742857Y-113309524D01*
X108647619Y-113261905D01*
X108600000Y-113214286D01*
X108552381Y-113119048D01*
X109552381Y-111595238D02*
X108885714Y-111595238D01*
X108980952Y-111595238D02*
X108933333Y-111547619D01*
X108885714Y-111452381D01*
X108885714Y-111309523D01*
X108933333Y-111214285D01*
X109028571Y-111166666D01*
X109552381Y-111166666D01*
X109028571Y-111166666D02*
X108933333Y-111119047D01*
X108885714Y-111023809D01*
X108885714Y-110880952D01*
X108933333Y-110785714D01*
X109028571Y-110738095D01*
X109552381Y-110738095D01*
X109552381Y-110261905D02*
X108885714Y-110261905D01*
X108980952Y-110261905D02*
X108933333Y-110214286D01*
X108885714Y-110119048D01*
X108885714Y-109976190D01*
X108933333Y-109880952D01*
X109028571Y-109833333D01*
X109552381Y-109833333D01*
X109028571Y-109833333D02*
X108933333Y-109785714D01*
X108885714Y-109690476D01*
X108885714Y-109547619D01*
X108933333Y-109452381D01*
X109028571Y-109404762D01*
X109552381Y-109404762D01*
X110000000Y-125000000D02*
X110000000Y-102000000D01*
X121000000Y-125000000D02*
X108200000Y-125000000D01*
X121000000Y-102000000D02*
X108200000Y-102000000D01*
X110000000Y-102000000D02*
X110586421Y-103126504D01*
X110000000Y-102000000D02*
X109413579Y-103126504D01*
X110000000Y-125000000D02*
X110586421Y-123873496D01*
X110000000Y-125000000D02*
X109413579Y-123873496D01*
X180552381Y-98666666D02*
X180552381Y-98857143D01*
X180600000Y-98952381D01*
X180647619Y-99000000D01*
X180790476Y-99095238D01*
X180980952Y-99142857D01*
X181361905Y-99142857D01*
X181457143Y-99095238D01*
X181504762Y-99047619D01*
X181552381Y-98952381D01*
X181552381Y-98761904D01*
X181504762Y-98666666D01*
X181457143Y-98619047D01*
X181361905Y-98571428D01*
X181123810Y-98571428D01*
X181028571Y-98619047D01*
X180980952Y-98666666D01*
X180933333Y-98761904D01*
X180933333Y-98952381D01*
X180980952Y-99047619D01*
X181028571Y-99095238D01*
X181123810Y-99142857D01*
X180552381Y-97952381D02*
X180552381Y-97857142D01*
X180600000Y-97761904D01*
X180647619Y-97714285D01*
X180742857Y-97666666D01*
X180933333Y-97619047D01*
X181171429Y-97619047D01*
X181361905Y-97666666D01*
X181457143Y-97714285D01*
X181504762Y-97761904D01*
X181552381Y-97857142D01*
X181552381Y-97952381D01*
X181504762Y-98047619D01*
X181457143Y-98095238D01*
X181361905Y-98142857D01*
X181171429Y-98190476D01*
X180933333Y-98190476D01*
X180742857Y-98142857D01*
X180647619Y-98095238D01*
X180600000Y-98047619D01*
X180552381Y-97952381D01*
X181504762Y-97142857D02*
X181552381Y-97142857D01*
X181647619Y-97190476D01*
X181695238Y-97238095D01*
X180552381Y-96523810D02*
X180552381Y-96428571D01*
X180600000Y-96333333D01*
X180647619Y-96285714D01*
X180742857Y-96238095D01*
X180933333Y-96190476D01*
X181171429Y-96190476D01*
X181361905Y-96238095D01*
X181457143Y-96285714D01*
X181504762Y-96333333D01*
X181552381Y-96428571D01*
X181552381Y-96523810D01*
X181504762Y-96619048D01*
X181457143Y-96666667D01*
X181361905Y-96714286D01*
X181171429Y-96761905D01*
X180933333Y-96761905D01*
X180742857Y-96714286D01*
X180647619Y-96666667D01*
X180600000Y-96619048D01*
X180552381Y-96523810D01*
X180552381Y-95571429D02*
X180552381Y-95476190D01*
X180600000Y-95380952D01*
X180647619Y-95333333D01*
X180742857Y-95285714D01*
X180933333Y-95238095D01*
X181171429Y-95238095D01*
X181361905Y-95285714D01*
X181457143Y-95333333D01*
X181504762Y-95380952D01*
X181552381Y-95476190D01*
X181552381Y-95571429D01*
X181504762Y-95666667D01*
X181457143Y-95714286D01*
X181361905Y-95761905D01*
X181171429Y-95809524D01*
X180933333Y-95809524D01*
X180742857Y-95761905D01*
X180647619Y-95714286D01*
X180600000Y-95666667D01*
X180552381Y-95571429D01*
X180552381Y-94619048D02*
X180552381Y-94523809D01*
X180600000Y-94428571D01*
X180647619Y-94380952D01*
X180742857Y-94333333D01*
X180933333Y-94285714D01*
X181171429Y-94285714D01*
X181361905Y-94333333D01*
X181457143Y-94380952D01*
X181504762Y-94428571D01*
X181552381Y-94523809D01*
X181552381Y-94619048D01*
X181504762Y-94714286D01*
X181457143Y-94761905D01*
X181361905Y-94809524D01*
X181171429Y-94857143D01*
X180933333Y-94857143D01*
X180742857Y-94809524D01*
X180647619Y-94761905D01*
X180600000Y-94714286D01*
X180552381Y-94619048D01*
X181552381Y-93095238D02*
X180885714Y-93095238D01*
X180980952Y-93095238D02*
X180933333Y-93047619D01*
X180885714Y-92952381D01*
X180885714Y-92809523D01*
X180933333Y-92714285D01*
X181028571Y-92666666D01*
X181552381Y-92666666D01*
X181028571Y-92666666D02*
X180933333Y-92619047D01*
X180885714Y-92523809D01*
X180885714Y-92380952D01*
X180933333Y-92285714D01*
X181028571Y-92238095D01*
X181552381Y-92238095D01*
X181552381Y-91761905D02*
X180885714Y-91761905D01*
X180980952Y-91761905D02*
X180933333Y-91714286D01*
X180885714Y-91619048D01*
X180885714Y-91476190D01*
X180933333Y-91380952D01*
X181028571Y-91333333D01*
X181552381Y-91333333D01*
X181028571Y-91333333D02*
X180933333Y-91285714D01*
X180885714Y-91190476D01*
X180885714Y-91047619D01*
X180933333Y-90952381D01*
X181028571Y-90904762D01*
X181552381Y-90904762D01*
X179750000Y-125000000D02*
X179750000Y-65000000D01*
X170000000Y-125000000D02*
X182450000Y-125000000D01*
X170000000Y-65000000D02*
X182450000Y-65000000D01*
X179750000Y-65000000D02*
X180336421Y-66126504D01*
X179750000Y-65000000D02*
X179163579Y-66126504D01*
X179750000Y-125000000D02*
X180336421Y-123873496D01*
X179750000Y-125000000D02*
X179163579Y-123873496D01*
X184000000Y-130000000D02*
X184000000Y-60000000D01*
X180000000Y-56000000D02*
X110000000Y-56000000D01*
X106000000Y-130000000D02*
X106000000Y-60000000D01*
X180000000Y-134000000D02*
X110000000Y-134000000D01*
X106000000Y-130000000D02*
G75*
G03X110000000Y-134000000I4000000J0D01*
G01*
X180000000Y-134000000D02*
G75*
G03X184000000Y-130000000I0J4000000D01*
G01*
X184000000Y-60000000D02*
G75*
G03X180000000Y-56000000I-4000000J0D01*
G01*
X110000000Y-56000000D02*
G75*
G03X106000000Y-60000000I0J-4000000D01*
G01*
X105000000Y-130000000D02*
X105000000Y-60000000D01*
X105000000Y-130000000D02*
G75*
G03X110000000Y-135000000I5000000J0D01*
G01*
X110000000Y-55000000D02*
G75*
G03X105000000Y-60000000I0J-5000000D01*
G01*
X180000000Y-55000000D02*
X110000000Y-55000000D01*
X185000000Y-60000000D02*
G75*
G03X180000000Y-55000000I-5000000J0D01*
G01*
X185000000Y-130000000D02*
X185000000Y-60000000D01*
X180000000Y-135000000D02*
G75*
G03X185000000Y-130000000I0J5000000D01*
G01*
X180000000Y-135000000D02*
X110000000Y-135000000D01*
X147500000Y-65000000D02*
G75*
G03X147500000Y-65000000I-2500000J0D01*
G01*
X147500000Y-125000000D02*
G75*
G03X147500000Y-125000000I-2500000J0D01*
G01*
X177500000Y-95000000D02*
G75*
G03X177500000Y-95000000I-2500000J0D01*
G01*
X117500000Y-95000000D02*
G75*
G03X117500000Y-95000000I-2500000J0D01*
G01*
X175000000Y-95000000D02*
G75*
G03X175000000Y-95000000I-30000000J0D01*
G01*
X109552381Y-98571428D02*
X109552381Y-99142857D01*
X109552381Y-98857143D02*
X108552381Y-98857143D01*
X108695238Y-98952381D01*
X108790476Y-99047619D01*
X108838095Y-99142857D01*
X108885714Y-97714285D02*
X109552381Y-97714285D01*
X108504762Y-97952381D02*
X109219048Y-98190476D01*
X109219048Y-97571428D01*
X109504762Y-97142857D02*
X109552381Y-97142857D01*
X109647619Y-97190476D01*
X109695238Y-97238095D01*
X108552381Y-96523810D02*
X108552381Y-96428571D01*
X108600000Y-96333333D01*
X108647619Y-96285714D01*
X108742857Y-96238095D01*
X108933333Y-96190476D01*
X109171429Y-96190476D01*
X109361905Y-96238095D01*
X109457143Y-96285714D01*
X109504762Y-96333333D01*
X109552381Y-96428571D01*
X109552381Y-96523810D01*
X109504762Y-96619048D01*
X109457143Y-96666667D01*
X109361905Y-96714286D01*
X109171429Y-96761905D01*
X108933333Y-96761905D01*
X108742857Y-96714286D01*
X108647619Y-96666667D01*
X108600000Y-96619048D01*
X108552381Y-96523810D01*
X108552381Y-95571429D02*
X108552381Y-95476190D01*
X108600000Y-95380952D01*
X108647619Y-95333333D01*
X108742857Y-95285714D01*
X108933333Y-95238095D01*
X109171429Y-95238095D01*
X109361905Y-95285714D01*
X109457143Y-95333333D01*
X109504762Y-95380952D01*
X109552381Y-95476190D01*
X109552381Y-95571429D01*
X109504762Y-95666667D01*
X109457143Y-95714286D01*
X109361905Y-95761905D01*
X109171429Y-95809524D01*
X108933333Y-95809524D01*
X108742857Y-95761905D01*
X108647619Y-95714286D01*
X108600000Y-95666667D01*
X108552381Y-95571429D01*
X108552381Y-94619048D02*
X108552381Y-94523809D01*
X108600000Y-94428571D01*
X108647619Y-94380952D01*
X108742857Y-94333333D01*
X108933333Y-94285714D01*
X109171429Y-94285714D01*
X109361905Y-94333333D01*
X109457143Y-94380952D01*
X109504762Y-94428571D01*
X109552381Y-94523809D01*
X109552381Y-94619048D01*
X109504762Y-94714286D01*
X109457143Y-94761905D01*
X109361905Y-94809524D01*
X109171429Y-94857143D01*
X108933333Y-94857143D01*
X108742857Y-94809524D01*
X108647619Y-94761905D01*
X108600000Y-94714286D01*
X108552381Y-94619048D01*
X109552381Y-93095238D02*
X108885714Y-93095238D01*
X108980952Y-93095238D02*
X108933333Y-93047619D01*
X108885714Y-92952381D01*
X108885714Y-92809523D01*
X108933333Y-92714285D01*
X109028571Y-92666666D01*
X109552381Y-92666666D01*
X109028571Y-92666666D02*
X108933333Y-92619047D01*
X108885714Y-92523809D01*
X108885714Y-92380952D01*
X108933333Y-92285714D01*
X109028571Y-92238095D01*
X109552381Y-92238095D01*
X109552381Y-91761905D02*
X108885714Y-91761905D01*
X108980952Y-91761905D02*
X108933333Y-91714286D01*
X108885714Y-91619048D01*
X108885714Y-91476190D01*
X108933333Y-91380952D01*
X109028571Y-91333333D01*
X109552381Y-91333333D01*
X109028571Y-91333333D02*
X108933333Y-91285714D01*
X108885714Y-91190476D01*
X108885714Y-91047619D01*
X108933333Y-90952381D01*
X109028571Y-90904762D01*
X109552381Y-90904762D01*
X110000000Y-102000000D02*
X110000000Y-88000000D01*
X121000000Y-102000000D02*
X108200000Y-102000000D01*
X121000000Y-88000000D02*
X108200000Y-88000000D01*
X110000000Y-88000000D02*
X110586421Y-89126504D01*
X110000000Y-88000000D02*
X109413579Y-89126504D01*
X110000000Y-102000000D02*
X110586421Y-100873496D01*
X110000000Y-102000000D02*
X109413579Y-100873496D01*
X141380953Y-133302381D02*
X140904762Y-133302381D01*
X140857143Y-133778571D01*
X140904762Y-133730952D01*
X141000000Y-133683333D01*
X141238096Y-133683333D01*
X141333334Y-133730952D01*
X141380953Y-133778571D01*
X141428572Y-133873810D01*
X141428572Y-134111905D01*
X141380953Y-134207143D01*
X141333334Y-134254762D01*
X141238096Y-134302381D01*
X141000000Y-134302381D01*
X140904762Y-134254762D01*
X140857143Y-134207143D01*
X142047619Y-133302381D02*
X142142858Y-133302381D01*
X142238096Y-133350000D01*
X142285715Y-133397619D01*
X142333334Y-133492857D01*
X142380953Y-133683333D01*
X142380953Y-133921429D01*
X142333334Y-134111905D01*
X142285715Y-134207143D01*
X142238096Y-134254762D01*
X142142858Y-134302381D01*
X142047619Y-134302381D01*
X141952381Y-134254762D01*
X141904762Y-134207143D01*
X141857143Y-134111905D01*
X141809524Y-133921429D01*
X141809524Y-133683333D01*
X141857143Y-133492857D01*
X141904762Y-133397619D01*
X141952381Y-133350000D01*
X142047619Y-133302381D01*
X142857143Y-134254762D02*
X142857143Y-134302381D01*
X142809524Y-134397619D01*
X142761905Y-134445238D01*
X143476190Y-133302381D02*
X143571429Y-133302381D01*
X143666667Y-133350000D01*
X143714286Y-133397619D01*
X143761905Y-133492857D01*
X143809524Y-133683333D01*
X143809524Y-133921429D01*
X143761905Y-134111905D01*
X143714286Y-134207143D01*
X143666667Y-134254762D01*
X143571429Y-134302381D01*
X143476190Y-134302381D01*
X143380952Y-134254762D01*
X143333333Y-134207143D01*
X143285714Y-134111905D01*
X143238095Y-133921429D01*
X143238095Y-133683333D01*
X143285714Y-133492857D01*
X143333333Y-133397619D01*
X143380952Y-133350000D01*
X143476190Y-133302381D01*
X144428571Y-133302381D02*
X144523810Y-133302381D01*
X144619048Y-133350000D01*
X144666667Y-133397619D01*
X144714286Y-133492857D01*
X144761905Y-133683333D01*
X144761905Y-133921429D01*
X144714286Y-134111905D01*
X144666667Y-134207143D01*
X144619048Y-134254762D01*
X144523810Y-134302381D01*
X144428571Y-134302381D01*
X144333333Y-134254762D01*
X144285714Y-134207143D01*
X144238095Y-134111905D01*
X144190476Y-133921429D01*
X144190476Y-133683333D01*
X144238095Y-133492857D01*
X144285714Y-133397619D01*
X144333333Y-133350000D01*
X144428571Y-133302381D01*
X145380952Y-133302381D02*
X145476191Y-133302381D01*
X145571429Y-133350000D01*
X145619048Y-133397619D01*
X145666667Y-133492857D01*
X145714286Y-133683333D01*
X145714286Y-133921429D01*
X145666667Y-134111905D01*
X145619048Y-134207143D01*
X145571429Y-134254762D01*
X145476191Y-134302381D01*
X145380952Y-134302381D01*
X145285714Y-134254762D01*
X145238095Y-134207143D01*
X145190476Y-134111905D01*
X145142857Y-133921429D01*
X145142857Y-133683333D01*
X145190476Y-133492857D01*
X145238095Y-133397619D01*
X145285714Y-133350000D01*
X145380952Y-133302381D01*
X146904762Y-134302381D02*
X146904762Y-133635714D01*
X146904762Y-133730952D02*
X146952381Y-133683333D01*
X147047619Y-133635714D01*
X147190477Y-133635714D01*
X147285715Y-133683333D01*
X147333334Y-133778571D01*
X147333334Y-134302381D01*
X147333334Y-133778571D02*
X147380953Y-133683333D01*
X147476191Y-133635714D01*
X147619048Y-133635714D01*
X147714286Y-133683333D01*
X147761905Y-133778571D01*
X147761905Y-134302381D01*
X148238095Y-134302381D02*
X148238095Y-133635714D01*
X148238095Y-133730952D02*
X148285714Y-133683333D01*
X148380952Y-133635714D01*
X148523810Y-133635714D01*
X148619048Y-133683333D01*
X148666667Y-133778571D01*
X148666667Y-134302381D01*
X148666667Y-133778571D02*
X148714286Y-133683333D01*
X148809524Y-133635714D01*
X148952381Y-133635714D01*
X149047619Y-133683333D01*
X149095238Y-133778571D01*
X149095238Y-134302381D01*
X120000000Y-132500000D02*
X170000000Y-132500000D01*
X120000000Y-125000000D02*
X120000000Y-135200000D01*
X170000000Y-125000000D02*
X170000000Y-135200000D01*
X170000000Y-132500000D02*
X168873496Y-133086421D01*
X170000000Y-132500000D02*
X168873496Y-131913579D01*
X120000000Y-132500000D02*
X121126504Y-133086421D01*
X120000000Y-132500000D02*
X121126504Y-131913579D01*
X108647619Y-80642857D02*
X108600000Y-80595238D01*
X108552381Y-80500000D01*
X108552381Y-80261904D01*
X108600000Y-80166666D01*
X108647619Y-80119047D01*
X108742857Y-80071428D01*
X108838095Y-80071428D01*
X108980952Y-80119047D01*
X109552381Y-80690476D01*
X109552381Y-80071428D01*
X108552381Y-79738095D02*
X108552381Y-79119047D01*
X108933333Y-79452381D01*
X108933333Y-79309523D01*
X108980952Y-79214285D01*
X109028571Y-79166666D01*
X109123810Y-79119047D01*
X109361905Y-79119047D01*
X109457143Y-79166666D01*
X109504762Y-79214285D01*
X109552381Y-79309523D01*
X109552381Y-79595238D01*
X109504762Y-79690476D01*
X109457143Y-79738095D01*
X109504762Y-78642857D02*
X109552381Y-78642857D01*
X109647619Y-78690476D01*
X109695238Y-78738095D01*
X108552381Y-78023810D02*
X108552381Y-77928571D01*
X108600000Y-77833333D01*
X108647619Y-77785714D01*
X108742857Y-77738095D01*
X108933333Y-77690476D01*
X109171429Y-77690476D01*
X109361905Y-77738095D01*
X109457143Y-77785714D01*
X109504762Y-77833333D01*
X109552381Y-77928571D01*
X109552381Y-78023810D01*
X109504762Y-78119048D01*
X109457143Y-78166667D01*
X109361905Y-78214286D01*
X109171429Y-78261905D01*
X108933333Y-78261905D01*
X108742857Y-78214286D01*
X108647619Y-78166667D01*
X108600000Y-78119048D01*
X108552381Y-78023810D01*
X108552381Y-77071429D02*
X108552381Y-76976190D01*
X108600000Y-76880952D01*
X108647619Y-76833333D01*
X108742857Y-76785714D01*
X108933333Y-76738095D01*
X109171429Y-76738095D01*
X109361905Y-76785714D01*
X109457143Y-76833333D01*
X109504762Y-76880952D01*
X109552381Y-76976190D01*
X109552381Y-77071429D01*
X109504762Y-77166667D01*
X109457143Y-77214286D01*
X109361905Y-77261905D01*
X109171429Y-77309524D01*
X108933333Y-77309524D01*
X108742857Y-77261905D01*
X108647619Y-77214286D01*
X108600000Y-77166667D01*
X108552381Y-77071429D01*
X108552381Y-76119048D02*
X108552381Y-76023809D01*
X108600000Y-75928571D01*
X108647619Y-75880952D01*
X108742857Y-75833333D01*
X108933333Y-75785714D01*
X109171429Y-75785714D01*
X109361905Y-75833333D01*
X109457143Y-75880952D01*
X109504762Y-75928571D01*
X109552381Y-76023809D01*
X109552381Y-76119048D01*
X109504762Y-76214286D01*
X109457143Y-76261905D01*
X109361905Y-76309524D01*
X109171429Y-76357143D01*
X108933333Y-76357143D01*
X108742857Y-76309524D01*
X108647619Y-76261905D01*
X108600000Y-76214286D01*
X108552381Y-76119048D01*
X109552381Y-74595238D02*
X108885714Y-74595238D01*
X108980952Y-74595238D02*
X108933333Y-74547619D01*
X108885714Y-74452381D01*
X108885714Y-74309523D01*
X108933333Y-74214285D01*
X109028571Y-74166666D01*
X109552381Y-74166666D01*
X109028571Y-74166666D02*
X108933333Y-74119047D01*
X108885714Y-74023809D01*
X108885714Y-73880952D01*
X108933333Y-73785714D01*
X109028571Y-73738095D01*
X109552381Y-73738095D01*
X109552381Y-73261905D02*
X108885714Y-73261905D01*
X108980952Y-73261905D02*
X108933333Y-73214286D01*
X108885714Y-73119048D01*
X108885714Y-72976190D01*
X108933333Y-72880952D01*
X109028571Y-72833333D01*
X109552381Y-72833333D01*
X109028571Y-72833333D02*
X108933333Y-72785714D01*
X108885714Y-72690476D01*
X108885714Y-72547619D01*
X108933333Y-72452381D01*
X109028571Y-72404762D01*
X109552381Y-72404762D01*
X110000000Y-88000000D02*
X110000000Y-65000000D01*
X121000000Y-88000000D02*
X108200000Y-88000000D01*
X121000000Y-65000000D02*
X108200000Y-65000000D01*
X110000000Y-65000000D02*
X110586421Y-66126504D01*
X110000000Y-65000000D02*
X109413579Y-66126504D01*
X110000000Y-88000000D02*
X110586421Y-86873496D01*
X110000000Y-88000000D02*
X109413579Y-86873496D01*
M02*
