G04 #@! TF.GenerationSoftware,KiCad,Pcbnew,no-vcs-found-7433~57~ubuntu16.10.1*
G04 #@! TF.CreationDate,2017-01-11T21:44:38+01:00*
G04 #@! TF.ProjectId,can-node,63616E2D6E6F64652E6B696361645F70,rev?*
G04 #@! TF.FileFunction,Soldermask,Top*
G04 #@! TF.FilePolarity,Negative*
%FSLAX46Y46*%
G04 Gerber Fmt 4.6, Leading zero omitted, Abs format (unit mm)*
G04 Created by KiCad (PCBNEW no-vcs-found-7433~57~ubuntu16.10.1) date Wed Jan 11 21:44:38 2017*
%MOMM*%
%LPD*%
G01*
G04 APERTURE LIST*
%ADD10C,0.100000*%
%ADD11R,0.600000X1.100000*%
%ADD12R,2.200000X0.600000*%
%ADD13C,1.500000*%
%ADD14R,0.750000X0.800000*%
%ADD15R,0.400000X0.600000*%
%ADD16R,0.800000X0.750000*%
%ADD17R,2.500000X3.000000*%
%ADD18R,1.600000X1.000000*%
%ADD19R,1.000000X1.250000*%
%ADD20R,1.000000X0.250000*%
%ADD21R,0.250000X1.000000*%
%ADD22R,0.600000X0.500000*%
%ADD23C,3.200000*%
%ADD24R,0.900000X0.450000*%
%ADD25R,2.500000X1.000000*%
%ADD26R,1.000000X1.600000*%
%ADD27R,1.250000X1.000000*%
%ADD28R,0.500000X0.600000*%
%ADD29R,3.500120X1.800860*%
%ADD30R,1.800860X3.500120*%
%ADD31R,1.220000X0.910000*%
%ADD32R,0.797560X0.797560*%
%ADD33R,3.500000X5.500000*%
%ADD34R,0.900000X1.700000*%
%ADD35R,0.600000X0.400000*%
%ADD36R,0.800000X0.800000*%
%ADD37R,0.400000X0.900000*%
%ADD38R,1.000000X0.500000*%
%ADD39R,1.600000X2.500000*%
%ADD40C,0.600000*%
%ADD41C,1.000000*%
%ADD42C,1.400000*%
G04 APERTURE END LIST*
D10*
D11*
X149050000Y-70350000D03*
X150000000Y-70350000D03*
X150950000Y-70350000D03*
X149050000Y-67650000D03*
X150000000Y-67650000D03*
X150950000Y-67650000D03*
D12*
X138700000Y-71095000D03*
X133300000Y-71095000D03*
X138700000Y-72365000D03*
X133300000Y-72365000D03*
X138700000Y-73635000D03*
X133300000Y-73635000D03*
X138700000Y-74905000D03*
X133300000Y-74905000D03*
D13*
X136110000Y-78420000D03*
X138650000Y-78420000D03*
X141190000Y-78420000D03*
X143730000Y-78420000D03*
X148810000Y-78420000D03*
X153890000Y-78420000D03*
X153890000Y-88580000D03*
X151350000Y-88580000D03*
X148810000Y-88580000D03*
X146270000Y-88580000D03*
X143730000Y-88580000D03*
X141190000Y-88580000D03*
X138650000Y-88580000D03*
X136110000Y-88580000D03*
D14*
X145000000Y-93250000D03*
X145000000Y-94750000D03*
D15*
X137550000Y-92500000D03*
X138450000Y-92500000D03*
X137550000Y-95500000D03*
X138450000Y-95500000D03*
D16*
X137250000Y-94000000D03*
X138750000Y-94000000D03*
D17*
X138750000Y-98500000D03*
D18*
X145000000Y-99800000D03*
X145000000Y-97200000D03*
D19*
X150500000Y-91250000D03*
X152500000Y-91250000D03*
D20*
X149300000Y-97250000D03*
X149300000Y-97750000D03*
X149300000Y-98250000D03*
X149300000Y-98750000D03*
X149300000Y-99250000D03*
X149300000Y-99750000D03*
X149300000Y-100250000D03*
X149300000Y-100750000D03*
X149300000Y-101250000D03*
X149300000Y-101750000D03*
X149300000Y-102250000D03*
X149300000Y-102750000D03*
X149300000Y-103250000D03*
X149300000Y-103750000D03*
X149300000Y-104250000D03*
X149300000Y-104750000D03*
D21*
X151250000Y-106700000D03*
X151750000Y-106700000D03*
X152250000Y-106700000D03*
X152750000Y-106700000D03*
X153250000Y-106700000D03*
X153750000Y-106700000D03*
X154250000Y-106700000D03*
X154750000Y-106700000D03*
X155250000Y-106700000D03*
X155750000Y-106700000D03*
X156250000Y-106700000D03*
X156750000Y-106700000D03*
X157250000Y-106700000D03*
X157750000Y-106700000D03*
X158250000Y-106700000D03*
X158750000Y-106700000D03*
D20*
X160700000Y-104750000D03*
X160700000Y-104250000D03*
X160700000Y-103750000D03*
X160700000Y-103250000D03*
X160700000Y-102750000D03*
X160700000Y-102250000D03*
X160700000Y-101750000D03*
X160700000Y-101250000D03*
X160700000Y-100750000D03*
X160700000Y-100250000D03*
X160700000Y-99750000D03*
X160700000Y-99250000D03*
X160700000Y-98750000D03*
X160700000Y-98250000D03*
X160700000Y-97750000D03*
X160700000Y-97250000D03*
D21*
X158750000Y-95300000D03*
X158250000Y-95300000D03*
X157750000Y-95300000D03*
X157250000Y-95300000D03*
X156750000Y-95300000D03*
X156250000Y-95300000D03*
X155750000Y-95300000D03*
X155250000Y-95300000D03*
X154750000Y-95300000D03*
X154250000Y-95300000D03*
X153750000Y-95300000D03*
X153250000Y-95300000D03*
X152750000Y-95300000D03*
X152250000Y-95300000D03*
X151750000Y-95300000D03*
X151250000Y-95300000D03*
D22*
X155650000Y-123700000D03*
X156750000Y-123700000D03*
D23*
X166500000Y-121500000D03*
D24*
X140700000Y-94975000D03*
X143300000Y-94975000D03*
X140700000Y-94325000D03*
X143300000Y-94325000D03*
X140700000Y-93675000D03*
X143300000Y-93675000D03*
X140700000Y-93025000D03*
X143300000Y-93025000D03*
D25*
X148000000Y-72500000D03*
X148000000Y-75500000D03*
D19*
X155000000Y-66750000D03*
X153000000Y-66750000D03*
D26*
X159000000Y-75500000D03*
X156000000Y-75500000D03*
D27*
X145250000Y-104250000D03*
X145250000Y-102250000D03*
D28*
X165000000Y-105450000D03*
X165000000Y-106550000D03*
D27*
X164750000Y-96500000D03*
X164750000Y-98500000D03*
D22*
X135650000Y-123700000D03*
X136750000Y-123700000D03*
D29*
X128999360Y-74500000D03*
X124000640Y-74500000D03*
D30*
X143000000Y-73999360D03*
X143000000Y-69000640D03*
D31*
X151000000Y-75635000D03*
X151000000Y-72365000D03*
D32*
X159000000Y-118250700D03*
X159000000Y-119749300D03*
X161250000Y-118251400D03*
X161250000Y-119750000D03*
D33*
X154900000Y-71000000D03*
X160100000Y-71000000D03*
D34*
X137450000Y-68500000D03*
X134550000Y-68500000D03*
D15*
X146550000Y-70500000D03*
X147450000Y-70500000D03*
X150450000Y-66000000D03*
X149550000Y-66000000D03*
X148450000Y-66000000D03*
X147550000Y-66000000D03*
D35*
X166000000Y-109450000D03*
X166000000Y-108550000D03*
X167500000Y-109450000D03*
X167500000Y-108550000D03*
X159000000Y-121950000D03*
X159000000Y-121050000D03*
X161250000Y-121950000D03*
X161250000Y-121050000D03*
D15*
X133350000Y-123700000D03*
X134250000Y-123700000D03*
X148050000Y-110500000D03*
X148950000Y-110500000D03*
X152450000Y-110500000D03*
X151550000Y-110500000D03*
X154250000Y-123700000D03*
X153350000Y-123700000D03*
D36*
X135800000Y-122100000D03*
X134200000Y-117900000D03*
X134200000Y-122100000D03*
X135800000Y-117900000D03*
X155800000Y-122100000D03*
X154200000Y-117900000D03*
X154200000Y-122100000D03*
X155800000Y-117900000D03*
D37*
X166300000Y-104900000D03*
X166300000Y-107100000D03*
X166950000Y-107100000D03*
X167600000Y-104900000D03*
X167600000Y-107100000D03*
D38*
X143500000Y-121000000D03*
X143500000Y-122000000D03*
X143500000Y-123000000D03*
X146500000Y-121000000D03*
X146500000Y-122000000D03*
X146500000Y-123000000D03*
D39*
X145000000Y-122000000D03*
D40*
X145400000Y-121150000D03*
X145400000Y-122850000D03*
X145400000Y-122000000D03*
X144600000Y-121150000D03*
X144600000Y-122850000D03*
X144600000Y-122000000D03*
D23*
X166250000Y-68750000D03*
X123500000Y-68500000D03*
X123500000Y-121500000D03*
D19*
X146100000Y-106000000D03*
X143900000Y-106000000D03*
D15*
X145450000Y-107700000D03*
X144550000Y-107700000D03*
D14*
X147250000Y-102500000D03*
X147250000Y-104000000D03*
X161000000Y-110000000D03*
X161000000Y-108500000D03*
D16*
X150750000Y-93250000D03*
X152250000Y-93250000D03*
X157750000Y-108750000D03*
X159250000Y-108750000D03*
X152750000Y-108750000D03*
X151250000Y-108750000D03*
D14*
X148000000Y-122750000D03*
X148000000Y-121250000D03*
X147500000Y-106250000D03*
X147500000Y-107750000D03*
X147250000Y-97500000D03*
X147250000Y-96000000D03*
X147250000Y-99500000D03*
X147250000Y-101000000D03*
X162750000Y-98250000D03*
X162750000Y-96750000D03*
D41*
X146812000Y-93218000D03*
X141200000Y-91300000D03*
X162306000Y-101854000D03*
X154600000Y-93400000D03*
D42*
X126500000Y-91250000D03*
X126500000Y-93750000D03*
X126500000Y-96250000D03*
X126500000Y-98750000D03*
X131500000Y-91250000D03*
X131500000Y-93750000D03*
X131500000Y-96250000D03*
X131500000Y-98750000D03*
D13*
X135890000Y-102870000D03*
D36*
X129200000Y-117900000D03*
X130800000Y-122100000D03*
X130800000Y-117900000D03*
X129200000Y-122100000D03*
D13*
X135890000Y-113030000D03*
M02*
