G04 #@! TF.GenerationSoftware,KiCad,Pcbnew,no-vcs-found-7433~57~ubuntu16.10.1*
G04 #@! TF.CreationDate,2017-01-11T21:14:06+01:00*
G04 #@! TF.ProjectId,can-node,63616E2D6E6F64652E6B696361645F70,rev?*
G04 #@! TF.FileFunction,Legend,Bot*
G04 #@! TF.FilePolarity,Positive*
%FSLAX46Y46*%
G04 Gerber Fmt 4.6, Leading zero omitted, Abs format (unit mm)*
G04 Created by KiCad (PCBNEW no-vcs-found-7433~57~ubuntu16.10.1) date Wed Jan 11 21:14:06 2017*
%MOMM*%
%LPD*%
G01*
G04 APERTURE LIST*
%ADD10C,0.100000*%
%ADD11C,0.200000*%
%ADD12C,0.150000*%
%ADD13C,0.120000*%
%ADD14C,0.254000*%
G04 APERTURE END LIST*
D10*
X158615952Y-97226190D02*
X158615952Y-97630952D01*
X158592142Y-97678571D01*
X158568333Y-97702380D01*
X158520714Y-97726190D01*
X158425476Y-97726190D01*
X158377857Y-97702380D01*
X158354047Y-97678571D01*
X158330238Y-97630952D01*
X158330238Y-97226190D01*
X158211190Y-97773809D02*
X157830238Y-97773809D01*
X157782619Y-97226190D02*
X157496904Y-97226190D01*
X157639761Y-97726190D02*
X157639761Y-97226190D01*
X157377857Y-97226190D02*
X157044523Y-97726190D01*
X157044523Y-97226190D02*
X157377857Y-97726190D01*
D11*
X135000000Y-104000000D02*
X123000000Y-104000000D01*
X123000000Y-109000000D02*
X135000000Y-109000000D01*
X123000000Y-104000000D02*
X123000000Y-109000000D01*
X135000000Y-108900000D02*
X135000000Y-104000000D01*
X153200000Y-105400000D02*
X152900000Y-105100000D01*
D10*
X158639761Y-92702380D02*
X158568333Y-92726190D01*
X158449285Y-92726190D01*
X158401666Y-92702380D01*
X158377857Y-92678571D01*
X158354047Y-92630952D01*
X158354047Y-92583333D01*
X158377857Y-92535714D01*
X158401666Y-92511904D01*
X158449285Y-92488095D01*
X158544523Y-92464285D01*
X158592142Y-92440476D01*
X158615952Y-92416666D01*
X158639761Y-92369047D01*
X158639761Y-92321428D01*
X158615952Y-92273809D01*
X158592142Y-92250000D01*
X158544523Y-92226190D01*
X158425476Y-92226190D01*
X158354047Y-92250000D01*
X158187380Y-92226190D02*
X158068333Y-92726190D01*
X157973095Y-92369047D01*
X157877857Y-92726190D01*
X157758809Y-92226190D01*
X157568333Y-92726190D02*
X157568333Y-92226190D01*
X157449285Y-92226190D01*
X157377857Y-92250000D01*
X157330238Y-92297619D01*
X157306428Y-92345238D01*
X157282619Y-92440476D01*
X157282619Y-92511904D01*
X157306428Y-92607142D01*
X157330238Y-92654761D01*
X157377857Y-92702380D01*
X157449285Y-92726190D01*
X157568333Y-92726190D01*
X157068333Y-92726190D02*
X157068333Y-92226190D01*
X156735000Y-92226190D02*
X156639761Y-92226190D01*
X156592142Y-92250000D01*
X156544523Y-92297619D01*
X156520714Y-92392857D01*
X156520714Y-92559523D01*
X156544523Y-92654761D01*
X156592142Y-92702380D01*
X156639761Y-92726190D01*
X156735000Y-92726190D01*
X156782619Y-92702380D01*
X156830238Y-92654761D01*
X156854047Y-92559523D01*
X156854047Y-92392857D01*
X156830238Y-92297619D01*
X156782619Y-92250000D01*
X156735000Y-92226190D01*
X158663571Y-89626190D02*
X158354047Y-89626190D01*
X158520714Y-89816666D01*
X158449285Y-89816666D01*
X158401666Y-89840476D01*
X158377857Y-89864285D01*
X158354047Y-89911904D01*
X158354047Y-90030952D01*
X158377857Y-90078571D01*
X158401666Y-90102380D01*
X158449285Y-90126190D01*
X158592142Y-90126190D01*
X158639761Y-90102380D01*
X158663571Y-90078571D01*
X158139761Y-90078571D02*
X158115952Y-90102380D01*
X158139761Y-90126190D01*
X158163571Y-90102380D01*
X158139761Y-90078571D01*
X158139761Y-90126190D01*
X157949285Y-89626190D02*
X157639761Y-89626190D01*
X157806428Y-89816666D01*
X157735000Y-89816666D01*
X157687380Y-89840476D01*
X157663571Y-89864285D01*
X157639761Y-89911904D01*
X157639761Y-90030952D01*
X157663571Y-90078571D01*
X157687380Y-90102380D01*
X157735000Y-90126190D01*
X157877857Y-90126190D01*
X157925476Y-90102380D01*
X157949285Y-90078571D01*
X157496904Y-89626190D02*
X157330238Y-90126190D01*
X157163571Y-89626190D01*
X167907857Y-101150000D02*
X167955476Y-101126190D01*
X168026904Y-101126190D01*
X168098333Y-101150000D01*
X168145952Y-101197619D01*
X168169761Y-101245238D01*
X168193571Y-101340476D01*
X168193571Y-101411904D01*
X168169761Y-101507142D01*
X168145952Y-101554761D01*
X168098333Y-101602380D01*
X168026904Y-101626190D01*
X167979285Y-101626190D01*
X167907857Y-101602380D01*
X167884047Y-101578571D01*
X167884047Y-101411904D01*
X167979285Y-101411904D01*
X167669761Y-101626190D02*
X167669761Y-101126190D01*
X167384047Y-101626190D01*
X167384047Y-101126190D01*
X167145952Y-101626190D02*
X167145952Y-101126190D01*
X167026904Y-101126190D01*
X166955476Y-101150000D01*
X166907857Y-101197619D01*
X166884047Y-101245238D01*
X166860238Y-101340476D01*
X166860238Y-101411904D01*
X166884047Y-101507142D01*
X166907857Y-101554761D01*
X166955476Y-101602380D01*
X167026904Y-101626190D01*
X167145952Y-101626190D01*
X168407857Y-98526190D02*
X168407857Y-98930952D01*
X168384047Y-98978571D01*
X168360238Y-99002380D01*
X168312619Y-99026190D01*
X168217380Y-99026190D01*
X168169761Y-99002380D01*
X168145952Y-98978571D01*
X168122142Y-98930952D01*
X168122142Y-98526190D01*
X168003095Y-99073809D02*
X167622142Y-99073809D01*
X167574523Y-98526190D02*
X167288809Y-98526190D01*
X167431666Y-99026190D02*
X167431666Y-98526190D01*
X167169761Y-98526190D02*
X166836428Y-99026190D01*
X166836428Y-98526190D02*
X167169761Y-99026190D01*
X169122142Y-94002380D02*
X169050714Y-94026190D01*
X168931666Y-94026190D01*
X168884047Y-94002380D01*
X168860238Y-93978571D01*
X168836428Y-93930952D01*
X168836428Y-93883333D01*
X168860238Y-93835714D01*
X168884047Y-93811904D01*
X168931666Y-93788095D01*
X169026904Y-93764285D01*
X169074523Y-93740476D01*
X169098333Y-93716666D01*
X169122142Y-93669047D01*
X169122142Y-93621428D01*
X169098333Y-93573809D01*
X169074523Y-93550000D01*
X169026904Y-93526190D01*
X168907857Y-93526190D01*
X168836428Y-93550000D01*
X168669761Y-93526190D02*
X168550714Y-94026190D01*
X168455476Y-93669047D01*
X168360238Y-94026190D01*
X168241190Y-93526190D01*
X167765000Y-93978571D02*
X167788809Y-94002380D01*
X167860238Y-94026190D01*
X167907857Y-94026190D01*
X167979285Y-94002380D01*
X168026904Y-93954761D01*
X168050714Y-93907142D01*
X168074523Y-93811904D01*
X168074523Y-93740476D01*
X168050714Y-93645238D01*
X168026904Y-93597619D01*
X167979285Y-93550000D01*
X167907857Y-93526190D01*
X167860238Y-93526190D01*
X167788809Y-93550000D01*
X167765000Y-93573809D01*
X167312619Y-94026190D02*
X167550714Y-94026190D01*
X167550714Y-93526190D01*
X167145952Y-94026190D02*
X167145952Y-93526190D01*
X166860238Y-94026190D02*
X167074523Y-93740476D01*
X166860238Y-93526190D02*
X167145952Y-93811904D01*
X168312619Y-91026190D02*
X168003095Y-91026190D01*
X168169761Y-91216666D01*
X168098333Y-91216666D01*
X168050714Y-91240476D01*
X168026904Y-91264285D01*
X168003095Y-91311904D01*
X168003095Y-91430952D01*
X168026904Y-91478571D01*
X168050714Y-91502380D01*
X168098333Y-91526190D01*
X168241190Y-91526190D01*
X168288809Y-91502380D01*
X168312619Y-91478571D01*
X167788809Y-91478571D02*
X167765000Y-91502380D01*
X167788809Y-91526190D01*
X167812619Y-91502380D01*
X167788809Y-91478571D01*
X167788809Y-91526190D01*
X167598333Y-91026190D02*
X167288809Y-91026190D01*
X167455476Y-91216666D01*
X167384047Y-91216666D01*
X167336428Y-91240476D01*
X167312619Y-91264285D01*
X167288809Y-91311904D01*
X167288809Y-91430952D01*
X167312619Y-91478571D01*
X167336428Y-91502380D01*
X167384047Y-91526190D01*
X167526904Y-91526190D01*
X167574523Y-91502380D01*
X167598333Y-91478571D01*
X167145952Y-91026190D02*
X166979285Y-91526190D01*
X166812619Y-91026190D01*
D12*
X136392857Y-117701785D02*
X136392857Y-116951785D01*
X136392857Y-117666071D02*
X136464285Y-117701785D01*
X136607142Y-117701785D01*
X136678571Y-117666071D01*
X136714285Y-117630357D01*
X136750000Y-117558928D01*
X136750000Y-117344642D01*
X136714285Y-117273214D01*
X136678571Y-117237500D01*
X136607142Y-117201785D01*
X136464285Y-117201785D01*
X136392857Y-117237500D01*
X135750000Y-117666071D02*
X135821428Y-117701785D01*
X135964285Y-117701785D01*
X136035714Y-117666071D01*
X136071428Y-117594642D01*
X136071428Y-117308928D01*
X136035714Y-117237500D01*
X135964285Y-117201785D01*
X135821428Y-117201785D01*
X135750000Y-117237500D01*
X135714285Y-117308928D01*
X135714285Y-117380357D01*
X136071428Y-117451785D01*
X135428571Y-117666071D02*
X135357142Y-117701785D01*
X135214285Y-117701785D01*
X135142857Y-117666071D01*
X135107142Y-117594642D01*
X135107142Y-117558928D01*
X135142857Y-117487500D01*
X135214285Y-117451785D01*
X135321428Y-117451785D01*
X135392857Y-117416071D01*
X135428571Y-117344642D01*
X135428571Y-117308928D01*
X135392857Y-117237500D01*
X135321428Y-117201785D01*
X135214285Y-117201785D01*
X135142857Y-117237500D01*
X134785714Y-117701785D02*
X134785714Y-117201785D01*
X134785714Y-116951785D02*
X134821428Y-116987500D01*
X134785714Y-117023214D01*
X134750000Y-116987500D01*
X134785714Y-116951785D01*
X134785714Y-117023214D01*
X134107142Y-117201785D02*
X134107142Y-117808928D01*
X134142857Y-117880357D01*
X134178571Y-117916071D01*
X134250000Y-117951785D01*
X134357142Y-117951785D01*
X134428571Y-117916071D01*
X134107142Y-117666071D02*
X134178571Y-117701785D01*
X134321428Y-117701785D01*
X134392857Y-117666071D01*
X134428571Y-117630357D01*
X134464285Y-117558928D01*
X134464285Y-117344642D01*
X134428571Y-117273214D01*
X134392857Y-117237500D01*
X134321428Y-117201785D01*
X134178571Y-117201785D01*
X134107142Y-117237500D01*
X133750000Y-117201785D02*
X133750000Y-117701785D01*
X133750000Y-117273214D02*
X133714285Y-117237500D01*
X133642857Y-117201785D01*
X133535714Y-117201785D01*
X133464285Y-117237500D01*
X133428571Y-117308928D01*
X133428571Y-117701785D01*
X132785714Y-117666071D02*
X132857142Y-117701785D01*
X133000000Y-117701785D01*
X133071428Y-117666071D01*
X133107142Y-117594642D01*
X133107142Y-117308928D01*
X133071428Y-117237500D01*
X133000000Y-117201785D01*
X132857142Y-117201785D01*
X132785714Y-117237500D01*
X132750000Y-117308928D01*
X132750000Y-117380357D01*
X133107142Y-117451785D01*
X132107142Y-117701785D02*
X132107142Y-116951785D01*
X132107142Y-117666071D02*
X132178571Y-117701785D01*
X132321428Y-117701785D01*
X132392857Y-117666071D01*
X132428571Y-117630357D01*
X132464285Y-117558928D01*
X132464285Y-117344642D01*
X132428571Y-117273214D01*
X132392857Y-117237500D01*
X132321428Y-117201785D01*
X132178571Y-117201785D01*
X132107142Y-117237500D01*
X131250000Y-117201785D02*
X131107142Y-117701785D01*
X130964285Y-117344642D01*
X130821428Y-117701785D01*
X130678571Y-117201785D01*
X130392857Y-117701785D02*
X130392857Y-117201785D01*
X130392857Y-116951785D02*
X130428571Y-116987500D01*
X130392857Y-117023214D01*
X130357142Y-116987500D01*
X130392857Y-116951785D01*
X130392857Y-117023214D01*
X130142857Y-117201785D02*
X129857142Y-117201785D01*
X130035714Y-116951785D02*
X130035714Y-117594642D01*
X130000000Y-117666071D01*
X129928571Y-117701785D01*
X129857142Y-117701785D01*
X129607142Y-117701785D02*
X129607142Y-116951785D01*
X129285714Y-117701785D02*
X129285714Y-117308928D01*
X129321428Y-117237500D01*
X129392857Y-117201785D01*
X129500000Y-117201785D01*
X129571428Y-117237500D01*
X129607142Y-117273214D01*
X134446428Y-118976785D02*
X134446428Y-118226785D01*
X134017857Y-118976785D02*
X134339285Y-118548214D01*
X134017857Y-118226785D02*
X134446428Y-118655357D01*
X133696428Y-118976785D02*
X133696428Y-118476785D01*
X133696428Y-118226785D02*
X133732142Y-118262500D01*
X133696428Y-118298214D01*
X133660714Y-118262500D01*
X133696428Y-118226785D01*
X133696428Y-118298214D01*
X132910714Y-118905357D02*
X132946428Y-118941071D01*
X133053571Y-118976785D01*
X133125000Y-118976785D01*
X133232142Y-118941071D01*
X133303571Y-118869642D01*
X133339285Y-118798214D01*
X133375000Y-118655357D01*
X133375000Y-118548214D01*
X133339285Y-118405357D01*
X133303571Y-118333928D01*
X133232142Y-118262500D01*
X133125000Y-118226785D01*
X133053571Y-118226785D01*
X132946428Y-118262500D01*
X132910714Y-118298214D01*
X132625000Y-118762500D02*
X132267857Y-118762500D01*
X132696428Y-118976785D02*
X132446428Y-118226785D01*
X132196428Y-118976785D01*
X131946428Y-118976785D02*
X131946428Y-118226785D01*
X131767857Y-118226785D01*
X131660714Y-118262500D01*
X131589285Y-118333928D01*
X131553571Y-118405357D01*
X131517857Y-118548214D01*
X131517857Y-118655357D01*
X131553571Y-118798214D01*
X131589285Y-118869642D01*
X131660714Y-118941071D01*
X131767857Y-118976785D01*
X131946428Y-118976785D01*
D11*
X146325238Y-90702380D02*
X145991904Y-91702380D01*
X145658571Y-90702380D01*
X145325238Y-91702380D02*
X145325238Y-90702380D01*
X144849047Y-91702380D02*
X144849047Y-90702380D01*
X144277619Y-91702380D01*
X144277619Y-90702380D01*
X143801428Y-91321428D02*
X143039523Y-91321428D01*
X143420476Y-91702380D02*
X143420476Y-90940476D01*
X141849047Y-90654761D02*
X142706190Y-91940476D01*
X141563333Y-90797619D02*
X141515714Y-90750000D01*
X141420476Y-90702380D01*
X141182380Y-90702380D01*
X141087142Y-90750000D01*
X141039523Y-90797619D01*
X140991904Y-90892857D01*
X140991904Y-90988095D01*
X141039523Y-91130952D01*
X141610952Y-91702380D01*
X140991904Y-91702380D01*
X140134761Y-91035714D02*
X140134761Y-91702380D01*
X140372857Y-90654761D02*
X140610952Y-91369047D01*
X139991904Y-91369047D01*
X139753809Y-90702380D02*
X139420476Y-91702380D01*
X139087142Y-90702380D01*
X137991904Y-91702380D02*
X137991904Y-90702380D01*
X137753809Y-90702380D01*
X137610952Y-90750000D01*
X137515714Y-90845238D01*
X137468095Y-90940476D01*
X137420476Y-91130952D01*
X137420476Y-91273809D01*
X137468095Y-91464285D01*
X137515714Y-91559523D01*
X137610952Y-91654761D01*
X137753809Y-91702380D01*
X137991904Y-91702380D01*
X136420476Y-91607142D02*
X136468095Y-91654761D01*
X136610952Y-91702380D01*
X136706190Y-91702380D01*
X136849047Y-91654761D01*
X136944285Y-91559523D01*
X136991904Y-91464285D01*
X137039523Y-91273809D01*
X137039523Y-91130952D01*
X136991904Y-90940476D01*
X136944285Y-90845238D01*
X136849047Y-90750000D01*
X136706190Y-90702380D01*
X136610952Y-90702380D01*
X136468095Y-90750000D01*
X136420476Y-90797619D01*
X142610952Y-93152380D02*
X142277619Y-94152380D01*
X141944285Y-93152380D01*
X141610952Y-94152380D02*
X141610952Y-93152380D01*
X141134761Y-94152380D02*
X141134761Y-93152380D01*
X140563333Y-94152380D01*
X140563333Y-93152380D01*
X140087142Y-93771428D02*
X139325238Y-93771428D01*
X138134761Y-93104761D02*
X138991904Y-94390476D01*
X137610952Y-93152380D02*
X137515714Y-93152380D01*
X137420476Y-93200000D01*
X137372857Y-93247619D01*
X137325238Y-93342857D01*
X137277619Y-93533333D01*
X137277619Y-93771428D01*
X137325238Y-93961904D01*
X137372857Y-94057142D01*
X137420476Y-94104761D01*
X137515714Y-94152380D01*
X137610952Y-94152380D01*
X137706190Y-94104761D01*
X137753809Y-94057142D01*
X137801428Y-93961904D01*
X137849047Y-93771428D01*
X137849047Y-93533333D01*
X137801428Y-93342857D01*
X137753809Y-93247619D01*
X137706190Y-93200000D01*
X137610952Y-93152380D01*
X136991904Y-93152380D02*
X136658571Y-94152380D01*
X136325238Y-93152380D01*
X139134761Y-96607142D02*
X139182380Y-96654761D01*
X139325238Y-96702380D01*
X139420476Y-96702380D01*
X139563333Y-96654761D01*
X139658571Y-96559523D01*
X139706190Y-96464285D01*
X139753809Y-96273809D01*
X139753809Y-96130952D01*
X139706190Y-95940476D01*
X139658571Y-95845238D01*
X139563333Y-95750000D01*
X139420476Y-95702380D01*
X139325238Y-95702380D01*
X139182380Y-95750000D01*
X139134761Y-95797619D01*
X138753809Y-96416666D02*
X138277619Y-96416666D01*
X138849047Y-96702380D02*
X138515714Y-95702380D01*
X138182380Y-96702380D01*
X137849047Y-96702380D02*
X137849047Y-95702380D01*
X137277619Y-96702380D01*
X137277619Y-95702380D01*
X136325238Y-96702380D02*
X136801428Y-96702380D01*
X136801428Y-95702380D01*
X139372857Y-99157142D02*
X139420476Y-99204761D01*
X139563333Y-99252380D01*
X139658571Y-99252380D01*
X139801428Y-99204761D01*
X139896666Y-99109523D01*
X139944285Y-99014285D01*
X139991904Y-98823809D01*
X139991904Y-98680952D01*
X139944285Y-98490476D01*
X139896666Y-98395238D01*
X139801428Y-98300000D01*
X139658571Y-98252380D01*
X139563333Y-98252380D01*
X139420476Y-98300000D01*
X139372857Y-98347619D01*
X138991904Y-98966666D02*
X138515714Y-98966666D01*
X139087142Y-99252380D02*
X138753809Y-98252380D01*
X138420476Y-99252380D01*
X138087142Y-99252380D02*
X138087142Y-98252380D01*
X137515714Y-99252380D01*
X137515714Y-98252380D01*
X137039523Y-99252380D02*
X137039523Y-98252380D01*
X137039523Y-98728571D02*
X136468095Y-98728571D01*
X136468095Y-99252380D02*
X136468095Y-98252380D01*
X167928571Y-111690476D02*
X168023809Y-111642857D01*
X168214285Y-111642857D01*
X168309523Y-111690476D01*
X168404761Y-111785714D01*
X168452380Y-111880952D01*
X168452380Y-112071428D01*
X168404761Y-112166666D01*
X168309523Y-112261904D01*
X168214285Y-112309523D01*
X168023809Y-112309523D01*
X167928571Y-112261904D01*
X168119047Y-111309523D02*
X168357142Y-111357142D01*
X168595238Y-111500000D01*
X168738095Y-111738095D01*
X168785714Y-111976190D01*
X168738095Y-112214285D01*
X168595238Y-112452380D01*
X168357142Y-112595238D01*
X168119047Y-112642857D01*
X167880952Y-112595238D01*
X167642857Y-112452380D01*
X167500000Y-112214285D01*
X167452380Y-111976190D01*
X167500000Y-111738095D01*
X167642857Y-111500000D01*
X167880952Y-111357142D01*
X168119047Y-111309523D01*
X166309523Y-111547619D02*
X166261904Y-111500000D01*
X166166666Y-111452380D01*
X165928571Y-111452380D01*
X165833333Y-111500000D01*
X165785714Y-111547619D01*
X165738095Y-111642857D01*
X165738095Y-111738095D01*
X165785714Y-111880952D01*
X166357142Y-112452380D01*
X165738095Y-112452380D01*
X165119047Y-111452380D02*
X165023809Y-111452380D01*
X164928571Y-111500000D01*
X164880952Y-111547619D01*
X164833333Y-111642857D01*
X164785714Y-111833333D01*
X164785714Y-112071428D01*
X164833333Y-112261904D01*
X164880952Y-112357142D01*
X164928571Y-112404761D01*
X165023809Y-112452380D01*
X165119047Y-112452380D01*
X165214285Y-112404761D01*
X165261904Y-112357142D01*
X165309523Y-112261904D01*
X165357142Y-112071428D01*
X165357142Y-111833333D01*
X165309523Y-111642857D01*
X165261904Y-111547619D01*
X165214285Y-111500000D01*
X165119047Y-111452380D01*
X163833333Y-112452380D02*
X164404761Y-112452380D01*
X164119047Y-112452380D02*
X164119047Y-111452380D01*
X164214285Y-111595238D01*
X164309523Y-111690476D01*
X164404761Y-111738095D01*
X163500000Y-111452380D02*
X162833333Y-111452380D01*
X163261904Y-112452380D01*
X161404761Y-111452380D02*
X161404761Y-112166666D01*
X161452380Y-112309523D01*
X161547619Y-112404761D01*
X161690476Y-112452380D01*
X161785714Y-112452380D01*
X160785714Y-112452380D02*
X160880952Y-112404761D01*
X160928571Y-112357142D01*
X160976190Y-112261904D01*
X160976190Y-111976190D01*
X160928571Y-111880952D01*
X160880952Y-111833333D01*
X160785714Y-111785714D01*
X160642857Y-111785714D01*
X160547619Y-111833333D01*
X160500000Y-111880952D01*
X160452380Y-111976190D01*
X160452380Y-112261904D01*
X160500000Y-112357142D01*
X160547619Y-112404761D01*
X160642857Y-112452380D01*
X160785714Y-112452380D01*
X160071428Y-112404761D02*
X159976190Y-112452380D01*
X159785714Y-112452380D01*
X159690476Y-112404761D01*
X159642857Y-112309523D01*
X159642857Y-112261904D01*
X159690476Y-112166666D01*
X159785714Y-112119047D01*
X159928571Y-112119047D01*
X160023809Y-112071428D01*
X160071428Y-111976190D01*
X160071428Y-111928571D01*
X160023809Y-111833333D01*
X159928571Y-111785714D01*
X159785714Y-111785714D01*
X159690476Y-111833333D01*
X158833333Y-112404761D02*
X158928571Y-112452380D01*
X159119047Y-112452380D01*
X159214285Y-112404761D01*
X159261904Y-112309523D01*
X159261904Y-111928571D01*
X159214285Y-111833333D01*
X159119047Y-111785714D01*
X158928571Y-111785714D01*
X158833333Y-111833333D01*
X158785714Y-111928571D01*
X158785714Y-112023809D01*
X159261904Y-112119047D01*
X158500000Y-111785714D02*
X158119047Y-111785714D01*
X158357142Y-112452380D02*
X158357142Y-111595238D01*
X158309523Y-111500000D01*
X158214285Y-111452380D01*
X158119047Y-111452380D01*
X156452380Y-112452380D02*
X156785714Y-111976190D01*
X157023809Y-112452380D02*
X157023809Y-111452380D01*
X156642857Y-111452380D01*
X156547619Y-111500000D01*
X156500000Y-111547619D01*
X156452380Y-111642857D01*
X156452380Y-111785714D01*
X156500000Y-111880952D01*
X156547619Y-111928571D01*
X156642857Y-111976190D01*
X157023809Y-111976190D01*
X155595238Y-112452380D02*
X155595238Y-111928571D01*
X155642857Y-111833333D01*
X155738095Y-111785714D01*
X155928571Y-111785714D01*
X156023809Y-111833333D01*
X155595238Y-112404761D02*
X155690476Y-112452380D01*
X155928571Y-112452380D01*
X156023809Y-112404761D01*
X156071428Y-112309523D01*
X156071428Y-112214285D01*
X156023809Y-112119047D01*
X155928571Y-112071428D01*
X155690476Y-112071428D01*
X155595238Y-112023809D01*
X155166666Y-112404761D02*
X155071428Y-112452380D01*
X154880952Y-112452380D01*
X154785714Y-112404761D01*
X154738095Y-112309523D01*
X154738095Y-112261904D01*
X154785714Y-112166666D01*
X154880952Y-112119047D01*
X155023809Y-112119047D01*
X155119047Y-112071428D01*
X155166666Y-111976190D01*
X155166666Y-111928571D01*
X155119047Y-111833333D01*
X155023809Y-111785714D01*
X154880952Y-111785714D01*
X154785714Y-111833333D01*
X153880952Y-112404761D02*
X153976190Y-112452380D01*
X154166666Y-112452380D01*
X154261904Y-112404761D01*
X154309523Y-112357142D01*
X154357142Y-112261904D01*
X154357142Y-111976190D01*
X154309523Y-111880952D01*
X154261904Y-111833333D01*
X154166666Y-111785714D01*
X153976190Y-111785714D01*
X153880952Y-111833333D01*
X153452380Y-112452380D02*
X153452380Y-111452380D01*
X153023809Y-112452380D02*
X153023809Y-111928571D01*
X153071428Y-111833333D01*
X153166666Y-111785714D01*
X153309523Y-111785714D01*
X153404761Y-111833333D01*
X153452380Y-111880952D01*
X152166666Y-112404761D02*
X152261904Y-112452380D01*
X152452380Y-112452380D01*
X152547619Y-112404761D01*
X152595238Y-112309523D01*
X152595238Y-111928571D01*
X152547619Y-111833333D01*
X152452380Y-111785714D01*
X152261904Y-111785714D01*
X152166666Y-111833333D01*
X152119047Y-111928571D01*
X152119047Y-112023809D01*
X152595238Y-112119047D01*
X151690476Y-111785714D02*
X151690476Y-112452380D01*
X151690476Y-111880952D02*
X151642857Y-111833333D01*
X151547619Y-111785714D01*
X151404761Y-111785714D01*
X151309523Y-111833333D01*
X151261904Y-111928571D01*
X151261904Y-112452380D01*
D12*
X164250000Y-88500000D02*
X164250000Y-87690000D01*
X161250000Y-88500000D02*
X164250000Y-88500000D01*
X161250000Y-87690000D02*
X161250000Y-88500000D01*
X165250000Y-102310000D02*
X160250000Y-102310000D01*
X165250000Y-87690000D02*
X165250000Y-102310000D01*
X160250000Y-87690000D02*
X161250000Y-87690000D01*
X160250000Y-102310000D02*
X160250000Y-87690000D01*
X164250000Y-87690000D02*
X165250000Y-87690000D01*
D13*
X132010000Y-81170000D02*
X132010000Y-82100000D01*
X132010000Y-84330000D02*
X132010000Y-83400000D01*
X132010000Y-84330000D02*
X129850000Y-84330000D01*
X132010000Y-81170000D02*
X130550000Y-81170000D01*
X132010000Y-77670000D02*
X130550000Y-77670000D01*
X132010000Y-80830000D02*
X129850000Y-80830000D01*
X132010000Y-80830000D02*
X132010000Y-79900000D01*
X132010000Y-77670000D02*
X132010000Y-78600000D01*
X132010000Y-84670000D02*
X132010000Y-85600000D01*
X132010000Y-87830000D02*
X132010000Y-86900000D01*
X132010000Y-87830000D02*
X129850000Y-87830000D01*
X132010000Y-84670000D02*
X130550000Y-84670000D01*
X142830000Y-83260000D02*
X142830000Y-81800000D01*
X139670000Y-83260000D02*
X139670000Y-81100000D01*
X139670000Y-83260000D02*
X140600000Y-83260000D01*
X142830000Y-83260000D02*
X141900000Y-83260000D01*
X147830000Y-83260000D02*
X146900000Y-83260000D01*
X144670000Y-83260000D02*
X145600000Y-83260000D01*
X144670000Y-83260000D02*
X144670000Y-81100000D01*
X147830000Y-83260000D02*
X147830000Y-81800000D01*
X148420000Y-80740000D02*
X148420000Y-82200000D01*
X151580000Y-80740000D02*
X151580000Y-82900000D01*
X151580000Y-80740000D02*
X150650000Y-80740000D01*
X148420000Y-80740000D02*
X149350000Y-80740000D01*
X135510000Y-79420000D02*
X135510000Y-80350000D01*
X135510000Y-82580000D02*
X135510000Y-81650000D01*
X135510000Y-82580000D02*
X133350000Y-82580000D01*
X135510000Y-79420000D02*
X134050000Y-79420000D01*
X152990000Y-85080000D02*
X154450000Y-85080000D01*
X152990000Y-81920000D02*
X155150000Y-81920000D01*
X152990000Y-81920000D02*
X152990000Y-82850000D01*
X152990000Y-85080000D02*
X152990000Y-84150000D01*
X136580000Y-86510000D02*
X135650000Y-86510000D01*
X133420000Y-86510000D02*
X134350000Y-86510000D01*
X133420000Y-86510000D02*
X133420000Y-84350000D01*
X136580000Y-86510000D02*
X136580000Y-85050000D01*
X140330000Y-86510000D02*
X140330000Y-85050000D01*
X137170000Y-86510000D02*
X137170000Y-84350000D01*
X137170000Y-86510000D02*
X138100000Y-86510000D01*
X140330000Y-86510000D02*
X139400000Y-86510000D01*
X150330000Y-86510000D02*
X150330000Y-85050000D01*
X147170000Y-86510000D02*
X147170000Y-84350000D01*
X147170000Y-86510000D02*
X148100000Y-86510000D01*
X150330000Y-86510000D02*
X149400000Y-86510000D01*
X156974000Y-85146000D02*
X158434000Y-85146000D01*
X156974000Y-81986000D02*
X159134000Y-81986000D01*
X156974000Y-81986000D02*
X156974000Y-82916000D01*
X156974000Y-85146000D02*
X156974000Y-84216000D01*
X145330000Y-86510000D02*
X144400000Y-86510000D01*
X142170000Y-86510000D02*
X143100000Y-86510000D01*
X142170000Y-86510000D02*
X142170000Y-84350000D01*
X145330000Y-86510000D02*
X145330000Y-85050000D01*
D12*
X140500000Y-79475000D02*
X141000000Y-79475000D01*
X141000000Y-80525000D02*
X140500000Y-80525000D01*
X134250000Y-79025000D02*
X133750000Y-79025000D01*
X133750000Y-77975000D02*
X134250000Y-77975000D01*
X143225000Y-80550000D02*
X143225000Y-80050000D01*
X144275000Y-80050000D02*
X144275000Y-80550000D01*
X140725000Y-86750000D02*
X140725000Y-86250000D01*
X141775000Y-86250000D02*
X141775000Y-86750000D01*
X145725000Y-86750000D02*
X145725000Y-86250000D01*
X146775000Y-86250000D02*
X146775000Y-86750000D01*
X146475000Y-79000000D02*
X146475000Y-78500000D01*
X147525000Y-78500000D02*
X147525000Y-79000000D01*
X137700000Y-80525000D02*
X137200000Y-80525000D01*
X137200000Y-79475000D02*
X137700000Y-79475000D01*
X151775000Y-85950000D02*
X151775000Y-86450000D01*
X150725000Y-86450000D02*
X150725000Y-85950000D01*
X122300000Y-89200000D02*
X135300000Y-89200000D01*
X122300000Y-90000000D02*
X122300000Y-89200000D01*
X129800000Y-89200000D02*
X129800000Y-100000000D01*
X133000000Y-90000000D02*
X133000000Y-100000000D01*
X133000000Y-100000000D02*
X135300000Y-100000000D01*
X133000000Y-97500000D02*
X135300000Y-97500000D01*
X133000000Y-95000000D02*
X135300000Y-95000000D01*
X133000000Y-92500000D02*
X135300000Y-92500000D01*
X135300000Y-90000000D02*
X133000000Y-90000000D01*
X122300000Y-90000000D02*
X122300000Y-100000000D01*
X135300000Y-90000000D02*
X122300000Y-90000000D01*
X135300000Y-100000000D02*
X135300000Y-89200000D01*
X122300000Y-100000000D02*
X135300000Y-100000000D01*
X125000000Y-91500000D02*
X125000000Y-91000000D01*
X125000000Y-91000000D02*
X123000000Y-91000000D01*
X123000000Y-91500000D02*
X125000000Y-91500000D01*
X123000000Y-91000000D02*
X123000000Y-91500000D01*
X123000000Y-93500000D02*
X123000000Y-94000000D01*
X125000000Y-94000000D02*
X125000000Y-93500000D01*
X123000000Y-94000000D02*
X125000000Y-94000000D01*
X125000000Y-93500000D02*
X123000000Y-93500000D01*
X123000000Y-96500000D02*
X125000000Y-96500000D01*
X125000000Y-96500000D02*
X125000000Y-96000000D01*
X125000000Y-96000000D02*
X123000000Y-96000000D01*
X123000000Y-96000000D02*
X123000000Y-96500000D01*
X123000000Y-98500000D02*
X123000000Y-99000000D01*
X125000000Y-99000000D02*
X125000000Y-98500000D01*
X123000000Y-99000000D02*
X125000000Y-99000000D01*
X125000000Y-98500000D02*
X123000000Y-98500000D01*
D10*
X163069047Y-103426190D02*
X163069047Y-102926190D01*
X162878571Y-102926190D01*
X162830952Y-102950000D01*
X162807142Y-102973809D01*
X162783333Y-103021428D01*
X162783333Y-103092857D01*
X162807142Y-103140476D01*
X162830952Y-103164285D01*
X162878571Y-103188095D01*
X163069047Y-103188095D01*
X162307142Y-103426190D02*
X162592857Y-103426190D01*
X162450000Y-103426190D02*
X162450000Y-102926190D01*
X162497619Y-102997619D01*
X162545238Y-103045238D01*
X162592857Y-103069047D01*
X127376190Y-70647619D02*
X127876190Y-70766666D01*
X127519047Y-70861904D01*
X127876190Y-70957142D01*
X127376190Y-71076190D01*
X127376190Y-71219047D02*
X127376190Y-71552380D01*
X127876190Y-71338095D01*
X136452380Y-71476190D02*
X136333333Y-71976190D01*
X136238095Y-71619047D01*
X136142857Y-71976190D01*
X136023809Y-71476190D01*
X135761904Y-71690476D02*
X135809523Y-71666666D01*
X135833333Y-71642857D01*
X135857142Y-71595238D01*
X135857142Y-71571428D01*
X135833333Y-71523809D01*
X135809523Y-71500000D01*
X135761904Y-71476190D01*
X135666666Y-71476190D01*
X135619047Y-71500000D01*
X135595238Y-71523809D01*
X135571428Y-71571428D01*
X135571428Y-71595238D01*
X135595238Y-71642857D01*
X135619047Y-71666666D01*
X135666666Y-71690476D01*
X135761904Y-71690476D01*
X135809523Y-71714285D01*
X135833333Y-71738095D01*
X135857142Y-71785714D01*
X135857142Y-71880952D01*
X135833333Y-71928571D01*
X135809523Y-71952380D01*
X135761904Y-71976190D01*
X135666666Y-71976190D01*
X135619047Y-71952380D01*
X135595238Y-71928571D01*
X135571428Y-71880952D01*
X135571428Y-71785714D01*
X135595238Y-71738095D01*
X135619047Y-71714285D01*
X135666666Y-71690476D01*
X158490476Y-65276190D02*
X158371428Y-65776190D01*
X158276190Y-65419047D01*
X158180952Y-65776190D01*
X158061904Y-65276190D01*
X157609523Y-65776190D02*
X157895238Y-65776190D01*
X157752380Y-65776190D02*
X157752380Y-65276190D01*
X157800000Y-65347619D01*
X157847619Y-65395238D01*
X157895238Y-65419047D01*
X157133333Y-65776190D02*
X157419047Y-65776190D01*
X157276190Y-65776190D02*
X157276190Y-65276190D01*
X157323809Y-65347619D01*
X157371428Y-65395238D01*
X157419047Y-65419047D01*
X146690476Y-66076190D02*
X146571428Y-66576190D01*
X146476190Y-66219047D01*
X146380952Y-66576190D01*
X146261904Y-66076190D01*
X145809523Y-66576190D02*
X146095238Y-66576190D01*
X145952380Y-66576190D02*
X145952380Y-66076190D01*
X146000000Y-66147619D01*
X146047619Y-66195238D01*
X146095238Y-66219047D01*
X145500000Y-66076190D02*
X145452380Y-66076190D01*
X145404761Y-66100000D01*
X145380952Y-66123809D01*
X145357142Y-66171428D01*
X145333333Y-66266666D01*
X145333333Y-66385714D01*
X145357142Y-66480952D01*
X145380952Y-66528571D01*
X145404761Y-66552380D01*
X145452380Y-66576190D01*
X145500000Y-66576190D01*
X145547619Y-66552380D01*
X145571428Y-66528571D01*
X145595238Y-66480952D01*
X145619047Y-66385714D01*
X145619047Y-66266666D01*
X145595238Y-66171428D01*
X145571428Y-66123809D01*
X145547619Y-66100000D01*
X145500000Y-66076190D01*
X146452380Y-70226190D02*
X146333333Y-70726190D01*
X146238095Y-70369047D01*
X146142857Y-70726190D01*
X146023809Y-70226190D01*
X145809523Y-70726190D02*
X145714285Y-70726190D01*
X145666666Y-70702380D01*
X145642857Y-70678571D01*
X145595238Y-70607142D01*
X145571428Y-70511904D01*
X145571428Y-70321428D01*
X145595238Y-70273809D01*
X145619047Y-70250000D01*
X145666666Y-70226190D01*
X145761904Y-70226190D01*
X145809523Y-70250000D01*
X145833333Y-70273809D01*
X145857142Y-70321428D01*
X145857142Y-70440476D01*
X145833333Y-70488095D01*
X145809523Y-70511904D01*
X145761904Y-70535714D01*
X145666666Y-70535714D01*
X145619047Y-70511904D01*
X145595238Y-70488095D01*
X145571428Y-70440476D01*
X151566476Y-107526190D02*
X151447428Y-108026190D01*
X151352190Y-107669047D01*
X151256952Y-108026190D01*
X151137904Y-107526190D01*
X150685523Y-108026190D02*
X150971238Y-108026190D01*
X150828380Y-108026190D02*
X150828380Y-107526190D01*
X150876000Y-107597619D01*
X150923619Y-107645238D01*
X150971238Y-107669047D01*
X150518857Y-107526190D02*
X150185523Y-107526190D01*
X150399809Y-108026190D01*
X150042476Y-107526190D02*
X149923428Y-108026190D01*
X149828190Y-107669047D01*
X149732952Y-108026190D01*
X149613904Y-107526190D01*
X149161523Y-108026190D02*
X149447238Y-108026190D01*
X149304380Y-108026190D02*
X149304380Y-107526190D01*
X149352000Y-107597619D01*
X149399619Y-107645238D01*
X149447238Y-107669047D01*
X148732952Y-107526190D02*
X148828190Y-107526190D01*
X148875809Y-107550000D01*
X148899619Y-107573809D01*
X148947238Y-107645238D01*
X148971047Y-107740476D01*
X148971047Y-107930952D01*
X148947238Y-107978571D01*
X148923428Y-108002380D01*
X148875809Y-108026190D01*
X148780571Y-108026190D01*
X148732952Y-108002380D01*
X148709142Y-107978571D01*
X148685333Y-107930952D01*
X148685333Y-107811904D01*
X148709142Y-107764285D01*
X148732952Y-107740476D01*
X148780571Y-107716666D01*
X148875809Y-107716666D01*
X148923428Y-107740476D01*
X148947238Y-107764285D01*
X148971047Y-107811904D01*
X129047619Y-82973809D02*
X129095238Y-82950000D01*
X129142857Y-82902380D01*
X129214285Y-82830952D01*
X129261904Y-82807142D01*
X129309523Y-82807142D01*
X129285714Y-82926190D02*
X129333333Y-82902380D01*
X129380952Y-82854761D01*
X129404761Y-82759523D01*
X129404761Y-82592857D01*
X129380952Y-82497619D01*
X129333333Y-82450000D01*
X129285714Y-82426190D01*
X129190476Y-82426190D01*
X129142857Y-82450000D01*
X129095238Y-82497619D01*
X129071428Y-82592857D01*
X129071428Y-82759523D01*
X129095238Y-82854761D01*
X129142857Y-82902380D01*
X129190476Y-82926190D01*
X129285714Y-82926190D01*
X128904761Y-82426190D02*
X128595238Y-82426190D01*
X128761904Y-82616666D01*
X128690476Y-82616666D01*
X128642857Y-82640476D01*
X128619047Y-82664285D01*
X128595238Y-82711904D01*
X128595238Y-82830952D01*
X128619047Y-82878571D01*
X128642857Y-82902380D01*
X128690476Y-82926190D01*
X128833333Y-82926190D01*
X128880952Y-82902380D01*
X128904761Y-82878571D01*
X129047619Y-79573809D02*
X129095238Y-79550000D01*
X129142857Y-79502380D01*
X129214285Y-79430952D01*
X129261904Y-79407142D01*
X129309523Y-79407142D01*
X129285714Y-79526190D02*
X129333333Y-79502380D01*
X129380952Y-79454761D01*
X129404761Y-79359523D01*
X129404761Y-79192857D01*
X129380952Y-79097619D01*
X129333333Y-79050000D01*
X129285714Y-79026190D01*
X129190476Y-79026190D01*
X129142857Y-79050000D01*
X129095238Y-79097619D01*
X129071428Y-79192857D01*
X129071428Y-79359523D01*
X129095238Y-79454761D01*
X129142857Y-79502380D01*
X129190476Y-79526190D01*
X129285714Y-79526190D01*
X128642857Y-79192857D02*
X128642857Y-79526190D01*
X128761904Y-79002380D02*
X128880952Y-79359523D01*
X128571428Y-79359523D01*
X129047619Y-86573809D02*
X129095238Y-86550000D01*
X129142857Y-86502380D01*
X129214285Y-86430952D01*
X129261904Y-86407142D01*
X129309523Y-86407142D01*
X129285714Y-86526190D02*
X129333333Y-86502380D01*
X129380952Y-86454761D01*
X129404761Y-86359523D01*
X129404761Y-86192857D01*
X129380952Y-86097619D01*
X129333333Y-86050000D01*
X129285714Y-86026190D01*
X129190476Y-86026190D01*
X129142857Y-86050000D01*
X129095238Y-86097619D01*
X129071428Y-86192857D01*
X129071428Y-86359523D01*
X129095238Y-86454761D01*
X129142857Y-86502380D01*
X129190476Y-86526190D01*
X129285714Y-86526190D01*
X128619047Y-86026190D02*
X128857142Y-86026190D01*
X128880952Y-86264285D01*
X128857142Y-86240476D01*
X128809523Y-86216666D01*
X128690476Y-86216666D01*
X128642857Y-86240476D01*
X128619047Y-86264285D01*
X128595238Y-86311904D01*
X128595238Y-86430952D01*
X128619047Y-86478571D01*
X128642857Y-86502380D01*
X128690476Y-86526190D01*
X128809523Y-86526190D01*
X128857142Y-86502380D01*
X128880952Y-86478571D01*
X140247619Y-83873809D02*
X140295238Y-83850000D01*
X140342857Y-83802380D01*
X140414285Y-83730952D01*
X140461904Y-83707142D01*
X140509523Y-83707142D01*
X140485714Y-83826190D02*
X140533333Y-83802380D01*
X140580952Y-83754761D01*
X140604761Y-83659523D01*
X140604761Y-83492857D01*
X140580952Y-83397619D01*
X140533333Y-83350000D01*
X140485714Y-83326190D01*
X140390476Y-83326190D01*
X140342857Y-83350000D01*
X140295238Y-83397619D01*
X140271428Y-83492857D01*
X140271428Y-83659523D01*
X140295238Y-83754761D01*
X140342857Y-83802380D01*
X140390476Y-83826190D01*
X140485714Y-83826190D01*
X139842857Y-83326190D02*
X139938095Y-83326190D01*
X139985714Y-83350000D01*
X140009523Y-83373809D01*
X140057142Y-83445238D01*
X140080952Y-83540476D01*
X140080952Y-83730952D01*
X140057142Y-83778571D01*
X140033333Y-83802380D01*
X139985714Y-83826190D01*
X139890476Y-83826190D01*
X139842857Y-83802380D01*
X139819047Y-83778571D01*
X139795238Y-83730952D01*
X139795238Y-83611904D01*
X139819047Y-83564285D01*
X139842857Y-83540476D01*
X139890476Y-83516666D01*
X139985714Y-83516666D01*
X140033333Y-83540476D01*
X140057142Y-83564285D01*
X140080952Y-83611904D01*
X146247619Y-80773809D02*
X146295238Y-80750000D01*
X146342857Y-80702380D01*
X146414285Y-80630952D01*
X146461904Y-80607142D01*
X146509523Y-80607142D01*
X146485714Y-80726190D02*
X146533333Y-80702380D01*
X146580952Y-80654761D01*
X146604761Y-80559523D01*
X146604761Y-80392857D01*
X146580952Y-80297619D01*
X146533333Y-80250000D01*
X146485714Y-80226190D01*
X146390476Y-80226190D01*
X146342857Y-80250000D01*
X146295238Y-80297619D01*
X146271428Y-80392857D01*
X146271428Y-80559523D01*
X146295238Y-80654761D01*
X146342857Y-80702380D01*
X146390476Y-80726190D01*
X146485714Y-80726190D01*
X146104761Y-80226190D02*
X145771428Y-80226190D01*
X145985714Y-80726190D01*
X151247619Y-80373809D02*
X151295238Y-80350000D01*
X151342857Y-80302380D01*
X151414285Y-80230952D01*
X151461904Y-80207142D01*
X151509523Y-80207142D01*
X151485714Y-80326190D02*
X151533333Y-80302380D01*
X151580952Y-80254761D01*
X151604761Y-80159523D01*
X151604761Y-79992857D01*
X151580952Y-79897619D01*
X151533333Y-79850000D01*
X151485714Y-79826190D01*
X151390476Y-79826190D01*
X151342857Y-79850000D01*
X151295238Y-79897619D01*
X151271428Y-79992857D01*
X151271428Y-80159523D01*
X151295238Y-80254761D01*
X151342857Y-80302380D01*
X151390476Y-80326190D01*
X151485714Y-80326190D01*
X150985714Y-80040476D02*
X151033333Y-80016666D01*
X151057142Y-79992857D01*
X151080952Y-79945238D01*
X151080952Y-79921428D01*
X151057142Y-79873809D01*
X151033333Y-79850000D01*
X150985714Y-79826190D01*
X150890476Y-79826190D01*
X150842857Y-79850000D01*
X150819047Y-79873809D01*
X150795238Y-79921428D01*
X150795238Y-79945238D01*
X150819047Y-79992857D01*
X150842857Y-80016666D01*
X150890476Y-80040476D01*
X150985714Y-80040476D01*
X151033333Y-80064285D01*
X151057142Y-80088095D01*
X151080952Y-80135714D01*
X151080952Y-80230952D01*
X151057142Y-80278571D01*
X151033333Y-80302380D01*
X150985714Y-80326190D01*
X150890476Y-80326190D01*
X150842857Y-80302380D01*
X150819047Y-80278571D01*
X150795238Y-80230952D01*
X150795238Y-80135714D01*
X150819047Y-80088095D01*
X150842857Y-80064285D01*
X150890476Y-80040476D01*
X136347619Y-82373809D02*
X136395238Y-82350000D01*
X136442857Y-82302380D01*
X136514285Y-82230952D01*
X136561904Y-82207142D01*
X136609523Y-82207142D01*
X136585714Y-82326190D02*
X136633333Y-82302380D01*
X136680952Y-82254761D01*
X136704761Y-82159523D01*
X136704761Y-81992857D01*
X136680952Y-81897619D01*
X136633333Y-81850000D01*
X136585714Y-81826190D01*
X136490476Y-81826190D01*
X136442857Y-81850000D01*
X136395238Y-81897619D01*
X136371428Y-81992857D01*
X136371428Y-82159523D01*
X136395238Y-82254761D01*
X136442857Y-82302380D01*
X136490476Y-82326190D01*
X136585714Y-82326190D01*
X136133333Y-82326190D02*
X136038095Y-82326190D01*
X135990476Y-82302380D01*
X135966666Y-82278571D01*
X135919047Y-82207142D01*
X135895238Y-82111904D01*
X135895238Y-81921428D01*
X135919047Y-81873809D01*
X135942857Y-81850000D01*
X135990476Y-81826190D01*
X136085714Y-81826190D01*
X136133333Y-81850000D01*
X136157142Y-81873809D01*
X136180952Y-81921428D01*
X136180952Y-82040476D01*
X136157142Y-82088095D01*
X136133333Y-82111904D01*
X136085714Y-82135714D01*
X135990476Y-82135714D01*
X135942857Y-82111904D01*
X135919047Y-82088095D01*
X135895238Y-82040476D01*
X154035714Y-81573809D02*
X154083333Y-81550000D01*
X154130952Y-81502380D01*
X154202380Y-81430952D01*
X154250000Y-81407142D01*
X154297619Y-81407142D01*
X154273809Y-81526190D02*
X154321428Y-81502380D01*
X154369047Y-81454761D01*
X154392857Y-81359523D01*
X154392857Y-81192857D01*
X154369047Y-81097619D01*
X154321428Y-81050000D01*
X154273809Y-81026190D01*
X154178571Y-81026190D01*
X154130952Y-81050000D01*
X154083333Y-81097619D01*
X154059523Y-81192857D01*
X154059523Y-81359523D01*
X154083333Y-81454761D01*
X154130952Y-81502380D01*
X154178571Y-81526190D01*
X154273809Y-81526190D01*
X153583333Y-81526190D02*
X153869047Y-81526190D01*
X153726190Y-81526190D02*
X153726190Y-81026190D01*
X153773809Y-81097619D01*
X153821428Y-81145238D01*
X153869047Y-81169047D01*
X153273809Y-81026190D02*
X153226190Y-81026190D01*
X153178571Y-81050000D01*
X153154761Y-81073809D01*
X153130952Y-81121428D01*
X153107142Y-81216666D01*
X153107142Y-81335714D01*
X153130952Y-81430952D01*
X153154761Y-81478571D01*
X153178571Y-81502380D01*
X153226190Y-81526190D01*
X153273809Y-81526190D01*
X153321428Y-81502380D01*
X153345238Y-81478571D01*
X153369047Y-81430952D01*
X153392857Y-81335714D01*
X153392857Y-81216666D01*
X153369047Y-81121428D01*
X153345238Y-81073809D01*
X153321428Y-81050000D01*
X153273809Y-81026190D01*
X133985714Y-87273809D02*
X134033333Y-87250000D01*
X134080952Y-87202380D01*
X134152380Y-87130952D01*
X134200000Y-87107142D01*
X134247619Y-87107142D01*
X134223809Y-87226190D02*
X134271428Y-87202380D01*
X134319047Y-87154761D01*
X134342857Y-87059523D01*
X134342857Y-86892857D01*
X134319047Y-86797619D01*
X134271428Y-86750000D01*
X134223809Y-86726190D01*
X134128571Y-86726190D01*
X134080952Y-86750000D01*
X134033333Y-86797619D01*
X134009523Y-86892857D01*
X134009523Y-87059523D01*
X134033333Y-87154761D01*
X134080952Y-87202380D01*
X134128571Y-87226190D01*
X134223809Y-87226190D01*
X133533333Y-87226190D02*
X133819047Y-87226190D01*
X133676190Y-87226190D02*
X133676190Y-86726190D01*
X133723809Y-86797619D01*
X133771428Y-86845238D01*
X133819047Y-86869047D01*
X133057142Y-87226190D02*
X133342857Y-87226190D01*
X133200000Y-87226190D02*
X133200000Y-86726190D01*
X133247619Y-86797619D01*
X133295238Y-86845238D01*
X133342857Y-86869047D01*
X138885714Y-83873809D02*
X138933333Y-83850000D01*
X138980952Y-83802380D01*
X139052380Y-83730952D01*
X139100000Y-83707142D01*
X139147619Y-83707142D01*
X139123809Y-83826190D02*
X139171428Y-83802380D01*
X139219047Y-83754761D01*
X139242857Y-83659523D01*
X139242857Y-83492857D01*
X139219047Y-83397619D01*
X139171428Y-83350000D01*
X139123809Y-83326190D01*
X139028571Y-83326190D01*
X138980952Y-83350000D01*
X138933333Y-83397619D01*
X138909523Y-83492857D01*
X138909523Y-83659523D01*
X138933333Y-83754761D01*
X138980952Y-83802380D01*
X139028571Y-83826190D01*
X139123809Y-83826190D01*
X138433333Y-83826190D02*
X138719047Y-83826190D01*
X138576190Y-83826190D02*
X138576190Y-83326190D01*
X138623809Y-83397619D01*
X138671428Y-83445238D01*
X138719047Y-83469047D01*
X138242857Y-83373809D02*
X138219047Y-83350000D01*
X138171428Y-83326190D01*
X138052380Y-83326190D01*
X138004761Y-83350000D01*
X137980952Y-83373809D01*
X137957142Y-83421428D01*
X137957142Y-83469047D01*
X137980952Y-83540476D01*
X138266666Y-83826190D01*
X137957142Y-83826190D01*
X147785714Y-87373809D02*
X147833333Y-87350000D01*
X147880952Y-87302380D01*
X147952380Y-87230952D01*
X148000000Y-87207142D01*
X148047619Y-87207142D01*
X148023809Y-87326190D02*
X148071428Y-87302380D01*
X148119047Y-87254761D01*
X148142857Y-87159523D01*
X148142857Y-86992857D01*
X148119047Y-86897619D01*
X148071428Y-86850000D01*
X148023809Y-86826190D01*
X147928571Y-86826190D01*
X147880952Y-86850000D01*
X147833333Y-86897619D01*
X147809523Y-86992857D01*
X147809523Y-87159523D01*
X147833333Y-87254761D01*
X147880952Y-87302380D01*
X147928571Y-87326190D01*
X148023809Y-87326190D01*
X147333333Y-87326190D02*
X147619047Y-87326190D01*
X147476190Y-87326190D02*
X147476190Y-86826190D01*
X147523809Y-86897619D01*
X147571428Y-86945238D01*
X147619047Y-86969047D01*
X147166666Y-86826190D02*
X146857142Y-86826190D01*
X147023809Y-87016666D01*
X146952380Y-87016666D01*
X146904761Y-87040476D01*
X146880952Y-87064285D01*
X146857142Y-87111904D01*
X146857142Y-87230952D01*
X146880952Y-87278571D01*
X146904761Y-87302380D01*
X146952380Y-87326190D01*
X147095238Y-87326190D01*
X147142857Y-87302380D01*
X147166666Y-87278571D01*
X157985714Y-85973809D02*
X158033333Y-85950000D01*
X158080952Y-85902380D01*
X158152380Y-85830952D01*
X158200000Y-85807142D01*
X158247619Y-85807142D01*
X158223809Y-85926190D02*
X158271428Y-85902380D01*
X158319047Y-85854761D01*
X158342857Y-85759523D01*
X158342857Y-85592857D01*
X158319047Y-85497619D01*
X158271428Y-85450000D01*
X158223809Y-85426190D01*
X158128571Y-85426190D01*
X158080952Y-85450000D01*
X158033333Y-85497619D01*
X158009523Y-85592857D01*
X158009523Y-85759523D01*
X158033333Y-85854761D01*
X158080952Y-85902380D01*
X158128571Y-85926190D01*
X158223809Y-85926190D01*
X157533333Y-85926190D02*
X157819047Y-85926190D01*
X157676190Y-85926190D02*
X157676190Y-85426190D01*
X157723809Y-85497619D01*
X157771428Y-85545238D01*
X157819047Y-85569047D01*
X157104761Y-85592857D02*
X157104761Y-85926190D01*
X157223809Y-85402380D02*
X157342857Y-85759523D01*
X157033333Y-85759523D01*
X143985714Y-83873809D02*
X144033333Y-83850000D01*
X144080952Y-83802380D01*
X144152380Y-83730952D01*
X144200000Y-83707142D01*
X144247619Y-83707142D01*
X144223809Y-83826190D02*
X144271428Y-83802380D01*
X144319047Y-83754761D01*
X144342857Y-83659523D01*
X144342857Y-83492857D01*
X144319047Y-83397619D01*
X144271428Y-83350000D01*
X144223809Y-83326190D01*
X144128571Y-83326190D01*
X144080952Y-83350000D01*
X144033333Y-83397619D01*
X144009523Y-83492857D01*
X144009523Y-83659523D01*
X144033333Y-83754761D01*
X144080952Y-83802380D01*
X144128571Y-83826190D01*
X144223809Y-83826190D01*
X143533333Y-83826190D02*
X143819047Y-83826190D01*
X143676190Y-83826190D02*
X143676190Y-83326190D01*
X143723809Y-83397619D01*
X143771428Y-83445238D01*
X143819047Y-83469047D01*
X143080952Y-83326190D02*
X143319047Y-83326190D01*
X143342857Y-83564285D01*
X143319047Y-83540476D01*
X143271428Y-83516666D01*
X143152380Y-83516666D01*
X143104761Y-83540476D01*
X143080952Y-83564285D01*
X143057142Y-83611904D01*
X143057142Y-83730952D01*
X143080952Y-83778571D01*
X143104761Y-83802380D01*
X143152380Y-83826190D01*
X143271428Y-83826190D01*
X143319047Y-83802380D01*
X143342857Y-83778571D01*
X139626190Y-79678571D02*
X139388095Y-79511904D01*
X139626190Y-79392857D02*
X139126190Y-79392857D01*
X139126190Y-79583333D01*
X139150000Y-79630952D01*
X139173809Y-79654761D01*
X139221428Y-79678571D01*
X139292857Y-79678571D01*
X139340476Y-79654761D01*
X139364285Y-79630952D01*
X139388095Y-79583333D01*
X139388095Y-79392857D01*
X139173809Y-79869047D02*
X139150000Y-79892857D01*
X139126190Y-79940476D01*
X139126190Y-80059523D01*
X139150000Y-80107142D01*
X139173809Y-80130952D01*
X139221428Y-80154761D01*
X139269047Y-80154761D01*
X139340476Y-80130952D01*
X139626190Y-79845238D01*
X139626190Y-80154761D01*
X139126190Y-80607142D02*
X139126190Y-80369047D01*
X139364285Y-80345238D01*
X139340476Y-80369047D01*
X139316666Y-80416666D01*
X139316666Y-80535714D01*
X139340476Y-80583333D01*
X139364285Y-80607142D01*
X139411904Y-80630952D01*
X139530952Y-80630952D01*
X139578571Y-80607142D01*
X139602380Y-80583333D01*
X139626190Y-80535714D01*
X139626190Y-80416666D01*
X139602380Y-80369047D01*
X139578571Y-80345238D01*
X134321428Y-77626190D02*
X134488095Y-77388095D01*
X134607142Y-77626190D02*
X134607142Y-77126190D01*
X134416666Y-77126190D01*
X134369047Y-77150000D01*
X134345238Y-77173809D01*
X134321428Y-77221428D01*
X134321428Y-77292857D01*
X134345238Y-77340476D01*
X134369047Y-77364285D01*
X134416666Y-77388095D01*
X134607142Y-77388095D01*
X134130952Y-77173809D02*
X134107142Y-77150000D01*
X134059523Y-77126190D01*
X133940476Y-77126190D01*
X133892857Y-77150000D01*
X133869047Y-77173809D01*
X133845238Y-77221428D01*
X133845238Y-77269047D01*
X133869047Y-77340476D01*
X134154761Y-77626190D01*
X133845238Y-77626190D01*
X133416666Y-77126190D02*
X133511904Y-77126190D01*
X133559523Y-77150000D01*
X133583333Y-77173809D01*
X133630952Y-77245238D01*
X133654761Y-77340476D01*
X133654761Y-77530952D01*
X133630952Y-77578571D01*
X133607142Y-77602380D01*
X133559523Y-77626190D01*
X133464285Y-77626190D01*
X133416666Y-77602380D01*
X133392857Y-77578571D01*
X133369047Y-77530952D01*
X133369047Y-77411904D01*
X133392857Y-77364285D01*
X133416666Y-77340476D01*
X133464285Y-77316666D01*
X133559523Y-77316666D01*
X133607142Y-77340476D01*
X133630952Y-77364285D01*
X133654761Y-77411904D01*
X142926190Y-79578571D02*
X142688095Y-79411904D01*
X142926190Y-79292857D02*
X142426190Y-79292857D01*
X142426190Y-79483333D01*
X142450000Y-79530952D01*
X142473809Y-79554761D01*
X142521428Y-79578571D01*
X142592857Y-79578571D01*
X142640476Y-79554761D01*
X142664285Y-79530952D01*
X142688095Y-79483333D01*
X142688095Y-79292857D01*
X142473809Y-79769047D02*
X142450000Y-79792857D01*
X142426190Y-79840476D01*
X142426190Y-79959523D01*
X142450000Y-80007142D01*
X142473809Y-80030952D01*
X142521428Y-80054761D01*
X142569047Y-80054761D01*
X142640476Y-80030952D01*
X142926190Y-79745238D01*
X142926190Y-80054761D01*
X142426190Y-80221428D02*
X142426190Y-80554761D01*
X142926190Y-80340476D01*
X141621428Y-85326190D02*
X141788095Y-85088095D01*
X141907142Y-85326190D02*
X141907142Y-84826190D01*
X141716666Y-84826190D01*
X141669047Y-84850000D01*
X141645238Y-84873809D01*
X141621428Y-84921428D01*
X141621428Y-84992857D01*
X141645238Y-85040476D01*
X141669047Y-85064285D01*
X141716666Y-85088095D01*
X141907142Y-85088095D01*
X141430952Y-84873809D02*
X141407142Y-84850000D01*
X141359523Y-84826190D01*
X141240476Y-84826190D01*
X141192857Y-84850000D01*
X141169047Y-84873809D01*
X141145238Y-84921428D01*
X141145238Y-84969047D01*
X141169047Y-85040476D01*
X141454761Y-85326190D01*
X141145238Y-85326190D01*
X140859523Y-85040476D02*
X140907142Y-85016666D01*
X140930952Y-84992857D01*
X140954761Y-84945238D01*
X140954761Y-84921428D01*
X140930952Y-84873809D01*
X140907142Y-84850000D01*
X140859523Y-84826190D01*
X140764285Y-84826190D01*
X140716666Y-84850000D01*
X140692857Y-84873809D01*
X140669047Y-84921428D01*
X140669047Y-84945238D01*
X140692857Y-84992857D01*
X140716666Y-85016666D01*
X140764285Y-85040476D01*
X140859523Y-85040476D01*
X140907142Y-85064285D01*
X140930952Y-85088095D01*
X140954761Y-85135714D01*
X140954761Y-85230952D01*
X140930952Y-85278571D01*
X140907142Y-85302380D01*
X140859523Y-85326190D01*
X140764285Y-85326190D01*
X140716666Y-85302380D01*
X140692857Y-85278571D01*
X140669047Y-85230952D01*
X140669047Y-85135714D01*
X140692857Y-85088095D01*
X140716666Y-85064285D01*
X140764285Y-85040476D01*
X146521428Y-85326190D02*
X146688095Y-85088095D01*
X146807142Y-85326190D02*
X146807142Y-84826190D01*
X146616666Y-84826190D01*
X146569047Y-84850000D01*
X146545238Y-84873809D01*
X146521428Y-84921428D01*
X146521428Y-84992857D01*
X146545238Y-85040476D01*
X146569047Y-85064285D01*
X146616666Y-85088095D01*
X146807142Y-85088095D01*
X146354761Y-84826190D02*
X146045238Y-84826190D01*
X146211904Y-85016666D01*
X146140476Y-85016666D01*
X146092857Y-85040476D01*
X146069047Y-85064285D01*
X146045238Y-85111904D01*
X146045238Y-85230952D01*
X146069047Y-85278571D01*
X146092857Y-85302380D01*
X146140476Y-85326190D01*
X146283333Y-85326190D01*
X146330952Y-85302380D01*
X146354761Y-85278571D01*
X145878571Y-84826190D02*
X145569047Y-84826190D01*
X145735714Y-85016666D01*
X145664285Y-85016666D01*
X145616666Y-85040476D01*
X145592857Y-85064285D01*
X145569047Y-85111904D01*
X145569047Y-85230952D01*
X145592857Y-85278571D01*
X145616666Y-85302380D01*
X145664285Y-85326190D01*
X145807142Y-85326190D01*
X145854761Y-85302380D01*
X145878571Y-85278571D01*
X146026190Y-78478571D02*
X145788095Y-78311904D01*
X146026190Y-78192857D02*
X145526190Y-78192857D01*
X145526190Y-78383333D01*
X145550000Y-78430952D01*
X145573809Y-78454761D01*
X145621428Y-78478571D01*
X145692857Y-78478571D01*
X145740476Y-78454761D01*
X145764285Y-78430952D01*
X145788095Y-78383333D01*
X145788095Y-78192857D01*
X145526190Y-78645238D02*
X145526190Y-78954761D01*
X145716666Y-78788095D01*
X145716666Y-78859523D01*
X145740476Y-78907142D01*
X145764285Y-78930952D01*
X145811904Y-78954761D01*
X145930952Y-78954761D01*
X145978571Y-78930952D01*
X146002380Y-78907142D01*
X146026190Y-78859523D01*
X146026190Y-78716666D01*
X146002380Y-78669047D01*
X145978571Y-78645238D01*
X145692857Y-79383333D02*
X146026190Y-79383333D01*
X145502380Y-79264285D02*
X145859523Y-79145238D01*
X145859523Y-79454761D01*
X137821428Y-81326190D02*
X137988095Y-81088095D01*
X138107142Y-81326190D02*
X138107142Y-80826190D01*
X137916666Y-80826190D01*
X137869047Y-80850000D01*
X137845238Y-80873809D01*
X137821428Y-80921428D01*
X137821428Y-80992857D01*
X137845238Y-81040476D01*
X137869047Y-81064285D01*
X137916666Y-81088095D01*
X138107142Y-81088095D01*
X137654761Y-80826190D02*
X137345238Y-80826190D01*
X137511904Y-81016666D01*
X137440476Y-81016666D01*
X137392857Y-81040476D01*
X137369047Y-81064285D01*
X137345238Y-81111904D01*
X137345238Y-81230952D01*
X137369047Y-81278571D01*
X137392857Y-81302380D01*
X137440476Y-81326190D01*
X137583333Y-81326190D01*
X137630952Y-81302380D01*
X137654761Y-81278571D01*
X136892857Y-80826190D02*
X137130952Y-80826190D01*
X137154761Y-81064285D01*
X137130952Y-81040476D01*
X137083333Y-81016666D01*
X136964285Y-81016666D01*
X136916666Y-81040476D01*
X136892857Y-81064285D01*
X136869047Y-81111904D01*
X136869047Y-81230952D01*
X136892857Y-81278571D01*
X136916666Y-81302380D01*
X136964285Y-81326190D01*
X137083333Y-81326190D01*
X137130952Y-81302380D01*
X137154761Y-81278571D01*
X151521428Y-87626190D02*
X151688095Y-87388095D01*
X151807142Y-87626190D02*
X151807142Y-87126190D01*
X151616666Y-87126190D01*
X151569047Y-87150000D01*
X151545238Y-87173809D01*
X151521428Y-87221428D01*
X151521428Y-87292857D01*
X151545238Y-87340476D01*
X151569047Y-87364285D01*
X151616666Y-87388095D01*
X151807142Y-87388095D01*
X151354761Y-87126190D02*
X151045238Y-87126190D01*
X151211904Y-87316666D01*
X151140476Y-87316666D01*
X151092857Y-87340476D01*
X151069047Y-87364285D01*
X151045238Y-87411904D01*
X151045238Y-87530952D01*
X151069047Y-87578571D01*
X151092857Y-87602380D01*
X151140476Y-87626190D01*
X151283333Y-87626190D01*
X151330952Y-87602380D01*
X151354761Y-87578571D01*
X150616666Y-87126190D02*
X150711904Y-87126190D01*
X150759523Y-87150000D01*
X150783333Y-87173809D01*
X150830952Y-87245238D01*
X150854761Y-87340476D01*
X150854761Y-87530952D01*
X150830952Y-87578571D01*
X150807142Y-87602380D01*
X150759523Y-87626190D01*
X150664285Y-87626190D01*
X150616666Y-87602380D01*
X150592857Y-87578571D01*
X150569047Y-87530952D01*
X150569047Y-87411904D01*
X150592857Y-87364285D01*
X150616666Y-87340476D01*
X150664285Y-87316666D01*
X150759523Y-87316666D01*
X150807142Y-87340476D01*
X150830952Y-87364285D01*
X150854761Y-87411904D01*
X161472476Y-80426190D02*
X161353428Y-80926190D01*
X161258190Y-80569047D01*
X161162952Y-80926190D01*
X161043904Y-80426190D01*
X160591523Y-80926190D02*
X160877238Y-80926190D01*
X160734380Y-80926190D02*
X160734380Y-80426190D01*
X160782000Y-80497619D01*
X160829619Y-80545238D01*
X160877238Y-80569047D01*
X160401047Y-80473809D02*
X160377238Y-80450000D01*
X160329619Y-80426190D01*
X160210571Y-80426190D01*
X160162952Y-80450000D01*
X160139142Y-80473809D01*
X160115333Y-80521428D01*
X160115333Y-80569047D01*
X160139142Y-80640476D01*
X160424857Y-80926190D01*
X160115333Y-80926190D01*
X153090476Y-102126190D02*
X152971428Y-102626190D01*
X152876190Y-102269047D01*
X152780952Y-102626190D01*
X152661904Y-102126190D01*
X152209523Y-102626190D02*
X152495238Y-102626190D01*
X152352380Y-102626190D02*
X152352380Y-102126190D01*
X152400000Y-102197619D01*
X152447619Y-102245238D01*
X152495238Y-102269047D01*
X151923809Y-102340476D02*
X151971428Y-102316666D01*
X151995238Y-102292857D01*
X152019047Y-102245238D01*
X152019047Y-102221428D01*
X151995238Y-102173809D01*
X151971428Y-102150000D01*
X151923809Y-102126190D01*
X151828571Y-102126190D01*
X151780952Y-102150000D01*
X151757142Y-102173809D01*
X151733333Y-102221428D01*
X151733333Y-102245238D01*
X151757142Y-102292857D01*
X151780952Y-102316666D01*
X151828571Y-102340476D01*
X151923809Y-102340476D01*
X151971428Y-102364285D01*
X151995238Y-102388095D01*
X152019047Y-102435714D01*
X152019047Y-102530952D01*
X151995238Y-102578571D01*
X151971428Y-102602380D01*
X151923809Y-102626190D01*
X151828571Y-102626190D01*
X151780952Y-102602380D01*
X151757142Y-102578571D01*
X151733333Y-102530952D01*
X151733333Y-102435714D01*
X151757142Y-102388095D01*
X151780952Y-102364285D01*
X151828571Y-102340476D01*
D12*
X121852380Y-94261904D02*
X120852380Y-94261904D01*
X120852380Y-94642857D01*
X120900000Y-94738095D01*
X120947619Y-94785714D01*
X121042857Y-94833333D01*
X121185714Y-94833333D01*
X121280952Y-94785714D01*
X121328571Y-94738095D01*
X121376190Y-94642857D01*
X121376190Y-94261904D01*
X120947619Y-95214285D02*
X120900000Y-95261904D01*
X120852380Y-95357142D01*
X120852380Y-95595238D01*
X120900000Y-95690476D01*
X120947619Y-95738095D01*
X121042857Y-95785714D01*
X121138095Y-95785714D01*
X121280952Y-95738095D01*
X121852380Y-95166666D01*
X121852380Y-95785714D01*
D10*
X155352380Y-104326190D02*
X155233333Y-104826190D01*
X155138095Y-104469047D01*
X155042857Y-104826190D01*
X154923809Y-104326190D01*
X154519047Y-104492857D02*
X154519047Y-104826190D01*
X154638095Y-104302380D02*
X154757142Y-104659523D01*
X154447619Y-104659523D01*
X154152380Y-105526190D02*
X154033333Y-106026190D01*
X153938095Y-105669047D01*
X153842857Y-106026190D01*
X153723809Y-105526190D01*
X153295238Y-105526190D02*
X153533333Y-105526190D01*
X153557142Y-105764285D01*
X153533333Y-105740476D01*
X153485714Y-105716666D01*
X153366666Y-105716666D01*
X153319047Y-105740476D01*
X153295238Y-105764285D01*
X153271428Y-105811904D01*
X153271428Y-105930952D01*
X153295238Y-105978571D01*
X153319047Y-106002380D01*
X153366666Y-106026190D01*
X153485714Y-106026190D01*
X153533333Y-106002380D01*
X153557142Y-105978571D01*
X151190476Y-105326190D02*
X151071428Y-105826190D01*
X150976190Y-105469047D01*
X150880952Y-105826190D01*
X150761904Y-105326190D01*
X150309523Y-105826190D02*
X150595238Y-105826190D01*
X150452380Y-105826190D02*
X150452380Y-105326190D01*
X150500000Y-105397619D01*
X150547619Y-105445238D01*
X150595238Y-105469047D01*
X150142857Y-105326190D02*
X149833333Y-105326190D01*
X150000000Y-105516666D01*
X149928571Y-105516666D01*
X149880952Y-105540476D01*
X149857142Y-105564285D01*
X149833333Y-105611904D01*
X149833333Y-105730952D01*
X149857142Y-105778571D01*
X149880952Y-105802380D01*
X149928571Y-105826190D01*
X150071428Y-105826190D01*
X150119047Y-105802380D01*
X150142857Y-105778571D01*
X149090476Y-104326190D02*
X148971428Y-104826190D01*
X148876190Y-104469047D01*
X148780952Y-104826190D01*
X148661904Y-104326190D01*
X148209523Y-104826190D02*
X148495238Y-104826190D01*
X148352380Y-104826190D02*
X148352380Y-104326190D01*
X148400000Y-104397619D01*
X148447619Y-104445238D01*
X148495238Y-104469047D01*
X147780952Y-104492857D02*
X147780952Y-104826190D01*
X147900000Y-104302380D02*
X148019047Y-104659523D01*
X147709523Y-104659523D01*
X160290476Y-106226190D02*
X160171428Y-106726190D01*
X160076190Y-106369047D01*
X159980952Y-106726190D01*
X159861904Y-106226190D01*
X159719047Y-106226190D02*
X159409523Y-106226190D01*
X159576190Y-106416666D01*
X159504761Y-106416666D01*
X159457142Y-106440476D01*
X159433333Y-106464285D01*
X159409523Y-106511904D01*
X159409523Y-106630952D01*
X159433333Y-106678571D01*
X159457142Y-106702380D01*
X159504761Y-106726190D01*
X159647619Y-106726190D01*
X159695238Y-106702380D01*
X159719047Y-106678571D01*
X159100000Y-106226190D02*
X159052380Y-106226190D01*
X159004761Y-106250000D01*
X158980952Y-106273809D01*
X158957142Y-106321428D01*
X158933333Y-106416666D01*
X158933333Y-106535714D01*
X158957142Y-106630952D01*
X158980952Y-106678571D01*
X159004761Y-106702380D01*
X159052380Y-106726190D01*
X159100000Y-106726190D01*
X159147619Y-106702380D01*
X159171428Y-106678571D01*
X159195238Y-106630952D01*
X159219047Y-106535714D01*
X159219047Y-106416666D01*
X159195238Y-106321428D01*
X159171428Y-106273809D01*
X159147619Y-106250000D01*
X159100000Y-106226190D01*
X156190476Y-106226190D02*
X156071428Y-106726190D01*
X155976190Y-106369047D01*
X155880952Y-106726190D01*
X155761904Y-106226190D01*
X155619047Y-106226190D02*
X155309523Y-106226190D01*
X155476190Y-106416666D01*
X155404761Y-106416666D01*
X155357142Y-106440476D01*
X155333333Y-106464285D01*
X155309523Y-106511904D01*
X155309523Y-106630952D01*
X155333333Y-106678571D01*
X155357142Y-106702380D01*
X155404761Y-106726190D01*
X155547619Y-106726190D01*
X155595238Y-106702380D01*
X155619047Y-106678571D01*
X154833333Y-106726190D02*
X155119047Y-106726190D01*
X154976190Y-106726190D02*
X154976190Y-106226190D01*
X155023809Y-106297619D01*
X155071428Y-106345238D01*
X155119047Y-106369047D01*
X154790476Y-110326190D02*
X154671428Y-110826190D01*
X154576190Y-110469047D01*
X154480952Y-110826190D01*
X154361904Y-110326190D01*
X154219047Y-110326190D02*
X153909523Y-110326190D01*
X154076190Y-110516666D01*
X154004761Y-110516666D01*
X153957142Y-110540476D01*
X153933333Y-110564285D01*
X153909523Y-110611904D01*
X153909523Y-110730952D01*
X153933333Y-110778571D01*
X153957142Y-110802380D01*
X154004761Y-110826190D01*
X154147619Y-110826190D01*
X154195238Y-110802380D01*
X154219047Y-110778571D01*
X153719047Y-110373809D02*
X153695238Y-110350000D01*
X153647619Y-110326190D01*
X153528571Y-110326190D01*
X153480952Y-110350000D01*
X153457142Y-110373809D01*
X153433333Y-110421428D01*
X153433333Y-110469047D01*
X153457142Y-110540476D01*
X153742857Y-110826190D01*
X153433333Y-110826190D01*
X156490476Y-94626190D02*
X156371428Y-95126190D01*
X156276190Y-94769047D01*
X156180952Y-95126190D01*
X156061904Y-94626190D01*
X155919047Y-94626190D02*
X155609523Y-94626190D01*
X155776190Y-94816666D01*
X155704761Y-94816666D01*
X155657142Y-94840476D01*
X155633333Y-94864285D01*
X155609523Y-94911904D01*
X155609523Y-95030952D01*
X155633333Y-95078571D01*
X155657142Y-95102380D01*
X155704761Y-95126190D01*
X155847619Y-95126190D01*
X155895238Y-95102380D01*
X155919047Y-95078571D01*
X155442857Y-94626190D02*
X155133333Y-94626190D01*
X155300000Y-94816666D01*
X155228571Y-94816666D01*
X155180952Y-94840476D01*
X155157142Y-94864285D01*
X155133333Y-94911904D01*
X155133333Y-95030952D01*
X155157142Y-95078571D01*
X155180952Y-95102380D01*
X155228571Y-95126190D01*
X155371428Y-95126190D01*
X155419047Y-95102380D01*
X155442857Y-95078571D01*
X154826190Y-89809523D02*
X155326190Y-89928571D01*
X154969047Y-90023809D01*
X155326190Y-90119047D01*
X154826190Y-90238095D01*
X154826190Y-90380952D02*
X154826190Y-90690476D01*
X155016666Y-90523809D01*
X155016666Y-90595238D01*
X155040476Y-90642857D01*
X155064285Y-90666666D01*
X155111904Y-90690476D01*
X155230952Y-90690476D01*
X155278571Y-90666666D01*
X155302380Y-90642857D01*
X155326190Y-90595238D01*
X155326190Y-90452380D01*
X155302380Y-90404761D01*
X155278571Y-90380952D01*
X154992857Y-91119047D02*
X155326190Y-91119047D01*
X154802380Y-91000000D02*
X155159523Y-90880952D01*
X155159523Y-91190476D01*
X156326190Y-89809523D02*
X156826190Y-89928571D01*
X156469047Y-90023809D01*
X156826190Y-90119047D01*
X156326190Y-90238095D01*
X156326190Y-90380952D02*
X156326190Y-90690476D01*
X156516666Y-90523809D01*
X156516666Y-90595238D01*
X156540476Y-90642857D01*
X156564285Y-90666666D01*
X156611904Y-90690476D01*
X156730952Y-90690476D01*
X156778571Y-90666666D01*
X156802380Y-90642857D01*
X156826190Y-90595238D01*
X156826190Y-90452380D01*
X156802380Y-90404761D01*
X156778571Y-90380952D01*
X156326190Y-91142857D02*
X156326190Y-90904761D01*
X156564285Y-90880952D01*
X156540476Y-90904761D01*
X156516666Y-90952380D01*
X156516666Y-91071428D01*
X156540476Y-91119047D01*
X156564285Y-91142857D01*
X156611904Y-91166666D01*
X156730952Y-91166666D01*
X156778571Y-91142857D01*
X156802380Y-91119047D01*
X156826190Y-91071428D01*
X156826190Y-90952380D01*
X156802380Y-90904761D01*
X156778571Y-90880952D01*
X157890476Y-99026190D02*
X157771428Y-99526190D01*
X157676190Y-99169047D01*
X157580952Y-99526190D01*
X157461904Y-99026190D01*
X157319047Y-99026190D02*
X157009523Y-99026190D01*
X157176190Y-99216666D01*
X157104761Y-99216666D01*
X157057142Y-99240476D01*
X157033333Y-99264285D01*
X157009523Y-99311904D01*
X157009523Y-99430952D01*
X157033333Y-99478571D01*
X157057142Y-99502380D01*
X157104761Y-99526190D01*
X157247619Y-99526190D01*
X157295238Y-99502380D01*
X157319047Y-99478571D01*
X156580952Y-99026190D02*
X156676190Y-99026190D01*
X156723809Y-99050000D01*
X156747619Y-99073809D01*
X156795238Y-99145238D01*
X156819047Y-99240476D01*
X156819047Y-99430952D01*
X156795238Y-99478571D01*
X156771428Y-99502380D01*
X156723809Y-99526190D01*
X156628571Y-99526190D01*
X156580952Y-99502380D01*
X156557142Y-99478571D01*
X156533333Y-99430952D01*
X156533333Y-99311904D01*
X156557142Y-99264285D01*
X156580952Y-99240476D01*
X156628571Y-99216666D01*
X156723809Y-99216666D01*
X156771428Y-99240476D01*
X156795238Y-99264285D01*
X156819047Y-99311904D01*
X152390476Y-94626190D02*
X152271428Y-95126190D01*
X152176190Y-94769047D01*
X152080952Y-95126190D01*
X151961904Y-94626190D01*
X151819047Y-94626190D02*
X151509523Y-94626190D01*
X151676190Y-94816666D01*
X151604761Y-94816666D01*
X151557142Y-94840476D01*
X151533333Y-94864285D01*
X151509523Y-94911904D01*
X151509523Y-95030952D01*
X151533333Y-95078571D01*
X151557142Y-95102380D01*
X151604761Y-95126190D01*
X151747619Y-95126190D01*
X151795238Y-95102380D01*
X151819047Y-95078571D01*
X151342857Y-94626190D02*
X151009523Y-94626190D01*
X151223809Y-95126190D01*
D14*
G36*
X162372910Y-74673000D02*
X148126910Y-74673000D01*
X148122476Y-68427000D01*
X162368476Y-68427000D01*
X162372910Y-74673000D01*
X162372910Y-74673000D01*
G37*
X162372910Y-74673000D02*
X148126910Y-74673000D01*
X148122476Y-68427000D01*
X162368476Y-68427000D01*
X162372910Y-74673000D01*
M02*
