M48
;DRILL file {KiCad no-vcs-found-7433~57~ubuntu16.10.1} date Fri Jan 13 10:15:18 2017
;FORMAT={-:-/ absolute / inch / decimal}
FMAT,2
INCH,TZ
T1C0.016
T2C0.028
T3C0.030
T4C0.039
T5C0.043
T6C0.047
%
G90
G05
M72
T1
X4.7835Y-3.2677
X4.8Y-4.05
X4.8Y-4.45
X4.8819Y-2.8543
X4.9213Y-3.2677
X5.0394Y-2.5984
X5.0787Y-3.0906
X5.0787Y-3.2283
X5.0787Y-3.3661
X5.1102Y-2.8071
X5.126Y-4.5748
X5.3268Y-3.8307
X5.3307Y-3.9724
X5.3465Y-3.7205
X5.3543Y-2.5984
X5.3543Y-2.9921
X5.378Y-2.8976
X5.3976Y-3.3858
X5.4724Y-4.4094
X5.483Y-4.0218
X5.506Y-4.4914
X5.5079Y-3.3858
X5.5787Y-3.9882
X5.6638Y-4.115
X5.67Y-3.6
X5.6929Y-4.7697
X5.6929Y-4.8031
X5.6929Y-4.8366
X5.6969Y-4.3386
X5.6988Y-3.3858
X5.7008Y-4.3976
X5.7008Y-4.4528
X5.7087Y-2.5984
X5.7244Y-4.7697
X5.7244Y-4.8031
X5.7244Y-4.8366
X5.7323Y-2.7756
X5.7382Y-2.9724
X5.74Y-3.7
X5.7835Y-4.3661
X5.7953Y-4.1378
X5.8071Y-2.7067
X5.8346Y-2.6614
X5.84Y-3.78
X5.8401Y-3.954
X5.86Y-3.55
X5.88Y-4.32
X5.8985Y-3.7089
X5.91Y-4.4854
X5.9175Y-3.9606
X5.9229Y-4.0098
X5.935Y-3.3071
X5.9393Y-4.3159
X5.9449Y-3.8583
X5.9606Y-4.4528
X5.9666Y-4.139
X5.9717Y-3.9876
X5.9843Y-4.311
X6.Y-4.0118
X6.0102Y-4.1649
X6.0197Y-3.3858
X6.0271Y-3.8893
X6.03Y-4.2402
X6.039Y-3.6821
X6.0433Y-2.9626
X6.0537Y-4.269
X6.0555Y-3.9405
X6.0669Y-3.9724
X6.0688Y-4.0144
X6.0726Y-4.0456
X6.0867Y-4.2832
X6.0965Y-4.2525
X6.1102Y-3.8356
X6.126Y-4.3425
X6.1362Y-3.811
X6.1368Y-3.6732
X6.1591Y-4.2513
X6.1601Y-4.2828
X6.1608Y-3.8427
X6.1614Y-2.6181
X6.1614Y-3.7008
X6.1614Y-4.1496
X6.1811Y-3.4646
X6.1811Y-4.311
X6.1877Y-4.0197
X6.19Y-3.68
X6.1969Y-4.247
X6.2Y-3.94
X6.2008Y-3.2087
X6.2087Y-3.815
X6.2205Y-3.1496
X6.24Y-3.59
X6.24Y-3.69
X6.2795Y-3.8878
X6.29Y-3.14
X6.3009Y-4.4521
X6.3189Y-4.2323
X6.3976Y-2.628
X6.406Y-3.9154
X6.4075Y-3.5827
X6.4075Y-3.9469
X6.4764Y-4.252
X6.4921Y-3.9394
X6.4961Y-2.9528
X6.4961Y-3.1496
X6.5248Y-4.2384
X6.5551Y-4.0795
X6.5896Y-4.4726
X6.5945Y-3.8031
X6.6142Y-3.3858
X6.6634Y-3.7894
X6.6634Y-4.1339
T2
X5.3587Y-3.0874
X5.3587Y-3.4874
X5.4587Y-3.0874
X5.4587Y-3.4874
X5.5587Y-3.0874
X5.5587Y-3.4874
X5.6587Y-3.0874
X5.6587Y-3.4874
X5.7587Y-3.4874
X5.8587Y-3.0874
X5.8587Y-3.4874
X5.9587Y-3.4874
X6.0587Y-3.0874
X6.0587Y-3.4874
T3
X5.35Y-4.05
X5.35Y-4.45
T4
X4.9803Y-3.5925
X4.9803Y-3.6909
X4.9803Y-3.7894
X4.9803Y-3.8878
X5.1772Y-3.5925
X5.1772Y-3.6909
X5.1772Y-3.7894
X5.1772Y-3.8878
T5
X4.874Y-4.2205
T6
X5.2677Y-4.2205
T0
M30
