G04 #@! TF.GenerationSoftware,KiCad,Pcbnew,5.0.0-rc2-dev-unknown-c8a7840~64~ubuntu18.04.1*
G04 #@! TF.CreationDate,2018-05-01T15:31:45+02:00*
G04 #@! TF.ProjectId,can-node,63616E2D6E6F64652E6B696361645F70,1.1*
G04 #@! TF.SameCoordinates,Original*
G04 #@! TF.FileFunction,Copper,L2,Bot,Signal*
G04 #@! TF.FilePolarity,Positive*
%FSLAX46Y46*%
G04 Gerber Fmt 4.6, Leading zero omitted, Abs format (unit mm)*
G04 Created by KiCad (PCBNEW 5.0.0-rc2-dev-unknown-c8a7840~64~ubuntu18.04.1) date Tue May  1 15:31:45 2018*
%MOMM*%
%LPD*%
G01*
G04 APERTURE LIST*
%ADD10R,1.600000X4.000000*%
%ADD11C,0.600000*%
%ADD12C,1.750000*%
%ADD13C,1.500000*%
%ADD14C,2.000000*%
%ADD15R,2.000000X2.000000*%
%ADD16R,3.000000X1.500000*%
%ADD17R,1.900000X0.800000*%
%ADD18R,0.800000X1.900000*%
%ADD19R,1.200000X0.900000*%
%ADD20R,0.900000X1.200000*%
%ADD21C,1.000000*%
%ADD22C,0.500000*%
%ADD23C,0.700000*%
%ADD24C,0.250000*%
%ADD25C,1.000000*%
%ADD26C,0.500000*%
G04 APERTURE END LIST*
D10*
X145100000Y-122000000D03*
D11*
X145500000Y-121150000D03*
X145500000Y-122850000D03*
X145500000Y-122000000D03*
X144700000Y-121150000D03*
X144700000Y-122850000D03*
X144700000Y-122000000D03*
D12*
X131500000Y-98750000D03*
X131500000Y-96250000D03*
X131500000Y-93750000D03*
X131500000Y-91250000D03*
X126500000Y-98750000D03*
X126500000Y-96250000D03*
X126500000Y-93750000D03*
X126500000Y-91250000D03*
D13*
X136110000Y-78420000D03*
X138650000Y-78420000D03*
X141190000Y-78420000D03*
X143730000Y-78420000D03*
X148810000Y-78420000D03*
X153890000Y-78420000D03*
X153890000Y-88580000D03*
X151350000Y-88580000D03*
X148810000Y-88580000D03*
X146270000Y-88580000D03*
X143730000Y-88580000D03*
X141190000Y-88580000D03*
X138650000Y-88580000D03*
X136110000Y-88580000D03*
X121500000Y-112500000D03*
X121500000Y-102000000D03*
D14*
X123800000Y-107200000D03*
D15*
X133800000Y-107200000D03*
D16*
X160500000Y-89920000D03*
X165000000Y-91190000D03*
X160500000Y-92460000D03*
X165000000Y-93730000D03*
X160500000Y-95000000D03*
X165000000Y-96270000D03*
X160500000Y-97540000D03*
X165000000Y-98810000D03*
X160500000Y-100080000D03*
X165000000Y-101350000D03*
D17*
X128950000Y-83950000D03*
X128950000Y-82050000D03*
X131950000Y-83000000D03*
X131950000Y-79500000D03*
X128950000Y-78550000D03*
X128950000Y-80450000D03*
X128950000Y-87450000D03*
X128950000Y-85550000D03*
X131950000Y-86500000D03*
D18*
X139200000Y-93200000D03*
X138250000Y-96200000D03*
X140150000Y-96200000D03*
X145750000Y-86100000D03*
X143850000Y-86100000D03*
X144800000Y-83100000D03*
X156300000Y-79100000D03*
X155350000Y-82100000D03*
X157250000Y-82100000D03*
X142250000Y-86100000D03*
X140350000Y-86100000D03*
X141300000Y-83100000D03*
D17*
X159500000Y-80700000D03*
X162500000Y-81650000D03*
X162500000Y-79750000D03*
D18*
X138750000Y-86100000D03*
X136850000Y-86100000D03*
X137800000Y-83100000D03*
D17*
X138800000Y-100100000D03*
X141800000Y-101050000D03*
X141800000Y-99150000D03*
X151800000Y-85500000D03*
X154800000Y-86450000D03*
X154800000Y-84550000D03*
X163500000Y-84050000D03*
X163500000Y-85950000D03*
X160500000Y-85000000D03*
D18*
X142900000Y-92400000D03*
X141950000Y-95400000D03*
X143850000Y-95400000D03*
D19*
X142300000Y-80400000D03*
X140100000Y-80400000D03*
D20*
X134300000Y-81000000D03*
X134300000Y-78800000D03*
D19*
X144900000Y-80300000D03*
X147100000Y-80300000D03*
X139000000Y-90800000D03*
X141200000Y-90800000D03*
D20*
X148900000Y-86300000D03*
X148900000Y-84100000D03*
X151800000Y-80600000D03*
X151800000Y-78400000D03*
D19*
X136100000Y-80400000D03*
X138300000Y-80400000D03*
D20*
X157400000Y-86900000D03*
X157400000Y-84700000D03*
D21*
X161000000Y-105500000D03*
X154200000Y-94900000D03*
X143100000Y-72200000D03*
X151000000Y-73000000D03*
X146000000Y-69600000D03*
X153000000Y-71000000D03*
D22*
X123000000Y-68000000D03*
D23*
X150500000Y-72500000D03*
X143100000Y-73400000D03*
X146000000Y-67800000D03*
X122000000Y-67000000D03*
X127000000Y-67000000D03*
X122000000Y-72000000D03*
X127000000Y-72000000D03*
X167500000Y-68400000D03*
X167600000Y-73200000D03*
X167900000Y-79000000D03*
X168100000Y-84300000D03*
X154500000Y-73500000D03*
X158500000Y-73500000D03*
X158500000Y-75500000D03*
X156500000Y-75500000D03*
X154500000Y-75500000D03*
X131500000Y-78000000D03*
X134000000Y-84000000D03*
X135000000Y-86000000D03*
X127000000Y-88500000D03*
X127000000Y-83000000D03*
X127000000Y-78000000D03*
X153500000Y-81900000D03*
X162500000Y-80700000D03*
X148200000Y-92300000D03*
X146500000Y-90400000D03*
X139300000Y-84500000D03*
X143500000Y-83900000D03*
X148900000Y-90100000D03*
X135800000Y-97600000D03*
X135600000Y-94000000D03*
X149000000Y-109500000D03*
X156000000Y-111000000D03*
X164000000Y-108000000D03*
X166000000Y-102700000D03*
X164700000Y-103800000D03*
X160200000Y-111173539D03*
X129000000Y-107000000D03*
X150500000Y-98700000D03*
X159000000Y-103900000D03*
X152100000Y-105400000D03*
X169000000Y-113000000D03*
X169000000Y-105000000D03*
X139000000Y-67000000D03*
X134000000Y-75000000D03*
X136000000Y-70000000D03*
X151000000Y-75500000D03*
X147000000Y-75500000D03*
X132500000Y-70000000D03*
X148000000Y-82000000D03*
X144050000Y-91630000D03*
X136500000Y-90500000D03*
X136500000Y-101000000D03*
X145908786Y-93736605D03*
X148250000Y-96150000D03*
X143450000Y-98500000D03*
X154579293Y-91156952D03*
X154000000Y-92900000D03*
X158100000Y-100100000D03*
X165800000Y-100200000D03*
X149500000Y-68899996D03*
X150400000Y-68900000D03*
X136949988Y-98900000D03*
X121000000Y-93000000D03*
X121000000Y-86000000D03*
X121000000Y-79000000D03*
X133000000Y-66000000D03*
X169000000Y-90000000D03*
X169000000Y-98000000D03*
X134000000Y-111000000D03*
X129000000Y-101000000D03*
X153000000Y-72200000D03*
X165847691Y-86802300D03*
X165847692Y-86802301D03*
X167500000Y-102500000D03*
X167500000Y-101500026D03*
X162500000Y-87500000D03*
X142500000Y-97000000D03*
X158124997Y-85823671D03*
X136441791Y-84412819D03*
X153200000Y-111400000D03*
X164549989Y-111900000D03*
X142500000Y-109000000D03*
X148000000Y-111200000D03*
X165000000Y-75500000D03*
X143199989Y-101000000D03*
X159100000Y-111100000D03*
X161000000Y-106600000D03*
X164119208Y-106108222D03*
X141342075Y-111249990D03*
X150000000Y-111000000D03*
X124000000Y-117400000D03*
X162300000Y-114000000D03*
X156324990Y-98356338D03*
X163175010Y-94104871D03*
X147100000Y-69500000D03*
X163800000Y-115000000D03*
X130600000Y-114800000D03*
X137000000Y-106900000D03*
X154348732Y-102799992D03*
X154700000Y-96700000D03*
X158025021Y-98958706D03*
X163086653Y-100167957D03*
X165000000Y-110000000D03*
X142600000Y-90500000D03*
X139500000Y-83000000D03*
X131900000Y-87600000D03*
X152100013Y-101700000D03*
X151200000Y-101700000D03*
X152152092Y-102701521D03*
X152998721Y-103006876D03*
X152868504Y-98224095D03*
X156900000Y-91474985D03*
X157524021Y-92956553D03*
X153176922Y-99422312D03*
X155258398Y-100303788D03*
X154427873Y-105326727D03*
X155500000Y-105200000D03*
X156100000Y-87900000D03*
X155000000Y-93000006D03*
X154275026Y-100332551D03*
X159000000Y-102375023D03*
D24*
X150500000Y-72500000D02*
X151000000Y-73000000D01*
X143100000Y-72200000D02*
X143100000Y-73400000D01*
D25*
X160500000Y-78500000D02*
X162500000Y-78500000D01*
X158500000Y-75500000D02*
X160500000Y-75500000D01*
X160500000Y-75500000D02*
X160500000Y-78500000D01*
X131500000Y-93750000D02*
X126500000Y-93750000D01*
X126500000Y-93750000D02*
X123750000Y-93750000D01*
D24*
X140350000Y-86100000D02*
X140350000Y-85550000D01*
X140350000Y-85550000D02*
X139300000Y-84500000D01*
X142675001Y-96175001D02*
X145000000Y-98500000D01*
X142675001Y-94110003D02*
X142675001Y-96175001D01*
X142464998Y-93900000D02*
X142675001Y-94110003D01*
X150300000Y-98500000D02*
X150500000Y-98700000D01*
X145000000Y-98500000D02*
X150300000Y-98500000D01*
D26*
X135600000Y-93505026D02*
X135600000Y-94000000D01*
X135600000Y-89846002D02*
X135600000Y-93505026D01*
X134909999Y-89156001D02*
X135600000Y-89846002D01*
X135000000Y-86000000D02*
X135000000Y-87913998D01*
X134909999Y-88003999D02*
X134909999Y-89156001D01*
X135000000Y-87913998D02*
X134909999Y-88003999D01*
X135699985Y-100199985D02*
X136150001Y-100650001D01*
X135699985Y-98194989D02*
X135699985Y-100199985D01*
X136150001Y-100650001D02*
X136500000Y-101000000D01*
X135800000Y-98094974D02*
X135699985Y-98194989D01*
X135800000Y-97600000D02*
X135800000Y-98094974D01*
D24*
X145413812Y-93736605D02*
X145908786Y-93736605D01*
X142464998Y-93900000D02*
X142628393Y-93736605D01*
X142628393Y-93736605D02*
X145413812Y-93736605D01*
X138000000Y-87285002D02*
X138219997Y-87504999D01*
X139300000Y-84500000D02*
X138414998Y-84500000D01*
X138414998Y-84500000D02*
X138000000Y-84914998D01*
X138000000Y-84914998D02*
X138000000Y-87285002D01*
X138219997Y-87504999D02*
X139166001Y-87504999D01*
X139166001Y-87504999D02*
X140114999Y-88453997D01*
X140114999Y-88453997D02*
X140114999Y-91550001D01*
X140114999Y-91550001D02*
X142464998Y-93900000D01*
X160500000Y-100080000D02*
X158120000Y-100080000D01*
X158120000Y-100080000D02*
X158100000Y-100100000D01*
X165800000Y-100550000D02*
X165000000Y-101350000D01*
X165800000Y-100200000D02*
X165800000Y-100550000D01*
X138250000Y-96200000D02*
X138250000Y-97599988D01*
X138250000Y-97599988D02*
X137299987Y-98550001D01*
X137299987Y-98550001D02*
X136949988Y-98900000D01*
X153000000Y-71000000D02*
X153000000Y-72200000D01*
D26*
X164995391Y-85950000D02*
X165497693Y-86452302D01*
X163500000Y-85950000D02*
X164995391Y-85950000D01*
X165000000Y-91190000D02*
X165000000Y-87649993D01*
X165497693Y-87152300D02*
X165847692Y-86802301D01*
X165000000Y-87649993D02*
X165497693Y-87152300D01*
X165497693Y-86452302D02*
X165847692Y-86802301D01*
D25*
X167500000Y-102500000D02*
X167500000Y-103500000D01*
X167500000Y-103500000D02*
X167500000Y-101500026D01*
X167500000Y-103500000D02*
X167500000Y-110500000D01*
D24*
X163500000Y-85950000D02*
X163500000Y-86500000D01*
X163500000Y-86500000D02*
X162500000Y-87500000D01*
D26*
X163000000Y-91190000D02*
X161730000Y-89920000D01*
X165000000Y-91190000D02*
X163000000Y-91190000D01*
X161730000Y-89920000D02*
X160500000Y-89920000D01*
D24*
X154800000Y-86450000D02*
X156000000Y-86450000D01*
X156626329Y-85823671D02*
X158124997Y-85823671D01*
X156000000Y-86450000D02*
X156626329Y-85823671D01*
X136850000Y-86100000D02*
X136850000Y-84821028D01*
X136791790Y-84762818D02*
X136441791Y-84412819D01*
X136850000Y-84821028D02*
X136791790Y-84762818D01*
X164899988Y-112299988D02*
X165300000Y-112700000D01*
X164899988Y-112249999D02*
X164899988Y-112299988D01*
X164549989Y-111900000D02*
X164899988Y-112249999D01*
X142500000Y-109000000D02*
X139345998Y-112154002D01*
X139345998Y-112154002D02*
X139345998Y-112300000D01*
D25*
X165700000Y-112300000D02*
X167500000Y-110500000D01*
D24*
X165300000Y-111900000D02*
X165700000Y-112300000D01*
X164549989Y-111900000D02*
X165300000Y-111900000D01*
D25*
X153200000Y-112300000D02*
X158500000Y-112300000D01*
D24*
X148000000Y-111200000D02*
X148000000Y-111694974D01*
X148000000Y-111694974D02*
X148000000Y-112300000D01*
D25*
X139345998Y-112300000D02*
X148000000Y-112300000D01*
X148000000Y-112300000D02*
X153200000Y-112300000D01*
D24*
X153200000Y-111400000D02*
X153200000Y-112300000D01*
D25*
X158500000Y-112300000D02*
X159200000Y-112300000D01*
X159200000Y-112300000D02*
X165700000Y-112300000D01*
X139345998Y-112300000D02*
X128700000Y-112300000D01*
X128500000Y-112500000D02*
X121500000Y-112500000D01*
X128700000Y-112300000D02*
X128500000Y-112500000D01*
D24*
X141950000Y-96450000D02*
X141950000Y-95400000D01*
X142500000Y-97000000D02*
X141950000Y-96450000D01*
X141800000Y-101050000D02*
X143149989Y-101050000D01*
X143149989Y-101050000D02*
X143199989Y-101000000D01*
X159100000Y-112200000D02*
X159200000Y-112300000D01*
X159100000Y-111100000D02*
X159100000Y-112200000D01*
X141800000Y-101050000D02*
X137814998Y-101050000D01*
X137185001Y-87635001D02*
X136850000Y-87300000D01*
X137185001Y-97665983D02*
X137185001Y-87635001D01*
X136850000Y-87300000D02*
X136850000Y-86100000D01*
X136274986Y-98575998D02*
X137185001Y-97665983D01*
X136274986Y-99509988D02*
X136274986Y-98575998D01*
X137814998Y-101050000D02*
X136274986Y-99509988D01*
X163769209Y-106458221D02*
X164119208Y-106108222D01*
X161000000Y-106600000D02*
X163627430Y-106600000D01*
X163627430Y-106600000D02*
X163769209Y-106458221D01*
X161000000Y-106600000D02*
X161000000Y-105500000D01*
X149524999Y-110524999D02*
X149650001Y-110650001D01*
X141342075Y-111249990D02*
X142067066Y-110524999D01*
X142067066Y-110524999D02*
X149524999Y-110524999D01*
X149650001Y-110650001D02*
X150000000Y-111000000D01*
X124000000Y-117400000D02*
X124766740Y-117400000D01*
X124766740Y-117400000D02*
X129041730Y-113125010D01*
X129041730Y-113125010D02*
X161425010Y-113125010D01*
X161950001Y-113650001D02*
X162300000Y-114000000D01*
X161425010Y-113125010D02*
X161950001Y-113650001D01*
X156324990Y-97861364D02*
X156324990Y-98356338D01*
X159750000Y-92460000D02*
X158750000Y-93460000D01*
X160500000Y-92460000D02*
X159750000Y-92460000D01*
X156900000Y-97286354D02*
X156324990Y-97861364D01*
X158750000Y-93460000D02*
X158440000Y-93460000D01*
X158440000Y-93460000D02*
X156900000Y-95000000D01*
X156900000Y-95000000D02*
X156900000Y-97286354D01*
X165000000Y-93730000D02*
X163250000Y-93730000D01*
X163175010Y-93804990D02*
X163175010Y-94104871D01*
X163250000Y-93730000D02*
X163175010Y-93804990D01*
X146100000Y-69500000D02*
X146000000Y-69600000D01*
X147100000Y-69500000D02*
X146100000Y-69500000D01*
X131094974Y-114800000D02*
X130600000Y-114800000D01*
X140423983Y-113575021D02*
X139199004Y-114800000D01*
X139199004Y-114800000D02*
X131094974Y-114800000D01*
X158075021Y-113575021D02*
X140423983Y-113575021D01*
X163800000Y-115000000D02*
X159500000Y-115000000D01*
X159500000Y-115000000D02*
X158075021Y-113575021D01*
X140125001Y-103774999D02*
X153373725Y-103774999D01*
X153373725Y-103774999D02*
X153998733Y-103149991D01*
X153998733Y-103149991D02*
X154348732Y-102799992D01*
X137000000Y-106900000D02*
X140125001Y-103774999D01*
X154700000Y-95400000D02*
X154200000Y-94900000D01*
X154700000Y-96700000D02*
X154700000Y-95400000D01*
X160500000Y-97540000D02*
X159750000Y-97540000D01*
X159750000Y-97540000D02*
X158331294Y-98958706D01*
X158331294Y-98958706D02*
X158025021Y-98958706D01*
X164250000Y-98810000D02*
X163086653Y-99973347D01*
X163086653Y-99973347D02*
X163086653Y-100167957D01*
X165000000Y-98810000D02*
X164250000Y-98810000D01*
X162325001Y-96430003D02*
X162325001Y-102825001D01*
X160894998Y-95000000D02*
X162325001Y-96430003D01*
X160500000Y-95000000D02*
X160894998Y-95000000D01*
X165000000Y-105500000D02*
X162325001Y-102825001D01*
X165000000Y-110000000D02*
X165000000Y-105500000D01*
X136110000Y-87519340D02*
X136110000Y-88580000D01*
X135766790Y-84088818D02*
X135766790Y-85453602D01*
X136110000Y-85796812D02*
X136110000Y-87519340D01*
X137800000Y-83100000D02*
X136755608Y-83100000D01*
X135766790Y-85453602D02*
X136110000Y-85796812D01*
X136755608Y-83100000D02*
X135766790Y-84088818D01*
X137900001Y-93835003D02*
X137900001Y-89329999D01*
X137900001Y-89329999D02*
X138650000Y-88580000D01*
X139424999Y-95360001D02*
X137900001Y-93835003D01*
X139424999Y-98825001D02*
X139424999Y-95360001D01*
X138800000Y-100100000D02*
X138800000Y-99450000D01*
X138800000Y-99450000D02*
X139424999Y-98825001D01*
X141190000Y-90790000D02*
X141200000Y-90800000D01*
X141190000Y-88580000D02*
X141190000Y-90790000D01*
X142900000Y-92400000D02*
X142900000Y-90800000D01*
X142900000Y-90800000D02*
X142600000Y-90500000D01*
X148550000Y-86300000D02*
X148900000Y-86300000D01*
X146270000Y-88580000D02*
X148550000Y-86300000D01*
X150600000Y-86871413D02*
X150600000Y-86150000D01*
X148891413Y-88580000D02*
X150600000Y-86871413D01*
X148810000Y-88580000D02*
X148891413Y-88580000D01*
X151250000Y-85500000D02*
X151800000Y-85500000D01*
X150600000Y-86150000D02*
X151250000Y-85500000D01*
X156700000Y-86900000D02*
X157400000Y-86900000D01*
X156424999Y-87175001D02*
X156700000Y-86900000D01*
X152754999Y-87175001D02*
X156424999Y-87175001D01*
X151350000Y-88580000D02*
X152754999Y-87175001D01*
X160500000Y-86436411D02*
X160500000Y-85650000D01*
X160500000Y-85650000D02*
X160500000Y-85000000D01*
X153890000Y-88580000D02*
X158356411Y-88580000D01*
X158356411Y-88580000D02*
X160500000Y-86436411D01*
X148830000Y-78400000D02*
X148810000Y-78420000D01*
X151800000Y-78400000D02*
X148830000Y-78400000D01*
X143730000Y-79130000D02*
X144900000Y-80300000D01*
X143730000Y-78420000D02*
X143730000Y-79130000D01*
X141190000Y-79290000D02*
X142300000Y-80400000D01*
X141190000Y-78420000D02*
X141190000Y-79290000D01*
X137900001Y-79169999D02*
X138650000Y-78420000D01*
X136100000Y-80400000D02*
X136100000Y-80200000D01*
X137130001Y-79169999D02*
X137900001Y-79169999D01*
X136100000Y-80200000D02*
X137130001Y-79169999D01*
X135730000Y-78800000D02*
X136110000Y-78420000D01*
X134300000Y-78800000D02*
X135730000Y-78800000D01*
X133150000Y-83000000D02*
X131950000Y-83000000D01*
X135135002Y-83000000D02*
X133150000Y-83000000D01*
X137025001Y-80039997D02*
X137025001Y-81110001D01*
X137439999Y-79624999D02*
X137025001Y-80039997D01*
X139174999Y-79624999D02*
X137439999Y-79624999D01*
X137025001Y-81110001D02*
X135135002Y-83000000D01*
X139950000Y-80400000D02*
X139174999Y-79624999D01*
X140100000Y-80400000D02*
X139950000Y-80400000D01*
X139500000Y-83235002D02*
X139500000Y-83000000D01*
X140639999Y-84375001D02*
X139500000Y-83235002D01*
X141960001Y-84375001D02*
X140639999Y-84375001D01*
X146950000Y-80300000D02*
X145425001Y-81824999D01*
X145425001Y-81824999D02*
X144139999Y-81824999D01*
X147100000Y-80300000D02*
X146950000Y-80300000D01*
X144139999Y-81824999D02*
X142025001Y-83939997D01*
X142025001Y-83939997D02*
X142025001Y-84310001D01*
X142025001Y-84310001D02*
X141960001Y-84375001D01*
X131900000Y-86550000D02*
X131950000Y-86500000D01*
X131900000Y-87600000D02*
X131900000Y-86550000D01*
X148900000Y-83950000D02*
X148900000Y-84100000D01*
X148050000Y-83100000D02*
X148900000Y-83950000D01*
X144800000Y-83100000D02*
X148050000Y-83100000D01*
X141150000Y-83100000D02*
X141300000Y-83100000D01*
X138450000Y-80400000D02*
X141150000Y-83100000D01*
X138300000Y-80400000D02*
X138450000Y-80400000D01*
X131324999Y-85774999D02*
X133160001Y-85774999D01*
X152100013Y-101798991D02*
X152100013Y-101700000D01*
X133884978Y-89580579D02*
X134400000Y-90095600D01*
X151248993Y-102650011D02*
X152100013Y-101798991D01*
X129500000Y-83950000D02*
X131324999Y-85774999D01*
X133160001Y-85774999D02*
X133884978Y-86499976D01*
X133884978Y-86499976D02*
X133884978Y-89580579D01*
X136514596Y-102650011D02*
X151248993Y-102650011D01*
X134400000Y-100535415D02*
X136514596Y-102650011D01*
X134400000Y-90095600D02*
X134400000Y-100535415D01*
X128950000Y-83950000D02*
X129500000Y-83950000D01*
X150705026Y-101700000D02*
X151200000Y-101700000D01*
X134900000Y-89959190D02*
X134900000Y-100399004D01*
X134334989Y-89394179D02*
X134900000Y-89959190D01*
X133346401Y-85324988D02*
X134334989Y-86313576D01*
X129500000Y-80450000D02*
X130674999Y-81624999D01*
X128950000Y-80450000D02*
X129500000Y-80450000D01*
X136700996Y-102200000D02*
X150205026Y-102200000D01*
X130674999Y-83660001D02*
X132339986Y-85324988D01*
X134900000Y-100399004D02*
X136700996Y-102200000D01*
X134334989Y-86313576D02*
X134334989Y-89394179D01*
X132339986Y-85324988D02*
X133346401Y-85324988D01*
X130674999Y-81624999D02*
X130674999Y-83660001D01*
X150205026Y-102200000D02*
X150705026Y-101700000D01*
X129500000Y-87450000D02*
X133900000Y-91850000D01*
X133900000Y-91850000D02*
X133900000Y-100671826D01*
X133900000Y-100671826D02*
X136328196Y-103100022D01*
X136328196Y-103100022D02*
X151753591Y-103100022D01*
X151753591Y-103100022D02*
X151802093Y-103051520D01*
X128950000Y-87450000D02*
X129500000Y-87450000D01*
X151802093Y-103051520D02*
X152152092Y-102701521D01*
X152998721Y-102511902D02*
X152998721Y-103006876D01*
X152998721Y-100998721D02*
X152998721Y-102511902D01*
X152324999Y-100324999D02*
X152998721Y-100998721D01*
X141039997Y-100324999D02*
X152324999Y-100324999D01*
X140150000Y-96200000D02*
X140150000Y-99435002D01*
X140150000Y-99435002D02*
X141039997Y-100324999D01*
X143850000Y-95400000D02*
X150044409Y-95400000D01*
X150044409Y-95400000D02*
X152518505Y-97874096D01*
X152518505Y-97874096D02*
X152868504Y-98224095D01*
X156900000Y-90980011D02*
X156900000Y-91474985D01*
X156900000Y-90684998D02*
X156900000Y-90980011D01*
X163500000Y-84050000D02*
X162950000Y-84050000D01*
X162300000Y-85284998D02*
X156900000Y-90684998D01*
X162300000Y-84700000D02*
X162300000Y-85284998D01*
X162950000Y-84050000D02*
X162300000Y-84700000D01*
X150274999Y-88063999D02*
X150274999Y-89096001D01*
X151788591Y-87504999D02*
X150833999Y-87504999D01*
X150274999Y-89096001D02*
X153328993Y-92149995D01*
X153328993Y-92149995D02*
X156717463Y-92149995D01*
X156717463Y-92149995D02*
X157174022Y-92606554D01*
X154800000Y-84550000D02*
X154250000Y-84550000D01*
X150833999Y-87504999D02*
X150274999Y-88063999D01*
X153600000Y-85693590D02*
X151788591Y-87504999D01*
X153600000Y-85200000D02*
X153600000Y-85693590D01*
X154250000Y-84550000D02*
X153600000Y-85200000D01*
X157174022Y-92606554D02*
X157524021Y-92956553D01*
X143272312Y-99422312D02*
X152681948Y-99422312D01*
X152681948Y-99422312D02*
X153176922Y-99422312D01*
X143000000Y-99150000D02*
X143272312Y-99422312D01*
X141800000Y-99150000D02*
X143000000Y-99150000D01*
X153924001Y-101024999D02*
X154537187Y-101024999D01*
X154908399Y-100653787D02*
X155258398Y-100303788D01*
X153575001Y-100034865D02*
X153575001Y-100675999D01*
X138750000Y-86452588D02*
X139672413Y-87375001D01*
X139672413Y-87375001D02*
X142375001Y-87375001D01*
X153851924Y-98252920D02*
X153851924Y-99757942D01*
X148474172Y-94949989D02*
X150548993Y-94949989D01*
X138750000Y-86100000D02*
X138750000Y-86452588D01*
X153575001Y-100675999D02*
X153924001Y-101024999D01*
X150548993Y-94949989D02*
X153851924Y-98252920D01*
X142375001Y-87375001D02*
X142654999Y-87654999D01*
X142654999Y-87654999D02*
X142654999Y-89130816D01*
X154537187Y-101024999D02*
X154908399Y-100653787D01*
X153851924Y-99757942D02*
X153575001Y-100034865D01*
X142654999Y-89130816D02*
X148474172Y-94949989D01*
X147125001Y-85374999D02*
X149610001Y-85374999D01*
X147734999Y-88063999D02*
X147734999Y-90834999D01*
X155199977Y-98972799D02*
X156099978Y-99872800D01*
X156099978Y-99872800D02*
X156099978Y-103391024D01*
X155199977Y-98299977D02*
X155199977Y-98972799D01*
X149330003Y-87504999D02*
X148293999Y-87504999D01*
X147734999Y-90834999D02*
X155199977Y-98299977D01*
X154777872Y-104976728D02*
X154427873Y-105326727D01*
X149610001Y-85374999D02*
X149675001Y-85439999D01*
X154777872Y-104713130D02*
X154777872Y-104976728D01*
X148293999Y-87504999D02*
X147734999Y-88063999D01*
X149675001Y-87160001D02*
X149330003Y-87504999D01*
X149675001Y-85439999D02*
X149675001Y-87160001D01*
X146400000Y-86100000D02*
X147125001Y-85374999D01*
X145750000Y-86100000D02*
X146400000Y-86100000D01*
X156099978Y-103391024D02*
X154777872Y-104713130D01*
X157250000Y-82100000D02*
X157900000Y-82100000D01*
X157900000Y-82100000D02*
X159100000Y-83300000D01*
X159100000Y-86835002D02*
X158035002Y-87900000D01*
X159100000Y-83300000D02*
X159100000Y-86835002D01*
X158035002Y-87900000D02*
X156100000Y-87900000D01*
X156549989Y-99686400D02*
X155649988Y-98786399D01*
X155349999Y-93350005D02*
X155000000Y-93000006D01*
X156549989Y-104150011D02*
X156549989Y-99686400D01*
X155500000Y-105200000D02*
X156549989Y-104150011D01*
X155649988Y-98786399D02*
X155649988Y-93649994D01*
X155649988Y-93649994D02*
X155349999Y-93350005D01*
X154625025Y-99982552D02*
X154275026Y-100332551D01*
X142250000Y-86541000D02*
X143213999Y-87504999D01*
X144246001Y-87504999D02*
X144805001Y-88063999D01*
X142250000Y-86100000D02*
X142250000Y-86541000D01*
X144805001Y-90080011D02*
X149224968Y-94499978D01*
X143213999Y-87504999D02*
X144246001Y-87504999D01*
X154625025Y-98389610D02*
X154625025Y-99982552D01*
X144805001Y-88063999D02*
X144805001Y-90080011D01*
X149224968Y-94499978D02*
X150735393Y-94499978D01*
X150735393Y-94499978D02*
X154625025Y-98389610D01*
X161969999Y-93924999D02*
X158739999Y-93924999D01*
X157350011Y-95314987D02*
X157350011Y-100725034D01*
X162500000Y-79750000D02*
X163050000Y-79750000D01*
X158739999Y-93924999D02*
X157350011Y-95314987D01*
X157350011Y-100725034D02*
X159000000Y-102375023D01*
X163050000Y-79750000D02*
X167275012Y-83975012D01*
X167275012Y-92500000D02*
X163394998Y-92500000D01*
X167275012Y-83975012D02*
X167275012Y-92500000D01*
X163394998Y-92500000D02*
X161969999Y-93924999D01*
X133600000Y-81000000D02*
X134300000Y-81000000D01*
X132800000Y-81000000D02*
X133600000Y-81000000D01*
X131950000Y-80150000D02*
X132800000Y-81000000D01*
X131950000Y-79500000D02*
X131950000Y-80150000D01*
X139000000Y-93000000D02*
X139200000Y-93200000D01*
X139000000Y-90800000D02*
X139000000Y-93000000D01*
X155350000Y-80600000D02*
X156300000Y-79650000D01*
X156300000Y-79650000D02*
X156300000Y-79100000D01*
X151800000Y-80600000D02*
X155350000Y-80600000D01*
X156524999Y-83674999D02*
X157400000Y-84550000D01*
X156714998Y-80700000D02*
X156524999Y-80889999D01*
X157400000Y-84550000D02*
X157400000Y-84700000D01*
X156524999Y-80889999D02*
X156524999Y-83674999D01*
X159500000Y-80700000D02*
X156714998Y-80700000D01*
D25*
X131500000Y-91250000D02*
X126500000Y-91250000D01*
D24*
G36*
X147856271Y-77782739D02*
X147685000Y-78196224D01*
X147685000Y-78643776D01*
X147856271Y-79057261D01*
X148172739Y-79373729D01*
X148586224Y-79545000D01*
X149033776Y-79545000D01*
X149447261Y-79373729D01*
X149763729Y-79057261D01*
X149828869Y-78900000D01*
X150967654Y-78900000D01*
X150967654Y-79000000D01*
X150996758Y-79146317D01*
X151079641Y-79270359D01*
X151203683Y-79353242D01*
X151350000Y-79382346D01*
X152250000Y-79382346D01*
X152396317Y-79353242D01*
X152520359Y-79270359D01*
X152603242Y-79146317D01*
X152632346Y-79000000D01*
X152632346Y-77800000D01*
X152603242Y-77653683D01*
X152584076Y-77625000D01*
X153094010Y-77625000D01*
X152936271Y-77782739D01*
X152765000Y-78196224D01*
X152765000Y-78643776D01*
X152936271Y-79057261D01*
X153252739Y-79373729D01*
X153666224Y-79545000D01*
X154113776Y-79545000D01*
X154527261Y-79373729D01*
X154843729Y-79057261D01*
X155015000Y-78643776D01*
X155015000Y-78196224D01*
X154843729Y-77782739D01*
X154685990Y-77625000D01*
X169575000Y-77625000D01*
X169575001Y-113875000D01*
X163025000Y-113875000D01*
X163025000Y-113855788D01*
X162914626Y-113589320D01*
X162710680Y-113385374D01*
X162444212Y-113275000D01*
X162282107Y-113275000D01*
X162182107Y-113175000D01*
X165125078Y-113175000D01*
X165299999Y-113209795D01*
X165474920Y-113175000D01*
X165613822Y-113175000D01*
X165700000Y-113192142D01*
X165786178Y-113175000D01*
X165786179Y-113175000D01*
X166041408Y-113124232D01*
X166330840Y-112930840D01*
X166379659Y-112857777D01*
X168057777Y-111179659D01*
X168130840Y-111130840D01*
X168324232Y-110841408D01*
X168375000Y-110586179D01*
X168392142Y-110500001D01*
X168375000Y-110413823D01*
X168375000Y-101413847D01*
X168324232Y-101158618D01*
X168130840Y-100869186D01*
X167841408Y-100675794D01*
X167500000Y-100607884D01*
X167158593Y-100675794D01*
X167133000Y-100692895D01*
X167133000Y-100474089D01*
X167036632Y-100241435D01*
X166858566Y-100063369D01*
X166625912Y-99967000D01*
X165287250Y-99967000D01*
X165129000Y-100125250D01*
X165129000Y-101221000D01*
X165149000Y-101221000D01*
X165149000Y-101479000D01*
X165129000Y-101479000D01*
X165129000Y-102574750D01*
X165287250Y-102733000D01*
X166625000Y-102733000D01*
X166625000Y-103413822D01*
X166625001Y-110137563D01*
X165360354Y-111402210D01*
X165349243Y-111400000D01*
X165349241Y-111400000D01*
X165300000Y-111390205D01*
X165250759Y-111400000D01*
X165075295Y-111400000D01*
X164960669Y-111285374D01*
X164694201Y-111175000D01*
X164405777Y-111175000D01*
X164139309Y-111285374D01*
X163999683Y-111425000D01*
X159750116Y-111425000D01*
X159825000Y-111244212D01*
X159825000Y-110955788D01*
X159714626Y-110689320D01*
X159510680Y-110485374D01*
X159244212Y-110375000D01*
X158955788Y-110375000D01*
X158689320Y-110485374D01*
X158485374Y-110689320D01*
X158375000Y-110955788D01*
X158375000Y-111244212D01*
X158449884Y-111425000D01*
X153925000Y-111425000D01*
X153925000Y-111255788D01*
X153814626Y-110989320D01*
X153610680Y-110785374D01*
X153344212Y-110675000D01*
X153055788Y-110675000D01*
X152789320Y-110785374D01*
X152585374Y-110989320D01*
X152475000Y-111255788D01*
X152475000Y-111425000D01*
X150600306Y-111425000D01*
X150614626Y-111410680D01*
X150725000Y-111144212D01*
X150725000Y-110855788D01*
X150614626Y-110589320D01*
X150410680Y-110385374D01*
X150144212Y-110275000D01*
X149982106Y-110275000D01*
X149968734Y-110261628D01*
X149968732Y-110261627D01*
X149913376Y-110206271D01*
X149885479Y-110164519D01*
X149720089Y-110054010D01*
X149574242Y-110024999D01*
X149574240Y-110024999D01*
X149524999Y-110015204D01*
X149475758Y-110024999D01*
X142182108Y-110024999D01*
X142482107Y-109725000D01*
X142644212Y-109725000D01*
X142910680Y-109614626D01*
X143114626Y-109410680D01*
X143225000Y-109144212D01*
X143225000Y-108855788D01*
X143114626Y-108589320D01*
X142910680Y-108385374D01*
X142644212Y-108275000D01*
X142355788Y-108275000D01*
X142089320Y-108385374D01*
X141885374Y-108589320D01*
X141775000Y-108855788D01*
X141775000Y-109017893D01*
X139367894Y-111425000D01*
X128786179Y-111425000D01*
X128700000Y-111407858D01*
X128613821Y-111425000D01*
X128358592Y-111475768D01*
X128135250Y-111625000D01*
X122215990Y-111625000D01*
X122137261Y-111546271D01*
X121723776Y-111375000D01*
X121276224Y-111375000D01*
X120862739Y-111546271D01*
X120546271Y-111862739D01*
X120425000Y-112155513D01*
X120425000Y-108352733D01*
X122829701Y-108352733D01*
X122928647Y-108618782D01*
X123537920Y-108844236D01*
X124187091Y-108819369D01*
X124671353Y-108618782D01*
X124770299Y-108352733D01*
X123800000Y-107382434D01*
X122829701Y-108352733D01*
X120425000Y-108352733D01*
X120425000Y-106937920D01*
X122155764Y-106937920D01*
X122180631Y-107587091D01*
X122381218Y-108071353D01*
X122647267Y-108170299D01*
X123617566Y-107200000D01*
X123982434Y-107200000D01*
X124952733Y-108170299D01*
X125218782Y-108071353D01*
X125444236Y-107462080D01*
X125419369Y-106812909D01*
X125218782Y-106328647D01*
X124952733Y-106229701D01*
X123982434Y-107200000D01*
X123617566Y-107200000D01*
X122647267Y-106229701D01*
X122381218Y-106328647D01*
X122155764Y-106937920D01*
X120425000Y-106937920D01*
X120425000Y-106047267D01*
X122829701Y-106047267D01*
X123800000Y-107017566D01*
X124617566Y-106200000D01*
X132417654Y-106200000D01*
X132417654Y-108200000D01*
X132446758Y-108346317D01*
X132529641Y-108470359D01*
X132653683Y-108553242D01*
X132800000Y-108582346D01*
X134800000Y-108582346D01*
X134946317Y-108553242D01*
X135070359Y-108470359D01*
X135153242Y-108346317D01*
X135182346Y-108200000D01*
X135182346Y-106200000D01*
X135153242Y-106053683D01*
X135070359Y-105929641D01*
X134946317Y-105846758D01*
X134800000Y-105817654D01*
X132800000Y-105817654D01*
X132653683Y-105846758D01*
X132529641Y-105929641D01*
X132446758Y-106053683D01*
X132417654Y-106200000D01*
X124617566Y-106200000D01*
X124770299Y-106047267D01*
X124671353Y-105781218D01*
X124062080Y-105555764D01*
X123412909Y-105580631D01*
X122928647Y-105781218D01*
X122829701Y-106047267D01*
X120425000Y-106047267D01*
X120425000Y-102971693D01*
X120710741Y-102971693D01*
X120779006Y-103211831D01*
X121297635Y-103395499D01*
X121847073Y-103366714D01*
X122220994Y-103211831D01*
X122289259Y-102971693D01*
X121500000Y-102182434D01*
X120710741Y-102971693D01*
X120425000Y-102971693D01*
X120425000Y-102759892D01*
X120528307Y-102789259D01*
X121317566Y-102000000D01*
X121682434Y-102000000D01*
X122471693Y-102789259D01*
X122711831Y-102720994D01*
X122895499Y-102202365D01*
X122866714Y-101652927D01*
X122711831Y-101279006D01*
X122471693Y-101210741D01*
X121682434Y-102000000D01*
X121317566Y-102000000D01*
X120528307Y-101210741D01*
X120425000Y-101240108D01*
X120425000Y-100625000D01*
X121311087Y-100625000D01*
X121152927Y-100633286D01*
X120779006Y-100788169D01*
X120710741Y-101028307D01*
X121500000Y-101817566D01*
X122289259Y-101028307D01*
X122220994Y-100788169D01*
X121760249Y-100625000D01*
X133399520Y-100625000D01*
X133390205Y-100671826D01*
X133416424Y-100803632D01*
X133429012Y-100866916D01*
X133539521Y-101032306D01*
X133581268Y-101060201D01*
X135939821Y-103418754D01*
X135967716Y-103460502D01*
X136133106Y-103571011D01*
X136209039Y-103586115D01*
X136328196Y-103609817D01*
X136377439Y-103600022D01*
X139592871Y-103600022D01*
X137017894Y-106175000D01*
X136855788Y-106175000D01*
X136589320Y-106285374D01*
X136385374Y-106489320D01*
X136275000Y-106755788D01*
X136275000Y-107044212D01*
X136385374Y-107310680D01*
X136589320Y-107514626D01*
X136855788Y-107625000D01*
X137144212Y-107625000D01*
X137410680Y-107514626D01*
X137614626Y-107310680D01*
X137725000Y-107044212D01*
X137725000Y-106882106D01*
X140332108Y-104274999D01*
X153324484Y-104274999D01*
X153373725Y-104284794D01*
X153422966Y-104274999D01*
X153422968Y-104274999D01*
X153568815Y-104245988D01*
X153734205Y-104135479D01*
X153762101Y-104093729D01*
X154330839Y-103524992D01*
X154492944Y-103524992D01*
X154759412Y-103414618D01*
X154963358Y-103210672D01*
X155073732Y-102944204D01*
X155073732Y-102655780D01*
X154963358Y-102389312D01*
X154759412Y-102185366D01*
X154492944Y-102074992D01*
X154204520Y-102074992D01*
X153938052Y-102185366D01*
X153734106Y-102389312D01*
X153630880Y-102638524D01*
X153613347Y-102596196D01*
X153498721Y-102481570D01*
X153498721Y-101306826D01*
X153535626Y-101343731D01*
X153563521Y-101385479D01*
X153728910Y-101495987D01*
X153728911Y-101495988D01*
X153924001Y-101534795D01*
X153973247Y-101524999D01*
X154487946Y-101524999D01*
X154537187Y-101534794D01*
X154586428Y-101524999D01*
X154586430Y-101524999D01*
X154732277Y-101495988D01*
X154897667Y-101385479D01*
X154925563Y-101343729D01*
X155240505Y-101028788D01*
X155402610Y-101028788D01*
X155599978Y-100947036D01*
X155599979Y-103183916D01*
X154459142Y-104324754D01*
X154417392Y-104352650D01*
X154306883Y-104518041D01*
X154290237Y-104601727D01*
X154283661Y-104601727D01*
X154017193Y-104712101D01*
X153813247Y-104916047D01*
X153702873Y-105182515D01*
X153702873Y-105470939D01*
X153813247Y-105737407D01*
X154017193Y-105941353D01*
X154283661Y-106051727D01*
X154572085Y-106051727D01*
X154838553Y-105941353D01*
X155027300Y-105752606D01*
X155089320Y-105814626D01*
X155355788Y-105925000D01*
X155644212Y-105925000D01*
X155910680Y-105814626D01*
X156114626Y-105610680D01*
X156225000Y-105344212D01*
X156225000Y-105182106D01*
X156868722Y-104538385D01*
X156910469Y-104510491D01*
X157020978Y-104345101D01*
X157049989Y-104199254D01*
X157049989Y-104199253D01*
X157059784Y-104150011D01*
X157049989Y-104100768D01*
X157049989Y-101132118D01*
X158275000Y-102357130D01*
X158275000Y-102519235D01*
X158385374Y-102785703D01*
X158589320Y-102989649D01*
X158855788Y-103100023D01*
X159144212Y-103100023D01*
X159410680Y-102989649D01*
X159614626Y-102785703D01*
X159725000Y-102519235D01*
X159725000Y-102230811D01*
X159614626Y-101964343D01*
X159410680Y-101760397D01*
X159144212Y-101650023D01*
X158982107Y-101650023D01*
X158739219Y-101407135D01*
X158874088Y-101463000D01*
X160212750Y-101463000D01*
X160371000Y-101304750D01*
X160371000Y-100209000D01*
X158525250Y-100209000D01*
X158367000Y-100367250D01*
X158367000Y-100955911D01*
X158422865Y-101090781D01*
X157850011Y-100517928D01*
X157850011Y-99670949D01*
X157880809Y-99683706D01*
X158169233Y-99683706D01*
X158367000Y-99601789D01*
X158367000Y-99792750D01*
X158525250Y-99951000D01*
X160371000Y-99951000D01*
X160371000Y-98855250D01*
X160212750Y-98697000D01*
X159300106Y-98697000D01*
X159324760Y-98672346D01*
X161825001Y-98672346D01*
X161825001Y-98697000D01*
X160787250Y-98697000D01*
X160629000Y-98855250D01*
X160629000Y-99951000D01*
X160649000Y-99951000D01*
X160649000Y-100209000D01*
X160629000Y-100209000D01*
X160629000Y-101304750D01*
X160787250Y-101463000D01*
X161825002Y-101463000D01*
X161825002Y-102775755D01*
X161815206Y-102825001D01*
X161850544Y-103002651D01*
X161854013Y-103020091D01*
X161964522Y-103185481D01*
X162006269Y-103213376D01*
X164176115Y-105383222D01*
X163974996Y-105383222D01*
X163708528Y-105493596D01*
X163504582Y-105697542D01*
X163394208Y-105964010D01*
X163394208Y-106100000D01*
X161637437Y-106100000D01*
X161741789Y-105995648D01*
X161875000Y-105674048D01*
X161875000Y-105325952D01*
X161741789Y-105004352D01*
X161495648Y-104758211D01*
X161174048Y-104625000D01*
X160825952Y-104625000D01*
X160504352Y-104758211D01*
X160258211Y-105004352D01*
X160125000Y-105325952D01*
X160125000Y-105674048D01*
X160258211Y-105995648D01*
X160418629Y-106156066D01*
X160385374Y-106189320D01*
X160275000Y-106455788D01*
X160275000Y-106744212D01*
X160385374Y-107010680D01*
X160589320Y-107214626D01*
X160855788Y-107325000D01*
X161144212Y-107325000D01*
X161410680Y-107214626D01*
X161525306Y-107100000D01*
X163578189Y-107100000D01*
X163627430Y-107109795D01*
X163676671Y-107100000D01*
X163676673Y-107100000D01*
X163822520Y-107070989D01*
X163987910Y-106960480D01*
X164015807Y-106918729D01*
X164101314Y-106833222D01*
X164263420Y-106833222D01*
X164500001Y-106735228D01*
X164500000Y-109474694D01*
X164385374Y-109589320D01*
X164275000Y-109855788D01*
X164275000Y-110144212D01*
X164385374Y-110410680D01*
X164589320Y-110614626D01*
X164855788Y-110725000D01*
X165144212Y-110725000D01*
X165410680Y-110614626D01*
X165614626Y-110410680D01*
X165725000Y-110144212D01*
X165725000Y-109855788D01*
X165614626Y-109589320D01*
X165500000Y-109474694D01*
X165500000Y-105549243D01*
X165509795Y-105500000D01*
X165470989Y-105304910D01*
X165389208Y-105182515D01*
X165360480Y-105139520D01*
X165318732Y-105111625D01*
X162825001Y-102617895D01*
X162825001Y-101637250D01*
X162867000Y-101637250D01*
X162867000Y-102225911D01*
X162963368Y-102458565D01*
X163141434Y-102636631D01*
X163374088Y-102733000D01*
X164712750Y-102733000D01*
X164871000Y-102574750D01*
X164871000Y-101479000D01*
X163025250Y-101479000D01*
X162867000Y-101637250D01*
X162825001Y-101637250D01*
X162825001Y-100844312D01*
X162867000Y-100861709D01*
X162867000Y-101062750D01*
X163025250Y-101221000D01*
X164871000Y-101221000D01*
X164871000Y-100125250D01*
X164712750Y-99967000D01*
X163800106Y-99967000D01*
X163824760Y-99942346D01*
X166500000Y-99942346D01*
X166646317Y-99913242D01*
X166770359Y-99830359D01*
X166853242Y-99706317D01*
X166882346Y-99560000D01*
X166882346Y-98060000D01*
X166853242Y-97913683D01*
X166770359Y-97789641D01*
X166646317Y-97706758D01*
X166500000Y-97677654D01*
X163500000Y-97677654D01*
X163353683Y-97706758D01*
X163229641Y-97789641D01*
X163146758Y-97913683D01*
X163117654Y-98060000D01*
X163117654Y-99235240D01*
X162886953Y-99465941D01*
X162825001Y-99491602D01*
X162825001Y-96479246D01*
X162834796Y-96430003D01*
X162795990Y-96234913D01*
X162739759Y-96150757D01*
X162685481Y-96069523D01*
X162643734Y-96041629D01*
X162377329Y-95775224D01*
X162382346Y-95750000D01*
X162382346Y-95520000D01*
X163117654Y-95520000D01*
X163117654Y-97020000D01*
X163146758Y-97166317D01*
X163229641Y-97290359D01*
X163353683Y-97373242D01*
X163500000Y-97402346D01*
X166500000Y-97402346D01*
X166646317Y-97373242D01*
X166770359Y-97290359D01*
X166853242Y-97166317D01*
X166882346Y-97020000D01*
X166882346Y-95520000D01*
X166853242Y-95373683D01*
X166770359Y-95249641D01*
X166646317Y-95166758D01*
X166500000Y-95137654D01*
X163500000Y-95137654D01*
X163353683Y-95166758D01*
X163229641Y-95249641D01*
X163146758Y-95373683D01*
X163117654Y-95520000D01*
X162382346Y-95520000D01*
X162382346Y-94250000D01*
X162377329Y-94224775D01*
X162450010Y-94152094D01*
X162450010Y-94249083D01*
X162560384Y-94515551D01*
X162764330Y-94719497D01*
X163030798Y-94829871D01*
X163319222Y-94829871D01*
X163337381Y-94822349D01*
X163353683Y-94833242D01*
X163500000Y-94862346D01*
X166500000Y-94862346D01*
X166646317Y-94833242D01*
X166770359Y-94750359D01*
X166853242Y-94626317D01*
X166882346Y-94480000D01*
X166882346Y-93000000D01*
X167225770Y-93000000D01*
X167275012Y-93009795D01*
X167470102Y-92970989D01*
X167635492Y-92860480D01*
X167746001Y-92695090D01*
X167775012Y-92549243D01*
X167784807Y-92500000D01*
X167775012Y-92450757D01*
X167775012Y-84024252D01*
X167784807Y-83975011D01*
X167770684Y-83904012D01*
X167746001Y-83779922D01*
X167635492Y-83614532D01*
X167593745Y-83586638D01*
X163832346Y-79825240D01*
X163832346Y-79350000D01*
X163803242Y-79203683D01*
X163720359Y-79079641D01*
X163596317Y-78996758D01*
X163450000Y-78967654D01*
X161550000Y-78967654D01*
X161403683Y-78996758D01*
X161279641Y-79079641D01*
X161196758Y-79203683D01*
X161167654Y-79350000D01*
X161167654Y-80150000D01*
X161196758Y-80296317D01*
X161279641Y-80420359D01*
X161403683Y-80503242D01*
X161550000Y-80532346D01*
X163125240Y-80532346D01*
X163209894Y-80617000D01*
X162787250Y-80617000D01*
X162629000Y-80775250D01*
X162629000Y-81521000D01*
X163924750Y-81521000D01*
X164019322Y-81426428D01*
X166775012Y-84182119D01*
X166775013Y-90176606D01*
X166770359Y-90169641D01*
X166646317Y-90086758D01*
X166500000Y-90057654D01*
X165625000Y-90057654D01*
X165625000Y-87908875D01*
X165983160Y-87550716D01*
X166016948Y-87516928D01*
X166258372Y-87416927D01*
X166462318Y-87212981D01*
X166572692Y-86946513D01*
X166572692Y-86658089D01*
X166462318Y-86391621D01*
X166258371Y-86187674D01*
X166016947Y-86087673D01*
X165983160Y-86053886D01*
X165480863Y-85551590D01*
X165445991Y-85499400D01*
X165239254Y-85361263D01*
X165056946Y-85325000D01*
X164995391Y-85312756D01*
X164933836Y-85325000D01*
X164750667Y-85325000D01*
X164720359Y-85279641D01*
X164596317Y-85196758D01*
X164450000Y-85167654D01*
X162800000Y-85167654D01*
X162800000Y-84907106D01*
X162874760Y-84832346D01*
X164450000Y-84832346D01*
X164596317Y-84803242D01*
X164720359Y-84720359D01*
X164803242Y-84596317D01*
X164832346Y-84450000D01*
X164832346Y-83650000D01*
X164803242Y-83503683D01*
X164720359Y-83379641D01*
X164596317Y-83296758D01*
X164450000Y-83267654D01*
X162550000Y-83267654D01*
X162403683Y-83296758D01*
X162279641Y-83379641D01*
X162196758Y-83503683D01*
X162167654Y-83650000D01*
X162167654Y-84125240D01*
X161981270Y-84311624D01*
X161939520Y-84339520D01*
X161829011Y-84504911D01*
X161821221Y-84544072D01*
X161803242Y-84453683D01*
X161720359Y-84329641D01*
X161596317Y-84246758D01*
X161450000Y-84217654D01*
X159600000Y-84217654D01*
X159600000Y-83349240D01*
X159609795Y-83299999D01*
X159596866Y-83235002D01*
X159570989Y-83104910D01*
X159460480Y-82939520D01*
X159418733Y-82911626D01*
X158444357Y-81937250D01*
X160917000Y-81937250D01*
X160917000Y-82175912D01*
X161013369Y-82408566D01*
X161191435Y-82586632D01*
X161424089Y-82683000D01*
X162212750Y-82683000D01*
X162371000Y-82524750D01*
X162371000Y-81779000D01*
X162629000Y-81779000D01*
X162629000Y-82524750D01*
X162787250Y-82683000D01*
X163575911Y-82683000D01*
X163808565Y-82586632D01*
X163986631Y-82408566D01*
X164083000Y-82175912D01*
X164083000Y-81937250D01*
X163924750Y-81779000D01*
X162629000Y-81779000D01*
X162371000Y-81779000D01*
X161075250Y-81779000D01*
X160917000Y-81937250D01*
X158444357Y-81937250D01*
X158288376Y-81781270D01*
X158260480Y-81739520D01*
X158095090Y-81629011D01*
X158032346Y-81616530D01*
X158032346Y-81200000D01*
X158187545Y-81200000D01*
X158196758Y-81246317D01*
X158279641Y-81370359D01*
X158403683Y-81453242D01*
X158550000Y-81482346D01*
X160450000Y-81482346D01*
X160596317Y-81453242D01*
X160720359Y-81370359D01*
X160803242Y-81246317D01*
X160827554Y-81124088D01*
X160917000Y-81124088D01*
X160917000Y-81362750D01*
X161075250Y-81521000D01*
X162371000Y-81521000D01*
X162371000Y-80775250D01*
X162212750Y-80617000D01*
X161424089Y-80617000D01*
X161191435Y-80713368D01*
X161013369Y-80891434D01*
X160917000Y-81124088D01*
X160827554Y-81124088D01*
X160832346Y-81100000D01*
X160832346Y-80300000D01*
X160803242Y-80153683D01*
X160720359Y-80029641D01*
X160596317Y-79946758D01*
X160450000Y-79917654D01*
X158550000Y-79917654D01*
X158403683Y-79946758D01*
X158279641Y-80029641D01*
X158196758Y-80153683D01*
X158187545Y-80200000D01*
X157050781Y-80200000D01*
X157053242Y-80196317D01*
X157082346Y-80050000D01*
X157082346Y-78150000D01*
X157053242Y-78003683D01*
X156970359Y-77879641D01*
X156846317Y-77796758D01*
X156700000Y-77767654D01*
X155900000Y-77767654D01*
X155753683Y-77796758D01*
X155629641Y-77879641D01*
X155546758Y-78003683D01*
X155517654Y-78150000D01*
X155517654Y-79725239D01*
X155142894Y-80100000D01*
X152632346Y-80100000D01*
X152632346Y-80000000D01*
X152603242Y-79853683D01*
X152520359Y-79729641D01*
X152396317Y-79646758D01*
X152250000Y-79617654D01*
X151350000Y-79617654D01*
X151203683Y-79646758D01*
X151079641Y-79729641D01*
X150996758Y-79853683D01*
X150967654Y-80000000D01*
X150967654Y-81200000D01*
X150996758Y-81346317D01*
X151079641Y-81470359D01*
X151203683Y-81553242D01*
X151350000Y-81582346D01*
X152250000Y-81582346D01*
X152396317Y-81553242D01*
X152520359Y-81470359D01*
X152603242Y-81346317D01*
X152632346Y-81200000D01*
X152632346Y-81100000D01*
X154317000Y-81100000D01*
X154317000Y-81812750D01*
X154475250Y-81971000D01*
X155221000Y-81971000D01*
X155221000Y-81951000D01*
X155479000Y-81951000D01*
X155479000Y-81971000D01*
X155499000Y-81971000D01*
X155499000Y-82229000D01*
X155479000Y-82229000D01*
X155479000Y-83524750D01*
X155637250Y-83683000D01*
X155875912Y-83683000D01*
X156025000Y-83621245D01*
X156025000Y-83625753D01*
X156015204Y-83674999D01*
X156045965Y-83829641D01*
X156054011Y-83870089D01*
X156164520Y-84035479D01*
X156206267Y-84063373D01*
X156567654Y-84424760D01*
X156567654Y-85300000D01*
X156572542Y-85324575D01*
X156431238Y-85352682D01*
X156374257Y-85390756D01*
X156265849Y-85463191D01*
X156237954Y-85504939D01*
X155986126Y-85756767D01*
X155896317Y-85696758D01*
X155750000Y-85667654D01*
X154104636Y-85667654D01*
X154100000Y-85644350D01*
X154100000Y-85407106D01*
X154174760Y-85332346D01*
X155750000Y-85332346D01*
X155896317Y-85303242D01*
X156020359Y-85220359D01*
X156103242Y-85096317D01*
X156132346Y-84950000D01*
X156132346Y-84150000D01*
X156103242Y-84003683D01*
X156020359Y-83879641D01*
X155896317Y-83796758D01*
X155750000Y-83767654D01*
X153850000Y-83767654D01*
X153703683Y-83796758D01*
X153579641Y-83879641D01*
X153496758Y-84003683D01*
X153467654Y-84150000D01*
X153467654Y-84625240D01*
X153281270Y-84811624D01*
X153239520Y-84839520D01*
X153129011Y-85004911D01*
X153121221Y-85044072D01*
X153103242Y-84953683D01*
X153020359Y-84829641D01*
X152896317Y-84746758D01*
X152750000Y-84717654D01*
X150850000Y-84717654D01*
X150703683Y-84746758D01*
X150579641Y-84829641D01*
X150496758Y-84953683D01*
X150467654Y-85100000D01*
X150467654Y-85575240D01*
X150281268Y-85761626D01*
X150239521Y-85789520D01*
X150175001Y-85886082D01*
X150175001Y-85489242D01*
X150184796Y-85439999D01*
X150169134Y-85361263D01*
X150145990Y-85244909D01*
X150035481Y-85079519D01*
X149996516Y-85053484D01*
X149970481Y-85014519D01*
X149805091Y-84904010D01*
X149681164Y-84879359D01*
X149703242Y-84846317D01*
X149732346Y-84700000D01*
X149732346Y-83500000D01*
X149703242Y-83353683D01*
X149620359Y-83229641D01*
X149496317Y-83146758D01*
X149350000Y-83117654D01*
X148774760Y-83117654D01*
X148438377Y-82781271D01*
X148410480Y-82739520D01*
X148245090Y-82629011D01*
X148099243Y-82600000D01*
X148099241Y-82600000D01*
X148050000Y-82590205D01*
X148000759Y-82600000D01*
X145582346Y-82600000D01*
X145582346Y-82387250D01*
X154317000Y-82387250D01*
X154317000Y-83175911D01*
X154413368Y-83408565D01*
X154591434Y-83586631D01*
X154824088Y-83683000D01*
X155062750Y-83683000D01*
X155221000Y-83524750D01*
X155221000Y-82229000D01*
X154475250Y-82229000D01*
X154317000Y-82387250D01*
X145582346Y-82387250D01*
X145582346Y-82303496D01*
X145620091Y-82295988D01*
X145785481Y-82185479D01*
X145813377Y-82143729D01*
X146824761Y-81132346D01*
X147700000Y-81132346D01*
X147846317Y-81103242D01*
X147970359Y-81020359D01*
X148053242Y-80896317D01*
X148082346Y-80750000D01*
X148082346Y-79850000D01*
X148053242Y-79703683D01*
X147970359Y-79579641D01*
X147846317Y-79496758D01*
X147700000Y-79467654D01*
X146500000Y-79467654D01*
X146353683Y-79496758D01*
X146229641Y-79579641D01*
X146146758Y-79703683D01*
X146117654Y-79850000D01*
X146117654Y-80425239D01*
X145882346Y-80660547D01*
X145882346Y-79850000D01*
X145853242Y-79703683D01*
X145770359Y-79579641D01*
X145646317Y-79496758D01*
X145500000Y-79467654D01*
X144774761Y-79467654D01*
X144524048Y-79216942D01*
X144683729Y-79057261D01*
X144855000Y-78643776D01*
X144855000Y-78196224D01*
X144683729Y-77782739D01*
X144525990Y-77625000D01*
X148014010Y-77625000D01*
X147856271Y-77782739D01*
X147856271Y-77782739D01*
G37*
X147856271Y-77782739D02*
X147685000Y-78196224D01*
X147685000Y-78643776D01*
X147856271Y-79057261D01*
X148172739Y-79373729D01*
X148586224Y-79545000D01*
X149033776Y-79545000D01*
X149447261Y-79373729D01*
X149763729Y-79057261D01*
X149828869Y-78900000D01*
X150967654Y-78900000D01*
X150967654Y-79000000D01*
X150996758Y-79146317D01*
X151079641Y-79270359D01*
X151203683Y-79353242D01*
X151350000Y-79382346D01*
X152250000Y-79382346D01*
X152396317Y-79353242D01*
X152520359Y-79270359D01*
X152603242Y-79146317D01*
X152632346Y-79000000D01*
X152632346Y-77800000D01*
X152603242Y-77653683D01*
X152584076Y-77625000D01*
X153094010Y-77625000D01*
X152936271Y-77782739D01*
X152765000Y-78196224D01*
X152765000Y-78643776D01*
X152936271Y-79057261D01*
X153252739Y-79373729D01*
X153666224Y-79545000D01*
X154113776Y-79545000D01*
X154527261Y-79373729D01*
X154843729Y-79057261D01*
X155015000Y-78643776D01*
X155015000Y-78196224D01*
X154843729Y-77782739D01*
X154685990Y-77625000D01*
X169575000Y-77625000D01*
X169575001Y-113875000D01*
X163025000Y-113875000D01*
X163025000Y-113855788D01*
X162914626Y-113589320D01*
X162710680Y-113385374D01*
X162444212Y-113275000D01*
X162282107Y-113275000D01*
X162182107Y-113175000D01*
X165125078Y-113175000D01*
X165299999Y-113209795D01*
X165474920Y-113175000D01*
X165613822Y-113175000D01*
X165700000Y-113192142D01*
X165786178Y-113175000D01*
X165786179Y-113175000D01*
X166041408Y-113124232D01*
X166330840Y-112930840D01*
X166379659Y-112857777D01*
X168057777Y-111179659D01*
X168130840Y-111130840D01*
X168324232Y-110841408D01*
X168375000Y-110586179D01*
X168392142Y-110500001D01*
X168375000Y-110413823D01*
X168375000Y-101413847D01*
X168324232Y-101158618D01*
X168130840Y-100869186D01*
X167841408Y-100675794D01*
X167500000Y-100607884D01*
X167158593Y-100675794D01*
X167133000Y-100692895D01*
X167133000Y-100474089D01*
X167036632Y-100241435D01*
X166858566Y-100063369D01*
X166625912Y-99967000D01*
X165287250Y-99967000D01*
X165129000Y-100125250D01*
X165129000Y-101221000D01*
X165149000Y-101221000D01*
X165149000Y-101479000D01*
X165129000Y-101479000D01*
X165129000Y-102574750D01*
X165287250Y-102733000D01*
X166625000Y-102733000D01*
X166625000Y-103413822D01*
X166625001Y-110137563D01*
X165360354Y-111402210D01*
X165349243Y-111400000D01*
X165349241Y-111400000D01*
X165300000Y-111390205D01*
X165250759Y-111400000D01*
X165075295Y-111400000D01*
X164960669Y-111285374D01*
X164694201Y-111175000D01*
X164405777Y-111175000D01*
X164139309Y-111285374D01*
X163999683Y-111425000D01*
X159750116Y-111425000D01*
X159825000Y-111244212D01*
X159825000Y-110955788D01*
X159714626Y-110689320D01*
X159510680Y-110485374D01*
X159244212Y-110375000D01*
X158955788Y-110375000D01*
X158689320Y-110485374D01*
X158485374Y-110689320D01*
X158375000Y-110955788D01*
X158375000Y-111244212D01*
X158449884Y-111425000D01*
X153925000Y-111425000D01*
X153925000Y-111255788D01*
X153814626Y-110989320D01*
X153610680Y-110785374D01*
X153344212Y-110675000D01*
X153055788Y-110675000D01*
X152789320Y-110785374D01*
X152585374Y-110989320D01*
X152475000Y-111255788D01*
X152475000Y-111425000D01*
X150600306Y-111425000D01*
X150614626Y-111410680D01*
X150725000Y-111144212D01*
X150725000Y-110855788D01*
X150614626Y-110589320D01*
X150410680Y-110385374D01*
X150144212Y-110275000D01*
X149982106Y-110275000D01*
X149968734Y-110261628D01*
X149968732Y-110261627D01*
X149913376Y-110206271D01*
X149885479Y-110164519D01*
X149720089Y-110054010D01*
X149574242Y-110024999D01*
X149574240Y-110024999D01*
X149524999Y-110015204D01*
X149475758Y-110024999D01*
X142182108Y-110024999D01*
X142482107Y-109725000D01*
X142644212Y-109725000D01*
X142910680Y-109614626D01*
X143114626Y-109410680D01*
X143225000Y-109144212D01*
X143225000Y-108855788D01*
X143114626Y-108589320D01*
X142910680Y-108385374D01*
X142644212Y-108275000D01*
X142355788Y-108275000D01*
X142089320Y-108385374D01*
X141885374Y-108589320D01*
X141775000Y-108855788D01*
X141775000Y-109017893D01*
X139367894Y-111425000D01*
X128786179Y-111425000D01*
X128700000Y-111407858D01*
X128613821Y-111425000D01*
X128358592Y-111475768D01*
X128135250Y-111625000D01*
X122215990Y-111625000D01*
X122137261Y-111546271D01*
X121723776Y-111375000D01*
X121276224Y-111375000D01*
X120862739Y-111546271D01*
X120546271Y-111862739D01*
X120425000Y-112155513D01*
X120425000Y-108352733D01*
X122829701Y-108352733D01*
X122928647Y-108618782D01*
X123537920Y-108844236D01*
X124187091Y-108819369D01*
X124671353Y-108618782D01*
X124770299Y-108352733D01*
X123800000Y-107382434D01*
X122829701Y-108352733D01*
X120425000Y-108352733D01*
X120425000Y-106937920D01*
X122155764Y-106937920D01*
X122180631Y-107587091D01*
X122381218Y-108071353D01*
X122647267Y-108170299D01*
X123617566Y-107200000D01*
X123982434Y-107200000D01*
X124952733Y-108170299D01*
X125218782Y-108071353D01*
X125444236Y-107462080D01*
X125419369Y-106812909D01*
X125218782Y-106328647D01*
X124952733Y-106229701D01*
X123982434Y-107200000D01*
X123617566Y-107200000D01*
X122647267Y-106229701D01*
X122381218Y-106328647D01*
X122155764Y-106937920D01*
X120425000Y-106937920D01*
X120425000Y-106047267D01*
X122829701Y-106047267D01*
X123800000Y-107017566D01*
X124617566Y-106200000D01*
X132417654Y-106200000D01*
X132417654Y-108200000D01*
X132446758Y-108346317D01*
X132529641Y-108470359D01*
X132653683Y-108553242D01*
X132800000Y-108582346D01*
X134800000Y-108582346D01*
X134946317Y-108553242D01*
X135070359Y-108470359D01*
X135153242Y-108346317D01*
X135182346Y-108200000D01*
X135182346Y-106200000D01*
X135153242Y-106053683D01*
X135070359Y-105929641D01*
X134946317Y-105846758D01*
X134800000Y-105817654D01*
X132800000Y-105817654D01*
X132653683Y-105846758D01*
X132529641Y-105929641D01*
X132446758Y-106053683D01*
X132417654Y-106200000D01*
X124617566Y-106200000D01*
X124770299Y-106047267D01*
X124671353Y-105781218D01*
X124062080Y-105555764D01*
X123412909Y-105580631D01*
X122928647Y-105781218D01*
X122829701Y-106047267D01*
X120425000Y-106047267D01*
X120425000Y-102971693D01*
X120710741Y-102971693D01*
X120779006Y-103211831D01*
X121297635Y-103395499D01*
X121847073Y-103366714D01*
X122220994Y-103211831D01*
X122289259Y-102971693D01*
X121500000Y-102182434D01*
X120710741Y-102971693D01*
X120425000Y-102971693D01*
X120425000Y-102759892D01*
X120528307Y-102789259D01*
X121317566Y-102000000D01*
X121682434Y-102000000D01*
X122471693Y-102789259D01*
X122711831Y-102720994D01*
X122895499Y-102202365D01*
X122866714Y-101652927D01*
X122711831Y-101279006D01*
X122471693Y-101210741D01*
X121682434Y-102000000D01*
X121317566Y-102000000D01*
X120528307Y-101210741D01*
X120425000Y-101240108D01*
X120425000Y-100625000D01*
X121311087Y-100625000D01*
X121152927Y-100633286D01*
X120779006Y-100788169D01*
X120710741Y-101028307D01*
X121500000Y-101817566D01*
X122289259Y-101028307D01*
X122220994Y-100788169D01*
X121760249Y-100625000D01*
X133399520Y-100625000D01*
X133390205Y-100671826D01*
X133416424Y-100803632D01*
X133429012Y-100866916D01*
X133539521Y-101032306D01*
X133581268Y-101060201D01*
X135939821Y-103418754D01*
X135967716Y-103460502D01*
X136133106Y-103571011D01*
X136209039Y-103586115D01*
X136328196Y-103609817D01*
X136377439Y-103600022D01*
X139592871Y-103600022D01*
X137017894Y-106175000D01*
X136855788Y-106175000D01*
X136589320Y-106285374D01*
X136385374Y-106489320D01*
X136275000Y-106755788D01*
X136275000Y-107044212D01*
X136385374Y-107310680D01*
X136589320Y-107514626D01*
X136855788Y-107625000D01*
X137144212Y-107625000D01*
X137410680Y-107514626D01*
X137614626Y-107310680D01*
X137725000Y-107044212D01*
X137725000Y-106882106D01*
X140332108Y-104274999D01*
X153324484Y-104274999D01*
X153373725Y-104284794D01*
X153422966Y-104274999D01*
X153422968Y-104274999D01*
X153568815Y-104245988D01*
X153734205Y-104135479D01*
X153762101Y-104093729D01*
X154330839Y-103524992D01*
X154492944Y-103524992D01*
X154759412Y-103414618D01*
X154963358Y-103210672D01*
X155073732Y-102944204D01*
X155073732Y-102655780D01*
X154963358Y-102389312D01*
X154759412Y-102185366D01*
X154492944Y-102074992D01*
X154204520Y-102074992D01*
X153938052Y-102185366D01*
X153734106Y-102389312D01*
X153630880Y-102638524D01*
X153613347Y-102596196D01*
X153498721Y-102481570D01*
X153498721Y-101306826D01*
X153535626Y-101343731D01*
X153563521Y-101385479D01*
X153728910Y-101495987D01*
X153728911Y-101495988D01*
X153924001Y-101534795D01*
X153973247Y-101524999D01*
X154487946Y-101524999D01*
X154537187Y-101534794D01*
X154586428Y-101524999D01*
X154586430Y-101524999D01*
X154732277Y-101495988D01*
X154897667Y-101385479D01*
X154925563Y-101343729D01*
X155240505Y-101028788D01*
X155402610Y-101028788D01*
X155599978Y-100947036D01*
X155599979Y-103183916D01*
X154459142Y-104324754D01*
X154417392Y-104352650D01*
X154306883Y-104518041D01*
X154290237Y-104601727D01*
X154283661Y-104601727D01*
X154017193Y-104712101D01*
X153813247Y-104916047D01*
X153702873Y-105182515D01*
X153702873Y-105470939D01*
X153813247Y-105737407D01*
X154017193Y-105941353D01*
X154283661Y-106051727D01*
X154572085Y-106051727D01*
X154838553Y-105941353D01*
X155027300Y-105752606D01*
X155089320Y-105814626D01*
X155355788Y-105925000D01*
X155644212Y-105925000D01*
X155910680Y-105814626D01*
X156114626Y-105610680D01*
X156225000Y-105344212D01*
X156225000Y-105182106D01*
X156868722Y-104538385D01*
X156910469Y-104510491D01*
X157020978Y-104345101D01*
X157049989Y-104199254D01*
X157049989Y-104199253D01*
X157059784Y-104150011D01*
X157049989Y-104100768D01*
X157049989Y-101132118D01*
X158275000Y-102357130D01*
X158275000Y-102519235D01*
X158385374Y-102785703D01*
X158589320Y-102989649D01*
X158855788Y-103100023D01*
X159144212Y-103100023D01*
X159410680Y-102989649D01*
X159614626Y-102785703D01*
X159725000Y-102519235D01*
X159725000Y-102230811D01*
X159614626Y-101964343D01*
X159410680Y-101760397D01*
X159144212Y-101650023D01*
X158982107Y-101650023D01*
X158739219Y-101407135D01*
X158874088Y-101463000D01*
X160212750Y-101463000D01*
X160371000Y-101304750D01*
X160371000Y-100209000D01*
X158525250Y-100209000D01*
X158367000Y-100367250D01*
X158367000Y-100955911D01*
X158422865Y-101090781D01*
X157850011Y-100517928D01*
X157850011Y-99670949D01*
X157880809Y-99683706D01*
X158169233Y-99683706D01*
X158367000Y-99601789D01*
X158367000Y-99792750D01*
X158525250Y-99951000D01*
X160371000Y-99951000D01*
X160371000Y-98855250D01*
X160212750Y-98697000D01*
X159300106Y-98697000D01*
X159324760Y-98672346D01*
X161825001Y-98672346D01*
X161825001Y-98697000D01*
X160787250Y-98697000D01*
X160629000Y-98855250D01*
X160629000Y-99951000D01*
X160649000Y-99951000D01*
X160649000Y-100209000D01*
X160629000Y-100209000D01*
X160629000Y-101304750D01*
X160787250Y-101463000D01*
X161825002Y-101463000D01*
X161825002Y-102775755D01*
X161815206Y-102825001D01*
X161850544Y-103002651D01*
X161854013Y-103020091D01*
X161964522Y-103185481D01*
X162006269Y-103213376D01*
X164176115Y-105383222D01*
X163974996Y-105383222D01*
X163708528Y-105493596D01*
X163504582Y-105697542D01*
X163394208Y-105964010D01*
X163394208Y-106100000D01*
X161637437Y-106100000D01*
X161741789Y-105995648D01*
X161875000Y-105674048D01*
X161875000Y-105325952D01*
X161741789Y-105004352D01*
X161495648Y-104758211D01*
X161174048Y-104625000D01*
X160825952Y-104625000D01*
X160504352Y-104758211D01*
X160258211Y-105004352D01*
X160125000Y-105325952D01*
X160125000Y-105674048D01*
X160258211Y-105995648D01*
X160418629Y-106156066D01*
X160385374Y-106189320D01*
X160275000Y-106455788D01*
X160275000Y-106744212D01*
X160385374Y-107010680D01*
X160589320Y-107214626D01*
X160855788Y-107325000D01*
X161144212Y-107325000D01*
X161410680Y-107214626D01*
X161525306Y-107100000D01*
X163578189Y-107100000D01*
X163627430Y-107109795D01*
X163676671Y-107100000D01*
X163676673Y-107100000D01*
X163822520Y-107070989D01*
X163987910Y-106960480D01*
X164015807Y-106918729D01*
X164101314Y-106833222D01*
X164263420Y-106833222D01*
X164500001Y-106735228D01*
X164500000Y-109474694D01*
X164385374Y-109589320D01*
X164275000Y-109855788D01*
X164275000Y-110144212D01*
X164385374Y-110410680D01*
X164589320Y-110614626D01*
X164855788Y-110725000D01*
X165144212Y-110725000D01*
X165410680Y-110614626D01*
X165614626Y-110410680D01*
X165725000Y-110144212D01*
X165725000Y-109855788D01*
X165614626Y-109589320D01*
X165500000Y-109474694D01*
X165500000Y-105549243D01*
X165509795Y-105500000D01*
X165470989Y-105304910D01*
X165389208Y-105182515D01*
X165360480Y-105139520D01*
X165318732Y-105111625D01*
X162825001Y-102617895D01*
X162825001Y-101637250D01*
X162867000Y-101637250D01*
X162867000Y-102225911D01*
X162963368Y-102458565D01*
X163141434Y-102636631D01*
X163374088Y-102733000D01*
X164712750Y-102733000D01*
X164871000Y-102574750D01*
X164871000Y-101479000D01*
X163025250Y-101479000D01*
X162867000Y-101637250D01*
X162825001Y-101637250D01*
X162825001Y-100844312D01*
X162867000Y-100861709D01*
X162867000Y-101062750D01*
X163025250Y-101221000D01*
X164871000Y-101221000D01*
X164871000Y-100125250D01*
X164712750Y-99967000D01*
X163800106Y-99967000D01*
X163824760Y-99942346D01*
X166500000Y-99942346D01*
X166646317Y-99913242D01*
X166770359Y-99830359D01*
X166853242Y-99706317D01*
X166882346Y-99560000D01*
X166882346Y-98060000D01*
X166853242Y-97913683D01*
X166770359Y-97789641D01*
X166646317Y-97706758D01*
X166500000Y-97677654D01*
X163500000Y-97677654D01*
X163353683Y-97706758D01*
X163229641Y-97789641D01*
X163146758Y-97913683D01*
X163117654Y-98060000D01*
X163117654Y-99235240D01*
X162886953Y-99465941D01*
X162825001Y-99491602D01*
X162825001Y-96479246D01*
X162834796Y-96430003D01*
X162795990Y-96234913D01*
X162739759Y-96150757D01*
X162685481Y-96069523D01*
X162643734Y-96041629D01*
X162377329Y-95775224D01*
X162382346Y-95750000D01*
X162382346Y-95520000D01*
X163117654Y-95520000D01*
X163117654Y-97020000D01*
X163146758Y-97166317D01*
X163229641Y-97290359D01*
X163353683Y-97373242D01*
X163500000Y-97402346D01*
X166500000Y-97402346D01*
X166646317Y-97373242D01*
X166770359Y-97290359D01*
X166853242Y-97166317D01*
X166882346Y-97020000D01*
X166882346Y-95520000D01*
X166853242Y-95373683D01*
X166770359Y-95249641D01*
X166646317Y-95166758D01*
X166500000Y-95137654D01*
X163500000Y-95137654D01*
X163353683Y-95166758D01*
X163229641Y-95249641D01*
X163146758Y-95373683D01*
X163117654Y-95520000D01*
X162382346Y-95520000D01*
X162382346Y-94250000D01*
X162377329Y-94224775D01*
X162450010Y-94152094D01*
X162450010Y-94249083D01*
X162560384Y-94515551D01*
X162764330Y-94719497D01*
X163030798Y-94829871D01*
X163319222Y-94829871D01*
X163337381Y-94822349D01*
X163353683Y-94833242D01*
X163500000Y-94862346D01*
X166500000Y-94862346D01*
X166646317Y-94833242D01*
X166770359Y-94750359D01*
X166853242Y-94626317D01*
X166882346Y-94480000D01*
X166882346Y-93000000D01*
X167225770Y-93000000D01*
X167275012Y-93009795D01*
X167470102Y-92970989D01*
X167635492Y-92860480D01*
X167746001Y-92695090D01*
X167775012Y-92549243D01*
X167784807Y-92500000D01*
X167775012Y-92450757D01*
X167775012Y-84024252D01*
X167784807Y-83975011D01*
X167770684Y-83904012D01*
X167746001Y-83779922D01*
X167635492Y-83614532D01*
X167593745Y-83586638D01*
X163832346Y-79825240D01*
X163832346Y-79350000D01*
X163803242Y-79203683D01*
X163720359Y-79079641D01*
X163596317Y-78996758D01*
X163450000Y-78967654D01*
X161550000Y-78967654D01*
X161403683Y-78996758D01*
X161279641Y-79079641D01*
X161196758Y-79203683D01*
X161167654Y-79350000D01*
X161167654Y-80150000D01*
X161196758Y-80296317D01*
X161279641Y-80420359D01*
X161403683Y-80503242D01*
X161550000Y-80532346D01*
X163125240Y-80532346D01*
X163209894Y-80617000D01*
X162787250Y-80617000D01*
X162629000Y-80775250D01*
X162629000Y-81521000D01*
X163924750Y-81521000D01*
X164019322Y-81426428D01*
X166775012Y-84182119D01*
X166775013Y-90176606D01*
X166770359Y-90169641D01*
X166646317Y-90086758D01*
X166500000Y-90057654D01*
X165625000Y-90057654D01*
X165625000Y-87908875D01*
X165983160Y-87550716D01*
X166016948Y-87516928D01*
X166258372Y-87416927D01*
X166462318Y-87212981D01*
X166572692Y-86946513D01*
X166572692Y-86658089D01*
X166462318Y-86391621D01*
X166258371Y-86187674D01*
X166016947Y-86087673D01*
X165983160Y-86053886D01*
X165480863Y-85551590D01*
X165445991Y-85499400D01*
X165239254Y-85361263D01*
X165056946Y-85325000D01*
X164995391Y-85312756D01*
X164933836Y-85325000D01*
X164750667Y-85325000D01*
X164720359Y-85279641D01*
X164596317Y-85196758D01*
X164450000Y-85167654D01*
X162800000Y-85167654D01*
X162800000Y-84907106D01*
X162874760Y-84832346D01*
X164450000Y-84832346D01*
X164596317Y-84803242D01*
X164720359Y-84720359D01*
X164803242Y-84596317D01*
X164832346Y-84450000D01*
X164832346Y-83650000D01*
X164803242Y-83503683D01*
X164720359Y-83379641D01*
X164596317Y-83296758D01*
X164450000Y-83267654D01*
X162550000Y-83267654D01*
X162403683Y-83296758D01*
X162279641Y-83379641D01*
X162196758Y-83503683D01*
X162167654Y-83650000D01*
X162167654Y-84125240D01*
X161981270Y-84311624D01*
X161939520Y-84339520D01*
X161829011Y-84504911D01*
X161821221Y-84544072D01*
X161803242Y-84453683D01*
X161720359Y-84329641D01*
X161596317Y-84246758D01*
X161450000Y-84217654D01*
X159600000Y-84217654D01*
X159600000Y-83349240D01*
X159609795Y-83299999D01*
X159596866Y-83235002D01*
X159570989Y-83104910D01*
X159460480Y-82939520D01*
X159418733Y-82911626D01*
X158444357Y-81937250D01*
X160917000Y-81937250D01*
X160917000Y-82175912D01*
X161013369Y-82408566D01*
X161191435Y-82586632D01*
X161424089Y-82683000D01*
X162212750Y-82683000D01*
X162371000Y-82524750D01*
X162371000Y-81779000D01*
X162629000Y-81779000D01*
X162629000Y-82524750D01*
X162787250Y-82683000D01*
X163575911Y-82683000D01*
X163808565Y-82586632D01*
X163986631Y-82408566D01*
X164083000Y-82175912D01*
X164083000Y-81937250D01*
X163924750Y-81779000D01*
X162629000Y-81779000D01*
X162371000Y-81779000D01*
X161075250Y-81779000D01*
X160917000Y-81937250D01*
X158444357Y-81937250D01*
X158288376Y-81781270D01*
X158260480Y-81739520D01*
X158095090Y-81629011D01*
X158032346Y-81616530D01*
X158032346Y-81200000D01*
X158187545Y-81200000D01*
X158196758Y-81246317D01*
X158279641Y-81370359D01*
X158403683Y-81453242D01*
X158550000Y-81482346D01*
X160450000Y-81482346D01*
X160596317Y-81453242D01*
X160720359Y-81370359D01*
X160803242Y-81246317D01*
X160827554Y-81124088D01*
X160917000Y-81124088D01*
X160917000Y-81362750D01*
X161075250Y-81521000D01*
X162371000Y-81521000D01*
X162371000Y-80775250D01*
X162212750Y-80617000D01*
X161424089Y-80617000D01*
X161191435Y-80713368D01*
X161013369Y-80891434D01*
X160917000Y-81124088D01*
X160827554Y-81124088D01*
X160832346Y-81100000D01*
X160832346Y-80300000D01*
X160803242Y-80153683D01*
X160720359Y-80029641D01*
X160596317Y-79946758D01*
X160450000Y-79917654D01*
X158550000Y-79917654D01*
X158403683Y-79946758D01*
X158279641Y-80029641D01*
X158196758Y-80153683D01*
X158187545Y-80200000D01*
X157050781Y-80200000D01*
X157053242Y-80196317D01*
X157082346Y-80050000D01*
X157082346Y-78150000D01*
X157053242Y-78003683D01*
X156970359Y-77879641D01*
X156846317Y-77796758D01*
X156700000Y-77767654D01*
X155900000Y-77767654D01*
X155753683Y-77796758D01*
X155629641Y-77879641D01*
X155546758Y-78003683D01*
X155517654Y-78150000D01*
X155517654Y-79725239D01*
X155142894Y-80100000D01*
X152632346Y-80100000D01*
X152632346Y-80000000D01*
X152603242Y-79853683D01*
X152520359Y-79729641D01*
X152396317Y-79646758D01*
X152250000Y-79617654D01*
X151350000Y-79617654D01*
X151203683Y-79646758D01*
X151079641Y-79729641D01*
X150996758Y-79853683D01*
X150967654Y-80000000D01*
X150967654Y-81200000D01*
X150996758Y-81346317D01*
X151079641Y-81470359D01*
X151203683Y-81553242D01*
X151350000Y-81582346D01*
X152250000Y-81582346D01*
X152396317Y-81553242D01*
X152520359Y-81470359D01*
X152603242Y-81346317D01*
X152632346Y-81200000D01*
X152632346Y-81100000D01*
X154317000Y-81100000D01*
X154317000Y-81812750D01*
X154475250Y-81971000D01*
X155221000Y-81971000D01*
X155221000Y-81951000D01*
X155479000Y-81951000D01*
X155479000Y-81971000D01*
X155499000Y-81971000D01*
X155499000Y-82229000D01*
X155479000Y-82229000D01*
X155479000Y-83524750D01*
X155637250Y-83683000D01*
X155875912Y-83683000D01*
X156025000Y-83621245D01*
X156025000Y-83625753D01*
X156015204Y-83674999D01*
X156045965Y-83829641D01*
X156054011Y-83870089D01*
X156164520Y-84035479D01*
X156206267Y-84063373D01*
X156567654Y-84424760D01*
X156567654Y-85300000D01*
X156572542Y-85324575D01*
X156431238Y-85352682D01*
X156374257Y-85390756D01*
X156265849Y-85463191D01*
X156237954Y-85504939D01*
X155986126Y-85756767D01*
X155896317Y-85696758D01*
X155750000Y-85667654D01*
X154104636Y-85667654D01*
X154100000Y-85644350D01*
X154100000Y-85407106D01*
X154174760Y-85332346D01*
X155750000Y-85332346D01*
X155896317Y-85303242D01*
X156020359Y-85220359D01*
X156103242Y-85096317D01*
X156132346Y-84950000D01*
X156132346Y-84150000D01*
X156103242Y-84003683D01*
X156020359Y-83879641D01*
X155896317Y-83796758D01*
X155750000Y-83767654D01*
X153850000Y-83767654D01*
X153703683Y-83796758D01*
X153579641Y-83879641D01*
X153496758Y-84003683D01*
X153467654Y-84150000D01*
X153467654Y-84625240D01*
X153281270Y-84811624D01*
X153239520Y-84839520D01*
X153129011Y-85004911D01*
X153121221Y-85044072D01*
X153103242Y-84953683D01*
X153020359Y-84829641D01*
X152896317Y-84746758D01*
X152750000Y-84717654D01*
X150850000Y-84717654D01*
X150703683Y-84746758D01*
X150579641Y-84829641D01*
X150496758Y-84953683D01*
X150467654Y-85100000D01*
X150467654Y-85575240D01*
X150281268Y-85761626D01*
X150239521Y-85789520D01*
X150175001Y-85886082D01*
X150175001Y-85489242D01*
X150184796Y-85439999D01*
X150169134Y-85361263D01*
X150145990Y-85244909D01*
X150035481Y-85079519D01*
X149996516Y-85053484D01*
X149970481Y-85014519D01*
X149805091Y-84904010D01*
X149681164Y-84879359D01*
X149703242Y-84846317D01*
X149732346Y-84700000D01*
X149732346Y-83500000D01*
X149703242Y-83353683D01*
X149620359Y-83229641D01*
X149496317Y-83146758D01*
X149350000Y-83117654D01*
X148774760Y-83117654D01*
X148438377Y-82781271D01*
X148410480Y-82739520D01*
X148245090Y-82629011D01*
X148099243Y-82600000D01*
X148099241Y-82600000D01*
X148050000Y-82590205D01*
X148000759Y-82600000D01*
X145582346Y-82600000D01*
X145582346Y-82387250D01*
X154317000Y-82387250D01*
X154317000Y-83175911D01*
X154413368Y-83408565D01*
X154591434Y-83586631D01*
X154824088Y-83683000D01*
X155062750Y-83683000D01*
X155221000Y-83524750D01*
X155221000Y-82229000D01*
X154475250Y-82229000D01*
X154317000Y-82387250D01*
X145582346Y-82387250D01*
X145582346Y-82303496D01*
X145620091Y-82295988D01*
X145785481Y-82185479D01*
X145813377Y-82143729D01*
X146824761Y-81132346D01*
X147700000Y-81132346D01*
X147846317Y-81103242D01*
X147970359Y-81020359D01*
X148053242Y-80896317D01*
X148082346Y-80750000D01*
X148082346Y-79850000D01*
X148053242Y-79703683D01*
X147970359Y-79579641D01*
X147846317Y-79496758D01*
X147700000Y-79467654D01*
X146500000Y-79467654D01*
X146353683Y-79496758D01*
X146229641Y-79579641D01*
X146146758Y-79703683D01*
X146117654Y-79850000D01*
X146117654Y-80425239D01*
X145882346Y-80660547D01*
X145882346Y-79850000D01*
X145853242Y-79703683D01*
X145770359Y-79579641D01*
X145646317Y-79496758D01*
X145500000Y-79467654D01*
X144774761Y-79467654D01*
X144524048Y-79216942D01*
X144683729Y-79057261D01*
X144855000Y-78643776D01*
X144855000Y-78196224D01*
X144683729Y-77782739D01*
X144525990Y-77625000D01*
X148014010Y-77625000D01*
X147856271Y-77782739D01*
G36*
X137553683Y-81203242D02*
X137700000Y-81232346D01*
X138575240Y-81232346D01*
X139617893Y-82275000D01*
X139355788Y-82275000D01*
X139089320Y-82385374D01*
X138885374Y-82589320D01*
X138775000Y-82855788D01*
X138775000Y-83144212D01*
X138885374Y-83410680D01*
X139089320Y-83614626D01*
X139231347Y-83673455D01*
X140220998Y-84663107D01*
X140220998Y-84675248D01*
X140062750Y-84517000D01*
X139824088Y-84517000D01*
X139591434Y-84613369D01*
X139413368Y-84791435D01*
X139386268Y-84856862D01*
X139296317Y-84796758D01*
X139150000Y-84767654D01*
X138350000Y-84767654D01*
X138203683Y-84796758D01*
X138079641Y-84879641D01*
X137996758Y-85003683D01*
X137967654Y-85150000D01*
X137967654Y-87050000D01*
X137996758Y-87196317D01*
X138079641Y-87320359D01*
X138203683Y-87403242D01*
X138350000Y-87432346D01*
X139022651Y-87432346D01*
X139166595Y-87576289D01*
X138873776Y-87455000D01*
X138426224Y-87455000D01*
X138012739Y-87626271D01*
X137696271Y-87942739D01*
X137685001Y-87969947D01*
X137685001Y-87684244D01*
X137694796Y-87635001D01*
X137655990Y-87439910D01*
X137599781Y-87355788D01*
X137548234Y-87278641D01*
X137603242Y-87196317D01*
X137632346Y-87050000D01*
X137632346Y-85150000D01*
X137603242Y-85003683D01*
X137520359Y-84879641D01*
X137396317Y-84796758D01*
X137353264Y-84788194D01*
X137345516Y-84749242D01*
X137320989Y-84625938D01*
X137210480Y-84460548D01*
X137168732Y-84432653D01*
X137166791Y-84430712D01*
X137166791Y-84345182D01*
X137253683Y-84403242D01*
X137400000Y-84432346D01*
X138200000Y-84432346D01*
X138346317Y-84403242D01*
X138470359Y-84320359D01*
X138553242Y-84196317D01*
X138582346Y-84050000D01*
X138582346Y-82150000D01*
X138553242Y-82003683D01*
X138470359Y-81879641D01*
X138346317Y-81796758D01*
X138200000Y-81767654D01*
X137400000Y-81767654D01*
X137253683Y-81796758D01*
X137129641Y-81879641D01*
X137046758Y-82003683D01*
X137017654Y-82150000D01*
X137017654Y-82600000D01*
X136804851Y-82600000D01*
X136755608Y-82590205D01*
X136706365Y-82600000D01*
X136560518Y-82629011D01*
X136395128Y-82739520D01*
X136367233Y-82781268D01*
X135448060Y-83700442D01*
X135406310Y-83728338D01*
X135295801Y-83893729D01*
X135275909Y-83993732D01*
X135256995Y-84088818D01*
X135266790Y-84138060D01*
X135266791Y-85404356D01*
X135256995Y-85453602D01*
X135284032Y-85589520D01*
X135295802Y-85648692D01*
X135406311Y-85814082D01*
X135448058Y-85841976D01*
X135610000Y-86003919D01*
X135610001Y-87470093D01*
X135610000Y-87470098D01*
X135610000Y-87569416D01*
X135472739Y-87626271D01*
X135156271Y-87942739D01*
X134985000Y-88356224D01*
X134985000Y-88803776D01*
X135156271Y-89217261D01*
X135472739Y-89533729D01*
X135886224Y-89705000D01*
X136333776Y-89705000D01*
X136685002Y-89559518D01*
X136685001Y-97458876D01*
X135956254Y-98187624D01*
X135914507Y-98215518D01*
X135812854Y-98367654D01*
X135803998Y-98380908D01*
X135765191Y-98575998D01*
X135774987Y-98625244D01*
X135774986Y-99460746D01*
X135765191Y-99509988D01*
X135774986Y-99559229D01*
X135774986Y-99559230D01*
X135803997Y-99705077D01*
X135914506Y-99870468D01*
X135956256Y-99898364D01*
X137426623Y-101368732D01*
X137454518Y-101410480D01*
X137619908Y-101520989D01*
X137640068Y-101524999D01*
X137814998Y-101559795D01*
X137864241Y-101550000D01*
X140487545Y-101550000D01*
X140496758Y-101596317D01*
X140566037Y-101700000D01*
X136908103Y-101700000D01*
X135400000Y-100191898D01*
X135400000Y-90008430D01*
X135409795Y-89959189D01*
X135398123Y-89900510D01*
X135370989Y-89764100D01*
X135260480Y-89598710D01*
X135218733Y-89570816D01*
X134834989Y-89187073D01*
X134834989Y-86362822D01*
X134844785Y-86313576D01*
X134805978Y-86118486D01*
X134778459Y-86077301D01*
X134695469Y-85953096D01*
X134653722Y-85925202D01*
X133734777Y-85006258D01*
X133706881Y-84964508D01*
X133541491Y-84853999D01*
X133395644Y-84824988D01*
X133395642Y-84824988D01*
X133346401Y-84815193D01*
X133297160Y-84824988D01*
X132547093Y-84824988D01*
X131504450Y-83782346D01*
X132900000Y-83782346D01*
X133046317Y-83753242D01*
X133170359Y-83670359D01*
X133253242Y-83546317D01*
X133262455Y-83500000D01*
X135085761Y-83500000D01*
X135135002Y-83509795D01*
X135184243Y-83500000D01*
X135184245Y-83500000D01*
X135330092Y-83470989D01*
X135495482Y-83360480D01*
X135523378Y-83318730D01*
X137343733Y-81498376D01*
X137385481Y-81470481D01*
X137495990Y-81305091D01*
X137520641Y-81181164D01*
X137553683Y-81203242D01*
X137553683Y-81203242D01*
G37*
X137553683Y-81203242D02*
X137700000Y-81232346D01*
X138575240Y-81232346D01*
X139617893Y-82275000D01*
X139355788Y-82275000D01*
X139089320Y-82385374D01*
X138885374Y-82589320D01*
X138775000Y-82855788D01*
X138775000Y-83144212D01*
X138885374Y-83410680D01*
X139089320Y-83614626D01*
X139231347Y-83673455D01*
X140220998Y-84663107D01*
X140220998Y-84675248D01*
X140062750Y-84517000D01*
X139824088Y-84517000D01*
X139591434Y-84613369D01*
X139413368Y-84791435D01*
X139386268Y-84856862D01*
X139296317Y-84796758D01*
X139150000Y-84767654D01*
X138350000Y-84767654D01*
X138203683Y-84796758D01*
X138079641Y-84879641D01*
X137996758Y-85003683D01*
X137967654Y-85150000D01*
X137967654Y-87050000D01*
X137996758Y-87196317D01*
X138079641Y-87320359D01*
X138203683Y-87403242D01*
X138350000Y-87432346D01*
X139022651Y-87432346D01*
X139166595Y-87576289D01*
X138873776Y-87455000D01*
X138426224Y-87455000D01*
X138012739Y-87626271D01*
X137696271Y-87942739D01*
X137685001Y-87969947D01*
X137685001Y-87684244D01*
X137694796Y-87635001D01*
X137655990Y-87439910D01*
X137599781Y-87355788D01*
X137548234Y-87278641D01*
X137603242Y-87196317D01*
X137632346Y-87050000D01*
X137632346Y-85150000D01*
X137603242Y-85003683D01*
X137520359Y-84879641D01*
X137396317Y-84796758D01*
X137353264Y-84788194D01*
X137345516Y-84749242D01*
X137320989Y-84625938D01*
X137210480Y-84460548D01*
X137168732Y-84432653D01*
X137166791Y-84430712D01*
X137166791Y-84345182D01*
X137253683Y-84403242D01*
X137400000Y-84432346D01*
X138200000Y-84432346D01*
X138346317Y-84403242D01*
X138470359Y-84320359D01*
X138553242Y-84196317D01*
X138582346Y-84050000D01*
X138582346Y-82150000D01*
X138553242Y-82003683D01*
X138470359Y-81879641D01*
X138346317Y-81796758D01*
X138200000Y-81767654D01*
X137400000Y-81767654D01*
X137253683Y-81796758D01*
X137129641Y-81879641D01*
X137046758Y-82003683D01*
X137017654Y-82150000D01*
X137017654Y-82600000D01*
X136804851Y-82600000D01*
X136755608Y-82590205D01*
X136706365Y-82600000D01*
X136560518Y-82629011D01*
X136395128Y-82739520D01*
X136367233Y-82781268D01*
X135448060Y-83700442D01*
X135406310Y-83728338D01*
X135295801Y-83893729D01*
X135275909Y-83993732D01*
X135256995Y-84088818D01*
X135266790Y-84138060D01*
X135266791Y-85404356D01*
X135256995Y-85453602D01*
X135284032Y-85589520D01*
X135295802Y-85648692D01*
X135406311Y-85814082D01*
X135448058Y-85841976D01*
X135610000Y-86003919D01*
X135610001Y-87470093D01*
X135610000Y-87470098D01*
X135610000Y-87569416D01*
X135472739Y-87626271D01*
X135156271Y-87942739D01*
X134985000Y-88356224D01*
X134985000Y-88803776D01*
X135156271Y-89217261D01*
X135472739Y-89533729D01*
X135886224Y-89705000D01*
X136333776Y-89705000D01*
X136685002Y-89559518D01*
X136685001Y-97458876D01*
X135956254Y-98187624D01*
X135914507Y-98215518D01*
X135812854Y-98367654D01*
X135803998Y-98380908D01*
X135765191Y-98575998D01*
X135774987Y-98625244D01*
X135774986Y-99460746D01*
X135765191Y-99509988D01*
X135774986Y-99559229D01*
X135774986Y-99559230D01*
X135803997Y-99705077D01*
X135914506Y-99870468D01*
X135956256Y-99898364D01*
X137426623Y-101368732D01*
X137454518Y-101410480D01*
X137619908Y-101520989D01*
X137640068Y-101524999D01*
X137814998Y-101559795D01*
X137864241Y-101550000D01*
X140487545Y-101550000D01*
X140496758Y-101596317D01*
X140566037Y-101700000D01*
X136908103Y-101700000D01*
X135400000Y-100191898D01*
X135400000Y-90008430D01*
X135409795Y-89959189D01*
X135398123Y-89900510D01*
X135370989Y-89764100D01*
X135260480Y-89598710D01*
X135218733Y-89570816D01*
X134834989Y-89187073D01*
X134834989Y-86362822D01*
X134844785Y-86313576D01*
X134805978Y-86118486D01*
X134778459Y-86077301D01*
X134695469Y-85953096D01*
X134653722Y-85925202D01*
X133734777Y-85006258D01*
X133706881Y-84964508D01*
X133541491Y-84853999D01*
X133395644Y-84824988D01*
X133395642Y-84824988D01*
X133346401Y-84815193D01*
X133297160Y-84824988D01*
X132547093Y-84824988D01*
X131504450Y-83782346D01*
X132900000Y-83782346D01*
X133046317Y-83753242D01*
X133170359Y-83670359D01*
X133253242Y-83546317D01*
X133262455Y-83500000D01*
X135085761Y-83500000D01*
X135135002Y-83509795D01*
X135184243Y-83500000D01*
X135184245Y-83500000D01*
X135330092Y-83470989D01*
X135495482Y-83360480D01*
X135523378Y-83318730D01*
X137343733Y-81498376D01*
X137385481Y-81470481D01*
X137495990Y-81305091D01*
X137520641Y-81181164D01*
X137553683Y-81203242D01*
G36*
X138379000Y-96071000D02*
X138399000Y-96071000D01*
X138399000Y-96329000D01*
X138379000Y-96329000D01*
X138379000Y-97624750D01*
X138537250Y-97783000D01*
X138775912Y-97783000D01*
X138924999Y-97721246D01*
X138924999Y-98617894D01*
X138481268Y-99061626D01*
X138439521Y-99089520D01*
X138411627Y-99131267D01*
X138329012Y-99254910D01*
X138316531Y-99317654D01*
X137850000Y-99317654D01*
X137703683Y-99346758D01*
X137579641Y-99429641D01*
X137496758Y-99553683D01*
X137467654Y-99700000D01*
X137467654Y-99995549D01*
X136774986Y-99302882D01*
X136774986Y-98783104D01*
X137503734Y-98054357D01*
X137545481Y-98026463D01*
X137655990Y-97861073D01*
X137665727Y-97812121D01*
X137675522Y-97762883D01*
X137724088Y-97783000D01*
X137962750Y-97783000D01*
X138121000Y-97624750D01*
X138121000Y-96329000D01*
X138101000Y-96329000D01*
X138101000Y-96071000D01*
X138121000Y-96071000D01*
X138121000Y-96051000D01*
X138379000Y-96051000D01*
X138379000Y-96071000D01*
X138379000Y-96071000D01*
G37*
X138379000Y-96071000D02*
X138399000Y-96071000D01*
X138399000Y-96329000D01*
X138379000Y-96329000D01*
X138379000Y-97624750D01*
X138537250Y-97783000D01*
X138775912Y-97783000D01*
X138924999Y-97721246D01*
X138924999Y-98617894D01*
X138481268Y-99061626D01*
X138439521Y-99089520D01*
X138411627Y-99131267D01*
X138329012Y-99254910D01*
X138316531Y-99317654D01*
X137850000Y-99317654D01*
X137703683Y-99346758D01*
X137579641Y-99429641D01*
X137496758Y-99553683D01*
X137467654Y-99700000D01*
X137467654Y-99995549D01*
X136774986Y-99302882D01*
X136774986Y-98783104D01*
X137503734Y-98054357D01*
X137545481Y-98026463D01*
X137655990Y-97861073D01*
X137665727Y-97812121D01*
X137675522Y-97762883D01*
X137724088Y-97783000D01*
X137962750Y-97783000D01*
X138121000Y-97624750D01*
X138121000Y-96329000D01*
X138101000Y-96329000D01*
X138101000Y-96071000D01*
X138121000Y-96071000D01*
X138121000Y-96051000D01*
X138379000Y-96051000D01*
X138379000Y-96071000D01*
G36*
X139623170Y-87875001D02*
X139623171Y-87875001D01*
X139672413Y-87884796D01*
X139721654Y-87875001D01*
X140304009Y-87875001D01*
X140236271Y-87942739D01*
X140065000Y-88356224D01*
X140065000Y-88803776D01*
X140236271Y-89217261D01*
X140552739Y-89533729D01*
X140690000Y-89590585D01*
X140690001Y-89967654D01*
X140600000Y-89967654D01*
X140453683Y-89996758D01*
X140329641Y-90079641D01*
X140246758Y-90203683D01*
X140217654Y-90350000D01*
X140217654Y-91250000D01*
X140246758Y-91396317D01*
X140329641Y-91520359D01*
X140453683Y-91603242D01*
X140600000Y-91632346D01*
X141800000Y-91632346D01*
X141946317Y-91603242D01*
X142070359Y-91520359D01*
X142117774Y-91449399D01*
X142117654Y-91450000D01*
X142117654Y-93350000D01*
X142146758Y-93496317D01*
X142229641Y-93620359D01*
X142353683Y-93703242D01*
X142500000Y-93732346D01*
X143300000Y-93732346D01*
X143446317Y-93703242D01*
X143570359Y-93620359D01*
X143653242Y-93496317D01*
X143682346Y-93350000D01*
X143682346Y-91450000D01*
X143653242Y-91303683D01*
X143570359Y-91179641D01*
X143446317Y-91096758D01*
X143400000Y-91087545D01*
X143400000Y-90849241D01*
X143409795Y-90799999D01*
X143388927Y-90695090D01*
X143370989Y-90604910D01*
X143325000Y-90536082D01*
X143325000Y-90507923D01*
X147717076Y-94900000D01*
X144632346Y-94900000D01*
X144632346Y-94450000D01*
X144603242Y-94303683D01*
X144520359Y-94179641D01*
X144396317Y-94096758D01*
X144250000Y-94067654D01*
X143450000Y-94067654D01*
X143303683Y-94096758D01*
X143179641Y-94179641D01*
X143096758Y-94303683D01*
X143067654Y-94450000D01*
X143067654Y-96350000D01*
X143096758Y-96496317D01*
X143179641Y-96620359D01*
X143303683Y-96703242D01*
X143450000Y-96732346D01*
X144250000Y-96732346D01*
X144396317Y-96703242D01*
X144520359Y-96620359D01*
X144603242Y-96496317D01*
X144632346Y-96350000D01*
X144632346Y-95900000D01*
X149837303Y-95900000D01*
X152143504Y-98206202D01*
X152143504Y-98368307D01*
X152253878Y-98634775D01*
X152457824Y-98838721D01*
X152653964Y-98919964D01*
X152651616Y-98922312D01*
X143479418Y-98922312D01*
X143388377Y-98831271D01*
X143360480Y-98789520D01*
X143195090Y-98679011D01*
X143115059Y-98663092D01*
X143103242Y-98603683D01*
X143020359Y-98479641D01*
X142896317Y-98396758D01*
X142750000Y-98367654D01*
X140850000Y-98367654D01*
X140703683Y-98396758D01*
X140650000Y-98432628D01*
X140650000Y-97512455D01*
X140696317Y-97503242D01*
X140820359Y-97420359D01*
X140903242Y-97296317D01*
X140932346Y-97150000D01*
X140932346Y-95250000D01*
X140903242Y-95103683D01*
X140820359Y-94979641D01*
X140696317Y-94896758D01*
X140550000Y-94867654D01*
X139750000Y-94867654D01*
X139658049Y-94885944D01*
X139304451Y-94532346D01*
X139600000Y-94532346D01*
X139746317Y-94503242D01*
X139825998Y-94450000D01*
X141167654Y-94450000D01*
X141167654Y-96350000D01*
X141196758Y-96496317D01*
X141279641Y-96620359D01*
X141403683Y-96703242D01*
X141535369Y-96729436D01*
X141589520Y-96810480D01*
X141631270Y-96838376D01*
X141775000Y-96982106D01*
X141775000Y-97144212D01*
X141885374Y-97410680D01*
X142089320Y-97614626D01*
X142355788Y-97725000D01*
X142644212Y-97725000D01*
X142910680Y-97614626D01*
X143114626Y-97410680D01*
X143225000Y-97144212D01*
X143225000Y-96855788D01*
X143114626Y-96589320D01*
X142910680Y-96385374D01*
X142732346Y-96311506D01*
X142732346Y-94450000D01*
X142703242Y-94303683D01*
X142620359Y-94179641D01*
X142496317Y-94096758D01*
X142350000Y-94067654D01*
X141550000Y-94067654D01*
X141403683Y-94096758D01*
X141279641Y-94179641D01*
X141196758Y-94303683D01*
X141167654Y-94450000D01*
X139825998Y-94450000D01*
X139870359Y-94420359D01*
X139953242Y-94296317D01*
X139982346Y-94150000D01*
X139982346Y-92250000D01*
X139953242Y-92103683D01*
X139870359Y-91979641D01*
X139746317Y-91896758D01*
X139600000Y-91867654D01*
X139500000Y-91867654D01*
X139500000Y-91632346D01*
X139600000Y-91632346D01*
X139746317Y-91603242D01*
X139870359Y-91520359D01*
X139953242Y-91396317D01*
X139982346Y-91250000D01*
X139982346Y-90350000D01*
X139953242Y-90203683D01*
X139870359Y-90079641D01*
X139746317Y-89996758D01*
X139600000Y-89967654D01*
X138400001Y-89967654D01*
X138400001Y-89694138D01*
X138426224Y-89705000D01*
X138873776Y-89705000D01*
X139287261Y-89533729D01*
X139603729Y-89217261D01*
X139775000Y-88803776D01*
X139775000Y-88356224D01*
X139603729Y-87942739D01*
X139514344Y-87853354D01*
X139623170Y-87875001D01*
X139623170Y-87875001D01*
G37*
X139623170Y-87875001D02*
X139623171Y-87875001D01*
X139672413Y-87884796D01*
X139721654Y-87875001D01*
X140304009Y-87875001D01*
X140236271Y-87942739D01*
X140065000Y-88356224D01*
X140065000Y-88803776D01*
X140236271Y-89217261D01*
X140552739Y-89533729D01*
X140690000Y-89590585D01*
X140690001Y-89967654D01*
X140600000Y-89967654D01*
X140453683Y-89996758D01*
X140329641Y-90079641D01*
X140246758Y-90203683D01*
X140217654Y-90350000D01*
X140217654Y-91250000D01*
X140246758Y-91396317D01*
X140329641Y-91520359D01*
X140453683Y-91603242D01*
X140600000Y-91632346D01*
X141800000Y-91632346D01*
X141946317Y-91603242D01*
X142070359Y-91520359D01*
X142117774Y-91449399D01*
X142117654Y-91450000D01*
X142117654Y-93350000D01*
X142146758Y-93496317D01*
X142229641Y-93620359D01*
X142353683Y-93703242D01*
X142500000Y-93732346D01*
X143300000Y-93732346D01*
X143446317Y-93703242D01*
X143570359Y-93620359D01*
X143653242Y-93496317D01*
X143682346Y-93350000D01*
X143682346Y-91450000D01*
X143653242Y-91303683D01*
X143570359Y-91179641D01*
X143446317Y-91096758D01*
X143400000Y-91087545D01*
X143400000Y-90849241D01*
X143409795Y-90799999D01*
X143388927Y-90695090D01*
X143370989Y-90604910D01*
X143325000Y-90536082D01*
X143325000Y-90507923D01*
X147717076Y-94900000D01*
X144632346Y-94900000D01*
X144632346Y-94450000D01*
X144603242Y-94303683D01*
X144520359Y-94179641D01*
X144396317Y-94096758D01*
X144250000Y-94067654D01*
X143450000Y-94067654D01*
X143303683Y-94096758D01*
X143179641Y-94179641D01*
X143096758Y-94303683D01*
X143067654Y-94450000D01*
X143067654Y-96350000D01*
X143096758Y-96496317D01*
X143179641Y-96620359D01*
X143303683Y-96703242D01*
X143450000Y-96732346D01*
X144250000Y-96732346D01*
X144396317Y-96703242D01*
X144520359Y-96620359D01*
X144603242Y-96496317D01*
X144632346Y-96350000D01*
X144632346Y-95900000D01*
X149837303Y-95900000D01*
X152143504Y-98206202D01*
X152143504Y-98368307D01*
X152253878Y-98634775D01*
X152457824Y-98838721D01*
X152653964Y-98919964D01*
X152651616Y-98922312D01*
X143479418Y-98922312D01*
X143388377Y-98831271D01*
X143360480Y-98789520D01*
X143195090Y-98679011D01*
X143115059Y-98663092D01*
X143103242Y-98603683D01*
X143020359Y-98479641D01*
X142896317Y-98396758D01*
X142750000Y-98367654D01*
X140850000Y-98367654D01*
X140703683Y-98396758D01*
X140650000Y-98432628D01*
X140650000Y-97512455D01*
X140696317Y-97503242D01*
X140820359Y-97420359D01*
X140903242Y-97296317D01*
X140932346Y-97150000D01*
X140932346Y-95250000D01*
X140903242Y-95103683D01*
X140820359Y-94979641D01*
X140696317Y-94896758D01*
X140550000Y-94867654D01*
X139750000Y-94867654D01*
X139658049Y-94885944D01*
X139304451Y-94532346D01*
X139600000Y-94532346D01*
X139746317Y-94503242D01*
X139825998Y-94450000D01*
X141167654Y-94450000D01*
X141167654Y-96350000D01*
X141196758Y-96496317D01*
X141279641Y-96620359D01*
X141403683Y-96703242D01*
X141535369Y-96729436D01*
X141589520Y-96810480D01*
X141631270Y-96838376D01*
X141775000Y-96982106D01*
X141775000Y-97144212D01*
X141885374Y-97410680D01*
X142089320Y-97614626D01*
X142355788Y-97725000D01*
X142644212Y-97725000D01*
X142910680Y-97614626D01*
X143114626Y-97410680D01*
X143225000Y-97144212D01*
X143225000Y-96855788D01*
X143114626Y-96589320D01*
X142910680Y-96385374D01*
X142732346Y-96311506D01*
X142732346Y-94450000D01*
X142703242Y-94303683D01*
X142620359Y-94179641D01*
X142496317Y-94096758D01*
X142350000Y-94067654D01*
X141550000Y-94067654D01*
X141403683Y-94096758D01*
X141279641Y-94179641D01*
X141196758Y-94303683D01*
X141167654Y-94450000D01*
X139825998Y-94450000D01*
X139870359Y-94420359D01*
X139953242Y-94296317D01*
X139982346Y-94150000D01*
X139982346Y-92250000D01*
X139953242Y-92103683D01*
X139870359Y-91979641D01*
X139746317Y-91896758D01*
X139600000Y-91867654D01*
X139500000Y-91867654D01*
X139500000Y-91632346D01*
X139600000Y-91632346D01*
X139746317Y-91603242D01*
X139870359Y-91520359D01*
X139953242Y-91396317D01*
X139982346Y-91250000D01*
X139982346Y-90350000D01*
X139953242Y-90203683D01*
X139870359Y-90079641D01*
X139746317Y-89996758D01*
X139600000Y-89967654D01*
X138400001Y-89967654D01*
X138400001Y-89694138D01*
X138426224Y-89705000D01*
X138873776Y-89705000D01*
X139287261Y-89533729D01*
X139603729Y-89217261D01*
X139775000Y-88803776D01*
X139775000Y-88356224D01*
X139603729Y-87942739D01*
X139514344Y-87853354D01*
X139623170Y-87875001D01*
G36*
X149789325Y-89217261D02*
X149804011Y-89291091D01*
X149914520Y-89456481D01*
X149956267Y-89484376D01*
X152940618Y-92468727D01*
X152968513Y-92510475D01*
X153133903Y-92620984D01*
X153227125Y-92639527D01*
X153328993Y-92659790D01*
X153378236Y-92649995D01*
X154360244Y-92649995D01*
X154275000Y-92855794D01*
X154275000Y-93144218D01*
X154385374Y-93410686D01*
X154589320Y-93614632D01*
X154855788Y-93725006D01*
X155017893Y-93725006D01*
X155031265Y-93738378D01*
X155031269Y-93738380D01*
X155149989Y-93857100D01*
X155149989Y-95173481D01*
X155144263Y-95164911D01*
X155075000Y-95061251D01*
X155075000Y-94725952D01*
X154941789Y-94404352D01*
X154695648Y-94158211D01*
X154374048Y-94025000D01*
X154025952Y-94025000D01*
X153704352Y-94158211D01*
X153458211Y-94404352D01*
X153325000Y-94725952D01*
X153325000Y-95074048D01*
X153458211Y-95395648D01*
X153704352Y-95641789D01*
X154025952Y-95775000D01*
X154200001Y-95775000D01*
X154200000Y-96174694D01*
X154085374Y-96289320D01*
X154030033Y-96422926D01*
X148234999Y-90627893D01*
X148234999Y-89559518D01*
X148586224Y-89705000D01*
X149033776Y-89705000D01*
X149447261Y-89533729D01*
X149763729Y-89217261D01*
X149781021Y-89175515D01*
X149789325Y-89217261D01*
X149789325Y-89217261D01*
G37*
X149789325Y-89217261D02*
X149804011Y-89291091D01*
X149914520Y-89456481D01*
X149956267Y-89484376D01*
X152940618Y-92468727D01*
X152968513Y-92510475D01*
X153133903Y-92620984D01*
X153227125Y-92639527D01*
X153328993Y-92659790D01*
X153378236Y-92649995D01*
X154360244Y-92649995D01*
X154275000Y-92855794D01*
X154275000Y-93144218D01*
X154385374Y-93410686D01*
X154589320Y-93614632D01*
X154855788Y-93725006D01*
X155017893Y-93725006D01*
X155031265Y-93738378D01*
X155031269Y-93738380D01*
X155149989Y-93857100D01*
X155149989Y-95173481D01*
X155144263Y-95164911D01*
X155075000Y-95061251D01*
X155075000Y-94725952D01*
X154941789Y-94404352D01*
X154695648Y-94158211D01*
X154374048Y-94025000D01*
X154025952Y-94025000D01*
X153704352Y-94158211D01*
X153458211Y-94404352D01*
X153325000Y-94725952D01*
X153325000Y-95074048D01*
X153458211Y-95395648D01*
X153704352Y-95641789D01*
X154025952Y-95775000D01*
X154200001Y-95775000D01*
X154200000Y-96174694D01*
X154085374Y-96289320D01*
X154030033Y-96422926D01*
X148234999Y-90627893D01*
X148234999Y-89559518D01*
X148586224Y-89705000D01*
X149033776Y-89705000D01*
X149447261Y-89533729D01*
X149763729Y-89217261D01*
X149781021Y-89175515D01*
X149789325Y-89217261D01*
G36*
X147235000Y-90785753D02*
X147225204Y-90834999D01*
X147255060Y-90985090D01*
X147264011Y-91030089D01*
X147374520Y-91195479D01*
X147416268Y-91223374D01*
X150192872Y-93999978D01*
X149432075Y-93999978D01*
X145305001Y-89872905D01*
X145305001Y-89190053D01*
X145316271Y-89217261D01*
X145632739Y-89533729D01*
X146046224Y-89705000D01*
X146493776Y-89705000D01*
X146907261Y-89533729D01*
X147223729Y-89217261D01*
X147234999Y-89190053D01*
X147235000Y-90785753D01*
X147235000Y-90785753D01*
G37*
X147235000Y-90785753D02*
X147225204Y-90834999D01*
X147255060Y-90985090D01*
X147264011Y-91030089D01*
X147374520Y-91195479D01*
X147416268Y-91223374D01*
X150192872Y-93999978D01*
X149432075Y-93999978D01*
X145305001Y-89872905D01*
X145305001Y-89190053D01*
X145316271Y-89217261D01*
X145632739Y-89533729D01*
X146046224Y-89705000D01*
X146493776Y-89705000D01*
X146907261Y-89533729D01*
X147223729Y-89217261D01*
X147234999Y-89190053D01*
X147235000Y-90785753D01*
G36*
X152936271Y-87942739D02*
X152765000Y-88356224D01*
X152765000Y-88803776D01*
X152936271Y-89217261D01*
X153252739Y-89533729D01*
X153666224Y-89705000D01*
X154113776Y-89705000D01*
X154527261Y-89533729D01*
X154843729Y-89217261D01*
X154900584Y-89080000D01*
X157797892Y-89080000D01*
X156581271Y-90296621D01*
X156539520Y-90324518D01*
X156429011Y-90489909D01*
X156400000Y-90635755D01*
X156390205Y-90684998D01*
X156400000Y-90734239D01*
X156400000Y-90949679D01*
X156285374Y-91064305D01*
X156175000Y-91330773D01*
X156175000Y-91619197D01*
X156187757Y-91649995D01*
X153536100Y-91649995D01*
X151586029Y-89699925D01*
X151987261Y-89533729D01*
X152303729Y-89217261D01*
X152475000Y-88803776D01*
X152475000Y-88356224D01*
X152418144Y-88218962D01*
X152962106Y-87675001D01*
X153204009Y-87675001D01*
X152936271Y-87942739D01*
X152936271Y-87942739D01*
G37*
X152936271Y-87942739D02*
X152765000Y-88356224D01*
X152765000Y-88803776D01*
X152936271Y-89217261D01*
X153252739Y-89533729D01*
X153666224Y-89705000D01*
X154113776Y-89705000D01*
X154527261Y-89533729D01*
X154843729Y-89217261D01*
X154900584Y-89080000D01*
X157797892Y-89080000D01*
X156581271Y-90296621D01*
X156539520Y-90324518D01*
X156429011Y-90489909D01*
X156400000Y-90635755D01*
X156390205Y-90684998D01*
X156400000Y-90734239D01*
X156400000Y-90949679D01*
X156285374Y-91064305D01*
X156175000Y-91330773D01*
X156175000Y-91619197D01*
X156187757Y-91649995D01*
X153536100Y-91649995D01*
X151586029Y-89699925D01*
X151987261Y-89533729D01*
X152303729Y-89217261D01*
X152475000Y-88803776D01*
X152475000Y-88356224D01*
X152418144Y-88218962D01*
X152962106Y-87675001D01*
X153204009Y-87675001D01*
X152936271Y-87942739D01*
G36*
X127463369Y-77791434D02*
X127367000Y-78024088D01*
X127367000Y-78262750D01*
X127525250Y-78421000D01*
X128821000Y-78421000D01*
X128821000Y-78401000D01*
X129079000Y-78401000D01*
X129079000Y-78421000D01*
X130374750Y-78421000D01*
X130533000Y-78262750D01*
X130533000Y-78024088D01*
X130436631Y-77791434D01*
X130270197Y-77625000D01*
X135314010Y-77625000D01*
X135156271Y-77782739D01*
X135066697Y-77998990D01*
X135020359Y-77929641D01*
X134896317Y-77846758D01*
X134750000Y-77817654D01*
X133850000Y-77817654D01*
X133703683Y-77846758D01*
X133579641Y-77929641D01*
X133496758Y-78053683D01*
X133467654Y-78200000D01*
X133467654Y-79400000D01*
X133496758Y-79546317D01*
X133579641Y-79670359D01*
X133703683Y-79753242D01*
X133850000Y-79782346D01*
X134750000Y-79782346D01*
X134896317Y-79753242D01*
X135020359Y-79670359D01*
X135103242Y-79546317D01*
X135132346Y-79400000D01*
X135132346Y-79300000D01*
X135399010Y-79300000D01*
X135472739Y-79373729D01*
X135886224Y-79545000D01*
X136047894Y-79545000D01*
X136025240Y-79567654D01*
X135500000Y-79567654D01*
X135353683Y-79596758D01*
X135229641Y-79679641D01*
X135146758Y-79803683D01*
X135117654Y-79950000D01*
X135117654Y-80326138D01*
X135103242Y-80253683D01*
X135020359Y-80129641D01*
X134896317Y-80046758D01*
X134750000Y-80017654D01*
X133850000Y-80017654D01*
X133703683Y-80046758D01*
X133579641Y-80129641D01*
X133496758Y-80253683D01*
X133467654Y-80400000D01*
X133467654Y-80500000D01*
X133007106Y-80500000D01*
X132789452Y-80282346D01*
X132900000Y-80282346D01*
X133046317Y-80253242D01*
X133170359Y-80170359D01*
X133253242Y-80046317D01*
X133282346Y-79900000D01*
X133282346Y-79100000D01*
X133253242Y-78953683D01*
X133170359Y-78829641D01*
X133046317Y-78746758D01*
X132900000Y-78717654D01*
X131000000Y-78717654D01*
X130853683Y-78746758D01*
X130729641Y-78829641D01*
X130646758Y-78953683D01*
X130617654Y-79100000D01*
X130617654Y-79900000D01*
X130646758Y-80046317D01*
X130729641Y-80170359D01*
X130853683Y-80253242D01*
X131000000Y-80282346D01*
X131466531Y-80282346D01*
X131479012Y-80345090D01*
X131589521Y-80510480D01*
X131631269Y-80538375D01*
X132411623Y-81318729D01*
X132439520Y-81360480D01*
X132603967Y-81470359D01*
X132604910Y-81470989D01*
X132800000Y-81509796D01*
X132849246Y-81500000D01*
X133467654Y-81500000D01*
X133467654Y-81600000D01*
X133496758Y-81746317D01*
X133579641Y-81870359D01*
X133703683Y-81953242D01*
X133850000Y-81982346D01*
X134750000Y-81982346D01*
X134896317Y-81953242D01*
X135020359Y-81870359D01*
X135103242Y-81746317D01*
X135132346Y-81600000D01*
X135132346Y-80923862D01*
X135146758Y-80996317D01*
X135229641Y-81120359D01*
X135353683Y-81203242D01*
X135500000Y-81232346D01*
X136195549Y-81232346D01*
X134927896Y-82500000D01*
X133262455Y-82500000D01*
X133253242Y-82453683D01*
X133170359Y-82329641D01*
X133046317Y-82246758D01*
X132900000Y-82217654D01*
X131174999Y-82217654D01*
X131174999Y-81674245D01*
X131184795Y-81624999D01*
X131145988Y-81429909D01*
X131125866Y-81399794D01*
X131035479Y-81264519D01*
X130993729Y-81236623D01*
X130282346Y-80525240D01*
X130282346Y-80050000D01*
X130253242Y-79903683D01*
X130170359Y-79779641D01*
X130046317Y-79696758D01*
X129900000Y-79667654D01*
X128000000Y-79667654D01*
X127853683Y-79696758D01*
X127729641Y-79779641D01*
X127646758Y-79903683D01*
X127617654Y-80050000D01*
X127617654Y-80850000D01*
X127646758Y-80996317D01*
X127706862Y-81086268D01*
X127641435Y-81113368D01*
X127463369Y-81291434D01*
X127367000Y-81524088D01*
X127367000Y-81762750D01*
X127525250Y-81921000D01*
X128821000Y-81921000D01*
X128821000Y-81901000D01*
X129079000Y-81901000D01*
X129079000Y-81921000D01*
X129099000Y-81921000D01*
X129099000Y-82179000D01*
X129079000Y-82179000D01*
X129079000Y-82924750D01*
X129237250Y-83083000D01*
X130025911Y-83083000D01*
X130175000Y-83021246D01*
X130175000Y-83286586D01*
X130170359Y-83279641D01*
X130046317Y-83196758D01*
X129900000Y-83167654D01*
X128000000Y-83167654D01*
X127853683Y-83196758D01*
X127729641Y-83279641D01*
X127646758Y-83403683D01*
X127617654Y-83550000D01*
X127617654Y-84350000D01*
X127646758Y-84496317D01*
X127706862Y-84586268D01*
X127641435Y-84613368D01*
X127463369Y-84791434D01*
X127367000Y-85024088D01*
X127367000Y-85262750D01*
X127525250Y-85421000D01*
X128821000Y-85421000D01*
X128821000Y-85401000D01*
X129079000Y-85401000D01*
X129079000Y-85421000D01*
X129099000Y-85421000D01*
X129099000Y-85679000D01*
X129079000Y-85679000D01*
X129079000Y-86424750D01*
X129237250Y-86583000D01*
X130025911Y-86583000D01*
X130258565Y-86486632D01*
X130436631Y-86308566D01*
X130533000Y-86075912D01*
X130533000Y-85837250D01*
X130374752Y-85679002D01*
X130521895Y-85679002D01*
X130706767Y-85863874D01*
X130646758Y-85953683D01*
X130617654Y-86100000D01*
X130617654Y-86900000D01*
X130646758Y-87046317D01*
X130729641Y-87170359D01*
X130853683Y-87253242D01*
X131000000Y-87282346D01*
X131246842Y-87282346D01*
X131175000Y-87455788D01*
X131175000Y-87744212D01*
X131285374Y-88010680D01*
X131489320Y-88214626D01*
X131755788Y-88325000D01*
X132044212Y-88325000D01*
X132310680Y-88214626D01*
X132514626Y-88010680D01*
X132625000Y-87744212D01*
X132625000Y-87455788D01*
X132553158Y-87282346D01*
X132900000Y-87282346D01*
X133046317Y-87253242D01*
X133170359Y-87170359D01*
X133253242Y-87046317D01*
X133282346Y-86900000D01*
X133282346Y-86604451D01*
X133384978Y-86707083D01*
X133384979Y-88875000D01*
X131632106Y-88875000D01*
X130282346Y-87525240D01*
X130282346Y-87050000D01*
X130253242Y-86903683D01*
X130170359Y-86779641D01*
X130046317Y-86696758D01*
X129900000Y-86667654D01*
X128000000Y-86667654D01*
X127853683Y-86696758D01*
X127729641Y-86779641D01*
X127646758Y-86903683D01*
X127617654Y-87050000D01*
X127617654Y-87850000D01*
X127646758Y-87996317D01*
X127729641Y-88120359D01*
X127853683Y-88203242D01*
X128000000Y-88232346D01*
X129575240Y-88232346D01*
X130217894Y-88875000D01*
X126625000Y-88875000D01*
X126625000Y-85837250D01*
X127367000Y-85837250D01*
X127367000Y-86075912D01*
X127463369Y-86308566D01*
X127641435Y-86486632D01*
X127874089Y-86583000D01*
X128662750Y-86583000D01*
X128821000Y-86424750D01*
X128821000Y-85679000D01*
X127525250Y-85679000D01*
X127367000Y-85837250D01*
X126625000Y-85837250D01*
X126625000Y-82337250D01*
X127367000Y-82337250D01*
X127367000Y-82575912D01*
X127463369Y-82808566D01*
X127641435Y-82986632D01*
X127874089Y-83083000D01*
X128662750Y-83083000D01*
X128821000Y-82924750D01*
X128821000Y-82179000D01*
X127525250Y-82179000D01*
X127367000Y-82337250D01*
X126625000Y-82337250D01*
X126625000Y-78837250D01*
X127367000Y-78837250D01*
X127367000Y-79075912D01*
X127463369Y-79308566D01*
X127641435Y-79486632D01*
X127874089Y-79583000D01*
X128662750Y-79583000D01*
X128821000Y-79424750D01*
X128821000Y-78679000D01*
X129079000Y-78679000D01*
X129079000Y-79424750D01*
X129237250Y-79583000D01*
X130025911Y-79583000D01*
X130258565Y-79486632D01*
X130436631Y-79308566D01*
X130533000Y-79075912D01*
X130533000Y-78837250D01*
X130374750Y-78679000D01*
X129079000Y-78679000D01*
X128821000Y-78679000D01*
X127525250Y-78679000D01*
X127367000Y-78837250D01*
X126625000Y-78837250D01*
X126625000Y-77625000D01*
X127629803Y-77625000D01*
X127463369Y-77791434D01*
X127463369Y-77791434D01*
G37*
X127463369Y-77791434D02*
X127367000Y-78024088D01*
X127367000Y-78262750D01*
X127525250Y-78421000D01*
X128821000Y-78421000D01*
X128821000Y-78401000D01*
X129079000Y-78401000D01*
X129079000Y-78421000D01*
X130374750Y-78421000D01*
X130533000Y-78262750D01*
X130533000Y-78024088D01*
X130436631Y-77791434D01*
X130270197Y-77625000D01*
X135314010Y-77625000D01*
X135156271Y-77782739D01*
X135066697Y-77998990D01*
X135020359Y-77929641D01*
X134896317Y-77846758D01*
X134750000Y-77817654D01*
X133850000Y-77817654D01*
X133703683Y-77846758D01*
X133579641Y-77929641D01*
X133496758Y-78053683D01*
X133467654Y-78200000D01*
X133467654Y-79400000D01*
X133496758Y-79546317D01*
X133579641Y-79670359D01*
X133703683Y-79753242D01*
X133850000Y-79782346D01*
X134750000Y-79782346D01*
X134896317Y-79753242D01*
X135020359Y-79670359D01*
X135103242Y-79546317D01*
X135132346Y-79400000D01*
X135132346Y-79300000D01*
X135399010Y-79300000D01*
X135472739Y-79373729D01*
X135886224Y-79545000D01*
X136047894Y-79545000D01*
X136025240Y-79567654D01*
X135500000Y-79567654D01*
X135353683Y-79596758D01*
X135229641Y-79679641D01*
X135146758Y-79803683D01*
X135117654Y-79950000D01*
X135117654Y-80326138D01*
X135103242Y-80253683D01*
X135020359Y-80129641D01*
X134896317Y-80046758D01*
X134750000Y-80017654D01*
X133850000Y-80017654D01*
X133703683Y-80046758D01*
X133579641Y-80129641D01*
X133496758Y-80253683D01*
X133467654Y-80400000D01*
X133467654Y-80500000D01*
X133007106Y-80500000D01*
X132789452Y-80282346D01*
X132900000Y-80282346D01*
X133046317Y-80253242D01*
X133170359Y-80170359D01*
X133253242Y-80046317D01*
X133282346Y-79900000D01*
X133282346Y-79100000D01*
X133253242Y-78953683D01*
X133170359Y-78829641D01*
X133046317Y-78746758D01*
X132900000Y-78717654D01*
X131000000Y-78717654D01*
X130853683Y-78746758D01*
X130729641Y-78829641D01*
X130646758Y-78953683D01*
X130617654Y-79100000D01*
X130617654Y-79900000D01*
X130646758Y-80046317D01*
X130729641Y-80170359D01*
X130853683Y-80253242D01*
X131000000Y-80282346D01*
X131466531Y-80282346D01*
X131479012Y-80345090D01*
X131589521Y-80510480D01*
X131631269Y-80538375D01*
X132411623Y-81318729D01*
X132439520Y-81360480D01*
X132603967Y-81470359D01*
X132604910Y-81470989D01*
X132800000Y-81509796D01*
X132849246Y-81500000D01*
X133467654Y-81500000D01*
X133467654Y-81600000D01*
X133496758Y-81746317D01*
X133579641Y-81870359D01*
X133703683Y-81953242D01*
X133850000Y-81982346D01*
X134750000Y-81982346D01*
X134896317Y-81953242D01*
X135020359Y-81870359D01*
X135103242Y-81746317D01*
X135132346Y-81600000D01*
X135132346Y-80923862D01*
X135146758Y-80996317D01*
X135229641Y-81120359D01*
X135353683Y-81203242D01*
X135500000Y-81232346D01*
X136195549Y-81232346D01*
X134927896Y-82500000D01*
X133262455Y-82500000D01*
X133253242Y-82453683D01*
X133170359Y-82329641D01*
X133046317Y-82246758D01*
X132900000Y-82217654D01*
X131174999Y-82217654D01*
X131174999Y-81674245D01*
X131184795Y-81624999D01*
X131145988Y-81429909D01*
X131125866Y-81399794D01*
X131035479Y-81264519D01*
X130993729Y-81236623D01*
X130282346Y-80525240D01*
X130282346Y-80050000D01*
X130253242Y-79903683D01*
X130170359Y-79779641D01*
X130046317Y-79696758D01*
X129900000Y-79667654D01*
X128000000Y-79667654D01*
X127853683Y-79696758D01*
X127729641Y-79779641D01*
X127646758Y-79903683D01*
X127617654Y-80050000D01*
X127617654Y-80850000D01*
X127646758Y-80996317D01*
X127706862Y-81086268D01*
X127641435Y-81113368D01*
X127463369Y-81291434D01*
X127367000Y-81524088D01*
X127367000Y-81762750D01*
X127525250Y-81921000D01*
X128821000Y-81921000D01*
X128821000Y-81901000D01*
X129079000Y-81901000D01*
X129079000Y-81921000D01*
X129099000Y-81921000D01*
X129099000Y-82179000D01*
X129079000Y-82179000D01*
X129079000Y-82924750D01*
X129237250Y-83083000D01*
X130025911Y-83083000D01*
X130175000Y-83021246D01*
X130175000Y-83286586D01*
X130170359Y-83279641D01*
X130046317Y-83196758D01*
X129900000Y-83167654D01*
X128000000Y-83167654D01*
X127853683Y-83196758D01*
X127729641Y-83279641D01*
X127646758Y-83403683D01*
X127617654Y-83550000D01*
X127617654Y-84350000D01*
X127646758Y-84496317D01*
X127706862Y-84586268D01*
X127641435Y-84613368D01*
X127463369Y-84791434D01*
X127367000Y-85024088D01*
X127367000Y-85262750D01*
X127525250Y-85421000D01*
X128821000Y-85421000D01*
X128821000Y-85401000D01*
X129079000Y-85401000D01*
X129079000Y-85421000D01*
X129099000Y-85421000D01*
X129099000Y-85679000D01*
X129079000Y-85679000D01*
X129079000Y-86424750D01*
X129237250Y-86583000D01*
X130025911Y-86583000D01*
X130258565Y-86486632D01*
X130436631Y-86308566D01*
X130533000Y-86075912D01*
X130533000Y-85837250D01*
X130374752Y-85679002D01*
X130521895Y-85679002D01*
X130706767Y-85863874D01*
X130646758Y-85953683D01*
X130617654Y-86100000D01*
X130617654Y-86900000D01*
X130646758Y-87046317D01*
X130729641Y-87170359D01*
X130853683Y-87253242D01*
X131000000Y-87282346D01*
X131246842Y-87282346D01*
X131175000Y-87455788D01*
X131175000Y-87744212D01*
X131285374Y-88010680D01*
X131489320Y-88214626D01*
X131755788Y-88325000D01*
X132044212Y-88325000D01*
X132310680Y-88214626D01*
X132514626Y-88010680D01*
X132625000Y-87744212D01*
X132625000Y-87455788D01*
X132553158Y-87282346D01*
X132900000Y-87282346D01*
X133046317Y-87253242D01*
X133170359Y-87170359D01*
X133253242Y-87046317D01*
X133282346Y-86900000D01*
X133282346Y-86604451D01*
X133384978Y-86707083D01*
X133384979Y-88875000D01*
X131632106Y-88875000D01*
X130282346Y-87525240D01*
X130282346Y-87050000D01*
X130253242Y-86903683D01*
X130170359Y-86779641D01*
X130046317Y-86696758D01*
X129900000Y-86667654D01*
X128000000Y-86667654D01*
X127853683Y-86696758D01*
X127729641Y-86779641D01*
X127646758Y-86903683D01*
X127617654Y-87050000D01*
X127617654Y-87850000D01*
X127646758Y-87996317D01*
X127729641Y-88120359D01*
X127853683Y-88203242D01*
X128000000Y-88232346D01*
X129575240Y-88232346D01*
X130217894Y-88875000D01*
X126625000Y-88875000D01*
X126625000Y-85837250D01*
X127367000Y-85837250D01*
X127367000Y-86075912D01*
X127463369Y-86308566D01*
X127641435Y-86486632D01*
X127874089Y-86583000D01*
X128662750Y-86583000D01*
X128821000Y-86424750D01*
X128821000Y-85679000D01*
X127525250Y-85679000D01*
X127367000Y-85837250D01*
X126625000Y-85837250D01*
X126625000Y-82337250D01*
X127367000Y-82337250D01*
X127367000Y-82575912D01*
X127463369Y-82808566D01*
X127641435Y-82986632D01*
X127874089Y-83083000D01*
X128662750Y-83083000D01*
X128821000Y-82924750D01*
X128821000Y-82179000D01*
X127525250Y-82179000D01*
X127367000Y-82337250D01*
X126625000Y-82337250D01*
X126625000Y-78837250D01*
X127367000Y-78837250D01*
X127367000Y-79075912D01*
X127463369Y-79308566D01*
X127641435Y-79486632D01*
X127874089Y-79583000D01*
X128662750Y-79583000D01*
X128821000Y-79424750D01*
X128821000Y-78679000D01*
X129079000Y-78679000D01*
X129079000Y-79424750D01*
X129237250Y-79583000D01*
X130025911Y-79583000D01*
X130258565Y-79486632D01*
X130436631Y-79308566D01*
X130533000Y-79075912D01*
X130533000Y-78837250D01*
X130374750Y-78679000D01*
X129079000Y-78679000D01*
X128821000Y-78679000D01*
X127525250Y-78679000D01*
X127367000Y-78837250D01*
X126625000Y-78837250D01*
X126625000Y-77625000D01*
X127629803Y-77625000D01*
X127463369Y-77791434D01*
G36*
X144017654Y-84050000D02*
X144046758Y-84196317D01*
X144129641Y-84320359D01*
X144253683Y-84403242D01*
X144400000Y-84432346D01*
X145200000Y-84432346D01*
X145346317Y-84403242D01*
X145470359Y-84320359D01*
X145553242Y-84196317D01*
X145582346Y-84050000D01*
X145582346Y-83600000D01*
X147842894Y-83600000D01*
X148067654Y-83824760D01*
X148067654Y-84700000D01*
X148096758Y-84846317D01*
X148115923Y-84874999D01*
X147174241Y-84874999D01*
X147125000Y-84865204D01*
X147075759Y-84874999D01*
X147075758Y-84874999D01*
X146929911Y-84904010D01*
X146764521Y-85014519D01*
X146736626Y-85056267D01*
X146532346Y-85260547D01*
X146532346Y-85150000D01*
X146503242Y-85003683D01*
X146420359Y-84879641D01*
X146296317Y-84796758D01*
X146150000Y-84767654D01*
X145350000Y-84767654D01*
X145203683Y-84796758D01*
X145079641Y-84879641D01*
X144996758Y-85003683D01*
X144967654Y-85150000D01*
X144967654Y-87050000D01*
X144996758Y-87196317D01*
X145079641Y-87320359D01*
X145203683Y-87403242D01*
X145350000Y-87432346D01*
X146150000Y-87432346D01*
X146296317Y-87403242D01*
X146420359Y-87320359D01*
X146503242Y-87196317D01*
X146532346Y-87050000D01*
X146532346Y-86583470D01*
X146595090Y-86570989D01*
X146760480Y-86460480D01*
X146788376Y-86418730D01*
X147332108Y-85874999D01*
X148067654Y-85874999D01*
X148067654Y-86075239D01*
X146631038Y-87511856D01*
X146493776Y-87455000D01*
X146046224Y-87455000D01*
X145632739Y-87626271D01*
X145316271Y-87942739D01*
X145298980Y-87984484D01*
X145275990Y-87868909D01*
X145165481Y-87703519D01*
X145123734Y-87675625D01*
X144807147Y-87359038D01*
X144883000Y-87175911D01*
X144883000Y-86387250D01*
X144724750Y-86229000D01*
X143979000Y-86229000D01*
X143979000Y-86249000D01*
X143721000Y-86249000D01*
X143721000Y-86229000D01*
X143701000Y-86229000D01*
X143701000Y-85971000D01*
X143721000Y-85971000D01*
X143721000Y-84675250D01*
X143979000Y-84675250D01*
X143979000Y-85971000D01*
X144724750Y-85971000D01*
X144883000Y-85812750D01*
X144883000Y-85024089D01*
X144786632Y-84791435D01*
X144608566Y-84613369D01*
X144375912Y-84517000D01*
X144137250Y-84517000D01*
X143979000Y-84675250D01*
X143721000Y-84675250D01*
X143562750Y-84517000D01*
X143324088Y-84517000D01*
X143091434Y-84613369D01*
X142913368Y-84791435D01*
X142886268Y-84856862D01*
X142796317Y-84796758D01*
X142650000Y-84767654D01*
X142272330Y-84767654D01*
X142320481Y-84735481D01*
X142346516Y-84696516D01*
X142385481Y-84670481D01*
X142495990Y-84505091D01*
X142525001Y-84359243D01*
X142534796Y-84310001D01*
X142525001Y-84260758D01*
X142525001Y-84147103D01*
X144017654Y-82654451D01*
X144017654Y-84050000D01*
X144017654Y-84050000D01*
G37*
X144017654Y-84050000D02*
X144046758Y-84196317D01*
X144129641Y-84320359D01*
X144253683Y-84403242D01*
X144400000Y-84432346D01*
X145200000Y-84432346D01*
X145346317Y-84403242D01*
X145470359Y-84320359D01*
X145553242Y-84196317D01*
X145582346Y-84050000D01*
X145582346Y-83600000D01*
X147842894Y-83600000D01*
X148067654Y-83824760D01*
X148067654Y-84700000D01*
X148096758Y-84846317D01*
X148115923Y-84874999D01*
X147174241Y-84874999D01*
X147125000Y-84865204D01*
X147075759Y-84874999D01*
X147075758Y-84874999D01*
X146929911Y-84904010D01*
X146764521Y-85014519D01*
X146736626Y-85056267D01*
X146532346Y-85260547D01*
X146532346Y-85150000D01*
X146503242Y-85003683D01*
X146420359Y-84879641D01*
X146296317Y-84796758D01*
X146150000Y-84767654D01*
X145350000Y-84767654D01*
X145203683Y-84796758D01*
X145079641Y-84879641D01*
X144996758Y-85003683D01*
X144967654Y-85150000D01*
X144967654Y-87050000D01*
X144996758Y-87196317D01*
X145079641Y-87320359D01*
X145203683Y-87403242D01*
X145350000Y-87432346D01*
X146150000Y-87432346D01*
X146296317Y-87403242D01*
X146420359Y-87320359D01*
X146503242Y-87196317D01*
X146532346Y-87050000D01*
X146532346Y-86583470D01*
X146595090Y-86570989D01*
X146760480Y-86460480D01*
X146788376Y-86418730D01*
X147332108Y-85874999D01*
X148067654Y-85874999D01*
X148067654Y-86075239D01*
X146631038Y-87511856D01*
X146493776Y-87455000D01*
X146046224Y-87455000D01*
X145632739Y-87626271D01*
X145316271Y-87942739D01*
X145298980Y-87984484D01*
X145275990Y-87868909D01*
X145165481Y-87703519D01*
X145123734Y-87675625D01*
X144807147Y-87359038D01*
X144883000Y-87175911D01*
X144883000Y-86387250D01*
X144724750Y-86229000D01*
X143979000Y-86229000D01*
X143979000Y-86249000D01*
X143721000Y-86249000D01*
X143721000Y-86229000D01*
X143701000Y-86229000D01*
X143701000Y-85971000D01*
X143721000Y-85971000D01*
X143721000Y-84675250D01*
X143979000Y-84675250D01*
X143979000Y-85971000D01*
X144724750Y-85971000D01*
X144883000Y-85812750D01*
X144883000Y-85024089D01*
X144786632Y-84791435D01*
X144608566Y-84613369D01*
X144375912Y-84517000D01*
X144137250Y-84517000D01*
X143979000Y-84675250D01*
X143721000Y-84675250D01*
X143562750Y-84517000D01*
X143324088Y-84517000D01*
X143091434Y-84613369D01*
X142913368Y-84791435D01*
X142886268Y-84856862D01*
X142796317Y-84796758D01*
X142650000Y-84767654D01*
X142272330Y-84767654D01*
X142320481Y-84735481D01*
X142346516Y-84696516D01*
X142385481Y-84670481D01*
X142495990Y-84505091D01*
X142525001Y-84359243D01*
X142534796Y-84310001D01*
X142525001Y-84260758D01*
X142525001Y-84147103D01*
X144017654Y-82654451D01*
X144017654Y-84050000D01*
G36*
X141579641Y-84879641D02*
X141496758Y-85003683D01*
X141467654Y-85150000D01*
X141467654Y-86875001D01*
X141383000Y-86875001D01*
X141383000Y-86387250D01*
X141224750Y-86229000D01*
X140479000Y-86229000D01*
X140479000Y-86249000D01*
X140221000Y-86249000D01*
X140221000Y-86229000D01*
X140201000Y-86229000D01*
X140201000Y-85971000D01*
X140221000Y-85971000D01*
X140221000Y-85951000D01*
X140479000Y-85951000D01*
X140479000Y-85971000D01*
X141224750Y-85971000D01*
X141383000Y-85812750D01*
X141383000Y-85024089D01*
X141321246Y-84875001D01*
X141586585Y-84875001D01*
X141579641Y-84879641D01*
X141579641Y-84879641D01*
G37*
X141579641Y-84879641D02*
X141496758Y-85003683D01*
X141467654Y-85150000D01*
X141467654Y-86875001D01*
X141383000Y-86875001D01*
X141383000Y-86387250D01*
X141224750Y-86229000D01*
X140479000Y-86229000D01*
X140479000Y-86249000D01*
X140221000Y-86249000D01*
X140221000Y-86229000D01*
X140201000Y-86229000D01*
X140201000Y-85971000D01*
X140221000Y-85971000D01*
X140221000Y-85951000D01*
X140479000Y-85951000D01*
X140479000Y-85971000D01*
X141224750Y-85971000D01*
X141383000Y-85812750D01*
X141383000Y-85024089D01*
X141321246Y-84875001D01*
X141586585Y-84875001D01*
X141579641Y-84879641D01*
G36*
X167159772Y-65499174D02*
X167788769Y-65710856D01*
X168357631Y-66052662D01*
X168839827Y-66508652D01*
X169212856Y-67057549D01*
X169459317Y-67673746D01*
X169570518Y-68345454D01*
X169575000Y-68505923D01*
X169575000Y-75875000D01*
X165629405Y-75875000D01*
X165725000Y-75644212D01*
X165725000Y-75355788D01*
X165614626Y-75089320D01*
X165410680Y-74885374D01*
X165144212Y-74775000D01*
X164855788Y-74775000D01*
X164589320Y-74885374D01*
X164385374Y-75089320D01*
X164275000Y-75355788D01*
X164275000Y-75644212D01*
X164370595Y-75875000D01*
X125500000Y-75875000D01*
X125452165Y-75884515D01*
X125411612Y-75911612D01*
X125384515Y-75952165D01*
X125375000Y-76000000D01*
X125375000Y-90699583D01*
X125250000Y-91001360D01*
X125250000Y-91498640D01*
X125375000Y-91800417D01*
X125375000Y-92704048D01*
X125323306Y-92755742D01*
X125375000Y-92807436D01*
X125375000Y-92890918D01*
X125184663Y-92953804D01*
X124980096Y-93517768D01*
X125006921Y-94117088D01*
X125113751Y-94375000D01*
X120425000Y-94375000D01*
X120425000Y-72025952D01*
X142225000Y-72025952D01*
X142225000Y-72374048D01*
X142358211Y-72695648D01*
X142568629Y-72906066D01*
X142485374Y-72989320D01*
X142375000Y-73255788D01*
X142375000Y-73544212D01*
X142485374Y-73810680D01*
X142689320Y-74014626D01*
X142955788Y-74125000D01*
X143244212Y-74125000D01*
X143510680Y-74014626D01*
X143714626Y-73810680D01*
X143825000Y-73544212D01*
X143825000Y-73255788D01*
X143714626Y-72989320D01*
X143631372Y-72906066D01*
X143841789Y-72695648D01*
X143975000Y-72374048D01*
X143975000Y-72355788D01*
X149775000Y-72355788D01*
X149775000Y-72644212D01*
X149885374Y-72910680D01*
X150089320Y-73114626D01*
X150125000Y-73129405D01*
X150125000Y-73174048D01*
X150258211Y-73495648D01*
X150504352Y-73741789D01*
X150825952Y-73875000D01*
X151174048Y-73875000D01*
X151495648Y-73741789D01*
X151741789Y-73495648D01*
X151875000Y-73174048D01*
X151875000Y-72825952D01*
X151741789Y-72504352D01*
X151495648Y-72258211D01*
X151174048Y-72125000D01*
X151129405Y-72125000D01*
X151114626Y-72089320D01*
X150910680Y-71885374D01*
X150644212Y-71775000D01*
X150355788Y-71775000D01*
X150089320Y-71885374D01*
X149885374Y-72089320D01*
X149775000Y-72355788D01*
X143975000Y-72355788D01*
X143975000Y-72025952D01*
X143841789Y-71704352D01*
X143595648Y-71458211D01*
X143274048Y-71325000D01*
X142925952Y-71325000D01*
X142604352Y-71458211D01*
X142358211Y-71704352D01*
X142225000Y-72025952D01*
X120425000Y-72025952D01*
X120425000Y-70825952D01*
X152125000Y-70825952D01*
X152125000Y-71174048D01*
X152258211Y-71495648D01*
X152468629Y-71706066D01*
X152385374Y-71789320D01*
X152275000Y-72055788D01*
X152275000Y-72344212D01*
X152385374Y-72610680D01*
X152589320Y-72814626D01*
X152855788Y-72925000D01*
X153144212Y-72925000D01*
X153410680Y-72814626D01*
X153614626Y-72610680D01*
X153725000Y-72344212D01*
X153725000Y-72055788D01*
X153614626Y-71789320D01*
X153531372Y-71706066D01*
X153741789Y-71495648D01*
X153875000Y-71174048D01*
X153875000Y-70825952D01*
X153741789Y-70504352D01*
X153495648Y-70258211D01*
X153174048Y-70125000D01*
X152825952Y-70125000D01*
X152504352Y-70258211D01*
X152258211Y-70504352D01*
X152125000Y-70825952D01*
X120425000Y-70825952D01*
X120425000Y-69425952D01*
X145125000Y-69425952D01*
X145125000Y-69774048D01*
X145258211Y-70095648D01*
X145504352Y-70341789D01*
X145825952Y-70475000D01*
X146174048Y-70475000D01*
X146495648Y-70341789D01*
X146713002Y-70124435D01*
X146955788Y-70225000D01*
X147244212Y-70225000D01*
X147510680Y-70114626D01*
X147714626Y-69910680D01*
X147825000Y-69644212D01*
X147825000Y-69355788D01*
X147714626Y-69089320D01*
X147510680Y-68885374D01*
X147244212Y-68775000D01*
X146955788Y-68775000D01*
X146689320Y-68885374D01*
X146606066Y-68968629D01*
X146495648Y-68858211D01*
X146174048Y-68725000D01*
X145825952Y-68725000D01*
X145504352Y-68858211D01*
X145258211Y-69104352D01*
X145125000Y-69425952D01*
X120425000Y-69425952D01*
X120425000Y-68523016D01*
X120495322Y-67875680D01*
X122375000Y-67875680D01*
X122375000Y-68124320D01*
X122470151Y-68354034D01*
X122645966Y-68529849D01*
X122875680Y-68625000D01*
X123124320Y-68625000D01*
X123354034Y-68529849D01*
X123529849Y-68354034D01*
X123625000Y-68124320D01*
X123625000Y-67875680D01*
X123529849Y-67645966D01*
X123354034Y-67470151D01*
X123124320Y-67375000D01*
X122875680Y-67375000D01*
X122645966Y-67470151D01*
X122470151Y-67645966D01*
X122375000Y-67875680D01*
X120495322Y-67875680D01*
X120499174Y-67840228D01*
X120710856Y-67211231D01*
X121052662Y-66642369D01*
X121508652Y-66160173D01*
X122057549Y-65787144D01*
X122673746Y-65540683D01*
X123345454Y-65429482D01*
X123505923Y-65425000D01*
X166476984Y-65425000D01*
X167159772Y-65499174D01*
X167159772Y-65499174D01*
G37*
X167159772Y-65499174D02*
X167788769Y-65710856D01*
X168357631Y-66052662D01*
X168839827Y-66508652D01*
X169212856Y-67057549D01*
X169459317Y-67673746D01*
X169570518Y-68345454D01*
X169575000Y-68505923D01*
X169575000Y-75875000D01*
X165629405Y-75875000D01*
X165725000Y-75644212D01*
X165725000Y-75355788D01*
X165614626Y-75089320D01*
X165410680Y-74885374D01*
X165144212Y-74775000D01*
X164855788Y-74775000D01*
X164589320Y-74885374D01*
X164385374Y-75089320D01*
X164275000Y-75355788D01*
X164275000Y-75644212D01*
X164370595Y-75875000D01*
X125500000Y-75875000D01*
X125452165Y-75884515D01*
X125411612Y-75911612D01*
X125384515Y-75952165D01*
X125375000Y-76000000D01*
X125375000Y-90699583D01*
X125250000Y-91001360D01*
X125250000Y-91498640D01*
X125375000Y-91800417D01*
X125375000Y-92704048D01*
X125323306Y-92755742D01*
X125375000Y-92807436D01*
X125375000Y-92890918D01*
X125184663Y-92953804D01*
X124980096Y-93517768D01*
X125006921Y-94117088D01*
X125113751Y-94375000D01*
X120425000Y-94375000D01*
X120425000Y-72025952D01*
X142225000Y-72025952D01*
X142225000Y-72374048D01*
X142358211Y-72695648D01*
X142568629Y-72906066D01*
X142485374Y-72989320D01*
X142375000Y-73255788D01*
X142375000Y-73544212D01*
X142485374Y-73810680D01*
X142689320Y-74014626D01*
X142955788Y-74125000D01*
X143244212Y-74125000D01*
X143510680Y-74014626D01*
X143714626Y-73810680D01*
X143825000Y-73544212D01*
X143825000Y-73255788D01*
X143714626Y-72989320D01*
X143631372Y-72906066D01*
X143841789Y-72695648D01*
X143975000Y-72374048D01*
X143975000Y-72355788D01*
X149775000Y-72355788D01*
X149775000Y-72644212D01*
X149885374Y-72910680D01*
X150089320Y-73114626D01*
X150125000Y-73129405D01*
X150125000Y-73174048D01*
X150258211Y-73495648D01*
X150504352Y-73741789D01*
X150825952Y-73875000D01*
X151174048Y-73875000D01*
X151495648Y-73741789D01*
X151741789Y-73495648D01*
X151875000Y-73174048D01*
X151875000Y-72825952D01*
X151741789Y-72504352D01*
X151495648Y-72258211D01*
X151174048Y-72125000D01*
X151129405Y-72125000D01*
X151114626Y-72089320D01*
X150910680Y-71885374D01*
X150644212Y-71775000D01*
X150355788Y-71775000D01*
X150089320Y-71885374D01*
X149885374Y-72089320D01*
X149775000Y-72355788D01*
X143975000Y-72355788D01*
X143975000Y-72025952D01*
X143841789Y-71704352D01*
X143595648Y-71458211D01*
X143274048Y-71325000D01*
X142925952Y-71325000D01*
X142604352Y-71458211D01*
X142358211Y-71704352D01*
X142225000Y-72025952D01*
X120425000Y-72025952D01*
X120425000Y-70825952D01*
X152125000Y-70825952D01*
X152125000Y-71174048D01*
X152258211Y-71495648D01*
X152468629Y-71706066D01*
X152385374Y-71789320D01*
X152275000Y-72055788D01*
X152275000Y-72344212D01*
X152385374Y-72610680D01*
X152589320Y-72814626D01*
X152855788Y-72925000D01*
X153144212Y-72925000D01*
X153410680Y-72814626D01*
X153614626Y-72610680D01*
X153725000Y-72344212D01*
X153725000Y-72055788D01*
X153614626Y-71789320D01*
X153531372Y-71706066D01*
X153741789Y-71495648D01*
X153875000Y-71174048D01*
X153875000Y-70825952D01*
X153741789Y-70504352D01*
X153495648Y-70258211D01*
X153174048Y-70125000D01*
X152825952Y-70125000D01*
X152504352Y-70258211D01*
X152258211Y-70504352D01*
X152125000Y-70825952D01*
X120425000Y-70825952D01*
X120425000Y-69425952D01*
X145125000Y-69425952D01*
X145125000Y-69774048D01*
X145258211Y-70095648D01*
X145504352Y-70341789D01*
X145825952Y-70475000D01*
X146174048Y-70475000D01*
X146495648Y-70341789D01*
X146713002Y-70124435D01*
X146955788Y-70225000D01*
X147244212Y-70225000D01*
X147510680Y-70114626D01*
X147714626Y-69910680D01*
X147825000Y-69644212D01*
X147825000Y-69355788D01*
X147714626Y-69089320D01*
X147510680Y-68885374D01*
X147244212Y-68775000D01*
X146955788Y-68775000D01*
X146689320Y-68885374D01*
X146606066Y-68968629D01*
X146495648Y-68858211D01*
X146174048Y-68725000D01*
X145825952Y-68725000D01*
X145504352Y-68858211D01*
X145258211Y-69104352D01*
X145125000Y-69425952D01*
X120425000Y-69425952D01*
X120425000Y-68523016D01*
X120495322Y-67875680D01*
X122375000Y-67875680D01*
X122375000Y-68124320D01*
X122470151Y-68354034D01*
X122645966Y-68529849D01*
X122875680Y-68625000D01*
X123124320Y-68625000D01*
X123354034Y-68529849D01*
X123529849Y-68354034D01*
X123625000Y-68124320D01*
X123625000Y-67875680D01*
X123529849Y-67645966D01*
X123354034Y-67470151D01*
X123124320Y-67375000D01*
X122875680Y-67375000D01*
X122645966Y-67470151D01*
X122470151Y-67645966D01*
X122375000Y-67875680D01*
X120495322Y-67875680D01*
X120499174Y-67840228D01*
X120710856Y-67211231D01*
X121052662Y-66642369D01*
X121508652Y-66160173D01*
X122057549Y-65787144D01*
X122673746Y-65540683D01*
X123345454Y-65429482D01*
X123505923Y-65425000D01*
X166476984Y-65425000D01*
X167159772Y-65499174D01*
M02*
