G04 #@! TF.GenerationSoftware,KiCad,Pcbnew,no-vcs-found-7433~57~ubuntu16.10.1*
G04 #@! TF.CreationDate,2017-01-10T21:31:49+01:00*
G04 #@! TF.ProjectId,can-node,63616E2D6E6F64652E6B696361645F70,rev?*
G04 #@! TF.FileFunction,Copper,L1,Top,Signal*
G04 #@! TF.FilePolarity,Positive*
%FSLAX46Y46*%
G04 Gerber Fmt 4.6, Leading zero omitted, Abs format (unit mm)*
G04 Created by KiCad (PCBNEW no-vcs-found-7433~57~ubuntu16.10.1) date Tue Jan 10 21:31:49 2017*
%MOMM*%
%LPD*%
G01*
G04 APERTURE LIST*
%ADD10C,0.100000*%
%ADD11R,0.600000X1.100000*%
%ADD12R,2.200000X0.600000*%
%ADD13C,1.500000*%
%ADD14R,0.750000X0.800000*%
%ADD15R,0.400000X0.600000*%
%ADD16R,0.800000X0.750000*%
%ADD17R,2.500000X3.000000*%
%ADD18R,1.600000X1.000000*%
%ADD19R,1.000000X1.250000*%
%ADD20R,1.000000X0.250000*%
%ADD21R,0.250000X1.000000*%
%ADD22R,0.600000X0.500000*%
%ADD23R,0.900000X0.450000*%
%ADD24R,2.500000X1.000000*%
%ADD25R,1.000000X1.600000*%
%ADD26R,1.250000X1.000000*%
%ADD27R,0.500000X0.600000*%
%ADD28R,3.500120X1.800860*%
%ADD29R,1.800860X3.500120*%
%ADD30R,1.220000X0.910000*%
%ADD31R,0.797560X0.797560*%
%ADD32R,3.500000X5.500000*%
%ADD33R,0.900000X1.700000*%
%ADD34R,0.600000X0.400000*%
%ADD35R,0.800000X0.800000*%
%ADD36R,0.400000X0.900000*%
%ADD37R,1.000000X0.500000*%
%ADD38R,1.600000X2.500000*%
%ADD39C,0.600000*%
%ADD40C,1.000000*%
%ADD41R,2.499360X2.301240*%
%ADD42C,1.400000*%
%ADD43R,0.900000X0.800000*%
%ADD44R,1.000000X0.800000*%
%ADD45C,0.250000*%
%ADD46C,0.500000*%
%ADD47C,0.750000*%
%ADD48C,0.254000*%
G04 APERTURE END LIST*
D10*
D11*
X149050000Y-70350000D03*
X150000000Y-70350000D03*
X150950000Y-70350000D03*
X149050000Y-67650000D03*
X150000000Y-67650000D03*
X150950000Y-67650000D03*
D12*
X138700000Y-71095000D03*
X133300000Y-71095000D03*
X138700000Y-72365000D03*
X133300000Y-72365000D03*
X138700000Y-73635000D03*
X133300000Y-73635000D03*
X138700000Y-74905000D03*
X133300000Y-74905000D03*
D13*
X136110000Y-78420000D03*
X138650000Y-78420000D03*
X141190000Y-78420000D03*
X143730000Y-78420000D03*
X148810000Y-78420000D03*
X153890000Y-78420000D03*
X153890000Y-88580000D03*
X151350000Y-88580000D03*
X148810000Y-88580000D03*
X146270000Y-88580000D03*
X143730000Y-88580000D03*
X141190000Y-88580000D03*
X138650000Y-88580000D03*
X136110000Y-88580000D03*
D14*
X145000000Y-93250000D03*
X145000000Y-94750000D03*
D15*
X137550000Y-92500000D03*
X138450000Y-92500000D03*
X137550000Y-95500000D03*
X138450000Y-95500000D03*
D16*
X137250000Y-94000000D03*
X138750000Y-94000000D03*
D17*
X138750000Y-98500000D03*
D18*
X145000000Y-99800000D03*
X145000000Y-97200000D03*
D19*
X150500000Y-91250000D03*
X152500000Y-91250000D03*
D20*
X149300000Y-97250000D03*
X149300000Y-97750000D03*
X149300000Y-98250000D03*
X149300000Y-98750000D03*
X149300000Y-99250000D03*
X149300000Y-99750000D03*
X149300000Y-100250000D03*
X149300000Y-100750000D03*
X149300000Y-101250000D03*
X149300000Y-101750000D03*
X149300000Y-102250000D03*
X149300000Y-102750000D03*
X149300000Y-103250000D03*
X149300000Y-103750000D03*
X149300000Y-104250000D03*
X149300000Y-104750000D03*
D21*
X151250000Y-106700000D03*
X151750000Y-106700000D03*
X152250000Y-106700000D03*
X152750000Y-106700000D03*
X153250000Y-106700000D03*
X153750000Y-106700000D03*
X154250000Y-106700000D03*
X154750000Y-106700000D03*
X155250000Y-106700000D03*
X155750000Y-106700000D03*
X156250000Y-106700000D03*
X156750000Y-106700000D03*
X157250000Y-106700000D03*
X157750000Y-106700000D03*
X158250000Y-106700000D03*
X158750000Y-106700000D03*
D20*
X160700000Y-104750000D03*
X160700000Y-104250000D03*
X160700000Y-103750000D03*
X160700000Y-103250000D03*
X160700000Y-102750000D03*
X160700000Y-102250000D03*
X160700000Y-101750000D03*
X160700000Y-101250000D03*
X160700000Y-100750000D03*
X160700000Y-100250000D03*
X160700000Y-99750000D03*
X160700000Y-99250000D03*
X160700000Y-98750000D03*
X160700000Y-98250000D03*
X160700000Y-97750000D03*
X160700000Y-97250000D03*
D21*
X158750000Y-95300000D03*
X158250000Y-95300000D03*
X157750000Y-95300000D03*
X157250000Y-95300000D03*
X156750000Y-95300000D03*
X156250000Y-95300000D03*
X155750000Y-95300000D03*
X155250000Y-95300000D03*
X154750000Y-95300000D03*
X154250000Y-95300000D03*
X153750000Y-95300000D03*
X153250000Y-95300000D03*
X152750000Y-95300000D03*
X152250000Y-95300000D03*
X151750000Y-95300000D03*
X151250000Y-95300000D03*
D22*
X155650000Y-123700000D03*
X156750000Y-123700000D03*
D23*
X140700000Y-94975000D03*
X143300000Y-94975000D03*
X140700000Y-94325000D03*
X143300000Y-94325000D03*
X140700000Y-93675000D03*
X143300000Y-93675000D03*
X140700000Y-93025000D03*
X143300000Y-93025000D03*
D24*
X148000000Y-72500000D03*
X148000000Y-75500000D03*
D19*
X155000000Y-66750000D03*
X153000000Y-66750000D03*
D25*
X159000000Y-75500000D03*
X156000000Y-75500000D03*
D26*
X145250000Y-104250000D03*
X145250000Y-102250000D03*
D27*
X165000000Y-105450000D03*
X165000000Y-106550000D03*
D26*
X164750000Y-96500000D03*
X164750000Y-98500000D03*
D22*
X135650000Y-123700000D03*
X136750000Y-123700000D03*
D28*
X128999360Y-74500000D03*
X124000640Y-74500000D03*
D29*
X143000000Y-73999360D03*
X143000000Y-69000640D03*
D30*
X151000000Y-75635000D03*
X151000000Y-72365000D03*
D31*
X159000000Y-118250700D03*
X159000000Y-119749300D03*
X161250000Y-118251400D03*
X161250000Y-119750000D03*
D32*
X154900000Y-71000000D03*
X160100000Y-71000000D03*
D33*
X137450000Y-68500000D03*
X134550000Y-68500000D03*
D15*
X146550000Y-70500000D03*
X147450000Y-70500000D03*
X150450000Y-66000000D03*
X149550000Y-66000000D03*
X148450000Y-66000000D03*
X147550000Y-66000000D03*
D34*
X166000000Y-109450000D03*
X166000000Y-108550000D03*
X167500000Y-109450000D03*
X167500000Y-108550000D03*
X159000000Y-121950000D03*
X159000000Y-121050000D03*
X161250000Y-121950000D03*
X161250000Y-121050000D03*
D15*
X133350000Y-123700000D03*
X134250000Y-123700000D03*
X148050000Y-110500000D03*
X148950000Y-110500000D03*
X152450000Y-110500000D03*
X151550000Y-110500000D03*
X154250000Y-123700000D03*
X153350000Y-123700000D03*
D35*
X129200000Y-117900000D03*
X130800000Y-122100000D03*
X130800000Y-117900000D03*
X129200000Y-122100000D03*
X135800000Y-122100000D03*
X134200000Y-117900000D03*
X134200000Y-122100000D03*
X135800000Y-117900000D03*
X155800000Y-122100000D03*
X154200000Y-117900000D03*
X154200000Y-122100000D03*
X155800000Y-117900000D03*
D36*
X166300000Y-104900000D03*
X166300000Y-107100000D03*
X166950000Y-107100000D03*
X167600000Y-104900000D03*
X167600000Y-107100000D03*
D37*
X143500000Y-121000000D03*
X143500000Y-122000000D03*
X143500000Y-123000000D03*
X146500000Y-121000000D03*
X146500000Y-122000000D03*
X146500000Y-123000000D03*
D38*
X145000000Y-122000000D03*
D39*
X145400000Y-121150000D03*
X145400000Y-122850000D03*
X145400000Y-122000000D03*
X144600000Y-121150000D03*
X144600000Y-122850000D03*
X144600000Y-122000000D03*
D19*
X146100000Y-106000000D03*
X143900000Y-106000000D03*
D15*
X145450000Y-107700000D03*
X144550000Y-107700000D03*
D14*
X147250000Y-102500000D03*
X147250000Y-104000000D03*
D16*
X150750000Y-93250000D03*
X152250000Y-93250000D03*
X157750000Y-108750000D03*
X159250000Y-108750000D03*
X152750000Y-108750000D03*
X151250000Y-108750000D03*
D14*
X148000000Y-122750000D03*
X148000000Y-121250000D03*
X147500000Y-106250000D03*
X147500000Y-107750000D03*
X147250000Y-97500000D03*
X147250000Y-96000000D03*
X147250000Y-99500000D03*
X147250000Y-101000000D03*
X162750000Y-98250000D03*
X162750000Y-96750000D03*
D40*
X146812000Y-93218000D03*
X143002000Y-97028000D03*
X162306000Y-101854000D03*
X154686000Y-93726000D03*
D41*
X122351160Y-112000000D03*
X126648840Y-112000000D03*
X126648840Y-107500000D03*
X122351160Y-107500000D03*
D42*
X126500000Y-91250000D03*
X126500000Y-93750000D03*
X126500000Y-96250000D03*
X126500000Y-98750000D03*
X126500000Y-101250000D03*
X126500000Y-103750000D03*
X131500000Y-91250000D03*
X131500000Y-93750000D03*
X131500000Y-96250000D03*
X131500000Y-98750000D03*
X131500000Y-101250000D03*
X131500000Y-103750000D03*
D43*
X131500000Y-112950000D03*
X131500000Y-111050000D03*
X129500000Y-112000000D03*
X129500000Y-107500000D03*
X131500000Y-106550000D03*
X131500000Y-108450000D03*
D44*
X133750000Y-108730000D03*
X133750000Y-111270000D03*
X140250000Y-108730000D03*
X140250000Y-111270000D03*
X140250000Y-106270000D03*
X140250000Y-103730000D03*
X133750000Y-106270000D03*
X133750000Y-103730000D03*
D39*
X145600000Y-70500000D03*
X136600000Y-73600000D03*
X125000000Y-83000000D03*
X121500000Y-83000000D03*
X121500000Y-101000000D03*
X152900000Y-86000000D03*
X157000000Y-88000000D03*
X168000000Y-86000000D03*
X136000000Y-76000000D03*
X145000000Y-66000000D03*
X128000000Y-66000000D03*
X136000000Y-66000000D03*
X135300000Y-97300000D03*
X135400000Y-100900000D03*
X135800000Y-94500000D03*
X139200000Y-102200000D03*
X141700000Y-101300000D03*
X164900000Y-100060002D03*
X164500000Y-108000000D03*
X157700000Y-107800000D03*
X152300000Y-105500000D03*
X156464000Y-108712000D03*
X151400000Y-113100000D03*
X144800000Y-113099992D03*
X130500000Y-111000000D03*
X130500000Y-106500000D03*
X152000000Y-109500000D03*
X158000000Y-80000000D03*
X165000000Y-80000002D03*
X144018000Y-91440000D03*
X145796000Y-93980000D03*
X148336000Y-96012000D03*
X148844000Y-90170000D03*
X153391467Y-93524635D03*
X160042957Y-113082298D03*
X169250000Y-96250000D03*
X169250000Y-105000000D03*
X167374990Y-113604093D03*
X129000000Y-85500000D03*
X129000000Y-82000000D03*
X129000000Y-78500000D03*
X147500000Y-68750000D03*
X124000000Y-72500000D03*
X145750000Y-75500000D03*
X162500000Y-66750000D03*
X165000000Y-75000000D03*
X153500000Y-75250000D03*
X156500000Y-66500000D03*
X139900000Y-85999998D03*
X137099994Y-86000000D03*
X143861784Y-104522114D03*
X159766000Y-79756000D03*
X162750000Y-91000000D03*
X157500000Y-81500000D03*
X150750000Y-84000000D03*
X144750000Y-86000000D03*
X149822807Y-94206706D03*
X144800000Y-111699996D03*
X155500000Y-109800002D03*
X166325011Y-103700000D03*
X160200000Y-106200000D03*
X152700000Y-102400000D03*
X148200000Y-100400000D03*
X135128000Y-114046000D03*
X150114000Y-114046000D03*
X162712479Y-99450868D03*
X158496000Y-93726000D03*
X148200000Y-67600000D03*
X165728755Y-107655143D03*
X130200000Y-116200000D03*
X149352000Y-109728000D03*
X150857100Y-109625002D03*
X159500000Y-98750000D03*
X162750000Y-100250000D03*
X167500000Y-96600000D03*
X150284145Y-100499940D03*
X151680213Y-101285091D03*
X150441098Y-101749998D03*
X151221892Y-97846502D03*
X153087791Y-98788105D03*
X157226000Y-93472000D03*
X157624990Y-96816949D03*
X153809212Y-100089145D03*
X154100008Y-100900000D03*
X154749990Y-108000358D03*
X156500006Y-105500000D03*
X154000000Y-102300000D03*
X156900008Y-102100000D03*
X151130000Y-104140000D03*
X122399994Y-93600000D03*
X129800000Y-71300000D03*
X130500000Y-113000000D03*
X130500000Y-108500000D03*
X154300000Y-109000000D03*
X138000000Y-108800000D03*
X144600000Y-110100000D03*
X138500000Y-112000000D03*
X138500000Y-107000000D03*
X156400000Y-107900000D03*
D45*
X146550000Y-70500000D02*
X145600000Y-70500000D01*
X136600000Y-73600000D02*
X138665000Y-73600000D01*
X138665000Y-73600000D02*
X138700000Y-73635000D01*
D46*
X150000000Y-70350000D02*
X150000000Y-71400000D01*
X150000000Y-71400000D02*
X148900000Y-72500000D01*
X148900000Y-72500000D02*
X148000000Y-72500000D01*
X146550000Y-70500000D02*
X146550000Y-71050000D01*
X146550000Y-71050000D02*
X148000000Y-72500000D01*
X143000000Y-73999360D02*
X147500640Y-73999360D01*
X147500640Y-73999360D02*
X148000000Y-73500000D01*
X148000000Y-73500000D02*
X148000000Y-72500000D01*
X138700000Y-72365000D02*
X141365640Y-72365000D01*
X141365640Y-72365000D02*
X143000000Y-73999360D01*
X138700000Y-74905000D02*
X142094360Y-74905000D01*
X142094360Y-74905000D02*
X143000000Y-73999360D01*
X138700000Y-72365000D02*
X138700000Y-73635000D01*
X138700000Y-74905000D02*
X138700000Y-73635000D01*
X142635640Y-74635000D02*
X143000000Y-74999360D01*
D47*
X122250000Y-83000000D02*
X122250000Y-76250640D01*
X122250000Y-89500000D02*
X122250000Y-83000000D01*
X122250000Y-83000000D02*
X121500000Y-83000000D01*
D46*
X152500000Y-91250000D02*
X152500000Y-90125000D01*
X152500000Y-90125000D02*
X152550001Y-90074999D01*
X152550001Y-90074999D02*
X152550001Y-86349999D01*
X152550001Y-86349999D02*
X152900000Y-86000000D01*
X156000000Y-88200000D02*
X156000000Y-91250000D01*
X156000000Y-78500000D02*
X156000000Y-88200000D01*
X156000000Y-88200000D02*
X156800000Y-88200000D01*
X156800000Y-88200000D02*
X157000000Y-88000000D01*
X165000000Y-85900000D02*
X165000000Y-80424266D01*
X165000000Y-92000000D02*
X165000000Y-85900000D01*
X165000000Y-85900000D02*
X167900000Y-85900000D01*
X167900000Y-85900000D02*
X168000000Y-86000000D01*
X136000000Y-66000000D02*
X145000000Y-66000000D01*
X136000000Y-66000000D02*
X128000000Y-66000000D01*
D45*
X137900000Y-100900000D02*
X135400000Y-100900000D01*
X139200000Y-102200000D02*
X137900000Y-100900000D01*
X137250000Y-94000000D02*
X136300000Y-94000000D01*
X136300000Y-94000000D02*
X135800000Y-94500000D01*
X140250000Y-103730000D02*
X140250000Y-103250000D01*
X140250000Y-103250000D02*
X139200000Y-102200000D01*
D46*
X141999999Y-101599999D02*
X141700000Y-101300000D01*
X142650000Y-102250000D02*
X141999999Y-101599999D01*
X145250000Y-102250000D02*
X142650000Y-102250000D01*
D45*
X141999999Y-101000001D02*
X141700000Y-101300000D01*
X147250000Y-101000000D02*
X141999999Y-101000001D01*
X135000008Y-113099992D02*
X137200000Y-113099992D01*
X137200000Y-113099992D02*
X142099992Y-113099992D01*
X140250000Y-103730000D02*
X139500000Y-103730000D01*
X139500000Y-103730000D02*
X137200000Y-106030000D01*
X137200000Y-106030000D02*
X137200000Y-113099992D01*
X133608001Y-114491999D02*
X135000008Y-113099992D01*
X133558001Y-114491999D02*
X133608001Y-114491999D01*
D46*
X164750000Y-98500000D02*
X164750000Y-99910002D01*
X164750000Y-99910002D02*
X164900000Y-100060002D01*
D45*
X165000000Y-106550000D02*
X165000000Y-107500000D01*
X165000000Y-107500000D02*
X164500000Y-108000000D01*
X158250000Y-107900000D02*
X158250000Y-108250000D01*
X158250000Y-106700000D02*
X158250000Y-107900000D01*
X158250000Y-107900000D02*
X157800000Y-107900000D01*
X157800000Y-107900000D02*
X157700000Y-107800000D01*
X157750000Y-108750000D02*
X156502000Y-108750000D01*
X156502000Y-108750000D02*
X156464000Y-108712000D01*
D46*
X151417702Y-113082298D02*
X151400000Y-113100000D01*
X160042957Y-113082298D02*
X151417702Y-113082298D01*
X144375736Y-113099992D02*
X144800000Y-113099992D01*
X142099992Y-113099992D02*
X144375736Y-113099992D01*
X130500000Y-111000000D02*
X131450000Y-111000000D01*
X131450000Y-111000000D02*
X131500000Y-111050000D01*
X130500000Y-106500000D02*
X131450000Y-106500000D01*
X131450000Y-106500000D02*
X131500000Y-106550000D01*
D47*
X131500000Y-93750000D02*
X126500000Y-93750000D01*
D45*
X151250000Y-108750000D02*
X152000000Y-109500000D01*
X145374999Y-108325001D02*
X144089999Y-108325001D01*
X145450000Y-107700000D02*
X145450000Y-108250000D01*
X145450000Y-108250000D02*
X145374999Y-108325001D01*
X144089999Y-108325001D02*
X143074999Y-107310001D01*
X143074999Y-104300001D02*
X145125000Y-102250000D01*
X143074999Y-107310001D02*
X143074999Y-104300001D01*
X145125000Y-102250000D02*
X145250000Y-102250000D01*
X147450000Y-107700000D02*
X145450000Y-107700000D01*
X147500000Y-107750000D02*
X147450000Y-107700000D01*
X142500000Y-122000000D02*
X142500000Y-120500000D01*
X142500000Y-120500000D02*
X144250000Y-118750000D01*
X144250000Y-118750000D02*
X144250000Y-113650000D01*
X143700000Y-113100000D02*
X143100000Y-113100000D01*
X144250000Y-113650000D02*
X143700000Y-113100000D01*
D46*
X156500000Y-78500000D02*
X157700001Y-79700001D01*
X156000000Y-78500000D02*
X156500000Y-78500000D01*
X157700001Y-79700001D02*
X158000000Y-80000000D01*
X165000000Y-80424266D02*
X165000000Y-80000002D01*
X169250000Y-96250000D02*
X165000000Y-92000000D01*
D45*
X144018000Y-91440000D02*
X145288000Y-90170000D01*
X145288000Y-90170000D02*
X148844000Y-90170000D01*
X145796000Y-93980000D02*
X145770000Y-93980000D01*
X145770000Y-93980000D02*
X145000000Y-94750000D01*
X147250000Y-96000000D02*
X148324000Y-96000000D01*
X148324000Y-96000000D02*
X148336000Y-96012000D01*
D46*
X145250000Y-102250000D02*
X147000000Y-102250000D01*
X147000000Y-102250000D02*
X147250000Y-102500000D01*
D45*
X130800000Y-122100000D02*
X130800000Y-122750000D01*
X130800000Y-122750000D02*
X132375001Y-124325001D01*
X132375001Y-124325001D02*
X136074999Y-124325001D01*
X136074999Y-124325001D02*
X136700000Y-123700000D01*
X136700000Y-123700000D02*
X136750000Y-123700000D01*
X133558001Y-114491999D02*
X130800000Y-117250000D01*
X130800000Y-117250000D02*
X130800000Y-117900000D01*
X130800000Y-117900000D02*
X130800000Y-118550000D01*
X130800000Y-118550000D02*
X130800000Y-122100000D01*
X135800000Y-122100000D02*
X135800000Y-121450000D01*
X135800000Y-121450000D02*
X135800000Y-117900000D01*
X136750000Y-123700000D02*
X136750000Y-123050000D01*
X136750000Y-123050000D02*
X135800000Y-122100000D01*
X156750000Y-123700000D02*
X156750000Y-123050000D01*
X156750000Y-123050000D02*
X155800000Y-122100000D01*
X159000000Y-121950000D02*
X159000000Y-122400000D01*
X159000000Y-122400000D02*
X157700000Y-123700000D01*
X157700000Y-123700000D02*
X157300000Y-123700000D01*
X157300000Y-123700000D02*
X156750000Y-123700000D01*
X161250000Y-121950000D02*
X159000000Y-121950000D01*
X162306000Y-120076562D02*
X162306000Y-120994000D01*
X162306000Y-120994000D02*
X161350000Y-121950000D01*
X161350000Y-121950000D02*
X161250000Y-121950000D01*
X167019908Y-113904092D02*
X167019908Y-115362654D01*
X167019908Y-115362654D02*
X162306000Y-120076562D01*
X167374990Y-113604093D02*
X167074991Y-113904092D01*
X167074991Y-113904092D02*
X167019908Y-113904092D01*
X155800000Y-122100000D02*
X155800000Y-121450000D01*
X155800000Y-121450000D02*
X155800000Y-117900000D01*
D46*
X153150000Y-93250000D02*
X153391467Y-93491467D01*
X152250000Y-93250000D02*
X153150000Y-93250000D01*
X153391467Y-93491467D02*
X153391467Y-93524635D01*
X169250000Y-105000000D02*
X169250000Y-111729083D01*
X169250000Y-111729083D02*
X167674989Y-113304094D01*
X167674989Y-113304094D02*
X167374990Y-113604093D01*
D45*
X158250000Y-108250000D02*
X157750000Y-108750000D01*
D46*
X162750000Y-98250000D02*
X164500000Y-98250000D01*
X164500000Y-98250000D02*
X164750000Y-98500000D01*
X156000000Y-75500000D02*
X156000000Y-78500000D01*
D45*
X151750000Y-106700000D02*
X151750000Y-108250000D01*
X151750000Y-108250000D02*
X151250000Y-108750000D01*
X142500000Y-122000000D02*
X142500000Y-123335002D01*
X142500000Y-123335002D02*
X143164998Y-124000000D01*
X143164998Y-124000000D02*
X147400000Y-124000000D01*
X147400000Y-124000000D02*
X148000000Y-123400000D01*
X148000000Y-123400000D02*
X148000000Y-122750000D01*
X143300000Y-94325000D02*
X144575000Y-94325000D01*
X144575000Y-94325000D02*
X145000000Y-94750000D01*
X149300000Y-102750000D02*
X147500000Y-102750000D01*
X147550000Y-66000000D02*
X147550000Y-68700000D01*
X147550000Y-68700000D02*
X147500000Y-68750000D01*
D46*
X150000000Y-67650000D02*
X150000000Y-68700000D01*
X150000000Y-68700000D02*
X149950000Y-68750000D01*
X149950000Y-68750000D02*
X147500000Y-68750000D01*
X165000000Y-75000000D02*
X162500000Y-72500000D01*
X162500000Y-72500000D02*
X162500000Y-66750000D01*
X151000000Y-75635000D02*
X153115000Y-75635000D01*
X153115000Y-75635000D02*
X153500000Y-75250000D01*
X124000000Y-72500000D02*
X124000000Y-74499360D01*
X124000000Y-74499360D02*
X124000640Y-74500000D01*
X148000000Y-75500000D02*
X145750000Y-75500000D01*
D47*
X122250000Y-76250640D02*
X124000640Y-74500000D01*
D46*
X156000000Y-91250000D02*
X152500000Y-91250000D01*
D45*
X147500000Y-102750000D02*
X147250000Y-102500000D01*
X151750000Y-95300000D02*
X151750000Y-93750000D01*
X151750000Y-93750000D02*
X152250000Y-93250000D01*
X160700000Y-97750000D02*
X162250000Y-97750000D01*
X162250000Y-97750000D02*
X162750000Y-98250000D01*
X143500000Y-122000000D02*
X142500000Y-122000000D01*
D47*
X126500000Y-93750000D02*
X122250000Y-89500000D01*
D45*
X155000000Y-66750000D02*
X156250000Y-66750000D01*
X156250000Y-66750000D02*
X156500000Y-66500000D01*
D46*
X150950000Y-70350000D02*
X154250000Y-70350000D01*
X154250000Y-70350000D02*
X154900000Y-71000000D01*
X150950000Y-67550000D02*
X151750000Y-66750000D01*
X151750000Y-66750000D02*
X153000000Y-66750000D01*
X150950000Y-67650000D02*
X150950000Y-67550000D01*
X150950000Y-67650000D02*
X150950000Y-67400000D01*
D45*
X137099994Y-86000000D02*
X139899998Y-86000000D01*
X139899998Y-86000000D02*
X139900000Y-85999998D01*
X144750000Y-86000000D02*
X139900002Y-86000000D01*
X139900002Y-86000000D02*
X139900000Y-85999998D01*
X163874998Y-106625002D02*
X165000000Y-105500000D01*
X163874998Y-108300002D02*
X163874998Y-106625002D01*
X165024996Y-109450000D02*
X163874998Y-108300002D01*
X166000000Y-109450000D02*
X165024996Y-109450000D01*
X165000000Y-105500000D02*
X165000000Y-105450000D01*
X166300000Y-104900000D02*
X166300000Y-105400000D01*
X166300000Y-105400000D02*
X166250000Y-105450000D01*
X166250000Y-105450000D02*
X165000000Y-105450000D01*
X165700001Y-104199999D02*
X165000000Y-104900000D01*
X164750000Y-96500000D02*
X164875000Y-96500000D01*
X164875000Y-96500000D02*
X165700001Y-97325001D01*
X165700001Y-97325001D02*
X165700001Y-104199999D01*
X165000000Y-104900000D02*
X165000000Y-105450000D01*
X167500000Y-109450000D02*
X166000000Y-109450000D01*
D46*
X152750000Y-108750000D02*
X153800000Y-109800000D01*
X143861784Y-104513216D02*
X143861784Y-104522114D01*
X145250000Y-104250000D02*
X144125000Y-104250000D01*
X144125000Y-104250000D02*
X143861784Y-104513216D01*
D45*
X146100000Y-105100000D02*
X145250000Y-104250000D01*
X146100000Y-106000000D02*
X146100000Y-105100000D01*
X148050000Y-110400000D02*
X147600000Y-109950000D01*
X148050000Y-110500000D02*
X148050000Y-110400000D01*
X148000000Y-121250000D02*
X148000000Y-121000000D01*
X145796000Y-118796000D02*
X145796000Y-114300000D01*
X145796000Y-114300000D02*
X148674998Y-114300000D01*
X148674998Y-114300000D02*
X151599999Y-111374999D01*
X151599999Y-111374999D02*
X151675001Y-111374999D01*
X151675001Y-111374999D02*
X152450000Y-110600000D01*
X148000000Y-121000000D02*
X145796000Y-118796000D01*
X152450000Y-110600000D02*
X152450000Y-110500000D01*
X152450000Y-110500000D02*
X152900000Y-110500000D01*
X152900000Y-110500000D02*
X153600000Y-109800000D01*
X153600000Y-109800000D02*
X153800000Y-109800000D01*
D46*
X159250000Y-109625000D02*
X159250000Y-108750000D01*
X159075000Y-109800000D02*
X159250000Y-109625000D01*
X153800000Y-109800000D02*
X155499998Y-109800000D01*
X150500000Y-91250000D02*
X148590000Y-91250000D01*
X148590000Y-91250000D02*
X146350000Y-91250000D01*
X149822807Y-94206706D02*
X149822807Y-93782442D01*
X148590000Y-92549635D02*
X148590000Y-91250000D01*
X149822807Y-93782442D02*
X148590000Y-92549635D01*
X145000000Y-92600000D02*
X145000000Y-93250000D01*
X146350000Y-91250000D02*
X145000000Y-92600000D01*
X145250000Y-104250000D02*
X147000000Y-104250000D01*
X147000000Y-104250000D02*
X147250000Y-104000000D01*
X159000000Y-75500000D02*
X159000000Y-79756000D01*
X159000000Y-79756000D02*
X159000000Y-81500000D01*
D45*
X159766000Y-79756000D02*
X159000000Y-79756000D01*
X146500000Y-122000000D02*
X147250000Y-122000000D01*
X147250000Y-122000000D02*
X148000000Y-121250000D01*
D46*
X161250000Y-92250000D02*
X164750000Y-95750000D01*
X161500000Y-92250000D02*
X162750000Y-91000000D01*
X159000000Y-90000000D02*
X161250000Y-92250000D01*
X161250000Y-92250000D02*
X161500000Y-92250000D01*
X159000000Y-81500000D02*
X159000000Y-90000000D01*
D45*
X157500000Y-81500000D02*
X159000000Y-81500000D01*
X144750000Y-86000000D02*
X148750000Y-86000000D01*
X148750000Y-86000000D02*
X150750000Y-84000000D01*
X150750000Y-93250000D02*
X150750000Y-91500000D01*
X150750000Y-91500000D02*
X150500000Y-91250000D01*
X158750000Y-106700000D02*
X158750000Y-108250000D01*
X158750000Y-108250000D02*
X159250000Y-108750000D01*
D46*
X152750000Y-108750000D02*
X152775000Y-108750000D01*
X150500000Y-91250000D02*
X150500000Y-91375000D01*
X150500000Y-91375000D02*
X151500000Y-92375000D01*
X151500000Y-92375000D02*
X156625000Y-92375000D01*
X156625000Y-92375000D02*
X159000000Y-90000000D01*
X164750000Y-95750000D02*
X164750000Y-96500000D01*
D45*
X152250000Y-106700000D02*
X152250000Y-108250000D01*
X152250000Y-108250000D02*
X152750000Y-108750000D01*
X151250000Y-95300000D02*
X151250000Y-93750000D01*
X151250000Y-93750000D02*
X150750000Y-93250000D01*
X143300000Y-93675000D02*
X144575000Y-93675000D01*
X144575000Y-93675000D02*
X145000000Y-93250000D01*
X149300000Y-103250000D02*
X148000000Y-103250000D01*
X148000000Y-103250000D02*
X147250000Y-104000000D01*
X150450000Y-66000000D02*
X150450000Y-65900000D01*
X150450000Y-65900000D02*
X150600000Y-65750000D01*
X150600000Y-65750000D02*
X158250000Y-65750000D01*
X158250000Y-65750000D02*
X160100000Y-67600000D01*
X160100000Y-67600000D02*
X160100000Y-71000000D01*
X160100000Y-70000000D02*
X160100000Y-71000000D01*
D46*
X159000000Y-75500000D02*
X159000000Y-72100000D01*
X159000000Y-72100000D02*
X160100000Y-71000000D01*
D45*
X160700000Y-97250000D02*
X162250000Y-97250000D01*
X162250000Y-97250000D02*
X162750000Y-96750000D01*
D46*
X162750000Y-96750000D02*
X164500000Y-96750000D01*
X164500000Y-96750000D02*
X164750000Y-96500000D01*
D45*
X164300000Y-96950000D02*
X164750000Y-96500000D01*
D46*
X159000000Y-72600000D02*
X160100000Y-71500000D01*
D45*
X146549996Y-109950000D02*
X145099999Y-111399997D01*
X147600000Y-109950000D02*
X146549996Y-109950000D01*
X145099999Y-111399997D02*
X144800000Y-111699996D01*
D46*
X155500000Y-109800002D02*
X155924264Y-109800002D01*
X155924264Y-109800002D02*
X155924266Y-109800000D01*
X155924266Y-109800000D02*
X159075000Y-109800000D01*
X155499998Y-109800000D02*
X155500000Y-109800002D01*
D45*
X147250000Y-97500000D02*
X145300000Y-97500000D01*
X145300000Y-97500000D02*
X145000000Y-97200000D01*
X149300000Y-98250000D02*
X148000000Y-98250000D01*
X148000000Y-98250000D02*
X147250000Y-97500000D01*
X147250000Y-99500000D02*
X145300000Y-99500000D01*
X145300000Y-99500000D02*
X145000000Y-99800000D01*
X149300000Y-98750000D02*
X148000000Y-98750000D01*
X148000000Y-98750000D02*
X147250000Y-99500000D01*
X166650000Y-103700000D02*
X166325011Y-103700000D01*
X167600000Y-104650000D02*
X166650000Y-103700000D01*
X167600000Y-104900000D02*
X167600000Y-104650000D01*
X153900000Y-103600000D02*
X157600000Y-103600000D01*
X157600000Y-103600000D02*
X160200000Y-106200000D01*
X152700000Y-102400000D02*
X153900000Y-103600000D01*
X149300000Y-100250000D02*
X148350000Y-100250000D01*
X148350000Y-100250000D02*
X148200000Y-100400000D01*
X135000000Y-123318000D02*
X135000000Y-123572000D01*
X135000000Y-123572000D02*
X134872000Y-123700000D01*
X134872000Y-123700000D02*
X134250000Y-123700000D01*
X135000000Y-123318000D02*
X135000000Y-123600000D01*
X135000000Y-123600000D02*
X135100000Y-123700000D01*
X135100000Y-123700000D02*
X135650000Y-123700000D01*
X135128000Y-114046000D02*
X135128000Y-114470264D01*
X135000000Y-114598264D02*
X135000000Y-123318000D01*
X135128000Y-114470264D02*
X135000000Y-114598264D01*
X161798000Y-113792000D02*
X161544000Y-114046000D01*
X161544000Y-114046000D02*
X150114000Y-114046000D01*
X161798000Y-106223000D02*
X161798000Y-113792000D01*
X160700000Y-104750000D02*
X160700000Y-105125000D01*
X160700000Y-105125000D02*
X161798000Y-106223000D01*
X160700000Y-104750000D02*
X161075000Y-104750000D01*
X156294987Y-116020011D02*
X160206400Y-116020011D01*
X155074999Y-117239999D02*
X156294987Y-116020011D01*
X162248011Y-105048011D02*
X161450000Y-104250000D01*
X160206400Y-116020011D02*
X162248011Y-113978400D01*
X162248011Y-113978400D02*
X162248011Y-105048011D01*
X155074999Y-123174999D02*
X155074999Y-117239999D01*
X161450000Y-104250000D02*
X160700000Y-104250000D01*
X155600000Y-123700000D02*
X155074999Y-123174999D01*
X155600000Y-123700000D02*
X155650000Y-123700000D01*
X154974999Y-124325001D02*
X153425001Y-124325001D01*
X155600000Y-123700000D02*
X154974999Y-124325001D01*
X153425001Y-124325001D02*
X153350000Y-124250000D01*
X153350000Y-124250000D02*
X153350000Y-123700000D01*
X138450000Y-95500000D02*
X138450000Y-94300000D01*
X138450000Y-94300000D02*
X138750000Y-94000000D01*
X138450000Y-92500000D02*
X138450000Y-93700000D01*
X138450000Y-93700000D02*
X138750000Y-94000000D01*
D46*
X138700000Y-70295000D02*
X138700000Y-70150000D01*
X138700000Y-70150000D02*
X137450000Y-68900000D01*
X137450000Y-68900000D02*
X137450000Y-68500000D01*
X138700000Y-71095000D02*
X138700000Y-70295000D01*
X138700000Y-70295000D02*
X139994360Y-69000640D01*
X139994360Y-69000640D02*
X141599570Y-69000640D01*
X141599570Y-69000640D02*
X143000000Y-69000640D01*
D45*
X159648780Y-118250700D02*
X162698022Y-115201458D01*
X162698022Y-115201458D02*
X162698022Y-104657611D01*
X162698022Y-104657611D02*
X161790411Y-103750000D01*
X161450000Y-103750000D02*
X160700000Y-103750000D01*
X159000000Y-118250700D02*
X159648780Y-118250700D01*
X161790411Y-103750000D02*
X161450000Y-103750000D01*
X159000000Y-119749300D02*
X159000000Y-121050000D01*
X163148033Y-115704587D02*
X161250000Y-117602620D01*
X163148033Y-104471211D02*
X163148033Y-115704587D01*
X160700000Y-103250000D02*
X161926822Y-103250000D01*
X161926822Y-103250000D02*
X163148033Y-104471211D01*
X161250000Y-117602620D02*
X161250000Y-118251400D01*
X161250000Y-119750000D02*
X161250000Y-121050000D01*
X139900000Y-95500000D02*
X139274999Y-96125001D01*
X138075001Y-96125001D02*
X137550000Y-95600000D01*
X139274999Y-96125001D02*
X138075001Y-96125001D01*
X137550000Y-95600000D02*
X137550000Y-95500000D01*
X139900000Y-94425000D02*
X139900000Y-95500000D01*
X140700000Y-94325000D02*
X140000000Y-94325000D01*
X140000000Y-94325000D02*
X139900000Y-94425000D01*
X137550000Y-95500000D02*
X134750000Y-95500000D01*
X126500000Y-98750000D02*
X127489949Y-98750000D01*
X127489949Y-98750000D02*
X131500000Y-98750000D01*
X134750000Y-95500000D02*
X131500000Y-98750000D01*
X162412480Y-99150869D02*
X162712479Y-99450868D01*
X160700000Y-98250000D02*
X161511611Y-98250000D01*
X161511611Y-98250000D02*
X162412480Y-99150869D01*
X158750000Y-93980000D02*
X158496000Y-93726000D01*
X158750000Y-95300000D02*
X158750000Y-93980000D01*
X126500000Y-96250000D02*
X131500000Y-96250000D01*
X131500000Y-96250000D02*
X132489949Y-96250000D01*
X132489949Y-96250000D02*
X136239949Y-92500000D01*
X136239949Y-92500000D02*
X137100000Y-92500000D01*
X137550000Y-92500000D02*
X137550000Y-92400000D01*
X137550000Y-92400000D02*
X138075001Y-91874999D01*
X138075001Y-91874999D02*
X138910001Y-91874999D01*
X138910001Y-91874999D02*
X139924999Y-92889997D01*
X139924999Y-92889997D02*
X139924999Y-93599999D01*
X139924999Y-93599999D02*
X140000000Y-93675000D01*
X140000000Y-93675000D02*
X140700000Y-93675000D01*
X137100000Y-92500000D02*
X137550000Y-92500000D01*
X147450000Y-70500000D02*
X148900000Y-70500000D01*
X148900000Y-70500000D02*
X149050000Y-70350000D01*
X148200000Y-67600000D02*
X149000000Y-67600000D01*
X149000000Y-67600000D02*
X149050000Y-67650000D01*
X149550000Y-66000000D02*
X149000000Y-66000000D01*
X149000000Y-66000000D02*
X148450000Y-66000000D01*
X149050000Y-67650000D02*
X149050000Y-66050000D01*
X149050000Y-66050000D02*
X149000000Y-66000000D01*
X166000000Y-107926388D02*
X165728755Y-107655143D01*
X165728755Y-107230879D02*
X165728755Y-107655143D01*
X165850000Y-107100000D02*
X165728755Y-107221245D01*
X166300000Y-107100000D02*
X165850000Y-107100000D01*
X165728755Y-107221245D02*
X165728755Y-107230879D01*
X166000000Y-108550000D02*
X166000000Y-107926388D01*
X129200000Y-117900000D02*
X129200000Y-117200000D01*
X129200000Y-117200000D02*
X130200000Y-116200000D01*
X129200000Y-122100000D02*
X129200000Y-121450000D01*
X129200000Y-121450000D02*
X129200000Y-117900000D01*
X134200000Y-122100000D02*
X134200000Y-121450000D01*
X134200000Y-121450000D02*
X134200000Y-117900000D01*
X133350000Y-123700000D02*
X133350000Y-122950000D01*
X133350000Y-122950000D02*
X134200000Y-122100000D01*
X154200000Y-122100000D02*
X154200000Y-121450000D01*
X154200000Y-121450000D02*
X154200000Y-117900000D01*
X154200000Y-122100000D02*
X154200000Y-123650000D01*
X154200000Y-123650000D02*
X154250000Y-123700000D01*
X160700000Y-100750000D02*
X161909106Y-100750000D01*
X161909106Y-100750000D02*
X162306000Y-101146894D01*
X162306000Y-101146894D02*
X162306000Y-101854000D01*
X153574001Y-94225999D02*
X154186001Y-94225999D01*
X153250000Y-94550000D02*
X153574001Y-94225999D01*
X153250000Y-95300000D02*
X153250000Y-94550000D01*
X154186001Y-94225999D02*
X154686000Y-93726000D01*
X150000000Y-106195002D02*
X150000000Y-109982000D01*
X151945013Y-104249989D02*
X150000000Y-106195002D01*
X157750000Y-106700000D02*
X157750000Y-105088587D01*
X157750000Y-105088587D02*
X156911402Y-104249989D01*
X156911402Y-104249989D02*
X151945013Y-104249989D01*
X145423200Y-113399978D02*
X144849978Y-113973200D01*
X147204021Y-113399978D02*
X145423200Y-113399978D01*
X150000000Y-110604000D02*
X147204021Y-113399978D01*
X144849978Y-113973200D02*
X144849978Y-119150022D01*
X150000000Y-110500000D02*
X150000000Y-110604000D01*
X144849978Y-119150022D02*
X143500000Y-120500000D01*
X143500000Y-120500000D02*
X143500000Y-121000000D01*
X150000000Y-109982000D02*
X150000000Y-110500000D01*
X150000000Y-109982000D02*
X149606000Y-109982000D01*
X149606000Y-109982000D02*
X149352000Y-109728000D01*
X148950000Y-110500000D02*
X150000000Y-110500000D01*
X157250000Y-106700000D02*
X157250000Y-105224998D01*
X157250000Y-105224998D02*
X156725002Y-104700000D01*
X152131413Y-104700000D02*
X150524999Y-106306414D01*
X150524999Y-106306414D02*
X150524999Y-109982000D01*
X156725002Y-104700000D02*
X152131413Y-104700000D01*
X150557101Y-109925001D02*
X150857100Y-109625002D01*
X150524999Y-109982000D02*
X150524999Y-109957103D01*
X150524999Y-109957103D02*
X150557101Y-109925001D01*
X145609600Y-113849989D02*
X145299989Y-114159600D01*
X146500000Y-120500000D02*
X146500000Y-121000000D01*
X147390420Y-113849989D02*
X145609600Y-113849989D01*
X150524999Y-110715411D02*
X147390420Y-113849989D01*
X145299989Y-114159600D02*
X145299989Y-119299989D01*
X150524999Y-110500000D02*
X150524999Y-110715411D01*
X145299989Y-119299989D02*
X146500000Y-120500000D01*
X150524999Y-109982000D02*
X150524999Y-110500000D01*
X151550000Y-110500000D02*
X150524999Y-110500000D01*
X160700000Y-99750000D02*
X159950000Y-99750000D01*
X159950000Y-99750000D02*
X159500000Y-99300000D01*
X159500000Y-99300000D02*
X159500000Y-98750000D01*
X162750000Y-100250000D02*
X160700000Y-100250000D01*
X167500000Y-108550000D02*
X166950000Y-108000000D01*
X166950000Y-108000000D02*
X166950000Y-107100000D01*
X166950000Y-107100000D02*
X166950000Y-104886410D01*
X167074999Y-105610001D02*
X167139999Y-105675001D01*
X166950000Y-97150000D02*
X167500000Y-96600000D01*
X168125001Y-104189999D02*
X166950000Y-103014998D01*
X166950000Y-104886410D02*
X167074999Y-105011409D01*
X167074999Y-105011409D02*
X167074999Y-105610001D01*
X167139999Y-105675001D02*
X168060001Y-105675001D01*
X168060001Y-105675001D02*
X168125001Y-105610001D01*
X168125001Y-105610001D02*
X168125001Y-104189999D01*
X166950000Y-103014998D02*
X166950000Y-97150000D01*
X145889998Y-96000000D02*
X143510000Y-96000000D01*
X143510000Y-96000000D02*
X143100000Y-96000000D01*
X143002000Y-97028000D02*
X143501999Y-96528001D01*
X143501999Y-96528001D02*
X143501999Y-96008001D01*
X143501999Y-96008001D02*
X143510000Y-96000000D01*
X142300000Y-93325000D02*
X142600000Y-93025000D01*
X143100000Y-96000000D02*
X142300000Y-95200000D01*
X146989998Y-94900000D02*
X145889998Y-96000000D01*
X150738574Y-96799989D02*
X148838585Y-94900000D01*
X152136422Y-96799989D02*
X150738574Y-96799989D01*
X152750000Y-96186411D02*
X152136422Y-96799989D01*
X148838585Y-94900000D02*
X146989998Y-94900000D01*
X142600000Y-93025000D02*
X143300000Y-93025000D01*
X152750000Y-95300000D02*
X152750000Y-96186411D01*
X142300000Y-95200000D02*
X142300000Y-93325000D01*
X146812000Y-93218000D02*
X146812000Y-94441587D01*
X146812000Y-94441587D02*
X146803598Y-94449989D01*
X150924974Y-96349978D02*
X151950022Y-96349978D01*
X149024985Y-94449989D02*
X150924974Y-96349978D01*
X145778586Y-95475001D02*
X146803598Y-94449989D01*
X146803598Y-94449989D02*
X149024985Y-94449989D01*
X144025001Y-95475001D02*
X145778586Y-95475001D01*
X143525000Y-94975000D02*
X144025001Y-95475001D01*
X152250000Y-96050000D02*
X152250000Y-95300000D01*
X151950022Y-96349978D02*
X152250000Y-96050000D01*
X143300000Y-94975000D02*
X143525000Y-94975000D01*
X150109100Y-100674985D02*
X150284145Y-100499940D01*
X149954696Y-100674985D02*
X150109100Y-100674985D01*
X149300000Y-100750000D02*
X149879681Y-100750000D01*
X149879681Y-100750000D02*
X149954696Y-100674985D01*
X150050000Y-101250000D02*
X150175004Y-101124996D01*
X151095854Y-101124996D02*
X151255949Y-101285091D01*
X149300000Y-101250000D02*
X150050000Y-101250000D01*
X151255949Y-101285091D02*
X151680213Y-101285091D01*
X150175004Y-101124996D02*
X151095854Y-101124996D01*
X150441096Y-101750000D02*
X150441098Y-101749998D01*
X149300000Y-101750000D02*
X150441096Y-101750000D01*
X151521891Y-98146501D02*
X151221892Y-97846502D01*
X151525002Y-102500000D02*
X152825001Y-101200001D01*
X150300000Y-102500000D02*
X151525002Y-102500000D01*
X152825001Y-99449611D02*
X151521891Y-98146501D01*
X150050000Y-102250000D02*
X150300000Y-102500000D01*
X149300000Y-102250000D02*
X150050000Y-102250000D01*
X152825001Y-101200001D02*
X152825001Y-99449611D01*
X156750000Y-96050000D02*
X154011895Y-98788105D01*
X154011895Y-98788105D02*
X153512055Y-98788105D01*
X156750000Y-95300000D02*
X156750000Y-96050000D01*
X153512055Y-98788105D02*
X153087791Y-98788105D01*
X157226000Y-93472000D02*
X157226000Y-95276000D01*
X157226000Y-95276000D02*
X157250000Y-95300000D01*
X157750000Y-96691939D02*
X157624990Y-96816949D01*
X157750000Y-95300000D02*
X157750000Y-96691939D01*
X160700000Y-101250000D02*
X157686423Y-101250000D01*
X154233476Y-100089145D02*
X153809212Y-100089145D01*
X157686423Y-101250000D02*
X156525568Y-100089145D01*
X156525568Y-100089145D02*
X154233476Y-100089145D01*
X156700012Y-100900000D02*
X154524272Y-100900000D01*
X157550012Y-101750000D02*
X156700012Y-100900000D01*
X154524272Y-100900000D02*
X154100008Y-100900000D01*
X160700000Y-101750000D02*
X157550012Y-101750000D01*
X154750000Y-108000348D02*
X154749990Y-108000358D01*
X154750000Y-106700000D02*
X154750000Y-108000348D01*
X155250000Y-106700000D02*
X155250000Y-105950000D01*
X155250000Y-105950000D02*
X155700000Y-105500000D01*
X156075742Y-105500000D02*
X156500006Y-105500000D01*
X155700000Y-105500000D02*
X156075742Y-105500000D01*
X160700000Y-102750000D02*
X154450000Y-102750000D01*
X154450000Y-102750000D02*
X154299999Y-102599999D01*
X154299999Y-102599999D02*
X154000000Y-102300000D01*
X157050008Y-102250000D02*
X156900008Y-102100000D01*
X160700000Y-102250000D02*
X157050008Y-102250000D01*
X144550000Y-107000000D02*
X146775000Y-107000000D01*
X147500000Y-106275000D02*
X147500000Y-106250000D01*
X146775000Y-107000000D02*
X147500000Y-106275000D01*
X151130000Y-104140000D02*
X150740000Y-103750000D01*
X150740000Y-103750000D02*
X149300000Y-103750000D01*
X148024988Y-104088601D02*
X148024988Y-105075012D01*
X148363589Y-103750000D02*
X148024988Y-104088601D01*
X149300000Y-103750000D02*
X148363589Y-103750000D01*
X147500000Y-105600000D02*
X147500000Y-106250000D01*
X148024988Y-105075012D02*
X147500000Y-105600000D01*
X144550000Y-107000000D02*
X144550000Y-106650000D01*
X144550000Y-107700000D02*
X144550000Y-107000000D01*
X144550000Y-106650000D02*
X143900000Y-106000000D01*
X151250000Y-106700000D02*
X151250000Y-107075000D01*
X141950011Y-108925012D02*
X141950011Y-102475015D01*
X148474999Y-104325001D02*
X148474999Y-108771414D01*
X141074998Y-100799998D02*
X141500000Y-100374996D01*
X141500000Y-100374996D02*
X141500000Y-93125000D01*
X141500000Y-93125000D02*
X141400000Y-93025000D01*
X141074998Y-101600002D02*
X141074998Y-100799998D01*
X148321401Y-108925012D02*
X141950011Y-108925012D01*
X149300000Y-104250000D02*
X148550000Y-104250000D01*
X148474999Y-108771414D02*
X148321401Y-108925012D01*
X141400000Y-93025000D02*
X140700000Y-93025000D01*
X148550000Y-104250000D02*
X148474999Y-104325001D01*
X141950011Y-102475015D02*
X141074998Y-101600002D01*
X140700000Y-100538585D02*
X140700000Y-95450000D01*
X140624987Y-101786402D02*
X140624987Y-100613598D01*
X141213598Y-102375013D02*
X140624987Y-101786402D01*
X140700000Y-95450000D02*
X140700000Y-94975000D01*
X141213598Y-108825010D02*
X141213598Y-102375013D01*
X140624987Y-100613598D02*
X140700000Y-100538585D01*
X148507801Y-109375023D02*
X141763611Y-109375023D01*
X149300000Y-104750000D02*
X149300000Y-108582824D01*
X149300000Y-108582824D02*
X148507801Y-109375023D01*
X141763611Y-109375023D02*
X141213598Y-108825010D01*
D46*
X122351160Y-107500000D02*
X122351160Y-93648834D01*
X122351160Y-93648834D02*
X122399994Y-93600000D01*
D45*
X133750000Y-111270000D02*
X133750000Y-112135002D01*
X133750000Y-112135002D02*
X132210001Y-113675001D01*
X132210001Y-113675001D02*
X124125221Y-113675001D01*
X124125221Y-113675001D02*
X122450220Y-112000000D01*
X122450220Y-112000000D02*
X122351160Y-112000000D01*
X133750000Y-111270000D02*
X133850000Y-111270000D01*
X133850000Y-111270000D02*
X134575001Y-110544999D01*
X134575001Y-110544999D02*
X134575001Y-107745001D01*
X134575001Y-107745001D02*
X133750000Y-106920000D01*
X133750000Y-106920000D02*
X133750000Y-106270000D01*
D46*
X122351160Y-107500000D02*
X122351160Y-112000000D01*
D47*
X129000000Y-91250000D02*
X131500000Y-91250000D01*
X126500000Y-91250000D02*
X129000000Y-91250000D01*
D45*
X129733930Y-72365000D02*
X129733930Y-71366070D01*
X129733930Y-71366070D02*
X129800000Y-71300000D01*
D46*
X133300000Y-74905000D02*
X129404360Y-74905000D01*
X129404360Y-74905000D02*
X128999360Y-74500000D01*
X128999360Y-74500000D02*
X128999360Y-73099570D01*
X128999360Y-73099570D02*
X129733930Y-72365000D01*
X129733930Y-72365000D02*
X131700000Y-72365000D01*
X131700000Y-72365000D02*
X133300000Y-72365000D01*
X133300000Y-72365000D02*
X133300000Y-71095000D01*
X133300000Y-73635000D02*
X133300000Y-72365000D01*
X133300000Y-74905000D02*
X133300000Y-73635000D01*
D47*
X124000000Y-78750000D02*
X128250000Y-74500000D01*
X128250000Y-74500000D02*
X128999360Y-74500000D01*
D46*
X129364360Y-74635000D02*
X128999360Y-75000000D01*
D47*
X124000000Y-88750000D02*
X124000000Y-78750000D01*
X126500000Y-91250000D02*
X124000000Y-88750000D01*
D45*
X126648840Y-112000000D02*
X126549780Y-112000000D01*
X126549780Y-112000000D02*
X124500000Y-109950220D01*
X124500000Y-109950220D02*
X124500000Y-103250000D01*
X125800001Y-101949999D02*
X126500000Y-101250000D01*
X124500000Y-103250000D02*
X125800001Y-101949999D01*
X131500000Y-101250000D02*
X130510051Y-101250000D01*
X130510051Y-101250000D02*
X126500000Y-101250000D01*
X129500000Y-112000000D02*
X126648840Y-112000000D01*
X131500000Y-103750000D02*
X130510051Y-103750000D01*
X130510051Y-103750000D02*
X126500000Y-103750000D01*
X126648840Y-107500000D02*
X126648840Y-103898840D01*
X126648840Y-103898840D02*
X126500000Y-103750000D01*
X129500000Y-107500000D02*
X126648840Y-107500000D01*
X131500000Y-112950000D02*
X130550000Y-112950000D01*
X130550000Y-112950000D02*
X130500000Y-113000000D01*
X131500000Y-112950000D02*
X132200000Y-112950000D01*
X132200000Y-112950000D02*
X132924999Y-112225001D01*
X132924999Y-112225001D02*
X132924999Y-109455001D01*
X132924999Y-109455001D02*
X133650000Y-108730000D01*
X133650000Y-108730000D02*
X133750000Y-108730000D01*
X131500000Y-108450000D02*
X130550000Y-108450000D01*
X130550000Y-108450000D02*
X130500000Y-108500000D01*
X131500000Y-108450000D02*
X132200000Y-108450000D01*
X132200000Y-108450000D02*
X132924999Y-107725001D01*
X132924999Y-107725001D02*
X132924999Y-105205001D01*
X132924999Y-105205001D02*
X133750000Y-104380000D01*
X133750000Y-104380000D02*
X133750000Y-103730000D01*
X155000000Y-109000000D02*
X154300000Y-109000000D01*
X155750000Y-108250000D02*
X155000000Y-109000000D01*
X155750000Y-106700000D02*
X155750000Y-108250000D01*
X144175736Y-110100000D02*
X139300000Y-110100000D01*
X139300000Y-110100000D02*
X138000000Y-108800000D01*
X144600000Y-110100000D02*
X144175736Y-110100000D01*
X138500000Y-112000000D02*
X139520000Y-112000000D01*
X139520000Y-112000000D02*
X140250000Y-111270000D01*
X138500000Y-107000000D02*
X139520000Y-107000000D01*
X139520000Y-107000000D02*
X140250000Y-106270000D01*
X156250000Y-106700000D02*
X156250000Y-107750000D01*
X156250000Y-107750000D02*
X156400000Y-107900000D01*
G36*
X137079641Y-96070359D02*
X137203683Y-96153242D01*
X137350000Y-96182346D01*
X137425240Y-96182346D01*
X137721448Y-96478555D01*
X137792322Y-96525911D01*
X137883659Y-96586941D01*
X138038065Y-96617654D01*
X137500000Y-96617654D01*
X137353683Y-96646758D01*
X137229641Y-96729641D01*
X137146758Y-96853683D01*
X137117654Y-97000000D01*
X137117654Y-100000000D01*
X137146758Y-100146317D01*
X137229641Y-100270359D01*
X137353683Y-100353242D01*
X137500000Y-100382346D01*
X140000000Y-100382346D01*
X140146317Y-100353242D01*
X140200000Y-100317372D01*
X140200000Y-100366952D01*
X140163047Y-100422256D01*
X140124987Y-100613598D01*
X140124987Y-101786402D01*
X140155806Y-101941340D01*
X140163047Y-101977744D01*
X140271434Y-102139955D01*
X140713598Y-102582120D01*
X140713598Y-102697000D01*
X140537250Y-102697000D01*
X140379000Y-102855250D01*
X140379000Y-103601000D01*
X140399000Y-103601000D01*
X140399000Y-103859000D01*
X140379000Y-103859000D01*
X140379000Y-104604750D01*
X140537250Y-104763000D01*
X140713598Y-104763000D01*
X140713598Y-105487654D01*
X139750000Y-105487654D01*
X139603683Y-105516758D01*
X139479641Y-105599641D01*
X139396758Y-105723683D01*
X139367654Y-105870000D01*
X139367654Y-106445240D01*
X139312894Y-106500000D01*
X138954634Y-106500000D01*
X138882856Y-106428097D01*
X138634855Y-106325117D01*
X138366323Y-106324883D01*
X138118143Y-106427429D01*
X137928097Y-106617144D01*
X137825117Y-106865145D01*
X137824883Y-107133677D01*
X137927429Y-107381857D01*
X138117144Y-107571903D01*
X138365145Y-107674883D01*
X138633677Y-107675117D01*
X138881857Y-107572571D01*
X138954555Y-107500000D01*
X139520000Y-107500000D01*
X139711342Y-107461940D01*
X139873553Y-107353553D01*
X140174760Y-107052346D01*
X140713598Y-107052346D01*
X140713598Y-107697000D01*
X140537250Y-107697000D01*
X140379000Y-107855250D01*
X140379000Y-108601000D01*
X140399000Y-108601000D01*
X140399000Y-108859000D01*
X140379000Y-108859000D01*
X140379000Y-108879000D01*
X140121000Y-108879000D01*
X140121000Y-108859000D01*
X139275250Y-108859000D01*
X139117000Y-109017250D01*
X139117000Y-109209893D01*
X138675028Y-108767922D01*
X138675117Y-108666323D01*
X138572571Y-108418143D01*
X138382856Y-108228097D01*
X138325039Y-108204089D01*
X139117000Y-108204089D01*
X139117000Y-108442750D01*
X139275250Y-108601000D01*
X140121000Y-108601000D01*
X140121000Y-107855250D01*
X139962750Y-107697000D01*
X139624088Y-107697000D01*
X139391434Y-107793369D01*
X139213368Y-107971435D01*
X139117000Y-108204089D01*
X138325039Y-108204089D01*
X138134855Y-108125117D01*
X137866323Y-108124883D01*
X137618143Y-108227429D01*
X137428097Y-108417144D01*
X137325117Y-108665145D01*
X137324883Y-108933677D01*
X137427429Y-109181857D01*
X137617144Y-109371903D01*
X137865145Y-109474883D01*
X137967866Y-109474973D01*
X138946447Y-110453554D01*
X138997482Y-110487654D01*
X139108658Y-110561940D01*
X139300000Y-110600000D01*
X139479401Y-110600000D01*
X139396758Y-110723683D01*
X139367654Y-110870000D01*
X139367654Y-111445240D01*
X139312894Y-111500000D01*
X138954634Y-111500000D01*
X138882856Y-111428097D01*
X138634855Y-111325117D01*
X138366323Y-111324883D01*
X138118143Y-111427429D01*
X137928097Y-111617144D01*
X137825117Y-111865145D01*
X137824883Y-112133677D01*
X137927429Y-112381857D01*
X138117144Y-112571903D01*
X138365145Y-112674883D01*
X138633677Y-112675117D01*
X138881857Y-112572571D01*
X138954555Y-112500000D01*
X139520000Y-112500000D01*
X139711342Y-112461940D01*
X139873553Y-112353553D01*
X140174760Y-112052346D01*
X140750000Y-112052346D01*
X140896317Y-112023242D01*
X141020359Y-111940359D01*
X141103242Y-111816317D01*
X141132346Y-111670000D01*
X141132346Y-110870000D01*
X141103242Y-110723683D01*
X141020599Y-110600000D01*
X144145366Y-110600000D01*
X144217144Y-110671903D01*
X144465145Y-110774883D01*
X144733677Y-110775117D01*
X144981857Y-110672571D01*
X145171903Y-110482856D01*
X145274883Y-110234855D01*
X145275117Y-109966323D01*
X145237393Y-109875023D01*
X145917866Y-109875023D01*
X144767922Y-111024968D01*
X144666323Y-111024879D01*
X144418143Y-111127425D01*
X144228097Y-111317140D01*
X144125117Y-111565141D01*
X144124883Y-111833673D01*
X144227429Y-112081853D01*
X144417144Y-112271899D01*
X144665145Y-112374879D01*
X144933677Y-112375113D01*
X145181857Y-112272567D01*
X145371903Y-112082852D01*
X145474883Y-111834851D01*
X145474973Y-111732130D01*
X146757103Y-110450000D01*
X147392894Y-110450000D01*
X147467654Y-110524760D01*
X147467654Y-110800000D01*
X147496758Y-110946317D01*
X147579641Y-111070359D01*
X147703683Y-111153242D01*
X147850000Y-111182346D01*
X148250000Y-111182346D01*
X148396317Y-111153242D01*
X148500000Y-111083963D01*
X148603683Y-111153242D01*
X148720429Y-111176464D01*
X146996915Y-112899978D01*
X145423200Y-112899978D01*
X145231858Y-112938038D01*
X145069646Y-113046425D01*
X144496425Y-113619647D01*
X144388038Y-113781858D01*
X144349978Y-113973200D01*
X144349978Y-114875000D01*
X137125000Y-114875000D01*
X137125000Y-104017250D01*
X139117000Y-104017250D01*
X139117000Y-104255911D01*
X139213368Y-104488565D01*
X139391434Y-104666631D01*
X139624088Y-104763000D01*
X139962750Y-104763000D01*
X140121000Y-104604750D01*
X140121000Y-103859000D01*
X139275250Y-103859000D01*
X139117000Y-104017250D01*
X137125000Y-104017250D01*
X137125000Y-103204089D01*
X139117000Y-103204089D01*
X139117000Y-103442750D01*
X139275250Y-103601000D01*
X140121000Y-103601000D01*
X140121000Y-102855250D01*
X139962750Y-102697000D01*
X139624088Y-102697000D01*
X139391434Y-102793369D01*
X139213368Y-102971435D01*
X139117000Y-103204089D01*
X137125000Y-103204089D01*
X137125000Y-102000000D01*
X137115485Y-101952165D01*
X137088388Y-101911612D01*
X137047835Y-101884515D01*
X137000000Y-101875000D01*
X134125000Y-101875000D01*
X134125000Y-96832106D01*
X134957106Y-96000000D01*
X137032628Y-96000000D01*
X137079641Y-96070359D01*
X137079641Y-96070359D01*
G37*
X137079641Y-96070359D02*
X137203683Y-96153242D01*
X137350000Y-96182346D01*
X137425240Y-96182346D01*
X137721448Y-96478555D01*
X137792322Y-96525911D01*
X137883659Y-96586941D01*
X138038065Y-96617654D01*
X137500000Y-96617654D01*
X137353683Y-96646758D01*
X137229641Y-96729641D01*
X137146758Y-96853683D01*
X137117654Y-97000000D01*
X137117654Y-100000000D01*
X137146758Y-100146317D01*
X137229641Y-100270359D01*
X137353683Y-100353242D01*
X137500000Y-100382346D01*
X140000000Y-100382346D01*
X140146317Y-100353242D01*
X140200000Y-100317372D01*
X140200000Y-100366952D01*
X140163047Y-100422256D01*
X140124987Y-100613598D01*
X140124987Y-101786402D01*
X140155806Y-101941340D01*
X140163047Y-101977744D01*
X140271434Y-102139955D01*
X140713598Y-102582120D01*
X140713598Y-102697000D01*
X140537250Y-102697000D01*
X140379000Y-102855250D01*
X140379000Y-103601000D01*
X140399000Y-103601000D01*
X140399000Y-103859000D01*
X140379000Y-103859000D01*
X140379000Y-104604750D01*
X140537250Y-104763000D01*
X140713598Y-104763000D01*
X140713598Y-105487654D01*
X139750000Y-105487654D01*
X139603683Y-105516758D01*
X139479641Y-105599641D01*
X139396758Y-105723683D01*
X139367654Y-105870000D01*
X139367654Y-106445240D01*
X139312894Y-106500000D01*
X138954634Y-106500000D01*
X138882856Y-106428097D01*
X138634855Y-106325117D01*
X138366323Y-106324883D01*
X138118143Y-106427429D01*
X137928097Y-106617144D01*
X137825117Y-106865145D01*
X137824883Y-107133677D01*
X137927429Y-107381857D01*
X138117144Y-107571903D01*
X138365145Y-107674883D01*
X138633677Y-107675117D01*
X138881857Y-107572571D01*
X138954555Y-107500000D01*
X139520000Y-107500000D01*
X139711342Y-107461940D01*
X139873553Y-107353553D01*
X140174760Y-107052346D01*
X140713598Y-107052346D01*
X140713598Y-107697000D01*
X140537250Y-107697000D01*
X140379000Y-107855250D01*
X140379000Y-108601000D01*
X140399000Y-108601000D01*
X140399000Y-108859000D01*
X140379000Y-108859000D01*
X140379000Y-108879000D01*
X140121000Y-108879000D01*
X140121000Y-108859000D01*
X139275250Y-108859000D01*
X139117000Y-109017250D01*
X139117000Y-109209893D01*
X138675028Y-108767922D01*
X138675117Y-108666323D01*
X138572571Y-108418143D01*
X138382856Y-108228097D01*
X138325039Y-108204089D01*
X139117000Y-108204089D01*
X139117000Y-108442750D01*
X139275250Y-108601000D01*
X140121000Y-108601000D01*
X140121000Y-107855250D01*
X139962750Y-107697000D01*
X139624088Y-107697000D01*
X139391434Y-107793369D01*
X139213368Y-107971435D01*
X139117000Y-108204089D01*
X138325039Y-108204089D01*
X138134855Y-108125117D01*
X137866323Y-108124883D01*
X137618143Y-108227429D01*
X137428097Y-108417144D01*
X137325117Y-108665145D01*
X137324883Y-108933677D01*
X137427429Y-109181857D01*
X137617144Y-109371903D01*
X137865145Y-109474883D01*
X137967866Y-109474973D01*
X138946447Y-110453554D01*
X138997482Y-110487654D01*
X139108658Y-110561940D01*
X139300000Y-110600000D01*
X139479401Y-110600000D01*
X139396758Y-110723683D01*
X139367654Y-110870000D01*
X139367654Y-111445240D01*
X139312894Y-111500000D01*
X138954634Y-111500000D01*
X138882856Y-111428097D01*
X138634855Y-111325117D01*
X138366323Y-111324883D01*
X138118143Y-111427429D01*
X137928097Y-111617144D01*
X137825117Y-111865145D01*
X137824883Y-112133677D01*
X137927429Y-112381857D01*
X138117144Y-112571903D01*
X138365145Y-112674883D01*
X138633677Y-112675117D01*
X138881857Y-112572571D01*
X138954555Y-112500000D01*
X139520000Y-112500000D01*
X139711342Y-112461940D01*
X139873553Y-112353553D01*
X140174760Y-112052346D01*
X140750000Y-112052346D01*
X140896317Y-112023242D01*
X141020359Y-111940359D01*
X141103242Y-111816317D01*
X141132346Y-111670000D01*
X141132346Y-110870000D01*
X141103242Y-110723683D01*
X141020599Y-110600000D01*
X144145366Y-110600000D01*
X144217144Y-110671903D01*
X144465145Y-110774883D01*
X144733677Y-110775117D01*
X144981857Y-110672571D01*
X145171903Y-110482856D01*
X145274883Y-110234855D01*
X145275117Y-109966323D01*
X145237393Y-109875023D01*
X145917866Y-109875023D01*
X144767922Y-111024968D01*
X144666323Y-111024879D01*
X144418143Y-111127425D01*
X144228097Y-111317140D01*
X144125117Y-111565141D01*
X144124883Y-111833673D01*
X144227429Y-112081853D01*
X144417144Y-112271899D01*
X144665145Y-112374879D01*
X144933677Y-112375113D01*
X145181857Y-112272567D01*
X145371903Y-112082852D01*
X145474883Y-111834851D01*
X145474973Y-111732130D01*
X146757103Y-110450000D01*
X147392894Y-110450000D01*
X147467654Y-110524760D01*
X147467654Y-110800000D01*
X147496758Y-110946317D01*
X147579641Y-111070359D01*
X147703683Y-111153242D01*
X147850000Y-111182346D01*
X148250000Y-111182346D01*
X148396317Y-111153242D01*
X148500000Y-111083963D01*
X148603683Y-111153242D01*
X148720429Y-111176464D01*
X146996915Y-112899978D01*
X145423200Y-112899978D01*
X145231858Y-112938038D01*
X145069646Y-113046425D01*
X144496425Y-113619647D01*
X144388038Y-113781858D01*
X144349978Y-113973200D01*
X144349978Y-114875000D01*
X137125000Y-114875000D01*
X137125000Y-104017250D01*
X139117000Y-104017250D01*
X139117000Y-104255911D01*
X139213368Y-104488565D01*
X139391434Y-104666631D01*
X139624088Y-104763000D01*
X139962750Y-104763000D01*
X140121000Y-104604750D01*
X140121000Y-103859000D01*
X139275250Y-103859000D01*
X139117000Y-104017250D01*
X137125000Y-104017250D01*
X137125000Y-103204089D01*
X139117000Y-103204089D01*
X139117000Y-103442750D01*
X139275250Y-103601000D01*
X140121000Y-103601000D01*
X140121000Y-102855250D01*
X139962750Y-102697000D01*
X139624088Y-102697000D01*
X139391434Y-102793369D01*
X139213368Y-102971435D01*
X139117000Y-103204089D01*
X137125000Y-103204089D01*
X137125000Y-102000000D01*
X137115485Y-101952165D01*
X137088388Y-101911612D01*
X137047835Y-101884515D01*
X137000000Y-101875000D01*
X134125000Y-101875000D01*
X134125000Y-96832106D01*
X134957106Y-96000000D01*
X137032628Y-96000000D01*
X137079641Y-96070359D01*
G36*
X169575000Y-114875000D02*
X163648033Y-114875000D01*
X163648033Y-108780143D01*
X164671443Y-109803554D01*
X164778404Y-109875023D01*
X164833654Y-109911940D01*
X165024996Y-109950000D01*
X165474001Y-109950000D01*
X165553683Y-110003242D01*
X165700000Y-110032346D01*
X166300000Y-110032346D01*
X166446317Y-110003242D01*
X166525999Y-109950000D01*
X166974001Y-109950000D01*
X167053683Y-110003242D01*
X167200000Y-110032346D01*
X167800000Y-110032346D01*
X167946317Y-110003242D01*
X168070359Y-109920359D01*
X168153242Y-109796317D01*
X168182346Y-109650000D01*
X168182346Y-109250000D01*
X168153242Y-109103683D01*
X168083963Y-109000000D01*
X168153242Y-108896317D01*
X168182346Y-108750000D01*
X168182346Y-108350000D01*
X168153242Y-108203683D01*
X168093138Y-108113732D01*
X168158565Y-108086632D01*
X168336631Y-107908566D01*
X168433000Y-107675912D01*
X168433000Y-107387250D01*
X168274750Y-107229000D01*
X167700000Y-107229000D01*
X167700000Y-107249000D01*
X167532346Y-107249000D01*
X167532346Y-106951000D01*
X167700000Y-106951000D01*
X167700000Y-106971000D01*
X168274750Y-106971000D01*
X168433000Y-106812750D01*
X168433000Y-106524088D01*
X168336631Y-106291434D01*
X168193620Y-106148423D01*
X168251343Y-106136941D01*
X168413554Y-106028554D01*
X168478554Y-105963554D01*
X168586941Y-105801343D01*
X168625001Y-105610001D01*
X168625001Y-104189999D01*
X168586941Y-103998657D01*
X168554124Y-103949543D01*
X168478554Y-103836445D01*
X167450000Y-102807892D01*
X167450000Y-97357106D01*
X167532078Y-97275028D01*
X167633677Y-97275117D01*
X167881857Y-97172571D01*
X168071903Y-96982856D01*
X168174883Y-96734855D01*
X168175117Y-96466323D01*
X168072571Y-96218143D01*
X167882856Y-96028097D01*
X167634855Y-95925117D01*
X167366323Y-95924883D01*
X167118143Y-96027429D01*
X166928097Y-96217144D01*
X166825117Y-96465145D01*
X166825027Y-96567866D01*
X166596447Y-96796447D01*
X166488060Y-96958658D01*
X166450000Y-97150000D01*
X166450000Y-103014998D01*
X166452011Y-103025110D01*
X166200001Y-103024891D01*
X166200001Y-97325001D01*
X166161941Y-97133659D01*
X166118527Y-97068687D01*
X166053555Y-96971448D01*
X165757346Y-96675239D01*
X165757346Y-96000000D01*
X165728242Y-95853683D01*
X165645359Y-95729641D01*
X165521317Y-95646758D01*
X165375000Y-95617654D01*
X165348675Y-95617654D01*
X165327425Y-95510823D01*
X165191942Y-95308058D01*
X165191939Y-95308056D01*
X162258884Y-92375000D01*
X163011640Y-91622244D01*
X163131857Y-91572571D01*
X163321903Y-91382856D01*
X163424883Y-91134855D01*
X163425117Y-90866323D01*
X163322571Y-90618143D01*
X163132856Y-90428097D01*
X162884855Y-90325117D01*
X162616323Y-90324883D01*
X162368143Y-90427429D01*
X162178097Y-90617144D01*
X162127768Y-90738348D01*
X161375000Y-91491116D01*
X159625000Y-89741116D01*
X159625000Y-80428331D01*
X159631145Y-80430883D01*
X159899677Y-80431117D01*
X160147857Y-80328571D01*
X160337903Y-80138856D01*
X160440883Y-79890855D01*
X160441117Y-79622323D01*
X160338571Y-79374143D01*
X160148856Y-79184097D01*
X159900855Y-79081117D01*
X159632323Y-79080883D01*
X159625000Y-79083909D01*
X159625000Y-77625000D01*
X169575000Y-77625000D01*
X169575000Y-114875000D01*
X169575000Y-114875000D01*
G37*
X169575000Y-114875000D02*
X163648033Y-114875000D01*
X163648033Y-108780143D01*
X164671443Y-109803554D01*
X164778404Y-109875023D01*
X164833654Y-109911940D01*
X165024996Y-109950000D01*
X165474001Y-109950000D01*
X165553683Y-110003242D01*
X165700000Y-110032346D01*
X166300000Y-110032346D01*
X166446317Y-110003242D01*
X166525999Y-109950000D01*
X166974001Y-109950000D01*
X167053683Y-110003242D01*
X167200000Y-110032346D01*
X167800000Y-110032346D01*
X167946317Y-110003242D01*
X168070359Y-109920359D01*
X168153242Y-109796317D01*
X168182346Y-109650000D01*
X168182346Y-109250000D01*
X168153242Y-109103683D01*
X168083963Y-109000000D01*
X168153242Y-108896317D01*
X168182346Y-108750000D01*
X168182346Y-108350000D01*
X168153242Y-108203683D01*
X168093138Y-108113732D01*
X168158565Y-108086632D01*
X168336631Y-107908566D01*
X168433000Y-107675912D01*
X168433000Y-107387250D01*
X168274750Y-107229000D01*
X167700000Y-107229000D01*
X167700000Y-107249000D01*
X167532346Y-107249000D01*
X167532346Y-106951000D01*
X167700000Y-106951000D01*
X167700000Y-106971000D01*
X168274750Y-106971000D01*
X168433000Y-106812750D01*
X168433000Y-106524088D01*
X168336631Y-106291434D01*
X168193620Y-106148423D01*
X168251343Y-106136941D01*
X168413554Y-106028554D01*
X168478554Y-105963554D01*
X168586941Y-105801343D01*
X168625001Y-105610001D01*
X168625001Y-104189999D01*
X168586941Y-103998657D01*
X168554124Y-103949543D01*
X168478554Y-103836445D01*
X167450000Y-102807892D01*
X167450000Y-97357106D01*
X167532078Y-97275028D01*
X167633677Y-97275117D01*
X167881857Y-97172571D01*
X168071903Y-96982856D01*
X168174883Y-96734855D01*
X168175117Y-96466323D01*
X168072571Y-96218143D01*
X167882856Y-96028097D01*
X167634855Y-95925117D01*
X167366323Y-95924883D01*
X167118143Y-96027429D01*
X166928097Y-96217144D01*
X166825117Y-96465145D01*
X166825027Y-96567866D01*
X166596447Y-96796447D01*
X166488060Y-96958658D01*
X166450000Y-97150000D01*
X166450000Y-103014998D01*
X166452011Y-103025110D01*
X166200001Y-103024891D01*
X166200001Y-97325001D01*
X166161941Y-97133659D01*
X166118527Y-97068687D01*
X166053555Y-96971448D01*
X165757346Y-96675239D01*
X165757346Y-96000000D01*
X165728242Y-95853683D01*
X165645359Y-95729641D01*
X165521317Y-95646758D01*
X165375000Y-95617654D01*
X165348675Y-95617654D01*
X165327425Y-95510823D01*
X165191942Y-95308058D01*
X165191939Y-95308056D01*
X162258884Y-92375000D01*
X163011640Y-91622244D01*
X163131857Y-91572571D01*
X163321903Y-91382856D01*
X163424883Y-91134855D01*
X163425117Y-90866323D01*
X163322571Y-90618143D01*
X163132856Y-90428097D01*
X162884855Y-90325117D01*
X162616323Y-90324883D01*
X162368143Y-90427429D01*
X162178097Y-90617144D01*
X162127768Y-90738348D01*
X161375000Y-91491116D01*
X159625000Y-89741116D01*
X159625000Y-80428331D01*
X159631145Y-80430883D01*
X159899677Y-80431117D01*
X160147857Y-80328571D01*
X160337903Y-80138856D01*
X160440883Y-79890855D01*
X160441117Y-79622323D01*
X160338571Y-79374143D01*
X160148856Y-79184097D01*
X159900855Y-79081117D01*
X159632323Y-79080883D01*
X159625000Y-79083909D01*
X159625000Y-77625000D01*
X169575000Y-77625000D01*
X169575000Y-114875000D01*
G36*
X159524972Y-106232078D02*
X159524883Y-106333677D01*
X159627429Y-106581857D01*
X159817144Y-106771903D01*
X160065145Y-106874883D01*
X160333677Y-106875117D01*
X160581857Y-106772571D01*
X160771903Y-106582856D01*
X160874883Y-106334855D01*
X160875117Y-106066323D01*
X160833503Y-105965609D01*
X161298000Y-106430107D01*
X161298000Y-113546000D01*
X150568634Y-113546000D01*
X150496856Y-113474097D01*
X150292757Y-113389347D01*
X151839906Y-111842198D01*
X151866343Y-111836939D01*
X152028554Y-111728552D01*
X152574760Y-111182346D01*
X152650000Y-111182346D01*
X152796317Y-111153242D01*
X152920359Y-111070359D01*
X152977699Y-110984545D01*
X153091342Y-110961940D01*
X153253553Y-110853553D01*
X153701666Y-110405440D01*
X153800000Y-110425000D01*
X155245010Y-110425000D01*
X155365145Y-110474885D01*
X155633677Y-110475119D01*
X155754969Y-110425002D01*
X155924264Y-110425002D01*
X155924274Y-110425000D01*
X159075000Y-110425000D01*
X159314177Y-110377425D01*
X159516942Y-110241942D01*
X159691939Y-110066944D01*
X159691942Y-110066942D01*
X159780985Y-109933679D01*
X159827425Y-109864178D01*
X159875000Y-109625000D01*
X159875000Y-109425667D01*
X159920359Y-109395359D01*
X160003242Y-109271317D01*
X160032346Y-109125000D01*
X160032346Y-108375000D01*
X160003242Y-108228683D01*
X159920359Y-108104641D01*
X159796317Y-108021758D01*
X159650000Y-107992654D01*
X159250000Y-107992654D01*
X159250000Y-107236931D01*
X159257346Y-107200000D01*
X159257346Y-106200000D01*
X159228242Y-106053683D01*
X159145359Y-105929641D01*
X159021317Y-105846758D01*
X158891042Y-105820845D01*
X158733566Y-105663369D01*
X158500912Y-105567000D01*
X158470750Y-105567000D01*
X158312500Y-105725250D01*
X158312500Y-105992709D01*
X158271758Y-106053683D01*
X158250000Y-106163069D01*
X158250000Y-105088587D01*
X158217353Y-104924460D01*
X159524972Y-106232078D01*
X159524972Y-106232078D01*
G37*
X159524972Y-106232078D02*
X159524883Y-106333677D01*
X159627429Y-106581857D01*
X159817144Y-106771903D01*
X160065145Y-106874883D01*
X160333677Y-106875117D01*
X160581857Y-106772571D01*
X160771903Y-106582856D01*
X160874883Y-106334855D01*
X160875117Y-106066323D01*
X160833503Y-105965609D01*
X161298000Y-106430107D01*
X161298000Y-113546000D01*
X150568634Y-113546000D01*
X150496856Y-113474097D01*
X150292757Y-113389347D01*
X151839906Y-111842198D01*
X151866343Y-111836939D01*
X152028554Y-111728552D01*
X152574760Y-111182346D01*
X152650000Y-111182346D01*
X152796317Y-111153242D01*
X152920359Y-111070359D01*
X152977699Y-110984545D01*
X153091342Y-110961940D01*
X153253553Y-110853553D01*
X153701666Y-110405440D01*
X153800000Y-110425000D01*
X155245010Y-110425000D01*
X155365145Y-110474885D01*
X155633677Y-110475119D01*
X155754969Y-110425002D01*
X155924264Y-110425002D01*
X155924274Y-110425000D01*
X159075000Y-110425000D01*
X159314177Y-110377425D01*
X159516942Y-110241942D01*
X159691939Y-110066944D01*
X159691942Y-110066942D01*
X159780985Y-109933679D01*
X159827425Y-109864178D01*
X159875000Y-109625000D01*
X159875000Y-109425667D01*
X159920359Y-109395359D01*
X160003242Y-109271317D01*
X160032346Y-109125000D01*
X160032346Y-108375000D01*
X160003242Y-108228683D01*
X159920359Y-108104641D01*
X159796317Y-108021758D01*
X159650000Y-107992654D01*
X159250000Y-107992654D01*
X159250000Y-107236931D01*
X159257346Y-107200000D01*
X159257346Y-106200000D01*
X159228242Y-106053683D01*
X159145359Y-105929641D01*
X159021317Y-105846758D01*
X158891042Y-105820845D01*
X158733566Y-105663369D01*
X158500912Y-105567000D01*
X158470750Y-105567000D01*
X158312500Y-105725250D01*
X158312500Y-105992709D01*
X158271758Y-106053683D01*
X158250000Y-106163069D01*
X158250000Y-105088587D01*
X158217353Y-104924460D01*
X159524972Y-106232078D01*
G36*
X157608958Y-107579155D02*
X157766434Y-107736631D01*
X157961726Y-107817524D01*
X157879000Y-107900250D01*
X157879000Y-108621000D01*
X157899000Y-108621000D01*
X157899000Y-108879000D01*
X157879000Y-108879000D01*
X157879000Y-108899000D01*
X157621000Y-108899000D01*
X157621000Y-108879000D01*
X156875250Y-108879000D01*
X156717000Y-109037250D01*
X156717000Y-109175000D01*
X155924266Y-109175000D01*
X155924256Y-109175002D01*
X155754985Y-109175002D01*
X155634855Y-109125119D01*
X155582033Y-109125073D01*
X156103553Y-108603554D01*
X156153646Y-108528584D01*
X156265145Y-108574883D01*
X156533677Y-108575117D01*
X156742913Y-108488663D01*
X156875250Y-108621000D01*
X157621000Y-108621000D01*
X157621000Y-107900250D01*
X157462750Y-107742000D01*
X157224089Y-107742000D01*
X157075084Y-107803719D01*
X157075117Y-107766323D01*
X156989674Y-107559536D01*
X157000000Y-107557482D01*
X157125000Y-107582346D01*
X157375000Y-107582346D01*
X157500000Y-107557482D01*
X157608958Y-107579155D01*
X157608958Y-107579155D01*
G37*
X157608958Y-107579155D02*
X157766434Y-107736631D01*
X157961726Y-107817524D01*
X157879000Y-107900250D01*
X157879000Y-108621000D01*
X157899000Y-108621000D01*
X157899000Y-108879000D01*
X157879000Y-108879000D01*
X157879000Y-108899000D01*
X157621000Y-108899000D01*
X157621000Y-108879000D01*
X156875250Y-108879000D01*
X156717000Y-109037250D01*
X156717000Y-109175000D01*
X155924266Y-109175000D01*
X155924256Y-109175002D01*
X155754985Y-109175002D01*
X155634855Y-109125119D01*
X155582033Y-109125073D01*
X156103553Y-108603554D01*
X156153646Y-108528584D01*
X156265145Y-108574883D01*
X156533677Y-108575117D01*
X156742913Y-108488663D01*
X156875250Y-108621000D01*
X157621000Y-108621000D01*
X157621000Y-107900250D01*
X157462750Y-107742000D01*
X157224089Y-107742000D01*
X157075084Y-107803719D01*
X157075117Y-107766323D01*
X156989674Y-107559536D01*
X157000000Y-107557482D01*
X157125000Y-107582346D01*
X157375000Y-107582346D01*
X157500000Y-107557482D01*
X157608958Y-107579155D01*
G36*
X165125000Y-106421000D02*
X165149000Y-106421000D01*
X165149000Y-106679000D01*
X165125000Y-106679000D01*
X165125000Y-107324750D01*
X165132113Y-107331863D01*
X165053872Y-107520288D01*
X165053638Y-107788820D01*
X165156184Y-108037000D01*
X165342740Y-108223882D01*
X165317654Y-108350000D01*
X165317654Y-108750000D01*
X165346758Y-108896317D01*
X165382628Y-108950000D01*
X165232103Y-108950000D01*
X164374998Y-108092896D01*
X164374998Y-107370195D01*
X164391434Y-107386631D01*
X164624088Y-107483000D01*
X164716750Y-107483000D01*
X164875000Y-107324750D01*
X164875000Y-106679000D01*
X164851000Y-106679000D01*
X164851000Y-106421000D01*
X164875000Y-106421000D01*
X164875000Y-106401000D01*
X165125000Y-106401000D01*
X165125000Y-106421000D01*
X165125000Y-106421000D01*
G37*
X165125000Y-106421000D02*
X165149000Y-106421000D01*
X165149000Y-106679000D01*
X165125000Y-106679000D01*
X165125000Y-107324750D01*
X165132113Y-107331863D01*
X165053872Y-107520288D01*
X165053638Y-107788820D01*
X165156184Y-108037000D01*
X165342740Y-108223882D01*
X165317654Y-108350000D01*
X165317654Y-108750000D01*
X165346758Y-108896317D01*
X165382628Y-108950000D01*
X165232103Y-108950000D01*
X164374998Y-108092896D01*
X164374998Y-107370195D01*
X164391434Y-107386631D01*
X164624088Y-107483000D01*
X164716750Y-107483000D01*
X164875000Y-107324750D01*
X164875000Y-106679000D01*
X164851000Y-106679000D01*
X164851000Y-106421000D01*
X164875000Y-106421000D01*
X164875000Y-106401000D01*
X165125000Y-106401000D01*
X165125000Y-106421000D01*
G36*
X151108958Y-107579155D02*
X151266434Y-107736631D01*
X151461726Y-107817524D01*
X151379000Y-107900250D01*
X151379000Y-108621000D01*
X151399000Y-108621000D01*
X151399000Y-108879000D01*
X151379000Y-108879000D01*
X151379000Y-108899000D01*
X151121000Y-108899000D01*
X151121000Y-108879000D01*
X151101000Y-108879000D01*
X151101000Y-108621000D01*
X151121000Y-108621000D01*
X151121000Y-107900250D01*
X151024999Y-107804249D01*
X151024999Y-107562455D01*
X151108958Y-107579155D01*
X151108958Y-107579155D01*
G37*
X151108958Y-107579155D02*
X151266434Y-107736631D01*
X151461726Y-107817524D01*
X151379000Y-107900250D01*
X151379000Y-108621000D01*
X151399000Y-108621000D01*
X151399000Y-108879000D01*
X151379000Y-108879000D01*
X151379000Y-108899000D01*
X151121000Y-108899000D01*
X151121000Y-108879000D01*
X151101000Y-108879000D01*
X151101000Y-108621000D01*
X151121000Y-108621000D01*
X151121000Y-107900250D01*
X151024999Y-107804249D01*
X151024999Y-107562455D01*
X151108958Y-107579155D01*
G36*
X164879000Y-98371000D02*
X164899000Y-98371000D01*
X164899000Y-98629000D01*
X164879000Y-98629000D01*
X164879000Y-99474750D01*
X165037250Y-99633000D01*
X165200001Y-99633000D01*
X165200001Y-103992893D01*
X164646447Y-104546447D01*
X164538060Y-104708658D01*
X164507791Y-104860832D01*
X164479641Y-104879641D01*
X164396758Y-105003683D01*
X164367654Y-105150000D01*
X164367654Y-105425240D01*
X163648033Y-106144861D01*
X163648033Y-104471211D01*
X163609973Y-104279869D01*
X163606623Y-104274855D01*
X163501586Y-104117657D01*
X162280375Y-102896447D01*
X162118164Y-102788060D01*
X162114092Y-102787250D01*
X161926822Y-102750000D01*
X161582346Y-102750000D01*
X161582346Y-102625000D01*
X161557482Y-102500000D01*
X161582346Y-102375000D01*
X161582346Y-102367599D01*
X161809705Y-102595356D01*
X162131188Y-102728848D01*
X162479285Y-102729151D01*
X162801000Y-102596221D01*
X163047356Y-102350295D01*
X163180848Y-102028812D01*
X163181151Y-101680715D01*
X163048221Y-101359000D01*
X162802295Y-101112644D01*
X162798908Y-101111237D01*
X162767940Y-100955552D01*
X162747525Y-100924998D01*
X162883677Y-100925117D01*
X163131857Y-100822571D01*
X163321903Y-100632856D01*
X163424883Y-100384855D01*
X163425117Y-100116323D01*
X163322571Y-99868143D01*
X163285507Y-99831014D01*
X163387362Y-99585723D01*
X163387596Y-99317191D01*
X163355558Y-99239654D01*
X163483566Y-99186631D01*
X163507314Y-99162883D01*
X163588368Y-99358565D01*
X163766434Y-99536631D01*
X163999088Y-99633000D01*
X164462750Y-99633000D01*
X164621000Y-99474750D01*
X164621000Y-98629000D01*
X164601000Y-98629000D01*
X164601000Y-98371000D01*
X164621000Y-98371000D01*
X164621000Y-98351000D01*
X164879000Y-98351000D01*
X164879000Y-98371000D01*
X164879000Y-98371000D01*
G37*
X164879000Y-98371000D02*
X164899000Y-98371000D01*
X164899000Y-98629000D01*
X164879000Y-98629000D01*
X164879000Y-99474750D01*
X165037250Y-99633000D01*
X165200001Y-99633000D01*
X165200001Y-103992893D01*
X164646447Y-104546447D01*
X164538060Y-104708658D01*
X164507791Y-104860832D01*
X164479641Y-104879641D01*
X164396758Y-105003683D01*
X164367654Y-105150000D01*
X164367654Y-105425240D01*
X163648033Y-106144861D01*
X163648033Y-104471211D01*
X163609973Y-104279869D01*
X163606623Y-104274855D01*
X163501586Y-104117657D01*
X162280375Y-102896447D01*
X162118164Y-102788060D01*
X162114092Y-102787250D01*
X161926822Y-102750000D01*
X161582346Y-102750000D01*
X161582346Y-102625000D01*
X161557482Y-102500000D01*
X161582346Y-102375000D01*
X161582346Y-102367599D01*
X161809705Y-102595356D01*
X162131188Y-102728848D01*
X162479285Y-102729151D01*
X162801000Y-102596221D01*
X163047356Y-102350295D01*
X163180848Y-102028812D01*
X163181151Y-101680715D01*
X163048221Y-101359000D01*
X162802295Y-101112644D01*
X162798908Y-101111237D01*
X162767940Y-100955552D01*
X162747525Y-100924998D01*
X162883677Y-100925117D01*
X163131857Y-100822571D01*
X163321903Y-100632856D01*
X163424883Y-100384855D01*
X163425117Y-100116323D01*
X163322571Y-99868143D01*
X163285507Y-99831014D01*
X163387362Y-99585723D01*
X163387596Y-99317191D01*
X163355558Y-99239654D01*
X163483566Y-99186631D01*
X163507314Y-99162883D01*
X163588368Y-99358565D01*
X163766434Y-99536631D01*
X163999088Y-99633000D01*
X164462750Y-99633000D01*
X164621000Y-99474750D01*
X164621000Y-98629000D01*
X164601000Y-98629000D01*
X164601000Y-98371000D01*
X164621000Y-98371000D01*
X164621000Y-98351000D01*
X164879000Y-98351000D01*
X164879000Y-98371000D01*
G36*
X154896447Y-105596447D02*
X154788060Y-105758658D01*
X154776325Y-105817654D01*
X154625000Y-105817654D01*
X154500000Y-105842518D01*
X154375000Y-105817654D01*
X154125000Y-105817654D01*
X154000000Y-105842518D01*
X153875000Y-105817654D01*
X153625000Y-105817654D01*
X153500000Y-105842518D01*
X153375000Y-105817654D01*
X153125000Y-105817654D01*
X153000000Y-105842518D01*
X152875000Y-105817654D01*
X152625000Y-105817654D01*
X152500000Y-105842518D01*
X152391042Y-105820845D01*
X152233566Y-105663369D01*
X152000912Y-105567000D01*
X151971520Y-105567000D01*
X152338520Y-105200000D01*
X155292894Y-105200000D01*
X154896447Y-105596447D01*
X154896447Y-105596447D01*
G37*
X154896447Y-105596447D02*
X154788060Y-105758658D01*
X154776325Y-105817654D01*
X154625000Y-105817654D01*
X154500000Y-105842518D01*
X154375000Y-105817654D01*
X154125000Y-105817654D01*
X154000000Y-105842518D01*
X153875000Y-105817654D01*
X153625000Y-105817654D01*
X153500000Y-105842518D01*
X153375000Y-105817654D01*
X153125000Y-105817654D01*
X153000000Y-105842518D01*
X152875000Y-105817654D01*
X152625000Y-105817654D01*
X152500000Y-105842518D01*
X152391042Y-105820845D01*
X152233566Y-105663369D01*
X152000912Y-105567000D01*
X151971520Y-105567000D01*
X152338520Y-105200000D01*
X155292894Y-105200000D01*
X154896447Y-105596447D01*
G36*
X142628479Y-96235585D02*
X142507000Y-96285779D01*
X142260644Y-96531705D01*
X142127152Y-96853188D01*
X142126849Y-97201285D01*
X142259779Y-97523000D01*
X142505705Y-97769356D01*
X142827188Y-97902848D01*
X143175285Y-97903151D01*
X143497000Y-97770221D01*
X143743356Y-97524295D01*
X143817654Y-97345366D01*
X143817654Y-97700000D01*
X143846758Y-97846317D01*
X143929641Y-97970359D01*
X144053683Y-98053242D01*
X144200000Y-98082346D01*
X145800000Y-98082346D01*
X145946317Y-98053242D01*
X146025999Y-98000000D01*
X146512545Y-98000000D01*
X146521758Y-98046317D01*
X146604641Y-98170359D01*
X146728683Y-98253242D01*
X146875000Y-98282346D01*
X147325239Y-98282346D01*
X147542893Y-98500000D01*
X147325239Y-98717654D01*
X146875000Y-98717654D01*
X146728683Y-98746758D01*
X146604641Y-98829641D01*
X146521758Y-98953683D01*
X146512545Y-99000000D01*
X146025999Y-99000000D01*
X145946317Y-98946758D01*
X145800000Y-98917654D01*
X144200000Y-98917654D01*
X144053683Y-98946758D01*
X143929641Y-99029641D01*
X143846758Y-99153683D01*
X143817654Y-99300000D01*
X143817654Y-100300000D01*
X143846758Y-100446317D01*
X143929641Y-100570359D01*
X144053683Y-100653242D01*
X144200000Y-100682346D01*
X145800000Y-100682346D01*
X145946317Y-100653242D01*
X146070359Y-100570359D01*
X146153242Y-100446317D01*
X146182346Y-100300000D01*
X146182346Y-100000000D01*
X146512545Y-100000000D01*
X146521758Y-100046317D01*
X146529528Y-100057945D01*
X146516434Y-100063369D01*
X146338368Y-100241435D01*
X146242000Y-100474089D01*
X146242000Y-100712750D01*
X146400250Y-100871000D01*
X147121000Y-100871000D01*
X147121000Y-100851000D01*
X147379000Y-100851000D01*
X147379000Y-100871000D01*
X147399000Y-100871000D01*
X147399000Y-101129000D01*
X147379000Y-101129000D01*
X147379000Y-101149000D01*
X147121000Y-101149000D01*
X147121000Y-101129000D01*
X146400250Y-101129000D01*
X146274724Y-101254527D01*
X146233566Y-101213369D01*
X146000912Y-101117000D01*
X145537250Y-101117000D01*
X145379000Y-101275250D01*
X145379000Y-101375000D01*
X145121000Y-101375000D01*
X145121000Y-101275250D01*
X144962750Y-101117000D01*
X144499088Y-101117000D01*
X144266434Y-101213369D01*
X144104803Y-101375000D01*
X142500000Y-101375000D01*
X142452165Y-101384515D01*
X142411612Y-101411612D01*
X142384515Y-101452165D01*
X142375000Y-101500000D01*
X142375000Y-102228372D01*
X142303564Y-102121461D01*
X141574998Y-101392896D01*
X141574998Y-101007104D01*
X141853554Y-100728549D01*
X141922746Y-100624996D01*
X141961940Y-100566338D01*
X142000000Y-100374996D01*
X142000000Y-95607106D01*
X142628479Y-96235585D01*
X142628479Y-96235585D01*
G37*
X142628479Y-96235585D02*
X142507000Y-96285779D01*
X142260644Y-96531705D01*
X142127152Y-96853188D01*
X142126849Y-97201285D01*
X142259779Y-97523000D01*
X142505705Y-97769356D01*
X142827188Y-97902848D01*
X143175285Y-97903151D01*
X143497000Y-97770221D01*
X143743356Y-97524295D01*
X143817654Y-97345366D01*
X143817654Y-97700000D01*
X143846758Y-97846317D01*
X143929641Y-97970359D01*
X144053683Y-98053242D01*
X144200000Y-98082346D01*
X145800000Y-98082346D01*
X145946317Y-98053242D01*
X146025999Y-98000000D01*
X146512545Y-98000000D01*
X146521758Y-98046317D01*
X146604641Y-98170359D01*
X146728683Y-98253242D01*
X146875000Y-98282346D01*
X147325239Y-98282346D01*
X147542893Y-98500000D01*
X147325239Y-98717654D01*
X146875000Y-98717654D01*
X146728683Y-98746758D01*
X146604641Y-98829641D01*
X146521758Y-98953683D01*
X146512545Y-99000000D01*
X146025999Y-99000000D01*
X145946317Y-98946758D01*
X145800000Y-98917654D01*
X144200000Y-98917654D01*
X144053683Y-98946758D01*
X143929641Y-99029641D01*
X143846758Y-99153683D01*
X143817654Y-99300000D01*
X143817654Y-100300000D01*
X143846758Y-100446317D01*
X143929641Y-100570359D01*
X144053683Y-100653242D01*
X144200000Y-100682346D01*
X145800000Y-100682346D01*
X145946317Y-100653242D01*
X146070359Y-100570359D01*
X146153242Y-100446317D01*
X146182346Y-100300000D01*
X146182346Y-100000000D01*
X146512545Y-100000000D01*
X146521758Y-100046317D01*
X146529528Y-100057945D01*
X146516434Y-100063369D01*
X146338368Y-100241435D01*
X146242000Y-100474089D01*
X146242000Y-100712750D01*
X146400250Y-100871000D01*
X147121000Y-100871000D01*
X147121000Y-100851000D01*
X147379000Y-100851000D01*
X147379000Y-100871000D01*
X147399000Y-100871000D01*
X147399000Y-101129000D01*
X147379000Y-101129000D01*
X147379000Y-101149000D01*
X147121000Y-101149000D01*
X147121000Y-101129000D01*
X146400250Y-101129000D01*
X146274724Y-101254527D01*
X146233566Y-101213369D01*
X146000912Y-101117000D01*
X145537250Y-101117000D01*
X145379000Y-101275250D01*
X145379000Y-101375000D01*
X145121000Y-101375000D01*
X145121000Y-101275250D01*
X144962750Y-101117000D01*
X144499088Y-101117000D01*
X144266434Y-101213369D01*
X144104803Y-101375000D01*
X142500000Y-101375000D01*
X142452165Y-101384515D01*
X142411612Y-101411612D01*
X142384515Y-101452165D01*
X142375000Y-101500000D01*
X142375000Y-102228372D01*
X142303564Y-102121461D01*
X141574998Y-101392896D01*
X141574998Y-101007104D01*
X141853554Y-100728549D01*
X141922746Y-100624996D01*
X141961940Y-100566338D01*
X142000000Y-100374996D01*
X142000000Y-95607106D01*
X142628479Y-96235585D01*
G36*
X150385020Y-97153542D02*
X150518385Y-97242654D01*
X150547232Y-97261929D01*
X150738574Y-97299989D01*
X150813932Y-97299989D01*
X150649989Y-97463646D01*
X150547009Y-97711647D01*
X150546775Y-97980179D01*
X150649321Y-98228359D01*
X150839036Y-98418405D01*
X151087037Y-98521385D01*
X151189758Y-98521475D01*
X152325001Y-99656718D01*
X152325001Y-100992894D01*
X152300114Y-101017781D01*
X152252784Y-100903234D01*
X152063069Y-100713188D01*
X151815068Y-100610208D01*
X151546536Y-100609974D01*
X151337202Y-100696469D01*
X151287196Y-100663056D01*
X151277101Y-100661048D01*
X151095854Y-100624996D01*
X150959037Y-100624996D01*
X150959262Y-100366263D01*
X150856716Y-100118083D01*
X150667001Y-99928037D01*
X150419000Y-99825057D01*
X150182346Y-99824851D01*
X150182346Y-99625000D01*
X150157482Y-99500000D01*
X150182346Y-99375000D01*
X150182346Y-99125000D01*
X150157482Y-99000000D01*
X150182346Y-98875000D01*
X150182346Y-98625000D01*
X150157482Y-98500000D01*
X150182346Y-98375000D01*
X150182346Y-98125000D01*
X150157482Y-97999999D01*
X150182346Y-97875000D01*
X150182346Y-97625000D01*
X150157482Y-97500000D01*
X150182346Y-97375000D01*
X150182346Y-97125000D01*
X150153242Y-96978683D01*
X150070359Y-96854641D01*
X149946317Y-96771758D01*
X149800000Y-96742654D01*
X148800000Y-96742654D01*
X148653683Y-96771758D01*
X148529641Y-96854641D01*
X148446758Y-96978683D01*
X148417654Y-97125000D01*
X148417654Y-97375000D01*
X148442518Y-97500000D01*
X148417654Y-97625000D01*
X148417654Y-97750000D01*
X148207107Y-97750000D01*
X148007346Y-97550239D01*
X148007346Y-97100000D01*
X147978242Y-96953683D01*
X147970472Y-96942055D01*
X147983566Y-96936631D01*
X148161632Y-96758565D01*
X148258000Y-96525911D01*
X148258000Y-96287250D01*
X148099750Y-96129000D01*
X147379000Y-96129000D01*
X147379000Y-96149000D01*
X147121000Y-96149000D01*
X147121000Y-96129000D01*
X147101000Y-96129000D01*
X147101000Y-95871000D01*
X147121000Y-95871000D01*
X147121000Y-95851000D01*
X147379000Y-95851000D01*
X147379000Y-95871000D01*
X148099750Y-95871000D01*
X148258000Y-95712750D01*
X148258000Y-95474089D01*
X148227311Y-95400000D01*
X148631479Y-95400000D01*
X150385020Y-97153542D01*
X150385020Y-97153542D01*
G37*
X150385020Y-97153542D02*
X150518385Y-97242654D01*
X150547232Y-97261929D01*
X150738574Y-97299989D01*
X150813932Y-97299989D01*
X150649989Y-97463646D01*
X150547009Y-97711647D01*
X150546775Y-97980179D01*
X150649321Y-98228359D01*
X150839036Y-98418405D01*
X151087037Y-98521385D01*
X151189758Y-98521475D01*
X152325001Y-99656718D01*
X152325001Y-100992894D01*
X152300114Y-101017781D01*
X152252784Y-100903234D01*
X152063069Y-100713188D01*
X151815068Y-100610208D01*
X151546536Y-100609974D01*
X151337202Y-100696469D01*
X151287196Y-100663056D01*
X151277101Y-100661048D01*
X151095854Y-100624996D01*
X150959037Y-100624996D01*
X150959262Y-100366263D01*
X150856716Y-100118083D01*
X150667001Y-99928037D01*
X150419000Y-99825057D01*
X150182346Y-99824851D01*
X150182346Y-99625000D01*
X150157482Y-99500000D01*
X150182346Y-99375000D01*
X150182346Y-99125000D01*
X150157482Y-99000000D01*
X150182346Y-98875000D01*
X150182346Y-98625000D01*
X150157482Y-98500000D01*
X150182346Y-98375000D01*
X150182346Y-98125000D01*
X150157482Y-97999999D01*
X150182346Y-97875000D01*
X150182346Y-97625000D01*
X150157482Y-97500000D01*
X150182346Y-97375000D01*
X150182346Y-97125000D01*
X150153242Y-96978683D01*
X150070359Y-96854641D01*
X149946317Y-96771758D01*
X149800000Y-96742654D01*
X148800000Y-96742654D01*
X148653683Y-96771758D01*
X148529641Y-96854641D01*
X148446758Y-96978683D01*
X148417654Y-97125000D01*
X148417654Y-97375000D01*
X148442518Y-97500000D01*
X148417654Y-97625000D01*
X148417654Y-97750000D01*
X148207107Y-97750000D01*
X148007346Y-97550239D01*
X148007346Y-97100000D01*
X147978242Y-96953683D01*
X147970472Y-96942055D01*
X147983566Y-96936631D01*
X148161632Y-96758565D01*
X148258000Y-96525911D01*
X148258000Y-96287250D01*
X148099750Y-96129000D01*
X147379000Y-96129000D01*
X147379000Y-96149000D01*
X147121000Y-96149000D01*
X147121000Y-96129000D01*
X147101000Y-96129000D01*
X147101000Y-95871000D01*
X147121000Y-95871000D01*
X147121000Y-95851000D01*
X147379000Y-95851000D01*
X147379000Y-95871000D01*
X148099750Y-95871000D01*
X148258000Y-95712750D01*
X148258000Y-95474089D01*
X148227311Y-95400000D01*
X148631479Y-95400000D01*
X150385020Y-97153542D01*
G36*
X162879000Y-98121000D02*
X162899000Y-98121000D01*
X162899000Y-98379000D01*
X162879000Y-98379000D01*
X162879000Y-98399000D01*
X162621000Y-98399000D01*
X162621000Y-98379000D01*
X162601000Y-98379000D01*
X162601000Y-98121000D01*
X162621000Y-98121000D01*
X162621000Y-98101000D01*
X162879000Y-98101000D01*
X162879000Y-98121000D01*
X162879000Y-98121000D01*
G37*
X162879000Y-98121000D02*
X162899000Y-98121000D01*
X162899000Y-98379000D01*
X162879000Y-98379000D01*
X162879000Y-98399000D01*
X162621000Y-98399000D01*
X162621000Y-98379000D01*
X162601000Y-98379000D01*
X162601000Y-98121000D01*
X162621000Y-98121000D01*
X162621000Y-98101000D01*
X162879000Y-98101000D01*
X162879000Y-98121000D01*
G36*
X136491435Y-93088368D02*
X136313369Y-93266434D01*
X136217000Y-93499088D01*
X136217000Y-93712750D01*
X136375250Y-93871000D01*
X137121000Y-93871000D01*
X137121000Y-93851000D01*
X137379000Y-93851000D01*
X137379000Y-93871000D01*
X137399000Y-93871000D01*
X137399000Y-94129000D01*
X137379000Y-94129000D01*
X137379000Y-94149000D01*
X137121000Y-94149000D01*
X137121000Y-94129000D01*
X136375250Y-94129000D01*
X136217000Y-94287250D01*
X136217000Y-94500912D01*
X136313369Y-94733566D01*
X136491435Y-94911632D01*
X136704775Y-95000000D01*
X134750000Y-95000000D01*
X134562730Y-95037250D01*
X134558658Y-95038060D01*
X134396447Y-95146447D01*
X134125000Y-95417894D01*
X134125000Y-95322055D01*
X136447055Y-93000000D01*
X136704775Y-93000000D01*
X136491435Y-93088368D01*
X136491435Y-93088368D01*
G37*
X136491435Y-93088368D02*
X136313369Y-93266434D01*
X136217000Y-93499088D01*
X136217000Y-93712750D01*
X136375250Y-93871000D01*
X137121000Y-93871000D01*
X137121000Y-93851000D01*
X137379000Y-93851000D01*
X137379000Y-93871000D01*
X137399000Y-93871000D01*
X137399000Y-94129000D01*
X137379000Y-94129000D01*
X137379000Y-94149000D01*
X137121000Y-94149000D01*
X137121000Y-94129000D01*
X136375250Y-94129000D01*
X136217000Y-94287250D01*
X136217000Y-94500912D01*
X136313369Y-94733566D01*
X136491435Y-94911632D01*
X136704775Y-95000000D01*
X134750000Y-95000000D01*
X134562730Y-95037250D01*
X134558658Y-95038060D01*
X134396447Y-95146447D01*
X134125000Y-95417894D01*
X134125000Y-95322055D01*
X136447055Y-93000000D01*
X136704775Y-93000000D01*
X136491435Y-93088368D01*
G36*
X145129000Y-94621000D02*
X145149000Y-94621000D01*
X145149000Y-94879000D01*
X145129000Y-94879000D01*
X145129000Y-94899000D01*
X144871000Y-94899000D01*
X144871000Y-94879000D01*
X144851000Y-94879000D01*
X144851000Y-94621000D01*
X144871000Y-94621000D01*
X144871000Y-94601000D01*
X145129000Y-94601000D01*
X145129000Y-94621000D01*
X145129000Y-94621000D01*
G37*
X145129000Y-94621000D02*
X145149000Y-94621000D01*
X145149000Y-94879000D01*
X145129000Y-94879000D01*
X145129000Y-94899000D01*
X144871000Y-94899000D01*
X144871000Y-94879000D01*
X144851000Y-94879000D01*
X144851000Y-94621000D01*
X144871000Y-94621000D01*
X144871000Y-94601000D01*
X145129000Y-94601000D01*
X145129000Y-94621000D01*
G36*
X153944644Y-93229705D02*
X153811152Y-93551188D01*
X153811000Y-93725999D01*
X153574001Y-93725999D01*
X153382659Y-93764059D01*
X153341829Y-93791341D01*
X153237332Y-93861163D01*
X153283000Y-93750912D01*
X153283000Y-93537250D01*
X153124750Y-93379000D01*
X152379000Y-93379000D01*
X152379000Y-94099750D01*
X152537250Y-94258000D01*
X152775911Y-94258000D01*
X152885706Y-94212522D01*
X152788060Y-94358658D01*
X152776325Y-94417654D01*
X152625000Y-94417654D01*
X152500000Y-94442518D01*
X152391042Y-94420845D01*
X152233566Y-94263369D01*
X152038274Y-94182476D01*
X152121000Y-94099750D01*
X152121000Y-93379000D01*
X152101000Y-93379000D01*
X152101000Y-93121000D01*
X152121000Y-93121000D01*
X152121000Y-93101000D01*
X152379000Y-93101000D01*
X152379000Y-93121000D01*
X153124750Y-93121000D01*
X153245750Y-93000000D01*
X154174751Y-93000000D01*
X153944644Y-93229705D01*
X153944644Y-93229705D01*
G37*
X153944644Y-93229705D02*
X153811152Y-93551188D01*
X153811000Y-93725999D01*
X153574001Y-93725999D01*
X153382659Y-93764059D01*
X153341829Y-93791341D01*
X153237332Y-93861163D01*
X153283000Y-93750912D01*
X153283000Y-93537250D01*
X153124750Y-93379000D01*
X152379000Y-93379000D01*
X152379000Y-94099750D01*
X152537250Y-94258000D01*
X152775911Y-94258000D01*
X152885706Y-94212522D01*
X152788060Y-94358658D01*
X152776325Y-94417654D01*
X152625000Y-94417654D01*
X152500000Y-94442518D01*
X152391042Y-94420845D01*
X152233566Y-94263369D01*
X152038274Y-94182476D01*
X152121000Y-94099750D01*
X152121000Y-93379000D01*
X152101000Y-93379000D01*
X152101000Y-93121000D01*
X152121000Y-93121000D01*
X152121000Y-93101000D01*
X152379000Y-93101000D01*
X152379000Y-93121000D01*
X153124750Y-93121000D01*
X153245750Y-93000000D01*
X154174751Y-93000000D01*
X153944644Y-93229705D01*
G36*
X143449000Y-94367654D02*
X143151000Y-94367654D01*
X143151000Y-94282346D01*
X143449000Y-94282346D01*
X143449000Y-94367654D01*
X143449000Y-94367654D01*
G37*
X143449000Y-94367654D02*
X143151000Y-94367654D01*
X143151000Y-94282346D01*
X143449000Y-94282346D01*
X143449000Y-94367654D01*
G36*
X135156828Y-77781907D02*
X134985196Y-78195242D01*
X134984805Y-78642795D01*
X135155715Y-79056429D01*
X135471907Y-79373172D01*
X135885242Y-79544804D01*
X136332795Y-79545195D01*
X136746429Y-79374285D01*
X137063172Y-79058093D01*
X137234804Y-78644758D01*
X137235195Y-78197205D01*
X137064285Y-77783571D01*
X136905990Y-77625000D01*
X137854008Y-77625000D01*
X137696828Y-77781907D01*
X137525196Y-78195242D01*
X137524805Y-78642795D01*
X137695715Y-79056429D01*
X138011907Y-79373172D01*
X138425242Y-79544804D01*
X138872795Y-79545195D01*
X139286429Y-79374285D01*
X139603172Y-79058093D01*
X139774804Y-78644758D01*
X139775195Y-78197205D01*
X139604285Y-77783571D01*
X139445990Y-77625000D01*
X140394008Y-77625000D01*
X140236828Y-77781907D01*
X140065196Y-78195242D01*
X140064805Y-78642795D01*
X140235715Y-79056429D01*
X140551907Y-79373172D01*
X140965242Y-79544804D01*
X141412795Y-79545195D01*
X141826429Y-79374285D01*
X142143172Y-79058093D01*
X142314804Y-78644758D01*
X142315195Y-78197205D01*
X142144285Y-77783571D01*
X141985990Y-77625000D01*
X142934008Y-77625000D01*
X142776828Y-77781907D01*
X142605196Y-78195242D01*
X142604805Y-78642795D01*
X142775715Y-79056429D01*
X143091907Y-79373172D01*
X143505242Y-79544804D01*
X143952795Y-79545195D01*
X144366429Y-79374285D01*
X144683172Y-79058093D01*
X144854804Y-78644758D01*
X144855195Y-78197205D01*
X144684285Y-77783571D01*
X144525990Y-77625000D01*
X148014008Y-77625000D01*
X147856828Y-77781907D01*
X147685196Y-78195242D01*
X147684805Y-78642795D01*
X147855715Y-79056429D01*
X148171907Y-79373172D01*
X148585242Y-79544804D01*
X149032795Y-79545195D01*
X149446429Y-79374285D01*
X149763172Y-79058093D01*
X149934804Y-78644758D01*
X149935195Y-78197205D01*
X149764285Y-77783571D01*
X149605990Y-77625000D01*
X153094008Y-77625000D01*
X152936828Y-77781907D01*
X152765196Y-78195242D01*
X152764805Y-78642795D01*
X152935715Y-79056429D01*
X153251907Y-79373172D01*
X153665242Y-79544804D01*
X154112795Y-79545195D01*
X154526429Y-79374285D01*
X154843172Y-79058093D01*
X155014804Y-78644758D01*
X155015195Y-78197205D01*
X154844285Y-77783571D01*
X154685990Y-77625000D01*
X158375000Y-77625000D01*
X158375000Y-81000000D01*
X157954634Y-81000000D01*
X157882856Y-80928097D01*
X157634855Y-80825117D01*
X157366323Y-80824883D01*
X157118143Y-80927429D01*
X156928097Y-81117144D01*
X156825117Y-81365145D01*
X156824883Y-81633677D01*
X156927429Y-81881857D01*
X157117144Y-82071903D01*
X157365145Y-82174883D01*
X157633677Y-82175117D01*
X157881857Y-82072571D01*
X157954555Y-82000000D01*
X158375000Y-82000000D01*
X158375000Y-89741116D01*
X156366116Y-91750000D01*
X153633000Y-91750000D01*
X153633000Y-91537250D01*
X153474750Y-91379000D01*
X152629000Y-91379000D01*
X152629000Y-91399000D01*
X152371000Y-91399000D01*
X152371000Y-91379000D01*
X152351000Y-91379000D01*
X152351000Y-91121000D01*
X152371000Y-91121000D01*
X152371000Y-90150250D01*
X152629000Y-90150250D01*
X152629000Y-91121000D01*
X153474750Y-91121000D01*
X153633000Y-90962750D01*
X153633000Y-90499088D01*
X153536631Y-90266434D01*
X153358565Y-90088368D01*
X153125911Y-89992000D01*
X152787250Y-89992000D01*
X152629000Y-90150250D01*
X152371000Y-90150250D01*
X152212750Y-89992000D01*
X151874089Y-89992000D01*
X151641435Y-90088368D01*
X151463369Y-90266434D01*
X151367000Y-90499088D01*
X151367000Y-90547850D01*
X151353242Y-90478683D01*
X151270359Y-90354641D01*
X151146317Y-90271758D01*
X151000000Y-90242654D01*
X150000000Y-90242654D01*
X149853683Y-90271758D01*
X149729641Y-90354641D01*
X149646758Y-90478683D01*
X149617654Y-90625000D01*
X146350000Y-90625000D01*
X146110822Y-90672575D01*
X145908058Y-90808058D01*
X144558058Y-92158058D01*
X144422575Y-92360823D01*
X144382791Y-92560832D01*
X144354641Y-92579641D01*
X144271758Y-92703683D01*
X144242654Y-92850000D01*
X144242654Y-93175000D01*
X144132346Y-93175000D01*
X144132346Y-92800000D01*
X144103242Y-92653683D01*
X144020359Y-92529641D01*
X143896317Y-92446758D01*
X143750000Y-92417654D01*
X142850000Y-92417654D01*
X142703683Y-92446758D01*
X142580901Y-92528799D01*
X142408658Y-92563060D01*
X142246447Y-92671447D01*
X141965639Y-92952255D01*
X141961940Y-92933658D01*
X141937076Y-92896447D01*
X141853553Y-92771446D01*
X141753553Y-92671447D01*
X141591342Y-92563060D01*
X141419099Y-92528799D01*
X141296317Y-92446758D01*
X141150000Y-92417654D01*
X140250000Y-92417654D01*
X140174733Y-92432625D01*
X139263554Y-91521446D01*
X139101343Y-91413059D01*
X138910001Y-91374999D01*
X138075001Y-91374999D01*
X137883659Y-91413059D01*
X137841331Y-91441342D01*
X137721448Y-91521445D01*
X137425240Y-91817654D01*
X137350000Y-91817654D01*
X137203683Y-91846758D01*
X137079641Y-91929641D01*
X137032628Y-92000000D01*
X136239949Y-92000000D01*
X136048607Y-92038060D01*
X135886396Y-92146447D01*
X134125000Y-93907843D01*
X134125000Y-89000000D01*
X134115485Y-88952165D01*
X134088388Y-88911612D01*
X134047835Y-88884515D01*
X134000000Y-88875000D01*
X127875000Y-88875000D01*
X127875000Y-88802795D01*
X134984805Y-88802795D01*
X135155715Y-89216429D01*
X135471907Y-89533172D01*
X135885242Y-89704804D01*
X136332795Y-89705195D01*
X136746429Y-89534285D01*
X137063172Y-89218093D01*
X137234804Y-88804758D01*
X137234805Y-88802795D01*
X137524805Y-88802795D01*
X137695715Y-89216429D01*
X138011907Y-89533172D01*
X138425242Y-89704804D01*
X138872795Y-89705195D01*
X139286429Y-89534285D01*
X139603172Y-89218093D01*
X139774804Y-88804758D01*
X139774805Y-88802795D01*
X140064805Y-88802795D01*
X140235715Y-89216429D01*
X140551907Y-89533172D01*
X140965242Y-89704804D01*
X141412795Y-89705195D01*
X141826429Y-89534285D01*
X142143172Y-89218093D01*
X142314804Y-88804758D01*
X142314805Y-88802795D01*
X142604805Y-88802795D01*
X142775715Y-89216429D01*
X143091907Y-89533172D01*
X143505242Y-89704804D01*
X143952795Y-89705195D01*
X144366429Y-89534285D01*
X144683172Y-89218093D01*
X144854804Y-88804758D01*
X144854805Y-88802795D01*
X145144805Y-88802795D01*
X145315715Y-89216429D01*
X145631907Y-89533172D01*
X146045242Y-89704804D01*
X146492795Y-89705195D01*
X146906429Y-89534285D01*
X147223172Y-89218093D01*
X147394804Y-88804758D01*
X147394805Y-88802795D01*
X147684805Y-88802795D01*
X147855715Y-89216429D01*
X148171907Y-89533172D01*
X148585242Y-89704804D01*
X149032795Y-89705195D01*
X149446429Y-89534285D01*
X149763172Y-89218093D01*
X149934804Y-88804758D01*
X149934805Y-88802795D01*
X150224805Y-88802795D01*
X150395715Y-89216429D01*
X150711907Y-89533172D01*
X151125242Y-89704804D01*
X151572795Y-89705195D01*
X151986429Y-89534285D01*
X152303172Y-89218093D01*
X152474804Y-88804758D01*
X152474805Y-88802795D01*
X152764805Y-88802795D01*
X152935715Y-89216429D01*
X153251907Y-89533172D01*
X153665242Y-89704804D01*
X154112795Y-89705195D01*
X154526429Y-89534285D01*
X154843172Y-89218093D01*
X155014804Y-88804758D01*
X155015195Y-88357205D01*
X154844285Y-87943571D01*
X154528093Y-87626828D01*
X154114758Y-87455196D01*
X153667205Y-87454805D01*
X153253571Y-87625715D01*
X152936828Y-87941907D01*
X152765196Y-88355242D01*
X152764805Y-88802795D01*
X152474805Y-88802795D01*
X152475195Y-88357205D01*
X152304285Y-87943571D01*
X151988093Y-87626828D01*
X151574758Y-87455196D01*
X151127205Y-87454805D01*
X150713571Y-87625715D01*
X150396828Y-87941907D01*
X150225196Y-88355242D01*
X150224805Y-88802795D01*
X149934805Y-88802795D01*
X149935195Y-88357205D01*
X149764285Y-87943571D01*
X149448093Y-87626828D01*
X149034758Y-87455196D01*
X148587205Y-87454805D01*
X148173571Y-87625715D01*
X147856828Y-87941907D01*
X147685196Y-88355242D01*
X147684805Y-88802795D01*
X147394805Y-88802795D01*
X147395195Y-88357205D01*
X147224285Y-87943571D01*
X146908093Y-87626828D01*
X146494758Y-87455196D01*
X146047205Y-87454805D01*
X145633571Y-87625715D01*
X145316828Y-87941907D01*
X145145196Y-88355242D01*
X145144805Y-88802795D01*
X144854805Y-88802795D01*
X144855195Y-88357205D01*
X144684285Y-87943571D01*
X144368093Y-87626828D01*
X143954758Y-87455196D01*
X143507205Y-87454805D01*
X143093571Y-87625715D01*
X142776828Y-87941907D01*
X142605196Y-88355242D01*
X142604805Y-88802795D01*
X142314805Y-88802795D01*
X142315195Y-88357205D01*
X142144285Y-87943571D01*
X141828093Y-87626828D01*
X141414758Y-87455196D01*
X140967205Y-87454805D01*
X140553571Y-87625715D01*
X140236828Y-87941907D01*
X140065196Y-88355242D01*
X140064805Y-88802795D01*
X139774805Y-88802795D01*
X139775195Y-88357205D01*
X139604285Y-87943571D01*
X139288093Y-87626828D01*
X138874758Y-87455196D01*
X138427205Y-87454805D01*
X138013571Y-87625715D01*
X137696828Y-87941907D01*
X137525196Y-88355242D01*
X137524805Y-88802795D01*
X137234805Y-88802795D01*
X137235195Y-88357205D01*
X137064285Y-87943571D01*
X136748093Y-87626828D01*
X136334758Y-87455196D01*
X135887205Y-87454805D01*
X135473571Y-87625715D01*
X135156828Y-87941907D01*
X134985196Y-88355242D01*
X134984805Y-88802795D01*
X127875000Y-88802795D01*
X127875000Y-86133677D01*
X136424877Y-86133677D01*
X136527423Y-86381857D01*
X136717138Y-86571903D01*
X136965139Y-86674883D01*
X137233671Y-86675117D01*
X137481851Y-86572571D01*
X137554549Y-86500000D01*
X139445368Y-86500000D01*
X139517144Y-86571901D01*
X139765145Y-86674881D01*
X140033677Y-86675115D01*
X140281857Y-86572569D01*
X140354553Y-86500000D01*
X144295366Y-86500000D01*
X144367144Y-86571903D01*
X144615145Y-86674883D01*
X144883677Y-86675117D01*
X145131857Y-86572571D01*
X145204555Y-86500000D01*
X148750000Y-86500000D01*
X148941342Y-86461940D01*
X149103553Y-86353553D01*
X150782078Y-84675028D01*
X150883677Y-84675117D01*
X151131857Y-84572571D01*
X151321903Y-84382856D01*
X151424883Y-84134855D01*
X151425117Y-83866323D01*
X151322571Y-83618143D01*
X151132856Y-83428097D01*
X150884855Y-83325117D01*
X150616323Y-83324883D01*
X150368143Y-83427429D01*
X150178097Y-83617144D01*
X150075117Y-83865145D01*
X150075027Y-83967867D01*
X148542894Y-85500000D01*
X145204634Y-85500000D01*
X145132856Y-85428097D01*
X144884855Y-85325117D01*
X144616323Y-85324883D01*
X144368143Y-85427429D01*
X144295445Y-85500000D01*
X140354636Y-85500000D01*
X140282856Y-85428095D01*
X140034855Y-85325115D01*
X139766323Y-85324881D01*
X139518143Y-85427427D01*
X139445443Y-85500000D01*
X137554628Y-85500000D01*
X137482850Y-85428097D01*
X137234849Y-85325117D01*
X136966317Y-85324883D01*
X136718137Y-85427429D01*
X136528091Y-85617144D01*
X136425111Y-85865145D01*
X136424877Y-86133677D01*
X127875000Y-86133677D01*
X127875000Y-77625000D01*
X135314008Y-77625000D01*
X135156828Y-77781907D01*
X135156828Y-77781907D01*
G37*
X135156828Y-77781907D02*
X134985196Y-78195242D01*
X134984805Y-78642795D01*
X135155715Y-79056429D01*
X135471907Y-79373172D01*
X135885242Y-79544804D01*
X136332795Y-79545195D01*
X136746429Y-79374285D01*
X137063172Y-79058093D01*
X137234804Y-78644758D01*
X137235195Y-78197205D01*
X137064285Y-77783571D01*
X136905990Y-77625000D01*
X137854008Y-77625000D01*
X137696828Y-77781907D01*
X137525196Y-78195242D01*
X137524805Y-78642795D01*
X137695715Y-79056429D01*
X138011907Y-79373172D01*
X138425242Y-79544804D01*
X138872795Y-79545195D01*
X139286429Y-79374285D01*
X139603172Y-79058093D01*
X139774804Y-78644758D01*
X139775195Y-78197205D01*
X139604285Y-77783571D01*
X139445990Y-77625000D01*
X140394008Y-77625000D01*
X140236828Y-77781907D01*
X140065196Y-78195242D01*
X140064805Y-78642795D01*
X140235715Y-79056429D01*
X140551907Y-79373172D01*
X140965242Y-79544804D01*
X141412795Y-79545195D01*
X141826429Y-79374285D01*
X142143172Y-79058093D01*
X142314804Y-78644758D01*
X142315195Y-78197205D01*
X142144285Y-77783571D01*
X141985990Y-77625000D01*
X142934008Y-77625000D01*
X142776828Y-77781907D01*
X142605196Y-78195242D01*
X142604805Y-78642795D01*
X142775715Y-79056429D01*
X143091907Y-79373172D01*
X143505242Y-79544804D01*
X143952795Y-79545195D01*
X144366429Y-79374285D01*
X144683172Y-79058093D01*
X144854804Y-78644758D01*
X144855195Y-78197205D01*
X144684285Y-77783571D01*
X144525990Y-77625000D01*
X148014008Y-77625000D01*
X147856828Y-77781907D01*
X147685196Y-78195242D01*
X147684805Y-78642795D01*
X147855715Y-79056429D01*
X148171907Y-79373172D01*
X148585242Y-79544804D01*
X149032795Y-79545195D01*
X149446429Y-79374285D01*
X149763172Y-79058093D01*
X149934804Y-78644758D01*
X149935195Y-78197205D01*
X149764285Y-77783571D01*
X149605990Y-77625000D01*
X153094008Y-77625000D01*
X152936828Y-77781907D01*
X152765196Y-78195242D01*
X152764805Y-78642795D01*
X152935715Y-79056429D01*
X153251907Y-79373172D01*
X153665242Y-79544804D01*
X154112795Y-79545195D01*
X154526429Y-79374285D01*
X154843172Y-79058093D01*
X155014804Y-78644758D01*
X155015195Y-78197205D01*
X154844285Y-77783571D01*
X154685990Y-77625000D01*
X158375000Y-77625000D01*
X158375000Y-81000000D01*
X157954634Y-81000000D01*
X157882856Y-80928097D01*
X157634855Y-80825117D01*
X157366323Y-80824883D01*
X157118143Y-80927429D01*
X156928097Y-81117144D01*
X156825117Y-81365145D01*
X156824883Y-81633677D01*
X156927429Y-81881857D01*
X157117144Y-82071903D01*
X157365145Y-82174883D01*
X157633677Y-82175117D01*
X157881857Y-82072571D01*
X157954555Y-82000000D01*
X158375000Y-82000000D01*
X158375000Y-89741116D01*
X156366116Y-91750000D01*
X153633000Y-91750000D01*
X153633000Y-91537250D01*
X153474750Y-91379000D01*
X152629000Y-91379000D01*
X152629000Y-91399000D01*
X152371000Y-91399000D01*
X152371000Y-91379000D01*
X152351000Y-91379000D01*
X152351000Y-91121000D01*
X152371000Y-91121000D01*
X152371000Y-90150250D01*
X152629000Y-90150250D01*
X152629000Y-91121000D01*
X153474750Y-91121000D01*
X153633000Y-90962750D01*
X153633000Y-90499088D01*
X153536631Y-90266434D01*
X153358565Y-90088368D01*
X153125911Y-89992000D01*
X152787250Y-89992000D01*
X152629000Y-90150250D01*
X152371000Y-90150250D01*
X152212750Y-89992000D01*
X151874089Y-89992000D01*
X151641435Y-90088368D01*
X151463369Y-90266434D01*
X151367000Y-90499088D01*
X151367000Y-90547850D01*
X151353242Y-90478683D01*
X151270359Y-90354641D01*
X151146317Y-90271758D01*
X151000000Y-90242654D01*
X150000000Y-90242654D01*
X149853683Y-90271758D01*
X149729641Y-90354641D01*
X149646758Y-90478683D01*
X149617654Y-90625000D01*
X146350000Y-90625000D01*
X146110822Y-90672575D01*
X145908058Y-90808058D01*
X144558058Y-92158058D01*
X144422575Y-92360823D01*
X144382791Y-92560832D01*
X144354641Y-92579641D01*
X144271758Y-92703683D01*
X144242654Y-92850000D01*
X144242654Y-93175000D01*
X144132346Y-93175000D01*
X144132346Y-92800000D01*
X144103242Y-92653683D01*
X144020359Y-92529641D01*
X143896317Y-92446758D01*
X143750000Y-92417654D01*
X142850000Y-92417654D01*
X142703683Y-92446758D01*
X142580901Y-92528799D01*
X142408658Y-92563060D01*
X142246447Y-92671447D01*
X141965639Y-92952255D01*
X141961940Y-92933658D01*
X141937076Y-92896447D01*
X141853553Y-92771446D01*
X141753553Y-92671447D01*
X141591342Y-92563060D01*
X141419099Y-92528799D01*
X141296317Y-92446758D01*
X141150000Y-92417654D01*
X140250000Y-92417654D01*
X140174733Y-92432625D01*
X139263554Y-91521446D01*
X139101343Y-91413059D01*
X138910001Y-91374999D01*
X138075001Y-91374999D01*
X137883659Y-91413059D01*
X137841331Y-91441342D01*
X137721448Y-91521445D01*
X137425240Y-91817654D01*
X137350000Y-91817654D01*
X137203683Y-91846758D01*
X137079641Y-91929641D01*
X137032628Y-92000000D01*
X136239949Y-92000000D01*
X136048607Y-92038060D01*
X135886396Y-92146447D01*
X134125000Y-93907843D01*
X134125000Y-89000000D01*
X134115485Y-88952165D01*
X134088388Y-88911612D01*
X134047835Y-88884515D01*
X134000000Y-88875000D01*
X127875000Y-88875000D01*
X127875000Y-88802795D01*
X134984805Y-88802795D01*
X135155715Y-89216429D01*
X135471907Y-89533172D01*
X135885242Y-89704804D01*
X136332795Y-89705195D01*
X136746429Y-89534285D01*
X137063172Y-89218093D01*
X137234804Y-88804758D01*
X137234805Y-88802795D01*
X137524805Y-88802795D01*
X137695715Y-89216429D01*
X138011907Y-89533172D01*
X138425242Y-89704804D01*
X138872795Y-89705195D01*
X139286429Y-89534285D01*
X139603172Y-89218093D01*
X139774804Y-88804758D01*
X139774805Y-88802795D01*
X140064805Y-88802795D01*
X140235715Y-89216429D01*
X140551907Y-89533172D01*
X140965242Y-89704804D01*
X141412795Y-89705195D01*
X141826429Y-89534285D01*
X142143172Y-89218093D01*
X142314804Y-88804758D01*
X142314805Y-88802795D01*
X142604805Y-88802795D01*
X142775715Y-89216429D01*
X143091907Y-89533172D01*
X143505242Y-89704804D01*
X143952795Y-89705195D01*
X144366429Y-89534285D01*
X144683172Y-89218093D01*
X144854804Y-88804758D01*
X144854805Y-88802795D01*
X145144805Y-88802795D01*
X145315715Y-89216429D01*
X145631907Y-89533172D01*
X146045242Y-89704804D01*
X146492795Y-89705195D01*
X146906429Y-89534285D01*
X147223172Y-89218093D01*
X147394804Y-88804758D01*
X147394805Y-88802795D01*
X147684805Y-88802795D01*
X147855715Y-89216429D01*
X148171907Y-89533172D01*
X148585242Y-89704804D01*
X149032795Y-89705195D01*
X149446429Y-89534285D01*
X149763172Y-89218093D01*
X149934804Y-88804758D01*
X149934805Y-88802795D01*
X150224805Y-88802795D01*
X150395715Y-89216429D01*
X150711907Y-89533172D01*
X151125242Y-89704804D01*
X151572795Y-89705195D01*
X151986429Y-89534285D01*
X152303172Y-89218093D01*
X152474804Y-88804758D01*
X152474805Y-88802795D01*
X152764805Y-88802795D01*
X152935715Y-89216429D01*
X153251907Y-89533172D01*
X153665242Y-89704804D01*
X154112795Y-89705195D01*
X154526429Y-89534285D01*
X154843172Y-89218093D01*
X155014804Y-88804758D01*
X155015195Y-88357205D01*
X154844285Y-87943571D01*
X154528093Y-87626828D01*
X154114758Y-87455196D01*
X153667205Y-87454805D01*
X153253571Y-87625715D01*
X152936828Y-87941907D01*
X152765196Y-88355242D01*
X152764805Y-88802795D01*
X152474805Y-88802795D01*
X152475195Y-88357205D01*
X152304285Y-87943571D01*
X151988093Y-87626828D01*
X151574758Y-87455196D01*
X151127205Y-87454805D01*
X150713571Y-87625715D01*
X150396828Y-87941907D01*
X150225196Y-88355242D01*
X150224805Y-88802795D01*
X149934805Y-88802795D01*
X149935195Y-88357205D01*
X149764285Y-87943571D01*
X149448093Y-87626828D01*
X149034758Y-87455196D01*
X148587205Y-87454805D01*
X148173571Y-87625715D01*
X147856828Y-87941907D01*
X147685196Y-88355242D01*
X147684805Y-88802795D01*
X147394805Y-88802795D01*
X147395195Y-88357205D01*
X147224285Y-87943571D01*
X146908093Y-87626828D01*
X146494758Y-87455196D01*
X146047205Y-87454805D01*
X145633571Y-87625715D01*
X145316828Y-87941907D01*
X145145196Y-88355242D01*
X145144805Y-88802795D01*
X144854805Y-88802795D01*
X144855195Y-88357205D01*
X144684285Y-87943571D01*
X144368093Y-87626828D01*
X143954758Y-87455196D01*
X143507205Y-87454805D01*
X143093571Y-87625715D01*
X142776828Y-87941907D01*
X142605196Y-88355242D01*
X142604805Y-88802795D01*
X142314805Y-88802795D01*
X142315195Y-88357205D01*
X142144285Y-87943571D01*
X141828093Y-87626828D01*
X141414758Y-87455196D01*
X140967205Y-87454805D01*
X140553571Y-87625715D01*
X140236828Y-87941907D01*
X140065196Y-88355242D01*
X140064805Y-88802795D01*
X139774805Y-88802795D01*
X139775195Y-88357205D01*
X139604285Y-87943571D01*
X139288093Y-87626828D01*
X138874758Y-87455196D01*
X138427205Y-87454805D01*
X138013571Y-87625715D01*
X137696828Y-87941907D01*
X137525196Y-88355242D01*
X137524805Y-88802795D01*
X137234805Y-88802795D01*
X137235195Y-88357205D01*
X137064285Y-87943571D01*
X136748093Y-87626828D01*
X136334758Y-87455196D01*
X135887205Y-87454805D01*
X135473571Y-87625715D01*
X135156828Y-87941907D01*
X134985196Y-88355242D01*
X134984805Y-88802795D01*
X127875000Y-88802795D01*
X127875000Y-86133677D01*
X136424877Y-86133677D01*
X136527423Y-86381857D01*
X136717138Y-86571903D01*
X136965139Y-86674883D01*
X137233671Y-86675117D01*
X137481851Y-86572571D01*
X137554549Y-86500000D01*
X139445368Y-86500000D01*
X139517144Y-86571901D01*
X139765145Y-86674881D01*
X140033677Y-86675115D01*
X140281857Y-86572569D01*
X140354553Y-86500000D01*
X144295366Y-86500000D01*
X144367144Y-86571903D01*
X144615145Y-86674883D01*
X144883677Y-86675117D01*
X145131857Y-86572571D01*
X145204555Y-86500000D01*
X148750000Y-86500000D01*
X148941342Y-86461940D01*
X149103553Y-86353553D01*
X150782078Y-84675028D01*
X150883677Y-84675117D01*
X151131857Y-84572571D01*
X151321903Y-84382856D01*
X151424883Y-84134855D01*
X151425117Y-83866323D01*
X151322571Y-83618143D01*
X151132856Y-83428097D01*
X150884855Y-83325117D01*
X150616323Y-83324883D01*
X150368143Y-83427429D01*
X150178097Y-83617144D01*
X150075117Y-83865145D01*
X150075027Y-83967867D01*
X148542894Y-85500000D01*
X145204634Y-85500000D01*
X145132856Y-85428097D01*
X144884855Y-85325117D01*
X144616323Y-85324883D01*
X144368143Y-85427429D01*
X144295445Y-85500000D01*
X140354636Y-85500000D01*
X140282856Y-85428095D01*
X140034855Y-85325115D01*
X139766323Y-85324881D01*
X139518143Y-85427427D01*
X139445443Y-85500000D01*
X137554628Y-85500000D01*
X137482850Y-85428097D01*
X137234849Y-85325117D01*
X136966317Y-85324883D01*
X136718137Y-85427429D01*
X136528091Y-85617144D01*
X136425111Y-85865145D01*
X136424877Y-86133677D01*
X127875000Y-86133677D01*
X127875000Y-77625000D01*
X135314008Y-77625000D01*
X135156828Y-77781907D01*
G36*
X146717000Y-65574088D02*
X146717000Y-65712750D01*
X146875250Y-65871000D01*
X147450000Y-65871000D01*
X147450000Y-65851000D01*
X147650000Y-65851000D01*
X147650000Y-65871000D01*
X147699000Y-65871000D01*
X147699000Y-66129000D01*
X147650000Y-66129000D01*
X147650000Y-66774750D01*
X147808250Y-66933000D01*
X147875911Y-66933000D01*
X148108565Y-66836632D01*
X148262851Y-66682346D01*
X148550000Y-66682346D01*
X148550000Y-66782628D01*
X148479641Y-66829641D01*
X148398255Y-66951443D01*
X148334855Y-66925117D01*
X148066323Y-66924883D01*
X147818143Y-67027429D01*
X147628097Y-67217144D01*
X147525117Y-67465145D01*
X147524883Y-67733677D01*
X147627429Y-67981857D01*
X147817144Y-68171903D01*
X148065145Y-68274883D01*
X148333677Y-68275117D01*
X148378880Y-68256439D01*
X148396758Y-68346317D01*
X148479641Y-68470359D01*
X148603683Y-68553242D01*
X148750000Y-68582346D01*
X149187149Y-68582346D01*
X149341435Y-68736632D01*
X149574089Y-68833000D01*
X149712750Y-68833000D01*
X149871000Y-68674750D01*
X149871000Y-67779000D01*
X149851000Y-67779000D01*
X149851000Y-67521000D01*
X149871000Y-67521000D01*
X149871000Y-67501000D01*
X150129000Y-67501000D01*
X150129000Y-67521000D01*
X150149000Y-67521000D01*
X150149000Y-67779000D01*
X150129000Y-67779000D01*
X150129000Y-68674750D01*
X150287250Y-68833000D01*
X150425911Y-68833000D01*
X150658565Y-68736632D01*
X150812851Y-68582346D01*
X151250000Y-68582346D01*
X151367000Y-68559073D01*
X151367000Y-68867000D01*
X150500000Y-68867000D01*
X150257761Y-68915184D01*
X150052401Y-69052401D01*
X149915184Y-69257761D01*
X149883380Y-69417654D01*
X149700000Y-69417654D01*
X149553683Y-69446758D01*
X149525000Y-69465924D01*
X149496317Y-69446758D01*
X149350000Y-69417654D01*
X148750000Y-69417654D01*
X148603683Y-69446758D01*
X148479641Y-69529641D01*
X148396758Y-69653683D01*
X148367654Y-69800000D01*
X148367654Y-70000000D01*
X147967372Y-70000000D01*
X147920359Y-69929641D01*
X147796317Y-69846758D01*
X147650000Y-69817654D01*
X147250000Y-69817654D01*
X147103683Y-69846758D01*
X147000000Y-69916037D01*
X146896317Y-69846758D01*
X146750000Y-69817654D01*
X146350000Y-69817654D01*
X146203683Y-69846758D01*
X146079641Y-69929641D01*
X146041452Y-69986795D01*
X145982856Y-69928097D01*
X145734855Y-69825117D01*
X145466323Y-69824883D01*
X145218143Y-69927429D01*
X145028097Y-70117144D01*
X144925117Y-70365145D01*
X144924883Y-70633677D01*
X145027429Y-70881857D01*
X145217144Y-71071903D01*
X145465145Y-71174883D01*
X145733677Y-71175117D01*
X145933467Y-71092565D01*
X145972575Y-71289177D01*
X146108058Y-71491942D01*
X146426014Y-71809898D01*
X146396758Y-71853683D01*
X146367654Y-72000000D01*
X146367654Y-73000000D01*
X146396758Y-73146317D01*
X146479641Y-73270359D01*
X146603683Y-73353242D01*
X146709851Y-73374360D01*
X144282776Y-73374360D01*
X144282776Y-72249300D01*
X144253672Y-72102983D01*
X144170789Y-71978941D01*
X144046747Y-71896058D01*
X143900430Y-71866954D01*
X142099570Y-71866954D01*
X141953253Y-71896058D01*
X141849745Y-71965221D01*
X141807582Y-71923058D01*
X141604817Y-71787575D01*
X141365640Y-71740000D01*
X139988584Y-71740000D01*
X139973618Y-71730000D01*
X140070359Y-71665359D01*
X140153242Y-71541317D01*
X140182346Y-71395000D01*
X140182346Y-70795000D01*
X140153242Y-70648683D01*
X140070359Y-70524641D01*
X139946317Y-70441758D01*
X139800000Y-70412654D01*
X139466230Y-70412654D01*
X140253243Y-69625640D01*
X141717224Y-69625640D01*
X141717224Y-70750700D01*
X141746328Y-70897017D01*
X141829211Y-71021059D01*
X141953253Y-71103942D01*
X142099570Y-71133046D01*
X143900430Y-71133046D01*
X144046747Y-71103942D01*
X144170789Y-71021059D01*
X144253672Y-70897017D01*
X144282776Y-70750700D01*
X144282776Y-67250580D01*
X144253672Y-67104263D01*
X144170789Y-66980221D01*
X144046747Y-66897338D01*
X143900430Y-66868234D01*
X142099570Y-66868234D01*
X141953253Y-66897338D01*
X141829211Y-66980221D01*
X141746328Y-67104263D01*
X141717224Y-67250580D01*
X141717224Y-68375640D01*
X139994360Y-68375640D01*
X139755183Y-68423215D01*
X139552418Y-68558698D01*
X139552416Y-68558701D01*
X138772500Y-69338616D01*
X138282346Y-68848462D01*
X138282346Y-67650000D01*
X138253242Y-67503683D01*
X138170359Y-67379641D01*
X138046317Y-67296758D01*
X137900000Y-67267654D01*
X137000000Y-67267654D01*
X136853683Y-67296758D01*
X136729641Y-67379641D01*
X136646758Y-67503683D01*
X136617654Y-67650000D01*
X136617654Y-69350000D01*
X136646758Y-69496317D01*
X136729641Y-69620359D01*
X136853683Y-69703242D01*
X137000000Y-69732346D01*
X137398462Y-69732346D01*
X138075000Y-70408884D01*
X138075000Y-70412654D01*
X137600000Y-70412654D01*
X137453683Y-70441758D01*
X137329641Y-70524641D01*
X137246758Y-70648683D01*
X137217654Y-70795000D01*
X137217654Y-71395000D01*
X137246758Y-71541317D01*
X137329641Y-71665359D01*
X137426382Y-71730000D01*
X137329641Y-71794641D01*
X137246758Y-71918683D01*
X137217654Y-72065000D01*
X137217654Y-72665000D01*
X137246758Y-72811317D01*
X137329641Y-72935359D01*
X137426382Y-73000000D01*
X137329641Y-73064641D01*
X137306015Y-73100000D01*
X137054634Y-73100000D01*
X136982856Y-73028097D01*
X136734855Y-72925117D01*
X136466323Y-72924883D01*
X136218143Y-73027429D01*
X136028097Y-73217144D01*
X135925117Y-73465145D01*
X135924883Y-73733677D01*
X136027429Y-73981857D01*
X136217144Y-74171903D01*
X136465145Y-74274883D01*
X136733677Y-74275117D01*
X136981857Y-74172571D01*
X137054555Y-74100000D01*
X137259242Y-74100000D01*
X137329641Y-74205359D01*
X137426382Y-74270000D01*
X137329641Y-74334641D01*
X137246758Y-74458683D01*
X137217654Y-74605000D01*
X137217654Y-75205000D01*
X137246758Y-75351317D01*
X137329641Y-75475359D01*
X137453683Y-75558242D01*
X137600000Y-75587346D01*
X139800000Y-75587346D01*
X139946317Y-75558242D01*
X139988584Y-75530000D01*
X141717224Y-75530000D01*
X141717224Y-75749420D01*
X141742203Y-75875000D01*
X127935660Y-75875000D01*
X128027884Y-75782776D01*
X130749420Y-75782776D01*
X130895737Y-75753672D01*
X131019779Y-75670789D01*
X131102662Y-75546747D01*
X131105993Y-75530000D01*
X132011416Y-75530000D01*
X132053683Y-75558242D01*
X132200000Y-75587346D01*
X134400000Y-75587346D01*
X134546317Y-75558242D01*
X134670359Y-75475359D01*
X134753242Y-75351317D01*
X134782346Y-75205000D01*
X134782346Y-74605000D01*
X134753242Y-74458683D01*
X134670359Y-74334641D01*
X134573618Y-74270000D01*
X134670359Y-74205359D01*
X134753242Y-74081317D01*
X134782346Y-73935000D01*
X134782346Y-73335000D01*
X134753242Y-73188683D01*
X134670359Y-73064641D01*
X134573618Y-73000000D01*
X134670359Y-72935359D01*
X134753242Y-72811317D01*
X134782346Y-72665000D01*
X134782346Y-72065000D01*
X134753242Y-71918683D01*
X134670359Y-71794641D01*
X134573618Y-71730000D01*
X134670359Y-71665359D01*
X134753242Y-71541317D01*
X134782346Y-71395000D01*
X134782346Y-70795000D01*
X134753242Y-70648683D01*
X134670359Y-70524641D01*
X134546317Y-70441758D01*
X134400000Y-70412654D01*
X132200000Y-70412654D01*
X132053683Y-70441758D01*
X131929641Y-70524641D01*
X131846758Y-70648683D01*
X131817654Y-70795000D01*
X131817654Y-71395000D01*
X131846758Y-71541317D01*
X131929641Y-71665359D01*
X132026382Y-71730000D01*
X132011416Y-71740000D01*
X130314659Y-71740000D01*
X130371903Y-71682856D01*
X130474883Y-71434855D01*
X130475117Y-71166323D01*
X130372571Y-70918143D01*
X130182856Y-70728097D01*
X129934855Y-70625117D01*
X129666323Y-70624883D01*
X129418143Y-70727429D01*
X129228097Y-70917144D01*
X129125117Y-71165145D01*
X129124883Y-71433677D01*
X129227429Y-71681857D01*
X129233930Y-71688369D01*
X129233930Y-71981116D01*
X128557418Y-72657628D01*
X128421935Y-72860393D01*
X128374360Y-73099570D01*
X128374360Y-73217224D01*
X127249300Y-73217224D01*
X127102983Y-73246328D01*
X126978941Y-73329211D01*
X126896058Y-73453253D01*
X126866954Y-73599570D01*
X126866954Y-74822386D01*
X126383700Y-75305640D01*
X126383700Y-74787250D01*
X126225450Y-74629000D01*
X124129640Y-74629000D01*
X124129640Y-75875180D01*
X124287890Y-76033430D01*
X125655910Y-76033430D01*
X123469670Y-78219670D01*
X123307090Y-78462987D01*
X123250000Y-78750000D01*
X123250000Y-88750000D01*
X123307090Y-89037013D01*
X123469670Y-89280330D01*
X125425012Y-91235672D01*
X125424814Y-91462893D01*
X125588128Y-91858143D01*
X125890267Y-92160809D01*
X126285231Y-92324813D01*
X126375000Y-92324891D01*
X126375000Y-92421904D01*
X126160936Y-92433859D01*
X125809102Y-92579593D01*
X125746991Y-92814557D01*
X126375000Y-93442566D01*
X126375000Y-93835718D01*
X126303424Y-93764142D01*
X126317566Y-93750000D01*
X125564557Y-92996991D01*
X125329593Y-93059102D01*
X125154290Y-93559589D01*
X125183859Y-94089064D01*
X125302297Y-94375000D01*
X124000000Y-94375000D01*
X123952165Y-94384515D01*
X123911612Y-94411612D01*
X123884515Y-94452165D01*
X123875000Y-94500000D01*
X123875000Y-100000000D01*
X123884515Y-100047835D01*
X123911612Y-100088388D01*
X123952165Y-100115485D01*
X124000000Y-100125000D01*
X132375000Y-100125000D01*
X132375000Y-100604921D01*
X132109733Y-100339191D01*
X131714769Y-100175187D01*
X131287107Y-100174814D01*
X130891857Y-100338128D01*
X130589191Y-100640267D01*
X130543626Y-100750000D01*
X127456556Y-100750000D01*
X127411872Y-100641857D01*
X127109733Y-100339191D01*
X126714769Y-100175187D01*
X126287107Y-100174814D01*
X125891857Y-100338128D01*
X125589191Y-100640267D01*
X125425187Y-101035231D01*
X125424814Y-101462893D01*
X125470188Y-101572706D01*
X124146447Y-102896447D01*
X124038060Y-103058658D01*
X124000000Y-103250000D01*
X124000000Y-109950220D01*
X124026124Y-110081553D01*
X124038060Y-110141562D01*
X124146447Y-110303773D01*
X125016814Y-111174140D01*
X125016814Y-113150620D01*
X125021664Y-113175001D01*
X124332327Y-113175001D01*
X123983186Y-112825860D01*
X123983186Y-110849380D01*
X123954082Y-110703063D01*
X123871199Y-110579021D01*
X123747157Y-110496138D01*
X123600840Y-110467034D01*
X122976160Y-110467034D01*
X122976160Y-109032966D01*
X123600840Y-109032966D01*
X123747157Y-109003862D01*
X123871199Y-108920979D01*
X123954082Y-108796937D01*
X123983186Y-108650620D01*
X123983186Y-106349380D01*
X123954082Y-106203063D01*
X123871199Y-106079021D01*
X123747157Y-105996138D01*
X123600840Y-105967034D01*
X122976160Y-105967034D01*
X122976160Y-93972590D01*
X123074877Y-93734855D01*
X123075111Y-93466323D01*
X122972565Y-93218143D01*
X122782850Y-93028097D01*
X122534849Y-92925117D01*
X122266317Y-92924883D01*
X122018137Y-93027429D01*
X121828091Y-93217144D01*
X121725111Y-93465145D01*
X121724877Y-93733677D01*
X121726160Y-93736782D01*
X121726160Y-105967034D01*
X121101480Y-105967034D01*
X120955163Y-105996138D01*
X120831121Y-106079021D01*
X120748238Y-106203063D01*
X120719134Y-106349380D01*
X120719134Y-108650620D01*
X120748238Y-108796937D01*
X120831121Y-108920979D01*
X120955163Y-109003862D01*
X121101480Y-109032966D01*
X121726160Y-109032966D01*
X121726160Y-110467034D01*
X121101480Y-110467034D01*
X120955163Y-110496138D01*
X120831121Y-110579021D01*
X120748238Y-110703063D01*
X120719134Y-110849380D01*
X120719134Y-113150620D01*
X120748238Y-113296937D01*
X120831121Y-113420979D01*
X120955163Y-113503862D01*
X121101480Y-113532966D01*
X123276080Y-113532966D01*
X123771668Y-114028554D01*
X123933879Y-114136941D01*
X124125221Y-114175001D01*
X132210001Y-114175001D01*
X132401343Y-114136941D01*
X132563554Y-114028554D01*
X134103553Y-112488556D01*
X134211940Y-112326344D01*
X134212231Y-112324883D01*
X134250000Y-112135002D01*
X134250000Y-112052346D01*
X134396317Y-112023242D01*
X134520359Y-111940359D01*
X134603242Y-111816317D01*
X134632346Y-111670000D01*
X134632346Y-111194761D01*
X134928554Y-110898553D01*
X135036941Y-110736341D01*
X135045892Y-110691342D01*
X135075001Y-110544999D01*
X135075001Y-107745001D01*
X135036941Y-107553659D01*
X134975656Y-107461940D01*
X134928555Y-107391448D01*
X134494646Y-106957540D01*
X134520359Y-106940359D01*
X134603242Y-106816317D01*
X134632346Y-106670000D01*
X134632346Y-105870000D01*
X134603242Y-105723683D01*
X134520359Y-105599641D01*
X134396317Y-105516758D01*
X134250000Y-105487654D01*
X133424999Y-105487654D01*
X133424999Y-105412107D01*
X134103554Y-104733553D01*
X134176086Y-104625001D01*
X134211940Y-104571342D01*
X134223675Y-104512346D01*
X134250000Y-104512346D01*
X134396317Y-104483242D01*
X134520359Y-104400359D01*
X134603242Y-104276317D01*
X134632346Y-104130000D01*
X134632346Y-103625000D01*
X135375000Y-103625000D01*
X135375000Y-113417684D01*
X135262855Y-113371117D01*
X134994323Y-113370883D01*
X134746143Y-113473429D01*
X134556097Y-113663144D01*
X134453117Y-113911145D01*
X134452883Y-114179677D01*
X134543447Y-114398859D01*
X134538060Y-114406922D01*
X134500000Y-114598264D01*
X134500000Y-114875000D01*
X120425000Y-114875000D01*
X120425000Y-74787250D01*
X121617580Y-74787250D01*
X121617580Y-75526342D01*
X121713949Y-75758996D01*
X121892015Y-75937062D01*
X122124669Y-76033430D01*
X123713390Y-76033430D01*
X123871640Y-75875180D01*
X123871640Y-74629000D01*
X121775830Y-74629000D01*
X121617580Y-74787250D01*
X120425000Y-74787250D01*
X120425000Y-73473658D01*
X121617580Y-73473658D01*
X121617580Y-74212750D01*
X121775830Y-74371000D01*
X123871640Y-74371000D01*
X123871640Y-73124820D01*
X124129640Y-73124820D01*
X124129640Y-74371000D01*
X126225450Y-74371000D01*
X126383700Y-74212750D01*
X126383700Y-73473658D01*
X126287331Y-73241004D01*
X126109265Y-73062938D01*
X125876611Y-72966570D01*
X124287890Y-72966570D01*
X124129640Y-73124820D01*
X123871640Y-73124820D01*
X123713390Y-72966570D01*
X122124669Y-72966570D01*
X121892015Y-73062938D01*
X121713949Y-73241004D01*
X121617580Y-73473658D01*
X120425000Y-73473658D01*
X120425000Y-68891128D01*
X121524657Y-68891128D01*
X121824700Y-69617286D01*
X122379791Y-70173348D01*
X123105425Y-70474657D01*
X123891128Y-70475343D01*
X124617286Y-70175300D01*
X125173348Y-69620209D01*
X125474657Y-68894575D01*
X125474750Y-68787250D01*
X133467000Y-68787250D01*
X133467000Y-69475912D01*
X133563369Y-69708566D01*
X133741435Y-69886632D01*
X133974089Y-69983000D01*
X134262750Y-69983000D01*
X134421000Y-69824750D01*
X134421000Y-68629000D01*
X134679000Y-68629000D01*
X134679000Y-69824750D01*
X134837250Y-69983000D01*
X135125911Y-69983000D01*
X135358565Y-69886632D01*
X135536631Y-69708566D01*
X135633000Y-69475912D01*
X135633000Y-68787250D01*
X135474750Y-68629000D01*
X134679000Y-68629000D01*
X134421000Y-68629000D01*
X133625250Y-68629000D01*
X133467000Y-68787250D01*
X125474750Y-68787250D01*
X125475343Y-68108872D01*
X125233715Y-67524088D01*
X133467000Y-67524088D01*
X133467000Y-68212750D01*
X133625250Y-68371000D01*
X134421000Y-68371000D01*
X134421000Y-67175250D01*
X134679000Y-67175250D01*
X134679000Y-68371000D01*
X135474750Y-68371000D01*
X135633000Y-68212750D01*
X135633000Y-67524088D01*
X135536631Y-67291434D01*
X135358565Y-67113368D01*
X135125911Y-67017000D01*
X134837250Y-67017000D01*
X134679000Y-67175250D01*
X134421000Y-67175250D01*
X134262750Y-67017000D01*
X133974089Y-67017000D01*
X133741435Y-67113368D01*
X133563369Y-67291434D01*
X133467000Y-67524088D01*
X125233715Y-67524088D01*
X125175300Y-67382714D01*
X124620209Y-66826652D01*
X123894575Y-66525343D01*
X123108872Y-66524657D01*
X122382714Y-66824700D01*
X121826652Y-67379791D01*
X121525343Y-68105425D01*
X121524657Y-68891128D01*
X120425000Y-68891128D01*
X120425000Y-68541860D01*
X120666764Y-67326434D01*
X121331534Y-66331534D01*
X121397809Y-66287250D01*
X146717000Y-66287250D01*
X146717000Y-66425912D01*
X146813369Y-66658566D01*
X146991435Y-66836632D01*
X147224089Y-66933000D01*
X147291750Y-66933000D01*
X147450000Y-66774750D01*
X147450000Y-66129000D01*
X146875250Y-66129000D01*
X146717000Y-66287250D01*
X121397809Y-66287250D01*
X122326435Y-65666763D01*
X123541860Y-65425000D01*
X146778755Y-65425000D01*
X146717000Y-65574088D01*
X146717000Y-65574088D01*
G37*
X146717000Y-65574088D02*
X146717000Y-65712750D01*
X146875250Y-65871000D01*
X147450000Y-65871000D01*
X147450000Y-65851000D01*
X147650000Y-65851000D01*
X147650000Y-65871000D01*
X147699000Y-65871000D01*
X147699000Y-66129000D01*
X147650000Y-66129000D01*
X147650000Y-66774750D01*
X147808250Y-66933000D01*
X147875911Y-66933000D01*
X148108565Y-66836632D01*
X148262851Y-66682346D01*
X148550000Y-66682346D01*
X148550000Y-66782628D01*
X148479641Y-66829641D01*
X148398255Y-66951443D01*
X148334855Y-66925117D01*
X148066323Y-66924883D01*
X147818143Y-67027429D01*
X147628097Y-67217144D01*
X147525117Y-67465145D01*
X147524883Y-67733677D01*
X147627429Y-67981857D01*
X147817144Y-68171903D01*
X148065145Y-68274883D01*
X148333677Y-68275117D01*
X148378880Y-68256439D01*
X148396758Y-68346317D01*
X148479641Y-68470359D01*
X148603683Y-68553242D01*
X148750000Y-68582346D01*
X149187149Y-68582346D01*
X149341435Y-68736632D01*
X149574089Y-68833000D01*
X149712750Y-68833000D01*
X149871000Y-68674750D01*
X149871000Y-67779000D01*
X149851000Y-67779000D01*
X149851000Y-67521000D01*
X149871000Y-67521000D01*
X149871000Y-67501000D01*
X150129000Y-67501000D01*
X150129000Y-67521000D01*
X150149000Y-67521000D01*
X150149000Y-67779000D01*
X150129000Y-67779000D01*
X150129000Y-68674750D01*
X150287250Y-68833000D01*
X150425911Y-68833000D01*
X150658565Y-68736632D01*
X150812851Y-68582346D01*
X151250000Y-68582346D01*
X151367000Y-68559073D01*
X151367000Y-68867000D01*
X150500000Y-68867000D01*
X150257761Y-68915184D01*
X150052401Y-69052401D01*
X149915184Y-69257761D01*
X149883380Y-69417654D01*
X149700000Y-69417654D01*
X149553683Y-69446758D01*
X149525000Y-69465924D01*
X149496317Y-69446758D01*
X149350000Y-69417654D01*
X148750000Y-69417654D01*
X148603683Y-69446758D01*
X148479641Y-69529641D01*
X148396758Y-69653683D01*
X148367654Y-69800000D01*
X148367654Y-70000000D01*
X147967372Y-70000000D01*
X147920359Y-69929641D01*
X147796317Y-69846758D01*
X147650000Y-69817654D01*
X147250000Y-69817654D01*
X147103683Y-69846758D01*
X147000000Y-69916037D01*
X146896317Y-69846758D01*
X146750000Y-69817654D01*
X146350000Y-69817654D01*
X146203683Y-69846758D01*
X146079641Y-69929641D01*
X146041452Y-69986795D01*
X145982856Y-69928097D01*
X145734855Y-69825117D01*
X145466323Y-69824883D01*
X145218143Y-69927429D01*
X145028097Y-70117144D01*
X144925117Y-70365145D01*
X144924883Y-70633677D01*
X145027429Y-70881857D01*
X145217144Y-71071903D01*
X145465145Y-71174883D01*
X145733677Y-71175117D01*
X145933467Y-71092565D01*
X145972575Y-71289177D01*
X146108058Y-71491942D01*
X146426014Y-71809898D01*
X146396758Y-71853683D01*
X146367654Y-72000000D01*
X146367654Y-73000000D01*
X146396758Y-73146317D01*
X146479641Y-73270359D01*
X146603683Y-73353242D01*
X146709851Y-73374360D01*
X144282776Y-73374360D01*
X144282776Y-72249300D01*
X144253672Y-72102983D01*
X144170789Y-71978941D01*
X144046747Y-71896058D01*
X143900430Y-71866954D01*
X142099570Y-71866954D01*
X141953253Y-71896058D01*
X141849745Y-71965221D01*
X141807582Y-71923058D01*
X141604817Y-71787575D01*
X141365640Y-71740000D01*
X139988584Y-71740000D01*
X139973618Y-71730000D01*
X140070359Y-71665359D01*
X140153242Y-71541317D01*
X140182346Y-71395000D01*
X140182346Y-70795000D01*
X140153242Y-70648683D01*
X140070359Y-70524641D01*
X139946317Y-70441758D01*
X139800000Y-70412654D01*
X139466230Y-70412654D01*
X140253243Y-69625640D01*
X141717224Y-69625640D01*
X141717224Y-70750700D01*
X141746328Y-70897017D01*
X141829211Y-71021059D01*
X141953253Y-71103942D01*
X142099570Y-71133046D01*
X143900430Y-71133046D01*
X144046747Y-71103942D01*
X144170789Y-71021059D01*
X144253672Y-70897017D01*
X144282776Y-70750700D01*
X144282776Y-67250580D01*
X144253672Y-67104263D01*
X144170789Y-66980221D01*
X144046747Y-66897338D01*
X143900430Y-66868234D01*
X142099570Y-66868234D01*
X141953253Y-66897338D01*
X141829211Y-66980221D01*
X141746328Y-67104263D01*
X141717224Y-67250580D01*
X141717224Y-68375640D01*
X139994360Y-68375640D01*
X139755183Y-68423215D01*
X139552418Y-68558698D01*
X139552416Y-68558701D01*
X138772500Y-69338616D01*
X138282346Y-68848462D01*
X138282346Y-67650000D01*
X138253242Y-67503683D01*
X138170359Y-67379641D01*
X138046317Y-67296758D01*
X137900000Y-67267654D01*
X137000000Y-67267654D01*
X136853683Y-67296758D01*
X136729641Y-67379641D01*
X136646758Y-67503683D01*
X136617654Y-67650000D01*
X136617654Y-69350000D01*
X136646758Y-69496317D01*
X136729641Y-69620359D01*
X136853683Y-69703242D01*
X137000000Y-69732346D01*
X137398462Y-69732346D01*
X138075000Y-70408884D01*
X138075000Y-70412654D01*
X137600000Y-70412654D01*
X137453683Y-70441758D01*
X137329641Y-70524641D01*
X137246758Y-70648683D01*
X137217654Y-70795000D01*
X137217654Y-71395000D01*
X137246758Y-71541317D01*
X137329641Y-71665359D01*
X137426382Y-71730000D01*
X137329641Y-71794641D01*
X137246758Y-71918683D01*
X137217654Y-72065000D01*
X137217654Y-72665000D01*
X137246758Y-72811317D01*
X137329641Y-72935359D01*
X137426382Y-73000000D01*
X137329641Y-73064641D01*
X137306015Y-73100000D01*
X137054634Y-73100000D01*
X136982856Y-73028097D01*
X136734855Y-72925117D01*
X136466323Y-72924883D01*
X136218143Y-73027429D01*
X136028097Y-73217144D01*
X135925117Y-73465145D01*
X135924883Y-73733677D01*
X136027429Y-73981857D01*
X136217144Y-74171903D01*
X136465145Y-74274883D01*
X136733677Y-74275117D01*
X136981857Y-74172571D01*
X137054555Y-74100000D01*
X137259242Y-74100000D01*
X137329641Y-74205359D01*
X137426382Y-74270000D01*
X137329641Y-74334641D01*
X137246758Y-74458683D01*
X137217654Y-74605000D01*
X137217654Y-75205000D01*
X137246758Y-75351317D01*
X137329641Y-75475359D01*
X137453683Y-75558242D01*
X137600000Y-75587346D01*
X139800000Y-75587346D01*
X139946317Y-75558242D01*
X139988584Y-75530000D01*
X141717224Y-75530000D01*
X141717224Y-75749420D01*
X141742203Y-75875000D01*
X127935660Y-75875000D01*
X128027884Y-75782776D01*
X130749420Y-75782776D01*
X130895737Y-75753672D01*
X131019779Y-75670789D01*
X131102662Y-75546747D01*
X131105993Y-75530000D01*
X132011416Y-75530000D01*
X132053683Y-75558242D01*
X132200000Y-75587346D01*
X134400000Y-75587346D01*
X134546317Y-75558242D01*
X134670359Y-75475359D01*
X134753242Y-75351317D01*
X134782346Y-75205000D01*
X134782346Y-74605000D01*
X134753242Y-74458683D01*
X134670359Y-74334641D01*
X134573618Y-74270000D01*
X134670359Y-74205359D01*
X134753242Y-74081317D01*
X134782346Y-73935000D01*
X134782346Y-73335000D01*
X134753242Y-73188683D01*
X134670359Y-73064641D01*
X134573618Y-73000000D01*
X134670359Y-72935359D01*
X134753242Y-72811317D01*
X134782346Y-72665000D01*
X134782346Y-72065000D01*
X134753242Y-71918683D01*
X134670359Y-71794641D01*
X134573618Y-71730000D01*
X134670359Y-71665359D01*
X134753242Y-71541317D01*
X134782346Y-71395000D01*
X134782346Y-70795000D01*
X134753242Y-70648683D01*
X134670359Y-70524641D01*
X134546317Y-70441758D01*
X134400000Y-70412654D01*
X132200000Y-70412654D01*
X132053683Y-70441758D01*
X131929641Y-70524641D01*
X131846758Y-70648683D01*
X131817654Y-70795000D01*
X131817654Y-71395000D01*
X131846758Y-71541317D01*
X131929641Y-71665359D01*
X132026382Y-71730000D01*
X132011416Y-71740000D01*
X130314659Y-71740000D01*
X130371903Y-71682856D01*
X130474883Y-71434855D01*
X130475117Y-71166323D01*
X130372571Y-70918143D01*
X130182856Y-70728097D01*
X129934855Y-70625117D01*
X129666323Y-70624883D01*
X129418143Y-70727429D01*
X129228097Y-70917144D01*
X129125117Y-71165145D01*
X129124883Y-71433677D01*
X129227429Y-71681857D01*
X129233930Y-71688369D01*
X129233930Y-71981116D01*
X128557418Y-72657628D01*
X128421935Y-72860393D01*
X128374360Y-73099570D01*
X128374360Y-73217224D01*
X127249300Y-73217224D01*
X127102983Y-73246328D01*
X126978941Y-73329211D01*
X126896058Y-73453253D01*
X126866954Y-73599570D01*
X126866954Y-74822386D01*
X126383700Y-75305640D01*
X126383700Y-74787250D01*
X126225450Y-74629000D01*
X124129640Y-74629000D01*
X124129640Y-75875180D01*
X124287890Y-76033430D01*
X125655910Y-76033430D01*
X123469670Y-78219670D01*
X123307090Y-78462987D01*
X123250000Y-78750000D01*
X123250000Y-88750000D01*
X123307090Y-89037013D01*
X123469670Y-89280330D01*
X125425012Y-91235672D01*
X125424814Y-91462893D01*
X125588128Y-91858143D01*
X125890267Y-92160809D01*
X126285231Y-92324813D01*
X126375000Y-92324891D01*
X126375000Y-92421904D01*
X126160936Y-92433859D01*
X125809102Y-92579593D01*
X125746991Y-92814557D01*
X126375000Y-93442566D01*
X126375000Y-93835718D01*
X126303424Y-93764142D01*
X126317566Y-93750000D01*
X125564557Y-92996991D01*
X125329593Y-93059102D01*
X125154290Y-93559589D01*
X125183859Y-94089064D01*
X125302297Y-94375000D01*
X124000000Y-94375000D01*
X123952165Y-94384515D01*
X123911612Y-94411612D01*
X123884515Y-94452165D01*
X123875000Y-94500000D01*
X123875000Y-100000000D01*
X123884515Y-100047835D01*
X123911612Y-100088388D01*
X123952165Y-100115485D01*
X124000000Y-100125000D01*
X132375000Y-100125000D01*
X132375000Y-100604921D01*
X132109733Y-100339191D01*
X131714769Y-100175187D01*
X131287107Y-100174814D01*
X130891857Y-100338128D01*
X130589191Y-100640267D01*
X130543626Y-100750000D01*
X127456556Y-100750000D01*
X127411872Y-100641857D01*
X127109733Y-100339191D01*
X126714769Y-100175187D01*
X126287107Y-100174814D01*
X125891857Y-100338128D01*
X125589191Y-100640267D01*
X125425187Y-101035231D01*
X125424814Y-101462893D01*
X125470188Y-101572706D01*
X124146447Y-102896447D01*
X124038060Y-103058658D01*
X124000000Y-103250000D01*
X124000000Y-109950220D01*
X124026124Y-110081553D01*
X124038060Y-110141562D01*
X124146447Y-110303773D01*
X125016814Y-111174140D01*
X125016814Y-113150620D01*
X125021664Y-113175001D01*
X124332327Y-113175001D01*
X123983186Y-112825860D01*
X123983186Y-110849380D01*
X123954082Y-110703063D01*
X123871199Y-110579021D01*
X123747157Y-110496138D01*
X123600840Y-110467034D01*
X122976160Y-110467034D01*
X122976160Y-109032966D01*
X123600840Y-109032966D01*
X123747157Y-109003862D01*
X123871199Y-108920979D01*
X123954082Y-108796937D01*
X123983186Y-108650620D01*
X123983186Y-106349380D01*
X123954082Y-106203063D01*
X123871199Y-106079021D01*
X123747157Y-105996138D01*
X123600840Y-105967034D01*
X122976160Y-105967034D01*
X122976160Y-93972590D01*
X123074877Y-93734855D01*
X123075111Y-93466323D01*
X122972565Y-93218143D01*
X122782850Y-93028097D01*
X122534849Y-92925117D01*
X122266317Y-92924883D01*
X122018137Y-93027429D01*
X121828091Y-93217144D01*
X121725111Y-93465145D01*
X121724877Y-93733677D01*
X121726160Y-93736782D01*
X121726160Y-105967034D01*
X121101480Y-105967034D01*
X120955163Y-105996138D01*
X120831121Y-106079021D01*
X120748238Y-106203063D01*
X120719134Y-106349380D01*
X120719134Y-108650620D01*
X120748238Y-108796937D01*
X120831121Y-108920979D01*
X120955163Y-109003862D01*
X121101480Y-109032966D01*
X121726160Y-109032966D01*
X121726160Y-110467034D01*
X121101480Y-110467034D01*
X120955163Y-110496138D01*
X120831121Y-110579021D01*
X120748238Y-110703063D01*
X120719134Y-110849380D01*
X120719134Y-113150620D01*
X120748238Y-113296937D01*
X120831121Y-113420979D01*
X120955163Y-113503862D01*
X121101480Y-113532966D01*
X123276080Y-113532966D01*
X123771668Y-114028554D01*
X123933879Y-114136941D01*
X124125221Y-114175001D01*
X132210001Y-114175001D01*
X132401343Y-114136941D01*
X132563554Y-114028554D01*
X134103553Y-112488556D01*
X134211940Y-112326344D01*
X134212231Y-112324883D01*
X134250000Y-112135002D01*
X134250000Y-112052346D01*
X134396317Y-112023242D01*
X134520359Y-111940359D01*
X134603242Y-111816317D01*
X134632346Y-111670000D01*
X134632346Y-111194761D01*
X134928554Y-110898553D01*
X135036941Y-110736341D01*
X135045892Y-110691342D01*
X135075001Y-110544999D01*
X135075001Y-107745001D01*
X135036941Y-107553659D01*
X134975656Y-107461940D01*
X134928555Y-107391448D01*
X134494646Y-106957540D01*
X134520359Y-106940359D01*
X134603242Y-106816317D01*
X134632346Y-106670000D01*
X134632346Y-105870000D01*
X134603242Y-105723683D01*
X134520359Y-105599641D01*
X134396317Y-105516758D01*
X134250000Y-105487654D01*
X133424999Y-105487654D01*
X133424999Y-105412107D01*
X134103554Y-104733553D01*
X134176086Y-104625001D01*
X134211940Y-104571342D01*
X134223675Y-104512346D01*
X134250000Y-104512346D01*
X134396317Y-104483242D01*
X134520359Y-104400359D01*
X134603242Y-104276317D01*
X134632346Y-104130000D01*
X134632346Y-103625000D01*
X135375000Y-103625000D01*
X135375000Y-113417684D01*
X135262855Y-113371117D01*
X134994323Y-113370883D01*
X134746143Y-113473429D01*
X134556097Y-113663144D01*
X134453117Y-113911145D01*
X134452883Y-114179677D01*
X134543447Y-114398859D01*
X134538060Y-114406922D01*
X134500000Y-114598264D01*
X134500000Y-114875000D01*
X120425000Y-114875000D01*
X120425000Y-74787250D01*
X121617580Y-74787250D01*
X121617580Y-75526342D01*
X121713949Y-75758996D01*
X121892015Y-75937062D01*
X122124669Y-76033430D01*
X123713390Y-76033430D01*
X123871640Y-75875180D01*
X123871640Y-74629000D01*
X121775830Y-74629000D01*
X121617580Y-74787250D01*
X120425000Y-74787250D01*
X120425000Y-73473658D01*
X121617580Y-73473658D01*
X121617580Y-74212750D01*
X121775830Y-74371000D01*
X123871640Y-74371000D01*
X123871640Y-73124820D01*
X124129640Y-73124820D01*
X124129640Y-74371000D01*
X126225450Y-74371000D01*
X126383700Y-74212750D01*
X126383700Y-73473658D01*
X126287331Y-73241004D01*
X126109265Y-73062938D01*
X125876611Y-72966570D01*
X124287890Y-72966570D01*
X124129640Y-73124820D01*
X123871640Y-73124820D01*
X123713390Y-72966570D01*
X122124669Y-72966570D01*
X121892015Y-73062938D01*
X121713949Y-73241004D01*
X121617580Y-73473658D01*
X120425000Y-73473658D01*
X120425000Y-68891128D01*
X121524657Y-68891128D01*
X121824700Y-69617286D01*
X122379791Y-70173348D01*
X123105425Y-70474657D01*
X123891128Y-70475343D01*
X124617286Y-70175300D01*
X125173348Y-69620209D01*
X125474657Y-68894575D01*
X125474750Y-68787250D01*
X133467000Y-68787250D01*
X133467000Y-69475912D01*
X133563369Y-69708566D01*
X133741435Y-69886632D01*
X133974089Y-69983000D01*
X134262750Y-69983000D01*
X134421000Y-69824750D01*
X134421000Y-68629000D01*
X134679000Y-68629000D01*
X134679000Y-69824750D01*
X134837250Y-69983000D01*
X135125911Y-69983000D01*
X135358565Y-69886632D01*
X135536631Y-69708566D01*
X135633000Y-69475912D01*
X135633000Y-68787250D01*
X135474750Y-68629000D01*
X134679000Y-68629000D01*
X134421000Y-68629000D01*
X133625250Y-68629000D01*
X133467000Y-68787250D01*
X125474750Y-68787250D01*
X125475343Y-68108872D01*
X125233715Y-67524088D01*
X133467000Y-67524088D01*
X133467000Y-68212750D01*
X133625250Y-68371000D01*
X134421000Y-68371000D01*
X134421000Y-67175250D01*
X134679000Y-67175250D01*
X134679000Y-68371000D01*
X135474750Y-68371000D01*
X135633000Y-68212750D01*
X135633000Y-67524088D01*
X135536631Y-67291434D01*
X135358565Y-67113368D01*
X135125911Y-67017000D01*
X134837250Y-67017000D01*
X134679000Y-67175250D01*
X134421000Y-67175250D01*
X134262750Y-67017000D01*
X133974089Y-67017000D01*
X133741435Y-67113368D01*
X133563369Y-67291434D01*
X133467000Y-67524088D01*
X125233715Y-67524088D01*
X125175300Y-67382714D01*
X124620209Y-66826652D01*
X123894575Y-66525343D01*
X123108872Y-66524657D01*
X122382714Y-66824700D01*
X121826652Y-67379791D01*
X121525343Y-68105425D01*
X121524657Y-68891128D01*
X120425000Y-68891128D01*
X120425000Y-68541860D01*
X120666764Y-67326434D01*
X121331534Y-66331534D01*
X121397809Y-66287250D01*
X146717000Y-66287250D01*
X146717000Y-66425912D01*
X146813369Y-66658566D01*
X146991435Y-66836632D01*
X147224089Y-66933000D01*
X147291750Y-66933000D01*
X147450000Y-66774750D01*
X147450000Y-66129000D01*
X146875250Y-66129000D01*
X146717000Y-66287250D01*
X121397809Y-66287250D01*
X122326435Y-65666763D01*
X123541860Y-65425000D01*
X146778755Y-65425000D01*
X146717000Y-65574088D01*
G36*
X130588128Y-101858143D02*
X130890267Y-102160809D01*
X131285231Y-102324813D01*
X131712893Y-102325186D01*
X132108143Y-102161872D01*
X132375000Y-101895480D01*
X132375000Y-103104921D01*
X132109733Y-102839191D01*
X131714769Y-102675187D01*
X131287107Y-102674814D01*
X130891857Y-102838128D01*
X130589191Y-103140267D01*
X130543626Y-103250000D01*
X127456556Y-103250000D01*
X127411872Y-103141857D01*
X127109733Y-102839191D01*
X126714769Y-102675187D01*
X126287107Y-102674814D01*
X125891857Y-102838128D01*
X125589191Y-103140267D01*
X125425187Y-103535231D01*
X125424814Y-103962893D01*
X125588128Y-104358143D01*
X125890267Y-104660809D01*
X126148840Y-104768178D01*
X126148840Y-105967034D01*
X125399160Y-105967034D01*
X125252843Y-105996138D01*
X125128801Y-106079021D01*
X125045918Y-106203063D01*
X125016814Y-106349380D01*
X125016814Y-108650620D01*
X125045918Y-108796937D01*
X125128801Y-108920979D01*
X125252843Y-109003862D01*
X125399160Y-109032966D01*
X127898520Y-109032966D01*
X128044837Y-109003862D01*
X128168879Y-108920979D01*
X128251762Y-108796937D01*
X128280866Y-108650620D01*
X128280866Y-108000000D01*
X128687545Y-108000000D01*
X128696758Y-108046317D01*
X128779641Y-108170359D01*
X128903683Y-108253242D01*
X129050000Y-108282346D01*
X129859498Y-108282346D01*
X129825117Y-108365145D01*
X129824883Y-108633677D01*
X129927429Y-108881857D01*
X130117144Y-109071903D01*
X130365145Y-109174883D01*
X130633677Y-109175117D01*
X130776733Y-109116007D01*
X130779641Y-109120359D01*
X130903683Y-109203242D01*
X131050000Y-109232346D01*
X131950000Y-109232346D01*
X132096317Y-109203242D01*
X132220359Y-109120359D01*
X132303242Y-108996317D01*
X132317088Y-108926710D01*
X132391342Y-108911940D01*
X132553553Y-108803553D01*
X132867654Y-108489452D01*
X132867654Y-108805240D01*
X132571446Y-109101448D01*
X132463059Y-109263659D01*
X132424999Y-109455001D01*
X132424999Y-110229802D01*
X132308565Y-110113368D01*
X132075911Y-110017000D01*
X131787250Y-110017000D01*
X131629000Y-110175250D01*
X131629000Y-110921000D01*
X131649000Y-110921000D01*
X131649000Y-111179000D01*
X131629000Y-111179000D01*
X131629000Y-111924750D01*
X131787250Y-112083000D01*
X132075911Y-112083000D01*
X132308565Y-111986632D01*
X132424999Y-111870198D01*
X132424999Y-112017894D01*
X132186126Y-112256767D01*
X132096317Y-112196758D01*
X131950000Y-112167654D01*
X131050000Y-112167654D01*
X130903683Y-112196758D01*
X130779641Y-112279641D01*
X130724408Y-112362303D01*
X130634855Y-112325117D01*
X130366323Y-112324883D01*
X130332346Y-112338922D01*
X130332346Y-111600000D01*
X130303242Y-111453683D01*
X130225444Y-111337250D01*
X130417000Y-111337250D01*
X130417000Y-111575912D01*
X130513369Y-111808566D01*
X130691435Y-111986632D01*
X130924089Y-112083000D01*
X131212750Y-112083000D01*
X131371000Y-111924750D01*
X131371000Y-111179000D01*
X130575250Y-111179000D01*
X130417000Y-111337250D01*
X130225444Y-111337250D01*
X130220359Y-111329641D01*
X130096317Y-111246758D01*
X129950000Y-111217654D01*
X129050000Y-111217654D01*
X128903683Y-111246758D01*
X128779641Y-111329641D01*
X128696758Y-111453683D01*
X128687545Y-111500000D01*
X128280866Y-111500000D01*
X128280866Y-110849380D01*
X128251762Y-110703063D01*
X128168879Y-110579021D01*
X128086667Y-110524088D01*
X130417000Y-110524088D01*
X130417000Y-110762750D01*
X130575250Y-110921000D01*
X131371000Y-110921000D01*
X131371000Y-110175250D01*
X131212750Y-110017000D01*
X130924089Y-110017000D01*
X130691435Y-110113368D01*
X130513369Y-110291434D01*
X130417000Y-110524088D01*
X128086667Y-110524088D01*
X128044837Y-110496138D01*
X127898520Y-110467034D01*
X125723920Y-110467034D01*
X125000000Y-109743114D01*
X125000000Y-103457106D01*
X126177166Y-102279940D01*
X126285231Y-102324813D01*
X126712893Y-102325186D01*
X127108143Y-102161872D01*
X127410809Y-101859733D01*
X127456374Y-101750000D01*
X130543444Y-101750000D01*
X130588128Y-101858143D01*
X130588128Y-101858143D01*
G37*
X130588128Y-101858143D02*
X130890267Y-102160809D01*
X131285231Y-102324813D01*
X131712893Y-102325186D01*
X132108143Y-102161872D01*
X132375000Y-101895480D01*
X132375000Y-103104921D01*
X132109733Y-102839191D01*
X131714769Y-102675187D01*
X131287107Y-102674814D01*
X130891857Y-102838128D01*
X130589191Y-103140267D01*
X130543626Y-103250000D01*
X127456556Y-103250000D01*
X127411872Y-103141857D01*
X127109733Y-102839191D01*
X126714769Y-102675187D01*
X126287107Y-102674814D01*
X125891857Y-102838128D01*
X125589191Y-103140267D01*
X125425187Y-103535231D01*
X125424814Y-103962893D01*
X125588128Y-104358143D01*
X125890267Y-104660809D01*
X126148840Y-104768178D01*
X126148840Y-105967034D01*
X125399160Y-105967034D01*
X125252843Y-105996138D01*
X125128801Y-106079021D01*
X125045918Y-106203063D01*
X125016814Y-106349380D01*
X125016814Y-108650620D01*
X125045918Y-108796937D01*
X125128801Y-108920979D01*
X125252843Y-109003862D01*
X125399160Y-109032966D01*
X127898520Y-109032966D01*
X128044837Y-109003862D01*
X128168879Y-108920979D01*
X128251762Y-108796937D01*
X128280866Y-108650620D01*
X128280866Y-108000000D01*
X128687545Y-108000000D01*
X128696758Y-108046317D01*
X128779641Y-108170359D01*
X128903683Y-108253242D01*
X129050000Y-108282346D01*
X129859498Y-108282346D01*
X129825117Y-108365145D01*
X129824883Y-108633677D01*
X129927429Y-108881857D01*
X130117144Y-109071903D01*
X130365145Y-109174883D01*
X130633677Y-109175117D01*
X130776733Y-109116007D01*
X130779641Y-109120359D01*
X130903683Y-109203242D01*
X131050000Y-109232346D01*
X131950000Y-109232346D01*
X132096317Y-109203242D01*
X132220359Y-109120359D01*
X132303242Y-108996317D01*
X132317088Y-108926710D01*
X132391342Y-108911940D01*
X132553553Y-108803553D01*
X132867654Y-108489452D01*
X132867654Y-108805240D01*
X132571446Y-109101448D01*
X132463059Y-109263659D01*
X132424999Y-109455001D01*
X132424999Y-110229802D01*
X132308565Y-110113368D01*
X132075911Y-110017000D01*
X131787250Y-110017000D01*
X131629000Y-110175250D01*
X131629000Y-110921000D01*
X131649000Y-110921000D01*
X131649000Y-111179000D01*
X131629000Y-111179000D01*
X131629000Y-111924750D01*
X131787250Y-112083000D01*
X132075911Y-112083000D01*
X132308565Y-111986632D01*
X132424999Y-111870198D01*
X132424999Y-112017894D01*
X132186126Y-112256767D01*
X132096317Y-112196758D01*
X131950000Y-112167654D01*
X131050000Y-112167654D01*
X130903683Y-112196758D01*
X130779641Y-112279641D01*
X130724408Y-112362303D01*
X130634855Y-112325117D01*
X130366323Y-112324883D01*
X130332346Y-112338922D01*
X130332346Y-111600000D01*
X130303242Y-111453683D01*
X130225444Y-111337250D01*
X130417000Y-111337250D01*
X130417000Y-111575912D01*
X130513369Y-111808566D01*
X130691435Y-111986632D01*
X130924089Y-112083000D01*
X131212750Y-112083000D01*
X131371000Y-111924750D01*
X131371000Y-111179000D01*
X130575250Y-111179000D01*
X130417000Y-111337250D01*
X130225444Y-111337250D01*
X130220359Y-111329641D01*
X130096317Y-111246758D01*
X129950000Y-111217654D01*
X129050000Y-111217654D01*
X128903683Y-111246758D01*
X128779641Y-111329641D01*
X128696758Y-111453683D01*
X128687545Y-111500000D01*
X128280866Y-111500000D01*
X128280866Y-110849380D01*
X128251762Y-110703063D01*
X128168879Y-110579021D01*
X128086667Y-110524088D01*
X130417000Y-110524088D01*
X130417000Y-110762750D01*
X130575250Y-110921000D01*
X131371000Y-110921000D01*
X131371000Y-110175250D01*
X131212750Y-110017000D01*
X130924089Y-110017000D01*
X130691435Y-110113368D01*
X130513369Y-110291434D01*
X130417000Y-110524088D01*
X128086667Y-110524088D01*
X128044837Y-110496138D01*
X127898520Y-110467034D01*
X125723920Y-110467034D01*
X125000000Y-109743114D01*
X125000000Y-103457106D01*
X126177166Y-102279940D01*
X126285231Y-102324813D01*
X126712893Y-102325186D01*
X127108143Y-102161872D01*
X127410809Y-101859733D01*
X127456374Y-101750000D01*
X130543444Y-101750000D01*
X130588128Y-101858143D01*
G36*
X132867654Y-104130000D02*
X132896758Y-104276317D01*
X132979641Y-104400359D01*
X133005354Y-104417540D01*
X132571446Y-104851448D01*
X132463059Y-105013659D01*
X132424999Y-105205001D01*
X132424999Y-105729802D01*
X132308565Y-105613368D01*
X132075911Y-105517000D01*
X131787250Y-105517000D01*
X131629000Y-105675250D01*
X131629000Y-106421000D01*
X131649000Y-106421000D01*
X131649000Y-106679000D01*
X131629000Y-106679000D01*
X131629000Y-107424750D01*
X131787250Y-107583000D01*
X132075911Y-107583000D01*
X132308565Y-107486632D01*
X132424999Y-107370198D01*
X132424999Y-107517894D01*
X132186126Y-107756767D01*
X132096317Y-107696758D01*
X131950000Y-107667654D01*
X131050000Y-107667654D01*
X130903683Y-107696758D01*
X130779641Y-107779641D01*
X130724408Y-107862303D01*
X130634855Y-107825117D01*
X130366323Y-107824883D01*
X130332346Y-107838922D01*
X130332346Y-107100000D01*
X130303242Y-106953683D01*
X130225444Y-106837250D01*
X130417000Y-106837250D01*
X130417000Y-107075912D01*
X130513369Y-107308566D01*
X130691435Y-107486632D01*
X130924089Y-107583000D01*
X131212750Y-107583000D01*
X131371000Y-107424750D01*
X131371000Y-106679000D01*
X130575250Y-106679000D01*
X130417000Y-106837250D01*
X130225444Y-106837250D01*
X130220359Y-106829641D01*
X130096317Y-106746758D01*
X129950000Y-106717654D01*
X129050000Y-106717654D01*
X128903683Y-106746758D01*
X128779641Y-106829641D01*
X128696758Y-106953683D01*
X128687545Y-107000000D01*
X128280866Y-107000000D01*
X128280866Y-106349380D01*
X128251762Y-106203063D01*
X128168879Y-106079021D01*
X128086667Y-106024088D01*
X130417000Y-106024088D01*
X130417000Y-106262750D01*
X130575250Y-106421000D01*
X131371000Y-106421000D01*
X131371000Y-105675250D01*
X131212750Y-105517000D01*
X130924089Y-105517000D01*
X130691435Y-105613368D01*
X130513369Y-105791434D01*
X130417000Y-106024088D01*
X128086667Y-106024088D01*
X128044837Y-105996138D01*
X127898520Y-105967034D01*
X127148840Y-105967034D01*
X127148840Y-104621246D01*
X127410809Y-104359733D01*
X127456374Y-104250000D01*
X130543444Y-104250000D01*
X130588128Y-104358143D01*
X130890267Y-104660809D01*
X131285231Y-104824813D01*
X131712893Y-104825186D01*
X132108143Y-104661872D01*
X132410809Y-104359733D01*
X132574813Y-103964769D01*
X132575109Y-103625000D01*
X132867654Y-103625000D01*
X132867654Y-104130000D01*
X132867654Y-104130000D01*
G37*
X132867654Y-104130000D02*
X132896758Y-104276317D01*
X132979641Y-104400359D01*
X133005354Y-104417540D01*
X132571446Y-104851448D01*
X132463059Y-105013659D01*
X132424999Y-105205001D01*
X132424999Y-105729802D01*
X132308565Y-105613368D01*
X132075911Y-105517000D01*
X131787250Y-105517000D01*
X131629000Y-105675250D01*
X131629000Y-106421000D01*
X131649000Y-106421000D01*
X131649000Y-106679000D01*
X131629000Y-106679000D01*
X131629000Y-107424750D01*
X131787250Y-107583000D01*
X132075911Y-107583000D01*
X132308565Y-107486632D01*
X132424999Y-107370198D01*
X132424999Y-107517894D01*
X132186126Y-107756767D01*
X132096317Y-107696758D01*
X131950000Y-107667654D01*
X131050000Y-107667654D01*
X130903683Y-107696758D01*
X130779641Y-107779641D01*
X130724408Y-107862303D01*
X130634855Y-107825117D01*
X130366323Y-107824883D01*
X130332346Y-107838922D01*
X130332346Y-107100000D01*
X130303242Y-106953683D01*
X130225444Y-106837250D01*
X130417000Y-106837250D01*
X130417000Y-107075912D01*
X130513369Y-107308566D01*
X130691435Y-107486632D01*
X130924089Y-107583000D01*
X131212750Y-107583000D01*
X131371000Y-107424750D01*
X131371000Y-106679000D01*
X130575250Y-106679000D01*
X130417000Y-106837250D01*
X130225444Y-106837250D01*
X130220359Y-106829641D01*
X130096317Y-106746758D01*
X129950000Y-106717654D01*
X129050000Y-106717654D01*
X128903683Y-106746758D01*
X128779641Y-106829641D01*
X128696758Y-106953683D01*
X128687545Y-107000000D01*
X128280866Y-107000000D01*
X128280866Y-106349380D01*
X128251762Y-106203063D01*
X128168879Y-106079021D01*
X128086667Y-106024088D01*
X130417000Y-106024088D01*
X130417000Y-106262750D01*
X130575250Y-106421000D01*
X131371000Y-106421000D01*
X131371000Y-105675250D01*
X131212750Y-105517000D01*
X130924089Y-105517000D01*
X130691435Y-105613368D01*
X130513369Y-105791434D01*
X130417000Y-106024088D01*
X128086667Y-106024088D01*
X128044837Y-105996138D01*
X127898520Y-105967034D01*
X127148840Y-105967034D01*
X127148840Y-104621246D01*
X127410809Y-104359733D01*
X127456374Y-104250000D01*
X130543444Y-104250000D01*
X130588128Y-104358143D01*
X130890267Y-104660809D01*
X131285231Y-104824813D01*
X131712893Y-104825186D01*
X132108143Y-104661872D01*
X132410809Y-104359733D01*
X132574813Y-103964769D01*
X132575109Y-103625000D01*
X132867654Y-103625000D01*
X132867654Y-104130000D01*
G36*
X126375000Y-90064340D02*
X124750000Y-88439340D01*
X124750000Y-79060660D01*
X126375000Y-77435660D01*
X126375000Y-90064340D01*
X126375000Y-90064340D01*
G37*
X126375000Y-90064340D02*
X124750000Y-88439340D01*
X124750000Y-79060660D01*
X126375000Y-77435660D01*
X126375000Y-90064340D01*
G36*
X157367000Y-75875000D02*
X157133000Y-75875000D01*
X157133000Y-75787250D01*
X156974750Y-75629000D01*
X156129000Y-75629000D01*
X156129000Y-75649000D01*
X155871000Y-75649000D01*
X155871000Y-75629000D01*
X155025250Y-75629000D01*
X154867000Y-75787250D01*
X154867000Y-75875000D01*
X152195750Y-75875000D01*
X152084750Y-75764000D01*
X151129000Y-75764000D01*
X151129000Y-75784000D01*
X150871000Y-75784000D01*
X150871000Y-75764000D01*
X149915250Y-75764000D01*
X149883000Y-75796250D01*
X149883000Y-75787250D01*
X149724750Y-75629000D01*
X148129000Y-75629000D01*
X148129000Y-75649000D01*
X147871000Y-75649000D01*
X147871000Y-75629000D01*
X146275250Y-75629000D01*
X146117000Y-75787250D01*
X146117000Y-75875000D01*
X144257797Y-75875000D01*
X144282776Y-75749420D01*
X144282776Y-74624360D01*
X146230443Y-74624360D01*
X146213368Y-74641435D01*
X146117000Y-74874089D01*
X146117000Y-75212750D01*
X146275250Y-75371000D01*
X147871000Y-75371000D01*
X147871000Y-75351000D01*
X148129000Y-75351000D01*
X148129000Y-75371000D01*
X149724750Y-75371000D01*
X149757000Y-75338750D01*
X149757000Y-75347750D01*
X149915250Y-75506000D01*
X150871000Y-75506000D01*
X150871000Y-75486000D01*
X151129000Y-75486000D01*
X151129000Y-75506000D01*
X152084750Y-75506000D01*
X152243000Y-75347750D01*
X152243000Y-75054089D01*
X152146632Y-74821435D01*
X151968566Y-74643369D01*
X151943533Y-74633000D01*
X154867000Y-74633000D01*
X154867000Y-75212750D01*
X155025250Y-75371000D01*
X155871000Y-75371000D01*
X155871000Y-75351000D01*
X156129000Y-75351000D01*
X156129000Y-75371000D01*
X156974750Y-75371000D01*
X157133000Y-75212750D01*
X157133000Y-74606545D01*
X157242239Y-74584816D01*
X157367000Y-74501453D01*
X157367000Y-75875000D01*
X157367000Y-75875000D01*
G37*
X157367000Y-75875000D02*
X157133000Y-75875000D01*
X157133000Y-75787250D01*
X156974750Y-75629000D01*
X156129000Y-75629000D01*
X156129000Y-75649000D01*
X155871000Y-75649000D01*
X155871000Y-75629000D01*
X155025250Y-75629000D01*
X154867000Y-75787250D01*
X154867000Y-75875000D01*
X152195750Y-75875000D01*
X152084750Y-75764000D01*
X151129000Y-75764000D01*
X151129000Y-75784000D01*
X150871000Y-75784000D01*
X150871000Y-75764000D01*
X149915250Y-75764000D01*
X149883000Y-75796250D01*
X149883000Y-75787250D01*
X149724750Y-75629000D01*
X148129000Y-75629000D01*
X148129000Y-75649000D01*
X147871000Y-75649000D01*
X147871000Y-75629000D01*
X146275250Y-75629000D01*
X146117000Y-75787250D01*
X146117000Y-75875000D01*
X144257797Y-75875000D01*
X144282776Y-75749420D01*
X144282776Y-74624360D01*
X146230443Y-74624360D01*
X146213368Y-74641435D01*
X146117000Y-74874089D01*
X146117000Y-75212750D01*
X146275250Y-75371000D01*
X147871000Y-75371000D01*
X147871000Y-75351000D01*
X148129000Y-75351000D01*
X148129000Y-75371000D01*
X149724750Y-75371000D01*
X149757000Y-75338750D01*
X149757000Y-75347750D01*
X149915250Y-75506000D01*
X150871000Y-75506000D01*
X150871000Y-75486000D01*
X151129000Y-75486000D01*
X151129000Y-75506000D01*
X152084750Y-75506000D01*
X152243000Y-75347750D01*
X152243000Y-75054089D01*
X152146632Y-74821435D01*
X151968566Y-74643369D01*
X151943533Y-74633000D01*
X154867000Y-74633000D01*
X154867000Y-75212750D01*
X155025250Y-75371000D01*
X155871000Y-75371000D01*
X155871000Y-75351000D01*
X156129000Y-75351000D01*
X156129000Y-75371000D01*
X156974750Y-75371000D01*
X157133000Y-75212750D01*
X157133000Y-74606545D01*
X157242239Y-74584816D01*
X157367000Y-74501453D01*
X157367000Y-75875000D01*
G36*
X167673566Y-65666764D02*
X168668466Y-66331534D01*
X169333237Y-67326435D01*
X169575000Y-68541860D01*
X169575000Y-75875000D01*
X162633000Y-75875000D01*
X162633000Y-69141128D01*
X164274657Y-69141128D01*
X164574700Y-69867286D01*
X165129791Y-70423348D01*
X165855425Y-70724657D01*
X166641128Y-70725343D01*
X167367286Y-70425300D01*
X167923348Y-69870209D01*
X168224657Y-69144575D01*
X168225343Y-68358872D01*
X167925300Y-67632714D01*
X167370209Y-67076652D01*
X166644575Y-66775343D01*
X165858872Y-66774657D01*
X165132714Y-67074700D01*
X164576652Y-67629791D01*
X164275343Y-68355425D01*
X164274657Y-69141128D01*
X162633000Y-69141128D01*
X162633000Y-68000000D01*
X162584816Y-67757761D01*
X162447599Y-67552401D01*
X162242239Y-67415184D01*
X162000000Y-67367000D01*
X160534105Y-67367000D01*
X160453553Y-67246447D01*
X158632106Y-65425000D01*
X166458140Y-65425000D01*
X167673566Y-65666764D01*
X167673566Y-65666764D01*
G37*
X167673566Y-65666764D02*
X168668466Y-66331534D01*
X169333237Y-67326435D01*
X169575000Y-68541860D01*
X169575000Y-75875000D01*
X162633000Y-75875000D01*
X162633000Y-69141128D01*
X164274657Y-69141128D01*
X164574700Y-69867286D01*
X165129791Y-70423348D01*
X165855425Y-70724657D01*
X166641128Y-70725343D01*
X167367286Y-70425300D01*
X167923348Y-69870209D01*
X168224657Y-69144575D01*
X168225343Y-68358872D01*
X167925300Y-67632714D01*
X167370209Y-67076652D01*
X166644575Y-66775343D01*
X165858872Y-66774657D01*
X165132714Y-67074700D01*
X164576652Y-67629791D01*
X164275343Y-68355425D01*
X164274657Y-69141128D01*
X162633000Y-69141128D01*
X162633000Y-68000000D01*
X162584816Y-67757761D01*
X162447599Y-67552401D01*
X162242239Y-67415184D01*
X162000000Y-67367000D01*
X160534105Y-67367000D01*
X160453553Y-67246447D01*
X158632106Y-65425000D01*
X166458140Y-65425000D01*
X167673566Y-65666764D01*
D48*
G36*
X156873000Y-73873000D02*
X150127000Y-73873000D01*
X150127000Y-72524580D01*
X150625787Y-72025792D01*
X150625790Y-72025790D01*
X150817633Y-71738675D01*
X150828810Y-71682484D01*
X150885001Y-71400000D01*
X150885000Y-71399995D01*
X150885000Y-71167456D01*
X150898157Y-71147765D01*
X150947440Y-70900000D01*
X150947440Y-69800000D01*
X150913029Y-69627000D01*
X152000000Y-69627000D01*
X152048601Y-69617333D01*
X152089803Y-69589803D01*
X152117333Y-69548601D01*
X152127000Y-69500000D01*
X152127000Y-68127000D01*
X154000000Y-68127000D01*
X154048601Y-68117333D01*
X154089803Y-68089803D01*
X154117333Y-68048601D01*
X154127000Y-68000000D01*
X154127000Y-67477760D01*
X154147440Y-67375000D01*
X154147440Y-66510000D01*
X156873000Y-66510000D01*
X156873000Y-73873000D01*
X156873000Y-73873000D01*
G37*
X156873000Y-73873000D02*
X150127000Y-73873000D01*
X150127000Y-72524580D01*
X150625787Y-72025792D01*
X150625790Y-72025790D01*
X150817633Y-71738675D01*
X150828810Y-71682484D01*
X150885001Y-71400000D01*
X150885000Y-71399995D01*
X150885000Y-71167456D01*
X150898157Y-71147765D01*
X150947440Y-70900000D01*
X150947440Y-69800000D01*
X150913029Y-69627000D01*
X152000000Y-69627000D01*
X152048601Y-69617333D01*
X152089803Y-69589803D01*
X152117333Y-69548601D01*
X152127000Y-69500000D01*
X152127000Y-68127000D01*
X154000000Y-68127000D01*
X154048601Y-68117333D01*
X154089803Y-68089803D01*
X154117333Y-68048601D01*
X154127000Y-68000000D01*
X154127000Y-67477760D01*
X154147440Y-67375000D01*
X154147440Y-66510000D01*
X156873000Y-66510000D01*
X156873000Y-73873000D01*
G36*
X161615000Y-72499995D02*
X161614999Y-72500000D01*
X161671190Y-72782484D01*
X161682367Y-72838675D01*
X161873000Y-73123979D01*
X161873000Y-76373000D01*
X158127000Y-76373000D01*
X158127000Y-68127000D01*
X161615000Y-68127000D01*
X161615000Y-72499995D01*
X161615000Y-72499995D01*
G37*
X161615000Y-72499995D02*
X161614999Y-72500000D01*
X161671190Y-72782484D01*
X161682367Y-72838675D01*
X161873000Y-73123979D01*
X161873000Y-76373000D01*
X158127000Y-76373000D01*
X158127000Y-68127000D01*
X161615000Y-68127000D01*
X161615000Y-72499995D01*
M02*
