M48
;DRILL file {KiCad 4.0.4+dfsg1-stable} date Sat Dec  3 18:12:52 2016
;FORMAT={-:-/ absolute / inch / decimal}
FMAT,2
INCH,TZ
T1C0.016
T2C0.024
T3C0.039
%
G90
G05
M72
T1
X4.8228Y-3.1496
X4.8228Y-4.0354
X4.8228Y-4.2323
X4.8228Y-4.5276
X4.9213Y-3.7402
X4.9409Y-4.1043
X4.9803Y-3.5433
X4.9803Y-4.1969
X5.0118Y-2.8071
X5.0197Y-3.3465
X5.0591Y-3.7402
X5.0787Y-4.3504
X5.1014Y-4.0113
X5.1181Y-2.6575
X5.1181Y-4.5669
X5.1378Y-3.7598
X5.1784Y-3.9949
X5.187Y-3.9606
X5.1969Y-2.874
X5.2165Y-3.3465
X5.2165Y-4.3307
X5.315Y-2.6575
X5.315Y-4.626
X5.4134Y-3.1496
X5.4134Y-3.3465
X5.4391Y-3.7451
X5.4429Y-3.622
X5.443Y-3.6759
X5.4724Y-3.6959
X5.4941Y-3.8386
X5.5118Y-2.6575
X5.5118Y-4.2126
X5.5512Y-4.1319
X5.5567Y-4.1009
X5.5899Y-4.0965
X5.5914Y-4.0643
X5.5915Y-3.6313
X5.6102Y-3.0512
X5.6102Y-3.2992
X5.6102Y-3.878
X5.6152Y-3.8072
X5.6421Y-3.6446
X5.6496Y-4.4291
X5.6594Y-3.6713
X5.6693Y-3.8189
X5.689Y-3.8583
X5.6929Y-4.7697
X5.6929Y-4.8031
X5.6929Y-4.8366
X5.7087Y-3.937
X5.7244Y-4.7697
X5.7244Y-4.8031
X5.7244Y-4.8366
X5.7283Y-3.8976
X5.748Y-3.8386
X5.751Y-4.0846
X5.7726Y-4.0604
X5.7972Y-4.4291
X5.8016Y-4.0024
X5.8211Y-4.1266
X5.8268Y-3.8583
X5.8465Y-2.9921
X5.8465Y-3.8189
X5.8499Y-3.6841
X5.9252Y-4.3012
X5.9331Y-3.7503
X5.9461Y-4.3886
X5.9507Y-4.2743
X5.9646Y-3.7795
X5.977Y-4.2569
X5.9817Y-3.9416
X5.9941Y-4.3602
X6.0039Y-3.3465
X6.0039Y-3.5433
X6.0039Y-3.6024
X6.0039Y-4.1978
X6.0039Y-4.7244
X6.0078Y-3.9241
X6.0335Y-4.311
X6.063Y-2.6772
X6.084Y-4.1978
X6.0925Y-3.8878
X6.1417Y-3.1988
X6.2008Y-3.3465
X6.3091Y-3.9764
X6.3386Y-2.7559
X6.378Y-4.7244
X6.3976Y-2.9528
X6.3976Y-3.1496
X6.3976Y-3.3465
X6.3976Y-3.7441
X6.4469Y-4.5768
X6.5945Y-2.9528
X6.5945Y-3.1496
X6.5945Y-3.937
X6.5945Y-4.1339
T2
X5.2461Y-3.8091
X5.2461Y-3.8681
T3
X5.561Y-3.1496
X5.561Y-3.3465
X5.6594Y-3.1496
X5.6594Y-3.3465
X5.7579Y-3.1496
X5.7579Y-3.3465
X5.8563Y-3.1496
X5.8563Y-3.3465
T0
M30
