G04 #@! TF.GenerationSoftware,KiCad,Pcbnew,5.0.0-rc2-dev-unknown-c8a7840~64~ubuntu18.04.1*
G04 #@! TF.CreationDate,2018-05-01T15:31:45+02:00*
G04 #@! TF.ProjectId,can-node,63616E2D6E6F64652E6B696361645F70,1.1*
G04 #@! TF.SameCoordinates,Original*
G04 #@! TF.FileFunction,Soldermask,Top*
G04 #@! TF.FilePolarity,Negative*
%FSLAX46Y46*%
G04 Gerber Fmt 4.6, Leading zero omitted, Abs format (unit mm)*
G04 Created by KiCad (PCBNEW 5.0.0-rc2-dev-unknown-c8a7840~64~ubuntu18.04.1) date Tue May  1 15:31:45 2018*
%MOMM*%
%LPD*%
G01*
G04 APERTURE LIST*
%ADD10R,1.500000X0.500000*%
%ADD11R,1.600000X2.500000*%
%ADD12C,0.600000*%
%ADD13R,1.200000X0.750000*%
%ADD14C,1.750000*%
%ADD15C,1.500000*%
%ADD16R,1.200000X0.900000*%
%ADD17R,2.000000X2.500000*%
%ADD18R,2.200000X0.600000*%
%ADD19R,2.500000X3.000000*%
%ADD20R,1.600000X1.000000*%
%ADD21C,1.000000*%
%ADD22R,0.800000X0.800000*%
%ADD23C,2.000000*%
%ADD24R,2.000000X2.000000*%
%ADD25R,2.000000X1.600000*%
%ADD26R,0.750000X1.200000*%
%ADD27R,1.250000X1.500000*%
%ADD28R,1.500000X1.250000*%
%ADD29R,3.500000X1.800000*%
%ADD30R,1.800000X3.500000*%
%ADD31R,0.900000X1.200000*%
%ADD32R,3.500000X5.500000*%
%ADD33R,2.000000X1.700000*%
%ADD34R,1.300000X1.500000*%
%ADD35R,0.400000X0.900000*%
%ADD36R,0.900000X0.450000*%
%ADD37R,1.200000X1.400000*%
%ADD38R,0.600000X1.500000*%
%ADD39R,2.000000X0.300000*%
%ADD40R,0.300000X2.000000*%
G04 APERTURE END LIST*
D10*
X143350000Y-121000000D03*
X143350000Y-122000000D03*
X143350000Y-123000000D03*
X146850000Y-121000000D03*
X146850000Y-122000000D03*
X146850000Y-123000000D03*
D11*
X145100000Y-122000000D03*
D12*
X145500000Y-121150000D03*
X145500000Y-122850000D03*
X145500000Y-122000000D03*
X144700000Y-121150000D03*
X144700000Y-122850000D03*
X144700000Y-122000000D03*
D13*
X152950000Y-109450000D03*
X151050000Y-109450000D03*
D14*
X131500000Y-98750000D03*
X131500000Y-96250000D03*
X131500000Y-93750000D03*
X131500000Y-91250000D03*
X126500000Y-98750000D03*
X126500000Y-96250000D03*
X126500000Y-93750000D03*
X126500000Y-91250000D03*
D15*
X136110000Y-78420000D03*
X138650000Y-78420000D03*
X141190000Y-78420000D03*
X143730000Y-78420000D03*
X148810000Y-78420000D03*
X153890000Y-78420000D03*
X153890000Y-88580000D03*
X151350000Y-88580000D03*
X148810000Y-88580000D03*
X146270000Y-88580000D03*
X143730000Y-88580000D03*
X141190000Y-88580000D03*
X138650000Y-88580000D03*
X136110000Y-88580000D03*
D16*
X144900000Y-67000000D03*
X147100000Y-67000000D03*
D17*
X148900000Y-74400000D03*
X144900000Y-74400000D03*
D18*
X137200000Y-71460000D03*
X131800000Y-71460000D03*
X137200000Y-72730000D03*
X131800000Y-72730000D03*
X137200000Y-74000000D03*
X131800000Y-74000000D03*
X137200000Y-75270000D03*
X131800000Y-75270000D03*
D19*
X138750000Y-98500000D03*
D20*
X145000000Y-99800000D03*
X145000000Y-97200000D03*
D21*
X146200000Y-114000000D03*
X143900000Y-114000000D03*
X147100000Y-92950000D03*
X140300000Y-90900000D03*
D15*
X121500000Y-112500000D03*
D22*
X129200000Y-117900000D03*
X130800000Y-122100000D03*
X130800000Y-117900000D03*
X129200000Y-122100000D03*
D15*
X121500000Y-102000000D03*
D23*
X123800000Y-107200000D03*
D24*
X133800000Y-107200000D03*
D25*
X156500000Y-74000000D03*
X160500000Y-74000000D03*
D26*
X146800000Y-95850000D03*
X146800000Y-97750000D03*
X146800000Y-99450000D03*
X146800000Y-101350000D03*
D27*
X144500000Y-104800000D03*
X144500000Y-102300000D03*
D26*
X165000000Y-106950000D03*
X165000000Y-105050000D03*
X146100000Y-103050000D03*
X146100000Y-104950000D03*
X161000000Y-110200000D03*
X161000000Y-108300000D03*
D27*
X165000000Y-96250000D03*
X165000000Y-98750000D03*
D26*
X163500000Y-96550000D03*
X163500000Y-98450000D03*
D13*
X150550000Y-92800000D03*
X152450000Y-92800000D03*
X159450000Y-109400000D03*
X157550000Y-109400000D03*
D26*
X132500000Y-121050000D03*
X132500000Y-122950000D03*
D28*
X152750000Y-91250000D03*
X150250000Y-91250000D03*
D26*
X158000000Y-116550000D03*
X158000000Y-118450000D03*
X148300000Y-121050000D03*
X148300000Y-122950000D03*
X144800000Y-94950000D03*
X144800000Y-93050000D03*
D13*
X136850000Y-94000000D03*
X138750000Y-94000000D03*
D29*
X123000000Y-74500000D03*
X128000000Y-74500000D03*
D30*
X141000000Y-73500000D03*
X141000000Y-68500000D03*
D31*
X124000000Y-121100000D03*
X124000000Y-118900000D03*
X166000000Y-118900000D03*
X166000000Y-121100000D03*
D32*
X156200000Y-69400000D03*
X161400000Y-69400000D03*
D33*
X132500000Y-68000000D03*
X136500000Y-68000000D03*
D16*
X144900000Y-70800000D03*
X147100000Y-70800000D03*
X144900000Y-68500000D03*
X147100000Y-68500000D03*
D31*
X166000000Y-108900000D03*
X166000000Y-111100000D03*
X167900000Y-111100000D03*
X167900000Y-108900000D03*
X126000000Y-121100000D03*
X126000000Y-118900000D03*
X164000000Y-121100000D03*
X164000000Y-118900000D03*
X132500000Y-118600000D03*
X132500000Y-116400000D03*
X143700000Y-111100000D03*
X143700000Y-108900000D03*
X146400000Y-108900000D03*
X146400000Y-111100000D03*
X158000000Y-120900000D03*
X158000000Y-123100000D03*
D16*
X136500000Y-95600000D03*
X138700000Y-95600000D03*
X136500000Y-92400000D03*
X138700000Y-92400000D03*
D34*
X139000000Y-111350000D03*
X139000000Y-108650000D03*
D22*
X135800000Y-122100000D03*
X134200000Y-117900000D03*
X134200000Y-122100000D03*
X135800000Y-117900000D03*
X155800000Y-117900000D03*
X154200000Y-122100000D03*
X154200000Y-117900000D03*
X155800000Y-122100000D03*
D35*
X166300000Y-104900000D03*
X166300000Y-107100000D03*
X166950000Y-107100000D03*
X167600000Y-104900000D03*
X167600000Y-107100000D03*
D36*
X140700000Y-94975000D03*
X143300000Y-94975000D03*
X140700000Y-94325000D03*
X143300000Y-94325000D03*
X140700000Y-93675000D03*
X143300000Y-93675000D03*
X140700000Y-93025000D03*
X143300000Y-93025000D03*
D37*
X153000000Y-74800000D03*
X153000000Y-71000000D03*
X139000000Y-106900000D03*
X139000000Y-103100000D03*
D38*
X150950000Y-67450000D03*
X150000000Y-67450000D03*
X149050000Y-67450000D03*
X150950000Y-70550000D03*
X150000000Y-70550000D03*
X149050000Y-70550000D03*
D26*
X152700000Y-67200000D03*
X152700000Y-69100000D03*
D39*
X148850000Y-97250000D03*
X148850000Y-97750000D03*
X148850000Y-98250000D03*
X148850000Y-98750000D03*
X148850000Y-99250000D03*
X148850000Y-99750000D03*
X148850000Y-100250000D03*
X148850000Y-100750000D03*
X148850000Y-101250000D03*
X148850000Y-101750000D03*
X148850000Y-102250000D03*
X148850000Y-102750000D03*
X148850000Y-103250000D03*
X148850000Y-103750000D03*
X148850000Y-104250000D03*
X148850000Y-104750000D03*
D40*
X151250000Y-107150000D03*
X151750000Y-107150000D03*
X152250000Y-107150000D03*
X152750000Y-107150000D03*
X153250000Y-107150000D03*
X153750000Y-107150000D03*
X154250000Y-107150000D03*
X154750000Y-107150000D03*
X155250000Y-107150000D03*
X155750000Y-107150000D03*
X156250000Y-107150000D03*
X156750000Y-107150000D03*
X157250000Y-107150000D03*
X157750000Y-107150000D03*
X158250000Y-107150000D03*
X158750000Y-107150000D03*
D39*
X161150000Y-104750000D03*
X161150000Y-104250000D03*
X161150000Y-103750000D03*
X161150000Y-103250000D03*
X161150000Y-102750000D03*
X161150000Y-102250000D03*
X161150000Y-101750000D03*
X161150000Y-101250000D03*
X161150000Y-100750000D03*
X161150000Y-100250000D03*
X161150000Y-99750000D03*
X161150000Y-99250000D03*
X161150000Y-98750000D03*
X161150000Y-98250000D03*
X161150000Y-97750000D03*
X161150000Y-97250000D03*
D40*
X158750000Y-94850000D03*
X158250000Y-94850000D03*
X157750000Y-94850000D03*
X157250000Y-94850000D03*
X156750000Y-94850000D03*
X156250000Y-94850000D03*
X155750000Y-94850000D03*
X155250000Y-94850000D03*
X154750000Y-94850000D03*
X154250000Y-94850000D03*
X153750000Y-94850000D03*
X153250000Y-94850000D03*
X152750000Y-94850000D03*
X152250000Y-94850000D03*
X151750000Y-94850000D03*
X151250000Y-94850000D03*
D21*
X165800000Y-101400000D03*
X163900000Y-101400000D03*
X164600000Y-67400000D03*
X123000000Y-68000000D03*
M02*
