G04 #@! TF.FileFunction,Copper,L1,Top,Signal*
%FSLAX46Y46*%
G04 Gerber Fmt 4.6, Leading zero omitted, Abs format (unit mm)*
G04 Created by KiCad (PCBNEW 4.0.4+dfsg1-stable) date Thu Nov  3 14:07:57 2016*
%MOMM*%
%LPD*%
G01*
G04 APERTURE LIST*
%ADD10C,0.100000*%
%ADD11R,0.450000X0.900000*%
%ADD12C,1.400000*%
%ADD13R,0.600000X0.500000*%
%ADD14R,2.500000X1.000000*%
%ADD15R,2.200000X0.600000*%
%ADD16R,1.250000X1.000000*%
%ADD17R,1.000000X1.600000*%
%ADD18R,0.500000X0.600000*%
%ADD19R,1.000000X1.250000*%
%ADD20R,1.800860X3.500120*%
%ADD21R,3.500120X1.800860*%
%ADD22R,1.220000X0.910000*%
%ADD23R,0.797560X0.797560*%
%ADD24R,3.500000X5.500000*%
%ADD25R,2.032000X1.727200*%
%ADD26O,2.032000X1.727200*%
%ADD27R,1.727200X2.032000*%
%ADD28O,1.727200X2.032000*%
%ADD29R,1.700000X0.900000*%
%ADD30R,0.400000X0.600000*%
%ADD31R,0.600000X0.400000*%
%ADD32R,0.800000X0.800000*%
%ADD33R,1.998980X0.690880*%
%ADD34R,0.400000X0.900000*%
%ADD35R,1.000000X0.250000*%
%ADD36R,0.250000X1.000000*%
%ADD37C,1.000760*%
%ADD38R,0.500000X0.500000*%
%ADD39R,1.000000X0.500000*%
%ADD40R,1.600000X2.500000*%
%ADD41C,0.600000*%
%ADD42C,0.500000*%
%ADD43C,0.250000*%
G04 APERTURE END LIST*
D10*
D11*
X144525000Y-88200000D03*
X144525000Y-90800000D03*
X145175000Y-88200000D03*
X145175000Y-90800000D03*
X145825000Y-88200000D03*
X145825000Y-90800000D03*
X146475000Y-88200000D03*
X146475000Y-90800000D03*
D12*
X148750000Y-80000000D03*
X146250000Y-80000000D03*
X143750000Y-80000000D03*
X141250000Y-80000000D03*
X148750000Y-85000000D03*
X146250000Y-85000000D03*
X143750000Y-85000000D03*
X141250000Y-85000000D03*
D13*
X136050000Y-100000000D03*
X134950000Y-100000000D03*
D14*
X140000000Y-73000000D03*
X140000000Y-70000000D03*
D15*
X150700000Y-73095000D03*
X145300000Y-73095000D03*
X150700000Y-74365000D03*
X145300000Y-74365000D03*
X150700000Y-75635000D03*
X145300000Y-75635000D03*
X150700000Y-76905000D03*
X145300000Y-76905000D03*
D16*
X133500000Y-69500000D03*
X133500000Y-71500000D03*
D17*
X126500000Y-81250000D03*
X129500000Y-81250000D03*
D13*
X134950000Y-96250000D03*
X136050000Y-96250000D03*
X134950000Y-98750000D03*
X136050000Y-98750000D03*
D16*
X133750000Y-103500000D03*
X133750000Y-101500000D03*
D18*
X126500000Y-104450000D03*
X126500000Y-105550000D03*
X136300000Y-103050000D03*
X136300000Y-101950000D03*
D16*
X154750000Y-95750000D03*
X154750000Y-97750000D03*
D18*
X152500000Y-96200000D03*
X152500000Y-97300000D03*
D13*
X140200000Y-92750000D03*
X141300000Y-92750000D03*
X148300000Y-107750000D03*
X147200000Y-107750000D03*
X141800000Y-107750000D03*
X140700000Y-107750000D03*
D18*
X157750000Y-123850000D03*
X157750000Y-122750000D03*
D19*
X139750000Y-90750000D03*
X141750000Y-90750000D03*
D18*
X165250000Y-123800000D03*
X165250000Y-122700000D03*
X148000000Y-121950000D03*
X148000000Y-123050000D03*
D13*
X146050000Y-92500000D03*
X144950000Y-92500000D03*
D18*
X142545376Y-81969710D03*
X142545376Y-83069710D03*
D20*
X156000000Y-73000640D03*
X156000000Y-77999360D03*
D21*
X145250640Y-68750000D03*
X150249360Y-68750000D03*
D22*
X136750000Y-72135000D03*
X136750000Y-68865000D03*
D23*
X167500000Y-113000700D03*
X167500000Y-114499300D03*
X167500000Y-106743000D03*
X167500000Y-108241600D03*
D24*
X128750000Y-75000000D03*
X123550000Y-75000000D03*
D25*
X122500000Y-99880000D03*
D26*
X122500000Y-102420000D03*
X122500000Y-104960000D03*
X122500000Y-107500000D03*
X122500000Y-110040000D03*
D27*
X137790000Y-122750000D03*
D28*
X135250000Y-122750000D03*
X132710000Y-122750000D03*
D29*
X156000000Y-66550000D03*
X156000000Y-69450000D03*
D30*
X140500000Y-76750000D03*
X139600000Y-76750000D03*
D31*
X132750000Y-79700000D03*
X132750000Y-78800000D03*
X134250000Y-78800000D03*
X134250000Y-79700000D03*
X127500000Y-108700000D03*
X127500000Y-107800000D03*
X129000000Y-108700000D03*
X129000000Y-107800000D03*
X167500000Y-116950000D03*
X167500000Y-116050000D03*
X167500000Y-110692300D03*
X167500000Y-109792300D03*
D30*
X154550000Y-123750000D03*
X155450000Y-123750000D03*
X143000000Y-113500000D03*
X143900000Y-113500000D03*
X146950000Y-113500000D03*
X146050000Y-113500000D03*
X162050000Y-123750000D03*
X162950000Y-123750000D03*
X140050000Y-82500000D03*
X140950000Y-82500000D03*
X144050000Y-82500000D03*
X144950000Y-82500000D03*
D32*
X126700000Y-117900000D03*
X128300000Y-122100000D03*
X128300000Y-117900000D03*
X126700000Y-122100000D03*
X155800000Y-122100000D03*
X154200000Y-117900000D03*
X154200000Y-122100000D03*
X155800000Y-117900000D03*
X163300000Y-122100000D03*
X161700000Y-117900000D03*
X161700000Y-122100000D03*
X163300000Y-117900000D03*
D33*
X133594602Y-74406084D03*
X133594602Y-75356044D03*
X133594602Y-76306004D03*
X137196322Y-76306004D03*
X137196322Y-75356044D03*
X137196322Y-74406084D03*
D34*
X128100000Y-103900000D03*
X128100000Y-106100000D03*
X128750000Y-106100000D03*
X129400000Y-103900000D03*
X129400000Y-106100000D03*
D35*
X138550000Y-96500000D03*
X138550000Y-97000000D03*
X138550000Y-97500000D03*
X138550000Y-98000000D03*
X138550000Y-98500000D03*
X138550000Y-99000000D03*
X138550000Y-99500000D03*
X138550000Y-100000000D03*
X138550000Y-100500000D03*
X138550000Y-101000000D03*
X138550000Y-101500000D03*
X138550000Y-102000000D03*
X138550000Y-102500000D03*
X138550000Y-103000000D03*
X138550000Y-103500000D03*
X138550000Y-104000000D03*
D36*
X140500000Y-105950000D03*
X141000000Y-105950000D03*
X141500000Y-105950000D03*
X142000000Y-105950000D03*
X142500000Y-105950000D03*
X143000000Y-105950000D03*
X143500000Y-105950000D03*
X144000000Y-105950000D03*
X144500000Y-105950000D03*
X145000000Y-105950000D03*
X145500000Y-105950000D03*
X146000000Y-105950000D03*
X146500000Y-105950000D03*
X147000000Y-105950000D03*
X147500000Y-105950000D03*
X148000000Y-105950000D03*
D35*
X149950000Y-104000000D03*
X149950000Y-103500000D03*
X149950000Y-103000000D03*
X149950000Y-102500000D03*
X149950000Y-102000000D03*
X149950000Y-101500000D03*
X149950000Y-101000000D03*
X149950000Y-100500000D03*
X149950000Y-100000000D03*
X149950000Y-99500000D03*
X149950000Y-99000000D03*
X149950000Y-98500000D03*
X149950000Y-98000000D03*
X149950000Y-97500000D03*
X149950000Y-97000000D03*
X149950000Y-96500000D03*
D36*
X148000000Y-94550000D03*
X147500000Y-94550000D03*
X147000000Y-94550000D03*
X146500000Y-94550000D03*
X146000000Y-94550000D03*
X145500000Y-94550000D03*
X145000000Y-94550000D03*
X144500000Y-94550000D03*
X144000000Y-94550000D03*
X143500000Y-94550000D03*
X143000000Y-94550000D03*
X142500000Y-94550000D03*
X142000000Y-94550000D03*
X141500000Y-94550000D03*
X141000000Y-94550000D03*
X140500000Y-94550000D03*
D37*
X133250000Y-98249300D03*
X133250000Y-96750700D03*
D30*
X140450000Y-110750000D03*
X139550000Y-110750000D03*
X140450000Y-112250000D03*
X139550000Y-112250000D03*
X140450000Y-113750000D03*
X139550000Y-113750000D03*
D38*
X144250000Y-110700000D03*
X145000000Y-110700000D03*
X145750000Y-110700000D03*
X144250000Y-109300000D03*
X145000000Y-109300000D03*
X145750000Y-109300000D03*
D39*
X143500000Y-121000000D03*
X143500000Y-122000000D03*
X143500000Y-123000000D03*
X146500000Y-121000000D03*
X146500000Y-122000000D03*
X146500000Y-123000000D03*
D40*
X145000000Y-122000000D03*
D41*
X145400000Y-121150000D03*
X145400000Y-122850000D03*
X145400000Y-122000000D03*
X144600000Y-121150000D03*
X144600000Y-122850000D03*
X144600000Y-122000000D03*
X125000000Y-122500000D03*
X125000000Y-117500000D03*
X130000000Y-117500000D03*
X132500000Y-110000000D03*
X135000000Y-117500000D03*
X160000000Y-120000000D03*
X152500000Y-120000000D03*
X157500000Y-105000000D03*
X152500000Y-105000000D03*
X157500000Y-100000000D03*
X167500000Y-105000000D03*
X167500000Y-100000000D03*
X162500000Y-110000000D03*
X162500000Y-105000000D03*
X162500000Y-100000000D03*
X162500000Y-95000000D03*
X127500000Y-95000000D03*
X167500000Y-80000000D03*
X167500000Y-75000000D03*
X167500000Y-70000000D03*
X162500000Y-70000000D03*
X162500000Y-75000000D03*
X162500000Y-80000000D03*
X162500000Y-85000000D03*
X152500000Y-85000000D03*
X157500000Y-90000000D03*
X157500000Y-85000000D03*
X152500000Y-90000000D03*
X137500000Y-85000000D03*
X132500000Y-85000000D03*
X127500000Y-85000000D03*
X154000000Y-68000000D03*
X132000000Y-73000000D03*
X148500000Y-76000000D03*
X142500000Y-77500000D03*
X137500000Y-80000000D03*
X122500000Y-80000000D03*
X125000000Y-67500000D03*
X130000000Y-67500000D03*
X135000000Y-67500000D03*
X140000000Y-67500000D03*
X156000000Y-81250000D03*
X147750000Y-104750000D03*
X147000000Y-115750000D03*
X143750000Y-115750000D03*
X143250000Y-93000000D03*
X154750000Y-92000000D03*
X138250000Y-92000000D03*
X131749942Y-100500000D03*
X129646805Y-101817483D03*
X150500000Y-109250000D03*
X151000000Y-111500000D03*
X152250000Y-110750000D03*
X151250000Y-108500000D03*
X151815694Y-107934306D03*
X153250000Y-109500000D03*
X152500000Y-106750000D03*
X157500000Y-106750000D03*
X147374990Y-97500000D03*
X148500000Y-93000000D03*
X140000000Y-115999990D03*
X152500000Y-100000000D03*
X140000000Y-115199977D03*
X151750000Y-100500000D03*
D42*
X140300000Y-75300000D02*
X140000000Y-75300000D01*
X140000000Y-75300000D02*
X139500000Y-75300000D01*
X140000000Y-73000000D02*
X140000000Y-74000000D01*
X140000000Y-74000000D02*
X140000000Y-75300000D01*
X143365000Y-75300000D02*
X140500000Y-75300000D01*
X140500000Y-75300000D02*
X140300000Y-75300000D01*
X140500000Y-76750000D02*
X140500000Y-75950000D01*
X140500000Y-75950000D02*
X140500000Y-75300000D01*
X139500000Y-75300000D02*
X137252366Y-75300000D01*
X137252366Y-75300000D02*
X137196322Y-75356044D01*
X145300000Y-75635000D02*
X143700000Y-75635000D01*
X143700000Y-75635000D02*
X143365000Y-75300000D01*
X145300000Y-73095000D02*
X145300000Y-68799360D01*
X145300000Y-68799360D02*
X145250640Y-68750000D01*
X145300000Y-74365000D02*
X145300000Y-73095000D01*
X145300000Y-75635000D02*
X145300000Y-74365000D01*
X129500000Y-84500000D02*
X129000000Y-85000000D01*
X129000000Y-85000000D02*
X127500000Y-85000000D01*
X156000000Y-69450000D02*
X155450000Y-69450000D01*
X155450000Y-69450000D02*
X154000000Y-68000000D01*
X135000000Y-67500000D02*
X130000000Y-67500000D01*
X156000000Y-77999360D02*
X156000000Y-81250000D01*
D43*
X147500000Y-105950000D02*
X147500000Y-105000000D01*
X147500000Y-105000000D02*
X147750000Y-104750000D01*
X128750000Y-104485002D02*
X128750000Y-102750000D01*
X127874999Y-104675001D02*
X128560001Y-104675001D01*
X126500000Y-105550000D02*
X127000000Y-105550000D01*
X127000000Y-105550000D02*
X127874999Y-104675001D01*
X128560001Y-104675001D02*
X128750000Y-104485002D01*
X130500000Y-107450000D02*
X130500000Y-110250000D01*
X129400000Y-106100000D02*
X129400000Y-106350000D01*
X129400000Y-106350000D02*
X130500000Y-107450000D01*
D42*
X148750000Y-77500000D02*
X146250000Y-80000000D01*
D43*
X133750000Y-101500000D02*
X132000000Y-101500000D01*
X138550000Y-102000000D02*
X136350000Y-102000000D01*
X136350000Y-102000000D02*
X136300000Y-101950000D01*
X133750000Y-101500000D02*
X135850000Y-101500000D01*
X135850000Y-101500000D02*
X136300000Y-101950000D01*
X144825000Y-89750000D02*
X143500000Y-89750000D01*
X145175000Y-90800000D02*
X145175000Y-90100000D01*
X145175000Y-90100000D02*
X144825000Y-89750000D01*
X145175000Y-90800000D02*
X145175000Y-92275000D01*
X145175000Y-92275000D02*
X144950000Y-92500000D01*
D42*
X153350000Y-70750000D02*
X154650000Y-69450000D01*
X148750000Y-77500000D02*
X148750000Y-72834998D01*
X148750000Y-72834998D02*
X150834998Y-70750000D01*
X150834998Y-70750000D02*
X153350000Y-70750000D01*
X154650000Y-69450000D02*
X156000000Y-69450000D01*
D43*
X144000000Y-117000000D02*
X143500000Y-116500000D01*
X134950000Y-100000000D02*
X134950000Y-99850000D01*
X134950000Y-99850000D02*
X136050000Y-98750000D01*
X141000000Y-94550000D02*
X141000000Y-93050000D01*
X141000000Y-93050000D02*
X141300000Y-92750000D01*
X141000000Y-105950000D02*
X141000000Y-107450000D01*
X141000000Y-107450000D02*
X140700000Y-107750000D01*
X147500000Y-105950000D02*
X147500000Y-107450000D01*
X147500000Y-107450000D02*
X147200000Y-107750000D01*
D42*
X133594602Y-75356044D02*
X132095112Y-75356044D01*
X133594602Y-75356044D02*
X135094092Y-75356044D01*
X132095112Y-75356044D02*
X132000000Y-75451156D01*
X134250000Y-80750000D02*
X133750000Y-81250000D01*
X133750000Y-81250000D02*
X129500000Y-81250000D01*
X135500000Y-79500000D02*
X135300000Y-79700000D01*
X135500000Y-75761952D02*
X135500000Y-79500000D01*
X135094092Y-75356044D02*
X135500000Y-75761952D01*
X129500000Y-81250000D02*
X129500000Y-84500000D01*
D43*
X142500000Y-122000000D02*
X142500000Y-120500000D01*
X142500000Y-120500000D02*
X144000000Y-119000000D01*
X144000000Y-119000000D02*
X144000000Y-117000000D01*
X142500000Y-123335002D02*
X142500000Y-122000000D01*
X143500000Y-122000000D02*
X142500000Y-122000000D01*
X147100000Y-124000000D02*
X143164998Y-124000000D01*
X143164998Y-124000000D02*
X142500000Y-123335002D01*
X148000000Y-123050000D02*
X148000000Y-123100000D01*
X148000000Y-123100000D02*
X147100000Y-124000000D01*
D42*
X128250000Y-72000000D02*
X130750000Y-69500000D01*
X130750000Y-69500000D02*
X133500000Y-69500000D01*
X128250000Y-74101506D02*
X128250000Y-72000000D01*
X128245462Y-75106044D02*
X128245462Y-74106044D01*
X128245462Y-74106044D02*
X128250000Y-74101506D01*
X133500000Y-69500000D02*
X134115000Y-69500000D01*
X134115000Y-69500000D02*
X136750000Y-72135000D01*
X137196322Y-74406084D02*
X137196322Y-72581322D01*
X137196322Y-72581322D02*
X136750000Y-72135000D01*
D43*
X133500000Y-71500000D02*
X133500000Y-74311482D01*
X133500000Y-74311482D02*
X133594602Y-74406084D01*
D42*
X129750000Y-100860002D02*
X129750000Y-100625000D01*
X133750000Y-103500000D02*
X132389998Y-103500000D01*
X132389998Y-103500000D02*
X129750000Y-100860002D01*
D43*
X140500000Y-104739998D02*
X140500000Y-95300000D01*
X140500000Y-95300000D02*
X140500000Y-94550000D01*
X139250000Y-105989998D02*
X140500000Y-104739998D01*
X140211411Y-108325001D02*
X139250000Y-107363590D01*
X141750000Y-108325001D02*
X140211411Y-108325001D01*
X139250000Y-107363590D02*
X139250000Y-105989998D01*
X146639999Y-108325001D02*
X145814998Y-107500000D01*
X147674999Y-108325001D02*
X146639999Y-108325001D01*
X148250000Y-107750000D02*
X147674999Y-108325001D01*
X148300000Y-107750000D02*
X148250000Y-107750000D01*
X142575001Y-107500000D02*
X141750000Y-108325001D01*
X145814998Y-107500000D02*
X142575001Y-107500000D01*
X136850000Y-102500000D02*
X136300000Y-103050000D01*
X138550000Y-102500000D02*
X136850000Y-102500000D01*
X146000000Y-114550000D02*
X146000000Y-115750000D01*
X146000000Y-115750000D02*
X146000000Y-119000000D01*
X147000000Y-115750000D02*
X146000000Y-115750000D01*
X143000000Y-113500000D02*
X143000000Y-115000000D01*
X143000000Y-115000000D02*
X143750000Y-115750000D01*
X127650000Y-103900000D02*
X128100000Y-103900000D01*
X127550000Y-103900000D02*
X127650000Y-103900000D01*
X127000000Y-104450000D02*
X127550000Y-103900000D01*
X126500000Y-104450000D02*
X127000000Y-104450000D01*
X127500000Y-108700000D02*
X127400000Y-108700000D01*
X127400000Y-108700000D02*
X125500000Y-106800000D01*
X125500000Y-106800000D02*
X125500000Y-105500000D01*
X125500000Y-105500000D02*
X126500000Y-104500000D01*
X126500000Y-104500000D02*
X126500000Y-104450000D01*
X122500000Y-99880000D02*
X123766000Y-99880000D01*
X123766000Y-99880000D02*
X123771000Y-99875000D01*
X123771000Y-99875000D02*
X129000000Y-99875000D01*
D42*
X129750000Y-100625000D02*
X129000000Y-99875000D01*
D43*
X126500000Y-104450000D02*
X126500000Y-103900000D01*
X126500000Y-103900000D02*
X129750000Y-100650000D01*
X129750000Y-100650000D02*
X129750000Y-100625000D01*
X129000000Y-108700000D02*
X127500000Y-108700000D01*
X136300000Y-103200000D02*
X136000000Y-103500000D01*
X136000000Y-103500000D02*
X133750000Y-103500000D01*
X136300000Y-103050000D02*
X136300000Y-103200000D01*
X145424999Y-93075001D02*
X143325001Y-93075001D01*
X146000000Y-92500000D02*
X145424999Y-93075001D01*
X146050000Y-92500000D02*
X146000000Y-92500000D01*
X143325001Y-93075001D02*
X143250000Y-93000000D01*
X145825000Y-90800000D02*
X145825000Y-92275000D01*
X145825000Y-92275000D02*
X146050000Y-92500000D01*
X145800000Y-90825000D02*
X145825000Y-90800000D01*
D42*
X129000000Y-99875000D02*
X129000000Y-98375000D01*
X154750000Y-95750000D02*
X156250000Y-95750000D01*
X146950000Y-113500000D02*
X147650000Y-113500000D01*
X147650000Y-113500000D02*
X156250000Y-104900000D01*
X156250000Y-104900000D02*
X156250000Y-95750000D01*
X154750000Y-92000000D02*
X154750000Y-95750000D01*
X138000000Y-90750000D02*
X139750000Y-90750000D01*
X129000000Y-90750000D02*
X138000000Y-90750000D01*
X138000000Y-90750000D02*
X138000000Y-91750000D01*
X138000000Y-91750000D02*
X138250000Y-92000000D01*
D43*
X152500000Y-96200000D02*
X154300000Y-96200000D01*
X154300000Y-96200000D02*
X154750000Y-95750000D01*
X151500000Y-96500000D02*
X151800000Y-96200000D01*
X151800000Y-96200000D02*
X152500000Y-96200000D01*
X149950000Y-96500000D02*
X151500000Y-96500000D01*
X146950000Y-113500000D02*
X146950000Y-113600000D01*
X146950000Y-113600000D02*
X146000000Y-114550000D01*
X146000000Y-119000000D02*
X148000000Y-121000000D01*
X148000000Y-121000000D02*
X148000000Y-121950000D01*
X143000000Y-113500000D02*
X143000000Y-113400000D01*
D42*
X129000000Y-90750000D02*
X129000000Y-98375000D01*
X126500000Y-81250000D02*
X126500000Y-88250000D01*
X126500000Y-88250000D02*
X129000000Y-90750000D01*
D43*
X140200000Y-92750000D02*
X140200000Y-91200000D01*
X140200000Y-91200000D02*
X139750000Y-90750000D01*
X140500000Y-94550000D02*
X140500000Y-93050000D01*
X140500000Y-93050000D02*
X140200000Y-92750000D01*
X141800000Y-107750000D02*
X141800000Y-108250000D01*
X141800000Y-108250000D02*
X141750000Y-108300000D01*
X141750000Y-108300000D02*
X141750000Y-108325001D01*
X141500000Y-105950000D02*
X141500000Y-107450000D01*
X141500000Y-107450000D02*
X141800000Y-107750000D01*
X148000000Y-105950000D02*
X148000000Y-107450000D01*
X148000000Y-107450000D02*
X148300000Y-107750000D01*
D42*
X132750000Y-79700000D02*
X126639418Y-79700000D01*
X126639418Y-79700000D02*
X126545462Y-79606044D01*
X126500000Y-81250000D02*
X126500000Y-79651506D01*
X126500000Y-79651506D02*
X126545462Y-79606044D01*
X126545462Y-79606044D02*
X123045462Y-76106044D01*
X123045462Y-76106044D02*
X123045462Y-75106044D01*
X124395462Y-73756044D02*
X123045462Y-75106044D01*
D43*
X146500000Y-122000000D02*
X147950000Y-122000000D01*
X147950000Y-122000000D02*
X148000000Y-121950000D01*
X138550000Y-97500000D02*
X135750000Y-97500000D01*
X135750000Y-97500000D02*
X134950000Y-96700000D01*
X134950000Y-96700000D02*
X134950000Y-96250000D01*
X134950000Y-96250000D02*
X133750700Y-96250000D01*
X133750700Y-96250000D02*
X133250000Y-96750700D01*
X134950000Y-98750000D02*
X133750700Y-98750000D01*
X133750700Y-98750000D02*
X133250000Y-98249300D01*
X138550000Y-98000000D02*
X135750000Y-98000000D01*
X135750000Y-98000000D02*
X135000000Y-98750000D01*
X135000000Y-98750000D02*
X134950000Y-98750000D01*
X136050000Y-100000000D02*
X136000000Y-100000000D01*
X135575001Y-100510001D02*
X135510001Y-100575001D01*
X136000000Y-100000000D02*
X135575001Y-100424999D01*
X135575001Y-100424999D02*
X135575001Y-100510001D01*
X134389999Y-100575001D02*
X134324999Y-100510001D01*
X135510001Y-100575001D02*
X134389999Y-100575001D01*
X134324999Y-100510001D02*
X134324999Y-100500000D01*
X132174206Y-100500000D02*
X131749942Y-100500000D01*
X134324999Y-100500000D02*
X132174206Y-100500000D01*
X129400000Y-103900000D02*
X129400000Y-102064288D01*
X129400000Y-102064288D02*
X129646805Y-101817483D01*
X138550000Y-99500000D02*
X136550000Y-99500000D01*
X136550000Y-99500000D02*
X136050000Y-100000000D01*
X150500000Y-109250000D02*
X150200001Y-108950001D01*
X150200001Y-108950001D02*
X150200001Y-104250001D01*
X150200001Y-104250001D02*
X149950000Y-104000000D01*
X155000000Y-123200000D02*
X155000000Y-115500000D01*
X155000000Y-115500000D02*
X151000000Y-111500000D01*
X155450000Y-123750000D02*
X155450000Y-123650000D01*
X155450000Y-123650000D02*
X155000000Y-123200000D01*
X157750000Y-123850000D02*
X155550000Y-123850000D01*
X155550000Y-123850000D02*
X155450000Y-123750000D01*
X162950000Y-123750000D02*
X165200000Y-123750000D01*
X165200000Y-123750000D02*
X165250000Y-123800000D01*
X152250000Y-110750000D02*
X152250000Y-111174264D01*
X152250000Y-111174264D02*
X162574999Y-121499263D01*
X162574999Y-121499263D02*
X162574999Y-122824999D01*
X162574999Y-122824999D02*
X162950000Y-123200000D01*
X162950000Y-123200000D02*
X162950000Y-123750000D01*
X150500000Y-103500000D02*
X150500000Y-103549999D01*
X150775001Y-108025001D02*
X151250000Y-108500000D01*
X150500000Y-103549999D02*
X150710001Y-103549999D01*
X150710001Y-103549999D02*
X150775001Y-103614999D01*
X150775001Y-103614999D02*
X150775001Y-108025001D01*
X149950000Y-103500000D02*
X150500000Y-103500000D01*
X142545376Y-82045376D02*
X143000000Y-82500000D01*
X143000000Y-82500000D02*
X144050000Y-82500000D01*
X142545376Y-81969710D02*
X142545376Y-82045376D01*
X140950000Y-82500000D02*
X142015086Y-82500000D01*
X142015086Y-82500000D02*
X142545376Y-81969710D01*
D42*
X150700000Y-76905000D02*
X150700000Y-78050000D01*
X150700000Y-78050000D02*
X148750000Y-80000000D01*
X150700000Y-74365000D02*
X150700000Y-73095000D01*
X150700000Y-75635000D02*
X150700000Y-74365000D01*
X150700000Y-76905000D02*
X150700000Y-75635000D01*
X150700000Y-73095000D02*
X155905640Y-73095000D01*
X155905640Y-73095000D02*
X156000000Y-73000640D01*
D43*
X150249360Y-68750000D02*
X150249360Y-69500640D01*
X150249360Y-69500640D02*
X147500000Y-72250000D01*
X147500000Y-72250000D02*
X147500000Y-75505000D01*
X147500000Y-75505000D02*
X146100000Y-76905000D01*
X146100000Y-76905000D02*
X145300000Y-76905000D01*
X150249360Y-68750000D02*
X151098990Y-68750000D01*
X153298990Y-66550000D02*
X156000000Y-66550000D01*
X151098990Y-68750000D02*
X153298990Y-66550000D01*
X151515695Y-107634307D02*
X151815694Y-107934306D01*
X151250000Y-103453587D02*
X151250000Y-107368612D01*
X151250000Y-107368612D02*
X151515695Y-107634307D01*
X150796413Y-103000000D02*
X151250000Y-103453587D01*
X149950000Y-103000000D02*
X150796413Y-103000000D01*
X153250000Y-109500000D02*
X156750700Y-113000700D01*
X156750700Y-113000700D02*
X167500000Y-113000700D01*
X167500000Y-114499300D02*
X167500000Y-116050000D01*
X150932824Y-102500000D02*
X150700000Y-102500000D01*
X152500000Y-106750000D02*
X151700011Y-105950011D01*
X151700011Y-105950011D02*
X151700011Y-103267187D01*
X151700011Y-103267187D02*
X150932824Y-102500000D01*
X150700000Y-102500000D02*
X149950000Y-102500000D01*
X167500000Y-106743000D02*
X157507000Y-106743000D01*
X157507000Y-106743000D02*
X157500000Y-106750000D01*
X167500000Y-108241600D02*
X167500000Y-109792300D01*
X140050000Y-82500000D02*
X140050000Y-83050000D01*
X140050000Y-83050000D02*
X140750000Y-83750000D01*
X140750000Y-83750000D02*
X141500000Y-83750000D01*
X142250000Y-85750000D02*
X143750000Y-87250000D01*
X141500000Y-83750000D02*
X142250000Y-84500000D01*
X142250000Y-84500000D02*
X142250000Y-85750000D01*
X143750000Y-87250000D02*
X144925000Y-87250000D01*
X145175000Y-87500000D02*
X145175000Y-88200000D01*
X144925000Y-87250000D02*
X145175000Y-87500000D01*
X141250000Y-80000000D02*
X140050000Y-81200000D01*
X140050000Y-81200000D02*
X140050000Y-82500000D01*
X149950000Y-97500000D02*
X147374990Y-97500000D01*
X148000000Y-93500000D02*
X148000000Y-94550000D01*
X148500000Y-93000000D02*
X148000000Y-93500000D01*
X129000000Y-107800000D02*
X129550000Y-107800000D01*
X129550000Y-107800000D02*
X129750000Y-108000000D01*
X129750000Y-108000000D02*
X129750000Y-109035002D01*
X122652400Y-107500000D02*
X122500000Y-107500000D01*
X129750000Y-109035002D02*
X129035002Y-109750000D01*
X129035002Y-109750000D02*
X124902400Y-109750000D01*
X124902400Y-109750000D02*
X122652400Y-107500000D01*
X128750000Y-106100000D02*
X128750000Y-107550000D01*
X128750000Y-107550000D02*
X129000000Y-107800000D01*
X144950000Y-82500000D02*
X144950000Y-83050000D01*
X143500000Y-83750000D02*
X142750000Y-84500000D01*
X144950000Y-83050000D02*
X144250000Y-83750000D01*
X144250000Y-83750000D02*
X143500000Y-83750000D01*
X145075000Y-86750000D02*
X145825000Y-87500000D01*
X142750000Y-84500000D02*
X142750000Y-85500000D01*
X142750000Y-85500000D02*
X144000000Y-86750000D01*
X144000000Y-86750000D02*
X145075000Y-86750000D01*
X145825000Y-87500000D02*
X145825000Y-88200000D01*
X143750000Y-80000000D02*
X144950000Y-81200000D01*
X144950000Y-81200000D02*
X144950000Y-82500000D01*
X139600000Y-76750000D02*
X137640318Y-76750000D01*
X137640318Y-76750000D02*
X137196322Y-76306004D01*
X133500000Y-78800000D02*
X133500000Y-76400606D01*
X133500000Y-76400606D02*
X133594602Y-76306004D01*
X133500000Y-78800000D02*
X134250000Y-78800000D01*
X132750000Y-78800000D02*
X133500000Y-78800000D01*
X126700000Y-117250000D02*
X126700000Y-117900000D01*
X131500000Y-110500000D02*
X126700000Y-115300000D01*
X131500000Y-106250000D02*
X131500000Y-110500000D01*
X126700000Y-115300000D02*
X126700000Y-117250000D01*
X130375012Y-105125012D02*
X131500000Y-106250000D01*
X128100000Y-105400000D02*
X128374988Y-105125012D01*
X128100000Y-106100000D02*
X128100000Y-105400000D01*
X128374988Y-105125012D02*
X130375012Y-105125012D01*
X128100000Y-106100000D02*
X128100000Y-107200000D01*
X128100000Y-107200000D02*
X127500000Y-107800000D01*
X154500000Y-123750000D02*
X154200000Y-123450000D01*
X154200000Y-123450000D02*
X154200000Y-122100000D01*
X154550000Y-123750000D02*
X154500000Y-123750000D01*
X161700000Y-122100000D02*
X161700000Y-123400000D01*
X161700000Y-123400000D02*
X162050000Y-123750000D01*
X149125001Y-94635001D02*
X148010002Y-95750000D01*
X146950000Y-95750000D02*
X146500000Y-95300000D01*
X149125001Y-91075001D02*
X149125001Y-94635001D01*
X148010002Y-95750000D02*
X146950000Y-95750000D01*
X146475000Y-88425000D02*
X149125001Y-91075001D01*
X146500000Y-95300000D02*
X146500000Y-94550000D01*
X146475000Y-88200000D02*
X146475000Y-88425000D01*
X147000000Y-93574998D02*
X147000000Y-93800000D01*
X145261400Y-89549989D02*
X146484991Y-89549989D01*
X146484991Y-89549989D02*
X147624999Y-90689997D01*
X147624999Y-92949999D02*
X147000000Y-93574998D01*
X144525000Y-88200000D02*
X144525000Y-88813589D01*
X144525000Y-88813589D02*
X145261400Y-89549989D01*
X147624999Y-90689997D02*
X147624999Y-92949999D01*
X147000000Y-93800000D02*
X147000000Y-94550000D01*
X146950000Y-92800000D02*
X146950000Y-91500000D01*
X146124998Y-93625002D02*
X146950000Y-92800000D01*
X142196411Y-93625002D02*
X146124998Y-93625002D01*
X142000000Y-94550000D02*
X142000000Y-93821413D01*
X142000000Y-93821413D02*
X142196411Y-93625002D01*
X146950000Y-91500000D02*
X146475000Y-91025000D01*
X146475000Y-91025000D02*
X146475000Y-90800000D01*
X144525000Y-90800000D02*
X144525000Y-91025000D01*
X143550000Y-92000000D02*
X143185002Y-92000000D01*
X144525000Y-91025000D02*
X143550000Y-92000000D01*
X143185002Y-92000000D02*
X141500000Y-93685002D01*
X141500000Y-93685002D02*
X141500000Y-93800000D01*
X141500000Y-93800000D02*
X141500000Y-94550000D01*
X149250000Y-109750000D02*
X149250000Y-105324996D01*
X147000000Y-104574996D02*
X147000000Y-105200000D01*
X148050002Y-104124998D02*
X147449998Y-104124998D01*
X144500000Y-113500000D02*
X144500000Y-113086411D01*
X147000000Y-105200000D02*
X147000000Y-105950000D01*
X149250000Y-105324996D02*
X148050002Y-104124998D01*
X147449998Y-104124998D02*
X147000000Y-104574996D01*
X147000000Y-112000000D02*
X149250000Y-109750000D01*
X145586410Y-112000000D02*
X147000000Y-112000000D01*
X144500000Y-113086411D02*
X145586410Y-112000000D01*
X144500000Y-119500000D02*
X144500000Y-113500000D01*
X143900000Y-113500000D02*
X144500000Y-113500000D01*
X143500000Y-121000000D02*
X143500000Y-120500000D01*
X143500000Y-120500000D02*
X144500000Y-119500000D01*
X145500000Y-113500000D02*
X145500000Y-112750000D01*
X146500000Y-105200000D02*
X146500000Y-105950000D01*
X146500000Y-104438585D02*
X146500000Y-105200000D01*
X147263598Y-103674987D02*
X146500000Y-104438585D01*
X148236402Y-103674987D02*
X147263598Y-103674987D01*
X147250000Y-112500000D02*
X149750000Y-110000000D01*
X149750000Y-110000000D02*
X149750000Y-105188585D01*
X145750000Y-112500000D02*
X147250000Y-112500000D01*
X145500000Y-112750000D02*
X145750000Y-112500000D01*
X149750000Y-105188585D02*
X148236402Y-103674987D01*
X145500000Y-119500000D02*
X145500000Y-113500000D01*
X146050000Y-113500000D02*
X145500000Y-113500000D01*
X146500000Y-120500000D02*
X145500000Y-119500000D01*
X146500000Y-121000000D02*
X146500000Y-120500000D01*
X144250000Y-110700000D02*
X140500000Y-110700000D01*
X140500000Y-110700000D02*
X140450000Y-110750000D01*
X145000000Y-111113589D02*
X143863589Y-112250000D01*
X145000000Y-110700000D02*
X145000000Y-111113589D01*
X143863589Y-112250000D02*
X140900000Y-112250000D01*
X140900000Y-112250000D02*
X140450000Y-112250000D01*
X144075001Y-112874999D02*
X141775001Y-112874999D01*
X141775001Y-112874999D02*
X140900000Y-113750000D01*
X145750000Y-110700000D02*
X145750000Y-111200000D01*
X145750000Y-111200000D02*
X144075001Y-112874999D01*
X140900000Y-113750000D02*
X140450000Y-113750000D01*
X144250000Y-109300000D02*
X143750000Y-109300000D01*
X137477178Y-103000000D02*
X138550000Y-103000000D01*
X143750000Y-109300000D02*
X143149978Y-109900022D01*
X143149978Y-109900022D02*
X138900022Y-109900022D01*
X136250000Y-104227178D02*
X137477178Y-103000000D01*
X138900022Y-109900022D02*
X136250000Y-107250000D01*
X136250000Y-107250000D02*
X136250000Y-104227178D01*
X145000000Y-109300000D02*
X145000000Y-108800000D01*
X145000000Y-108800000D02*
X144900011Y-108700011D01*
X144900011Y-108700011D02*
X143686399Y-108700011D01*
X143686399Y-108700011D02*
X142936400Y-109450011D01*
X137000000Y-104250000D02*
X137750000Y-103500000D01*
X142936400Y-109450011D02*
X139200011Y-109450011D01*
X139200011Y-109450011D02*
X137000000Y-107250000D01*
X137800000Y-103500000D02*
X138550000Y-103500000D01*
X137000000Y-107250000D02*
X137000000Y-104250000D01*
X137750000Y-103500000D02*
X137800000Y-103500000D01*
X145750000Y-109300000D02*
X145750000Y-108800000D01*
X138000000Y-104000000D02*
X138550000Y-104000000D01*
X145750000Y-108800000D02*
X145200000Y-108250000D01*
X145200000Y-108250000D02*
X143500000Y-108250000D01*
X143500000Y-108250000D02*
X142750000Y-109000000D01*
X142750000Y-109000000D02*
X139750000Y-109000000D01*
X139750000Y-109000000D02*
X137750000Y-107000000D01*
X137750000Y-107000000D02*
X137750000Y-104250000D01*
X137750000Y-104250000D02*
X138000000Y-104000000D01*
X139700001Y-116299989D02*
X140000000Y-115999990D01*
X137790000Y-122750000D02*
X137790000Y-118209990D01*
X137790000Y-118209990D02*
X139700001Y-116299989D01*
X152500000Y-100000000D02*
X151500000Y-99000000D01*
X151500000Y-99000000D02*
X149950000Y-99000000D01*
X139575736Y-115250000D02*
X140000000Y-115250000D01*
X135250000Y-122750000D02*
X135250000Y-119575736D01*
X135250000Y-119575736D02*
X139575736Y-115250000D01*
X140000000Y-115250000D02*
X140000000Y-115199977D01*
X149950000Y-99500000D02*
X150750000Y-99500000D01*
X150750000Y-99500000D02*
X151750000Y-100500000D01*
G36*
X169575000Y-82075000D02*
X167500000Y-82075000D01*
X167337360Y-82107351D01*
X167199480Y-82199480D01*
X167107351Y-82337360D01*
X167075000Y-82500000D01*
X167075000Y-97500000D01*
X167107351Y-97662640D01*
X167199480Y-97800520D01*
X167337360Y-97892649D01*
X167500000Y-97925000D01*
X169575000Y-97925000D01*
X169575000Y-124575000D01*
X150425000Y-124575000D01*
X150425000Y-120133677D01*
X151824883Y-120133677D01*
X151927429Y-120381857D01*
X152117144Y-120571903D01*
X152365145Y-120674883D01*
X152633677Y-120675117D01*
X152881857Y-120572571D01*
X153071903Y-120382856D01*
X153174883Y-120134855D01*
X153175117Y-119866323D01*
X153072571Y-119618143D01*
X152882856Y-119428097D01*
X152634855Y-119325117D01*
X152366323Y-119324883D01*
X152118143Y-119427429D01*
X151928097Y-119617144D01*
X151825117Y-119865145D01*
X151824883Y-120133677D01*
X150425000Y-120133677D01*
X150425000Y-117500000D01*
X150392649Y-117337360D01*
X150300520Y-117199480D01*
X150162640Y-117107351D01*
X150000000Y-117075000D01*
X146500000Y-117075000D01*
X146500000Y-116250000D01*
X146545366Y-116250000D01*
X146617144Y-116321903D01*
X146865145Y-116424883D01*
X147133677Y-116425117D01*
X147381857Y-116322571D01*
X147571903Y-116132856D01*
X147674883Y-115884855D01*
X147675117Y-115616323D01*
X147572571Y-115368143D01*
X147382856Y-115178097D01*
X147134855Y-115075117D01*
X146866323Y-115074883D01*
X146618143Y-115177429D01*
X146545445Y-115250000D01*
X146500000Y-115250000D01*
X146500000Y-114757106D01*
X147074760Y-114182346D01*
X147150000Y-114182346D01*
X147288966Y-114156198D01*
X147337449Y-114125000D01*
X147650000Y-114125000D01*
X147889177Y-114077425D01*
X148091942Y-113941942D01*
X150346906Y-111686977D01*
X150427429Y-111881857D01*
X150617144Y-112071903D01*
X150865145Y-112174883D01*
X150967866Y-112174973D01*
X154500000Y-115707107D01*
X154500000Y-117117654D01*
X153800000Y-117117654D01*
X153661034Y-117143802D01*
X153533401Y-117225931D01*
X153447777Y-117351246D01*
X153417654Y-117500000D01*
X153417654Y-118300000D01*
X153443802Y-118438966D01*
X153525931Y-118566599D01*
X153651246Y-118652223D01*
X153800000Y-118682346D01*
X154500000Y-118682346D01*
X154500000Y-121317654D01*
X153800000Y-121317654D01*
X153661034Y-121343802D01*
X153533401Y-121425931D01*
X153447777Y-121551246D01*
X153417654Y-121700000D01*
X153417654Y-122500000D01*
X153443802Y-122638966D01*
X153525931Y-122766599D01*
X153651246Y-122852223D01*
X153700000Y-122862096D01*
X153700000Y-123450000D01*
X153731559Y-123608659D01*
X153738060Y-123641342D01*
X153846447Y-123803553D01*
X153967654Y-123924760D01*
X153967654Y-124050000D01*
X153993802Y-124188966D01*
X154075931Y-124316599D01*
X154201246Y-124402223D01*
X154350000Y-124432346D01*
X154750000Y-124432346D01*
X154888966Y-124406198D01*
X155001285Y-124333923D01*
X155101246Y-124402223D01*
X155250000Y-124432346D01*
X155650000Y-124432346D01*
X155788966Y-124406198D01*
X155876301Y-124350000D01*
X157183076Y-124350000D01*
X157225931Y-124416599D01*
X157351246Y-124502223D01*
X157500000Y-124532346D01*
X158000000Y-124532346D01*
X158138966Y-124506198D01*
X158266599Y-124424069D01*
X158352223Y-124298754D01*
X158382346Y-124150000D01*
X158382346Y-123562851D01*
X158536632Y-123408565D01*
X158633000Y-123175911D01*
X158633000Y-123037250D01*
X158474750Y-122879000D01*
X157875000Y-122879000D01*
X157875000Y-122899000D01*
X157625000Y-122899000D01*
X157625000Y-122879000D01*
X157025250Y-122879000D01*
X156867000Y-123037250D01*
X156867000Y-123175911D01*
X156939110Y-123350000D01*
X156013530Y-123350000D01*
X156006198Y-123311034D01*
X155924069Y-123183401D01*
X155850305Y-123133000D01*
X155929002Y-123133000D01*
X155929002Y-122974752D01*
X156087250Y-123133000D01*
X156325912Y-123133000D01*
X156558566Y-123036631D01*
X156736632Y-122858565D01*
X156833000Y-122625911D01*
X156833000Y-122387250D01*
X156769839Y-122324089D01*
X156867000Y-122324089D01*
X156867000Y-122462750D01*
X157025250Y-122621000D01*
X157625000Y-122621000D01*
X157625000Y-121975250D01*
X157875000Y-121975250D01*
X157875000Y-122621000D01*
X158474750Y-122621000D01*
X158633000Y-122462750D01*
X158633000Y-122324089D01*
X158536632Y-122091435D01*
X158358566Y-121913369D01*
X158125912Y-121817000D01*
X158033250Y-121817000D01*
X157875000Y-121975250D01*
X157625000Y-121975250D01*
X157466750Y-121817000D01*
X157374088Y-121817000D01*
X157141434Y-121913369D01*
X156963368Y-122091435D01*
X156867000Y-122324089D01*
X156769839Y-122324089D01*
X156674750Y-122229000D01*
X155929000Y-122229000D01*
X155929000Y-122249000D01*
X155671000Y-122249000D01*
X155671000Y-122229000D01*
X155651000Y-122229000D01*
X155651000Y-121971000D01*
X155671000Y-121971000D01*
X155671000Y-121225250D01*
X155929000Y-121225250D01*
X155929000Y-121971000D01*
X156674750Y-121971000D01*
X156833000Y-121812750D01*
X156833000Y-121574089D01*
X156736632Y-121341435D01*
X156558566Y-121163369D01*
X156325912Y-121067000D01*
X156087250Y-121067000D01*
X155929000Y-121225250D01*
X155671000Y-121225250D01*
X155512750Y-121067000D01*
X155500000Y-121067000D01*
X155500000Y-118933000D01*
X155512750Y-118933000D01*
X155671000Y-118774750D01*
X155671000Y-118029000D01*
X155929000Y-118029000D01*
X155929000Y-118774750D01*
X156087250Y-118933000D01*
X156325912Y-118933000D01*
X156558566Y-118836631D01*
X156736632Y-118658565D01*
X156833000Y-118425911D01*
X156833000Y-118187250D01*
X156674750Y-118029000D01*
X155929000Y-118029000D01*
X155671000Y-118029000D01*
X155651000Y-118029000D01*
X155651000Y-117771000D01*
X155671000Y-117771000D01*
X155671000Y-117025250D01*
X155929000Y-117025250D01*
X155929000Y-117771000D01*
X156674750Y-117771000D01*
X156833000Y-117612750D01*
X156833000Y-117374089D01*
X156736632Y-117141435D01*
X156558566Y-116963369D01*
X156325912Y-116867000D01*
X156087250Y-116867000D01*
X155929000Y-117025250D01*
X155671000Y-117025250D01*
X155512750Y-116867000D01*
X155500000Y-116867000D01*
X155500000Y-115500000D01*
X155461940Y-115308658D01*
X155389321Y-115199977D01*
X155353553Y-115146446D01*
X151675028Y-111467922D01*
X151675117Y-111366323D01*
X151572571Y-111118143D01*
X151382856Y-110928097D01*
X151275883Y-110883677D01*
X151574883Y-110883677D01*
X151677429Y-111131857D01*
X151757524Y-111212092D01*
X151778312Y-111316599D01*
X151788060Y-111365606D01*
X151896447Y-111527817D01*
X159744039Y-119375410D01*
X159618143Y-119427429D01*
X159428097Y-119617144D01*
X159325117Y-119865145D01*
X159324883Y-120133677D01*
X159427429Y-120381857D01*
X159617144Y-120571903D01*
X159865145Y-120674883D01*
X160133677Y-120675117D01*
X160381857Y-120572571D01*
X160571903Y-120382856D01*
X160624594Y-120255964D01*
X161686283Y-121317654D01*
X161300000Y-121317654D01*
X161161034Y-121343802D01*
X161033401Y-121425931D01*
X160947777Y-121551246D01*
X160917654Y-121700000D01*
X160917654Y-122500000D01*
X160943802Y-122638966D01*
X161025931Y-122766599D01*
X161151246Y-122852223D01*
X161200000Y-122862096D01*
X161200000Y-123400000D01*
X161230544Y-123553554D01*
X161238060Y-123591342D01*
X161346447Y-123753553D01*
X161467654Y-123874760D01*
X161467654Y-124050000D01*
X161493802Y-124188966D01*
X161575931Y-124316599D01*
X161701246Y-124402223D01*
X161850000Y-124432346D01*
X162250000Y-124432346D01*
X162388966Y-124406198D01*
X162501285Y-124333923D01*
X162601246Y-124402223D01*
X162750000Y-124432346D01*
X163150000Y-124432346D01*
X163288966Y-124406198D01*
X163416599Y-124324069D01*
X163467208Y-124250000D01*
X164650902Y-124250000D01*
X164725931Y-124366599D01*
X164851246Y-124452223D01*
X165000000Y-124482346D01*
X165500000Y-124482346D01*
X165638966Y-124456198D01*
X165766599Y-124374069D01*
X165852223Y-124248754D01*
X165882346Y-124100000D01*
X165882346Y-123512851D01*
X166036632Y-123358565D01*
X166133000Y-123125911D01*
X166133000Y-122987250D01*
X165974750Y-122829000D01*
X165375000Y-122829000D01*
X165375000Y-122849000D01*
X165125000Y-122849000D01*
X165125000Y-122829000D01*
X164525250Y-122829000D01*
X164367000Y-122987250D01*
X164367000Y-123125911D01*
X164418399Y-123250000D01*
X163466924Y-123250000D01*
X163450000Y-123223699D01*
X163450000Y-123200000D01*
X163429002Y-123094435D01*
X163429002Y-122974752D01*
X163587250Y-123133000D01*
X163825912Y-123133000D01*
X164058566Y-123036631D01*
X164236632Y-122858565D01*
X164333000Y-122625911D01*
X164333000Y-122387250D01*
X164219839Y-122274089D01*
X164367000Y-122274089D01*
X164367000Y-122412750D01*
X164525250Y-122571000D01*
X165125000Y-122571000D01*
X165125000Y-121925250D01*
X165375000Y-121925250D01*
X165375000Y-122571000D01*
X165974750Y-122571000D01*
X166133000Y-122412750D01*
X166133000Y-122274089D01*
X166036632Y-122041435D01*
X165858566Y-121863369D01*
X165625912Y-121767000D01*
X165533250Y-121767000D01*
X165375000Y-121925250D01*
X165125000Y-121925250D01*
X164966750Y-121767000D01*
X164874088Y-121767000D01*
X164641434Y-121863369D01*
X164463368Y-122041435D01*
X164367000Y-122274089D01*
X164219839Y-122274089D01*
X164174750Y-122229000D01*
X163429000Y-122229000D01*
X163429000Y-122249000D01*
X163171000Y-122249000D01*
X163171000Y-122229000D01*
X163151000Y-122229000D01*
X163151000Y-121971000D01*
X163171000Y-121971000D01*
X163171000Y-121225250D01*
X163429000Y-121225250D01*
X163429000Y-121971000D01*
X164174750Y-121971000D01*
X164333000Y-121812750D01*
X164333000Y-121574089D01*
X164236632Y-121341435D01*
X164058566Y-121163369D01*
X163825912Y-121067000D01*
X163587250Y-121067000D01*
X163429000Y-121225250D01*
X163171000Y-121225250D01*
X163012750Y-121067000D01*
X162849843Y-121067000D01*
X159282843Y-117500000D01*
X160917654Y-117500000D01*
X160917654Y-118300000D01*
X160943802Y-118438966D01*
X161025931Y-118566599D01*
X161151246Y-118652223D01*
X161300000Y-118682346D01*
X162100000Y-118682346D01*
X162238966Y-118656198D01*
X162336414Y-118593492D01*
X162363368Y-118658565D01*
X162541434Y-118836631D01*
X162774088Y-118933000D01*
X163012750Y-118933000D01*
X163171000Y-118774750D01*
X163171000Y-118029000D01*
X163429000Y-118029000D01*
X163429000Y-118774750D01*
X163587250Y-118933000D01*
X163825912Y-118933000D01*
X164058566Y-118836631D01*
X164236632Y-118658565D01*
X164333000Y-118425911D01*
X164333000Y-118187250D01*
X164174750Y-118029000D01*
X163429000Y-118029000D01*
X163171000Y-118029000D01*
X163151000Y-118029000D01*
X163151000Y-117771000D01*
X163171000Y-117771000D01*
X163171000Y-117025250D01*
X163429000Y-117025250D01*
X163429000Y-117771000D01*
X164174750Y-117771000D01*
X164333000Y-117612750D01*
X164333000Y-117374089D01*
X164264308Y-117208250D01*
X166567000Y-117208250D01*
X166567000Y-117275911D01*
X166663368Y-117508565D01*
X166841434Y-117686631D01*
X167074088Y-117783000D01*
X167212750Y-117783000D01*
X167371000Y-117624750D01*
X167371000Y-117050000D01*
X167629000Y-117050000D01*
X167629000Y-117624750D01*
X167787250Y-117783000D01*
X167925912Y-117783000D01*
X168158566Y-117686631D01*
X168336632Y-117508565D01*
X168433000Y-117275911D01*
X168433000Y-117208250D01*
X168274750Y-117050000D01*
X167629000Y-117050000D01*
X167371000Y-117050000D01*
X166725250Y-117050000D01*
X166567000Y-117208250D01*
X164264308Y-117208250D01*
X164236632Y-117141435D01*
X164058566Y-116963369D01*
X163825912Y-116867000D01*
X163587250Y-116867000D01*
X163429000Y-117025250D01*
X163171000Y-117025250D01*
X163012750Y-116867000D01*
X162774088Y-116867000D01*
X162541434Y-116963369D01*
X162363368Y-117141435D01*
X162336038Y-117207416D01*
X162248754Y-117147777D01*
X162100000Y-117117654D01*
X161300000Y-117117654D01*
X161161034Y-117143802D01*
X161033401Y-117225931D01*
X160947777Y-117351246D01*
X160917654Y-117500000D01*
X159282843Y-117500000D01*
X152849423Y-111066581D01*
X152924883Y-110884855D01*
X152925117Y-110616323D01*
X152822571Y-110368143D01*
X152632856Y-110178097D01*
X152384855Y-110075117D01*
X152116323Y-110074883D01*
X151868143Y-110177429D01*
X151678097Y-110367144D01*
X151575117Y-110615145D01*
X151574883Y-110883677D01*
X151275883Y-110883677D01*
X151187081Y-110846803D01*
X152575035Y-109458848D01*
X152574883Y-109633677D01*
X152677429Y-109881857D01*
X152867144Y-110071903D01*
X153115145Y-110174883D01*
X153217866Y-110174973D01*
X156397146Y-113354253D01*
X156478569Y-113408658D01*
X156559358Y-113462640D01*
X156750700Y-113500700D01*
X166737920Y-113500700D01*
X166745022Y-113538446D01*
X166827151Y-113666079D01*
X166951650Y-113751145D01*
X166834621Y-113826451D01*
X166748997Y-113951766D01*
X166718874Y-114100520D01*
X166718874Y-114898080D01*
X166745022Y-115037046D01*
X166827151Y-115164679D01*
X166952466Y-115250303D01*
X167000000Y-115259929D01*
X167000000Y-115533076D01*
X166933401Y-115575931D01*
X166847777Y-115701246D01*
X166817654Y-115850000D01*
X166817654Y-116237149D01*
X166663368Y-116391435D01*
X166567000Y-116624089D01*
X166567000Y-116691750D01*
X166725250Y-116850000D01*
X167371000Y-116850000D01*
X167371000Y-116801000D01*
X167629000Y-116801000D01*
X167629000Y-116850000D01*
X168274750Y-116850000D01*
X168433000Y-116691750D01*
X168433000Y-116624089D01*
X168336632Y-116391435D01*
X168182346Y-116237149D01*
X168182346Y-115850000D01*
X168156198Y-115711034D01*
X168074069Y-115583401D01*
X168000000Y-115532792D01*
X168000000Y-115261380D01*
X168037746Y-115254278D01*
X168165379Y-115172149D01*
X168251003Y-115046834D01*
X168281126Y-114898080D01*
X168281126Y-114100520D01*
X168254978Y-113961554D01*
X168172849Y-113833921D01*
X168048350Y-113748855D01*
X168165379Y-113673549D01*
X168251003Y-113548234D01*
X168281126Y-113399480D01*
X168281126Y-112601920D01*
X168254978Y-112462954D01*
X168172849Y-112335321D01*
X168047534Y-112249697D01*
X167898780Y-112219574D01*
X167101220Y-112219574D01*
X166962254Y-112245722D01*
X166834621Y-112327851D01*
X166748997Y-112453166D01*
X166739371Y-112500700D01*
X156957807Y-112500700D01*
X155407657Y-110950550D01*
X166567000Y-110950550D01*
X166567000Y-111018211D01*
X166663368Y-111250865D01*
X166841434Y-111428931D01*
X167074088Y-111525300D01*
X167212750Y-111525300D01*
X167371000Y-111367050D01*
X167371000Y-110792300D01*
X167629000Y-110792300D01*
X167629000Y-111367050D01*
X167787250Y-111525300D01*
X167925912Y-111525300D01*
X168158566Y-111428931D01*
X168336632Y-111250865D01*
X168433000Y-111018211D01*
X168433000Y-110950550D01*
X168274750Y-110792300D01*
X167629000Y-110792300D01*
X167371000Y-110792300D01*
X166725250Y-110792300D01*
X166567000Y-110950550D01*
X155407657Y-110950550D01*
X154590784Y-110133677D01*
X161824883Y-110133677D01*
X161927429Y-110381857D01*
X162117144Y-110571903D01*
X162365145Y-110674883D01*
X162633677Y-110675117D01*
X162881857Y-110572571D01*
X163071903Y-110382856D01*
X163174883Y-110134855D01*
X163175117Y-109866323D01*
X163072571Y-109618143D01*
X162882856Y-109428097D01*
X162634855Y-109325117D01*
X162366323Y-109324883D01*
X162118143Y-109427429D01*
X161928097Y-109617144D01*
X161825117Y-109865145D01*
X161824883Y-110133677D01*
X154590784Y-110133677D01*
X153925028Y-109467922D01*
X153925117Y-109366323D01*
X153822571Y-109118143D01*
X153632856Y-108928097D01*
X153384855Y-108825117D01*
X153208920Y-108824964D01*
X155150206Y-106883677D01*
X156824883Y-106883677D01*
X156927429Y-107131857D01*
X157117144Y-107321903D01*
X157365145Y-107424883D01*
X157633677Y-107425117D01*
X157881857Y-107322571D01*
X157961567Y-107243000D01*
X166737920Y-107243000D01*
X166745022Y-107280746D01*
X166827151Y-107408379D01*
X166951650Y-107493445D01*
X166834621Y-107568751D01*
X166748997Y-107694066D01*
X166718874Y-107842820D01*
X166718874Y-108640380D01*
X166745022Y-108779346D01*
X166827151Y-108906979D01*
X166952466Y-108992603D01*
X167000000Y-109002229D01*
X167000000Y-109275376D01*
X166933401Y-109318231D01*
X166847777Y-109443546D01*
X166817654Y-109592300D01*
X166817654Y-109979449D01*
X166663368Y-110133735D01*
X166567000Y-110366389D01*
X166567000Y-110434050D01*
X166725250Y-110592300D01*
X167371000Y-110592300D01*
X167371000Y-110543300D01*
X167629000Y-110543300D01*
X167629000Y-110592300D01*
X168274750Y-110592300D01*
X168433000Y-110434050D01*
X168433000Y-110366389D01*
X168336632Y-110133735D01*
X168182346Y-109979449D01*
X168182346Y-109592300D01*
X168156198Y-109453334D01*
X168074069Y-109325701D01*
X168000000Y-109275092D01*
X168000000Y-109003680D01*
X168037746Y-108996578D01*
X168165379Y-108914449D01*
X168251003Y-108789134D01*
X168281126Y-108640380D01*
X168281126Y-107842820D01*
X168254978Y-107703854D01*
X168172849Y-107576221D01*
X168048350Y-107491155D01*
X168165379Y-107415849D01*
X168251003Y-107290534D01*
X168281126Y-107141780D01*
X168281126Y-106344220D01*
X168254978Y-106205254D01*
X168172849Y-106077621D01*
X168047534Y-105991997D01*
X167898780Y-105961874D01*
X167101220Y-105961874D01*
X166962254Y-105988022D01*
X166834621Y-106070151D01*
X166748997Y-106195466D01*
X166739371Y-106243000D01*
X157947646Y-106243000D01*
X157882856Y-106178097D01*
X157634855Y-106075117D01*
X157366323Y-106074883D01*
X157118143Y-106177429D01*
X156928097Y-106367144D01*
X156825117Y-106615145D01*
X156824883Y-106883677D01*
X155150206Y-106883677D01*
X156691939Y-105341944D01*
X156691942Y-105341942D01*
X156827259Y-105139426D01*
X156927429Y-105381857D01*
X157117144Y-105571903D01*
X157365145Y-105674883D01*
X157633677Y-105675117D01*
X157881857Y-105572571D01*
X158071903Y-105382856D01*
X158174883Y-105134855D01*
X158174884Y-105133677D01*
X161824883Y-105133677D01*
X161927429Y-105381857D01*
X162117144Y-105571903D01*
X162365145Y-105674883D01*
X162633677Y-105675117D01*
X162881857Y-105572571D01*
X163071903Y-105382856D01*
X163174883Y-105134855D01*
X163174884Y-105133677D01*
X166824883Y-105133677D01*
X166927429Y-105381857D01*
X167117144Y-105571903D01*
X167365145Y-105674883D01*
X167633677Y-105675117D01*
X167881857Y-105572571D01*
X168071903Y-105382856D01*
X168174883Y-105134855D01*
X168175117Y-104866323D01*
X168072571Y-104618143D01*
X167882856Y-104428097D01*
X167634855Y-104325117D01*
X167366323Y-104324883D01*
X167118143Y-104427429D01*
X166928097Y-104617144D01*
X166825117Y-104865145D01*
X166824883Y-105133677D01*
X163174884Y-105133677D01*
X163175117Y-104866323D01*
X163072571Y-104618143D01*
X162882856Y-104428097D01*
X162634855Y-104325117D01*
X162366323Y-104324883D01*
X162118143Y-104427429D01*
X161928097Y-104617144D01*
X161825117Y-104865145D01*
X161824883Y-105133677D01*
X158174884Y-105133677D01*
X158175117Y-104866323D01*
X158072571Y-104618143D01*
X157882856Y-104428097D01*
X157634855Y-104325117D01*
X157366323Y-104324883D01*
X157118143Y-104427429D01*
X156928097Y-104617144D01*
X156875000Y-104745015D01*
X156875000Y-100254969D01*
X156927429Y-100381857D01*
X157117144Y-100571903D01*
X157365145Y-100674883D01*
X157633677Y-100675117D01*
X157881857Y-100572571D01*
X158071903Y-100382856D01*
X158174883Y-100134855D01*
X158174884Y-100133677D01*
X161824883Y-100133677D01*
X161927429Y-100381857D01*
X162117144Y-100571903D01*
X162365145Y-100674883D01*
X162633677Y-100675117D01*
X162881857Y-100572571D01*
X163071903Y-100382856D01*
X163174883Y-100134855D01*
X163174884Y-100133677D01*
X166824883Y-100133677D01*
X166927429Y-100381857D01*
X167117144Y-100571903D01*
X167365145Y-100674883D01*
X167633677Y-100675117D01*
X167881857Y-100572571D01*
X168071903Y-100382856D01*
X168174883Y-100134855D01*
X168175117Y-99866323D01*
X168072571Y-99618143D01*
X167882856Y-99428097D01*
X167634855Y-99325117D01*
X167366323Y-99324883D01*
X167118143Y-99427429D01*
X166928097Y-99617144D01*
X166825117Y-99865145D01*
X166824883Y-100133677D01*
X163174884Y-100133677D01*
X163175117Y-99866323D01*
X163072571Y-99618143D01*
X162882856Y-99428097D01*
X162634855Y-99325117D01*
X162366323Y-99324883D01*
X162118143Y-99427429D01*
X161928097Y-99617144D01*
X161825117Y-99865145D01*
X161824883Y-100133677D01*
X158174884Y-100133677D01*
X158175117Y-99866323D01*
X158072571Y-99618143D01*
X157882856Y-99428097D01*
X157634855Y-99325117D01*
X157366323Y-99324883D01*
X157118143Y-99427429D01*
X156928097Y-99617144D01*
X156875000Y-99745015D01*
X156875000Y-95750000D01*
X156827425Y-95510823D01*
X156691942Y-95308058D01*
X156489177Y-95172575D01*
X156293623Y-95133677D01*
X161824883Y-95133677D01*
X161927429Y-95381857D01*
X162117144Y-95571903D01*
X162365145Y-95674883D01*
X162633677Y-95675117D01*
X162881857Y-95572571D01*
X163071903Y-95382856D01*
X163174883Y-95134855D01*
X163175117Y-94866323D01*
X163072571Y-94618143D01*
X162882856Y-94428097D01*
X162634855Y-94325117D01*
X162366323Y-94324883D01*
X162118143Y-94427429D01*
X161928097Y-94617144D01*
X161825117Y-94865145D01*
X161824883Y-95133677D01*
X156293623Y-95133677D01*
X156250000Y-95125000D01*
X155733826Y-95125000D01*
X155731198Y-95111034D01*
X155649069Y-94983401D01*
X155523754Y-94897777D01*
X155375000Y-94867654D01*
X155375000Y-92254985D01*
X155424883Y-92134855D01*
X155425117Y-91866323D01*
X155322571Y-91618143D01*
X155132856Y-91428097D01*
X154884855Y-91325117D01*
X154616323Y-91324883D01*
X154368143Y-91427429D01*
X154178097Y-91617144D01*
X154075117Y-91865145D01*
X154074883Y-92133677D01*
X154125000Y-92254969D01*
X154125000Y-94867654D01*
X153986034Y-94893802D01*
X153858401Y-94975931D01*
X153772777Y-95101246D01*
X153742654Y-95250000D01*
X153742654Y-95700000D01*
X153066924Y-95700000D01*
X153024069Y-95633401D01*
X152898754Y-95547777D01*
X152750000Y-95517654D01*
X152250000Y-95517654D01*
X152111034Y-95543802D01*
X151983401Y-95625931D01*
X151932792Y-95700000D01*
X151800000Y-95700000D01*
X151632081Y-95733401D01*
X151608658Y-95738060D01*
X151446447Y-95846447D01*
X151292894Y-96000000D01*
X150486276Y-96000000D01*
X150450000Y-95992654D01*
X149450000Y-95992654D01*
X149311034Y-96018802D01*
X149183401Y-96100931D01*
X149097777Y-96226246D01*
X149070917Y-96358886D01*
X148913369Y-96516434D01*
X148817000Y-96749088D01*
X148817000Y-96779250D01*
X148975250Y-96937500D01*
X149243109Y-96937500D01*
X149301246Y-96977223D01*
X149412392Y-96999730D01*
X149410959Y-97000000D01*
X147829624Y-97000000D01*
X147757846Y-96928097D01*
X147509845Y-96825117D01*
X147241313Y-96824883D01*
X146993133Y-96927429D01*
X146803087Y-97117144D01*
X146700107Y-97365145D01*
X146699873Y-97633677D01*
X146802419Y-97881857D01*
X146992134Y-98071903D01*
X147240135Y-98174883D01*
X147508667Y-98175117D01*
X147756847Y-98072571D01*
X147829545Y-98000000D01*
X149067654Y-98000000D01*
X149067654Y-98125000D01*
X149092038Y-98254589D01*
X149067654Y-98375000D01*
X149067654Y-98625000D01*
X149092038Y-98754589D01*
X149067654Y-98875000D01*
X149067654Y-99125000D01*
X149092038Y-99254589D01*
X149067654Y-99375000D01*
X149067654Y-99625000D01*
X149092038Y-99754589D01*
X149067654Y-99875000D01*
X149067654Y-100125000D01*
X149092038Y-100254589D01*
X149067654Y-100375000D01*
X149067654Y-100625000D01*
X149092038Y-100754589D01*
X149067654Y-100875000D01*
X149067654Y-101125000D01*
X149092038Y-101254589D01*
X149067654Y-101375000D01*
X149067654Y-101625000D01*
X149092038Y-101754589D01*
X149067654Y-101875000D01*
X149067654Y-102125000D01*
X149092038Y-102254589D01*
X149067654Y-102375000D01*
X149067654Y-102625000D01*
X149092038Y-102754589D01*
X149067654Y-102875000D01*
X149067654Y-103125000D01*
X149092038Y-103254589D01*
X149067654Y-103375000D01*
X149067654Y-103625000D01*
X149092038Y-103754589D01*
X149080430Y-103811909D01*
X148589955Y-103321434D01*
X148427744Y-103213047D01*
X148236402Y-103174987D01*
X147263598Y-103174987D01*
X147072256Y-103213047D01*
X147037854Y-103236034D01*
X146910045Y-103321433D01*
X146146447Y-104085032D01*
X146038060Y-104247243D01*
X146000000Y-104438585D01*
X146000000Y-105067654D01*
X145875000Y-105067654D01*
X145745411Y-105092038D01*
X145625000Y-105067654D01*
X145375000Y-105067654D01*
X145245411Y-105092038D01*
X145125000Y-105067654D01*
X144875000Y-105067654D01*
X144745411Y-105092038D01*
X144625000Y-105067654D01*
X144375000Y-105067654D01*
X144245411Y-105092038D01*
X144125000Y-105067654D01*
X143875000Y-105067654D01*
X143745411Y-105092038D01*
X143625000Y-105067654D01*
X143375000Y-105067654D01*
X143245411Y-105092038D01*
X143125000Y-105067654D01*
X142875000Y-105067654D01*
X142745411Y-105092038D01*
X142625000Y-105067654D01*
X142375000Y-105067654D01*
X142245411Y-105092038D01*
X142125000Y-105067654D01*
X141875000Y-105067654D01*
X141745411Y-105092038D01*
X141641114Y-105070917D01*
X141483566Y-104913369D01*
X141250912Y-104817000D01*
X141220750Y-104817000D01*
X141062500Y-104975250D01*
X141062500Y-105243109D01*
X141022777Y-105301246D01*
X141000270Y-105412392D01*
X140981198Y-105311034D01*
X140937500Y-105243125D01*
X140937500Y-104975250D01*
X140934563Y-104972313D01*
X140961940Y-104931340D01*
X140968422Y-104898754D01*
X141000000Y-104739998D01*
X141000000Y-95089041D01*
X141018802Y-95188966D01*
X141062500Y-95256875D01*
X141062500Y-95524750D01*
X141220750Y-95683000D01*
X141250912Y-95683000D01*
X141483566Y-95586631D01*
X141640829Y-95429368D01*
X141754589Y-95407962D01*
X141875000Y-95432346D01*
X142125000Y-95432346D01*
X142254589Y-95407962D01*
X142375000Y-95432346D01*
X142625000Y-95432346D01*
X142754589Y-95407962D01*
X142875000Y-95432346D01*
X143125000Y-95432346D01*
X143254589Y-95407962D01*
X143375000Y-95432346D01*
X143625000Y-95432346D01*
X143754589Y-95407962D01*
X143875000Y-95432346D01*
X144125000Y-95432346D01*
X144254589Y-95407962D01*
X144375000Y-95432346D01*
X144625000Y-95432346D01*
X144754589Y-95407962D01*
X144875000Y-95432346D01*
X145125000Y-95432346D01*
X145254589Y-95407962D01*
X145375000Y-95432346D01*
X145625000Y-95432346D01*
X145754589Y-95407962D01*
X145875000Y-95432346D01*
X146026325Y-95432346D01*
X146038060Y-95491342D01*
X146146447Y-95653553D01*
X146596447Y-96103553D01*
X146758658Y-96211940D01*
X146950000Y-96250000D01*
X148010002Y-96250000D01*
X148201344Y-96211940D01*
X148363555Y-96103553D01*
X149478555Y-94988554D01*
X149543527Y-94891315D01*
X149586941Y-94826343D01*
X149625001Y-94635001D01*
X149625001Y-91075001D01*
X149586941Y-90883659D01*
X149583828Y-90879000D01*
X149478554Y-90721447D01*
X147632106Y-88875000D01*
X150000000Y-88875000D01*
X150048632Y-88865152D01*
X150089601Y-88837159D01*
X150116451Y-88795432D01*
X150125000Y-88750000D01*
X150125000Y-83875000D01*
X160000000Y-83875000D01*
X160048632Y-83865152D01*
X160089601Y-83837159D01*
X160116451Y-83795432D01*
X160125000Y-83750000D01*
X160125000Y-65425000D01*
X169575000Y-65425000D01*
X169575000Y-82075000D01*
X169575000Y-82075000D01*
G37*
X169575000Y-82075000D02*
X167500000Y-82075000D01*
X167337360Y-82107351D01*
X167199480Y-82199480D01*
X167107351Y-82337360D01*
X167075000Y-82500000D01*
X167075000Y-97500000D01*
X167107351Y-97662640D01*
X167199480Y-97800520D01*
X167337360Y-97892649D01*
X167500000Y-97925000D01*
X169575000Y-97925000D01*
X169575000Y-124575000D01*
X150425000Y-124575000D01*
X150425000Y-120133677D01*
X151824883Y-120133677D01*
X151927429Y-120381857D01*
X152117144Y-120571903D01*
X152365145Y-120674883D01*
X152633677Y-120675117D01*
X152881857Y-120572571D01*
X153071903Y-120382856D01*
X153174883Y-120134855D01*
X153175117Y-119866323D01*
X153072571Y-119618143D01*
X152882856Y-119428097D01*
X152634855Y-119325117D01*
X152366323Y-119324883D01*
X152118143Y-119427429D01*
X151928097Y-119617144D01*
X151825117Y-119865145D01*
X151824883Y-120133677D01*
X150425000Y-120133677D01*
X150425000Y-117500000D01*
X150392649Y-117337360D01*
X150300520Y-117199480D01*
X150162640Y-117107351D01*
X150000000Y-117075000D01*
X146500000Y-117075000D01*
X146500000Y-116250000D01*
X146545366Y-116250000D01*
X146617144Y-116321903D01*
X146865145Y-116424883D01*
X147133677Y-116425117D01*
X147381857Y-116322571D01*
X147571903Y-116132856D01*
X147674883Y-115884855D01*
X147675117Y-115616323D01*
X147572571Y-115368143D01*
X147382856Y-115178097D01*
X147134855Y-115075117D01*
X146866323Y-115074883D01*
X146618143Y-115177429D01*
X146545445Y-115250000D01*
X146500000Y-115250000D01*
X146500000Y-114757106D01*
X147074760Y-114182346D01*
X147150000Y-114182346D01*
X147288966Y-114156198D01*
X147337449Y-114125000D01*
X147650000Y-114125000D01*
X147889177Y-114077425D01*
X148091942Y-113941942D01*
X150346906Y-111686977D01*
X150427429Y-111881857D01*
X150617144Y-112071903D01*
X150865145Y-112174883D01*
X150967866Y-112174973D01*
X154500000Y-115707107D01*
X154500000Y-117117654D01*
X153800000Y-117117654D01*
X153661034Y-117143802D01*
X153533401Y-117225931D01*
X153447777Y-117351246D01*
X153417654Y-117500000D01*
X153417654Y-118300000D01*
X153443802Y-118438966D01*
X153525931Y-118566599D01*
X153651246Y-118652223D01*
X153800000Y-118682346D01*
X154500000Y-118682346D01*
X154500000Y-121317654D01*
X153800000Y-121317654D01*
X153661034Y-121343802D01*
X153533401Y-121425931D01*
X153447777Y-121551246D01*
X153417654Y-121700000D01*
X153417654Y-122500000D01*
X153443802Y-122638966D01*
X153525931Y-122766599D01*
X153651246Y-122852223D01*
X153700000Y-122862096D01*
X153700000Y-123450000D01*
X153731559Y-123608659D01*
X153738060Y-123641342D01*
X153846447Y-123803553D01*
X153967654Y-123924760D01*
X153967654Y-124050000D01*
X153993802Y-124188966D01*
X154075931Y-124316599D01*
X154201246Y-124402223D01*
X154350000Y-124432346D01*
X154750000Y-124432346D01*
X154888966Y-124406198D01*
X155001285Y-124333923D01*
X155101246Y-124402223D01*
X155250000Y-124432346D01*
X155650000Y-124432346D01*
X155788966Y-124406198D01*
X155876301Y-124350000D01*
X157183076Y-124350000D01*
X157225931Y-124416599D01*
X157351246Y-124502223D01*
X157500000Y-124532346D01*
X158000000Y-124532346D01*
X158138966Y-124506198D01*
X158266599Y-124424069D01*
X158352223Y-124298754D01*
X158382346Y-124150000D01*
X158382346Y-123562851D01*
X158536632Y-123408565D01*
X158633000Y-123175911D01*
X158633000Y-123037250D01*
X158474750Y-122879000D01*
X157875000Y-122879000D01*
X157875000Y-122899000D01*
X157625000Y-122899000D01*
X157625000Y-122879000D01*
X157025250Y-122879000D01*
X156867000Y-123037250D01*
X156867000Y-123175911D01*
X156939110Y-123350000D01*
X156013530Y-123350000D01*
X156006198Y-123311034D01*
X155924069Y-123183401D01*
X155850305Y-123133000D01*
X155929002Y-123133000D01*
X155929002Y-122974752D01*
X156087250Y-123133000D01*
X156325912Y-123133000D01*
X156558566Y-123036631D01*
X156736632Y-122858565D01*
X156833000Y-122625911D01*
X156833000Y-122387250D01*
X156769839Y-122324089D01*
X156867000Y-122324089D01*
X156867000Y-122462750D01*
X157025250Y-122621000D01*
X157625000Y-122621000D01*
X157625000Y-121975250D01*
X157875000Y-121975250D01*
X157875000Y-122621000D01*
X158474750Y-122621000D01*
X158633000Y-122462750D01*
X158633000Y-122324089D01*
X158536632Y-122091435D01*
X158358566Y-121913369D01*
X158125912Y-121817000D01*
X158033250Y-121817000D01*
X157875000Y-121975250D01*
X157625000Y-121975250D01*
X157466750Y-121817000D01*
X157374088Y-121817000D01*
X157141434Y-121913369D01*
X156963368Y-122091435D01*
X156867000Y-122324089D01*
X156769839Y-122324089D01*
X156674750Y-122229000D01*
X155929000Y-122229000D01*
X155929000Y-122249000D01*
X155671000Y-122249000D01*
X155671000Y-122229000D01*
X155651000Y-122229000D01*
X155651000Y-121971000D01*
X155671000Y-121971000D01*
X155671000Y-121225250D01*
X155929000Y-121225250D01*
X155929000Y-121971000D01*
X156674750Y-121971000D01*
X156833000Y-121812750D01*
X156833000Y-121574089D01*
X156736632Y-121341435D01*
X156558566Y-121163369D01*
X156325912Y-121067000D01*
X156087250Y-121067000D01*
X155929000Y-121225250D01*
X155671000Y-121225250D01*
X155512750Y-121067000D01*
X155500000Y-121067000D01*
X155500000Y-118933000D01*
X155512750Y-118933000D01*
X155671000Y-118774750D01*
X155671000Y-118029000D01*
X155929000Y-118029000D01*
X155929000Y-118774750D01*
X156087250Y-118933000D01*
X156325912Y-118933000D01*
X156558566Y-118836631D01*
X156736632Y-118658565D01*
X156833000Y-118425911D01*
X156833000Y-118187250D01*
X156674750Y-118029000D01*
X155929000Y-118029000D01*
X155671000Y-118029000D01*
X155651000Y-118029000D01*
X155651000Y-117771000D01*
X155671000Y-117771000D01*
X155671000Y-117025250D01*
X155929000Y-117025250D01*
X155929000Y-117771000D01*
X156674750Y-117771000D01*
X156833000Y-117612750D01*
X156833000Y-117374089D01*
X156736632Y-117141435D01*
X156558566Y-116963369D01*
X156325912Y-116867000D01*
X156087250Y-116867000D01*
X155929000Y-117025250D01*
X155671000Y-117025250D01*
X155512750Y-116867000D01*
X155500000Y-116867000D01*
X155500000Y-115500000D01*
X155461940Y-115308658D01*
X155389321Y-115199977D01*
X155353553Y-115146446D01*
X151675028Y-111467922D01*
X151675117Y-111366323D01*
X151572571Y-111118143D01*
X151382856Y-110928097D01*
X151275883Y-110883677D01*
X151574883Y-110883677D01*
X151677429Y-111131857D01*
X151757524Y-111212092D01*
X151778312Y-111316599D01*
X151788060Y-111365606D01*
X151896447Y-111527817D01*
X159744039Y-119375410D01*
X159618143Y-119427429D01*
X159428097Y-119617144D01*
X159325117Y-119865145D01*
X159324883Y-120133677D01*
X159427429Y-120381857D01*
X159617144Y-120571903D01*
X159865145Y-120674883D01*
X160133677Y-120675117D01*
X160381857Y-120572571D01*
X160571903Y-120382856D01*
X160624594Y-120255964D01*
X161686283Y-121317654D01*
X161300000Y-121317654D01*
X161161034Y-121343802D01*
X161033401Y-121425931D01*
X160947777Y-121551246D01*
X160917654Y-121700000D01*
X160917654Y-122500000D01*
X160943802Y-122638966D01*
X161025931Y-122766599D01*
X161151246Y-122852223D01*
X161200000Y-122862096D01*
X161200000Y-123400000D01*
X161230544Y-123553554D01*
X161238060Y-123591342D01*
X161346447Y-123753553D01*
X161467654Y-123874760D01*
X161467654Y-124050000D01*
X161493802Y-124188966D01*
X161575931Y-124316599D01*
X161701246Y-124402223D01*
X161850000Y-124432346D01*
X162250000Y-124432346D01*
X162388966Y-124406198D01*
X162501285Y-124333923D01*
X162601246Y-124402223D01*
X162750000Y-124432346D01*
X163150000Y-124432346D01*
X163288966Y-124406198D01*
X163416599Y-124324069D01*
X163467208Y-124250000D01*
X164650902Y-124250000D01*
X164725931Y-124366599D01*
X164851246Y-124452223D01*
X165000000Y-124482346D01*
X165500000Y-124482346D01*
X165638966Y-124456198D01*
X165766599Y-124374069D01*
X165852223Y-124248754D01*
X165882346Y-124100000D01*
X165882346Y-123512851D01*
X166036632Y-123358565D01*
X166133000Y-123125911D01*
X166133000Y-122987250D01*
X165974750Y-122829000D01*
X165375000Y-122829000D01*
X165375000Y-122849000D01*
X165125000Y-122849000D01*
X165125000Y-122829000D01*
X164525250Y-122829000D01*
X164367000Y-122987250D01*
X164367000Y-123125911D01*
X164418399Y-123250000D01*
X163466924Y-123250000D01*
X163450000Y-123223699D01*
X163450000Y-123200000D01*
X163429002Y-123094435D01*
X163429002Y-122974752D01*
X163587250Y-123133000D01*
X163825912Y-123133000D01*
X164058566Y-123036631D01*
X164236632Y-122858565D01*
X164333000Y-122625911D01*
X164333000Y-122387250D01*
X164219839Y-122274089D01*
X164367000Y-122274089D01*
X164367000Y-122412750D01*
X164525250Y-122571000D01*
X165125000Y-122571000D01*
X165125000Y-121925250D01*
X165375000Y-121925250D01*
X165375000Y-122571000D01*
X165974750Y-122571000D01*
X166133000Y-122412750D01*
X166133000Y-122274089D01*
X166036632Y-122041435D01*
X165858566Y-121863369D01*
X165625912Y-121767000D01*
X165533250Y-121767000D01*
X165375000Y-121925250D01*
X165125000Y-121925250D01*
X164966750Y-121767000D01*
X164874088Y-121767000D01*
X164641434Y-121863369D01*
X164463368Y-122041435D01*
X164367000Y-122274089D01*
X164219839Y-122274089D01*
X164174750Y-122229000D01*
X163429000Y-122229000D01*
X163429000Y-122249000D01*
X163171000Y-122249000D01*
X163171000Y-122229000D01*
X163151000Y-122229000D01*
X163151000Y-121971000D01*
X163171000Y-121971000D01*
X163171000Y-121225250D01*
X163429000Y-121225250D01*
X163429000Y-121971000D01*
X164174750Y-121971000D01*
X164333000Y-121812750D01*
X164333000Y-121574089D01*
X164236632Y-121341435D01*
X164058566Y-121163369D01*
X163825912Y-121067000D01*
X163587250Y-121067000D01*
X163429000Y-121225250D01*
X163171000Y-121225250D01*
X163012750Y-121067000D01*
X162849843Y-121067000D01*
X159282843Y-117500000D01*
X160917654Y-117500000D01*
X160917654Y-118300000D01*
X160943802Y-118438966D01*
X161025931Y-118566599D01*
X161151246Y-118652223D01*
X161300000Y-118682346D01*
X162100000Y-118682346D01*
X162238966Y-118656198D01*
X162336414Y-118593492D01*
X162363368Y-118658565D01*
X162541434Y-118836631D01*
X162774088Y-118933000D01*
X163012750Y-118933000D01*
X163171000Y-118774750D01*
X163171000Y-118029000D01*
X163429000Y-118029000D01*
X163429000Y-118774750D01*
X163587250Y-118933000D01*
X163825912Y-118933000D01*
X164058566Y-118836631D01*
X164236632Y-118658565D01*
X164333000Y-118425911D01*
X164333000Y-118187250D01*
X164174750Y-118029000D01*
X163429000Y-118029000D01*
X163171000Y-118029000D01*
X163151000Y-118029000D01*
X163151000Y-117771000D01*
X163171000Y-117771000D01*
X163171000Y-117025250D01*
X163429000Y-117025250D01*
X163429000Y-117771000D01*
X164174750Y-117771000D01*
X164333000Y-117612750D01*
X164333000Y-117374089D01*
X164264308Y-117208250D01*
X166567000Y-117208250D01*
X166567000Y-117275911D01*
X166663368Y-117508565D01*
X166841434Y-117686631D01*
X167074088Y-117783000D01*
X167212750Y-117783000D01*
X167371000Y-117624750D01*
X167371000Y-117050000D01*
X167629000Y-117050000D01*
X167629000Y-117624750D01*
X167787250Y-117783000D01*
X167925912Y-117783000D01*
X168158566Y-117686631D01*
X168336632Y-117508565D01*
X168433000Y-117275911D01*
X168433000Y-117208250D01*
X168274750Y-117050000D01*
X167629000Y-117050000D01*
X167371000Y-117050000D01*
X166725250Y-117050000D01*
X166567000Y-117208250D01*
X164264308Y-117208250D01*
X164236632Y-117141435D01*
X164058566Y-116963369D01*
X163825912Y-116867000D01*
X163587250Y-116867000D01*
X163429000Y-117025250D01*
X163171000Y-117025250D01*
X163012750Y-116867000D01*
X162774088Y-116867000D01*
X162541434Y-116963369D01*
X162363368Y-117141435D01*
X162336038Y-117207416D01*
X162248754Y-117147777D01*
X162100000Y-117117654D01*
X161300000Y-117117654D01*
X161161034Y-117143802D01*
X161033401Y-117225931D01*
X160947777Y-117351246D01*
X160917654Y-117500000D01*
X159282843Y-117500000D01*
X152849423Y-111066581D01*
X152924883Y-110884855D01*
X152925117Y-110616323D01*
X152822571Y-110368143D01*
X152632856Y-110178097D01*
X152384855Y-110075117D01*
X152116323Y-110074883D01*
X151868143Y-110177429D01*
X151678097Y-110367144D01*
X151575117Y-110615145D01*
X151574883Y-110883677D01*
X151275883Y-110883677D01*
X151187081Y-110846803D01*
X152575035Y-109458848D01*
X152574883Y-109633677D01*
X152677429Y-109881857D01*
X152867144Y-110071903D01*
X153115145Y-110174883D01*
X153217866Y-110174973D01*
X156397146Y-113354253D01*
X156478569Y-113408658D01*
X156559358Y-113462640D01*
X156750700Y-113500700D01*
X166737920Y-113500700D01*
X166745022Y-113538446D01*
X166827151Y-113666079D01*
X166951650Y-113751145D01*
X166834621Y-113826451D01*
X166748997Y-113951766D01*
X166718874Y-114100520D01*
X166718874Y-114898080D01*
X166745022Y-115037046D01*
X166827151Y-115164679D01*
X166952466Y-115250303D01*
X167000000Y-115259929D01*
X167000000Y-115533076D01*
X166933401Y-115575931D01*
X166847777Y-115701246D01*
X166817654Y-115850000D01*
X166817654Y-116237149D01*
X166663368Y-116391435D01*
X166567000Y-116624089D01*
X166567000Y-116691750D01*
X166725250Y-116850000D01*
X167371000Y-116850000D01*
X167371000Y-116801000D01*
X167629000Y-116801000D01*
X167629000Y-116850000D01*
X168274750Y-116850000D01*
X168433000Y-116691750D01*
X168433000Y-116624089D01*
X168336632Y-116391435D01*
X168182346Y-116237149D01*
X168182346Y-115850000D01*
X168156198Y-115711034D01*
X168074069Y-115583401D01*
X168000000Y-115532792D01*
X168000000Y-115261380D01*
X168037746Y-115254278D01*
X168165379Y-115172149D01*
X168251003Y-115046834D01*
X168281126Y-114898080D01*
X168281126Y-114100520D01*
X168254978Y-113961554D01*
X168172849Y-113833921D01*
X168048350Y-113748855D01*
X168165379Y-113673549D01*
X168251003Y-113548234D01*
X168281126Y-113399480D01*
X168281126Y-112601920D01*
X168254978Y-112462954D01*
X168172849Y-112335321D01*
X168047534Y-112249697D01*
X167898780Y-112219574D01*
X167101220Y-112219574D01*
X166962254Y-112245722D01*
X166834621Y-112327851D01*
X166748997Y-112453166D01*
X166739371Y-112500700D01*
X156957807Y-112500700D01*
X155407657Y-110950550D01*
X166567000Y-110950550D01*
X166567000Y-111018211D01*
X166663368Y-111250865D01*
X166841434Y-111428931D01*
X167074088Y-111525300D01*
X167212750Y-111525300D01*
X167371000Y-111367050D01*
X167371000Y-110792300D01*
X167629000Y-110792300D01*
X167629000Y-111367050D01*
X167787250Y-111525300D01*
X167925912Y-111525300D01*
X168158566Y-111428931D01*
X168336632Y-111250865D01*
X168433000Y-111018211D01*
X168433000Y-110950550D01*
X168274750Y-110792300D01*
X167629000Y-110792300D01*
X167371000Y-110792300D01*
X166725250Y-110792300D01*
X166567000Y-110950550D01*
X155407657Y-110950550D01*
X154590784Y-110133677D01*
X161824883Y-110133677D01*
X161927429Y-110381857D01*
X162117144Y-110571903D01*
X162365145Y-110674883D01*
X162633677Y-110675117D01*
X162881857Y-110572571D01*
X163071903Y-110382856D01*
X163174883Y-110134855D01*
X163175117Y-109866323D01*
X163072571Y-109618143D01*
X162882856Y-109428097D01*
X162634855Y-109325117D01*
X162366323Y-109324883D01*
X162118143Y-109427429D01*
X161928097Y-109617144D01*
X161825117Y-109865145D01*
X161824883Y-110133677D01*
X154590784Y-110133677D01*
X153925028Y-109467922D01*
X153925117Y-109366323D01*
X153822571Y-109118143D01*
X153632856Y-108928097D01*
X153384855Y-108825117D01*
X153208920Y-108824964D01*
X155150206Y-106883677D01*
X156824883Y-106883677D01*
X156927429Y-107131857D01*
X157117144Y-107321903D01*
X157365145Y-107424883D01*
X157633677Y-107425117D01*
X157881857Y-107322571D01*
X157961567Y-107243000D01*
X166737920Y-107243000D01*
X166745022Y-107280746D01*
X166827151Y-107408379D01*
X166951650Y-107493445D01*
X166834621Y-107568751D01*
X166748997Y-107694066D01*
X166718874Y-107842820D01*
X166718874Y-108640380D01*
X166745022Y-108779346D01*
X166827151Y-108906979D01*
X166952466Y-108992603D01*
X167000000Y-109002229D01*
X167000000Y-109275376D01*
X166933401Y-109318231D01*
X166847777Y-109443546D01*
X166817654Y-109592300D01*
X166817654Y-109979449D01*
X166663368Y-110133735D01*
X166567000Y-110366389D01*
X166567000Y-110434050D01*
X166725250Y-110592300D01*
X167371000Y-110592300D01*
X167371000Y-110543300D01*
X167629000Y-110543300D01*
X167629000Y-110592300D01*
X168274750Y-110592300D01*
X168433000Y-110434050D01*
X168433000Y-110366389D01*
X168336632Y-110133735D01*
X168182346Y-109979449D01*
X168182346Y-109592300D01*
X168156198Y-109453334D01*
X168074069Y-109325701D01*
X168000000Y-109275092D01*
X168000000Y-109003680D01*
X168037746Y-108996578D01*
X168165379Y-108914449D01*
X168251003Y-108789134D01*
X168281126Y-108640380D01*
X168281126Y-107842820D01*
X168254978Y-107703854D01*
X168172849Y-107576221D01*
X168048350Y-107491155D01*
X168165379Y-107415849D01*
X168251003Y-107290534D01*
X168281126Y-107141780D01*
X168281126Y-106344220D01*
X168254978Y-106205254D01*
X168172849Y-106077621D01*
X168047534Y-105991997D01*
X167898780Y-105961874D01*
X167101220Y-105961874D01*
X166962254Y-105988022D01*
X166834621Y-106070151D01*
X166748997Y-106195466D01*
X166739371Y-106243000D01*
X157947646Y-106243000D01*
X157882856Y-106178097D01*
X157634855Y-106075117D01*
X157366323Y-106074883D01*
X157118143Y-106177429D01*
X156928097Y-106367144D01*
X156825117Y-106615145D01*
X156824883Y-106883677D01*
X155150206Y-106883677D01*
X156691939Y-105341944D01*
X156691942Y-105341942D01*
X156827259Y-105139426D01*
X156927429Y-105381857D01*
X157117144Y-105571903D01*
X157365145Y-105674883D01*
X157633677Y-105675117D01*
X157881857Y-105572571D01*
X158071903Y-105382856D01*
X158174883Y-105134855D01*
X158174884Y-105133677D01*
X161824883Y-105133677D01*
X161927429Y-105381857D01*
X162117144Y-105571903D01*
X162365145Y-105674883D01*
X162633677Y-105675117D01*
X162881857Y-105572571D01*
X163071903Y-105382856D01*
X163174883Y-105134855D01*
X163174884Y-105133677D01*
X166824883Y-105133677D01*
X166927429Y-105381857D01*
X167117144Y-105571903D01*
X167365145Y-105674883D01*
X167633677Y-105675117D01*
X167881857Y-105572571D01*
X168071903Y-105382856D01*
X168174883Y-105134855D01*
X168175117Y-104866323D01*
X168072571Y-104618143D01*
X167882856Y-104428097D01*
X167634855Y-104325117D01*
X167366323Y-104324883D01*
X167118143Y-104427429D01*
X166928097Y-104617144D01*
X166825117Y-104865145D01*
X166824883Y-105133677D01*
X163174884Y-105133677D01*
X163175117Y-104866323D01*
X163072571Y-104618143D01*
X162882856Y-104428097D01*
X162634855Y-104325117D01*
X162366323Y-104324883D01*
X162118143Y-104427429D01*
X161928097Y-104617144D01*
X161825117Y-104865145D01*
X161824883Y-105133677D01*
X158174884Y-105133677D01*
X158175117Y-104866323D01*
X158072571Y-104618143D01*
X157882856Y-104428097D01*
X157634855Y-104325117D01*
X157366323Y-104324883D01*
X157118143Y-104427429D01*
X156928097Y-104617144D01*
X156875000Y-104745015D01*
X156875000Y-100254969D01*
X156927429Y-100381857D01*
X157117144Y-100571903D01*
X157365145Y-100674883D01*
X157633677Y-100675117D01*
X157881857Y-100572571D01*
X158071903Y-100382856D01*
X158174883Y-100134855D01*
X158174884Y-100133677D01*
X161824883Y-100133677D01*
X161927429Y-100381857D01*
X162117144Y-100571903D01*
X162365145Y-100674883D01*
X162633677Y-100675117D01*
X162881857Y-100572571D01*
X163071903Y-100382856D01*
X163174883Y-100134855D01*
X163174884Y-100133677D01*
X166824883Y-100133677D01*
X166927429Y-100381857D01*
X167117144Y-100571903D01*
X167365145Y-100674883D01*
X167633677Y-100675117D01*
X167881857Y-100572571D01*
X168071903Y-100382856D01*
X168174883Y-100134855D01*
X168175117Y-99866323D01*
X168072571Y-99618143D01*
X167882856Y-99428097D01*
X167634855Y-99325117D01*
X167366323Y-99324883D01*
X167118143Y-99427429D01*
X166928097Y-99617144D01*
X166825117Y-99865145D01*
X166824883Y-100133677D01*
X163174884Y-100133677D01*
X163175117Y-99866323D01*
X163072571Y-99618143D01*
X162882856Y-99428097D01*
X162634855Y-99325117D01*
X162366323Y-99324883D01*
X162118143Y-99427429D01*
X161928097Y-99617144D01*
X161825117Y-99865145D01*
X161824883Y-100133677D01*
X158174884Y-100133677D01*
X158175117Y-99866323D01*
X158072571Y-99618143D01*
X157882856Y-99428097D01*
X157634855Y-99325117D01*
X157366323Y-99324883D01*
X157118143Y-99427429D01*
X156928097Y-99617144D01*
X156875000Y-99745015D01*
X156875000Y-95750000D01*
X156827425Y-95510823D01*
X156691942Y-95308058D01*
X156489177Y-95172575D01*
X156293623Y-95133677D01*
X161824883Y-95133677D01*
X161927429Y-95381857D01*
X162117144Y-95571903D01*
X162365145Y-95674883D01*
X162633677Y-95675117D01*
X162881857Y-95572571D01*
X163071903Y-95382856D01*
X163174883Y-95134855D01*
X163175117Y-94866323D01*
X163072571Y-94618143D01*
X162882856Y-94428097D01*
X162634855Y-94325117D01*
X162366323Y-94324883D01*
X162118143Y-94427429D01*
X161928097Y-94617144D01*
X161825117Y-94865145D01*
X161824883Y-95133677D01*
X156293623Y-95133677D01*
X156250000Y-95125000D01*
X155733826Y-95125000D01*
X155731198Y-95111034D01*
X155649069Y-94983401D01*
X155523754Y-94897777D01*
X155375000Y-94867654D01*
X155375000Y-92254985D01*
X155424883Y-92134855D01*
X155425117Y-91866323D01*
X155322571Y-91618143D01*
X155132856Y-91428097D01*
X154884855Y-91325117D01*
X154616323Y-91324883D01*
X154368143Y-91427429D01*
X154178097Y-91617144D01*
X154075117Y-91865145D01*
X154074883Y-92133677D01*
X154125000Y-92254969D01*
X154125000Y-94867654D01*
X153986034Y-94893802D01*
X153858401Y-94975931D01*
X153772777Y-95101246D01*
X153742654Y-95250000D01*
X153742654Y-95700000D01*
X153066924Y-95700000D01*
X153024069Y-95633401D01*
X152898754Y-95547777D01*
X152750000Y-95517654D01*
X152250000Y-95517654D01*
X152111034Y-95543802D01*
X151983401Y-95625931D01*
X151932792Y-95700000D01*
X151800000Y-95700000D01*
X151632081Y-95733401D01*
X151608658Y-95738060D01*
X151446447Y-95846447D01*
X151292894Y-96000000D01*
X150486276Y-96000000D01*
X150450000Y-95992654D01*
X149450000Y-95992654D01*
X149311034Y-96018802D01*
X149183401Y-96100931D01*
X149097777Y-96226246D01*
X149070917Y-96358886D01*
X148913369Y-96516434D01*
X148817000Y-96749088D01*
X148817000Y-96779250D01*
X148975250Y-96937500D01*
X149243109Y-96937500D01*
X149301246Y-96977223D01*
X149412392Y-96999730D01*
X149410959Y-97000000D01*
X147829624Y-97000000D01*
X147757846Y-96928097D01*
X147509845Y-96825117D01*
X147241313Y-96824883D01*
X146993133Y-96927429D01*
X146803087Y-97117144D01*
X146700107Y-97365145D01*
X146699873Y-97633677D01*
X146802419Y-97881857D01*
X146992134Y-98071903D01*
X147240135Y-98174883D01*
X147508667Y-98175117D01*
X147756847Y-98072571D01*
X147829545Y-98000000D01*
X149067654Y-98000000D01*
X149067654Y-98125000D01*
X149092038Y-98254589D01*
X149067654Y-98375000D01*
X149067654Y-98625000D01*
X149092038Y-98754589D01*
X149067654Y-98875000D01*
X149067654Y-99125000D01*
X149092038Y-99254589D01*
X149067654Y-99375000D01*
X149067654Y-99625000D01*
X149092038Y-99754589D01*
X149067654Y-99875000D01*
X149067654Y-100125000D01*
X149092038Y-100254589D01*
X149067654Y-100375000D01*
X149067654Y-100625000D01*
X149092038Y-100754589D01*
X149067654Y-100875000D01*
X149067654Y-101125000D01*
X149092038Y-101254589D01*
X149067654Y-101375000D01*
X149067654Y-101625000D01*
X149092038Y-101754589D01*
X149067654Y-101875000D01*
X149067654Y-102125000D01*
X149092038Y-102254589D01*
X149067654Y-102375000D01*
X149067654Y-102625000D01*
X149092038Y-102754589D01*
X149067654Y-102875000D01*
X149067654Y-103125000D01*
X149092038Y-103254589D01*
X149067654Y-103375000D01*
X149067654Y-103625000D01*
X149092038Y-103754589D01*
X149080430Y-103811909D01*
X148589955Y-103321434D01*
X148427744Y-103213047D01*
X148236402Y-103174987D01*
X147263598Y-103174987D01*
X147072256Y-103213047D01*
X147037854Y-103236034D01*
X146910045Y-103321433D01*
X146146447Y-104085032D01*
X146038060Y-104247243D01*
X146000000Y-104438585D01*
X146000000Y-105067654D01*
X145875000Y-105067654D01*
X145745411Y-105092038D01*
X145625000Y-105067654D01*
X145375000Y-105067654D01*
X145245411Y-105092038D01*
X145125000Y-105067654D01*
X144875000Y-105067654D01*
X144745411Y-105092038D01*
X144625000Y-105067654D01*
X144375000Y-105067654D01*
X144245411Y-105092038D01*
X144125000Y-105067654D01*
X143875000Y-105067654D01*
X143745411Y-105092038D01*
X143625000Y-105067654D01*
X143375000Y-105067654D01*
X143245411Y-105092038D01*
X143125000Y-105067654D01*
X142875000Y-105067654D01*
X142745411Y-105092038D01*
X142625000Y-105067654D01*
X142375000Y-105067654D01*
X142245411Y-105092038D01*
X142125000Y-105067654D01*
X141875000Y-105067654D01*
X141745411Y-105092038D01*
X141641114Y-105070917D01*
X141483566Y-104913369D01*
X141250912Y-104817000D01*
X141220750Y-104817000D01*
X141062500Y-104975250D01*
X141062500Y-105243109D01*
X141022777Y-105301246D01*
X141000270Y-105412392D01*
X140981198Y-105311034D01*
X140937500Y-105243125D01*
X140937500Y-104975250D01*
X140934563Y-104972313D01*
X140961940Y-104931340D01*
X140968422Y-104898754D01*
X141000000Y-104739998D01*
X141000000Y-95089041D01*
X141018802Y-95188966D01*
X141062500Y-95256875D01*
X141062500Y-95524750D01*
X141220750Y-95683000D01*
X141250912Y-95683000D01*
X141483566Y-95586631D01*
X141640829Y-95429368D01*
X141754589Y-95407962D01*
X141875000Y-95432346D01*
X142125000Y-95432346D01*
X142254589Y-95407962D01*
X142375000Y-95432346D01*
X142625000Y-95432346D01*
X142754589Y-95407962D01*
X142875000Y-95432346D01*
X143125000Y-95432346D01*
X143254589Y-95407962D01*
X143375000Y-95432346D01*
X143625000Y-95432346D01*
X143754589Y-95407962D01*
X143875000Y-95432346D01*
X144125000Y-95432346D01*
X144254589Y-95407962D01*
X144375000Y-95432346D01*
X144625000Y-95432346D01*
X144754589Y-95407962D01*
X144875000Y-95432346D01*
X145125000Y-95432346D01*
X145254589Y-95407962D01*
X145375000Y-95432346D01*
X145625000Y-95432346D01*
X145754589Y-95407962D01*
X145875000Y-95432346D01*
X146026325Y-95432346D01*
X146038060Y-95491342D01*
X146146447Y-95653553D01*
X146596447Y-96103553D01*
X146758658Y-96211940D01*
X146950000Y-96250000D01*
X148010002Y-96250000D01*
X148201344Y-96211940D01*
X148363555Y-96103553D01*
X149478555Y-94988554D01*
X149543527Y-94891315D01*
X149586941Y-94826343D01*
X149625001Y-94635001D01*
X149625001Y-91075001D01*
X149586941Y-90883659D01*
X149583828Y-90879000D01*
X149478554Y-90721447D01*
X147632106Y-88875000D01*
X150000000Y-88875000D01*
X150048632Y-88865152D01*
X150089601Y-88837159D01*
X150116451Y-88795432D01*
X150125000Y-88750000D01*
X150125000Y-83875000D01*
X160000000Y-83875000D01*
X160048632Y-83865152D01*
X160089601Y-83837159D01*
X160116451Y-83795432D01*
X160125000Y-83750000D01*
X160125000Y-65425000D01*
X169575000Y-65425000D01*
X169575000Y-82075000D01*
G36*
X125875000Y-88250000D02*
X125922575Y-88489177D01*
X126058058Y-88691942D01*
X128375000Y-91008884D01*
X128375000Y-99375000D01*
X123898346Y-99375000D01*
X123898346Y-99016400D01*
X123872198Y-98877434D01*
X123790069Y-98749801D01*
X123664754Y-98664177D01*
X123516000Y-98634054D01*
X121484000Y-98634054D01*
X121345034Y-98660202D01*
X121217401Y-98742331D01*
X121131777Y-98867646D01*
X121101654Y-99016400D01*
X121101654Y-100743600D01*
X121127802Y-100882566D01*
X121209931Y-101010199D01*
X121335246Y-101095823D01*
X121484000Y-101125946D01*
X123516000Y-101125946D01*
X123654966Y-101099798D01*
X123782599Y-101017669D01*
X123868223Y-100892354D01*
X123898346Y-100743600D01*
X123898346Y-100375000D01*
X128616116Y-100375000D01*
X128967005Y-100725889D01*
X126146447Y-103546447D01*
X126038060Y-103708658D01*
X126007927Y-103860149D01*
X125983401Y-103875931D01*
X125897777Y-104001246D01*
X125867654Y-104150000D01*
X125867654Y-104425239D01*
X125146447Y-105146447D01*
X125038060Y-105308658D01*
X125000000Y-105500000D01*
X125000000Y-106800000D01*
X125029837Y-106950001D01*
X125038060Y-106991342D01*
X125146447Y-107153553D01*
X126817654Y-108824761D01*
X126817654Y-108900000D01*
X126843802Y-109038966D01*
X126925931Y-109166599D01*
X127047993Y-109250000D01*
X125109507Y-109250000D01*
X123825549Y-107966043D01*
X123918251Y-107500000D01*
X123823968Y-107026008D01*
X123555473Y-106624178D01*
X123153643Y-106355683D01*
X122679651Y-106261400D01*
X122320349Y-106261400D01*
X121846357Y-106355683D01*
X121444527Y-106624178D01*
X121176032Y-107026008D01*
X121081749Y-107500000D01*
X121176032Y-107973992D01*
X121444527Y-108375822D01*
X121846357Y-108644317D01*
X121873166Y-108649650D01*
X121585055Y-108750854D01*
X121149765Y-109140798D01*
X120896835Y-109667637D01*
X120895107Y-109679340D01*
X121015481Y-109911000D01*
X122371000Y-109911000D01*
X122371000Y-109891000D01*
X122629000Y-109891000D01*
X122629000Y-109911000D01*
X123984519Y-109911000D01*
X124104893Y-109679340D01*
X124103165Y-109667637D01*
X124094148Y-109648855D01*
X124548847Y-110103554D01*
X124646086Y-110168526D01*
X124711058Y-110211940D01*
X124902400Y-110250000D01*
X129035002Y-110250000D01*
X129226344Y-110211940D01*
X129388555Y-110103553D01*
X130103553Y-109388555D01*
X130211940Y-109226344D01*
X130250000Y-109035002D01*
X130250000Y-108000000D01*
X130211940Y-107808658D01*
X130150791Y-107717143D01*
X130103554Y-107646447D01*
X129903553Y-107446447D01*
X129741342Y-107338060D01*
X129717919Y-107333401D01*
X129550000Y-107300000D01*
X129525185Y-107300000D01*
X129448754Y-107247777D01*
X129300000Y-107217654D01*
X129250000Y-107217654D01*
X129250000Y-107074750D01*
X129300000Y-107024750D01*
X129300000Y-106702007D01*
X129302223Y-106698754D01*
X129332346Y-106550000D01*
X129332346Y-106229000D01*
X129500000Y-106229000D01*
X129500000Y-107024750D01*
X129658250Y-107183000D01*
X129725911Y-107183000D01*
X129958565Y-107086632D01*
X130136631Y-106908566D01*
X130233000Y-106675912D01*
X130233000Y-106387250D01*
X130074750Y-106229000D01*
X129500000Y-106229000D01*
X129332346Y-106229000D01*
X129332346Y-105951000D01*
X129500000Y-105951000D01*
X129500000Y-105971000D01*
X130074750Y-105971000D01*
X130233000Y-105812750D01*
X130233000Y-105690106D01*
X131000000Y-106457107D01*
X131000000Y-110292894D01*
X126346447Y-114946447D01*
X126238060Y-115108658D01*
X126200000Y-115300000D01*
X126200000Y-117136470D01*
X126161034Y-117143802D01*
X126033401Y-117225931D01*
X125947777Y-117351246D01*
X125917654Y-117500000D01*
X125917654Y-118300000D01*
X125943802Y-118438966D01*
X126025931Y-118566599D01*
X126151246Y-118652223D01*
X126300000Y-118682346D01*
X127100000Y-118682346D01*
X127238966Y-118656198D01*
X127336414Y-118593492D01*
X127363368Y-118658565D01*
X127541434Y-118836631D01*
X127774088Y-118933000D01*
X128012750Y-118933000D01*
X128171000Y-118774750D01*
X128171000Y-118029000D01*
X128429000Y-118029000D01*
X128429000Y-118774750D01*
X128587250Y-118933000D01*
X128825912Y-118933000D01*
X129058566Y-118836631D01*
X129236632Y-118658565D01*
X129333000Y-118425911D01*
X129333000Y-118187250D01*
X129174750Y-118029000D01*
X128429000Y-118029000D01*
X128171000Y-118029000D01*
X128151000Y-118029000D01*
X128151000Y-117771000D01*
X128171000Y-117771000D01*
X128171000Y-117025250D01*
X128429000Y-117025250D01*
X128429000Y-117771000D01*
X129174750Y-117771000D01*
X129324894Y-117620856D01*
X129324883Y-117633677D01*
X129427429Y-117881857D01*
X129617144Y-118071903D01*
X129865145Y-118174883D01*
X130133677Y-118175117D01*
X130381857Y-118072571D01*
X130571903Y-117882856D01*
X130674883Y-117634855D01*
X130674884Y-117633677D01*
X134324883Y-117633677D01*
X134427429Y-117881857D01*
X134617144Y-118071903D01*
X134865145Y-118174883D01*
X135133677Y-118175117D01*
X135381857Y-118072571D01*
X135571903Y-117882856D01*
X135674883Y-117634855D01*
X135675117Y-117366323D01*
X135572571Y-117118143D01*
X135382856Y-116928097D01*
X135134855Y-116825117D01*
X134866323Y-116824883D01*
X134618143Y-116927429D01*
X134428097Y-117117144D01*
X134325117Y-117365145D01*
X134324883Y-117633677D01*
X130674884Y-117633677D01*
X130675117Y-117366323D01*
X130572571Y-117118143D01*
X130382856Y-116928097D01*
X130134855Y-116825117D01*
X129866323Y-116824883D01*
X129618143Y-116927429D01*
X129428097Y-117117144D01*
X129327209Y-117360108D01*
X129236632Y-117141435D01*
X129058566Y-116963369D01*
X128825912Y-116867000D01*
X128587250Y-116867000D01*
X128429000Y-117025250D01*
X128171000Y-117025250D01*
X128012750Y-116867000D01*
X127774088Y-116867000D01*
X127541434Y-116963369D01*
X127363368Y-117141435D01*
X127336038Y-117207416D01*
X127248754Y-117147777D01*
X127200000Y-117137904D01*
X127200000Y-115507106D01*
X128669856Y-114037250D01*
X138717000Y-114037250D01*
X138717000Y-114175912D01*
X138813369Y-114408566D01*
X138991435Y-114586632D01*
X139224089Y-114683000D01*
X139291750Y-114683000D01*
X139450000Y-114524750D01*
X139450000Y-113879000D01*
X138875250Y-113879000D01*
X138717000Y-114037250D01*
X128669856Y-114037250D01*
X130169856Y-112537250D01*
X138717000Y-112537250D01*
X138717000Y-112675912D01*
X138813369Y-112908566D01*
X138904803Y-113000000D01*
X138813369Y-113091434D01*
X138717000Y-113324088D01*
X138717000Y-113462750D01*
X138875250Y-113621000D01*
X139450000Y-113621000D01*
X139450000Y-112379000D01*
X138875250Y-112379000D01*
X138717000Y-112537250D01*
X130169856Y-112537250D01*
X131669856Y-111037250D01*
X138717000Y-111037250D01*
X138717000Y-111175912D01*
X138813369Y-111408566D01*
X138904803Y-111500000D01*
X138813369Y-111591434D01*
X138717000Y-111824088D01*
X138717000Y-111962750D01*
X138875250Y-112121000D01*
X139450000Y-112121000D01*
X139450000Y-110879000D01*
X138875250Y-110879000D01*
X138717000Y-111037250D01*
X131669856Y-111037250D01*
X131853553Y-110853553D01*
X131961940Y-110691342D01*
X131969835Y-110651649D01*
X132000000Y-110500000D01*
X132000000Y-110454555D01*
X132117144Y-110571903D01*
X132365145Y-110674883D01*
X132633677Y-110675117D01*
X132881857Y-110572571D01*
X133071903Y-110382856D01*
X133174883Y-110134855D01*
X133175117Y-109866323D01*
X133072571Y-109618143D01*
X132882856Y-109428097D01*
X132634855Y-109325117D01*
X132366323Y-109324883D01*
X132118143Y-109427429D01*
X132000000Y-109545366D01*
X132000000Y-106250000D01*
X131961940Y-106058658D01*
X131917398Y-105991997D01*
X131853553Y-105896446D01*
X130728565Y-104771459D01*
X130566354Y-104663072D01*
X130555042Y-104660822D01*
X130375012Y-104625012D01*
X129865134Y-104625012D01*
X129866599Y-104624069D01*
X129952223Y-104498754D01*
X129982346Y-104350000D01*
X129982346Y-103450000D01*
X129956198Y-103311034D01*
X129900000Y-103223699D01*
X129900000Y-102443216D01*
X130028662Y-102390054D01*
X130212575Y-102206461D01*
X131948056Y-103941942D01*
X132150821Y-104077425D01*
X132375000Y-104122017D01*
X132375000Y-104500000D01*
X132383549Y-104545432D01*
X132410399Y-104587159D01*
X132451368Y-104615152D01*
X132500000Y-104625000D01*
X135750000Y-104625000D01*
X135750000Y-107250000D01*
X135779130Y-107396447D01*
X135788060Y-107441342D01*
X135896447Y-107603553D01*
X138546469Y-110253575D01*
X138708680Y-110361962D01*
X138717000Y-110363617D01*
X138717000Y-110462750D01*
X138875250Y-110621000D01*
X139450000Y-110621000D01*
X139450000Y-110601000D01*
X139650000Y-110601000D01*
X139650000Y-110621000D01*
X139699000Y-110621000D01*
X139699000Y-110879000D01*
X139650000Y-110879000D01*
X139650000Y-112121000D01*
X139699000Y-112121000D01*
X139699000Y-112379000D01*
X139650000Y-112379000D01*
X139650000Y-113621000D01*
X139699000Y-113621000D01*
X139699000Y-113879000D01*
X139650000Y-113879000D01*
X139650000Y-114524750D01*
X139713327Y-114588077D01*
X139618143Y-114627406D01*
X139475328Y-114769972D01*
X139384394Y-114788060D01*
X139319422Y-114831474D01*
X139222183Y-114896446D01*
X134896447Y-119222183D01*
X134788060Y-119384394D01*
X134750000Y-119575736D01*
X134750000Y-121443410D01*
X134374178Y-121694527D01*
X134105683Y-122096357D01*
X134100350Y-122123166D01*
X133999146Y-121835055D01*
X133609202Y-121399765D01*
X133082363Y-121146835D01*
X133070660Y-121145107D01*
X132839000Y-121265481D01*
X132839000Y-122621000D01*
X132859000Y-122621000D01*
X132859000Y-122879000D01*
X132839000Y-122879000D01*
X132839000Y-124234519D01*
X133070660Y-124354893D01*
X133082363Y-124353165D01*
X133609202Y-124100235D01*
X133999146Y-123664945D01*
X134100350Y-123376834D01*
X134105683Y-123403643D01*
X134374178Y-123805473D01*
X134776008Y-124073968D01*
X135250000Y-124168251D01*
X135723992Y-124073968D01*
X136125822Y-123805473D01*
X136394317Y-123403643D01*
X136488600Y-122929651D01*
X136488600Y-122570349D01*
X136394317Y-122096357D01*
X136125822Y-121694527D01*
X135750000Y-121443410D01*
X135750000Y-119782842D01*
X137290000Y-118242842D01*
X137290000Y-121351654D01*
X136926400Y-121351654D01*
X136787434Y-121377802D01*
X136659801Y-121459931D01*
X136574177Y-121585246D01*
X136544054Y-121734000D01*
X136544054Y-123766000D01*
X136570202Y-123904966D01*
X136652331Y-124032599D01*
X136777646Y-124118223D01*
X136926400Y-124148346D01*
X138653600Y-124148346D01*
X138792566Y-124122198D01*
X138920199Y-124040069D01*
X139005823Y-123914754D01*
X139035946Y-123766000D01*
X139035946Y-121734000D01*
X139009798Y-121595034D01*
X138927669Y-121467401D01*
X138802354Y-121381777D01*
X138653600Y-121351654D01*
X138290000Y-121351654D01*
X138290000Y-118417096D01*
X140032079Y-116675018D01*
X140133677Y-116675107D01*
X140381857Y-116572561D01*
X140571903Y-116382846D01*
X140674883Y-116134845D01*
X140675117Y-115866313D01*
X140572571Y-115618133D01*
X140554588Y-115600118D01*
X140571903Y-115582833D01*
X140674883Y-115334832D01*
X140675117Y-115066300D01*
X140572571Y-114818120D01*
X140382856Y-114628074D01*
X140159761Y-114535436D01*
X140262851Y-114432346D01*
X140650000Y-114432346D01*
X140788966Y-114406198D01*
X140916599Y-114324069D01*
X140977779Y-114234529D01*
X141091342Y-114211940D01*
X141253553Y-114103553D01*
X141982108Y-113374999D01*
X142417654Y-113374999D01*
X142417654Y-113800000D01*
X142443802Y-113938966D01*
X142500000Y-114026301D01*
X142500000Y-115000000D01*
X142534242Y-115172149D01*
X142538060Y-115191342D01*
X142646447Y-115353553D01*
X143074972Y-115782078D01*
X143074883Y-115883677D01*
X143177429Y-116131857D01*
X143367144Y-116321903D01*
X143615145Y-116424883D01*
X143883677Y-116425117D01*
X144000000Y-116377053D01*
X144000000Y-117375000D01*
X143900136Y-117375000D01*
X143892649Y-117337360D01*
X143800520Y-117199480D01*
X143662640Y-117107351D01*
X143500000Y-117075000D01*
X140000000Y-117075000D01*
X139837360Y-117107351D01*
X139699480Y-117199480D01*
X139607351Y-117337360D01*
X139575000Y-117500000D01*
X139575000Y-124575000D01*
X120425000Y-124575000D01*
X120425000Y-122633677D01*
X124324883Y-122633677D01*
X124427429Y-122881857D01*
X124617144Y-123071903D01*
X124865145Y-123174883D01*
X125133677Y-123175117D01*
X125381857Y-123072571D01*
X125571903Y-122882856D01*
X125674883Y-122634855D01*
X125675117Y-122366323D01*
X125572571Y-122118143D01*
X125382856Y-121928097D01*
X125134855Y-121825117D01*
X124866323Y-121824883D01*
X124618143Y-121927429D01*
X124428097Y-122117144D01*
X124325117Y-122365145D01*
X124324883Y-122633677D01*
X120425000Y-122633677D01*
X120425000Y-121700000D01*
X125917654Y-121700000D01*
X125917654Y-122500000D01*
X125943802Y-122638966D01*
X126025931Y-122766599D01*
X126151246Y-122852223D01*
X126300000Y-122882346D01*
X127100000Y-122882346D01*
X127238966Y-122856198D01*
X127336414Y-122793492D01*
X127363368Y-122858565D01*
X127541434Y-123036631D01*
X127774088Y-123133000D01*
X128012750Y-123133000D01*
X128171000Y-122974750D01*
X128171000Y-122229000D01*
X128429000Y-122229000D01*
X128429000Y-122974750D01*
X128587250Y-123133000D01*
X128825912Y-123133000D01*
X128872831Y-123113565D01*
X131227171Y-123113565D01*
X131420854Y-123664945D01*
X131810798Y-124100235D01*
X132337637Y-124353165D01*
X132349340Y-124354893D01*
X132581000Y-124234519D01*
X132581000Y-122879000D01*
X131370644Y-122879000D01*
X131227171Y-123113565D01*
X128872831Y-123113565D01*
X129058566Y-123036631D01*
X129236632Y-122858565D01*
X129333000Y-122625911D01*
X129333000Y-122387250D01*
X129332185Y-122386435D01*
X131227171Y-122386435D01*
X131370644Y-122621000D01*
X132581000Y-122621000D01*
X132581000Y-121265481D01*
X132349340Y-121145107D01*
X132337637Y-121146835D01*
X131810798Y-121399765D01*
X131420854Y-121835055D01*
X131227171Y-122386435D01*
X129332185Y-122386435D01*
X129174750Y-122229000D01*
X128429000Y-122229000D01*
X128171000Y-122229000D01*
X128151000Y-122229000D01*
X128151000Y-121971000D01*
X128171000Y-121971000D01*
X128171000Y-121225250D01*
X128429000Y-121225250D01*
X128429000Y-121971000D01*
X129174750Y-121971000D01*
X129333000Y-121812750D01*
X129333000Y-121574089D01*
X129236632Y-121341435D01*
X129058566Y-121163369D01*
X128825912Y-121067000D01*
X128587250Y-121067000D01*
X128429000Y-121225250D01*
X128171000Y-121225250D01*
X128012750Y-121067000D01*
X127774088Y-121067000D01*
X127541434Y-121163369D01*
X127363368Y-121341435D01*
X127336038Y-121407416D01*
X127248754Y-121347777D01*
X127100000Y-121317654D01*
X126300000Y-121317654D01*
X126161034Y-121343802D01*
X126033401Y-121425931D01*
X125947777Y-121551246D01*
X125917654Y-121700000D01*
X120425000Y-121700000D01*
X120425000Y-117633677D01*
X124324883Y-117633677D01*
X124427429Y-117881857D01*
X124617144Y-118071903D01*
X124865145Y-118174883D01*
X125133677Y-118175117D01*
X125381857Y-118072571D01*
X125571903Y-117882856D01*
X125674883Y-117634855D01*
X125675117Y-117366323D01*
X125572571Y-117118143D01*
X125382856Y-116928097D01*
X125134855Y-116825117D01*
X124866323Y-116824883D01*
X124618143Y-116927429D01*
X124428097Y-117117144D01*
X124325117Y-117365145D01*
X124324883Y-117633677D01*
X120425000Y-117633677D01*
X120425000Y-110400660D01*
X120895107Y-110400660D01*
X120896835Y-110412363D01*
X121149765Y-110939202D01*
X121585055Y-111329146D01*
X122136435Y-111522829D01*
X122371000Y-111379356D01*
X122371000Y-110169000D01*
X122629000Y-110169000D01*
X122629000Y-111379356D01*
X122863565Y-111522829D01*
X123414945Y-111329146D01*
X123850235Y-110939202D01*
X124103165Y-110412363D01*
X124104893Y-110400660D01*
X123984519Y-110169000D01*
X122629000Y-110169000D01*
X122371000Y-110169000D01*
X121015481Y-110169000D01*
X120895107Y-110400660D01*
X120425000Y-110400660D01*
X120425000Y-104960000D01*
X121081749Y-104960000D01*
X121176032Y-105433992D01*
X121444527Y-105835822D01*
X121846357Y-106104317D01*
X122320349Y-106198600D01*
X122679651Y-106198600D01*
X123153643Y-106104317D01*
X123555473Y-105835822D01*
X123823968Y-105433992D01*
X123918251Y-104960000D01*
X123823968Y-104486008D01*
X123555473Y-104084178D01*
X123153643Y-103815683D01*
X122679651Y-103721400D01*
X122320349Y-103721400D01*
X121846357Y-103815683D01*
X121444527Y-104084178D01*
X121176032Y-104486008D01*
X121081749Y-104960000D01*
X120425000Y-104960000D01*
X120425000Y-102420000D01*
X121081749Y-102420000D01*
X121176032Y-102893992D01*
X121444527Y-103295822D01*
X121846357Y-103564317D01*
X122320349Y-103658600D01*
X122679651Y-103658600D01*
X123153643Y-103564317D01*
X123555473Y-103295822D01*
X123823968Y-102893992D01*
X123918251Y-102420000D01*
X123823968Y-101946008D01*
X123555473Y-101544178D01*
X123153643Y-101275683D01*
X122679651Y-101181400D01*
X122320349Y-101181400D01*
X121846357Y-101275683D01*
X121444527Y-101544178D01*
X121176032Y-101946008D01*
X121081749Y-102420000D01*
X120425000Y-102420000D01*
X120425000Y-97925000D01*
X122500000Y-97925000D01*
X122662640Y-97892649D01*
X122800520Y-97800520D01*
X122892649Y-97662640D01*
X122925000Y-97500000D01*
X122925000Y-83875000D01*
X125875000Y-83875000D01*
X125875000Y-88250000D01*
X125875000Y-88250000D01*
G37*
X125875000Y-88250000D02*
X125922575Y-88489177D01*
X126058058Y-88691942D01*
X128375000Y-91008884D01*
X128375000Y-99375000D01*
X123898346Y-99375000D01*
X123898346Y-99016400D01*
X123872198Y-98877434D01*
X123790069Y-98749801D01*
X123664754Y-98664177D01*
X123516000Y-98634054D01*
X121484000Y-98634054D01*
X121345034Y-98660202D01*
X121217401Y-98742331D01*
X121131777Y-98867646D01*
X121101654Y-99016400D01*
X121101654Y-100743600D01*
X121127802Y-100882566D01*
X121209931Y-101010199D01*
X121335246Y-101095823D01*
X121484000Y-101125946D01*
X123516000Y-101125946D01*
X123654966Y-101099798D01*
X123782599Y-101017669D01*
X123868223Y-100892354D01*
X123898346Y-100743600D01*
X123898346Y-100375000D01*
X128616116Y-100375000D01*
X128967005Y-100725889D01*
X126146447Y-103546447D01*
X126038060Y-103708658D01*
X126007927Y-103860149D01*
X125983401Y-103875931D01*
X125897777Y-104001246D01*
X125867654Y-104150000D01*
X125867654Y-104425239D01*
X125146447Y-105146447D01*
X125038060Y-105308658D01*
X125000000Y-105500000D01*
X125000000Y-106800000D01*
X125029837Y-106950001D01*
X125038060Y-106991342D01*
X125146447Y-107153553D01*
X126817654Y-108824761D01*
X126817654Y-108900000D01*
X126843802Y-109038966D01*
X126925931Y-109166599D01*
X127047993Y-109250000D01*
X125109507Y-109250000D01*
X123825549Y-107966043D01*
X123918251Y-107500000D01*
X123823968Y-107026008D01*
X123555473Y-106624178D01*
X123153643Y-106355683D01*
X122679651Y-106261400D01*
X122320349Y-106261400D01*
X121846357Y-106355683D01*
X121444527Y-106624178D01*
X121176032Y-107026008D01*
X121081749Y-107500000D01*
X121176032Y-107973992D01*
X121444527Y-108375822D01*
X121846357Y-108644317D01*
X121873166Y-108649650D01*
X121585055Y-108750854D01*
X121149765Y-109140798D01*
X120896835Y-109667637D01*
X120895107Y-109679340D01*
X121015481Y-109911000D01*
X122371000Y-109911000D01*
X122371000Y-109891000D01*
X122629000Y-109891000D01*
X122629000Y-109911000D01*
X123984519Y-109911000D01*
X124104893Y-109679340D01*
X124103165Y-109667637D01*
X124094148Y-109648855D01*
X124548847Y-110103554D01*
X124646086Y-110168526D01*
X124711058Y-110211940D01*
X124902400Y-110250000D01*
X129035002Y-110250000D01*
X129226344Y-110211940D01*
X129388555Y-110103553D01*
X130103553Y-109388555D01*
X130211940Y-109226344D01*
X130250000Y-109035002D01*
X130250000Y-108000000D01*
X130211940Y-107808658D01*
X130150791Y-107717143D01*
X130103554Y-107646447D01*
X129903553Y-107446447D01*
X129741342Y-107338060D01*
X129717919Y-107333401D01*
X129550000Y-107300000D01*
X129525185Y-107300000D01*
X129448754Y-107247777D01*
X129300000Y-107217654D01*
X129250000Y-107217654D01*
X129250000Y-107074750D01*
X129300000Y-107024750D01*
X129300000Y-106702007D01*
X129302223Y-106698754D01*
X129332346Y-106550000D01*
X129332346Y-106229000D01*
X129500000Y-106229000D01*
X129500000Y-107024750D01*
X129658250Y-107183000D01*
X129725911Y-107183000D01*
X129958565Y-107086632D01*
X130136631Y-106908566D01*
X130233000Y-106675912D01*
X130233000Y-106387250D01*
X130074750Y-106229000D01*
X129500000Y-106229000D01*
X129332346Y-106229000D01*
X129332346Y-105951000D01*
X129500000Y-105951000D01*
X129500000Y-105971000D01*
X130074750Y-105971000D01*
X130233000Y-105812750D01*
X130233000Y-105690106D01*
X131000000Y-106457107D01*
X131000000Y-110292894D01*
X126346447Y-114946447D01*
X126238060Y-115108658D01*
X126200000Y-115300000D01*
X126200000Y-117136470D01*
X126161034Y-117143802D01*
X126033401Y-117225931D01*
X125947777Y-117351246D01*
X125917654Y-117500000D01*
X125917654Y-118300000D01*
X125943802Y-118438966D01*
X126025931Y-118566599D01*
X126151246Y-118652223D01*
X126300000Y-118682346D01*
X127100000Y-118682346D01*
X127238966Y-118656198D01*
X127336414Y-118593492D01*
X127363368Y-118658565D01*
X127541434Y-118836631D01*
X127774088Y-118933000D01*
X128012750Y-118933000D01*
X128171000Y-118774750D01*
X128171000Y-118029000D01*
X128429000Y-118029000D01*
X128429000Y-118774750D01*
X128587250Y-118933000D01*
X128825912Y-118933000D01*
X129058566Y-118836631D01*
X129236632Y-118658565D01*
X129333000Y-118425911D01*
X129333000Y-118187250D01*
X129174750Y-118029000D01*
X128429000Y-118029000D01*
X128171000Y-118029000D01*
X128151000Y-118029000D01*
X128151000Y-117771000D01*
X128171000Y-117771000D01*
X128171000Y-117025250D01*
X128429000Y-117025250D01*
X128429000Y-117771000D01*
X129174750Y-117771000D01*
X129324894Y-117620856D01*
X129324883Y-117633677D01*
X129427429Y-117881857D01*
X129617144Y-118071903D01*
X129865145Y-118174883D01*
X130133677Y-118175117D01*
X130381857Y-118072571D01*
X130571903Y-117882856D01*
X130674883Y-117634855D01*
X130674884Y-117633677D01*
X134324883Y-117633677D01*
X134427429Y-117881857D01*
X134617144Y-118071903D01*
X134865145Y-118174883D01*
X135133677Y-118175117D01*
X135381857Y-118072571D01*
X135571903Y-117882856D01*
X135674883Y-117634855D01*
X135675117Y-117366323D01*
X135572571Y-117118143D01*
X135382856Y-116928097D01*
X135134855Y-116825117D01*
X134866323Y-116824883D01*
X134618143Y-116927429D01*
X134428097Y-117117144D01*
X134325117Y-117365145D01*
X134324883Y-117633677D01*
X130674884Y-117633677D01*
X130675117Y-117366323D01*
X130572571Y-117118143D01*
X130382856Y-116928097D01*
X130134855Y-116825117D01*
X129866323Y-116824883D01*
X129618143Y-116927429D01*
X129428097Y-117117144D01*
X129327209Y-117360108D01*
X129236632Y-117141435D01*
X129058566Y-116963369D01*
X128825912Y-116867000D01*
X128587250Y-116867000D01*
X128429000Y-117025250D01*
X128171000Y-117025250D01*
X128012750Y-116867000D01*
X127774088Y-116867000D01*
X127541434Y-116963369D01*
X127363368Y-117141435D01*
X127336038Y-117207416D01*
X127248754Y-117147777D01*
X127200000Y-117137904D01*
X127200000Y-115507106D01*
X128669856Y-114037250D01*
X138717000Y-114037250D01*
X138717000Y-114175912D01*
X138813369Y-114408566D01*
X138991435Y-114586632D01*
X139224089Y-114683000D01*
X139291750Y-114683000D01*
X139450000Y-114524750D01*
X139450000Y-113879000D01*
X138875250Y-113879000D01*
X138717000Y-114037250D01*
X128669856Y-114037250D01*
X130169856Y-112537250D01*
X138717000Y-112537250D01*
X138717000Y-112675912D01*
X138813369Y-112908566D01*
X138904803Y-113000000D01*
X138813369Y-113091434D01*
X138717000Y-113324088D01*
X138717000Y-113462750D01*
X138875250Y-113621000D01*
X139450000Y-113621000D01*
X139450000Y-112379000D01*
X138875250Y-112379000D01*
X138717000Y-112537250D01*
X130169856Y-112537250D01*
X131669856Y-111037250D01*
X138717000Y-111037250D01*
X138717000Y-111175912D01*
X138813369Y-111408566D01*
X138904803Y-111500000D01*
X138813369Y-111591434D01*
X138717000Y-111824088D01*
X138717000Y-111962750D01*
X138875250Y-112121000D01*
X139450000Y-112121000D01*
X139450000Y-110879000D01*
X138875250Y-110879000D01*
X138717000Y-111037250D01*
X131669856Y-111037250D01*
X131853553Y-110853553D01*
X131961940Y-110691342D01*
X131969835Y-110651649D01*
X132000000Y-110500000D01*
X132000000Y-110454555D01*
X132117144Y-110571903D01*
X132365145Y-110674883D01*
X132633677Y-110675117D01*
X132881857Y-110572571D01*
X133071903Y-110382856D01*
X133174883Y-110134855D01*
X133175117Y-109866323D01*
X133072571Y-109618143D01*
X132882856Y-109428097D01*
X132634855Y-109325117D01*
X132366323Y-109324883D01*
X132118143Y-109427429D01*
X132000000Y-109545366D01*
X132000000Y-106250000D01*
X131961940Y-106058658D01*
X131917398Y-105991997D01*
X131853553Y-105896446D01*
X130728565Y-104771459D01*
X130566354Y-104663072D01*
X130555042Y-104660822D01*
X130375012Y-104625012D01*
X129865134Y-104625012D01*
X129866599Y-104624069D01*
X129952223Y-104498754D01*
X129982346Y-104350000D01*
X129982346Y-103450000D01*
X129956198Y-103311034D01*
X129900000Y-103223699D01*
X129900000Y-102443216D01*
X130028662Y-102390054D01*
X130212575Y-102206461D01*
X131948056Y-103941942D01*
X132150821Y-104077425D01*
X132375000Y-104122017D01*
X132375000Y-104500000D01*
X132383549Y-104545432D01*
X132410399Y-104587159D01*
X132451368Y-104615152D01*
X132500000Y-104625000D01*
X135750000Y-104625000D01*
X135750000Y-107250000D01*
X135779130Y-107396447D01*
X135788060Y-107441342D01*
X135896447Y-107603553D01*
X138546469Y-110253575D01*
X138708680Y-110361962D01*
X138717000Y-110363617D01*
X138717000Y-110462750D01*
X138875250Y-110621000D01*
X139450000Y-110621000D01*
X139450000Y-110601000D01*
X139650000Y-110601000D01*
X139650000Y-110621000D01*
X139699000Y-110621000D01*
X139699000Y-110879000D01*
X139650000Y-110879000D01*
X139650000Y-112121000D01*
X139699000Y-112121000D01*
X139699000Y-112379000D01*
X139650000Y-112379000D01*
X139650000Y-113621000D01*
X139699000Y-113621000D01*
X139699000Y-113879000D01*
X139650000Y-113879000D01*
X139650000Y-114524750D01*
X139713327Y-114588077D01*
X139618143Y-114627406D01*
X139475328Y-114769972D01*
X139384394Y-114788060D01*
X139319422Y-114831474D01*
X139222183Y-114896446D01*
X134896447Y-119222183D01*
X134788060Y-119384394D01*
X134750000Y-119575736D01*
X134750000Y-121443410D01*
X134374178Y-121694527D01*
X134105683Y-122096357D01*
X134100350Y-122123166D01*
X133999146Y-121835055D01*
X133609202Y-121399765D01*
X133082363Y-121146835D01*
X133070660Y-121145107D01*
X132839000Y-121265481D01*
X132839000Y-122621000D01*
X132859000Y-122621000D01*
X132859000Y-122879000D01*
X132839000Y-122879000D01*
X132839000Y-124234519D01*
X133070660Y-124354893D01*
X133082363Y-124353165D01*
X133609202Y-124100235D01*
X133999146Y-123664945D01*
X134100350Y-123376834D01*
X134105683Y-123403643D01*
X134374178Y-123805473D01*
X134776008Y-124073968D01*
X135250000Y-124168251D01*
X135723992Y-124073968D01*
X136125822Y-123805473D01*
X136394317Y-123403643D01*
X136488600Y-122929651D01*
X136488600Y-122570349D01*
X136394317Y-122096357D01*
X136125822Y-121694527D01*
X135750000Y-121443410D01*
X135750000Y-119782842D01*
X137290000Y-118242842D01*
X137290000Y-121351654D01*
X136926400Y-121351654D01*
X136787434Y-121377802D01*
X136659801Y-121459931D01*
X136574177Y-121585246D01*
X136544054Y-121734000D01*
X136544054Y-123766000D01*
X136570202Y-123904966D01*
X136652331Y-124032599D01*
X136777646Y-124118223D01*
X136926400Y-124148346D01*
X138653600Y-124148346D01*
X138792566Y-124122198D01*
X138920199Y-124040069D01*
X139005823Y-123914754D01*
X139035946Y-123766000D01*
X139035946Y-121734000D01*
X139009798Y-121595034D01*
X138927669Y-121467401D01*
X138802354Y-121381777D01*
X138653600Y-121351654D01*
X138290000Y-121351654D01*
X138290000Y-118417096D01*
X140032079Y-116675018D01*
X140133677Y-116675107D01*
X140381857Y-116572561D01*
X140571903Y-116382846D01*
X140674883Y-116134845D01*
X140675117Y-115866313D01*
X140572571Y-115618133D01*
X140554588Y-115600118D01*
X140571903Y-115582833D01*
X140674883Y-115334832D01*
X140675117Y-115066300D01*
X140572571Y-114818120D01*
X140382856Y-114628074D01*
X140159761Y-114535436D01*
X140262851Y-114432346D01*
X140650000Y-114432346D01*
X140788966Y-114406198D01*
X140916599Y-114324069D01*
X140977779Y-114234529D01*
X141091342Y-114211940D01*
X141253553Y-114103553D01*
X141982108Y-113374999D01*
X142417654Y-113374999D01*
X142417654Y-113800000D01*
X142443802Y-113938966D01*
X142500000Y-114026301D01*
X142500000Y-115000000D01*
X142534242Y-115172149D01*
X142538060Y-115191342D01*
X142646447Y-115353553D01*
X143074972Y-115782078D01*
X143074883Y-115883677D01*
X143177429Y-116131857D01*
X143367144Y-116321903D01*
X143615145Y-116424883D01*
X143883677Y-116425117D01*
X144000000Y-116377053D01*
X144000000Y-117375000D01*
X143900136Y-117375000D01*
X143892649Y-117337360D01*
X143800520Y-117199480D01*
X143662640Y-117107351D01*
X143500000Y-117075000D01*
X140000000Y-117075000D01*
X139837360Y-117107351D01*
X139699480Y-117199480D01*
X139607351Y-117337360D01*
X139575000Y-117500000D01*
X139575000Y-124575000D01*
X120425000Y-124575000D01*
X120425000Y-122633677D01*
X124324883Y-122633677D01*
X124427429Y-122881857D01*
X124617144Y-123071903D01*
X124865145Y-123174883D01*
X125133677Y-123175117D01*
X125381857Y-123072571D01*
X125571903Y-122882856D01*
X125674883Y-122634855D01*
X125675117Y-122366323D01*
X125572571Y-122118143D01*
X125382856Y-121928097D01*
X125134855Y-121825117D01*
X124866323Y-121824883D01*
X124618143Y-121927429D01*
X124428097Y-122117144D01*
X124325117Y-122365145D01*
X124324883Y-122633677D01*
X120425000Y-122633677D01*
X120425000Y-121700000D01*
X125917654Y-121700000D01*
X125917654Y-122500000D01*
X125943802Y-122638966D01*
X126025931Y-122766599D01*
X126151246Y-122852223D01*
X126300000Y-122882346D01*
X127100000Y-122882346D01*
X127238966Y-122856198D01*
X127336414Y-122793492D01*
X127363368Y-122858565D01*
X127541434Y-123036631D01*
X127774088Y-123133000D01*
X128012750Y-123133000D01*
X128171000Y-122974750D01*
X128171000Y-122229000D01*
X128429000Y-122229000D01*
X128429000Y-122974750D01*
X128587250Y-123133000D01*
X128825912Y-123133000D01*
X128872831Y-123113565D01*
X131227171Y-123113565D01*
X131420854Y-123664945D01*
X131810798Y-124100235D01*
X132337637Y-124353165D01*
X132349340Y-124354893D01*
X132581000Y-124234519D01*
X132581000Y-122879000D01*
X131370644Y-122879000D01*
X131227171Y-123113565D01*
X128872831Y-123113565D01*
X129058566Y-123036631D01*
X129236632Y-122858565D01*
X129333000Y-122625911D01*
X129333000Y-122387250D01*
X129332185Y-122386435D01*
X131227171Y-122386435D01*
X131370644Y-122621000D01*
X132581000Y-122621000D01*
X132581000Y-121265481D01*
X132349340Y-121145107D01*
X132337637Y-121146835D01*
X131810798Y-121399765D01*
X131420854Y-121835055D01*
X131227171Y-122386435D01*
X129332185Y-122386435D01*
X129174750Y-122229000D01*
X128429000Y-122229000D01*
X128171000Y-122229000D01*
X128151000Y-122229000D01*
X128151000Y-121971000D01*
X128171000Y-121971000D01*
X128171000Y-121225250D01*
X128429000Y-121225250D01*
X128429000Y-121971000D01*
X129174750Y-121971000D01*
X129333000Y-121812750D01*
X129333000Y-121574089D01*
X129236632Y-121341435D01*
X129058566Y-121163369D01*
X128825912Y-121067000D01*
X128587250Y-121067000D01*
X128429000Y-121225250D01*
X128171000Y-121225250D01*
X128012750Y-121067000D01*
X127774088Y-121067000D01*
X127541434Y-121163369D01*
X127363368Y-121341435D01*
X127336038Y-121407416D01*
X127248754Y-121347777D01*
X127100000Y-121317654D01*
X126300000Y-121317654D01*
X126161034Y-121343802D01*
X126033401Y-121425931D01*
X125947777Y-121551246D01*
X125917654Y-121700000D01*
X120425000Y-121700000D01*
X120425000Y-117633677D01*
X124324883Y-117633677D01*
X124427429Y-117881857D01*
X124617144Y-118071903D01*
X124865145Y-118174883D01*
X125133677Y-118175117D01*
X125381857Y-118072571D01*
X125571903Y-117882856D01*
X125674883Y-117634855D01*
X125675117Y-117366323D01*
X125572571Y-117118143D01*
X125382856Y-116928097D01*
X125134855Y-116825117D01*
X124866323Y-116824883D01*
X124618143Y-116927429D01*
X124428097Y-117117144D01*
X124325117Y-117365145D01*
X124324883Y-117633677D01*
X120425000Y-117633677D01*
X120425000Y-110400660D01*
X120895107Y-110400660D01*
X120896835Y-110412363D01*
X121149765Y-110939202D01*
X121585055Y-111329146D01*
X122136435Y-111522829D01*
X122371000Y-111379356D01*
X122371000Y-110169000D01*
X122629000Y-110169000D01*
X122629000Y-111379356D01*
X122863565Y-111522829D01*
X123414945Y-111329146D01*
X123850235Y-110939202D01*
X124103165Y-110412363D01*
X124104893Y-110400660D01*
X123984519Y-110169000D01*
X122629000Y-110169000D01*
X122371000Y-110169000D01*
X121015481Y-110169000D01*
X120895107Y-110400660D01*
X120425000Y-110400660D01*
X120425000Y-104960000D01*
X121081749Y-104960000D01*
X121176032Y-105433992D01*
X121444527Y-105835822D01*
X121846357Y-106104317D01*
X122320349Y-106198600D01*
X122679651Y-106198600D01*
X123153643Y-106104317D01*
X123555473Y-105835822D01*
X123823968Y-105433992D01*
X123918251Y-104960000D01*
X123823968Y-104486008D01*
X123555473Y-104084178D01*
X123153643Y-103815683D01*
X122679651Y-103721400D01*
X122320349Y-103721400D01*
X121846357Y-103815683D01*
X121444527Y-104084178D01*
X121176032Y-104486008D01*
X121081749Y-104960000D01*
X120425000Y-104960000D01*
X120425000Y-102420000D01*
X121081749Y-102420000D01*
X121176032Y-102893992D01*
X121444527Y-103295822D01*
X121846357Y-103564317D01*
X122320349Y-103658600D01*
X122679651Y-103658600D01*
X123153643Y-103564317D01*
X123555473Y-103295822D01*
X123823968Y-102893992D01*
X123918251Y-102420000D01*
X123823968Y-101946008D01*
X123555473Y-101544178D01*
X123153643Y-101275683D01*
X122679651Y-101181400D01*
X122320349Y-101181400D01*
X121846357Y-101275683D01*
X121444527Y-101544178D01*
X121176032Y-101946008D01*
X121081749Y-102420000D01*
X120425000Y-102420000D01*
X120425000Y-97925000D01*
X122500000Y-97925000D01*
X122662640Y-97892649D01*
X122800520Y-97800520D01*
X122892649Y-97662640D01*
X122925000Y-97500000D01*
X122925000Y-83875000D01*
X125875000Y-83875000D01*
X125875000Y-88250000D01*
G36*
X140829000Y-107625000D02*
X140849000Y-107625000D01*
X140849000Y-107825001D01*
X140551000Y-107825001D01*
X140551000Y-107625000D01*
X140571000Y-107625000D01*
X140571000Y-107601000D01*
X140829000Y-107601000D01*
X140829000Y-107625000D01*
X140829000Y-107625000D01*
G37*
X140829000Y-107625000D02*
X140849000Y-107625000D01*
X140849000Y-107825001D01*
X140551000Y-107825001D01*
X140551000Y-107625000D01*
X140571000Y-107625000D01*
X140571000Y-107601000D01*
X140829000Y-107601000D01*
X140829000Y-107625000D01*
G36*
X147329000Y-107625000D02*
X147349000Y-107625000D01*
X147349000Y-107825001D01*
X147051000Y-107825001D01*
X147051000Y-107625000D01*
X147071000Y-107625000D01*
X147071000Y-107601000D01*
X147329000Y-107601000D01*
X147329000Y-107625000D01*
X147329000Y-107625000D01*
G37*
X147329000Y-107625000D02*
X147349000Y-107625000D01*
X147349000Y-107825001D01*
X147051000Y-107825001D01*
X147051000Y-107625000D01*
X147071000Y-107625000D01*
X147071000Y-107601000D01*
X147329000Y-107601000D01*
X147329000Y-107625000D01*
G36*
X153766434Y-96713369D02*
X153588368Y-96891435D01*
X153492000Y-97124089D01*
X153492000Y-97462750D01*
X153650250Y-97621000D01*
X154621000Y-97621000D01*
X154621000Y-97601000D01*
X154879000Y-97601000D01*
X154879000Y-97621000D01*
X154899000Y-97621000D01*
X154899000Y-97879000D01*
X154879000Y-97879000D01*
X154879000Y-98724750D01*
X155037250Y-98883000D01*
X155500912Y-98883000D01*
X155625000Y-98831601D01*
X155625000Y-104641117D01*
X152483407Y-107782710D01*
X152388265Y-107552449D01*
X152198550Y-107362403D01*
X151950549Y-107259423D01*
X151847828Y-107259333D01*
X151750000Y-107161505D01*
X151750000Y-106707107D01*
X151824972Y-106782078D01*
X151824883Y-106883677D01*
X151927429Y-107131857D01*
X152117144Y-107321903D01*
X152365145Y-107424883D01*
X152633677Y-107425117D01*
X152881857Y-107322571D01*
X153071903Y-107132856D01*
X153174883Y-106884855D01*
X153175117Y-106616323D01*
X153072571Y-106368143D01*
X152882856Y-106178097D01*
X152634855Y-106075117D01*
X152532134Y-106075027D01*
X152200011Y-105742905D01*
X152200011Y-105606313D01*
X152365145Y-105674883D01*
X152633677Y-105675117D01*
X152881857Y-105572571D01*
X153071903Y-105382856D01*
X153174883Y-105134855D01*
X153175117Y-104866323D01*
X153072571Y-104618143D01*
X152882856Y-104428097D01*
X152634855Y-104325117D01*
X152366323Y-104324883D01*
X152200011Y-104393602D01*
X152200011Y-103267187D01*
X152161951Y-103075845D01*
X152111273Y-103000001D01*
X152053564Y-102913633D01*
X151286377Y-102146447D01*
X151124166Y-102038060D01*
X150932824Y-102000000D01*
X150832346Y-102000000D01*
X150832346Y-101875000D01*
X150807962Y-101745411D01*
X150832346Y-101625000D01*
X150832346Y-101375000D01*
X150807962Y-101245411D01*
X150832346Y-101125000D01*
X150832346Y-100875000D01*
X150807962Y-100745411D01*
X150832346Y-100625000D01*
X150832346Y-100375000D01*
X150812519Y-100269625D01*
X151074972Y-100532078D01*
X151074883Y-100633677D01*
X151177429Y-100881857D01*
X151367144Y-101071903D01*
X151615145Y-101174883D01*
X151883677Y-101175117D01*
X152131857Y-101072571D01*
X152321903Y-100882856D01*
X152408246Y-100674921D01*
X152633677Y-100675117D01*
X152881857Y-100572571D01*
X153071903Y-100382856D01*
X153174883Y-100134855D01*
X153175117Y-99866323D01*
X153072571Y-99618143D01*
X152882856Y-99428097D01*
X152634855Y-99325117D01*
X152532134Y-99325027D01*
X151853553Y-98646447D01*
X151691342Y-98538060D01*
X151500000Y-98500000D01*
X150832346Y-98500000D01*
X150832346Y-98375000D01*
X150807962Y-98245411D01*
X150832346Y-98125000D01*
X150832346Y-97875000D01*
X150807962Y-97745411D01*
X150829083Y-97641114D01*
X150882947Y-97587250D01*
X151617000Y-97587250D01*
X151617000Y-97725911D01*
X151713368Y-97958565D01*
X151891434Y-98136631D01*
X152124088Y-98233000D01*
X152216750Y-98233000D01*
X152375000Y-98074750D01*
X152375000Y-97429000D01*
X152625000Y-97429000D01*
X152625000Y-98074750D01*
X152783250Y-98233000D01*
X152875912Y-98233000D01*
X153108566Y-98136631D01*
X153207947Y-98037250D01*
X153492000Y-98037250D01*
X153492000Y-98375911D01*
X153588368Y-98608565D01*
X153766434Y-98786631D01*
X153999088Y-98883000D01*
X154462750Y-98883000D01*
X154621000Y-98724750D01*
X154621000Y-97879000D01*
X153650250Y-97879000D01*
X153492000Y-98037250D01*
X153207947Y-98037250D01*
X153286632Y-97958565D01*
X153383000Y-97725911D01*
X153383000Y-97587250D01*
X153224750Y-97429000D01*
X152625000Y-97429000D01*
X152375000Y-97429000D01*
X151775250Y-97429000D01*
X151617000Y-97587250D01*
X150882947Y-97587250D01*
X150986631Y-97483566D01*
X151083000Y-97250912D01*
X151083000Y-97220750D01*
X150924750Y-97062500D01*
X150656891Y-97062500D01*
X150598754Y-97022777D01*
X150487608Y-97000270D01*
X150489041Y-97000000D01*
X151500000Y-97000000D01*
X151617000Y-96976727D01*
X151617000Y-97012750D01*
X151775250Y-97171000D01*
X152375000Y-97171000D01*
X152375000Y-97151000D01*
X152625000Y-97151000D01*
X152625000Y-97171000D01*
X153224750Y-97171000D01*
X153383000Y-97012750D01*
X153383000Y-96874089D01*
X153310890Y-96700000D01*
X153798709Y-96700000D01*
X153766434Y-96713369D01*
X153766434Y-96713369D01*
G37*
X153766434Y-96713369D02*
X153588368Y-96891435D01*
X153492000Y-97124089D01*
X153492000Y-97462750D01*
X153650250Y-97621000D01*
X154621000Y-97621000D01*
X154621000Y-97601000D01*
X154879000Y-97601000D01*
X154879000Y-97621000D01*
X154899000Y-97621000D01*
X154899000Y-97879000D01*
X154879000Y-97879000D01*
X154879000Y-98724750D01*
X155037250Y-98883000D01*
X155500912Y-98883000D01*
X155625000Y-98831601D01*
X155625000Y-104641117D01*
X152483407Y-107782710D01*
X152388265Y-107552449D01*
X152198550Y-107362403D01*
X151950549Y-107259423D01*
X151847828Y-107259333D01*
X151750000Y-107161505D01*
X151750000Y-106707107D01*
X151824972Y-106782078D01*
X151824883Y-106883677D01*
X151927429Y-107131857D01*
X152117144Y-107321903D01*
X152365145Y-107424883D01*
X152633677Y-107425117D01*
X152881857Y-107322571D01*
X153071903Y-107132856D01*
X153174883Y-106884855D01*
X153175117Y-106616323D01*
X153072571Y-106368143D01*
X152882856Y-106178097D01*
X152634855Y-106075117D01*
X152532134Y-106075027D01*
X152200011Y-105742905D01*
X152200011Y-105606313D01*
X152365145Y-105674883D01*
X152633677Y-105675117D01*
X152881857Y-105572571D01*
X153071903Y-105382856D01*
X153174883Y-105134855D01*
X153175117Y-104866323D01*
X153072571Y-104618143D01*
X152882856Y-104428097D01*
X152634855Y-104325117D01*
X152366323Y-104324883D01*
X152200011Y-104393602D01*
X152200011Y-103267187D01*
X152161951Y-103075845D01*
X152111273Y-103000001D01*
X152053564Y-102913633D01*
X151286377Y-102146447D01*
X151124166Y-102038060D01*
X150932824Y-102000000D01*
X150832346Y-102000000D01*
X150832346Y-101875000D01*
X150807962Y-101745411D01*
X150832346Y-101625000D01*
X150832346Y-101375000D01*
X150807962Y-101245411D01*
X150832346Y-101125000D01*
X150832346Y-100875000D01*
X150807962Y-100745411D01*
X150832346Y-100625000D01*
X150832346Y-100375000D01*
X150812519Y-100269625D01*
X151074972Y-100532078D01*
X151074883Y-100633677D01*
X151177429Y-100881857D01*
X151367144Y-101071903D01*
X151615145Y-101174883D01*
X151883677Y-101175117D01*
X152131857Y-101072571D01*
X152321903Y-100882856D01*
X152408246Y-100674921D01*
X152633677Y-100675117D01*
X152881857Y-100572571D01*
X153071903Y-100382856D01*
X153174883Y-100134855D01*
X153175117Y-99866323D01*
X153072571Y-99618143D01*
X152882856Y-99428097D01*
X152634855Y-99325117D01*
X152532134Y-99325027D01*
X151853553Y-98646447D01*
X151691342Y-98538060D01*
X151500000Y-98500000D01*
X150832346Y-98500000D01*
X150832346Y-98375000D01*
X150807962Y-98245411D01*
X150832346Y-98125000D01*
X150832346Y-97875000D01*
X150807962Y-97745411D01*
X150829083Y-97641114D01*
X150882947Y-97587250D01*
X151617000Y-97587250D01*
X151617000Y-97725911D01*
X151713368Y-97958565D01*
X151891434Y-98136631D01*
X152124088Y-98233000D01*
X152216750Y-98233000D01*
X152375000Y-98074750D01*
X152375000Y-97429000D01*
X152625000Y-97429000D01*
X152625000Y-98074750D01*
X152783250Y-98233000D01*
X152875912Y-98233000D01*
X153108566Y-98136631D01*
X153207947Y-98037250D01*
X153492000Y-98037250D01*
X153492000Y-98375911D01*
X153588368Y-98608565D01*
X153766434Y-98786631D01*
X153999088Y-98883000D01*
X154462750Y-98883000D01*
X154621000Y-98724750D01*
X154621000Y-97879000D01*
X153650250Y-97879000D01*
X153492000Y-98037250D01*
X153207947Y-98037250D01*
X153286632Y-97958565D01*
X153383000Y-97725911D01*
X153383000Y-97587250D01*
X153224750Y-97429000D01*
X152625000Y-97429000D01*
X152375000Y-97429000D01*
X151775250Y-97429000D01*
X151617000Y-97587250D01*
X150882947Y-97587250D01*
X150986631Y-97483566D01*
X151083000Y-97250912D01*
X151083000Y-97220750D01*
X150924750Y-97062500D01*
X150656891Y-97062500D01*
X150598754Y-97022777D01*
X150487608Y-97000270D01*
X150489041Y-97000000D01*
X151500000Y-97000000D01*
X151617000Y-96976727D01*
X151617000Y-97012750D01*
X151775250Y-97171000D01*
X152375000Y-97171000D01*
X152375000Y-97151000D01*
X152625000Y-97151000D01*
X152625000Y-97171000D01*
X153224750Y-97171000D01*
X153383000Y-97012750D01*
X153383000Y-96874089D01*
X153310890Y-96700000D01*
X153798709Y-96700000D01*
X153766434Y-96713369D01*
G36*
X127625931Y-104616599D02*
X127751246Y-104702223D01*
X127900000Y-104732346D01*
X128079970Y-104732346D01*
X128021435Y-104771458D01*
X127746447Y-105046447D01*
X127638060Y-105208658D01*
X127600000Y-105400000D01*
X127600000Y-105424815D01*
X127547777Y-105501246D01*
X127517654Y-105650000D01*
X127517654Y-106550000D01*
X127543802Y-106688966D01*
X127600000Y-106776301D01*
X127600000Y-106992894D01*
X127375240Y-107217654D01*
X127200000Y-107217654D01*
X127061034Y-107243802D01*
X126933401Y-107325931D01*
X126852070Y-107444963D01*
X126000000Y-106592894D01*
X126000000Y-106431601D01*
X126124088Y-106483000D01*
X126216750Y-106483000D01*
X126375000Y-106324750D01*
X126375000Y-105679000D01*
X126625000Y-105679000D01*
X126625000Y-106324750D01*
X126783250Y-106483000D01*
X126875912Y-106483000D01*
X127108566Y-106386631D01*
X127286632Y-106208565D01*
X127383000Y-105975911D01*
X127383000Y-105837250D01*
X127224750Y-105679000D01*
X126625000Y-105679000D01*
X126375000Y-105679000D01*
X126351000Y-105679000D01*
X126351000Y-105421000D01*
X126375000Y-105421000D01*
X126375000Y-105401000D01*
X126625000Y-105401000D01*
X126625000Y-105421000D01*
X127224750Y-105421000D01*
X127383000Y-105262750D01*
X127383000Y-105124089D01*
X127286632Y-104891435D01*
X127260756Y-104865559D01*
X127353553Y-104803553D01*
X127592485Y-104564622D01*
X127625931Y-104616599D01*
X127625931Y-104616599D01*
G37*
X127625931Y-104616599D02*
X127751246Y-104702223D01*
X127900000Y-104732346D01*
X128079970Y-104732346D01*
X128021435Y-104771458D01*
X127746447Y-105046447D01*
X127638060Y-105208658D01*
X127600000Y-105400000D01*
X127600000Y-105424815D01*
X127547777Y-105501246D01*
X127517654Y-105650000D01*
X127517654Y-106550000D01*
X127543802Y-106688966D01*
X127600000Y-106776301D01*
X127600000Y-106992894D01*
X127375240Y-107217654D01*
X127200000Y-107217654D01*
X127061034Y-107243802D01*
X126933401Y-107325931D01*
X126852070Y-107444963D01*
X126000000Y-106592894D01*
X126000000Y-106431601D01*
X126124088Y-106483000D01*
X126216750Y-106483000D01*
X126375000Y-106324750D01*
X126375000Y-105679000D01*
X126625000Y-105679000D01*
X126625000Y-106324750D01*
X126783250Y-106483000D01*
X126875912Y-106483000D01*
X127108566Y-106386631D01*
X127286632Y-106208565D01*
X127383000Y-105975911D01*
X127383000Y-105837250D01*
X127224750Y-105679000D01*
X126625000Y-105679000D01*
X126375000Y-105679000D01*
X126351000Y-105679000D01*
X126351000Y-105421000D01*
X126375000Y-105421000D01*
X126375000Y-105401000D01*
X126625000Y-105401000D01*
X126625000Y-105421000D01*
X127224750Y-105421000D01*
X127383000Y-105262750D01*
X127383000Y-105124089D01*
X127286632Y-104891435D01*
X127260756Y-104865559D01*
X127353553Y-104803553D01*
X127592485Y-104564622D01*
X127625931Y-104616599D01*
G36*
X137375000Y-91750000D02*
X137422575Y-91989177D01*
X137558058Y-92191942D01*
X137627756Y-92261640D01*
X137677429Y-92381857D01*
X137867144Y-92571903D01*
X138115145Y-92674883D01*
X138383677Y-92675117D01*
X138631857Y-92572571D01*
X138821903Y-92382856D01*
X138924883Y-92134855D01*
X138925117Y-91866323D01*
X138822571Y-91618143D01*
X138632856Y-91428097D01*
X138625000Y-91424835D01*
X138625000Y-91375000D01*
X138867654Y-91375000D01*
X138893802Y-91513966D01*
X138975931Y-91641599D01*
X139101246Y-91727223D01*
X139250000Y-91757346D01*
X139700000Y-91757346D01*
X139700000Y-92183076D01*
X139633401Y-92225931D01*
X139547777Y-92351246D01*
X139517654Y-92500000D01*
X139517654Y-93000000D01*
X139543802Y-93138966D01*
X139625931Y-93266599D01*
X139751246Y-93352223D01*
X139900000Y-93382346D01*
X140000000Y-93382346D01*
X140000000Y-94013724D01*
X139992654Y-94050000D01*
X139992654Y-95050000D01*
X140000000Y-95089041D01*
X140000000Y-104532892D01*
X138896447Y-105636445D01*
X138788060Y-105798656D01*
X138750000Y-105989998D01*
X138750000Y-107292894D01*
X138250000Y-106792894D01*
X138250000Y-104625000D01*
X139500000Y-104625000D01*
X139545432Y-104616451D01*
X139587159Y-104589601D01*
X139615152Y-104548632D01*
X139625000Y-104500000D01*
X139625000Y-102390936D01*
X139683000Y-102250912D01*
X139683000Y-102220750D01*
X139625000Y-102162750D01*
X139625000Y-101837250D01*
X139683000Y-101779250D01*
X139683000Y-101749088D01*
X139625000Y-101609064D01*
X139625000Y-100500000D01*
X139616451Y-100454568D01*
X139589601Y-100412841D01*
X139548632Y-100384848D01*
X139500000Y-100375000D01*
X139432346Y-100375000D01*
X139407962Y-100245411D01*
X139432346Y-100125000D01*
X139432346Y-99875000D01*
X139407962Y-99745411D01*
X139432346Y-99625000D01*
X139432346Y-99375000D01*
X139407962Y-99245411D01*
X139432346Y-99125000D01*
X139432346Y-98875000D01*
X139407962Y-98745411D01*
X139432346Y-98625000D01*
X139432346Y-98375000D01*
X139407962Y-98245411D01*
X139432346Y-98125000D01*
X139432346Y-97875000D01*
X139407962Y-97745411D01*
X139432346Y-97625000D01*
X139432346Y-97375000D01*
X139407962Y-97245411D01*
X139432346Y-97125000D01*
X139432346Y-96875000D01*
X139407962Y-96745411D01*
X139432346Y-96625000D01*
X139432346Y-96375000D01*
X139406198Y-96236034D01*
X139324069Y-96108401D01*
X139198754Y-96022777D01*
X139050000Y-95992654D01*
X138050000Y-95992654D01*
X137911034Y-96018802D01*
X137783401Y-96100931D01*
X137697777Y-96226246D01*
X137667654Y-96375000D01*
X137667654Y-96625000D01*
X137692038Y-96754589D01*
X137667654Y-96875000D01*
X137667654Y-97000000D01*
X136745197Y-97000000D01*
X136886631Y-96858566D01*
X136983000Y-96625912D01*
X136983000Y-96533250D01*
X136824750Y-96375000D01*
X136179000Y-96375000D01*
X136179000Y-96399000D01*
X135921000Y-96399000D01*
X135921000Y-96375000D01*
X135901000Y-96375000D01*
X135901000Y-96125000D01*
X135921000Y-96125000D01*
X135921000Y-95525250D01*
X136179000Y-95525250D01*
X136179000Y-96125000D01*
X136824750Y-96125000D01*
X136983000Y-95966750D01*
X136983000Y-95874088D01*
X136886631Y-95641434D01*
X136708565Y-95463368D01*
X136475911Y-95367000D01*
X136337250Y-95367000D01*
X136179000Y-95525250D01*
X135921000Y-95525250D01*
X135762750Y-95367000D01*
X135624089Y-95367000D01*
X135391435Y-95463368D01*
X135237149Y-95617654D01*
X134650000Y-95617654D01*
X134511034Y-95643802D01*
X134383401Y-95725931D01*
X134366955Y-95750000D01*
X133750700Y-95750000D01*
X133559358Y-95788060D01*
X133541489Y-95800000D01*
X133427138Y-95876406D01*
X133424888Y-95875472D01*
X133076640Y-95875168D01*
X132754785Y-96008156D01*
X132508321Y-96254189D01*
X132374772Y-96575812D01*
X132374468Y-96924060D01*
X132507456Y-97245915D01*
X132753489Y-97492379D01*
X132771490Y-97499854D01*
X132754785Y-97506756D01*
X132508321Y-97752789D01*
X132374772Y-98074412D01*
X132374468Y-98422660D01*
X132507456Y-98744515D01*
X132753489Y-98990979D01*
X133075112Y-99124528D01*
X133423360Y-99124832D01*
X133426840Y-99123394D01*
X133464794Y-99148754D01*
X133559358Y-99211940D01*
X133750700Y-99250000D01*
X134254803Y-99250000D01*
X134113369Y-99391434D01*
X134017000Y-99624088D01*
X134017000Y-99716750D01*
X134175250Y-99875000D01*
X134821000Y-99875000D01*
X134821000Y-99851000D01*
X135079000Y-99851000D01*
X135079000Y-99875000D01*
X135099000Y-99875000D01*
X135099000Y-100075001D01*
X134571627Y-100075001D01*
X134516341Y-100038060D01*
X134324999Y-100000000D01*
X132204576Y-100000000D01*
X132132798Y-99928097D01*
X131884797Y-99825117D01*
X131616265Y-99824883D01*
X131368085Y-99927429D01*
X131178039Y-100117144D01*
X131075059Y-100365145D01*
X131074825Y-100633677D01*
X131177371Y-100881857D01*
X131367086Y-101071903D01*
X131615087Y-101174883D01*
X131883619Y-101175117D01*
X132131799Y-101072571D01*
X132204497Y-101000000D01*
X132375000Y-101000000D01*
X132375000Y-102601118D01*
X130369070Y-100595188D01*
X130346396Y-100481198D01*
X130327425Y-100385822D01*
X130191942Y-100183058D01*
X129625000Y-99616116D01*
X129625000Y-91375000D01*
X137375000Y-91375000D01*
X137375000Y-91750000D01*
X137375000Y-91750000D01*
G37*
X137375000Y-91750000D02*
X137422575Y-91989177D01*
X137558058Y-92191942D01*
X137627756Y-92261640D01*
X137677429Y-92381857D01*
X137867144Y-92571903D01*
X138115145Y-92674883D01*
X138383677Y-92675117D01*
X138631857Y-92572571D01*
X138821903Y-92382856D01*
X138924883Y-92134855D01*
X138925117Y-91866323D01*
X138822571Y-91618143D01*
X138632856Y-91428097D01*
X138625000Y-91424835D01*
X138625000Y-91375000D01*
X138867654Y-91375000D01*
X138893802Y-91513966D01*
X138975931Y-91641599D01*
X139101246Y-91727223D01*
X139250000Y-91757346D01*
X139700000Y-91757346D01*
X139700000Y-92183076D01*
X139633401Y-92225931D01*
X139547777Y-92351246D01*
X139517654Y-92500000D01*
X139517654Y-93000000D01*
X139543802Y-93138966D01*
X139625931Y-93266599D01*
X139751246Y-93352223D01*
X139900000Y-93382346D01*
X140000000Y-93382346D01*
X140000000Y-94013724D01*
X139992654Y-94050000D01*
X139992654Y-95050000D01*
X140000000Y-95089041D01*
X140000000Y-104532892D01*
X138896447Y-105636445D01*
X138788060Y-105798656D01*
X138750000Y-105989998D01*
X138750000Y-107292894D01*
X138250000Y-106792894D01*
X138250000Y-104625000D01*
X139500000Y-104625000D01*
X139545432Y-104616451D01*
X139587159Y-104589601D01*
X139615152Y-104548632D01*
X139625000Y-104500000D01*
X139625000Y-102390936D01*
X139683000Y-102250912D01*
X139683000Y-102220750D01*
X139625000Y-102162750D01*
X139625000Y-101837250D01*
X139683000Y-101779250D01*
X139683000Y-101749088D01*
X139625000Y-101609064D01*
X139625000Y-100500000D01*
X139616451Y-100454568D01*
X139589601Y-100412841D01*
X139548632Y-100384848D01*
X139500000Y-100375000D01*
X139432346Y-100375000D01*
X139407962Y-100245411D01*
X139432346Y-100125000D01*
X139432346Y-99875000D01*
X139407962Y-99745411D01*
X139432346Y-99625000D01*
X139432346Y-99375000D01*
X139407962Y-99245411D01*
X139432346Y-99125000D01*
X139432346Y-98875000D01*
X139407962Y-98745411D01*
X139432346Y-98625000D01*
X139432346Y-98375000D01*
X139407962Y-98245411D01*
X139432346Y-98125000D01*
X139432346Y-97875000D01*
X139407962Y-97745411D01*
X139432346Y-97625000D01*
X139432346Y-97375000D01*
X139407962Y-97245411D01*
X139432346Y-97125000D01*
X139432346Y-96875000D01*
X139407962Y-96745411D01*
X139432346Y-96625000D01*
X139432346Y-96375000D01*
X139406198Y-96236034D01*
X139324069Y-96108401D01*
X139198754Y-96022777D01*
X139050000Y-95992654D01*
X138050000Y-95992654D01*
X137911034Y-96018802D01*
X137783401Y-96100931D01*
X137697777Y-96226246D01*
X137667654Y-96375000D01*
X137667654Y-96625000D01*
X137692038Y-96754589D01*
X137667654Y-96875000D01*
X137667654Y-97000000D01*
X136745197Y-97000000D01*
X136886631Y-96858566D01*
X136983000Y-96625912D01*
X136983000Y-96533250D01*
X136824750Y-96375000D01*
X136179000Y-96375000D01*
X136179000Y-96399000D01*
X135921000Y-96399000D01*
X135921000Y-96375000D01*
X135901000Y-96375000D01*
X135901000Y-96125000D01*
X135921000Y-96125000D01*
X135921000Y-95525250D01*
X136179000Y-95525250D01*
X136179000Y-96125000D01*
X136824750Y-96125000D01*
X136983000Y-95966750D01*
X136983000Y-95874088D01*
X136886631Y-95641434D01*
X136708565Y-95463368D01*
X136475911Y-95367000D01*
X136337250Y-95367000D01*
X136179000Y-95525250D01*
X135921000Y-95525250D01*
X135762750Y-95367000D01*
X135624089Y-95367000D01*
X135391435Y-95463368D01*
X135237149Y-95617654D01*
X134650000Y-95617654D01*
X134511034Y-95643802D01*
X134383401Y-95725931D01*
X134366955Y-95750000D01*
X133750700Y-95750000D01*
X133559358Y-95788060D01*
X133541489Y-95800000D01*
X133427138Y-95876406D01*
X133424888Y-95875472D01*
X133076640Y-95875168D01*
X132754785Y-96008156D01*
X132508321Y-96254189D01*
X132374772Y-96575812D01*
X132374468Y-96924060D01*
X132507456Y-97245915D01*
X132753489Y-97492379D01*
X132771490Y-97499854D01*
X132754785Y-97506756D01*
X132508321Y-97752789D01*
X132374772Y-98074412D01*
X132374468Y-98422660D01*
X132507456Y-98744515D01*
X132753489Y-98990979D01*
X133075112Y-99124528D01*
X133423360Y-99124832D01*
X133426840Y-99123394D01*
X133464794Y-99148754D01*
X133559358Y-99211940D01*
X133750700Y-99250000D01*
X134254803Y-99250000D01*
X134113369Y-99391434D01*
X134017000Y-99624088D01*
X134017000Y-99716750D01*
X134175250Y-99875000D01*
X134821000Y-99875000D01*
X134821000Y-99851000D01*
X135079000Y-99851000D01*
X135079000Y-99875000D01*
X135099000Y-99875000D01*
X135099000Y-100075001D01*
X134571627Y-100075001D01*
X134516341Y-100038060D01*
X134324999Y-100000000D01*
X132204576Y-100000000D01*
X132132798Y-99928097D01*
X131884797Y-99825117D01*
X131616265Y-99824883D01*
X131368085Y-99927429D01*
X131178039Y-100117144D01*
X131075059Y-100365145D01*
X131074825Y-100633677D01*
X131177371Y-100881857D01*
X131367086Y-101071903D01*
X131615087Y-101174883D01*
X131883619Y-101175117D01*
X132131799Y-101072571D01*
X132204497Y-101000000D01*
X132375000Y-101000000D01*
X132375000Y-102601118D01*
X130369070Y-100595188D01*
X130346396Y-100481198D01*
X130327425Y-100385822D01*
X130191942Y-100183058D01*
X129625000Y-99616116D01*
X129625000Y-91375000D01*
X137375000Y-91375000D01*
X137375000Y-91750000D01*
G36*
X148750000Y-105532103D02*
X148750000Y-107148628D01*
X148748754Y-107147777D01*
X148600000Y-107117654D01*
X148500000Y-107117654D01*
X148500000Y-106486276D01*
X148507346Y-106450000D01*
X148507346Y-105450000D01*
X148481198Y-105311034D01*
X148399069Y-105183401D01*
X148273754Y-105097777D01*
X148141114Y-105070917D01*
X147983566Y-104913369D01*
X147750912Y-104817000D01*
X147720750Y-104817000D01*
X147562500Y-104975250D01*
X147562500Y-105243109D01*
X147522777Y-105301246D01*
X147500270Y-105412392D01*
X147500000Y-105410959D01*
X147500000Y-104782102D01*
X147657105Y-104624998D01*
X147842896Y-104624998D01*
X148750000Y-105532103D01*
X148750000Y-105532103D01*
G37*
X148750000Y-105532103D02*
X148750000Y-107148628D01*
X148748754Y-107147777D01*
X148600000Y-107117654D01*
X148500000Y-107117654D01*
X148500000Y-106486276D01*
X148507346Y-106450000D01*
X148507346Y-105450000D01*
X148481198Y-105311034D01*
X148399069Y-105183401D01*
X148273754Y-105097777D01*
X148141114Y-105070917D01*
X147983566Y-104913369D01*
X147750912Y-104817000D01*
X147720750Y-104817000D01*
X147562500Y-104975250D01*
X147562500Y-105243109D01*
X147522777Y-105301246D01*
X147500270Y-105412392D01*
X147500000Y-105410959D01*
X147500000Y-104782102D01*
X147657105Y-104624998D01*
X147842896Y-104624998D01*
X148750000Y-105532103D01*
G36*
X128900000Y-103224815D02*
X128847777Y-103301246D01*
X128817654Y-103450000D01*
X128817654Y-104350000D01*
X128843802Y-104488966D01*
X128925931Y-104616599D01*
X128938244Y-104625012D01*
X128565134Y-104625012D01*
X128566599Y-104624069D01*
X128652223Y-104498754D01*
X128682346Y-104350000D01*
X128682346Y-103450000D01*
X128656198Y-103311034D01*
X128574069Y-103183401D01*
X128448754Y-103097777D01*
X128300000Y-103067654D01*
X128039452Y-103067654D01*
X128900000Y-102207106D01*
X128900000Y-103224815D01*
X128900000Y-103224815D01*
G37*
X128900000Y-103224815D02*
X128847777Y-103301246D01*
X128817654Y-103450000D01*
X128817654Y-104350000D01*
X128843802Y-104488966D01*
X128925931Y-104616599D01*
X128938244Y-104625012D01*
X128565134Y-104625012D01*
X128566599Y-104624069D01*
X128652223Y-104498754D01*
X128682346Y-104350000D01*
X128682346Y-103450000D01*
X128656198Y-103311034D01*
X128574069Y-103183401D01*
X128448754Y-103097777D01*
X128300000Y-103067654D01*
X128039452Y-103067654D01*
X128900000Y-102207106D01*
X128900000Y-103224815D01*
G36*
X137667654Y-98625000D02*
X137692038Y-98754589D01*
X137667654Y-98875000D01*
X137667654Y-99000000D01*
X136949750Y-99000000D01*
X136824750Y-98875000D01*
X136179000Y-98875000D01*
X136179000Y-98899000D01*
X135921000Y-98899000D01*
X135921000Y-98875000D01*
X135901000Y-98875000D01*
X135901000Y-98625000D01*
X135921000Y-98625000D01*
X135921000Y-98601000D01*
X136179000Y-98601000D01*
X136179000Y-98625000D01*
X136824750Y-98625000D01*
X136949750Y-98500000D01*
X137667654Y-98500000D01*
X137667654Y-98625000D01*
X137667654Y-98625000D01*
G37*
X137667654Y-98625000D02*
X137692038Y-98754589D01*
X137667654Y-98875000D01*
X137667654Y-99000000D01*
X136949750Y-99000000D01*
X136824750Y-98875000D01*
X136179000Y-98875000D01*
X136179000Y-98899000D01*
X135921000Y-98899000D01*
X135921000Y-98875000D01*
X135901000Y-98875000D01*
X135901000Y-98625000D01*
X135921000Y-98625000D01*
X135921000Y-98601000D01*
X136179000Y-98601000D01*
X136179000Y-98625000D01*
X136824750Y-98625000D01*
X136949750Y-98500000D01*
X137667654Y-98500000D01*
X137667654Y-98625000D01*
G36*
X141429000Y-92625000D02*
X141449000Y-92625000D01*
X141449000Y-92875000D01*
X141429000Y-92875000D01*
X141429000Y-92899000D01*
X141171000Y-92899000D01*
X141171000Y-92875000D01*
X141151000Y-92875000D01*
X141151000Y-92625000D01*
X141171000Y-92625000D01*
X141171000Y-92601000D01*
X141429000Y-92601000D01*
X141429000Y-92625000D01*
X141429000Y-92625000D01*
G37*
X141429000Y-92625000D02*
X141449000Y-92625000D01*
X141449000Y-92875000D01*
X141429000Y-92875000D01*
X141429000Y-92899000D01*
X141171000Y-92899000D01*
X141171000Y-92875000D01*
X141151000Y-92875000D01*
X141151000Y-92625000D01*
X141171000Y-92625000D01*
X141171000Y-92601000D01*
X141429000Y-92601000D01*
X141429000Y-92625000D01*
G36*
X144175250Y-92375000D02*
X144821000Y-92375000D01*
X144821000Y-92351000D01*
X145079000Y-92351000D01*
X145079000Y-92375000D01*
X145099000Y-92375000D01*
X145099000Y-92575001D01*
X143779504Y-92575001D01*
X143679016Y-92474337D01*
X143741342Y-92461940D01*
X143903553Y-92353553D01*
X144028678Y-92228428D01*
X144175250Y-92375000D01*
X144175250Y-92375000D01*
G37*
X144175250Y-92375000D02*
X144821000Y-92375000D01*
X144821000Y-92351000D01*
X145079000Y-92351000D01*
X145079000Y-92375000D01*
X145099000Y-92375000D01*
X145099000Y-92575001D01*
X143779504Y-92575001D01*
X143679016Y-92474337D01*
X143741342Y-92461940D01*
X143903553Y-92353553D01*
X144028678Y-92228428D01*
X144175250Y-92375000D01*
G36*
X139875000Y-88750000D02*
X139884848Y-88798632D01*
X139912841Y-88839601D01*
X139954568Y-88866451D01*
X140000000Y-88875000D01*
X143999163Y-88875000D01*
X144025931Y-88916599D01*
X144048567Y-88932065D01*
X144063060Y-89004931D01*
X144171447Y-89167142D01*
X144751410Y-89747105D01*
X144591435Y-89813368D01*
X144437149Y-89967654D01*
X144300000Y-89967654D01*
X144161034Y-89993802D01*
X144033401Y-90075931D01*
X143947777Y-90201246D01*
X143917654Y-90350000D01*
X143917654Y-90925239D01*
X143342894Y-91500000D01*
X143185002Y-91500000D01*
X142993660Y-91538060D01*
X142938376Y-91575000D01*
X142831449Y-91646446D01*
X142816543Y-91661352D01*
X142883000Y-91500912D01*
X142883000Y-91037250D01*
X142724750Y-90879000D01*
X141879000Y-90879000D01*
X141879000Y-90899000D01*
X141621000Y-90899000D01*
X141621000Y-90879000D01*
X141601000Y-90879000D01*
X141601000Y-90621000D01*
X141621000Y-90621000D01*
X141621000Y-89650250D01*
X141879000Y-89650250D01*
X141879000Y-90621000D01*
X142724750Y-90621000D01*
X142883000Y-90462750D01*
X142883000Y-89999088D01*
X142786631Y-89766434D01*
X142608565Y-89588368D01*
X142375911Y-89492000D01*
X142037250Y-89492000D01*
X141879000Y-89650250D01*
X141621000Y-89650250D01*
X141462750Y-89492000D01*
X141124089Y-89492000D01*
X140891435Y-89588368D01*
X140713369Y-89766434D01*
X140617000Y-89999088D01*
X140617000Y-90043442D01*
X140606198Y-89986034D01*
X140524069Y-89858401D01*
X140398754Y-89772777D01*
X140250000Y-89742654D01*
X139250000Y-89742654D01*
X139111034Y-89768802D01*
X138983401Y-89850931D01*
X138897777Y-89976246D01*
X138867654Y-90125000D01*
X129258884Y-90125000D01*
X127125000Y-87991116D01*
X127125000Y-83875000D01*
X139875000Y-83875000D01*
X139875000Y-88750000D01*
X139875000Y-88750000D01*
G37*
X139875000Y-88750000D02*
X139884848Y-88798632D01*
X139912841Y-88839601D01*
X139954568Y-88866451D01*
X140000000Y-88875000D01*
X143999163Y-88875000D01*
X144025931Y-88916599D01*
X144048567Y-88932065D01*
X144063060Y-89004931D01*
X144171447Y-89167142D01*
X144751410Y-89747105D01*
X144591435Y-89813368D01*
X144437149Y-89967654D01*
X144300000Y-89967654D01*
X144161034Y-89993802D01*
X144033401Y-90075931D01*
X143947777Y-90201246D01*
X143917654Y-90350000D01*
X143917654Y-90925239D01*
X143342894Y-91500000D01*
X143185002Y-91500000D01*
X142993660Y-91538060D01*
X142938376Y-91575000D01*
X142831449Y-91646446D01*
X142816543Y-91661352D01*
X142883000Y-91500912D01*
X142883000Y-91037250D01*
X142724750Y-90879000D01*
X141879000Y-90879000D01*
X141879000Y-90899000D01*
X141621000Y-90899000D01*
X141621000Y-90879000D01*
X141601000Y-90879000D01*
X141601000Y-90621000D01*
X141621000Y-90621000D01*
X141621000Y-89650250D01*
X141879000Y-89650250D01*
X141879000Y-90621000D01*
X142724750Y-90621000D01*
X142883000Y-90462750D01*
X142883000Y-89999088D01*
X142786631Y-89766434D01*
X142608565Y-89588368D01*
X142375911Y-89492000D01*
X142037250Y-89492000D01*
X141879000Y-89650250D01*
X141621000Y-89650250D01*
X141462750Y-89492000D01*
X141124089Y-89492000D01*
X140891435Y-89588368D01*
X140713369Y-89766434D01*
X140617000Y-89999088D01*
X140617000Y-90043442D01*
X140606198Y-89986034D01*
X140524069Y-89858401D01*
X140398754Y-89772777D01*
X140250000Y-89742654D01*
X139250000Y-89742654D01*
X139111034Y-89768802D01*
X138983401Y-89850931D01*
X138897777Y-89976246D01*
X138867654Y-90125000D01*
X129258884Y-90125000D01*
X127125000Y-87991116D01*
X127125000Y-83875000D01*
X139875000Y-83875000D01*
X139875000Y-88750000D01*
G36*
X145217654Y-90949000D02*
X145132346Y-90949000D01*
X145132346Y-90651000D01*
X145217654Y-90651000D01*
X145217654Y-90949000D01*
X145217654Y-90949000D01*
G37*
X145217654Y-90949000D02*
X145132346Y-90949000D01*
X145132346Y-90651000D01*
X145217654Y-90651000D01*
X145217654Y-90949000D01*
G36*
X158625000Y-82375000D02*
X150125000Y-82375000D01*
X150125000Y-79508884D01*
X151141939Y-78491944D01*
X151141942Y-78491942D01*
X151277425Y-78289177D01*
X151277935Y-78286610D01*
X154466570Y-78286610D01*
X154466570Y-79875331D01*
X154562938Y-80107985D01*
X154741004Y-80286051D01*
X154973658Y-80382420D01*
X155712750Y-80382420D01*
X155871000Y-80224170D01*
X155871000Y-78128360D01*
X156129000Y-78128360D01*
X156129000Y-80224170D01*
X156287250Y-80382420D01*
X157026342Y-80382420D01*
X157258996Y-80286051D01*
X157437062Y-80107985D01*
X157533430Y-79875331D01*
X157533430Y-78286610D01*
X157375180Y-78128360D01*
X156129000Y-78128360D01*
X155871000Y-78128360D01*
X154624820Y-78128360D01*
X154466570Y-78286610D01*
X151277935Y-78286610D01*
X151325000Y-78050000D01*
X151325000Y-77587346D01*
X151800000Y-77587346D01*
X151938966Y-77561198D01*
X152066599Y-77479069D01*
X152152223Y-77353754D01*
X152182346Y-77205000D01*
X152182346Y-76605000D01*
X152156198Y-76466034D01*
X152074069Y-76338401D01*
X151972966Y-76269320D01*
X152066599Y-76209069D01*
X152125141Y-76123389D01*
X154466570Y-76123389D01*
X154466570Y-77712110D01*
X154624820Y-77870360D01*
X155871000Y-77870360D01*
X155871000Y-75774550D01*
X156129000Y-75774550D01*
X156129000Y-77870360D01*
X157375180Y-77870360D01*
X157533430Y-77712110D01*
X157533430Y-76123389D01*
X157437062Y-75890735D01*
X157258996Y-75712669D01*
X157026342Y-75616300D01*
X156287250Y-75616300D01*
X156129000Y-75774550D01*
X155871000Y-75774550D01*
X155712750Y-75616300D01*
X154973658Y-75616300D01*
X154741004Y-75712669D01*
X154562938Y-75890735D01*
X154466570Y-76123389D01*
X152125141Y-76123389D01*
X152152223Y-76083754D01*
X152182346Y-75935000D01*
X152182346Y-75335000D01*
X152156198Y-75196034D01*
X152074069Y-75068401D01*
X151972966Y-74999320D01*
X152066599Y-74939069D01*
X152152223Y-74813754D01*
X152182346Y-74665000D01*
X152182346Y-74065000D01*
X152156198Y-73926034D01*
X152074069Y-73798401D01*
X151972966Y-73729320D01*
X151987449Y-73720000D01*
X154717224Y-73720000D01*
X154717224Y-74750700D01*
X154743372Y-74889666D01*
X154825501Y-75017299D01*
X154950816Y-75102923D01*
X155099570Y-75133046D01*
X156900430Y-75133046D01*
X157039396Y-75106898D01*
X157167029Y-75024769D01*
X157252653Y-74899454D01*
X157282776Y-74750700D01*
X157282776Y-71250580D01*
X157256628Y-71111614D01*
X157174499Y-70983981D01*
X157049184Y-70898357D01*
X156900430Y-70868234D01*
X155099570Y-70868234D01*
X154960604Y-70894382D01*
X154832971Y-70976511D01*
X154747347Y-71101826D01*
X154717224Y-71250580D01*
X154717224Y-72470000D01*
X151988596Y-72470000D01*
X151948754Y-72442777D01*
X151800000Y-72412654D01*
X149600000Y-72412654D01*
X149461034Y-72438802D01*
X149333401Y-72520931D01*
X149247777Y-72646246D01*
X149217654Y-72795000D01*
X149217654Y-73395000D01*
X149243802Y-73533966D01*
X149325931Y-73661599D01*
X149427034Y-73730680D01*
X149333401Y-73790931D01*
X149247777Y-73916246D01*
X149217654Y-74065000D01*
X149217654Y-74665000D01*
X149243802Y-74803966D01*
X149325931Y-74931599D01*
X149427034Y-75000680D01*
X149333401Y-75060931D01*
X149247777Y-75186246D01*
X149217654Y-75335000D01*
X149217654Y-75935000D01*
X149243802Y-76073966D01*
X149325931Y-76201599D01*
X149427034Y-76270680D01*
X149333401Y-76330931D01*
X149247777Y-76456246D01*
X149217654Y-76605000D01*
X149217654Y-77205000D01*
X149243802Y-77343966D01*
X149325931Y-77471599D01*
X149451246Y-77557223D01*
X149600000Y-77587346D01*
X150075000Y-77587346D01*
X150075000Y-77791117D01*
X148991116Y-78875000D01*
X146952901Y-78875000D01*
X146940898Y-78829593D01*
X146440411Y-78654290D01*
X145910936Y-78683859D01*
X145559102Y-78829593D01*
X145547099Y-78875000D01*
X140000000Y-78875000D01*
X139951368Y-78884848D01*
X139910399Y-78912841D01*
X139883549Y-78954568D01*
X139875000Y-79000000D01*
X139875000Y-80667894D01*
X139696447Y-80846447D01*
X139588060Y-81008658D01*
X139550000Y-81200000D01*
X139550000Y-81974815D01*
X139497777Y-82051246D01*
X139467654Y-82200000D01*
X139467654Y-82375000D01*
X130550535Y-82375000D01*
X130633000Y-82175912D01*
X130633000Y-81537250D01*
X130474750Y-81379000D01*
X129629000Y-81379000D01*
X129629000Y-81399000D01*
X129371000Y-81399000D01*
X129371000Y-81379000D01*
X128525250Y-81379000D01*
X128367000Y-81537250D01*
X128367000Y-82175912D01*
X128449465Y-82375000D01*
X127187449Y-82375000D01*
X127266599Y-82324069D01*
X127352223Y-82198754D01*
X127382346Y-82050000D01*
X127382346Y-80450000D01*
X127358826Y-80325000D01*
X128367000Y-80325000D01*
X128367000Y-80962750D01*
X128525250Y-81121000D01*
X129371000Y-81121000D01*
X129371000Y-81101000D01*
X129629000Y-81101000D01*
X129629000Y-81121000D01*
X130474750Y-81121000D01*
X130633000Y-80962750D01*
X130633000Y-80325000D01*
X132750000Y-80325000D01*
X132964437Y-80282346D01*
X133050000Y-80282346D01*
X133188966Y-80256198D01*
X133316599Y-80174069D01*
X133355056Y-80117786D01*
X133413368Y-80258565D01*
X133591434Y-80436631D01*
X133824088Y-80533000D01*
X133962750Y-80533000D01*
X134121000Y-80374750D01*
X134121000Y-79800000D01*
X134379000Y-79800000D01*
X134379000Y-80374750D01*
X134537250Y-80533000D01*
X134675912Y-80533000D01*
X134908566Y-80436631D01*
X135086632Y-80258565D01*
X135183000Y-80025911D01*
X135183000Y-79958250D01*
X135024750Y-79800000D01*
X134379000Y-79800000D01*
X134121000Y-79800000D01*
X134101000Y-79800000D01*
X134101000Y-79600000D01*
X134121000Y-79600000D01*
X134121000Y-79551000D01*
X134379000Y-79551000D01*
X134379000Y-79600000D01*
X135024750Y-79600000D01*
X135183000Y-79441750D01*
X135183000Y-79374089D01*
X135086632Y-79141435D01*
X134932346Y-78987149D01*
X134932346Y-78600000D01*
X134906198Y-78461034D01*
X134824069Y-78333401D01*
X134698754Y-78247777D01*
X134550000Y-78217654D01*
X134000000Y-78217654D01*
X134000000Y-77033790D01*
X134594092Y-77033790D01*
X134733058Y-77007642D01*
X134860691Y-76925513D01*
X134946315Y-76800198D01*
X134976438Y-76651444D01*
X134976438Y-76214335D01*
X135130724Y-76060049D01*
X135227092Y-75827395D01*
X135227092Y-75643294D01*
X135068842Y-75485044D01*
X133723602Y-75485044D01*
X133723602Y-75505044D01*
X133465602Y-75505044D01*
X133465602Y-75485044D01*
X132120362Y-75485044D01*
X131962112Y-75643294D01*
X131962112Y-75827395D01*
X132058480Y-76060049D01*
X132212766Y-76214335D01*
X132212766Y-76651444D01*
X132238914Y-76790410D01*
X132321043Y-76918043D01*
X132446358Y-77003667D01*
X132595112Y-77033790D01*
X133000000Y-77033790D01*
X133000000Y-78217654D01*
X132450000Y-78217654D01*
X132311034Y-78243802D01*
X132183401Y-78325931D01*
X132097777Y-78451246D01*
X132067654Y-78600000D01*
X132067654Y-79000000D01*
X132081766Y-79075000D01*
X126898301Y-79075000D01*
X125663983Y-77840681D01*
X125682346Y-77750000D01*
X125682346Y-72250000D01*
X126617654Y-72250000D01*
X126617654Y-77750000D01*
X126643802Y-77888966D01*
X126725931Y-78016599D01*
X126851246Y-78102223D01*
X127000000Y-78132346D01*
X130500000Y-78132346D01*
X130638966Y-78106198D01*
X130766599Y-78024069D01*
X130852223Y-77898754D01*
X130882346Y-77750000D01*
X130882346Y-74884693D01*
X131962112Y-74884693D01*
X131962112Y-75068794D01*
X132120362Y-75227044D01*
X133465602Y-75227044D01*
X133465602Y-75207044D01*
X133723602Y-75207044D01*
X133723602Y-75227044D01*
X135068842Y-75227044D01*
X135227092Y-75068794D01*
X135227092Y-74884693D01*
X135130724Y-74652039D01*
X134976438Y-74497753D01*
X134976438Y-74060644D01*
X134950290Y-73921678D01*
X134868161Y-73794045D01*
X134742846Y-73708421D01*
X134594092Y-73678298D01*
X134000000Y-73678298D01*
X134000000Y-72382346D01*
X134125000Y-72382346D01*
X134263966Y-72356198D01*
X134391599Y-72274069D01*
X134477223Y-72148754D01*
X134507346Y-72000000D01*
X134507346Y-71000000D01*
X134481198Y-70861034D01*
X134399069Y-70733401D01*
X134273754Y-70647777D01*
X134125000Y-70617654D01*
X132875000Y-70617654D01*
X132736034Y-70643802D01*
X132608401Y-70725931D01*
X132522777Y-70851246D01*
X132492654Y-71000000D01*
X132492654Y-72000000D01*
X132518802Y-72138966D01*
X132600931Y-72266599D01*
X132726246Y-72352223D01*
X132875000Y-72382346D01*
X133000000Y-72382346D01*
X133000000Y-73678298D01*
X132595112Y-73678298D01*
X132456146Y-73704446D01*
X132328513Y-73786575D01*
X132242889Y-73911890D01*
X132212766Y-74060644D01*
X132212766Y-74497753D01*
X132058480Y-74652039D01*
X131962112Y-74884693D01*
X130882346Y-74884693D01*
X130882346Y-72250000D01*
X130856198Y-72111034D01*
X130774069Y-71983401D01*
X130648754Y-71897777D01*
X130500000Y-71867654D01*
X129266230Y-71867654D01*
X131008884Y-70125000D01*
X132516174Y-70125000D01*
X132518802Y-70138966D01*
X132600931Y-70266599D01*
X132726246Y-70352223D01*
X132875000Y-70382346D01*
X134113462Y-70382346D01*
X135757654Y-72026538D01*
X135757654Y-72590000D01*
X135783802Y-72728966D01*
X135865931Y-72856599D01*
X135991246Y-72942223D01*
X136140000Y-72972346D01*
X136571322Y-72972346D01*
X136571322Y-73678298D01*
X136196832Y-73678298D01*
X136057866Y-73704446D01*
X135930233Y-73786575D01*
X135844609Y-73911890D01*
X135814486Y-74060644D01*
X135814486Y-74751524D01*
X135839755Y-74885819D01*
X135814486Y-75010604D01*
X135814486Y-75701484D01*
X135839755Y-75835779D01*
X135814486Y-75960564D01*
X135814486Y-76651444D01*
X135840634Y-76790410D01*
X135922763Y-76918043D01*
X136048078Y-77003667D01*
X136196832Y-77033790D01*
X137217001Y-77033790D01*
X137286764Y-77103553D01*
X137414593Y-77188966D01*
X137448976Y-77211940D01*
X137640318Y-77250000D01*
X139083076Y-77250000D01*
X139125931Y-77316599D01*
X139251246Y-77402223D01*
X139400000Y-77432346D01*
X139800000Y-77432346D01*
X139938966Y-77406198D01*
X140051285Y-77333923D01*
X140151246Y-77402223D01*
X140300000Y-77432346D01*
X140700000Y-77432346D01*
X140838966Y-77406198D01*
X140966599Y-77324069D01*
X141052223Y-77198754D01*
X141082346Y-77050000D01*
X141082346Y-76964437D01*
X141125000Y-76750000D01*
X141125000Y-75925000D01*
X143106117Y-75925000D01*
X143258056Y-76076939D01*
X143258058Y-76076942D01*
X143426030Y-76189177D01*
X143460823Y-76212425D01*
X143700000Y-76260001D01*
X143700005Y-76260000D01*
X144011404Y-76260000D01*
X144027034Y-76270680D01*
X143933401Y-76330931D01*
X143847777Y-76456246D01*
X143817654Y-76605000D01*
X143817654Y-77205000D01*
X143843802Y-77343966D01*
X143925931Y-77471599D01*
X144051246Y-77557223D01*
X144200000Y-77587346D01*
X146400000Y-77587346D01*
X146538966Y-77561198D01*
X146666599Y-77479069D01*
X146752223Y-77353754D01*
X146782346Y-77205000D01*
X146782346Y-76929760D01*
X147853553Y-75858553D01*
X147961940Y-75696342D01*
X147972492Y-75643294D01*
X148000000Y-75505000D01*
X148000000Y-72457106D01*
X150424331Y-70032776D01*
X151999420Y-70032776D01*
X152138386Y-70006628D01*
X152266019Y-69924499D01*
X152351643Y-69799184D01*
X152364184Y-69737250D01*
X154517000Y-69737250D01*
X154517000Y-70025911D01*
X154613368Y-70258565D01*
X154791434Y-70436631D01*
X155024088Y-70533000D01*
X155712750Y-70533000D01*
X155871000Y-70374750D01*
X155871000Y-69579000D01*
X156129000Y-69579000D01*
X156129000Y-70374750D01*
X156287250Y-70533000D01*
X156975912Y-70533000D01*
X157208566Y-70436631D01*
X157386632Y-70258565D01*
X157483000Y-70025911D01*
X157483000Y-69737250D01*
X157324750Y-69579000D01*
X156129000Y-69579000D01*
X155871000Y-69579000D01*
X154675250Y-69579000D01*
X154517000Y-69737250D01*
X152364184Y-69737250D01*
X152381766Y-69650430D01*
X152381766Y-68874089D01*
X154517000Y-68874089D01*
X154517000Y-69162750D01*
X154675250Y-69321000D01*
X155871000Y-69321000D01*
X155871000Y-68525250D01*
X156129000Y-68525250D01*
X156129000Y-69321000D01*
X157324750Y-69321000D01*
X157483000Y-69162750D01*
X157483000Y-68874089D01*
X157386632Y-68641435D01*
X157208566Y-68463369D01*
X156975912Y-68367000D01*
X156287250Y-68367000D01*
X156129000Y-68525250D01*
X155871000Y-68525250D01*
X155712750Y-68367000D01*
X155024088Y-68367000D01*
X154791434Y-68463369D01*
X154613368Y-68641435D01*
X154517000Y-68874089D01*
X152381766Y-68874089D01*
X152381766Y-68174330D01*
X153506097Y-67050000D01*
X154777062Y-67050000D01*
X154793802Y-67138966D01*
X154875931Y-67266599D01*
X155001246Y-67352223D01*
X155150000Y-67382346D01*
X156850000Y-67382346D01*
X156988966Y-67356198D01*
X157116599Y-67274069D01*
X157202223Y-67148754D01*
X157232346Y-67000000D01*
X157232346Y-66100000D01*
X157206198Y-65961034D01*
X157124069Y-65833401D01*
X156998754Y-65747777D01*
X156850000Y-65717654D01*
X155150000Y-65717654D01*
X155011034Y-65743802D01*
X154883401Y-65825931D01*
X154797777Y-65951246D01*
X154777779Y-66050000D01*
X153298990Y-66050000D01*
X153107648Y-66088060D01*
X152945437Y-66196446D01*
X151674660Y-67467224D01*
X148499300Y-67467224D01*
X148360334Y-67493372D01*
X148232701Y-67575501D01*
X148147077Y-67700816D01*
X148116954Y-67849570D01*
X148116954Y-69650430D01*
X148143102Y-69789396D01*
X148225231Y-69917029D01*
X148350546Y-70002653D01*
X148499300Y-70032776D01*
X149010117Y-70032776D01*
X147146447Y-71896447D01*
X147038060Y-72058658D01*
X147000000Y-72250000D01*
X147000000Y-75297894D01*
X146782346Y-75515548D01*
X146782346Y-75335000D01*
X146756198Y-75196034D01*
X146674069Y-75068401D01*
X146572966Y-74999320D01*
X146666599Y-74939069D01*
X146752223Y-74813754D01*
X146782346Y-74665000D01*
X146782346Y-74065000D01*
X146756198Y-73926034D01*
X146674069Y-73798401D01*
X146572966Y-73729320D01*
X146666599Y-73669069D01*
X146752223Y-73543754D01*
X146782346Y-73395000D01*
X146782346Y-72795000D01*
X146756198Y-72656034D01*
X146674069Y-72528401D01*
X146548754Y-72442777D01*
X146400000Y-72412654D01*
X145925000Y-72412654D01*
X145925000Y-70032776D01*
X147000700Y-70032776D01*
X147139666Y-70006628D01*
X147267299Y-69924499D01*
X147352923Y-69799184D01*
X147383046Y-69650430D01*
X147383046Y-67849570D01*
X147356898Y-67710604D01*
X147274769Y-67582971D01*
X147149454Y-67497347D01*
X147000700Y-67467224D01*
X143500580Y-67467224D01*
X143361614Y-67493372D01*
X143233981Y-67575501D01*
X143148357Y-67700816D01*
X143118234Y-67849570D01*
X143118234Y-69650430D01*
X143144382Y-69789396D01*
X143226511Y-69917029D01*
X143351826Y-70002653D01*
X143500580Y-70032776D01*
X144675000Y-70032776D01*
X144675000Y-72412654D01*
X144200000Y-72412654D01*
X144061034Y-72438802D01*
X143933401Y-72520931D01*
X143847777Y-72646246D01*
X143817654Y-72795000D01*
X143817654Y-73395000D01*
X143843802Y-73533966D01*
X143925931Y-73661599D01*
X144027034Y-73730680D01*
X143933401Y-73790931D01*
X143847777Y-73916246D01*
X143817654Y-74065000D01*
X143817654Y-74665000D01*
X143843802Y-74803966D01*
X143925931Y-74931599D01*
X144027034Y-75000680D01*
X144012551Y-75010000D01*
X143958884Y-75010000D01*
X143806942Y-74858058D01*
X143604177Y-74722575D01*
X143365000Y-74675000D01*
X140625000Y-74675000D01*
X140625000Y-73882346D01*
X141250000Y-73882346D01*
X141388966Y-73856198D01*
X141516599Y-73774069D01*
X141602223Y-73648754D01*
X141632346Y-73500000D01*
X141632346Y-72500000D01*
X141606198Y-72361034D01*
X141524069Y-72233401D01*
X141398754Y-72147777D01*
X141250000Y-72117654D01*
X138750000Y-72117654D01*
X138611034Y-72143802D01*
X138483401Y-72225931D01*
X138397777Y-72351246D01*
X138367654Y-72500000D01*
X138367654Y-73500000D01*
X138393802Y-73638966D01*
X138475931Y-73766599D01*
X138601246Y-73852223D01*
X138750000Y-73882346D01*
X139375000Y-73882346D01*
X139375000Y-74675000D01*
X138578158Y-74675000D01*
X138578158Y-74060644D01*
X138552010Y-73921678D01*
X138469881Y-73794045D01*
X138344566Y-73708421D01*
X138195812Y-73678298D01*
X137821322Y-73678298D01*
X137821322Y-72581327D01*
X137821323Y-72581322D01*
X137773747Y-72342145D01*
X137742346Y-72295150D01*
X137742346Y-71680000D01*
X137716198Y-71541034D01*
X137634069Y-71413401D01*
X137508754Y-71327777D01*
X137360000Y-71297654D01*
X136796538Y-71297654D01*
X135786134Y-70287250D01*
X138117000Y-70287250D01*
X138117000Y-70625911D01*
X138213368Y-70858565D01*
X138391434Y-71036631D01*
X138624088Y-71133000D01*
X139712750Y-71133000D01*
X139871000Y-70974750D01*
X139871000Y-70129000D01*
X140129000Y-70129000D01*
X140129000Y-70974750D01*
X140287250Y-71133000D01*
X141375912Y-71133000D01*
X141608566Y-71036631D01*
X141786632Y-70858565D01*
X141883000Y-70625911D01*
X141883000Y-70287250D01*
X141724750Y-70129000D01*
X140129000Y-70129000D01*
X139871000Y-70129000D01*
X138275250Y-70129000D01*
X138117000Y-70287250D01*
X135786134Y-70287250D01*
X134651134Y-69152250D01*
X135507000Y-69152250D01*
X135507000Y-69445911D01*
X135603368Y-69678565D01*
X135781434Y-69856631D01*
X136014088Y-69953000D01*
X136462750Y-69953000D01*
X136621000Y-69794750D01*
X136621000Y-68994000D01*
X136879000Y-68994000D01*
X136879000Y-69794750D01*
X137037250Y-69953000D01*
X137485912Y-69953000D01*
X137718566Y-69856631D01*
X137896632Y-69678565D01*
X137993000Y-69445911D01*
X137993000Y-69374089D01*
X138117000Y-69374089D01*
X138117000Y-69712750D01*
X138275250Y-69871000D01*
X139871000Y-69871000D01*
X139871000Y-69025250D01*
X140129000Y-69025250D01*
X140129000Y-69871000D01*
X141724750Y-69871000D01*
X141883000Y-69712750D01*
X141883000Y-69374089D01*
X141786632Y-69141435D01*
X141608566Y-68963369D01*
X141375912Y-68867000D01*
X140287250Y-68867000D01*
X140129000Y-69025250D01*
X139871000Y-69025250D01*
X139712750Y-68867000D01*
X138624088Y-68867000D01*
X138391434Y-68963369D01*
X138213368Y-69141435D01*
X138117000Y-69374089D01*
X137993000Y-69374089D01*
X137993000Y-69152250D01*
X137834750Y-68994000D01*
X136879000Y-68994000D01*
X136621000Y-68994000D01*
X135665250Y-68994000D01*
X135507000Y-69152250D01*
X134651134Y-69152250D01*
X134556942Y-69058058D01*
X134507346Y-69024919D01*
X134507346Y-69000000D01*
X134481198Y-68861034D01*
X134399069Y-68733401D01*
X134273754Y-68647777D01*
X134125000Y-68617654D01*
X132875000Y-68617654D01*
X132736034Y-68643802D01*
X132608401Y-68725931D01*
X132522777Y-68851246D01*
X132517967Y-68875000D01*
X130750000Y-68875000D01*
X130510823Y-68922575D01*
X130308058Y-69058058D01*
X127808058Y-71558058D01*
X127672575Y-71760823D01*
X127651325Y-71867654D01*
X127000000Y-71867654D01*
X126861034Y-71893802D01*
X126733401Y-71975931D01*
X126647777Y-72101246D01*
X126617654Y-72250000D01*
X125682346Y-72250000D01*
X125656198Y-72111034D01*
X125574069Y-71983401D01*
X125448754Y-71897777D01*
X125300000Y-71867654D01*
X121800000Y-71867654D01*
X121661034Y-71893802D01*
X121533401Y-71975931D01*
X121447777Y-72101246D01*
X121417654Y-72250000D01*
X121417654Y-77750000D01*
X121443802Y-77888966D01*
X121525931Y-78016599D01*
X121651246Y-78102223D01*
X121800000Y-78132346D01*
X124187880Y-78132346D01*
X125875000Y-79819465D01*
X125875000Y-80091174D01*
X125861034Y-80093802D01*
X125733401Y-80175931D01*
X125647777Y-80301246D01*
X125617654Y-80450000D01*
X125617654Y-82050000D01*
X125643802Y-82188966D01*
X125725931Y-82316599D01*
X125811404Y-82375000D01*
X122900136Y-82375000D01*
X122892649Y-82337360D01*
X122800520Y-82199480D01*
X122662640Y-82107351D01*
X122500000Y-82075000D01*
X120425000Y-82075000D01*
X120425000Y-68284089D01*
X135507000Y-68284089D01*
X135507000Y-68577750D01*
X135665250Y-68736000D01*
X136621000Y-68736000D01*
X136621000Y-67935250D01*
X136879000Y-67935250D01*
X136879000Y-68736000D01*
X137834750Y-68736000D01*
X137993000Y-68577750D01*
X137993000Y-68284089D01*
X137896632Y-68051435D01*
X137718566Y-67873369D01*
X137485912Y-67777000D01*
X137037250Y-67777000D01*
X136879000Y-67935250D01*
X136621000Y-67935250D01*
X136462750Y-67777000D01*
X136014088Y-67777000D01*
X135781434Y-67873369D01*
X135603368Y-68051435D01*
X135507000Y-68284089D01*
X120425000Y-68284089D01*
X120425000Y-65425000D01*
X158625000Y-65425000D01*
X158625000Y-82375000D01*
X158625000Y-82375000D01*
G37*
X158625000Y-82375000D02*
X150125000Y-82375000D01*
X150125000Y-79508884D01*
X151141939Y-78491944D01*
X151141942Y-78491942D01*
X151277425Y-78289177D01*
X151277935Y-78286610D01*
X154466570Y-78286610D01*
X154466570Y-79875331D01*
X154562938Y-80107985D01*
X154741004Y-80286051D01*
X154973658Y-80382420D01*
X155712750Y-80382420D01*
X155871000Y-80224170D01*
X155871000Y-78128360D01*
X156129000Y-78128360D01*
X156129000Y-80224170D01*
X156287250Y-80382420D01*
X157026342Y-80382420D01*
X157258996Y-80286051D01*
X157437062Y-80107985D01*
X157533430Y-79875331D01*
X157533430Y-78286610D01*
X157375180Y-78128360D01*
X156129000Y-78128360D01*
X155871000Y-78128360D01*
X154624820Y-78128360D01*
X154466570Y-78286610D01*
X151277935Y-78286610D01*
X151325000Y-78050000D01*
X151325000Y-77587346D01*
X151800000Y-77587346D01*
X151938966Y-77561198D01*
X152066599Y-77479069D01*
X152152223Y-77353754D01*
X152182346Y-77205000D01*
X152182346Y-76605000D01*
X152156198Y-76466034D01*
X152074069Y-76338401D01*
X151972966Y-76269320D01*
X152066599Y-76209069D01*
X152125141Y-76123389D01*
X154466570Y-76123389D01*
X154466570Y-77712110D01*
X154624820Y-77870360D01*
X155871000Y-77870360D01*
X155871000Y-75774550D01*
X156129000Y-75774550D01*
X156129000Y-77870360D01*
X157375180Y-77870360D01*
X157533430Y-77712110D01*
X157533430Y-76123389D01*
X157437062Y-75890735D01*
X157258996Y-75712669D01*
X157026342Y-75616300D01*
X156287250Y-75616300D01*
X156129000Y-75774550D01*
X155871000Y-75774550D01*
X155712750Y-75616300D01*
X154973658Y-75616300D01*
X154741004Y-75712669D01*
X154562938Y-75890735D01*
X154466570Y-76123389D01*
X152125141Y-76123389D01*
X152152223Y-76083754D01*
X152182346Y-75935000D01*
X152182346Y-75335000D01*
X152156198Y-75196034D01*
X152074069Y-75068401D01*
X151972966Y-74999320D01*
X152066599Y-74939069D01*
X152152223Y-74813754D01*
X152182346Y-74665000D01*
X152182346Y-74065000D01*
X152156198Y-73926034D01*
X152074069Y-73798401D01*
X151972966Y-73729320D01*
X151987449Y-73720000D01*
X154717224Y-73720000D01*
X154717224Y-74750700D01*
X154743372Y-74889666D01*
X154825501Y-75017299D01*
X154950816Y-75102923D01*
X155099570Y-75133046D01*
X156900430Y-75133046D01*
X157039396Y-75106898D01*
X157167029Y-75024769D01*
X157252653Y-74899454D01*
X157282776Y-74750700D01*
X157282776Y-71250580D01*
X157256628Y-71111614D01*
X157174499Y-70983981D01*
X157049184Y-70898357D01*
X156900430Y-70868234D01*
X155099570Y-70868234D01*
X154960604Y-70894382D01*
X154832971Y-70976511D01*
X154747347Y-71101826D01*
X154717224Y-71250580D01*
X154717224Y-72470000D01*
X151988596Y-72470000D01*
X151948754Y-72442777D01*
X151800000Y-72412654D01*
X149600000Y-72412654D01*
X149461034Y-72438802D01*
X149333401Y-72520931D01*
X149247777Y-72646246D01*
X149217654Y-72795000D01*
X149217654Y-73395000D01*
X149243802Y-73533966D01*
X149325931Y-73661599D01*
X149427034Y-73730680D01*
X149333401Y-73790931D01*
X149247777Y-73916246D01*
X149217654Y-74065000D01*
X149217654Y-74665000D01*
X149243802Y-74803966D01*
X149325931Y-74931599D01*
X149427034Y-75000680D01*
X149333401Y-75060931D01*
X149247777Y-75186246D01*
X149217654Y-75335000D01*
X149217654Y-75935000D01*
X149243802Y-76073966D01*
X149325931Y-76201599D01*
X149427034Y-76270680D01*
X149333401Y-76330931D01*
X149247777Y-76456246D01*
X149217654Y-76605000D01*
X149217654Y-77205000D01*
X149243802Y-77343966D01*
X149325931Y-77471599D01*
X149451246Y-77557223D01*
X149600000Y-77587346D01*
X150075000Y-77587346D01*
X150075000Y-77791117D01*
X148991116Y-78875000D01*
X146952901Y-78875000D01*
X146940898Y-78829593D01*
X146440411Y-78654290D01*
X145910936Y-78683859D01*
X145559102Y-78829593D01*
X145547099Y-78875000D01*
X140000000Y-78875000D01*
X139951368Y-78884848D01*
X139910399Y-78912841D01*
X139883549Y-78954568D01*
X139875000Y-79000000D01*
X139875000Y-80667894D01*
X139696447Y-80846447D01*
X139588060Y-81008658D01*
X139550000Y-81200000D01*
X139550000Y-81974815D01*
X139497777Y-82051246D01*
X139467654Y-82200000D01*
X139467654Y-82375000D01*
X130550535Y-82375000D01*
X130633000Y-82175912D01*
X130633000Y-81537250D01*
X130474750Y-81379000D01*
X129629000Y-81379000D01*
X129629000Y-81399000D01*
X129371000Y-81399000D01*
X129371000Y-81379000D01*
X128525250Y-81379000D01*
X128367000Y-81537250D01*
X128367000Y-82175912D01*
X128449465Y-82375000D01*
X127187449Y-82375000D01*
X127266599Y-82324069D01*
X127352223Y-82198754D01*
X127382346Y-82050000D01*
X127382346Y-80450000D01*
X127358826Y-80325000D01*
X128367000Y-80325000D01*
X128367000Y-80962750D01*
X128525250Y-81121000D01*
X129371000Y-81121000D01*
X129371000Y-81101000D01*
X129629000Y-81101000D01*
X129629000Y-81121000D01*
X130474750Y-81121000D01*
X130633000Y-80962750D01*
X130633000Y-80325000D01*
X132750000Y-80325000D01*
X132964437Y-80282346D01*
X133050000Y-80282346D01*
X133188966Y-80256198D01*
X133316599Y-80174069D01*
X133355056Y-80117786D01*
X133413368Y-80258565D01*
X133591434Y-80436631D01*
X133824088Y-80533000D01*
X133962750Y-80533000D01*
X134121000Y-80374750D01*
X134121000Y-79800000D01*
X134379000Y-79800000D01*
X134379000Y-80374750D01*
X134537250Y-80533000D01*
X134675912Y-80533000D01*
X134908566Y-80436631D01*
X135086632Y-80258565D01*
X135183000Y-80025911D01*
X135183000Y-79958250D01*
X135024750Y-79800000D01*
X134379000Y-79800000D01*
X134121000Y-79800000D01*
X134101000Y-79800000D01*
X134101000Y-79600000D01*
X134121000Y-79600000D01*
X134121000Y-79551000D01*
X134379000Y-79551000D01*
X134379000Y-79600000D01*
X135024750Y-79600000D01*
X135183000Y-79441750D01*
X135183000Y-79374089D01*
X135086632Y-79141435D01*
X134932346Y-78987149D01*
X134932346Y-78600000D01*
X134906198Y-78461034D01*
X134824069Y-78333401D01*
X134698754Y-78247777D01*
X134550000Y-78217654D01*
X134000000Y-78217654D01*
X134000000Y-77033790D01*
X134594092Y-77033790D01*
X134733058Y-77007642D01*
X134860691Y-76925513D01*
X134946315Y-76800198D01*
X134976438Y-76651444D01*
X134976438Y-76214335D01*
X135130724Y-76060049D01*
X135227092Y-75827395D01*
X135227092Y-75643294D01*
X135068842Y-75485044D01*
X133723602Y-75485044D01*
X133723602Y-75505044D01*
X133465602Y-75505044D01*
X133465602Y-75485044D01*
X132120362Y-75485044D01*
X131962112Y-75643294D01*
X131962112Y-75827395D01*
X132058480Y-76060049D01*
X132212766Y-76214335D01*
X132212766Y-76651444D01*
X132238914Y-76790410D01*
X132321043Y-76918043D01*
X132446358Y-77003667D01*
X132595112Y-77033790D01*
X133000000Y-77033790D01*
X133000000Y-78217654D01*
X132450000Y-78217654D01*
X132311034Y-78243802D01*
X132183401Y-78325931D01*
X132097777Y-78451246D01*
X132067654Y-78600000D01*
X132067654Y-79000000D01*
X132081766Y-79075000D01*
X126898301Y-79075000D01*
X125663983Y-77840681D01*
X125682346Y-77750000D01*
X125682346Y-72250000D01*
X126617654Y-72250000D01*
X126617654Y-77750000D01*
X126643802Y-77888966D01*
X126725931Y-78016599D01*
X126851246Y-78102223D01*
X127000000Y-78132346D01*
X130500000Y-78132346D01*
X130638966Y-78106198D01*
X130766599Y-78024069D01*
X130852223Y-77898754D01*
X130882346Y-77750000D01*
X130882346Y-74884693D01*
X131962112Y-74884693D01*
X131962112Y-75068794D01*
X132120362Y-75227044D01*
X133465602Y-75227044D01*
X133465602Y-75207044D01*
X133723602Y-75207044D01*
X133723602Y-75227044D01*
X135068842Y-75227044D01*
X135227092Y-75068794D01*
X135227092Y-74884693D01*
X135130724Y-74652039D01*
X134976438Y-74497753D01*
X134976438Y-74060644D01*
X134950290Y-73921678D01*
X134868161Y-73794045D01*
X134742846Y-73708421D01*
X134594092Y-73678298D01*
X134000000Y-73678298D01*
X134000000Y-72382346D01*
X134125000Y-72382346D01*
X134263966Y-72356198D01*
X134391599Y-72274069D01*
X134477223Y-72148754D01*
X134507346Y-72000000D01*
X134507346Y-71000000D01*
X134481198Y-70861034D01*
X134399069Y-70733401D01*
X134273754Y-70647777D01*
X134125000Y-70617654D01*
X132875000Y-70617654D01*
X132736034Y-70643802D01*
X132608401Y-70725931D01*
X132522777Y-70851246D01*
X132492654Y-71000000D01*
X132492654Y-72000000D01*
X132518802Y-72138966D01*
X132600931Y-72266599D01*
X132726246Y-72352223D01*
X132875000Y-72382346D01*
X133000000Y-72382346D01*
X133000000Y-73678298D01*
X132595112Y-73678298D01*
X132456146Y-73704446D01*
X132328513Y-73786575D01*
X132242889Y-73911890D01*
X132212766Y-74060644D01*
X132212766Y-74497753D01*
X132058480Y-74652039D01*
X131962112Y-74884693D01*
X130882346Y-74884693D01*
X130882346Y-72250000D01*
X130856198Y-72111034D01*
X130774069Y-71983401D01*
X130648754Y-71897777D01*
X130500000Y-71867654D01*
X129266230Y-71867654D01*
X131008884Y-70125000D01*
X132516174Y-70125000D01*
X132518802Y-70138966D01*
X132600931Y-70266599D01*
X132726246Y-70352223D01*
X132875000Y-70382346D01*
X134113462Y-70382346D01*
X135757654Y-72026538D01*
X135757654Y-72590000D01*
X135783802Y-72728966D01*
X135865931Y-72856599D01*
X135991246Y-72942223D01*
X136140000Y-72972346D01*
X136571322Y-72972346D01*
X136571322Y-73678298D01*
X136196832Y-73678298D01*
X136057866Y-73704446D01*
X135930233Y-73786575D01*
X135844609Y-73911890D01*
X135814486Y-74060644D01*
X135814486Y-74751524D01*
X135839755Y-74885819D01*
X135814486Y-75010604D01*
X135814486Y-75701484D01*
X135839755Y-75835779D01*
X135814486Y-75960564D01*
X135814486Y-76651444D01*
X135840634Y-76790410D01*
X135922763Y-76918043D01*
X136048078Y-77003667D01*
X136196832Y-77033790D01*
X137217001Y-77033790D01*
X137286764Y-77103553D01*
X137414593Y-77188966D01*
X137448976Y-77211940D01*
X137640318Y-77250000D01*
X139083076Y-77250000D01*
X139125931Y-77316599D01*
X139251246Y-77402223D01*
X139400000Y-77432346D01*
X139800000Y-77432346D01*
X139938966Y-77406198D01*
X140051285Y-77333923D01*
X140151246Y-77402223D01*
X140300000Y-77432346D01*
X140700000Y-77432346D01*
X140838966Y-77406198D01*
X140966599Y-77324069D01*
X141052223Y-77198754D01*
X141082346Y-77050000D01*
X141082346Y-76964437D01*
X141125000Y-76750000D01*
X141125000Y-75925000D01*
X143106117Y-75925000D01*
X143258056Y-76076939D01*
X143258058Y-76076942D01*
X143426030Y-76189177D01*
X143460823Y-76212425D01*
X143700000Y-76260001D01*
X143700005Y-76260000D01*
X144011404Y-76260000D01*
X144027034Y-76270680D01*
X143933401Y-76330931D01*
X143847777Y-76456246D01*
X143817654Y-76605000D01*
X143817654Y-77205000D01*
X143843802Y-77343966D01*
X143925931Y-77471599D01*
X144051246Y-77557223D01*
X144200000Y-77587346D01*
X146400000Y-77587346D01*
X146538966Y-77561198D01*
X146666599Y-77479069D01*
X146752223Y-77353754D01*
X146782346Y-77205000D01*
X146782346Y-76929760D01*
X147853553Y-75858553D01*
X147961940Y-75696342D01*
X147972492Y-75643294D01*
X148000000Y-75505000D01*
X148000000Y-72457106D01*
X150424331Y-70032776D01*
X151999420Y-70032776D01*
X152138386Y-70006628D01*
X152266019Y-69924499D01*
X152351643Y-69799184D01*
X152364184Y-69737250D01*
X154517000Y-69737250D01*
X154517000Y-70025911D01*
X154613368Y-70258565D01*
X154791434Y-70436631D01*
X155024088Y-70533000D01*
X155712750Y-70533000D01*
X155871000Y-70374750D01*
X155871000Y-69579000D01*
X156129000Y-69579000D01*
X156129000Y-70374750D01*
X156287250Y-70533000D01*
X156975912Y-70533000D01*
X157208566Y-70436631D01*
X157386632Y-70258565D01*
X157483000Y-70025911D01*
X157483000Y-69737250D01*
X157324750Y-69579000D01*
X156129000Y-69579000D01*
X155871000Y-69579000D01*
X154675250Y-69579000D01*
X154517000Y-69737250D01*
X152364184Y-69737250D01*
X152381766Y-69650430D01*
X152381766Y-68874089D01*
X154517000Y-68874089D01*
X154517000Y-69162750D01*
X154675250Y-69321000D01*
X155871000Y-69321000D01*
X155871000Y-68525250D01*
X156129000Y-68525250D01*
X156129000Y-69321000D01*
X157324750Y-69321000D01*
X157483000Y-69162750D01*
X157483000Y-68874089D01*
X157386632Y-68641435D01*
X157208566Y-68463369D01*
X156975912Y-68367000D01*
X156287250Y-68367000D01*
X156129000Y-68525250D01*
X155871000Y-68525250D01*
X155712750Y-68367000D01*
X155024088Y-68367000D01*
X154791434Y-68463369D01*
X154613368Y-68641435D01*
X154517000Y-68874089D01*
X152381766Y-68874089D01*
X152381766Y-68174330D01*
X153506097Y-67050000D01*
X154777062Y-67050000D01*
X154793802Y-67138966D01*
X154875931Y-67266599D01*
X155001246Y-67352223D01*
X155150000Y-67382346D01*
X156850000Y-67382346D01*
X156988966Y-67356198D01*
X157116599Y-67274069D01*
X157202223Y-67148754D01*
X157232346Y-67000000D01*
X157232346Y-66100000D01*
X157206198Y-65961034D01*
X157124069Y-65833401D01*
X156998754Y-65747777D01*
X156850000Y-65717654D01*
X155150000Y-65717654D01*
X155011034Y-65743802D01*
X154883401Y-65825931D01*
X154797777Y-65951246D01*
X154777779Y-66050000D01*
X153298990Y-66050000D01*
X153107648Y-66088060D01*
X152945437Y-66196446D01*
X151674660Y-67467224D01*
X148499300Y-67467224D01*
X148360334Y-67493372D01*
X148232701Y-67575501D01*
X148147077Y-67700816D01*
X148116954Y-67849570D01*
X148116954Y-69650430D01*
X148143102Y-69789396D01*
X148225231Y-69917029D01*
X148350546Y-70002653D01*
X148499300Y-70032776D01*
X149010117Y-70032776D01*
X147146447Y-71896447D01*
X147038060Y-72058658D01*
X147000000Y-72250000D01*
X147000000Y-75297894D01*
X146782346Y-75515548D01*
X146782346Y-75335000D01*
X146756198Y-75196034D01*
X146674069Y-75068401D01*
X146572966Y-74999320D01*
X146666599Y-74939069D01*
X146752223Y-74813754D01*
X146782346Y-74665000D01*
X146782346Y-74065000D01*
X146756198Y-73926034D01*
X146674069Y-73798401D01*
X146572966Y-73729320D01*
X146666599Y-73669069D01*
X146752223Y-73543754D01*
X146782346Y-73395000D01*
X146782346Y-72795000D01*
X146756198Y-72656034D01*
X146674069Y-72528401D01*
X146548754Y-72442777D01*
X146400000Y-72412654D01*
X145925000Y-72412654D01*
X145925000Y-70032776D01*
X147000700Y-70032776D01*
X147139666Y-70006628D01*
X147267299Y-69924499D01*
X147352923Y-69799184D01*
X147383046Y-69650430D01*
X147383046Y-67849570D01*
X147356898Y-67710604D01*
X147274769Y-67582971D01*
X147149454Y-67497347D01*
X147000700Y-67467224D01*
X143500580Y-67467224D01*
X143361614Y-67493372D01*
X143233981Y-67575501D01*
X143148357Y-67700816D01*
X143118234Y-67849570D01*
X143118234Y-69650430D01*
X143144382Y-69789396D01*
X143226511Y-69917029D01*
X143351826Y-70002653D01*
X143500580Y-70032776D01*
X144675000Y-70032776D01*
X144675000Y-72412654D01*
X144200000Y-72412654D01*
X144061034Y-72438802D01*
X143933401Y-72520931D01*
X143847777Y-72646246D01*
X143817654Y-72795000D01*
X143817654Y-73395000D01*
X143843802Y-73533966D01*
X143925931Y-73661599D01*
X144027034Y-73730680D01*
X143933401Y-73790931D01*
X143847777Y-73916246D01*
X143817654Y-74065000D01*
X143817654Y-74665000D01*
X143843802Y-74803966D01*
X143925931Y-74931599D01*
X144027034Y-75000680D01*
X144012551Y-75010000D01*
X143958884Y-75010000D01*
X143806942Y-74858058D01*
X143604177Y-74722575D01*
X143365000Y-74675000D01*
X140625000Y-74675000D01*
X140625000Y-73882346D01*
X141250000Y-73882346D01*
X141388966Y-73856198D01*
X141516599Y-73774069D01*
X141602223Y-73648754D01*
X141632346Y-73500000D01*
X141632346Y-72500000D01*
X141606198Y-72361034D01*
X141524069Y-72233401D01*
X141398754Y-72147777D01*
X141250000Y-72117654D01*
X138750000Y-72117654D01*
X138611034Y-72143802D01*
X138483401Y-72225931D01*
X138397777Y-72351246D01*
X138367654Y-72500000D01*
X138367654Y-73500000D01*
X138393802Y-73638966D01*
X138475931Y-73766599D01*
X138601246Y-73852223D01*
X138750000Y-73882346D01*
X139375000Y-73882346D01*
X139375000Y-74675000D01*
X138578158Y-74675000D01*
X138578158Y-74060644D01*
X138552010Y-73921678D01*
X138469881Y-73794045D01*
X138344566Y-73708421D01*
X138195812Y-73678298D01*
X137821322Y-73678298D01*
X137821322Y-72581327D01*
X137821323Y-72581322D01*
X137773747Y-72342145D01*
X137742346Y-72295150D01*
X137742346Y-71680000D01*
X137716198Y-71541034D01*
X137634069Y-71413401D01*
X137508754Y-71327777D01*
X137360000Y-71297654D01*
X136796538Y-71297654D01*
X135786134Y-70287250D01*
X138117000Y-70287250D01*
X138117000Y-70625911D01*
X138213368Y-70858565D01*
X138391434Y-71036631D01*
X138624088Y-71133000D01*
X139712750Y-71133000D01*
X139871000Y-70974750D01*
X139871000Y-70129000D01*
X140129000Y-70129000D01*
X140129000Y-70974750D01*
X140287250Y-71133000D01*
X141375912Y-71133000D01*
X141608566Y-71036631D01*
X141786632Y-70858565D01*
X141883000Y-70625911D01*
X141883000Y-70287250D01*
X141724750Y-70129000D01*
X140129000Y-70129000D01*
X139871000Y-70129000D01*
X138275250Y-70129000D01*
X138117000Y-70287250D01*
X135786134Y-70287250D01*
X134651134Y-69152250D01*
X135507000Y-69152250D01*
X135507000Y-69445911D01*
X135603368Y-69678565D01*
X135781434Y-69856631D01*
X136014088Y-69953000D01*
X136462750Y-69953000D01*
X136621000Y-69794750D01*
X136621000Y-68994000D01*
X136879000Y-68994000D01*
X136879000Y-69794750D01*
X137037250Y-69953000D01*
X137485912Y-69953000D01*
X137718566Y-69856631D01*
X137896632Y-69678565D01*
X137993000Y-69445911D01*
X137993000Y-69374089D01*
X138117000Y-69374089D01*
X138117000Y-69712750D01*
X138275250Y-69871000D01*
X139871000Y-69871000D01*
X139871000Y-69025250D01*
X140129000Y-69025250D01*
X140129000Y-69871000D01*
X141724750Y-69871000D01*
X141883000Y-69712750D01*
X141883000Y-69374089D01*
X141786632Y-69141435D01*
X141608566Y-68963369D01*
X141375912Y-68867000D01*
X140287250Y-68867000D01*
X140129000Y-69025250D01*
X139871000Y-69025250D01*
X139712750Y-68867000D01*
X138624088Y-68867000D01*
X138391434Y-68963369D01*
X138213368Y-69141435D01*
X138117000Y-69374089D01*
X137993000Y-69374089D01*
X137993000Y-69152250D01*
X137834750Y-68994000D01*
X136879000Y-68994000D01*
X136621000Y-68994000D01*
X135665250Y-68994000D01*
X135507000Y-69152250D01*
X134651134Y-69152250D01*
X134556942Y-69058058D01*
X134507346Y-69024919D01*
X134507346Y-69000000D01*
X134481198Y-68861034D01*
X134399069Y-68733401D01*
X134273754Y-68647777D01*
X134125000Y-68617654D01*
X132875000Y-68617654D01*
X132736034Y-68643802D01*
X132608401Y-68725931D01*
X132522777Y-68851246D01*
X132517967Y-68875000D01*
X130750000Y-68875000D01*
X130510823Y-68922575D01*
X130308058Y-69058058D01*
X127808058Y-71558058D01*
X127672575Y-71760823D01*
X127651325Y-71867654D01*
X127000000Y-71867654D01*
X126861034Y-71893802D01*
X126733401Y-71975931D01*
X126647777Y-72101246D01*
X126617654Y-72250000D01*
X125682346Y-72250000D01*
X125656198Y-72111034D01*
X125574069Y-71983401D01*
X125448754Y-71897777D01*
X125300000Y-71867654D01*
X121800000Y-71867654D01*
X121661034Y-71893802D01*
X121533401Y-71975931D01*
X121447777Y-72101246D01*
X121417654Y-72250000D01*
X121417654Y-77750000D01*
X121443802Y-77888966D01*
X121525931Y-78016599D01*
X121651246Y-78102223D01*
X121800000Y-78132346D01*
X124187880Y-78132346D01*
X125875000Y-79819465D01*
X125875000Y-80091174D01*
X125861034Y-80093802D01*
X125733401Y-80175931D01*
X125647777Y-80301246D01*
X125617654Y-80450000D01*
X125617654Y-82050000D01*
X125643802Y-82188966D01*
X125725931Y-82316599D01*
X125811404Y-82375000D01*
X122900136Y-82375000D01*
X122892649Y-82337360D01*
X122800520Y-82199480D01*
X122662640Y-82107351D01*
X122500000Y-82075000D01*
X120425000Y-82075000D01*
X120425000Y-68284089D01*
X135507000Y-68284089D01*
X135507000Y-68577750D01*
X135665250Y-68736000D01*
X136621000Y-68736000D01*
X136621000Y-67935250D01*
X136879000Y-67935250D01*
X136879000Y-68736000D01*
X137834750Y-68736000D01*
X137993000Y-68577750D01*
X137993000Y-68284089D01*
X137896632Y-68051435D01*
X137718566Y-67873369D01*
X137485912Y-67777000D01*
X137037250Y-67777000D01*
X136879000Y-67935250D01*
X136621000Y-67935250D01*
X136462750Y-67777000D01*
X136014088Y-67777000D01*
X135781434Y-67873369D01*
X135603368Y-68051435D01*
X135507000Y-68284089D01*
X120425000Y-68284089D01*
X120425000Y-65425000D01*
X158625000Y-65425000D01*
X158625000Y-82375000D01*
M02*
