G04 #@! TF.FileFunction,Soldermask,Bot*
%FSLAX46Y46*%
G04 Gerber Fmt 4.6, Leading zero omitted, Abs format (unit mm)*
G04 Created by KiCad (PCBNEW 4.0.4+dfsg1-stable) date Sat Dec  3 18:58:41 2016*
%MOMM*%
%LPD*%
G01*
G04 APERTURE LIST*
%ADD10C,0.100000*%
%ADD11C,3.200000*%
%ADD12C,1.400000*%
%ADD13C,1.000760*%
%ADD14R,1.600000X2.500000*%
%ADD15C,0.600000*%
%ADD16R,1.000000X2.800000*%
%ADD17R,3.000000X1.500000*%
%ADD18C,1.500000*%
%ADD19C,1.000000*%
G04 APERTURE END LIST*
D10*
D11*
X166250000Y-121250000D03*
D12*
X148750000Y-80000000D03*
X146250000Y-80000000D03*
X143750000Y-80000000D03*
X141250000Y-80000000D03*
X148750000Y-85000000D03*
X146250000Y-85000000D03*
X143750000Y-85000000D03*
X141250000Y-85000000D03*
D13*
X133250000Y-98249300D03*
X133250000Y-96750700D03*
D14*
X145000000Y-122000000D03*
D15*
X145400000Y-121150000D03*
X145400000Y-122850000D03*
X145400000Y-122000000D03*
X144600000Y-121150000D03*
X144600000Y-122850000D03*
X144600000Y-122000000D03*
D16*
X135580000Y-92300000D03*
X135580000Y-87500000D03*
X133040000Y-92300000D03*
X133040000Y-87500000D03*
X130500000Y-92300000D03*
X130500000Y-87500000D03*
X127960000Y-92300000D03*
X127960000Y-87500000D03*
X125420000Y-92300000D03*
X125420000Y-87500000D03*
X164620000Y-92300000D03*
X164620000Y-87500000D03*
X162080000Y-92300000D03*
X162080000Y-87500000D03*
X159540000Y-92300000D03*
X159540000Y-87500000D03*
X157000000Y-92300000D03*
X157000000Y-87500000D03*
X154460000Y-92300000D03*
X154460000Y-87500000D03*
D11*
X166250000Y-68750000D03*
X123750000Y-68750000D03*
X123750000Y-121250000D03*
D17*
X158000000Y-101670000D03*
X162500000Y-102940000D03*
X158000000Y-104210000D03*
X162500000Y-105480000D03*
X158000000Y-106750000D03*
X162500000Y-108020000D03*
X158000000Y-109290000D03*
X162500000Y-110560000D03*
X158000000Y-111830000D03*
X162500000Y-113100000D03*
D18*
X137500000Y-98500000D03*
D16*
X130540000Y-113300000D03*
X130540000Y-108500000D03*
X128000000Y-113300000D03*
X128000000Y-108500000D03*
X125460000Y-113300000D03*
X125460000Y-108500000D03*
D19*
X140500000Y-94000000D03*
X142500000Y-94000000D03*
M02*
