G04 #@! TF.GenerationSoftware,KiCad,Pcbnew,no-vcs-found-7433~57~ubuntu16.10.1*
G04 #@! TF.CreationDate,2017-01-11T21:44:38+01:00*
G04 #@! TF.ProjectId,can-node,63616E2D6E6F64652E6B696361645F70,rev?*
G04 #@! TF.FileFunction,Copper,L2,Bot,Signal*
G04 #@! TF.FilePolarity,Positive*
%FSLAX46Y46*%
G04 Gerber Fmt 4.6, Leading zero omitted, Abs format (unit mm)*
G04 Created by KiCad (PCBNEW no-vcs-found-7433~57~ubuntu16.10.1) date Wed Jan 11 21:44:38 2017*
%MOMM*%
%LPD*%
G01*
G04 APERTURE LIST*
%ADD10C,0.100000*%
%ADD11C,1.500000*%
%ADD12R,3.000000X1.500000*%
%ADD13C,1.000000*%
%ADD14R,1.600000X2.500000*%
%ADD15C,0.600000*%
%ADD16R,0.900000X0.800000*%
%ADD17R,0.800000X0.900000*%
%ADD18R,0.400000X0.600000*%
%ADD19R,0.600000X0.400000*%
%ADD20C,1.400000*%
%ADD21C,0.250000*%
%ADD22C,0.500000*%
%ADD23C,0.750000*%
G04 APERTURE END LIST*
D10*
D11*
X136110000Y-78420000D03*
X138650000Y-78420000D03*
X141190000Y-78420000D03*
X143730000Y-78420000D03*
X148810000Y-78420000D03*
X153890000Y-78420000D03*
X153890000Y-88580000D03*
X151350000Y-88580000D03*
X148810000Y-88580000D03*
X146270000Y-88580000D03*
X143730000Y-88580000D03*
X141190000Y-88580000D03*
X138650000Y-88580000D03*
X136110000Y-88580000D03*
D12*
X160500000Y-89920000D03*
X165000000Y-91190000D03*
X160500000Y-92460000D03*
X165000000Y-93730000D03*
X160500000Y-95000000D03*
X165000000Y-96270000D03*
X160500000Y-97540000D03*
X165000000Y-98810000D03*
X160500000Y-100080000D03*
X165000000Y-101350000D03*
D13*
X128900000Y-71100000D03*
X136000000Y-73000000D03*
X157800000Y-66800000D03*
X146000000Y-67600000D03*
X146000000Y-69250000D03*
X150876000Y-108712000D03*
X149352000Y-108712000D03*
D14*
X145000000Y-122000000D03*
D15*
X145400000Y-121150000D03*
X145400000Y-122850000D03*
X145400000Y-122000000D03*
X144600000Y-121150000D03*
X144600000Y-122850000D03*
X144600000Y-122000000D03*
D16*
X130250000Y-83700000D03*
X130250000Y-81800000D03*
X132250000Y-82750000D03*
X132250000Y-79250000D03*
X130250000Y-78300000D03*
X130250000Y-80200000D03*
X130250000Y-87200000D03*
X130250000Y-85300000D03*
X132250000Y-86250000D03*
D17*
X141250000Y-83500000D03*
X142200000Y-81500000D03*
X140300000Y-81500000D03*
X145300000Y-81500000D03*
X147200000Y-81500000D03*
X146250000Y-83500000D03*
X150000000Y-80500000D03*
X149050000Y-82500000D03*
X150950000Y-82500000D03*
D16*
X133750000Y-81950000D03*
X133750000Y-80050000D03*
X135750000Y-81000000D03*
X152750000Y-83500000D03*
X154750000Y-84450000D03*
X154750000Y-82550000D03*
D17*
X134050000Y-84750000D03*
X135950000Y-84750000D03*
X135000000Y-86750000D03*
X138750000Y-86750000D03*
X139700000Y-84750000D03*
X137800000Y-84750000D03*
X148750000Y-86750000D03*
X149700000Y-84750000D03*
X147800000Y-84750000D03*
D16*
X156734000Y-83566000D03*
X158734000Y-84516000D03*
X158734000Y-82616000D03*
D17*
X142800000Y-84750000D03*
X144700000Y-84750000D03*
X143750000Y-86750000D03*
D18*
X141200000Y-80000000D03*
X140300000Y-80000000D03*
X133550000Y-78500000D03*
X134450000Y-78500000D03*
D19*
X143750000Y-79850000D03*
X143750000Y-80750000D03*
X141250000Y-86050000D03*
X141250000Y-86950000D03*
X146250000Y-86050000D03*
X146250000Y-86950000D03*
X147000000Y-78300000D03*
X147000000Y-79200000D03*
D18*
X137000000Y-80000000D03*
X137900000Y-80000000D03*
D19*
X151250000Y-86650000D03*
X151250000Y-85750000D03*
D13*
X160782000Y-79756000D03*
X152400000Y-103378000D03*
D20*
X126500000Y-91250000D03*
X126500000Y-93750000D03*
X126500000Y-96250000D03*
X126500000Y-98750000D03*
X131500000Y-91250000D03*
X131500000Y-93750000D03*
X131500000Y-96250000D03*
X131500000Y-98750000D03*
D13*
X153670000Y-104600000D03*
X152400000Y-104600000D03*
X151100000Y-104600000D03*
X149800000Y-104600000D03*
D11*
X135890000Y-102870000D03*
D13*
X158100000Y-106500000D03*
X156900000Y-106500000D03*
X154100000Y-109600000D03*
X154400000Y-94900000D03*
X155100000Y-91800000D03*
X156500000Y-91900000D03*
X157200000Y-98300000D03*
X153100000Y-94900000D03*
D11*
X135890000Y-113030000D03*
D15*
X145600000Y-70500000D03*
X136600000Y-73600000D03*
X121920000Y-102870000D03*
X121920000Y-113030000D03*
X158496000Y-91186000D03*
X157480000Y-100076000D03*
X156466279Y-108783658D03*
X157000000Y-109499988D03*
X139373002Y-102049466D03*
X125000000Y-83000000D03*
X121500000Y-83000000D03*
X152900000Y-86000000D03*
X157000000Y-88000000D03*
X168000000Y-86000000D03*
X136000000Y-76000000D03*
X145000000Y-66000000D03*
X128000000Y-66000000D03*
X136000000Y-66000000D03*
X135400000Y-100900000D03*
X135300000Y-97300000D03*
X135800000Y-94500000D03*
X141700000Y-101300000D03*
X164900000Y-100060002D03*
X164500000Y-108000000D03*
X151400000Y-113100000D03*
X144800000Y-113099992D03*
X152000000Y-109500000D03*
X158000000Y-80000000D03*
X165000000Y-80000002D03*
X144018000Y-91440000D03*
X145796000Y-93980000D03*
X148336000Y-96012000D03*
X148844000Y-90170000D03*
X153391467Y-93524635D03*
X160042957Y-113082298D03*
X169250000Y-96250000D03*
X169250000Y-105000000D03*
X167374990Y-113604093D03*
X129000000Y-85500000D03*
X129000000Y-82000000D03*
X129000000Y-78500000D03*
X147500000Y-68750000D03*
X124000000Y-72500000D03*
X145750000Y-75500000D03*
X162500000Y-66750000D03*
X165000000Y-75000000D03*
X153500000Y-75250000D03*
X156500000Y-66500000D03*
X155600004Y-110300000D03*
X139900000Y-85999998D03*
X137099994Y-86000000D03*
X159766000Y-79756000D03*
X162750000Y-91000000D03*
X157500000Y-81500000D03*
X150750000Y-84000000D03*
X144750000Y-86000000D03*
X149822807Y-94206706D03*
X143861784Y-104522114D03*
X144800000Y-111699996D03*
X166500000Y-103620010D03*
X153955166Y-103017696D03*
X160500000Y-107500000D03*
X148338460Y-100432692D03*
X139852970Y-114081930D03*
X150114000Y-113928990D03*
X162712479Y-99450868D03*
X158496000Y-93726000D03*
X148200000Y-67600000D03*
X130200000Y-116200000D03*
X165728755Y-107655143D03*
X149352000Y-109728000D03*
X150857100Y-109625002D03*
X156484678Y-97605329D03*
X157400000Y-107874998D03*
X156500000Y-94000000D03*
X155200000Y-97425010D03*
X155874990Y-93300000D03*
X155859668Y-96800000D03*
X159500000Y-98750000D03*
X162750000Y-100250000D03*
X167500000Y-96600000D03*
X150305453Y-100600045D03*
X151680213Y-101285091D03*
X150441098Y-101850057D03*
X151000000Y-97999996D03*
X153087791Y-98788105D03*
X157226000Y-93472000D03*
X157700000Y-96900000D03*
X153809212Y-100089145D03*
X154100008Y-100900000D03*
X154849994Y-108013378D03*
X156500000Y-105400000D03*
X154146043Y-102240789D03*
X157168024Y-102100000D03*
X150400000Y-103700000D03*
X152658404Y-105788061D03*
X151552000Y-105130000D03*
X153162000Y-107700002D03*
X153763447Y-108433314D03*
X129800000Y-71300000D03*
X154601405Y-108793933D03*
X156440840Y-107984051D03*
D21*
X145600000Y-70500000D02*
X145600000Y-69650000D01*
X145600000Y-69650000D02*
X146000000Y-69250000D01*
X136000000Y-73000000D02*
X136600000Y-73600000D01*
D22*
X121920000Y-113030000D02*
X121920000Y-102870000D01*
X169250000Y-101300000D02*
X169250000Y-102870000D01*
X169250000Y-102870000D02*
X169250000Y-105000000D01*
X169250000Y-102870000D02*
X160274000Y-102870000D01*
X160274000Y-102870000D02*
X157480000Y-100076000D01*
D21*
X157000000Y-109924252D02*
X157000000Y-109499988D01*
X157000000Y-110039341D02*
X157000000Y-109924252D01*
X160042957Y-113082298D02*
X157000000Y-110039341D01*
D23*
X121500000Y-83000000D02*
X125000000Y-83000000D01*
D22*
X145750000Y-75500000D02*
X136500000Y-75500000D01*
X136500000Y-75500000D02*
X136000000Y-76000000D01*
X145000000Y-66000000D02*
X145299999Y-65700001D01*
X145299999Y-65700001D02*
X161450001Y-65700001D01*
X162200001Y-66450001D02*
X162500000Y-66750000D01*
X161450001Y-65700001D02*
X162200001Y-66450001D01*
X128000000Y-66424264D02*
X128000000Y-66000000D01*
X128000000Y-68500000D02*
X128000000Y-66424264D01*
X124000000Y-72500000D02*
X128000000Y-68500000D01*
X136250000Y-66000000D02*
X136000000Y-66000000D01*
X145750000Y-75500000D02*
X136250000Y-66000000D01*
D21*
X135400000Y-100900000D02*
X135400000Y-97400000D01*
X135400000Y-97400000D02*
X135300000Y-97300000D01*
D22*
X164900000Y-100060002D02*
X164900000Y-101250000D01*
X164900000Y-101250000D02*
X165000000Y-101350000D01*
X169250000Y-96250000D02*
X169250000Y-101300000D01*
D21*
X165000000Y-101350000D02*
X166750000Y-101350000D01*
X166750000Y-101350000D02*
X166800000Y-101300000D01*
X166800000Y-101300000D02*
X169250000Y-101300000D01*
X160500000Y-100080000D02*
X160500000Y-101080000D01*
X160500000Y-101080000D02*
X160770000Y-101350000D01*
X160770000Y-101350000D02*
X163250000Y-101350000D01*
X163250000Y-101350000D02*
X165000000Y-101350000D01*
X167500000Y-105000000D02*
X169250000Y-105000000D01*
X164500000Y-108000000D02*
X167500000Y-105000000D01*
D22*
X144800008Y-113100000D02*
X144800000Y-113099992D01*
X151400000Y-113100000D02*
X144800008Y-113100000D01*
X165000000Y-80000002D02*
X163799998Y-78800000D01*
X163799998Y-78800000D02*
X159200000Y-78800000D01*
X158299999Y-79700001D02*
X158000000Y-80000000D01*
X159200000Y-78800000D02*
X158299999Y-79700001D01*
D21*
X145796000Y-93980000D02*
X145796000Y-93218000D01*
X145796000Y-93218000D02*
X144018000Y-91440000D01*
X148336000Y-96012000D02*
X146304000Y-93980000D01*
X146304000Y-93980000D02*
X145796000Y-93980000D01*
D22*
X153391467Y-93524635D02*
X152198635Y-93524635D01*
X152198635Y-93524635D02*
X148844000Y-90170000D01*
X160467221Y-113082298D02*
X160042957Y-113082298D01*
X167374990Y-113604093D02*
X166853195Y-113082298D01*
X166853195Y-113082298D02*
X160467221Y-113082298D01*
D21*
X130250000Y-85300000D02*
X129200000Y-85300000D01*
X129200000Y-85300000D02*
X129000000Y-85500000D01*
X130250000Y-81800000D02*
X129200000Y-81800000D01*
X129200000Y-81800000D02*
X129000000Y-82000000D01*
X130250000Y-78300000D02*
X129200000Y-78300000D01*
X129200000Y-78300000D02*
X129000000Y-78500000D01*
D22*
X153500000Y-75250000D02*
X164750000Y-75250000D01*
X164750000Y-75250000D02*
X165000000Y-75000000D01*
D21*
X156500000Y-66500000D02*
X157500000Y-66500000D01*
X157500000Y-66500000D02*
X157800000Y-66800000D01*
D22*
X149822807Y-94206706D02*
X150122806Y-94506705D01*
X150122806Y-94506705D02*
X150544583Y-94506705D01*
X150544583Y-94506705D02*
X155600000Y-99562122D01*
X155600000Y-99562122D02*
X155600000Y-106428042D01*
X155600000Y-106428042D02*
X155600004Y-106428046D01*
X155600004Y-106428046D02*
X155600004Y-109875736D01*
X155600004Y-109875736D02*
X155600004Y-110300000D01*
X155300005Y-110599999D02*
X155600004Y-110300000D01*
X154200008Y-111699996D02*
X155300005Y-110599999D01*
X144800000Y-111699996D02*
X154200008Y-111699996D01*
X142500000Y-107400000D02*
X142500000Y-106940000D01*
X142500000Y-106940000D02*
X138430000Y-102870000D01*
X138430000Y-102870000D02*
X135890000Y-102870000D01*
X142500000Y-107400000D02*
X142500000Y-105883898D01*
X142500000Y-109399996D02*
X142500000Y-107400000D01*
D21*
X139700000Y-85799998D02*
X139900000Y-85999998D01*
X139700000Y-84750000D02*
X139700000Y-85799998D01*
X137099994Y-85949994D02*
X137099994Y-86000000D01*
X135950000Y-84800000D02*
X137099994Y-85949994D01*
X135950000Y-84750000D02*
X135950000Y-84800000D01*
X160782000Y-79756000D02*
X159766000Y-79756000D01*
X158734000Y-84516000D02*
X158734000Y-88904000D01*
X158734000Y-88904000D02*
X159750000Y-89920000D01*
X159750000Y-89920000D02*
X160500000Y-89920000D01*
D22*
X162750000Y-91000000D02*
X161580000Y-91000000D01*
X161580000Y-91000000D02*
X160500000Y-89920000D01*
X162750000Y-91000000D02*
X164810000Y-91000000D01*
X164810000Y-91000000D02*
X165000000Y-91190000D01*
D21*
X153314998Y-81500000D02*
X157500000Y-81500000D01*
X150750000Y-84000000D02*
X151049999Y-83700001D01*
X151049999Y-83700001D02*
X151114997Y-83700001D01*
X151114997Y-83700001D02*
X153314998Y-81500000D01*
X150750000Y-84000000D02*
X150450000Y-84000000D01*
X150450000Y-84000000D02*
X149700000Y-84750000D01*
X144750000Y-86000000D02*
X144750000Y-84800000D01*
X144750000Y-84800000D02*
X144700000Y-84750000D01*
X139700000Y-84700000D02*
X139700000Y-84750000D01*
X138974999Y-83974999D02*
X139700000Y-84700000D01*
X135950000Y-84750000D02*
X136364998Y-84750000D01*
X136364998Y-84750000D02*
X137139999Y-83974999D01*
X137139999Y-83974999D02*
X138974999Y-83974999D01*
D22*
X143561785Y-104822113D02*
X143861784Y-104522114D01*
X142500000Y-105883898D02*
X143561785Y-104822113D01*
X144800000Y-111699996D02*
X142500000Y-109399996D01*
D21*
X164379990Y-103620010D02*
X166075736Y-103620010D01*
X160500000Y-107500000D02*
X164379990Y-103620010D01*
X166075736Y-103620010D02*
X166500000Y-103620010D01*
X153500000Y-102000000D02*
X153500000Y-102562530D01*
X153655167Y-102717697D02*
X153955166Y-103017696D01*
X153500000Y-102562530D02*
X153655167Y-102717697D01*
X148796117Y-99975035D02*
X151475035Y-99975035D01*
X151475035Y-99975035D02*
X153500000Y-102000000D01*
X148338460Y-100432692D02*
X148796117Y-99975035D01*
X150114000Y-113928990D02*
X140005910Y-113928990D01*
X140005910Y-113928990D02*
X139852970Y-114081930D01*
X162712479Y-96917477D02*
X162712479Y-99026604D01*
X157870999Y-95206001D02*
X159129997Y-96464999D01*
X157870999Y-93339001D02*
X157870999Y-95206001D01*
X160500000Y-92460000D02*
X158750000Y-92460000D01*
X158750000Y-92460000D02*
X157870999Y-93339001D01*
X159129997Y-96464999D02*
X162260001Y-96464999D01*
X162260001Y-96464999D02*
X162712479Y-96917477D01*
X162712479Y-99026604D02*
X162712479Y-99450868D01*
X158500000Y-93730000D02*
X158496000Y-93726000D01*
X165000000Y-93730000D02*
X158500000Y-93730000D01*
X146000000Y-67600000D02*
X148200000Y-67600000D01*
X130200000Y-116200000D02*
X131592000Y-114808000D01*
X131592000Y-114808000D02*
X168192000Y-114808000D01*
X168192000Y-114808000D02*
X169200000Y-113800000D01*
X169200000Y-113800000D02*
X169200000Y-111126388D01*
X169200000Y-111126388D02*
X166028754Y-107955142D01*
X166028754Y-107955142D02*
X165728755Y-107655143D01*
X149352000Y-109728000D02*
X149352000Y-108712000D01*
X150876000Y-109606102D02*
X150857100Y-109625002D01*
X150876000Y-108712000D02*
X150876000Y-109606102D01*
X156505329Y-97605329D02*
X156484678Y-97605329D01*
X157200000Y-98300000D02*
X156505329Y-97605329D01*
X157400000Y-107874998D02*
X157400000Y-107200000D01*
X157400000Y-107200000D02*
X158100000Y-106500000D01*
X156500000Y-94000000D02*
X156500000Y-92607106D01*
X156500000Y-92607106D02*
X156500000Y-91900000D01*
X153599999Y-95399999D02*
X153599999Y-95825009D01*
X153100000Y-94900000D02*
X153599999Y-95399999D01*
X153599999Y-95825009D02*
X155200000Y-97425010D01*
X155100000Y-92525010D02*
X155574991Y-93000001D01*
X155100000Y-91800000D02*
X155100000Y-92525010D01*
X155574991Y-93000001D02*
X155874990Y-93300000D01*
X154400000Y-94900000D02*
X155859668Y-96359668D01*
X155859668Y-96375736D02*
X155859668Y-96800000D01*
X155859668Y-96359668D02*
X155859668Y-96375736D01*
X159500000Y-98750000D02*
X159500000Y-98540000D01*
X159500000Y-98540000D02*
X160500000Y-97540000D01*
X162810000Y-100250000D02*
X162750000Y-100250000D01*
X164250000Y-98810000D02*
X162810000Y-100250000D01*
X165000000Y-98810000D02*
X164250000Y-98810000D01*
X167500000Y-96600000D02*
X167500000Y-95934998D01*
X166565002Y-95000000D02*
X162250000Y-95000000D01*
X167500000Y-95934998D02*
X166565002Y-95000000D01*
X162250000Y-95000000D02*
X160500000Y-95000000D01*
X136110000Y-88580000D02*
X136110000Y-87860000D01*
X136110000Y-87860000D02*
X135000000Y-86750000D01*
X138750000Y-86750000D02*
X138750000Y-88480000D01*
X138750000Y-88480000D02*
X138650000Y-88580000D01*
X141250000Y-86950000D02*
X141250000Y-88520000D01*
X141250000Y-88520000D02*
X141190000Y-88580000D01*
X143750000Y-86750000D02*
X143750000Y-88560000D01*
X143750000Y-88560000D02*
X143730000Y-88580000D01*
X146250000Y-86950000D02*
X146250000Y-88560000D01*
X146250000Y-88560000D02*
X146270000Y-88580000D01*
X148750000Y-86750000D02*
X148750000Y-88520000D01*
X148750000Y-88520000D02*
X148810000Y-88580000D01*
X151250000Y-86650000D02*
X151250000Y-88480000D01*
X151250000Y-88480000D02*
X151350000Y-88580000D01*
X153890000Y-88580000D02*
X156734000Y-85736000D01*
X156734000Y-85736000D02*
X156734000Y-83566000D01*
X147000000Y-78300000D02*
X148690000Y-78300000D01*
X148690000Y-78300000D02*
X148810000Y-78420000D01*
X143750000Y-79850000D02*
X143750000Y-78440000D01*
X143750000Y-78440000D02*
X143730000Y-78420000D01*
X141200000Y-80000000D02*
X141200000Y-78430000D01*
X141200000Y-78430000D02*
X141190000Y-78420000D01*
X137900000Y-80000000D02*
X137900000Y-79170000D01*
X137900000Y-79170000D02*
X138650000Y-78420000D01*
X134450000Y-78500000D02*
X136030000Y-78500000D01*
X136030000Y-78500000D02*
X136110000Y-78420000D01*
X133039999Y-81224999D02*
X132250000Y-82014998D01*
X132250000Y-82100000D02*
X132250000Y-82750000D01*
X134960003Y-81725001D02*
X134460001Y-81224999D01*
X140300000Y-80000000D02*
X139850000Y-80000000D01*
X139850000Y-80000000D02*
X138124999Y-81725001D01*
X138124999Y-81725001D02*
X134960003Y-81725001D01*
X134460001Y-81224999D02*
X133039999Y-81224999D01*
X132250000Y-82014998D02*
X132250000Y-82100000D01*
X132250000Y-85600000D02*
X132250000Y-86250000D01*
X133565009Y-83799989D02*
X132250000Y-85114998D01*
X136953599Y-83524988D02*
X136678599Y-83799989D01*
X136961423Y-83524988D02*
X136953599Y-83524988D01*
X132250000Y-85114998D02*
X132250000Y-85600000D01*
X143174999Y-80724999D02*
X139761412Y-80724999D01*
X139761412Y-80724999D02*
X136961423Y-83524988D01*
X143200000Y-80750000D02*
X143174999Y-80724999D01*
X136678599Y-83799989D02*
X133565009Y-83799989D01*
X143750000Y-80750000D02*
X143200000Y-80750000D01*
X146250000Y-83500000D02*
X146250000Y-84200000D01*
X146250000Y-84200000D02*
X146250000Y-86050000D01*
X135750000Y-81000000D02*
X136000000Y-81000000D01*
X136000000Y-81000000D02*
X137000000Y-80000000D01*
X129550000Y-83700000D02*
X128374999Y-84875001D01*
X131977169Y-88049989D02*
X146402238Y-102475058D01*
X150741099Y-102475058D02*
X151066099Y-102150058D01*
X150605452Y-100900044D02*
X150305453Y-100600045D01*
X128374999Y-84875001D02*
X128374999Y-86760001D01*
X129664987Y-88049989D02*
X131977169Y-88049989D01*
X146402238Y-102475058D02*
X150741099Y-102475058D01*
X150605452Y-101089409D02*
X150605452Y-100900044D01*
X130250000Y-83700000D02*
X129550000Y-83700000D01*
X151066099Y-101550056D02*
X150605452Y-101089409D01*
X151066099Y-102150058D02*
X151066099Y-101550056D01*
X128374999Y-86760001D02*
X129664987Y-88049989D01*
X146215839Y-102925069D02*
X150927499Y-102925069D01*
X131790770Y-88500000D02*
X146215839Y-102925069D01*
X130250000Y-80200000D02*
X129550000Y-80200000D01*
X129478587Y-88500000D02*
X131790770Y-88500000D01*
X150927499Y-102925069D02*
X151680213Y-102172355D01*
X151680213Y-102172355D02*
X151680213Y-101709355D01*
X129550000Y-80200000D02*
X127924988Y-81825012D01*
X127924988Y-86946401D02*
X129478587Y-88500000D01*
X151680213Y-101709355D02*
X151680213Y-101285091D01*
X127924988Y-81825012D02*
X127924988Y-86946401D01*
X130250000Y-87200000D02*
X130950000Y-87200000D01*
X146413647Y-101850057D02*
X150016834Y-101850057D01*
X131349978Y-87599978D02*
X132163568Y-87599978D01*
X132163568Y-87599978D02*
X146413647Y-101850057D01*
X130950000Y-87200000D02*
X131349978Y-87599978D01*
X150016834Y-101850057D02*
X150441098Y-101850057D01*
X140300000Y-81500000D02*
X140300000Y-83985002D01*
X150575736Y-97999996D02*
X151000000Y-97999996D01*
X146249996Y-97999996D02*
X150575736Y-97999996D01*
X140114999Y-91864999D02*
X146249996Y-97999996D01*
X140525005Y-84210007D02*
X140525005Y-86474995D01*
X140300000Y-83985002D02*
X140525005Y-84210007D01*
X140525005Y-86474995D02*
X140114999Y-86885001D01*
X140114999Y-86885001D02*
X140114999Y-91864999D01*
X153087791Y-98662787D02*
X153087791Y-98788105D01*
X144250000Y-90250000D02*
X150874998Y-96874998D01*
X150874998Y-96874998D02*
X151300002Y-96874998D01*
X151300002Y-96874998D02*
X153087791Y-98662787D01*
X142500000Y-90250000D02*
X144250000Y-90250000D01*
X142800000Y-87700000D02*
X142500000Y-88000000D01*
X142800000Y-84750000D02*
X142800000Y-87700000D01*
X142500000Y-88000000D02*
X142500000Y-90250000D01*
X157226000Y-93047736D02*
X157226000Y-93472000D01*
X157958999Y-90797999D02*
X157870999Y-90885999D01*
X157958999Y-83341001D02*
X157958999Y-90797999D01*
X158684000Y-82616000D02*
X157958999Y-83341001D01*
X158734000Y-82616000D02*
X158684000Y-82616000D01*
X157870999Y-92402737D02*
X157226000Y-93047736D01*
X157870999Y-90885999D02*
X157870999Y-92402737D01*
X149885001Y-89085001D02*
X157400001Y-96600001D01*
X149885001Y-86449999D02*
X149885001Y-89085001D01*
X157400001Y-96600001D02*
X157700000Y-96900000D01*
X148885002Y-85450000D02*
X149885001Y-86449999D01*
X148450000Y-85450000D02*
X148885002Y-85450000D01*
X147800000Y-84800000D02*
X148450000Y-85450000D01*
X147800000Y-84750000D02*
X147800000Y-84800000D01*
X153509213Y-99789146D02*
X153809212Y-100089145D01*
X137800000Y-87838998D02*
X137574999Y-88063999D01*
X137574999Y-89961409D02*
X146238596Y-98625006D01*
X152034237Y-98625006D02*
X153198377Y-99789146D01*
X137574999Y-88063999D02*
X137574999Y-89961409D01*
X137800000Y-84750000D02*
X137800000Y-87838998D01*
X146238596Y-98625006D02*
X152034237Y-98625006D01*
X153198377Y-99789146D02*
X153509213Y-99789146D01*
X145047834Y-99075013D02*
X151847834Y-99075013D01*
X134050000Y-88077179D02*
X145047834Y-99075013D01*
X153675744Y-100900000D02*
X154100008Y-100900000D01*
X134050000Y-84750000D02*
X134050000Y-88077179D01*
X151847834Y-99075013D02*
X153672821Y-100900000D01*
X153672821Y-100900000D02*
X153675744Y-100900000D01*
X154849994Y-107589114D02*
X154849994Y-108013378D01*
X154849994Y-99625304D02*
X154849994Y-107589114D01*
X151116084Y-96424987D02*
X151649677Y-96424987D01*
X151649677Y-96424987D02*
X154849994Y-99625304D01*
X145194999Y-90503902D02*
X151116084Y-96424987D01*
X145624999Y-87410001D02*
X145194999Y-87840001D01*
X145300000Y-83985002D02*
X145624999Y-84310001D01*
X145300000Y-81500000D02*
X145300000Y-83985002D01*
X145194999Y-87840001D02*
X145194999Y-90503902D01*
X145624999Y-84310001D02*
X145624999Y-87410001D01*
X147000000Y-87718998D02*
X147734999Y-88453997D01*
X156200001Y-105100001D02*
X156500000Y-105400000D01*
X156200001Y-99348935D02*
X156200001Y-105100001D01*
X147734999Y-88453997D02*
X147734999Y-90883933D01*
X147734999Y-90883933D02*
X156200001Y-99348935D01*
X147000000Y-84114998D02*
X147000000Y-87718998D01*
X147139999Y-83974999D02*
X147000000Y-84114998D01*
X149525001Y-83974999D02*
X147139999Y-83974999D01*
X150950000Y-82550000D02*
X149525001Y-83974999D01*
X150950000Y-82500000D02*
X150950000Y-82550000D01*
X131474999Y-86910000D02*
X131714965Y-87149967D01*
X151661434Y-99525024D02*
X154146043Y-102009633D01*
X131474999Y-84875001D02*
X131474999Y-86910000D01*
X133750000Y-81950000D02*
X133750000Y-82600000D01*
X131714965Y-87149967D02*
X132349967Y-87149967D01*
X144725024Y-99525024D02*
X151661434Y-99525024D01*
X132349967Y-87149967D02*
X144725024Y-99525024D01*
X154146043Y-102009633D02*
X154146043Y-102240789D01*
X133750000Y-82600000D02*
X131474999Y-84875001D01*
X156854998Y-99775998D02*
X156854998Y-101786974D01*
X156868025Y-101800001D02*
X157168024Y-102100000D01*
X156854998Y-101786974D02*
X156868025Y-101800001D01*
X157433998Y-99450998D02*
X157179998Y-99450998D01*
X158425002Y-96599998D02*
X158425002Y-98459994D01*
X157746488Y-96171490D02*
X157996494Y-96171490D01*
X157179998Y-99450998D02*
X156854998Y-99775998D01*
X152814999Y-91240001D02*
X157746488Y-96171490D01*
X153974999Y-86903999D02*
X152814999Y-88063999D01*
X154700000Y-82550000D02*
X153974999Y-83275001D01*
X157996494Y-96171490D02*
X158425002Y-96599998D01*
X153974999Y-83275001D02*
X153974999Y-86903999D01*
X158425002Y-98459994D02*
X157433998Y-99450998D01*
X154750000Y-82550000D02*
X154700000Y-82550000D01*
X152814999Y-88063999D02*
X152814999Y-91240001D01*
X150722000Y-103378000D02*
X150699999Y-103400001D01*
X152400000Y-103378000D02*
X150722000Y-103378000D01*
X150699999Y-103400001D02*
X150400000Y-103700000D01*
X133550000Y-78500000D02*
X133000000Y-78500000D01*
X133000000Y-78500000D02*
X132250000Y-79250000D01*
X141250000Y-86050000D02*
X141250000Y-83500000D01*
X147000000Y-79650000D02*
X147000000Y-79200000D01*
X150000000Y-80500000D02*
X147850000Y-80500000D01*
X147850000Y-80500000D02*
X147000000Y-79650000D01*
X151250000Y-85750000D02*
X151250000Y-84950000D01*
X151250000Y-84950000D02*
X152700000Y-83500000D01*
X152700000Y-83500000D02*
X152750000Y-83500000D01*
X152234140Y-105788061D02*
X152658404Y-105788061D01*
X149800000Y-104600000D02*
X150988061Y-105788061D01*
X150988061Y-105788061D02*
X152234140Y-105788061D01*
X151552000Y-105130000D02*
X151552000Y-105052000D01*
X151552000Y-105052000D02*
X151100000Y-104600000D01*
X152448022Y-104648000D02*
X152400000Y-104648000D01*
X153670000Y-105869978D02*
X152448022Y-104648000D01*
X153670000Y-105918000D02*
X153670000Y-105869978D01*
X152400000Y-104600000D02*
X153670000Y-105870000D01*
X153670000Y-105870000D02*
X153670000Y-105918000D01*
X153162000Y-107700002D02*
X153411998Y-107700002D01*
X153411998Y-107700002D02*
X153670000Y-107442000D01*
X153670000Y-107442000D02*
X153670000Y-105918000D01*
X153763447Y-108433314D02*
X154169999Y-108026762D01*
X154169999Y-105099999D02*
X153670000Y-104600000D01*
X154169999Y-108026762D02*
X154169999Y-105099999D01*
X129800000Y-71300000D02*
X129100000Y-71300000D01*
X129100000Y-71300000D02*
X128900000Y-71100000D01*
X154100000Y-109600000D02*
X154601405Y-109098595D01*
X154601405Y-109098595D02*
X154601405Y-108793933D01*
X156440840Y-107666266D02*
X156440840Y-107984051D01*
X156900000Y-107207106D02*
X156440840Y-107666266D01*
X156900000Y-106500000D02*
X156900000Y-107207106D01*
G36*
X147856828Y-77781907D02*
X147849315Y-77800000D01*
X147525999Y-77800000D01*
X147446317Y-77746758D01*
X147300000Y-77717654D01*
X146700000Y-77717654D01*
X146553683Y-77746758D01*
X146429641Y-77829641D01*
X146346758Y-77953683D01*
X146317654Y-78100000D01*
X146317654Y-78500000D01*
X146346758Y-78646317D01*
X146416037Y-78750000D01*
X146346758Y-78853683D01*
X146317654Y-79000000D01*
X146317654Y-79400000D01*
X146346758Y-79546317D01*
X146429641Y-79670359D01*
X146515455Y-79727699D01*
X146525787Y-79779641D01*
X146538060Y-79841342D01*
X146646447Y-80003553D01*
X147070998Y-80428105D01*
X147070998Y-80575248D01*
X146912750Y-80417000D01*
X146674088Y-80417000D01*
X146441434Y-80513369D01*
X146263368Y-80691435D01*
X146167000Y-80924089D01*
X146167000Y-81212750D01*
X146325250Y-81371000D01*
X147071000Y-81371000D01*
X147071000Y-81351000D01*
X147329000Y-81351000D01*
X147329000Y-81371000D01*
X148074750Y-81371000D01*
X148233000Y-81212750D01*
X148233000Y-81000000D01*
X149227600Y-81000000D01*
X149246758Y-81096317D01*
X149329641Y-81220359D01*
X149453683Y-81303242D01*
X149600000Y-81332346D01*
X150400000Y-81332346D01*
X150546317Y-81303242D01*
X150670359Y-81220359D01*
X150753242Y-81096317D01*
X150782346Y-80950000D01*
X150782346Y-80050000D01*
X150753242Y-79903683D01*
X150743884Y-79889677D01*
X159090883Y-79889677D01*
X159193429Y-80137857D01*
X159383144Y-80327903D01*
X159631145Y-80430883D01*
X159899677Y-80431117D01*
X160126163Y-80337535D01*
X160285705Y-80497356D01*
X160607188Y-80630848D01*
X160955285Y-80631151D01*
X161277000Y-80498221D01*
X161523356Y-80252295D01*
X161656848Y-79930812D01*
X161657151Y-79582715D01*
X161524221Y-79261000D01*
X161278295Y-79014644D01*
X160956812Y-78881152D01*
X160608715Y-78880849D01*
X160287000Y-79013779D01*
X160125923Y-79174574D01*
X159900855Y-79081117D01*
X159632323Y-79080883D01*
X159384143Y-79183429D01*
X159194097Y-79373144D01*
X159091117Y-79621145D01*
X159090883Y-79889677D01*
X150743884Y-79889677D01*
X150670359Y-79779641D01*
X150546317Y-79696758D01*
X150400000Y-79667654D01*
X149600000Y-79667654D01*
X149453683Y-79696758D01*
X149329641Y-79779641D01*
X149246758Y-79903683D01*
X149227600Y-80000000D01*
X148057107Y-80000000D01*
X147633287Y-79576181D01*
X147653242Y-79546317D01*
X147682346Y-79400000D01*
X147682346Y-79000000D01*
X147653242Y-78853683D01*
X147617372Y-78800000D01*
X147749761Y-78800000D01*
X147855715Y-79056429D01*
X148171907Y-79373172D01*
X148585242Y-79544804D01*
X149032795Y-79545195D01*
X149446429Y-79374285D01*
X149763172Y-79058093D01*
X149934804Y-78644758D01*
X149935195Y-78197205D01*
X149764285Y-77783571D01*
X149605990Y-77625000D01*
X153094008Y-77625000D01*
X152936828Y-77781907D01*
X152765196Y-78195242D01*
X152764805Y-78642795D01*
X152935715Y-79056429D01*
X153251907Y-79373172D01*
X153665242Y-79544804D01*
X154112795Y-79545195D01*
X154526429Y-79374285D01*
X154843172Y-79058093D01*
X155014804Y-78644758D01*
X155015195Y-78197205D01*
X154844285Y-77783571D01*
X154685990Y-77625000D01*
X169575000Y-77625000D01*
X169575000Y-110804932D01*
X169553553Y-110772835D01*
X166403783Y-107623065D01*
X166403872Y-107521466D01*
X166301326Y-107273286D01*
X166111611Y-107083240D01*
X165863610Y-106980260D01*
X165595078Y-106980026D01*
X165346898Y-107082572D01*
X165156852Y-107272287D01*
X165053872Y-107520288D01*
X165053638Y-107788820D01*
X165156184Y-108037000D01*
X165345899Y-108227046D01*
X165593900Y-108330026D01*
X165696622Y-108330116D01*
X168700000Y-111333494D01*
X168700000Y-113592893D01*
X167984894Y-114308000D01*
X150687500Y-114308000D01*
X150788883Y-114063845D01*
X150789117Y-113795313D01*
X150686571Y-113547133D01*
X150496856Y-113357087D01*
X150248855Y-113254107D01*
X149980323Y-113253873D01*
X149732143Y-113356419D01*
X149659445Y-113428990D01*
X140040669Y-113428990D01*
X139987825Y-113407047D01*
X139719293Y-113406813D01*
X139471113Y-113509359D01*
X139281067Y-113699074D01*
X139178087Y-113947075D01*
X139177853Y-114215607D01*
X139216029Y-114308000D01*
X136451248Y-114308000D01*
X136610994Y-114241831D01*
X136679259Y-114001693D01*
X135890000Y-113212434D01*
X135100741Y-114001693D01*
X135169006Y-114241831D01*
X135355849Y-114308000D01*
X131592000Y-114308000D01*
X131400658Y-114346060D01*
X131238446Y-114454447D01*
X130817893Y-114875000D01*
X120425000Y-114875000D01*
X120425000Y-112827635D01*
X134494501Y-112827635D01*
X134523286Y-113377073D01*
X134678169Y-113750994D01*
X134918307Y-113819259D01*
X135707566Y-113030000D01*
X136072434Y-113030000D01*
X136861693Y-113819259D01*
X137101831Y-113750994D01*
X137285499Y-113232365D01*
X137256714Y-112682927D01*
X137101831Y-112309006D01*
X136861693Y-112240741D01*
X136072434Y-113030000D01*
X135707566Y-113030000D01*
X134918307Y-112240741D01*
X134678169Y-112309006D01*
X134494501Y-112827635D01*
X120425000Y-112827635D01*
X120425000Y-112058307D01*
X135100741Y-112058307D01*
X135890000Y-112847566D01*
X136679259Y-112058307D01*
X136610994Y-111818169D01*
X136092365Y-111634501D01*
X135542927Y-111663286D01*
X135169006Y-111818169D01*
X135100741Y-112058307D01*
X120425000Y-112058307D01*
X120425000Y-100625000D01*
X134000000Y-100625000D01*
X134047835Y-100615485D01*
X134088388Y-100588388D01*
X134115485Y-100547835D01*
X134125000Y-100500000D01*
X134125000Y-91541336D01*
X145862285Y-103278622D01*
X145963792Y-103346447D01*
X146024497Y-103387009D01*
X146215839Y-103425069D01*
X149783282Y-103425069D01*
X149725117Y-103565145D01*
X149724978Y-103724935D01*
X149626715Y-103724849D01*
X149305000Y-103857779D01*
X149058644Y-104103705D01*
X148925152Y-104425188D01*
X148924849Y-104773285D01*
X149057779Y-105095000D01*
X149303705Y-105341356D01*
X149625188Y-105474848D01*
X149968040Y-105475146D01*
X150634508Y-106141614D01*
X150796719Y-106250001D01*
X150988061Y-106288061D01*
X152203770Y-106288061D01*
X152275548Y-106359964D01*
X152523549Y-106462944D01*
X152792081Y-106463178D01*
X153040261Y-106360632D01*
X153170000Y-106231119D01*
X153170000Y-107025008D01*
X153028323Y-107024885D01*
X152780143Y-107127431D01*
X152590097Y-107317146D01*
X152487117Y-107565147D01*
X152486883Y-107833679D01*
X152589429Y-108081859D01*
X152779144Y-108271905D01*
X153027145Y-108374885D01*
X153088497Y-108374938D01*
X153088330Y-108566991D01*
X153190876Y-108815171D01*
X153380591Y-109005217D01*
X153434768Y-109027714D01*
X153358644Y-109103705D01*
X153225152Y-109425188D01*
X153224849Y-109773285D01*
X153357779Y-110095000D01*
X153603705Y-110341356D01*
X153925188Y-110474848D01*
X154273285Y-110475151D01*
X154595000Y-110342221D01*
X154841356Y-110096295D01*
X154974848Y-109774812D01*
X154975004Y-109595594D01*
X154975004Y-110041116D01*
X153941124Y-111074996D01*
X145058884Y-111074996D01*
X143125000Y-109141112D01*
X143125000Y-108885285D01*
X148476849Y-108885285D01*
X148609779Y-109207000D01*
X148770574Y-109368077D01*
X148677117Y-109593145D01*
X148676883Y-109861677D01*
X148779429Y-110109857D01*
X148969144Y-110299903D01*
X149217145Y-110402883D01*
X149485677Y-110403117D01*
X149733857Y-110300571D01*
X149923903Y-110110856D01*
X150026883Y-109862855D01*
X150027117Y-109594323D01*
X149933535Y-109367837D01*
X150093356Y-109208295D01*
X150113886Y-109158854D01*
X150133779Y-109207000D01*
X150251022Y-109324448D01*
X150182217Y-109490147D01*
X150181983Y-109758679D01*
X150284529Y-110006859D01*
X150474244Y-110196905D01*
X150722245Y-110299885D01*
X150990777Y-110300119D01*
X151238957Y-110197573D01*
X151429003Y-110007858D01*
X151531983Y-109759857D01*
X151532217Y-109491325D01*
X151474284Y-109351117D01*
X151617356Y-109208295D01*
X151750848Y-108886812D01*
X151751151Y-108538715D01*
X151618221Y-108217000D01*
X151372295Y-107970644D01*
X151050812Y-107837152D01*
X150702715Y-107836849D01*
X150381000Y-107969779D01*
X150134644Y-108215705D01*
X150114114Y-108265146D01*
X150094221Y-108217000D01*
X149848295Y-107970644D01*
X149526812Y-107837152D01*
X149178715Y-107836849D01*
X148857000Y-107969779D01*
X148610644Y-108215705D01*
X148477152Y-108537188D01*
X148476849Y-108885285D01*
X143125000Y-108885285D01*
X143125000Y-106142782D01*
X144123424Y-105144358D01*
X144243641Y-105094685D01*
X144433687Y-104904970D01*
X144536667Y-104656969D01*
X144536901Y-104388437D01*
X144434355Y-104140257D01*
X144244640Y-103950211D01*
X143996639Y-103847231D01*
X143728107Y-103846997D01*
X143479927Y-103949543D01*
X143289881Y-104139258D01*
X143239552Y-104260462D01*
X142058058Y-105441956D01*
X141989077Y-105545193D01*
X138871942Y-102428058D01*
X138669177Y-102292575D01*
X138430000Y-102245000D01*
X136849007Y-102245000D01*
X136844285Y-102233571D01*
X136528093Y-101916828D01*
X136114758Y-101745196D01*
X135667205Y-101744805D01*
X135253571Y-101915715D01*
X134936828Y-102231907D01*
X134765196Y-102645242D01*
X134764805Y-103092795D01*
X134935715Y-103506429D01*
X135251907Y-103823172D01*
X135665242Y-103994804D01*
X136112795Y-103995195D01*
X136526429Y-103824285D01*
X136843172Y-103508093D01*
X136848609Y-103495000D01*
X138171116Y-103495000D01*
X141875000Y-107198884D01*
X141875000Y-109399996D01*
X141922575Y-109639173D01*
X142058058Y-109841938D01*
X144177756Y-111961636D01*
X144227429Y-112081853D01*
X144417144Y-112271899D01*
X144665145Y-112374879D01*
X144933677Y-112375113D01*
X145054969Y-112324996D01*
X154200008Y-112324996D01*
X154439185Y-112277421D01*
X154641950Y-112141938D01*
X155861644Y-110922244D01*
X155981861Y-110872571D01*
X156171907Y-110682856D01*
X156274887Y-110434855D01*
X156275121Y-110166323D01*
X156225004Y-110045031D01*
X156225004Y-108625307D01*
X156305985Y-108658934D01*
X156574517Y-108659168D01*
X156822697Y-108556622D01*
X156974950Y-108404634D01*
X157017144Y-108446901D01*
X157265145Y-108549881D01*
X157533677Y-108550115D01*
X157781857Y-108447569D01*
X157971903Y-108257854D01*
X158074883Y-108009853D01*
X158075117Y-107741321D01*
X158030640Y-107633677D01*
X159824883Y-107633677D01*
X159927429Y-107881857D01*
X160117144Y-108071903D01*
X160365145Y-108174883D01*
X160633677Y-108175117D01*
X160881857Y-108072571D01*
X161071903Y-107882856D01*
X161174883Y-107634855D01*
X161174973Y-107532134D01*
X164587097Y-104120010D01*
X166045366Y-104120010D01*
X166117144Y-104191913D01*
X166365145Y-104294893D01*
X166633677Y-104295127D01*
X166881857Y-104192581D01*
X167071903Y-104002866D01*
X167174883Y-103754865D01*
X167175117Y-103486333D01*
X167072571Y-103238153D01*
X166882856Y-103048107D01*
X166634855Y-102945127D01*
X166366323Y-102944893D01*
X166118143Y-103047439D01*
X166045445Y-103120010D01*
X164379990Y-103120010D01*
X164188648Y-103158070D01*
X164026436Y-103266457D01*
X160467922Y-106824972D01*
X160366323Y-106824883D01*
X160118143Y-106927429D01*
X159928097Y-107117144D01*
X159825117Y-107365145D01*
X159824883Y-107633677D01*
X158030640Y-107633677D01*
X157972571Y-107493141D01*
X157900000Y-107420443D01*
X157900000Y-107407106D01*
X157932252Y-107374854D01*
X158273285Y-107375151D01*
X158595000Y-107242221D01*
X158841356Y-106996295D01*
X158974848Y-106674812D01*
X158975151Y-106326715D01*
X158842221Y-106005000D01*
X158596295Y-105758644D01*
X158274812Y-105625152D01*
X157926715Y-105624849D01*
X157605000Y-105757779D01*
X157500033Y-105862563D01*
X157396295Y-105758644D01*
X157128185Y-105647315D01*
X157174883Y-105534855D01*
X157175117Y-105266323D01*
X157072571Y-105018143D01*
X156882856Y-104828097D01*
X156700001Y-104752168D01*
X156700001Y-102586587D01*
X156785168Y-102671903D01*
X157033169Y-102774883D01*
X157301701Y-102775117D01*
X157549881Y-102672571D01*
X157739927Y-102482856D01*
X157842907Y-102234855D01*
X157843141Y-101966323D01*
X157740595Y-101718143D01*
X157659843Y-101637250D01*
X162867000Y-101637250D01*
X162867000Y-102225911D01*
X162963368Y-102458565D01*
X163141434Y-102636631D01*
X163374088Y-102733000D01*
X164712750Y-102733000D01*
X164871000Y-102574750D01*
X164871000Y-101479000D01*
X165129000Y-101479000D01*
X165129000Y-102574750D01*
X165287250Y-102733000D01*
X166625912Y-102733000D01*
X166858566Y-102636631D01*
X167036632Y-102458565D01*
X167133000Y-102225911D01*
X167133000Y-101637250D01*
X166974750Y-101479000D01*
X165129000Y-101479000D01*
X164871000Y-101479000D01*
X163025250Y-101479000D01*
X162867000Y-101637250D01*
X157659843Y-101637250D01*
X157550880Y-101528097D01*
X157354998Y-101446759D01*
X157354998Y-100367250D01*
X158367000Y-100367250D01*
X158367000Y-100955911D01*
X158463368Y-101188565D01*
X158641434Y-101366631D01*
X158874088Y-101463000D01*
X160212750Y-101463000D01*
X160371000Y-101304750D01*
X160371000Y-100209000D01*
X158525250Y-100209000D01*
X158367000Y-100367250D01*
X157354998Y-100367250D01*
X157354998Y-99983104D01*
X157387105Y-99950998D01*
X157433998Y-99950998D01*
X157625340Y-99912938D01*
X157787551Y-99804551D01*
X158367000Y-99225103D01*
X158367000Y-99792750D01*
X158525250Y-99951000D01*
X160371000Y-99951000D01*
X160371000Y-98855250D01*
X160212750Y-98697000D01*
X160175047Y-98697000D01*
X160175068Y-98672346D01*
X162000000Y-98672346D01*
X162146317Y-98643242D01*
X162212479Y-98599034D01*
X162212479Y-98732857D01*
X162125912Y-98697000D01*
X160787250Y-98697000D01*
X160629000Y-98855250D01*
X160629000Y-99951000D01*
X160649000Y-99951000D01*
X160649000Y-100209000D01*
X160629000Y-100209000D01*
X160629000Y-101304750D01*
X160787250Y-101463000D01*
X162125912Y-101463000D01*
X162358566Y-101366631D01*
X162536632Y-101188565D01*
X162633000Y-100955911D01*
X162633000Y-100924899D01*
X162867000Y-100925102D01*
X162867000Y-101062750D01*
X163025250Y-101221000D01*
X164871000Y-101221000D01*
X164871000Y-100125250D01*
X165129000Y-100125250D01*
X165129000Y-101221000D01*
X166974750Y-101221000D01*
X167133000Y-101062750D01*
X167133000Y-100474089D01*
X167036632Y-100241435D01*
X166858566Y-100063369D01*
X166625912Y-99967000D01*
X165287250Y-99967000D01*
X165129000Y-100125250D01*
X164871000Y-100125250D01*
X164712750Y-99967000D01*
X163800106Y-99967000D01*
X163824760Y-99942346D01*
X166500000Y-99942346D01*
X166646317Y-99913242D01*
X166770359Y-99830359D01*
X166853242Y-99706317D01*
X166882346Y-99560000D01*
X166882346Y-98060000D01*
X166853242Y-97913683D01*
X166770359Y-97789641D01*
X166646317Y-97706758D01*
X166500000Y-97677654D01*
X163500000Y-97677654D01*
X163353683Y-97706758D01*
X163229641Y-97789641D01*
X163212479Y-97815326D01*
X163212479Y-97264674D01*
X163229641Y-97290359D01*
X163353683Y-97373242D01*
X163500000Y-97402346D01*
X166500000Y-97402346D01*
X166646317Y-97373242D01*
X166770359Y-97290359D01*
X166853242Y-97166317D01*
X166882346Y-97020000D01*
X166882346Y-96872748D01*
X166927429Y-96981857D01*
X167117144Y-97171903D01*
X167365145Y-97274883D01*
X167633677Y-97275117D01*
X167881857Y-97172571D01*
X168071903Y-96982856D01*
X168174883Y-96734855D01*
X168175117Y-96466323D01*
X168072571Y-96218143D01*
X168000000Y-96145445D01*
X168000000Y-95934998D01*
X167961940Y-95743656D01*
X167853553Y-95581445D01*
X166918555Y-94646447D01*
X166857370Y-94605564D01*
X166882346Y-94480000D01*
X166882346Y-92980000D01*
X166853242Y-92833683D01*
X166770359Y-92709641D01*
X166646317Y-92626758D01*
X166500000Y-92597654D01*
X163500000Y-92597654D01*
X163353683Y-92626758D01*
X163229641Y-92709641D01*
X163146758Y-92833683D01*
X163117654Y-92980000D01*
X163117654Y-93230000D01*
X162378368Y-93230000D01*
X162382346Y-93210000D01*
X162382346Y-91710000D01*
X162365439Y-91625000D01*
X162495015Y-91625000D01*
X162615145Y-91674883D01*
X162883677Y-91675117D01*
X163004969Y-91625000D01*
X163117654Y-91625000D01*
X163117654Y-91940000D01*
X163146758Y-92086317D01*
X163229641Y-92210359D01*
X163353683Y-92293242D01*
X163500000Y-92322346D01*
X166500000Y-92322346D01*
X166646317Y-92293242D01*
X166770359Y-92210359D01*
X166853242Y-92086317D01*
X166882346Y-91940000D01*
X166882346Y-90440000D01*
X166853242Y-90293683D01*
X166770359Y-90169641D01*
X166646317Y-90086758D01*
X166500000Y-90057654D01*
X163500000Y-90057654D01*
X163353683Y-90086758D01*
X163229641Y-90169641D01*
X163146758Y-90293683D01*
X163130583Y-90375000D01*
X163004985Y-90375000D01*
X162884855Y-90325117D01*
X162616323Y-90324883D01*
X162495031Y-90375000D01*
X162382346Y-90375000D01*
X162382346Y-89170000D01*
X162353242Y-89023683D01*
X162270359Y-88899641D01*
X162146317Y-88816758D01*
X162000000Y-88787654D01*
X159324760Y-88787654D01*
X159234000Y-88696894D01*
X159234000Y-85288400D01*
X159330317Y-85269242D01*
X159454359Y-85186359D01*
X159537242Y-85062317D01*
X159566346Y-84916000D01*
X159566346Y-84116000D01*
X159537242Y-83969683D01*
X159454359Y-83845641D01*
X159330317Y-83762758D01*
X159184000Y-83733654D01*
X158458999Y-83733654D01*
X158458999Y-83548107D01*
X158608760Y-83398346D01*
X159184000Y-83398346D01*
X159330317Y-83369242D01*
X159454359Y-83286359D01*
X159537242Y-83162317D01*
X159566346Y-83016000D01*
X159566346Y-82216000D01*
X159537242Y-82069683D01*
X159454359Y-81945641D01*
X159330317Y-81862758D01*
X159184000Y-81833654D01*
X158284000Y-81833654D01*
X158137683Y-81862758D01*
X158013641Y-81945641D01*
X157930758Y-82069683D01*
X157901654Y-82216000D01*
X157901654Y-82691240D01*
X157605446Y-82987448D01*
X157547947Y-83073501D01*
X157537242Y-83019683D01*
X157454359Y-82895641D01*
X157330317Y-82812758D01*
X157184000Y-82783654D01*
X156284000Y-82783654D01*
X156137683Y-82812758D01*
X156013641Y-82895641D01*
X155930758Y-83019683D01*
X155901654Y-83166000D01*
X155901654Y-83966000D01*
X155930758Y-84112317D01*
X156013641Y-84236359D01*
X156137683Y-84319242D01*
X156234000Y-84338400D01*
X156234000Y-85528893D01*
X154251088Y-87511805D01*
X154126170Y-87459935D01*
X154328553Y-87257552D01*
X154408409Y-87138038D01*
X154436939Y-87095341D01*
X154474999Y-86903999D01*
X154474999Y-85470751D01*
X154621000Y-85324750D01*
X154621000Y-84579000D01*
X154879000Y-84579000D01*
X154879000Y-85324750D01*
X155037250Y-85483000D01*
X155325911Y-85483000D01*
X155558565Y-85386632D01*
X155736631Y-85208566D01*
X155833000Y-84975912D01*
X155833000Y-84737250D01*
X155674750Y-84579000D01*
X154879000Y-84579000D01*
X154621000Y-84579000D01*
X154601000Y-84579000D01*
X154601000Y-84321000D01*
X154621000Y-84321000D01*
X154621000Y-83575250D01*
X154879000Y-83575250D01*
X154879000Y-84321000D01*
X155674750Y-84321000D01*
X155833000Y-84162750D01*
X155833000Y-83924088D01*
X155736631Y-83691434D01*
X155558565Y-83513368D01*
X155325911Y-83417000D01*
X155037250Y-83417000D01*
X154879000Y-83575250D01*
X154621000Y-83575250D01*
X154501428Y-83455678D01*
X154624760Y-83332346D01*
X155200000Y-83332346D01*
X155346317Y-83303242D01*
X155470359Y-83220359D01*
X155553242Y-83096317D01*
X155582346Y-82950000D01*
X155582346Y-82150000D01*
X155553242Y-82003683D01*
X155550781Y-82000000D01*
X157045366Y-82000000D01*
X157117144Y-82071903D01*
X157365145Y-82174883D01*
X157633677Y-82175117D01*
X157881857Y-82072571D01*
X158071903Y-81882856D01*
X158174883Y-81634855D01*
X158175117Y-81366323D01*
X158072571Y-81118143D01*
X157882856Y-80928097D01*
X157634855Y-80825117D01*
X157366323Y-80824883D01*
X157118143Y-80927429D01*
X157045445Y-81000000D01*
X153314998Y-81000000D01*
X153145792Y-81033657D01*
X153123656Y-81038060D01*
X152961444Y-81146447D01*
X151732346Y-82375546D01*
X151732346Y-82050000D01*
X151703242Y-81903683D01*
X151620359Y-81779641D01*
X151496317Y-81696758D01*
X151350000Y-81667654D01*
X150550000Y-81667654D01*
X150403683Y-81696758D01*
X150279641Y-81779641D01*
X150196758Y-81903683D01*
X150167654Y-82050000D01*
X150167654Y-82625240D01*
X150044322Y-82748572D01*
X149924750Y-82629000D01*
X149179000Y-82629000D01*
X149179000Y-82649000D01*
X148921000Y-82649000D01*
X148921000Y-82629000D01*
X148175250Y-82629000D01*
X148017000Y-82787250D01*
X148017000Y-83075911D01*
X148113368Y-83308565D01*
X148279802Y-83474999D01*
X147139999Y-83474999D01*
X147032346Y-83496412D01*
X147032346Y-83050000D01*
X147003242Y-82903683D01*
X146920359Y-82779641D01*
X146796317Y-82696758D01*
X146650000Y-82667654D01*
X145850000Y-82667654D01*
X145800000Y-82677600D01*
X145800000Y-82312455D01*
X145846317Y-82303242D01*
X145970359Y-82220359D01*
X146053242Y-82096317D01*
X146082346Y-81950000D01*
X146082346Y-81787250D01*
X146167000Y-81787250D01*
X146167000Y-82075911D01*
X146263368Y-82308565D01*
X146441434Y-82486631D01*
X146674088Y-82583000D01*
X146912750Y-82583000D01*
X147071000Y-82424750D01*
X147071000Y-81629000D01*
X147329000Y-81629000D01*
X147329000Y-82424750D01*
X147487250Y-82583000D01*
X147725912Y-82583000D01*
X147958566Y-82486631D01*
X148124724Y-82320474D01*
X148175250Y-82371000D01*
X148921000Y-82371000D01*
X148921000Y-81575250D01*
X149179000Y-81575250D01*
X149179000Y-82371000D01*
X149924750Y-82371000D01*
X150083000Y-82212750D01*
X150083000Y-81924089D01*
X149986632Y-81691435D01*
X149808566Y-81513369D01*
X149575912Y-81417000D01*
X149337250Y-81417000D01*
X149179000Y-81575250D01*
X148921000Y-81575250D01*
X148762750Y-81417000D01*
X148524088Y-81417000D01*
X148291434Y-81513369D01*
X148125277Y-81679527D01*
X148074750Y-81629000D01*
X147329000Y-81629000D01*
X147071000Y-81629000D01*
X146325250Y-81629000D01*
X146167000Y-81787250D01*
X146082346Y-81787250D01*
X146082346Y-81050000D01*
X146053242Y-80903683D01*
X145970359Y-80779641D01*
X145846317Y-80696758D01*
X145700000Y-80667654D01*
X144900000Y-80667654D01*
X144753683Y-80696758D01*
X144629641Y-80779641D01*
X144546758Y-80903683D01*
X144517654Y-81050000D01*
X144517654Y-81950000D01*
X144546758Y-82096317D01*
X144629641Y-82220359D01*
X144753683Y-82303242D01*
X144800000Y-82312455D01*
X144800000Y-83917654D01*
X144300000Y-83917654D01*
X144153683Y-83946758D01*
X144029641Y-84029641D01*
X143946758Y-84153683D01*
X143917654Y-84300000D01*
X143917654Y-85200000D01*
X143946758Y-85346317D01*
X144029641Y-85470359D01*
X144153683Y-85553242D01*
X144227418Y-85567909D01*
X144178097Y-85617144D01*
X144075117Y-85865145D01*
X144075071Y-85917654D01*
X143350000Y-85917654D01*
X143300000Y-85927600D01*
X143300000Y-85562455D01*
X143346317Y-85553242D01*
X143470359Y-85470359D01*
X143553242Y-85346317D01*
X143582346Y-85200000D01*
X143582346Y-84300000D01*
X143553242Y-84153683D01*
X143470359Y-84029641D01*
X143346317Y-83946758D01*
X143200000Y-83917654D01*
X142400000Y-83917654D01*
X142253683Y-83946758D01*
X142129641Y-84029641D01*
X142046758Y-84153683D01*
X142017654Y-84300000D01*
X142017654Y-85200000D01*
X142046758Y-85346317D01*
X142129641Y-85470359D01*
X142253683Y-85553242D01*
X142300000Y-85562455D01*
X142300000Y-87492894D01*
X142146447Y-87646447D01*
X142038060Y-87808658D01*
X142033332Y-87832425D01*
X141828093Y-87626828D01*
X141750000Y-87594401D01*
X141750000Y-87467372D01*
X141820359Y-87420359D01*
X141903242Y-87296317D01*
X141932346Y-87150000D01*
X141932346Y-86750000D01*
X141903242Y-86603683D01*
X141833963Y-86500000D01*
X141903242Y-86396317D01*
X141932346Y-86250000D01*
X141932346Y-85850000D01*
X141903242Y-85703683D01*
X141820359Y-85579641D01*
X141750000Y-85532628D01*
X141750000Y-84312455D01*
X141796317Y-84303242D01*
X141920359Y-84220359D01*
X142003242Y-84096317D01*
X142032346Y-83950000D01*
X142032346Y-83050000D01*
X142003242Y-82903683D01*
X141920359Y-82779641D01*
X141796317Y-82696758D01*
X141650000Y-82667654D01*
X140850000Y-82667654D01*
X140800000Y-82677600D01*
X140800000Y-82312455D01*
X140846317Y-82303242D01*
X140970359Y-82220359D01*
X141053242Y-82096317D01*
X141082346Y-81950000D01*
X141082346Y-81787250D01*
X141167000Y-81787250D01*
X141167000Y-82075911D01*
X141263368Y-82308565D01*
X141441434Y-82486631D01*
X141674088Y-82583000D01*
X141912750Y-82583000D01*
X142071000Y-82424750D01*
X142071000Y-81629000D01*
X142329000Y-81629000D01*
X142329000Y-82424750D01*
X142487250Y-82583000D01*
X142725912Y-82583000D01*
X142958566Y-82486631D01*
X143136632Y-82308565D01*
X143233000Y-82075911D01*
X143233000Y-81787250D01*
X143074750Y-81629000D01*
X142329000Y-81629000D01*
X142071000Y-81629000D01*
X141325250Y-81629000D01*
X141167000Y-81787250D01*
X141082346Y-81787250D01*
X141082346Y-81224999D01*
X141179249Y-81224999D01*
X141325250Y-81371000D01*
X142071000Y-81371000D01*
X142071000Y-81351000D01*
X142329000Y-81351000D01*
X142329000Y-81371000D01*
X143074750Y-81371000D01*
X143196455Y-81249295D01*
X143200000Y-81250000D01*
X143224001Y-81250000D01*
X143303683Y-81303242D01*
X143450000Y-81332346D01*
X144050000Y-81332346D01*
X144196317Y-81303242D01*
X144320359Y-81220359D01*
X144403242Y-81096317D01*
X144432346Y-80950000D01*
X144432346Y-80550000D01*
X144403242Y-80403683D01*
X144333963Y-80300000D01*
X144403242Y-80196317D01*
X144432346Y-80050000D01*
X144432346Y-79650000D01*
X144403242Y-79503683D01*
X144327522Y-79390361D01*
X144366429Y-79374285D01*
X144683172Y-79058093D01*
X144854804Y-78644758D01*
X144855195Y-78197205D01*
X144684285Y-77783571D01*
X144525990Y-77625000D01*
X148014008Y-77625000D01*
X147856828Y-77781907D01*
X147856828Y-77781907D01*
G37*
X147856828Y-77781907D02*
X147849315Y-77800000D01*
X147525999Y-77800000D01*
X147446317Y-77746758D01*
X147300000Y-77717654D01*
X146700000Y-77717654D01*
X146553683Y-77746758D01*
X146429641Y-77829641D01*
X146346758Y-77953683D01*
X146317654Y-78100000D01*
X146317654Y-78500000D01*
X146346758Y-78646317D01*
X146416037Y-78750000D01*
X146346758Y-78853683D01*
X146317654Y-79000000D01*
X146317654Y-79400000D01*
X146346758Y-79546317D01*
X146429641Y-79670359D01*
X146515455Y-79727699D01*
X146525787Y-79779641D01*
X146538060Y-79841342D01*
X146646447Y-80003553D01*
X147070998Y-80428105D01*
X147070998Y-80575248D01*
X146912750Y-80417000D01*
X146674088Y-80417000D01*
X146441434Y-80513369D01*
X146263368Y-80691435D01*
X146167000Y-80924089D01*
X146167000Y-81212750D01*
X146325250Y-81371000D01*
X147071000Y-81371000D01*
X147071000Y-81351000D01*
X147329000Y-81351000D01*
X147329000Y-81371000D01*
X148074750Y-81371000D01*
X148233000Y-81212750D01*
X148233000Y-81000000D01*
X149227600Y-81000000D01*
X149246758Y-81096317D01*
X149329641Y-81220359D01*
X149453683Y-81303242D01*
X149600000Y-81332346D01*
X150400000Y-81332346D01*
X150546317Y-81303242D01*
X150670359Y-81220359D01*
X150753242Y-81096317D01*
X150782346Y-80950000D01*
X150782346Y-80050000D01*
X150753242Y-79903683D01*
X150743884Y-79889677D01*
X159090883Y-79889677D01*
X159193429Y-80137857D01*
X159383144Y-80327903D01*
X159631145Y-80430883D01*
X159899677Y-80431117D01*
X160126163Y-80337535D01*
X160285705Y-80497356D01*
X160607188Y-80630848D01*
X160955285Y-80631151D01*
X161277000Y-80498221D01*
X161523356Y-80252295D01*
X161656848Y-79930812D01*
X161657151Y-79582715D01*
X161524221Y-79261000D01*
X161278295Y-79014644D01*
X160956812Y-78881152D01*
X160608715Y-78880849D01*
X160287000Y-79013779D01*
X160125923Y-79174574D01*
X159900855Y-79081117D01*
X159632323Y-79080883D01*
X159384143Y-79183429D01*
X159194097Y-79373144D01*
X159091117Y-79621145D01*
X159090883Y-79889677D01*
X150743884Y-79889677D01*
X150670359Y-79779641D01*
X150546317Y-79696758D01*
X150400000Y-79667654D01*
X149600000Y-79667654D01*
X149453683Y-79696758D01*
X149329641Y-79779641D01*
X149246758Y-79903683D01*
X149227600Y-80000000D01*
X148057107Y-80000000D01*
X147633287Y-79576181D01*
X147653242Y-79546317D01*
X147682346Y-79400000D01*
X147682346Y-79000000D01*
X147653242Y-78853683D01*
X147617372Y-78800000D01*
X147749761Y-78800000D01*
X147855715Y-79056429D01*
X148171907Y-79373172D01*
X148585242Y-79544804D01*
X149032795Y-79545195D01*
X149446429Y-79374285D01*
X149763172Y-79058093D01*
X149934804Y-78644758D01*
X149935195Y-78197205D01*
X149764285Y-77783571D01*
X149605990Y-77625000D01*
X153094008Y-77625000D01*
X152936828Y-77781907D01*
X152765196Y-78195242D01*
X152764805Y-78642795D01*
X152935715Y-79056429D01*
X153251907Y-79373172D01*
X153665242Y-79544804D01*
X154112795Y-79545195D01*
X154526429Y-79374285D01*
X154843172Y-79058093D01*
X155014804Y-78644758D01*
X155015195Y-78197205D01*
X154844285Y-77783571D01*
X154685990Y-77625000D01*
X169575000Y-77625000D01*
X169575000Y-110804932D01*
X169553553Y-110772835D01*
X166403783Y-107623065D01*
X166403872Y-107521466D01*
X166301326Y-107273286D01*
X166111611Y-107083240D01*
X165863610Y-106980260D01*
X165595078Y-106980026D01*
X165346898Y-107082572D01*
X165156852Y-107272287D01*
X165053872Y-107520288D01*
X165053638Y-107788820D01*
X165156184Y-108037000D01*
X165345899Y-108227046D01*
X165593900Y-108330026D01*
X165696622Y-108330116D01*
X168700000Y-111333494D01*
X168700000Y-113592893D01*
X167984894Y-114308000D01*
X150687500Y-114308000D01*
X150788883Y-114063845D01*
X150789117Y-113795313D01*
X150686571Y-113547133D01*
X150496856Y-113357087D01*
X150248855Y-113254107D01*
X149980323Y-113253873D01*
X149732143Y-113356419D01*
X149659445Y-113428990D01*
X140040669Y-113428990D01*
X139987825Y-113407047D01*
X139719293Y-113406813D01*
X139471113Y-113509359D01*
X139281067Y-113699074D01*
X139178087Y-113947075D01*
X139177853Y-114215607D01*
X139216029Y-114308000D01*
X136451248Y-114308000D01*
X136610994Y-114241831D01*
X136679259Y-114001693D01*
X135890000Y-113212434D01*
X135100741Y-114001693D01*
X135169006Y-114241831D01*
X135355849Y-114308000D01*
X131592000Y-114308000D01*
X131400658Y-114346060D01*
X131238446Y-114454447D01*
X130817893Y-114875000D01*
X120425000Y-114875000D01*
X120425000Y-112827635D01*
X134494501Y-112827635D01*
X134523286Y-113377073D01*
X134678169Y-113750994D01*
X134918307Y-113819259D01*
X135707566Y-113030000D01*
X136072434Y-113030000D01*
X136861693Y-113819259D01*
X137101831Y-113750994D01*
X137285499Y-113232365D01*
X137256714Y-112682927D01*
X137101831Y-112309006D01*
X136861693Y-112240741D01*
X136072434Y-113030000D01*
X135707566Y-113030000D01*
X134918307Y-112240741D01*
X134678169Y-112309006D01*
X134494501Y-112827635D01*
X120425000Y-112827635D01*
X120425000Y-112058307D01*
X135100741Y-112058307D01*
X135890000Y-112847566D01*
X136679259Y-112058307D01*
X136610994Y-111818169D01*
X136092365Y-111634501D01*
X135542927Y-111663286D01*
X135169006Y-111818169D01*
X135100741Y-112058307D01*
X120425000Y-112058307D01*
X120425000Y-100625000D01*
X134000000Y-100625000D01*
X134047835Y-100615485D01*
X134088388Y-100588388D01*
X134115485Y-100547835D01*
X134125000Y-100500000D01*
X134125000Y-91541336D01*
X145862285Y-103278622D01*
X145963792Y-103346447D01*
X146024497Y-103387009D01*
X146215839Y-103425069D01*
X149783282Y-103425069D01*
X149725117Y-103565145D01*
X149724978Y-103724935D01*
X149626715Y-103724849D01*
X149305000Y-103857779D01*
X149058644Y-104103705D01*
X148925152Y-104425188D01*
X148924849Y-104773285D01*
X149057779Y-105095000D01*
X149303705Y-105341356D01*
X149625188Y-105474848D01*
X149968040Y-105475146D01*
X150634508Y-106141614D01*
X150796719Y-106250001D01*
X150988061Y-106288061D01*
X152203770Y-106288061D01*
X152275548Y-106359964D01*
X152523549Y-106462944D01*
X152792081Y-106463178D01*
X153040261Y-106360632D01*
X153170000Y-106231119D01*
X153170000Y-107025008D01*
X153028323Y-107024885D01*
X152780143Y-107127431D01*
X152590097Y-107317146D01*
X152487117Y-107565147D01*
X152486883Y-107833679D01*
X152589429Y-108081859D01*
X152779144Y-108271905D01*
X153027145Y-108374885D01*
X153088497Y-108374938D01*
X153088330Y-108566991D01*
X153190876Y-108815171D01*
X153380591Y-109005217D01*
X153434768Y-109027714D01*
X153358644Y-109103705D01*
X153225152Y-109425188D01*
X153224849Y-109773285D01*
X153357779Y-110095000D01*
X153603705Y-110341356D01*
X153925188Y-110474848D01*
X154273285Y-110475151D01*
X154595000Y-110342221D01*
X154841356Y-110096295D01*
X154974848Y-109774812D01*
X154975004Y-109595594D01*
X154975004Y-110041116D01*
X153941124Y-111074996D01*
X145058884Y-111074996D01*
X143125000Y-109141112D01*
X143125000Y-108885285D01*
X148476849Y-108885285D01*
X148609779Y-109207000D01*
X148770574Y-109368077D01*
X148677117Y-109593145D01*
X148676883Y-109861677D01*
X148779429Y-110109857D01*
X148969144Y-110299903D01*
X149217145Y-110402883D01*
X149485677Y-110403117D01*
X149733857Y-110300571D01*
X149923903Y-110110856D01*
X150026883Y-109862855D01*
X150027117Y-109594323D01*
X149933535Y-109367837D01*
X150093356Y-109208295D01*
X150113886Y-109158854D01*
X150133779Y-109207000D01*
X150251022Y-109324448D01*
X150182217Y-109490147D01*
X150181983Y-109758679D01*
X150284529Y-110006859D01*
X150474244Y-110196905D01*
X150722245Y-110299885D01*
X150990777Y-110300119D01*
X151238957Y-110197573D01*
X151429003Y-110007858D01*
X151531983Y-109759857D01*
X151532217Y-109491325D01*
X151474284Y-109351117D01*
X151617356Y-109208295D01*
X151750848Y-108886812D01*
X151751151Y-108538715D01*
X151618221Y-108217000D01*
X151372295Y-107970644D01*
X151050812Y-107837152D01*
X150702715Y-107836849D01*
X150381000Y-107969779D01*
X150134644Y-108215705D01*
X150114114Y-108265146D01*
X150094221Y-108217000D01*
X149848295Y-107970644D01*
X149526812Y-107837152D01*
X149178715Y-107836849D01*
X148857000Y-107969779D01*
X148610644Y-108215705D01*
X148477152Y-108537188D01*
X148476849Y-108885285D01*
X143125000Y-108885285D01*
X143125000Y-106142782D01*
X144123424Y-105144358D01*
X144243641Y-105094685D01*
X144433687Y-104904970D01*
X144536667Y-104656969D01*
X144536901Y-104388437D01*
X144434355Y-104140257D01*
X144244640Y-103950211D01*
X143996639Y-103847231D01*
X143728107Y-103846997D01*
X143479927Y-103949543D01*
X143289881Y-104139258D01*
X143239552Y-104260462D01*
X142058058Y-105441956D01*
X141989077Y-105545193D01*
X138871942Y-102428058D01*
X138669177Y-102292575D01*
X138430000Y-102245000D01*
X136849007Y-102245000D01*
X136844285Y-102233571D01*
X136528093Y-101916828D01*
X136114758Y-101745196D01*
X135667205Y-101744805D01*
X135253571Y-101915715D01*
X134936828Y-102231907D01*
X134765196Y-102645242D01*
X134764805Y-103092795D01*
X134935715Y-103506429D01*
X135251907Y-103823172D01*
X135665242Y-103994804D01*
X136112795Y-103995195D01*
X136526429Y-103824285D01*
X136843172Y-103508093D01*
X136848609Y-103495000D01*
X138171116Y-103495000D01*
X141875000Y-107198884D01*
X141875000Y-109399996D01*
X141922575Y-109639173D01*
X142058058Y-109841938D01*
X144177756Y-111961636D01*
X144227429Y-112081853D01*
X144417144Y-112271899D01*
X144665145Y-112374879D01*
X144933677Y-112375113D01*
X145054969Y-112324996D01*
X154200008Y-112324996D01*
X154439185Y-112277421D01*
X154641950Y-112141938D01*
X155861644Y-110922244D01*
X155981861Y-110872571D01*
X156171907Y-110682856D01*
X156274887Y-110434855D01*
X156275121Y-110166323D01*
X156225004Y-110045031D01*
X156225004Y-108625307D01*
X156305985Y-108658934D01*
X156574517Y-108659168D01*
X156822697Y-108556622D01*
X156974950Y-108404634D01*
X157017144Y-108446901D01*
X157265145Y-108549881D01*
X157533677Y-108550115D01*
X157781857Y-108447569D01*
X157971903Y-108257854D01*
X158074883Y-108009853D01*
X158075117Y-107741321D01*
X158030640Y-107633677D01*
X159824883Y-107633677D01*
X159927429Y-107881857D01*
X160117144Y-108071903D01*
X160365145Y-108174883D01*
X160633677Y-108175117D01*
X160881857Y-108072571D01*
X161071903Y-107882856D01*
X161174883Y-107634855D01*
X161174973Y-107532134D01*
X164587097Y-104120010D01*
X166045366Y-104120010D01*
X166117144Y-104191913D01*
X166365145Y-104294893D01*
X166633677Y-104295127D01*
X166881857Y-104192581D01*
X167071903Y-104002866D01*
X167174883Y-103754865D01*
X167175117Y-103486333D01*
X167072571Y-103238153D01*
X166882856Y-103048107D01*
X166634855Y-102945127D01*
X166366323Y-102944893D01*
X166118143Y-103047439D01*
X166045445Y-103120010D01*
X164379990Y-103120010D01*
X164188648Y-103158070D01*
X164026436Y-103266457D01*
X160467922Y-106824972D01*
X160366323Y-106824883D01*
X160118143Y-106927429D01*
X159928097Y-107117144D01*
X159825117Y-107365145D01*
X159824883Y-107633677D01*
X158030640Y-107633677D01*
X157972571Y-107493141D01*
X157900000Y-107420443D01*
X157900000Y-107407106D01*
X157932252Y-107374854D01*
X158273285Y-107375151D01*
X158595000Y-107242221D01*
X158841356Y-106996295D01*
X158974848Y-106674812D01*
X158975151Y-106326715D01*
X158842221Y-106005000D01*
X158596295Y-105758644D01*
X158274812Y-105625152D01*
X157926715Y-105624849D01*
X157605000Y-105757779D01*
X157500033Y-105862563D01*
X157396295Y-105758644D01*
X157128185Y-105647315D01*
X157174883Y-105534855D01*
X157175117Y-105266323D01*
X157072571Y-105018143D01*
X156882856Y-104828097D01*
X156700001Y-104752168D01*
X156700001Y-102586587D01*
X156785168Y-102671903D01*
X157033169Y-102774883D01*
X157301701Y-102775117D01*
X157549881Y-102672571D01*
X157739927Y-102482856D01*
X157842907Y-102234855D01*
X157843141Y-101966323D01*
X157740595Y-101718143D01*
X157659843Y-101637250D01*
X162867000Y-101637250D01*
X162867000Y-102225911D01*
X162963368Y-102458565D01*
X163141434Y-102636631D01*
X163374088Y-102733000D01*
X164712750Y-102733000D01*
X164871000Y-102574750D01*
X164871000Y-101479000D01*
X165129000Y-101479000D01*
X165129000Y-102574750D01*
X165287250Y-102733000D01*
X166625912Y-102733000D01*
X166858566Y-102636631D01*
X167036632Y-102458565D01*
X167133000Y-102225911D01*
X167133000Y-101637250D01*
X166974750Y-101479000D01*
X165129000Y-101479000D01*
X164871000Y-101479000D01*
X163025250Y-101479000D01*
X162867000Y-101637250D01*
X157659843Y-101637250D01*
X157550880Y-101528097D01*
X157354998Y-101446759D01*
X157354998Y-100367250D01*
X158367000Y-100367250D01*
X158367000Y-100955911D01*
X158463368Y-101188565D01*
X158641434Y-101366631D01*
X158874088Y-101463000D01*
X160212750Y-101463000D01*
X160371000Y-101304750D01*
X160371000Y-100209000D01*
X158525250Y-100209000D01*
X158367000Y-100367250D01*
X157354998Y-100367250D01*
X157354998Y-99983104D01*
X157387105Y-99950998D01*
X157433998Y-99950998D01*
X157625340Y-99912938D01*
X157787551Y-99804551D01*
X158367000Y-99225103D01*
X158367000Y-99792750D01*
X158525250Y-99951000D01*
X160371000Y-99951000D01*
X160371000Y-98855250D01*
X160212750Y-98697000D01*
X160175047Y-98697000D01*
X160175068Y-98672346D01*
X162000000Y-98672346D01*
X162146317Y-98643242D01*
X162212479Y-98599034D01*
X162212479Y-98732857D01*
X162125912Y-98697000D01*
X160787250Y-98697000D01*
X160629000Y-98855250D01*
X160629000Y-99951000D01*
X160649000Y-99951000D01*
X160649000Y-100209000D01*
X160629000Y-100209000D01*
X160629000Y-101304750D01*
X160787250Y-101463000D01*
X162125912Y-101463000D01*
X162358566Y-101366631D01*
X162536632Y-101188565D01*
X162633000Y-100955911D01*
X162633000Y-100924899D01*
X162867000Y-100925102D01*
X162867000Y-101062750D01*
X163025250Y-101221000D01*
X164871000Y-101221000D01*
X164871000Y-100125250D01*
X165129000Y-100125250D01*
X165129000Y-101221000D01*
X166974750Y-101221000D01*
X167133000Y-101062750D01*
X167133000Y-100474089D01*
X167036632Y-100241435D01*
X166858566Y-100063369D01*
X166625912Y-99967000D01*
X165287250Y-99967000D01*
X165129000Y-100125250D01*
X164871000Y-100125250D01*
X164712750Y-99967000D01*
X163800106Y-99967000D01*
X163824760Y-99942346D01*
X166500000Y-99942346D01*
X166646317Y-99913242D01*
X166770359Y-99830359D01*
X166853242Y-99706317D01*
X166882346Y-99560000D01*
X166882346Y-98060000D01*
X166853242Y-97913683D01*
X166770359Y-97789641D01*
X166646317Y-97706758D01*
X166500000Y-97677654D01*
X163500000Y-97677654D01*
X163353683Y-97706758D01*
X163229641Y-97789641D01*
X163212479Y-97815326D01*
X163212479Y-97264674D01*
X163229641Y-97290359D01*
X163353683Y-97373242D01*
X163500000Y-97402346D01*
X166500000Y-97402346D01*
X166646317Y-97373242D01*
X166770359Y-97290359D01*
X166853242Y-97166317D01*
X166882346Y-97020000D01*
X166882346Y-96872748D01*
X166927429Y-96981857D01*
X167117144Y-97171903D01*
X167365145Y-97274883D01*
X167633677Y-97275117D01*
X167881857Y-97172571D01*
X168071903Y-96982856D01*
X168174883Y-96734855D01*
X168175117Y-96466323D01*
X168072571Y-96218143D01*
X168000000Y-96145445D01*
X168000000Y-95934998D01*
X167961940Y-95743656D01*
X167853553Y-95581445D01*
X166918555Y-94646447D01*
X166857370Y-94605564D01*
X166882346Y-94480000D01*
X166882346Y-92980000D01*
X166853242Y-92833683D01*
X166770359Y-92709641D01*
X166646317Y-92626758D01*
X166500000Y-92597654D01*
X163500000Y-92597654D01*
X163353683Y-92626758D01*
X163229641Y-92709641D01*
X163146758Y-92833683D01*
X163117654Y-92980000D01*
X163117654Y-93230000D01*
X162378368Y-93230000D01*
X162382346Y-93210000D01*
X162382346Y-91710000D01*
X162365439Y-91625000D01*
X162495015Y-91625000D01*
X162615145Y-91674883D01*
X162883677Y-91675117D01*
X163004969Y-91625000D01*
X163117654Y-91625000D01*
X163117654Y-91940000D01*
X163146758Y-92086317D01*
X163229641Y-92210359D01*
X163353683Y-92293242D01*
X163500000Y-92322346D01*
X166500000Y-92322346D01*
X166646317Y-92293242D01*
X166770359Y-92210359D01*
X166853242Y-92086317D01*
X166882346Y-91940000D01*
X166882346Y-90440000D01*
X166853242Y-90293683D01*
X166770359Y-90169641D01*
X166646317Y-90086758D01*
X166500000Y-90057654D01*
X163500000Y-90057654D01*
X163353683Y-90086758D01*
X163229641Y-90169641D01*
X163146758Y-90293683D01*
X163130583Y-90375000D01*
X163004985Y-90375000D01*
X162884855Y-90325117D01*
X162616323Y-90324883D01*
X162495031Y-90375000D01*
X162382346Y-90375000D01*
X162382346Y-89170000D01*
X162353242Y-89023683D01*
X162270359Y-88899641D01*
X162146317Y-88816758D01*
X162000000Y-88787654D01*
X159324760Y-88787654D01*
X159234000Y-88696894D01*
X159234000Y-85288400D01*
X159330317Y-85269242D01*
X159454359Y-85186359D01*
X159537242Y-85062317D01*
X159566346Y-84916000D01*
X159566346Y-84116000D01*
X159537242Y-83969683D01*
X159454359Y-83845641D01*
X159330317Y-83762758D01*
X159184000Y-83733654D01*
X158458999Y-83733654D01*
X158458999Y-83548107D01*
X158608760Y-83398346D01*
X159184000Y-83398346D01*
X159330317Y-83369242D01*
X159454359Y-83286359D01*
X159537242Y-83162317D01*
X159566346Y-83016000D01*
X159566346Y-82216000D01*
X159537242Y-82069683D01*
X159454359Y-81945641D01*
X159330317Y-81862758D01*
X159184000Y-81833654D01*
X158284000Y-81833654D01*
X158137683Y-81862758D01*
X158013641Y-81945641D01*
X157930758Y-82069683D01*
X157901654Y-82216000D01*
X157901654Y-82691240D01*
X157605446Y-82987448D01*
X157547947Y-83073501D01*
X157537242Y-83019683D01*
X157454359Y-82895641D01*
X157330317Y-82812758D01*
X157184000Y-82783654D01*
X156284000Y-82783654D01*
X156137683Y-82812758D01*
X156013641Y-82895641D01*
X155930758Y-83019683D01*
X155901654Y-83166000D01*
X155901654Y-83966000D01*
X155930758Y-84112317D01*
X156013641Y-84236359D01*
X156137683Y-84319242D01*
X156234000Y-84338400D01*
X156234000Y-85528893D01*
X154251088Y-87511805D01*
X154126170Y-87459935D01*
X154328553Y-87257552D01*
X154408409Y-87138038D01*
X154436939Y-87095341D01*
X154474999Y-86903999D01*
X154474999Y-85470751D01*
X154621000Y-85324750D01*
X154621000Y-84579000D01*
X154879000Y-84579000D01*
X154879000Y-85324750D01*
X155037250Y-85483000D01*
X155325911Y-85483000D01*
X155558565Y-85386632D01*
X155736631Y-85208566D01*
X155833000Y-84975912D01*
X155833000Y-84737250D01*
X155674750Y-84579000D01*
X154879000Y-84579000D01*
X154621000Y-84579000D01*
X154601000Y-84579000D01*
X154601000Y-84321000D01*
X154621000Y-84321000D01*
X154621000Y-83575250D01*
X154879000Y-83575250D01*
X154879000Y-84321000D01*
X155674750Y-84321000D01*
X155833000Y-84162750D01*
X155833000Y-83924088D01*
X155736631Y-83691434D01*
X155558565Y-83513368D01*
X155325911Y-83417000D01*
X155037250Y-83417000D01*
X154879000Y-83575250D01*
X154621000Y-83575250D01*
X154501428Y-83455678D01*
X154624760Y-83332346D01*
X155200000Y-83332346D01*
X155346317Y-83303242D01*
X155470359Y-83220359D01*
X155553242Y-83096317D01*
X155582346Y-82950000D01*
X155582346Y-82150000D01*
X155553242Y-82003683D01*
X155550781Y-82000000D01*
X157045366Y-82000000D01*
X157117144Y-82071903D01*
X157365145Y-82174883D01*
X157633677Y-82175117D01*
X157881857Y-82072571D01*
X158071903Y-81882856D01*
X158174883Y-81634855D01*
X158175117Y-81366323D01*
X158072571Y-81118143D01*
X157882856Y-80928097D01*
X157634855Y-80825117D01*
X157366323Y-80824883D01*
X157118143Y-80927429D01*
X157045445Y-81000000D01*
X153314998Y-81000000D01*
X153145792Y-81033657D01*
X153123656Y-81038060D01*
X152961444Y-81146447D01*
X151732346Y-82375546D01*
X151732346Y-82050000D01*
X151703242Y-81903683D01*
X151620359Y-81779641D01*
X151496317Y-81696758D01*
X151350000Y-81667654D01*
X150550000Y-81667654D01*
X150403683Y-81696758D01*
X150279641Y-81779641D01*
X150196758Y-81903683D01*
X150167654Y-82050000D01*
X150167654Y-82625240D01*
X150044322Y-82748572D01*
X149924750Y-82629000D01*
X149179000Y-82629000D01*
X149179000Y-82649000D01*
X148921000Y-82649000D01*
X148921000Y-82629000D01*
X148175250Y-82629000D01*
X148017000Y-82787250D01*
X148017000Y-83075911D01*
X148113368Y-83308565D01*
X148279802Y-83474999D01*
X147139999Y-83474999D01*
X147032346Y-83496412D01*
X147032346Y-83050000D01*
X147003242Y-82903683D01*
X146920359Y-82779641D01*
X146796317Y-82696758D01*
X146650000Y-82667654D01*
X145850000Y-82667654D01*
X145800000Y-82677600D01*
X145800000Y-82312455D01*
X145846317Y-82303242D01*
X145970359Y-82220359D01*
X146053242Y-82096317D01*
X146082346Y-81950000D01*
X146082346Y-81787250D01*
X146167000Y-81787250D01*
X146167000Y-82075911D01*
X146263368Y-82308565D01*
X146441434Y-82486631D01*
X146674088Y-82583000D01*
X146912750Y-82583000D01*
X147071000Y-82424750D01*
X147071000Y-81629000D01*
X147329000Y-81629000D01*
X147329000Y-82424750D01*
X147487250Y-82583000D01*
X147725912Y-82583000D01*
X147958566Y-82486631D01*
X148124724Y-82320474D01*
X148175250Y-82371000D01*
X148921000Y-82371000D01*
X148921000Y-81575250D01*
X149179000Y-81575250D01*
X149179000Y-82371000D01*
X149924750Y-82371000D01*
X150083000Y-82212750D01*
X150083000Y-81924089D01*
X149986632Y-81691435D01*
X149808566Y-81513369D01*
X149575912Y-81417000D01*
X149337250Y-81417000D01*
X149179000Y-81575250D01*
X148921000Y-81575250D01*
X148762750Y-81417000D01*
X148524088Y-81417000D01*
X148291434Y-81513369D01*
X148125277Y-81679527D01*
X148074750Y-81629000D01*
X147329000Y-81629000D01*
X147071000Y-81629000D01*
X146325250Y-81629000D01*
X146167000Y-81787250D01*
X146082346Y-81787250D01*
X146082346Y-81050000D01*
X146053242Y-80903683D01*
X145970359Y-80779641D01*
X145846317Y-80696758D01*
X145700000Y-80667654D01*
X144900000Y-80667654D01*
X144753683Y-80696758D01*
X144629641Y-80779641D01*
X144546758Y-80903683D01*
X144517654Y-81050000D01*
X144517654Y-81950000D01*
X144546758Y-82096317D01*
X144629641Y-82220359D01*
X144753683Y-82303242D01*
X144800000Y-82312455D01*
X144800000Y-83917654D01*
X144300000Y-83917654D01*
X144153683Y-83946758D01*
X144029641Y-84029641D01*
X143946758Y-84153683D01*
X143917654Y-84300000D01*
X143917654Y-85200000D01*
X143946758Y-85346317D01*
X144029641Y-85470359D01*
X144153683Y-85553242D01*
X144227418Y-85567909D01*
X144178097Y-85617144D01*
X144075117Y-85865145D01*
X144075071Y-85917654D01*
X143350000Y-85917654D01*
X143300000Y-85927600D01*
X143300000Y-85562455D01*
X143346317Y-85553242D01*
X143470359Y-85470359D01*
X143553242Y-85346317D01*
X143582346Y-85200000D01*
X143582346Y-84300000D01*
X143553242Y-84153683D01*
X143470359Y-84029641D01*
X143346317Y-83946758D01*
X143200000Y-83917654D01*
X142400000Y-83917654D01*
X142253683Y-83946758D01*
X142129641Y-84029641D01*
X142046758Y-84153683D01*
X142017654Y-84300000D01*
X142017654Y-85200000D01*
X142046758Y-85346317D01*
X142129641Y-85470359D01*
X142253683Y-85553242D01*
X142300000Y-85562455D01*
X142300000Y-87492894D01*
X142146447Y-87646447D01*
X142038060Y-87808658D01*
X142033332Y-87832425D01*
X141828093Y-87626828D01*
X141750000Y-87594401D01*
X141750000Y-87467372D01*
X141820359Y-87420359D01*
X141903242Y-87296317D01*
X141932346Y-87150000D01*
X141932346Y-86750000D01*
X141903242Y-86603683D01*
X141833963Y-86500000D01*
X141903242Y-86396317D01*
X141932346Y-86250000D01*
X141932346Y-85850000D01*
X141903242Y-85703683D01*
X141820359Y-85579641D01*
X141750000Y-85532628D01*
X141750000Y-84312455D01*
X141796317Y-84303242D01*
X141920359Y-84220359D01*
X142003242Y-84096317D01*
X142032346Y-83950000D01*
X142032346Y-83050000D01*
X142003242Y-82903683D01*
X141920359Y-82779641D01*
X141796317Y-82696758D01*
X141650000Y-82667654D01*
X140850000Y-82667654D01*
X140800000Y-82677600D01*
X140800000Y-82312455D01*
X140846317Y-82303242D01*
X140970359Y-82220359D01*
X141053242Y-82096317D01*
X141082346Y-81950000D01*
X141082346Y-81787250D01*
X141167000Y-81787250D01*
X141167000Y-82075911D01*
X141263368Y-82308565D01*
X141441434Y-82486631D01*
X141674088Y-82583000D01*
X141912750Y-82583000D01*
X142071000Y-82424750D01*
X142071000Y-81629000D01*
X142329000Y-81629000D01*
X142329000Y-82424750D01*
X142487250Y-82583000D01*
X142725912Y-82583000D01*
X142958566Y-82486631D01*
X143136632Y-82308565D01*
X143233000Y-82075911D01*
X143233000Y-81787250D01*
X143074750Y-81629000D01*
X142329000Y-81629000D01*
X142071000Y-81629000D01*
X141325250Y-81629000D01*
X141167000Y-81787250D01*
X141082346Y-81787250D01*
X141082346Y-81224999D01*
X141179249Y-81224999D01*
X141325250Y-81371000D01*
X142071000Y-81371000D01*
X142071000Y-81351000D01*
X142329000Y-81351000D01*
X142329000Y-81371000D01*
X143074750Y-81371000D01*
X143196455Y-81249295D01*
X143200000Y-81250000D01*
X143224001Y-81250000D01*
X143303683Y-81303242D01*
X143450000Y-81332346D01*
X144050000Y-81332346D01*
X144196317Y-81303242D01*
X144320359Y-81220359D01*
X144403242Y-81096317D01*
X144432346Y-80950000D01*
X144432346Y-80550000D01*
X144403242Y-80403683D01*
X144333963Y-80300000D01*
X144403242Y-80196317D01*
X144432346Y-80050000D01*
X144432346Y-79650000D01*
X144403242Y-79503683D01*
X144327522Y-79390361D01*
X144366429Y-79374285D01*
X144683172Y-79058093D01*
X144854804Y-78644758D01*
X144855195Y-78197205D01*
X144684285Y-77783571D01*
X144525990Y-77625000D01*
X148014008Y-77625000D01*
X147856828Y-77781907D01*
G36*
X142000000Y-90250000D02*
X142038060Y-90441342D01*
X142146447Y-90603553D01*
X142308658Y-90711940D01*
X142500000Y-90750000D01*
X144042894Y-90750000D01*
X150521445Y-97228551D01*
X150683656Y-97336938D01*
X150787262Y-97357546D01*
X150618143Y-97427425D01*
X150545445Y-97499996D01*
X146457102Y-97499996D01*
X140614999Y-91657893D01*
X140614999Y-89559370D01*
X140965242Y-89704804D01*
X141412795Y-89705195D01*
X141826429Y-89534285D01*
X142000000Y-89361016D01*
X142000000Y-90250000D01*
X142000000Y-90250000D01*
G37*
X142000000Y-90250000D02*
X142038060Y-90441342D01*
X142146447Y-90603553D01*
X142308658Y-90711940D01*
X142500000Y-90750000D01*
X144042894Y-90750000D01*
X150521445Y-97228551D01*
X150683656Y-97336938D01*
X150787262Y-97357546D01*
X150618143Y-97427425D01*
X150545445Y-97499996D01*
X146457102Y-97499996D01*
X140614999Y-91657893D01*
X140614999Y-89559370D01*
X140965242Y-89704804D01*
X141412795Y-89705195D01*
X141826429Y-89534285D01*
X142000000Y-89361016D01*
X142000000Y-90250000D01*
G36*
X154149604Y-94056710D02*
X153905000Y-94157779D01*
X153749945Y-94312563D01*
X153596295Y-94158644D01*
X153274812Y-94025152D01*
X152926715Y-94024849D01*
X152605000Y-94157779D01*
X152358644Y-94403705D01*
X152242231Y-94684058D01*
X148234999Y-90676827D01*
X148234999Y-89559370D01*
X148585242Y-89704804D01*
X149032795Y-89705195D01*
X149446429Y-89534285D01*
X149536883Y-89443989D01*
X154149604Y-94056710D01*
X154149604Y-94056710D01*
G37*
X154149604Y-94056710D02*
X153905000Y-94157779D01*
X153749945Y-94312563D01*
X153596295Y-94158644D01*
X153274812Y-94025152D01*
X152926715Y-94024849D01*
X152605000Y-94157779D01*
X152358644Y-94403705D01*
X152242231Y-94684058D01*
X148234999Y-90676827D01*
X148234999Y-89559370D01*
X148585242Y-89704804D01*
X149032795Y-89705195D01*
X149446429Y-89534285D01*
X149536883Y-89443989D01*
X154149604Y-94056710D01*
G36*
X158617654Y-89494760D02*
X158617654Y-90670000D01*
X158646758Y-90816317D01*
X158729641Y-90940359D01*
X158853683Y-91023242D01*
X159000000Y-91052346D01*
X160748463Y-91052346D01*
X161023771Y-91327654D01*
X159000000Y-91327654D01*
X158853683Y-91356758D01*
X158729641Y-91439641D01*
X158646758Y-91563683D01*
X158617654Y-91710000D01*
X158617654Y-91986325D01*
X158558658Y-91998060D01*
X158396447Y-92106447D01*
X158370999Y-92131895D01*
X158370999Y-91064081D01*
X158420939Y-90989341D01*
X158458999Y-90797999D01*
X158458999Y-89336105D01*
X158617654Y-89494760D01*
X158617654Y-89494760D01*
G37*
X158617654Y-89494760D02*
X158617654Y-90670000D01*
X158646758Y-90816317D01*
X158729641Y-90940359D01*
X158853683Y-91023242D01*
X159000000Y-91052346D01*
X160748463Y-91052346D01*
X161023771Y-91327654D01*
X159000000Y-91327654D01*
X158853683Y-91356758D01*
X158729641Y-91439641D01*
X158646758Y-91563683D01*
X158617654Y-91710000D01*
X158617654Y-91986325D01*
X158558658Y-91998060D01*
X158396447Y-92106447D01*
X158370999Y-92131895D01*
X158370999Y-91064081D01*
X158420939Y-90989341D01*
X158458999Y-90797999D01*
X158458999Y-89336105D01*
X158617654Y-89494760D01*
G36*
X157458999Y-90619917D02*
X157409059Y-90694657D01*
X157370999Y-90885999D01*
X157370999Y-91716666D01*
X157242221Y-91405000D01*
X156996295Y-91158644D01*
X156674812Y-91025152D01*
X156326715Y-91024849D01*
X156005000Y-91157779D01*
X155846689Y-91315814D01*
X155842221Y-91305000D01*
X155596295Y-91058644D01*
X155274812Y-90925152D01*
X154926715Y-90924849D01*
X154605000Y-91057779D01*
X154358644Y-91303705D01*
X154225152Y-91625188D01*
X154224876Y-91942771D01*
X153314999Y-91032895D01*
X153314999Y-89559370D01*
X153665242Y-89704804D01*
X154112795Y-89705195D01*
X154526429Y-89534285D01*
X154843172Y-89218093D01*
X155014804Y-88804758D01*
X155015195Y-88357205D01*
X154958095Y-88219012D01*
X157087553Y-86089554D01*
X157195940Y-85927342D01*
X157208077Y-85866323D01*
X157234000Y-85736000D01*
X157234000Y-84338400D01*
X157330317Y-84319242D01*
X157454359Y-84236359D01*
X157458999Y-84229415D01*
X157458999Y-90619917D01*
X157458999Y-90619917D01*
G37*
X157458999Y-90619917D02*
X157409059Y-90694657D01*
X157370999Y-90885999D01*
X157370999Y-91716666D01*
X157242221Y-91405000D01*
X156996295Y-91158644D01*
X156674812Y-91025152D01*
X156326715Y-91024849D01*
X156005000Y-91157779D01*
X155846689Y-91315814D01*
X155842221Y-91305000D01*
X155596295Y-91058644D01*
X155274812Y-90925152D01*
X154926715Y-90924849D01*
X154605000Y-91057779D01*
X154358644Y-91303705D01*
X154225152Y-91625188D01*
X154224876Y-91942771D01*
X153314999Y-91032895D01*
X153314999Y-89559370D01*
X153665242Y-89704804D01*
X154112795Y-89705195D01*
X154526429Y-89534285D01*
X154843172Y-89218093D01*
X155014804Y-88804758D01*
X155015195Y-88357205D01*
X154958095Y-88219012D01*
X157087553Y-86089554D01*
X157195940Y-85927342D01*
X157208077Y-85866323D01*
X157234000Y-85736000D01*
X157234000Y-84338400D01*
X157330317Y-84319242D01*
X157454359Y-84236359D01*
X157458999Y-84229415D01*
X157458999Y-90619917D01*
G36*
X153474999Y-86696892D02*
X152461446Y-87710446D01*
X152353059Y-87872657D01*
X152327687Y-88000209D01*
X152304285Y-87943571D01*
X151988093Y-87626828D01*
X151750000Y-87527963D01*
X151750000Y-87167372D01*
X151820359Y-87120359D01*
X151903242Y-86996317D01*
X151932346Y-86850000D01*
X151932346Y-86450000D01*
X151903242Y-86303683D01*
X151833963Y-86200000D01*
X151903242Y-86096317D01*
X151932346Y-85950000D01*
X151932346Y-85550000D01*
X151903242Y-85403683D01*
X151820359Y-85279641D01*
X151750000Y-85232628D01*
X151750000Y-85157106D01*
X152624761Y-84282346D01*
X153200000Y-84282346D01*
X153346317Y-84253242D01*
X153470359Y-84170359D01*
X153474999Y-84163415D01*
X153474999Y-86696892D01*
X153474999Y-86696892D01*
G37*
X153474999Y-86696892D02*
X152461446Y-87710446D01*
X152353059Y-87872657D01*
X152327687Y-88000209D01*
X152304285Y-87943571D01*
X151988093Y-87626828D01*
X151750000Y-87527963D01*
X151750000Y-87167372D01*
X151820359Y-87120359D01*
X151903242Y-86996317D01*
X151932346Y-86850000D01*
X151932346Y-86450000D01*
X151903242Y-86303683D01*
X151833963Y-86200000D01*
X151903242Y-86096317D01*
X151932346Y-85950000D01*
X151932346Y-85550000D01*
X151903242Y-85403683D01*
X151820359Y-85279641D01*
X151750000Y-85232628D01*
X151750000Y-85157106D01*
X152624761Y-84282346D01*
X153200000Y-84282346D01*
X153346317Y-84253242D01*
X153470359Y-84170359D01*
X153474999Y-84163415D01*
X153474999Y-86696892D01*
G36*
X129167000Y-85012750D02*
X129325250Y-85171000D01*
X130121000Y-85171000D01*
X130121000Y-85151000D01*
X130379000Y-85151000D01*
X130379000Y-85171000D01*
X130399000Y-85171000D01*
X130399000Y-85429000D01*
X130379000Y-85429000D01*
X130379000Y-86174750D01*
X130537250Y-86333000D01*
X130825911Y-86333000D01*
X130974999Y-86271246D01*
X130974999Y-86536585D01*
X130970359Y-86529641D01*
X130846317Y-86446758D01*
X130700000Y-86417654D01*
X129800000Y-86417654D01*
X129653683Y-86446758D01*
X129529641Y-86529641D01*
X129446758Y-86653683D01*
X129417654Y-86800000D01*
X129417654Y-87095549D01*
X128874999Y-86552895D01*
X128874999Y-85587250D01*
X129167000Y-85587250D01*
X129167000Y-85825912D01*
X129263369Y-86058566D01*
X129441435Y-86236632D01*
X129674089Y-86333000D01*
X129962750Y-86333000D01*
X130121000Y-86174750D01*
X130121000Y-85429000D01*
X129325250Y-85429000D01*
X129167000Y-85587250D01*
X128874999Y-85587250D01*
X128874999Y-85082107D01*
X129167000Y-84790106D01*
X129167000Y-85012750D01*
X129167000Y-85012750D01*
G37*
X129167000Y-85012750D02*
X129325250Y-85171000D01*
X130121000Y-85171000D01*
X130121000Y-85151000D01*
X130379000Y-85151000D01*
X130379000Y-85171000D01*
X130399000Y-85171000D01*
X130399000Y-85429000D01*
X130379000Y-85429000D01*
X130379000Y-86174750D01*
X130537250Y-86333000D01*
X130825911Y-86333000D01*
X130974999Y-86271246D01*
X130974999Y-86536585D01*
X130970359Y-86529641D01*
X130846317Y-86446758D01*
X130700000Y-86417654D01*
X129800000Y-86417654D01*
X129653683Y-86446758D01*
X129529641Y-86529641D01*
X129446758Y-86653683D01*
X129417654Y-86800000D01*
X129417654Y-87095549D01*
X128874999Y-86552895D01*
X128874999Y-85587250D01*
X129167000Y-85587250D01*
X129167000Y-85825912D01*
X129263369Y-86058566D01*
X129441435Y-86236632D01*
X129674089Y-86333000D01*
X129962750Y-86333000D01*
X130121000Y-86174750D01*
X130121000Y-85429000D01*
X129325250Y-85429000D01*
X129167000Y-85587250D01*
X128874999Y-85587250D01*
X128874999Y-85082107D01*
X129167000Y-84790106D01*
X129167000Y-85012750D01*
G36*
X129167000Y-77774088D02*
X129167000Y-78012750D01*
X129325250Y-78171000D01*
X130121000Y-78171000D01*
X130121000Y-78151000D01*
X130379000Y-78151000D01*
X130379000Y-78171000D01*
X131174750Y-78171000D01*
X131333000Y-78012750D01*
X131333000Y-77774088D01*
X131271245Y-77625000D01*
X135314008Y-77625000D01*
X135156828Y-77781907D01*
X135066268Y-78000000D01*
X134967372Y-78000000D01*
X134920359Y-77929641D01*
X134796317Y-77846758D01*
X134650000Y-77817654D01*
X134250000Y-77817654D01*
X134103683Y-77846758D01*
X134000000Y-77916037D01*
X133896317Y-77846758D01*
X133750000Y-77817654D01*
X133350000Y-77817654D01*
X133203683Y-77846758D01*
X133079641Y-77929641D01*
X133032628Y-78000000D01*
X133000000Y-78000000D01*
X132808658Y-78038060D01*
X132646446Y-78146447D01*
X132325239Y-78467654D01*
X131800000Y-78467654D01*
X131653683Y-78496758D01*
X131529641Y-78579641D01*
X131446758Y-78703683D01*
X131417654Y-78850000D01*
X131417654Y-79650000D01*
X131446758Y-79796317D01*
X131529641Y-79920359D01*
X131653683Y-80003242D01*
X131800000Y-80032346D01*
X132700000Y-80032346D01*
X132846317Y-80003242D01*
X132969400Y-79921000D01*
X133621000Y-79921000D01*
X133621000Y-79901000D01*
X133879000Y-79901000D01*
X133879000Y-79921000D01*
X134674750Y-79921000D01*
X134833000Y-79762750D01*
X134833000Y-79524088D01*
X134736631Y-79291434D01*
X134627543Y-79182346D01*
X134650000Y-79182346D01*
X134796317Y-79153242D01*
X134920359Y-79070359D01*
X134967372Y-79000000D01*
X135132399Y-79000000D01*
X135155715Y-79056429D01*
X135471907Y-79373172D01*
X135885242Y-79544804D01*
X136332795Y-79545195D01*
X136498056Y-79476910D01*
X136446758Y-79553683D01*
X136417654Y-79700000D01*
X136417654Y-79875239D01*
X136075240Y-80217654D01*
X135300000Y-80217654D01*
X135153683Y-80246758D01*
X135029641Y-80329641D01*
X134946758Y-80453683D01*
X134917654Y-80600000D01*
X134917654Y-80975546D01*
X134813554Y-80871446D01*
X134729749Y-80815448D01*
X134736631Y-80808566D01*
X134833000Y-80575912D01*
X134833000Y-80337250D01*
X134674750Y-80179000D01*
X133879000Y-80179000D01*
X133879000Y-80199000D01*
X133621000Y-80199000D01*
X133621000Y-80179000D01*
X132825250Y-80179000D01*
X132667000Y-80337250D01*
X132667000Y-80575912D01*
X132763369Y-80808566D01*
X132770251Y-80815448D01*
X132686445Y-80871446D01*
X131896447Y-81661445D01*
X131788060Y-81823656D01*
X131757745Y-81976059D01*
X131653683Y-81996758D01*
X131529641Y-82079641D01*
X131446758Y-82203683D01*
X131417654Y-82350000D01*
X131417654Y-83150000D01*
X131446758Y-83296317D01*
X131529641Y-83420359D01*
X131653683Y-83503242D01*
X131800000Y-83532346D01*
X132110548Y-83532346D01*
X131169045Y-84473848D01*
X131058565Y-84363368D01*
X130993138Y-84336268D01*
X131053242Y-84246317D01*
X131082346Y-84100000D01*
X131082346Y-83300000D01*
X131053242Y-83153683D01*
X130970359Y-83029641D01*
X130846317Y-82946758D01*
X130700000Y-82917654D01*
X129800000Y-82917654D01*
X129653683Y-82946758D01*
X129529641Y-83029641D01*
X129446758Y-83153683D01*
X129432912Y-83223290D01*
X129358658Y-83238060D01*
X129196446Y-83346447D01*
X128424988Y-84117906D01*
X128424988Y-82087250D01*
X129167000Y-82087250D01*
X129167000Y-82325912D01*
X129263369Y-82558566D01*
X129441435Y-82736632D01*
X129674089Y-82833000D01*
X129962750Y-82833000D01*
X130121000Y-82674750D01*
X130121000Y-81929000D01*
X130379000Y-81929000D01*
X130379000Y-82674750D01*
X130537250Y-82833000D01*
X130825911Y-82833000D01*
X131058565Y-82736632D01*
X131236631Y-82558566D01*
X131333000Y-82325912D01*
X131333000Y-82087250D01*
X131174750Y-81929000D01*
X130379000Y-81929000D01*
X130121000Y-81929000D01*
X129325250Y-81929000D01*
X129167000Y-82087250D01*
X128424988Y-82087250D01*
X128424988Y-82032118D01*
X129167000Y-81290106D01*
X129167000Y-81512750D01*
X129325250Y-81671000D01*
X130121000Y-81671000D01*
X130121000Y-81651000D01*
X130379000Y-81651000D01*
X130379000Y-81671000D01*
X131174750Y-81671000D01*
X131333000Y-81512750D01*
X131333000Y-81274088D01*
X131236631Y-81041434D01*
X131058565Y-80863368D01*
X130993138Y-80836268D01*
X131053242Y-80746317D01*
X131082346Y-80600000D01*
X131082346Y-79800000D01*
X131053242Y-79653683D01*
X130970359Y-79529641D01*
X130846317Y-79446758D01*
X130700000Y-79417654D01*
X129800000Y-79417654D01*
X129653683Y-79446758D01*
X129529641Y-79529641D01*
X129446758Y-79653683D01*
X129432912Y-79723290D01*
X129358658Y-79738060D01*
X129196447Y-79846447D01*
X127875000Y-81167894D01*
X127875000Y-78587250D01*
X129167000Y-78587250D01*
X129167000Y-78825912D01*
X129263369Y-79058566D01*
X129441435Y-79236632D01*
X129674089Y-79333000D01*
X129962750Y-79333000D01*
X130121000Y-79174750D01*
X130121000Y-78429000D01*
X130379000Y-78429000D01*
X130379000Y-79174750D01*
X130537250Y-79333000D01*
X130825911Y-79333000D01*
X131058565Y-79236632D01*
X131236631Y-79058566D01*
X131333000Y-78825912D01*
X131333000Y-78587250D01*
X131174750Y-78429000D01*
X130379000Y-78429000D01*
X130121000Y-78429000D01*
X129325250Y-78429000D01*
X129167000Y-78587250D01*
X127875000Y-78587250D01*
X127875000Y-77625000D01*
X129228755Y-77625000D01*
X129167000Y-77774088D01*
X129167000Y-77774088D01*
G37*
X129167000Y-77774088D02*
X129167000Y-78012750D01*
X129325250Y-78171000D01*
X130121000Y-78171000D01*
X130121000Y-78151000D01*
X130379000Y-78151000D01*
X130379000Y-78171000D01*
X131174750Y-78171000D01*
X131333000Y-78012750D01*
X131333000Y-77774088D01*
X131271245Y-77625000D01*
X135314008Y-77625000D01*
X135156828Y-77781907D01*
X135066268Y-78000000D01*
X134967372Y-78000000D01*
X134920359Y-77929641D01*
X134796317Y-77846758D01*
X134650000Y-77817654D01*
X134250000Y-77817654D01*
X134103683Y-77846758D01*
X134000000Y-77916037D01*
X133896317Y-77846758D01*
X133750000Y-77817654D01*
X133350000Y-77817654D01*
X133203683Y-77846758D01*
X133079641Y-77929641D01*
X133032628Y-78000000D01*
X133000000Y-78000000D01*
X132808658Y-78038060D01*
X132646446Y-78146447D01*
X132325239Y-78467654D01*
X131800000Y-78467654D01*
X131653683Y-78496758D01*
X131529641Y-78579641D01*
X131446758Y-78703683D01*
X131417654Y-78850000D01*
X131417654Y-79650000D01*
X131446758Y-79796317D01*
X131529641Y-79920359D01*
X131653683Y-80003242D01*
X131800000Y-80032346D01*
X132700000Y-80032346D01*
X132846317Y-80003242D01*
X132969400Y-79921000D01*
X133621000Y-79921000D01*
X133621000Y-79901000D01*
X133879000Y-79901000D01*
X133879000Y-79921000D01*
X134674750Y-79921000D01*
X134833000Y-79762750D01*
X134833000Y-79524088D01*
X134736631Y-79291434D01*
X134627543Y-79182346D01*
X134650000Y-79182346D01*
X134796317Y-79153242D01*
X134920359Y-79070359D01*
X134967372Y-79000000D01*
X135132399Y-79000000D01*
X135155715Y-79056429D01*
X135471907Y-79373172D01*
X135885242Y-79544804D01*
X136332795Y-79545195D01*
X136498056Y-79476910D01*
X136446758Y-79553683D01*
X136417654Y-79700000D01*
X136417654Y-79875239D01*
X136075240Y-80217654D01*
X135300000Y-80217654D01*
X135153683Y-80246758D01*
X135029641Y-80329641D01*
X134946758Y-80453683D01*
X134917654Y-80600000D01*
X134917654Y-80975546D01*
X134813554Y-80871446D01*
X134729749Y-80815448D01*
X134736631Y-80808566D01*
X134833000Y-80575912D01*
X134833000Y-80337250D01*
X134674750Y-80179000D01*
X133879000Y-80179000D01*
X133879000Y-80199000D01*
X133621000Y-80199000D01*
X133621000Y-80179000D01*
X132825250Y-80179000D01*
X132667000Y-80337250D01*
X132667000Y-80575912D01*
X132763369Y-80808566D01*
X132770251Y-80815448D01*
X132686445Y-80871446D01*
X131896447Y-81661445D01*
X131788060Y-81823656D01*
X131757745Y-81976059D01*
X131653683Y-81996758D01*
X131529641Y-82079641D01*
X131446758Y-82203683D01*
X131417654Y-82350000D01*
X131417654Y-83150000D01*
X131446758Y-83296317D01*
X131529641Y-83420359D01*
X131653683Y-83503242D01*
X131800000Y-83532346D01*
X132110548Y-83532346D01*
X131169045Y-84473848D01*
X131058565Y-84363368D01*
X130993138Y-84336268D01*
X131053242Y-84246317D01*
X131082346Y-84100000D01*
X131082346Y-83300000D01*
X131053242Y-83153683D01*
X130970359Y-83029641D01*
X130846317Y-82946758D01*
X130700000Y-82917654D01*
X129800000Y-82917654D01*
X129653683Y-82946758D01*
X129529641Y-83029641D01*
X129446758Y-83153683D01*
X129432912Y-83223290D01*
X129358658Y-83238060D01*
X129196446Y-83346447D01*
X128424988Y-84117906D01*
X128424988Y-82087250D01*
X129167000Y-82087250D01*
X129167000Y-82325912D01*
X129263369Y-82558566D01*
X129441435Y-82736632D01*
X129674089Y-82833000D01*
X129962750Y-82833000D01*
X130121000Y-82674750D01*
X130121000Y-81929000D01*
X130379000Y-81929000D01*
X130379000Y-82674750D01*
X130537250Y-82833000D01*
X130825911Y-82833000D01*
X131058565Y-82736632D01*
X131236631Y-82558566D01*
X131333000Y-82325912D01*
X131333000Y-82087250D01*
X131174750Y-81929000D01*
X130379000Y-81929000D01*
X130121000Y-81929000D01*
X129325250Y-81929000D01*
X129167000Y-82087250D01*
X128424988Y-82087250D01*
X128424988Y-82032118D01*
X129167000Y-81290106D01*
X129167000Y-81512750D01*
X129325250Y-81671000D01*
X130121000Y-81671000D01*
X130121000Y-81651000D01*
X130379000Y-81651000D01*
X130379000Y-81671000D01*
X131174750Y-81671000D01*
X131333000Y-81512750D01*
X131333000Y-81274088D01*
X131236631Y-81041434D01*
X131058565Y-80863368D01*
X130993138Y-80836268D01*
X131053242Y-80746317D01*
X131082346Y-80600000D01*
X131082346Y-79800000D01*
X131053242Y-79653683D01*
X130970359Y-79529641D01*
X130846317Y-79446758D01*
X130700000Y-79417654D01*
X129800000Y-79417654D01*
X129653683Y-79446758D01*
X129529641Y-79529641D01*
X129446758Y-79653683D01*
X129432912Y-79723290D01*
X129358658Y-79738060D01*
X129196447Y-79846447D01*
X127875000Y-81167894D01*
X127875000Y-78587250D01*
X129167000Y-78587250D01*
X129167000Y-78825912D01*
X129263369Y-79058566D01*
X129441435Y-79236632D01*
X129674089Y-79333000D01*
X129962750Y-79333000D01*
X130121000Y-79174750D01*
X130121000Y-78429000D01*
X130379000Y-78429000D01*
X130379000Y-79174750D01*
X130537250Y-79333000D01*
X130825911Y-79333000D01*
X131058565Y-79236632D01*
X131236631Y-79058566D01*
X131333000Y-78825912D01*
X131333000Y-78587250D01*
X131174750Y-78429000D01*
X130379000Y-78429000D01*
X130121000Y-78429000D01*
X129325250Y-78429000D01*
X129167000Y-78587250D01*
X127875000Y-78587250D01*
X127875000Y-77625000D01*
X129228755Y-77625000D01*
X129167000Y-77774088D01*
G36*
X167673566Y-65666764D02*
X168668466Y-66331534D01*
X169333237Y-67326435D01*
X169575000Y-68541860D01*
X169575000Y-75875000D01*
X126500000Y-75875000D01*
X126452165Y-75884515D01*
X126411612Y-75911612D01*
X126384515Y-75952165D01*
X126375000Y-76000000D01*
X126375000Y-90174891D01*
X126287107Y-90174814D01*
X125891857Y-90338128D01*
X125589191Y-90640267D01*
X125425187Y-91035231D01*
X125424814Y-91462893D01*
X125588128Y-91858143D01*
X125890267Y-92160809D01*
X126285231Y-92324813D01*
X126375000Y-92324891D01*
X126375000Y-92421904D01*
X126160936Y-92433859D01*
X125809102Y-92579593D01*
X125746991Y-92814557D01*
X126375000Y-93442566D01*
X126375000Y-93835718D01*
X126303424Y-93764142D01*
X126317566Y-93750000D01*
X125564557Y-92996991D01*
X125329593Y-93059102D01*
X125154290Y-93559589D01*
X125183859Y-94089064D01*
X125302297Y-94375000D01*
X120425000Y-94375000D01*
X120425000Y-73173285D01*
X135124849Y-73173285D01*
X135257779Y-73495000D01*
X135503705Y-73741356D01*
X135825188Y-73874848D01*
X135983271Y-73874986D01*
X136027429Y-73981857D01*
X136217144Y-74171903D01*
X136465145Y-74274883D01*
X136733677Y-74275117D01*
X136981857Y-74172571D01*
X137171903Y-73982856D01*
X137274883Y-73734855D01*
X137275117Y-73466323D01*
X137172571Y-73218143D01*
X136982856Y-73028097D01*
X136875015Y-72983317D01*
X136875151Y-72826715D01*
X136742221Y-72505000D01*
X136496295Y-72258644D01*
X136174812Y-72125152D01*
X135826715Y-72124849D01*
X135505000Y-72257779D01*
X135258644Y-72503705D01*
X135125152Y-72825188D01*
X135124849Y-73173285D01*
X120425000Y-73173285D01*
X120425000Y-71273285D01*
X128024849Y-71273285D01*
X128157779Y-71595000D01*
X128403705Y-71841356D01*
X128725188Y-71974848D01*
X129073285Y-71975151D01*
X129389700Y-71844411D01*
X129417144Y-71871903D01*
X129665145Y-71974883D01*
X129933677Y-71975117D01*
X130181857Y-71872571D01*
X130371903Y-71682856D01*
X130474883Y-71434855D01*
X130475117Y-71166323D01*
X130372571Y-70918143D01*
X130182856Y-70728097D01*
X129955470Y-70633677D01*
X144924883Y-70633677D01*
X145027429Y-70881857D01*
X145217144Y-71071903D01*
X145465145Y-71174883D01*
X145733677Y-71175117D01*
X145981857Y-71072571D01*
X146171903Y-70882856D01*
X146274883Y-70634855D01*
X146275117Y-70366323D01*
X146175148Y-70124381D01*
X146495000Y-69992221D01*
X146741356Y-69746295D01*
X146874848Y-69424812D01*
X146875094Y-69141128D01*
X164274657Y-69141128D01*
X164574700Y-69867286D01*
X165129791Y-70423348D01*
X165855425Y-70724657D01*
X166641128Y-70725343D01*
X167367286Y-70425300D01*
X167923348Y-69870209D01*
X168224657Y-69144575D01*
X168225343Y-68358872D01*
X167925300Y-67632714D01*
X167370209Y-67076652D01*
X166644575Y-66775343D01*
X165858872Y-66774657D01*
X165132714Y-67074700D01*
X164576652Y-67629791D01*
X164275343Y-68355425D01*
X164274657Y-69141128D01*
X146875094Y-69141128D01*
X146875151Y-69076715D01*
X146742221Y-68755000D01*
X146496295Y-68508644D01*
X146294759Y-68424959D01*
X146495000Y-68342221D01*
X146737645Y-68100000D01*
X147745366Y-68100000D01*
X147817144Y-68171903D01*
X148065145Y-68274883D01*
X148333677Y-68275117D01*
X148581857Y-68172571D01*
X148771903Y-67982856D01*
X148874883Y-67734855D01*
X148875117Y-67466323D01*
X148772571Y-67218143D01*
X148582856Y-67028097D01*
X148334855Y-66925117D01*
X148066323Y-66924883D01*
X147818143Y-67027429D01*
X147745445Y-67100000D01*
X146737230Y-67100000D01*
X146496295Y-66858644D01*
X146174812Y-66725152D01*
X145826715Y-66724849D01*
X145505000Y-66857779D01*
X145258644Y-67103705D01*
X145125152Y-67425188D01*
X145124849Y-67773285D01*
X145257779Y-68095000D01*
X145503705Y-68341356D01*
X145705241Y-68425041D01*
X145505000Y-68507779D01*
X145258644Y-68753705D01*
X145125152Y-69075188D01*
X145124849Y-69423285D01*
X145138928Y-69457359D01*
X145138060Y-69458658D01*
X145100000Y-69650000D01*
X145100000Y-70045366D01*
X145028097Y-70117144D01*
X144925117Y-70365145D01*
X144924883Y-70633677D01*
X129955470Y-70633677D01*
X129934855Y-70625117D01*
X129666323Y-70624883D01*
X129652753Y-70630490D01*
X129642221Y-70605000D01*
X129396295Y-70358644D01*
X129074812Y-70225152D01*
X128726715Y-70224849D01*
X128405000Y-70357779D01*
X128158644Y-70603705D01*
X128025152Y-70925188D01*
X128024849Y-71273285D01*
X120425000Y-71273285D01*
X120425000Y-68891128D01*
X121524657Y-68891128D01*
X121824700Y-69617286D01*
X122379791Y-70173348D01*
X123105425Y-70474657D01*
X123891128Y-70475343D01*
X124617286Y-70175300D01*
X125173348Y-69620209D01*
X125474657Y-68894575D01*
X125475343Y-68108872D01*
X125175300Y-67382714D01*
X124620209Y-66826652D01*
X124155473Y-66633677D01*
X155824883Y-66633677D01*
X155927429Y-66881857D01*
X156117144Y-67071903D01*
X156365145Y-67174883D01*
X156633677Y-67175117D01*
X156881857Y-67072571D01*
X156941339Y-67013193D01*
X157057779Y-67295000D01*
X157303705Y-67541356D01*
X157625188Y-67674848D01*
X157973285Y-67675151D01*
X158295000Y-67542221D01*
X158541356Y-67296295D01*
X158674848Y-66974812D01*
X158675151Y-66626715D01*
X158542221Y-66305000D01*
X158296295Y-66058644D01*
X157974812Y-65925152D01*
X157626715Y-65924849D01*
X157444836Y-66000000D01*
X156954634Y-66000000D01*
X156882856Y-65928097D01*
X156634855Y-65825117D01*
X156366323Y-65824883D01*
X156118143Y-65927429D01*
X155928097Y-66117144D01*
X155825117Y-66365145D01*
X155824883Y-66633677D01*
X124155473Y-66633677D01*
X123894575Y-66525343D01*
X123108872Y-66524657D01*
X122382714Y-66824700D01*
X121826652Y-67379791D01*
X121525343Y-68105425D01*
X121524657Y-68891128D01*
X120425000Y-68891128D01*
X120425000Y-68541860D01*
X120666764Y-67326434D01*
X121331534Y-66331534D01*
X122326435Y-65666763D01*
X123541860Y-65425000D01*
X166458140Y-65425000D01*
X167673566Y-65666764D01*
X167673566Y-65666764D01*
G37*
X167673566Y-65666764D02*
X168668466Y-66331534D01*
X169333237Y-67326435D01*
X169575000Y-68541860D01*
X169575000Y-75875000D01*
X126500000Y-75875000D01*
X126452165Y-75884515D01*
X126411612Y-75911612D01*
X126384515Y-75952165D01*
X126375000Y-76000000D01*
X126375000Y-90174891D01*
X126287107Y-90174814D01*
X125891857Y-90338128D01*
X125589191Y-90640267D01*
X125425187Y-91035231D01*
X125424814Y-91462893D01*
X125588128Y-91858143D01*
X125890267Y-92160809D01*
X126285231Y-92324813D01*
X126375000Y-92324891D01*
X126375000Y-92421904D01*
X126160936Y-92433859D01*
X125809102Y-92579593D01*
X125746991Y-92814557D01*
X126375000Y-93442566D01*
X126375000Y-93835718D01*
X126303424Y-93764142D01*
X126317566Y-93750000D01*
X125564557Y-92996991D01*
X125329593Y-93059102D01*
X125154290Y-93559589D01*
X125183859Y-94089064D01*
X125302297Y-94375000D01*
X120425000Y-94375000D01*
X120425000Y-73173285D01*
X135124849Y-73173285D01*
X135257779Y-73495000D01*
X135503705Y-73741356D01*
X135825188Y-73874848D01*
X135983271Y-73874986D01*
X136027429Y-73981857D01*
X136217144Y-74171903D01*
X136465145Y-74274883D01*
X136733677Y-74275117D01*
X136981857Y-74172571D01*
X137171903Y-73982856D01*
X137274883Y-73734855D01*
X137275117Y-73466323D01*
X137172571Y-73218143D01*
X136982856Y-73028097D01*
X136875015Y-72983317D01*
X136875151Y-72826715D01*
X136742221Y-72505000D01*
X136496295Y-72258644D01*
X136174812Y-72125152D01*
X135826715Y-72124849D01*
X135505000Y-72257779D01*
X135258644Y-72503705D01*
X135125152Y-72825188D01*
X135124849Y-73173285D01*
X120425000Y-73173285D01*
X120425000Y-71273285D01*
X128024849Y-71273285D01*
X128157779Y-71595000D01*
X128403705Y-71841356D01*
X128725188Y-71974848D01*
X129073285Y-71975151D01*
X129389700Y-71844411D01*
X129417144Y-71871903D01*
X129665145Y-71974883D01*
X129933677Y-71975117D01*
X130181857Y-71872571D01*
X130371903Y-71682856D01*
X130474883Y-71434855D01*
X130475117Y-71166323D01*
X130372571Y-70918143D01*
X130182856Y-70728097D01*
X129955470Y-70633677D01*
X144924883Y-70633677D01*
X145027429Y-70881857D01*
X145217144Y-71071903D01*
X145465145Y-71174883D01*
X145733677Y-71175117D01*
X145981857Y-71072571D01*
X146171903Y-70882856D01*
X146274883Y-70634855D01*
X146275117Y-70366323D01*
X146175148Y-70124381D01*
X146495000Y-69992221D01*
X146741356Y-69746295D01*
X146874848Y-69424812D01*
X146875094Y-69141128D01*
X164274657Y-69141128D01*
X164574700Y-69867286D01*
X165129791Y-70423348D01*
X165855425Y-70724657D01*
X166641128Y-70725343D01*
X167367286Y-70425300D01*
X167923348Y-69870209D01*
X168224657Y-69144575D01*
X168225343Y-68358872D01*
X167925300Y-67632714D01*
X167370209Y-67076652D01*
X166644575Y-66775343D01*
X165858872Y-66774657D01*
X165132714Y-67074700D01*
X164576652Y-67629791D01*
X164275343Y-68355425D01*
X164274657Y-69141128D01*
X146875094Y-69141128D01*
X146875151Y-69076715D01*
X146742221Y-68755000D01*
X146496295Y-68508644D01*
X146294759Y-68424959D01*
X146495000Y-68342221D01*
X146737645Y-68100000D01*
X147745366Y-68100000D01*
X147817144Y-68171903D01*
X148065145Y-68274883D01*
X148333677Y-68275117D01*
X148581857Y-68172571D01*
X148771903Y-67982856D01*
X148874883Y-67734855D01*
X148875117Y-67466323D01*
X148772571Y-67218143D01*
X148582856Y-67028097D01*
X148334855Y-66925117D01*
X148066323Y-66924883D01*
X147818143Y-67027429D01*
X147745445Y-67100000D01*
X146737230Y-67100000D01*
X146496295Y-66858644D01*
X146174812Y-66725152D01*
X145826715Y-66724849D01*
X145505000Y-66857779D01*
X145258644Y-67103705D01*
X145125152Y-67425188D01*
X145124849Y-67773285D01*
X145257779Y-68095000D01*
X145503705Y-68341356D01*
X145705241Y-68425041D01*
X145505000Y-68507779D01*
X145258644Y-68753705D01*
X145125152Y-69075188D01*
X145124849Y-69423285D01*
X145138928Y-69457359D01*
X145138060Y-69458658D01*
X145100000Y-69650000D01*
X145100000Y-70045366D01*
X145028097Y-70117144D01*
X144925117Y-70365145D01*
X144924883Y-70633677D01*
X129955470Y-70633677D01*
X129934855Y-70625117D01*
X129666323Y-70624883D01*
X129652753Y-70630490D01*
X129642221Y-70605000D01*
X129396295Y-70358644D01*
X129074812Y-70225152D01*
X128726715Y-70224849D01*
X128405000Y-70357779D01*
X128158644Y-70603705D01*
X128025152Y-70925188D01*
X128024849Y-71273285D01*
X120425000Y-71273285D01*
X120425000Y-68891128D01*
X121524657Y-68891128D01*
X121824700Y-69617286D01*
X122379791Y-70173348D01*
X123105425Y-70474657D01*
X123891128Y-70475343D01*
X124617286Y-70175300D01*
X125173348Y-69620209D01*
X125474657Y-68894575D01*
X125475343Y-68108872D01*
X125175300Y-67382714D01*
X124620209Y-66826652D01*
X124155473Y-66633677D01*
X155824883Y-66633677D01*
X155927429Y-66881857D01*
X156117144Y-67071903D01*
X156365145Y-67174883D01*
X156633677Y-67175117D01*
X156881857Y-67072571D01*
X156941339Y-67013193D01*
X157057779Y-67295000D01*
X157303705Y-67541356D01*
X157625188Y-67674848D01*
X157973285Y-67675151D01*
X158295000Y-67542221D01*
X158541356Y-67296295D01*
X158674848Y-66974812D01*
X158675151Y-66626715D01*
X158542221Y-66305000D01*
X158296295Y-66058644D01*
X157974812Y-65925152D01*
X157626715Y-65924849D01*
X157444836Y-66000000D01*
X156954634Y-66000000D01*
X156882856Y-65928097D01*
X156634855Y-65825117D01*
X156366323Y-65824883D01*
X156118143Y-65927429D01*
X155928097Y-66117144D01*
X155825117Y-66365145D01*
X155824883Y-66633677D01*
X124155473Y-66633677D01*
X123894575Y-66525343D01*
X123108872Y-66524657D01*
X122382714Y-66824700D01*
X121826652Y-67379791D01*
X121525343Y-68105425D01*
X121524657Y-68891128D01*
X120425000Y-68891128D01*
X120425000Y-68541860D01*
X120666764Y-67326434D01*
X121331534Y-66331534D01*
X122326435Y-65666763D01*
X123541860Y-65425000D01*
X166458140Y-65425000D01*
X167673566Y-65666764D01*
M02*
