G04 #@! TF.GenerationSoftware,KiCad,Pcbnew,5.0.0-rc2-dev-unknown-c8a7840~64~ubuntu18.04.1*
G04 #@! TF.CreationDate,2018-05-01T15:31:45+02:00*
G04 #@! TF.ProjectId,can-node,63616E2D6E6F64652E6B696361645F70,1.1*
G04 #@! TF.SameCoordinates,Original*
G04 #@! TF.FileFunction,Legend,Top*
G04 #@! TF.FilePolarity,Positive*
%FSLAX46Y46*%
G04 Gerber Fmt 4.6, Leading zero omitted, Abs format (unit mm)*
G04 Created by KiCad (PCBNEW 5.0.0-rc2-dev-unknown-c8a7840~64~ubuntu18.04.1) date Tue May  1 15:31:45 2018*
%MOMM*%
%LPD*%
G01*
G04 APERTURE LIST*
%ADD10C,0.125000*%
%ADD11C,0.150000*%
%ADD12C,0.120000*%
%ADD13C,0.200000*%
%ADD14C,1.000000*%
%ADD15C,0.300000*%
%ADD16C,0.250000*%
%ADD17C,0.187500*%
G04 APERTURE END LIST*
D10*
X121440476Y-116178571D02*
X121416666Y-116202380D01*
X121345238Y-116226190D01*
X121297619Y-116226190D01*
X121226190Y-116202380D01*
X121178571Y-116154761D01*
X121154761Y-116107142D01*
X121130952Y-116011904D01*
X121130952Y-115940476D01*
X121154761Y-115845238D01*
X121178571Y-115797619D01*
X121226190Y-115750000D01*
X121297619Y-115726190D01*
X121345238Y-115726190D01*
X121416666Y-115750000D01*
X121440476Y-115773809D01*
X121630952Y-116083333D02*
X121869047Y-116083333D01*
X121583333Y-116226190D02*
X121750000Y-115726190D01*
X121916666Y-116226190D01*
X122083333Y-116226190D02*
X122083333Y-115726190D01*
X122369047Y-116226190D01*
X122369047Y-115726190D01*
X122607142Y-116035714D02*
X122988095Y-116035714D01*
X123226190Y-116226190D02*
X123226190Y-115726190D01*
X123511904Y-116226190D01*
X123511904Y-115726190D01*
X123821428Y-116226190D02*
X123773809Y-116202380D01*
X123750000Y-116178571D01*
X123726190Y-116130952D01*
X123726190Y-115988095D01*
X123750000Y-115940476D01*
X123773809Y-115916666D01*
X123821428Y-115892857D01*
X123892857Y-115892857D01*
X123940476Y-115916666D01*
X123964285Y-115940476D01*
X123988095Y-115988095D01*
X123988095Y-116130952D01*
X123964285Y-116178571D01*
X123940476Y-116202380D01*
X123892857Y-116226190D01*
X123821428Y-116226190D01*
X124416666Y-116226190D02*
X124416666Y-115726190D01*
X124416666Y-116202380D02*
X124369047Y-116226190D01*
X124273809Y-116226190D01*
X124226190Y-116202380D01*
X124202380Y-116178571D01*
X124178571Y-116130952D01*
X124178571Y-115988095D01*
X124202380Y-115940476D01*
X124226190Y-115916666D01*
X124273809Y-115892857D01*
X124369047Y-115892857D01*
X124416666Y-115916666D01*
X124845238Y-116202380D02*
X124797619Y-116226190D01*
X124702380Y-116226190D01*
X124654761Y-116202380D01*
X124630952Y-116154761D01*
X124630952Y-115964285D01*
X124654761Y-115916666D01*
X124702380Y-115892857D01*
X124797619Y-115892857D01*
X124845238Y-115916666D01*
X124869047Y-115964285D01*
X124869047Y-116011904D01*
X124630952Y-116059523D01*
X125392857Y-115726190D02*
X125559523Y-116226190D01*
X125726190Y-115726190D01*
X126154761Y-116226190D02*
X125869047Y-116226190D01*
X126011904Y-116226190D02*
X126011904Y-115726190D01*
X125964285Y-115797619D01*
X125916666Y-115845238D01*
X125869047Y-115869047D01*
X126369047Y-116178571D02*
X126392857Y-116202380D01*
X126369047Y-116226190D01*
X126345238Y-116202380D01*
X126369047Y-116178571D01*
X126369047Y-116226190D01*
X126869047Y-116226190D02*
X126583333Y-116226190D01*
X126726190Y-116226190D02*
X126726190Y-115726190D01*
X126678571Y-115797619D01*
X126630952Y-115845238D01*
X126583333Y-115869047D01*
D11*
X123253571Y-114000000D02*
X123253571Y-113428571D01*
X123539285Y-113714285D02*
X122967857Y-113714285D01*
X122789285Y-113142857D02*
X122789285Y-112678571D01*
X123075000Y-112928571D01*
X123075000Y-112821428D01*
X123110714Y-112750000D01*
X123146428Y-112714285D01*
X123217857Y-112678571D01*
X123396428Y-112678571D01*
X123467857Y-112714285D01*
X123503571Y-112750000D01*
X123539285Y-112821428D01*
X123539285Y-113035714D01*
X123503571Y-113107142D01*
X123467857Y-113142857D01*
X123467857Y-112357142D02*
X123503571Y-112321428D01*
X123539285Y-112357142D01*
X123503571Y-112392857D01*
X123467857Y-112357142D01*
X123539285Y-112357142D01*
X122789285Y-112071428D02*
X122789285Y-111607142D01*
X123075000Y-111857142D01*
X123075000Y-111750000D01*
X123110714Y-111678571D01*
X123146428Y-111642857D01*
X123217857Y-111607142D01*
X123396428Y-111607142D01*
X123467857Y-111642857D01*
X123503571Y-111678571D01*
X123539285Y-111750000D01*
X123539285Y-111964285D01*
X123503571Y-112035714D01*
X123467857Y-112071428D01*
X122789285Y-111392857D02*
X123539285Y-111142857D01*
X122789285Y-110892857D01*
X122725000Y-102571428D02*
X122689285Y-102642857D01*
X122689285Y-102750000D01*
X122725000Y-102857142D01*
X122796428Y-102928571D01*
X122867857Y-102964285D01*
X123010714Y-103000000D01*
X123117857Y-103000000D01*
X123260714Y-102964285D01*
X123332142Y-102928571D01*
X123403571Y-102857142D01*
X123439285Y-102750000D01*
X123439285Y-102678571D01*
X123403571Y-102571428D01*
X123367857Y-102535714D01*
X123117857Y-102535714D01*
X123117857Y-102678571D01*
X123439285Y-102214285D02*
X122689285Y-102214285D01*
X123439285Y-101785714D01*
X122689285Y-101785714D01*
X123439285Y-101428571D02*
X122689285Y-101428571D01*
X122689285Y-101250000D01*
X122725000Y-101142857D01*
X122796428Y-101071428D01*
X122867857Y-101035714D01*
X123010714Y-101000000D01*
X123117857Y-101000000D01*
X123260714Y-101035714D01*
X123332142Y-101071428D01*
X123403571Y-101142857D01*
X123439285Y-101250000D01*
X123439285Y-101428571D01*
D12*
X152350000Y-110050000D02*
X151650000Y-110050000D01*
X151650000Y-108850000D02*
X152350000Y-108850000D01*
D11*
X165900000Y-89900000D02*
X124100000Y-89900000D01*
X165900000Y-77100000D02*
X165900000Y-89900000D01*
X124100000Y-77100000D02*
X165900000Y-77100000D01*
X124100000Y-89900000D02*
X124100000Y-77100000D01*
D12*
X146500000Y-67680000D02*
X145500000Y-67680000D01*
X145500000Y-66320000D02*
X146500000Y-66320000D01*
X145900000Y-75880000D02*
X147900000Y-75880000D01*
X147900000Y-72920000D02*
X145900000Y-72920000D01*
D11*
X138800000Y-70660000D02*
X138800000Y-75270000D01*
X130200000Y-70660000D02*
X138800000Y-70660000D01*
X130200000Y-76070000D02*
X130200000Y-70660000D01*
X138000000Y-76070000D02*
X130200000Y-76070000D01*
X138800000Y-75270000D02*
X138000000Y-76070000D01*
D13*
X143500000Y-97500000D02*
X137200000Y-97500000D01*
X137200000Y-97500000D02*
X137200000Y-99500000D01*
X137200000Y-99500000D02*
X143500000Y-99500000D01*
X143500000Y-99500000D02*
X143500000Y-97500000D01*
X143500000Y-98000000D02*
X144000000Y-98000000D01*
X143500000Y-99000000D02*
X144000000Y-99000000D01*
D11*
X128700000Y-118400000D02*
X128700000Y-121700000D01*
X131300000Y-118400000D02*
X131300000Y-121600000D01*
X130300000Y-122300000D02*
X129700000Y-122300000D01*
X129700000Y-117700000D02*
X130300000Y-117700000D01*
D13*
X135300000Y-107200000D02*
G75*
G03X135300000Y-107200000I-6500000J0D01*
G01*
D14*
X125000000Y-107200000D02*
G75*
G03X125000000Y-107200000I-1200000J0D01*
G01*
D12*
X159500000Y-72980000D02*
X157500000Y-72980000D01*
X157500000Y-75020000D02*
X159500000Y-75020000D01*
X147400000Y-96450000D02*
X147400000Y-97150000D01*
X146200000Y-97150000D02*
X146200000Y-96450000D01*
X147400000Y-100050000D02*
X147400000Y-100750000D01*
X146200000Y-100750000D02*
X146200000Y-100050000D01*
X143650000Y-103050000D02*
X143650000Y-104050000D01*
X145350000Y-104050000D02*
X145350000Y-103050000D01*
X164400000Y-106350000D02*
X164400000Y-105650000D01*
X165600000Y-105650000D02*
X165600000Y-106350000D01*
X146700000Y-103650000D02*
X146700000Y-104350000D01*
X145500000Y-104350000D02*
X145500000Y-103650000D01*
X160400000Y-109600000D02*
X160400000Y-108900000D01*
X161600000Y-108900000D02*
X161600000Y-109600000D01*
X165850000Y-98000000D02*
X165850000Y-97000000D01*
X164150000Y-97000000D02*
X164150000Y-98000000D01*
X164100000Y-97150000D02*
X164100000Y-97850000D01*
X162900000Y-97850000D02*
X162900000Y-97150000D01*
X151150000Y-92200000D02*
X151850000Y-92200000D01*
X151850000Y-93400000D02*
X151150000Y-93400000D01*
X158850000Y-110000000D02*
X158150000Y-110000000D01*
X158150000Y-108800000D02*
X158850000Y-108800000D01*
X133100000Y-121650000D02*
X133100000Y-122350000D01*
X131900000Y-122350000D02*
X131900000Y-121650000D01*
X151000000Y-92100000D02*
X152000000Y-92100000D01*
X152000000Y-90400000D02*
X151000000Y-90400000D01*
X158600000Y-117150000D02*
X158600000Y-117850000D01*
X157400000Y-117850000D02*
X157400000Y-117150000D01*
X148900000Y-121650000D02*
X148900000Y-122350000D01*
X147700000Y-122350000D02*
X147700000Y-121650000D01*
X144200000Y-94350000D02*
X144200000Y-93650000D01*
X145400000Y-93650000D02*
X145400000Y-94350000D01*
X137450000Y-93400000D02*
X138150000Y-93400000D01*
X138150000Y-94600000D02*
X137450000Y-94600000D01*
X129900000Y-76150000D02*
X123000000Y-76150000D01*
X129900000Y-72850000D02*
X123000000Y-72850000D01*
X129900000Y-76150000D02*
X129900000Y-72850000D01*
X139350000Y-75400000D02*
X142650000Y-75400000D01*
X142650000Y-75400000D02*
X142650000Y-68500000D01*
X139350000Y-75400000D02*
X139350000Y-68500000D01*
X123450000Y-121800000D02*
X124550000Y-121800000D01*
X124550000Y-121800000D02*
X124550000Y-119200000D01*
X123450000Y-121800000D02*
X123450000Y-119200000D01*
X165450000Y-121800000D02*
X165450000Y-119200000D01*
X166550000Y-121800000D02*
X166550000Y-119200000D01*
X165450000Y-121800000D02*
X166550000Y-121800000D01*
D11*
X158000000Y-72200000D02*
X159600000Y-72200000D01*
X158000000Y-66600000D02*
X159600000Y-66600000D01*
D12*
X135500000Y-69070000D02*
X133500000Y-69070000D01*
X133500000Y-66930000D02*
X135500000Y-66930000D01*
X146500000Y-71480000D02*
X145500000Y-71480000D01*
X145500000Y-70120000D02*
X146500000Y-70120000D01*
X146500000Y-69180000D02*
X145500000Y-69180000D01*
X145500000Y-67820000D02*
X146500000Y-67820000D01*
X165320000Y-110500000D02*
X165320000Y-109500000D01*
X166680000Y-109500000D02*
X166680000Y-110500000D01*
X168580000Y-109500000D02*
X168580000Y-110500000D01*
X167220000Y-110500000D02*
X167220000Y-109500000D01*
X126680000Y-119500000D02*
X126680000Y-120500000D01*
X125320000Y-120500000D02*
X125320000Y-119500000D01*
X164680000Y-119500000D02*
X164680000Y-120500000D01*
X163320000Y-120500000D02*
X163320000Y-119500000D01*
X133180000Y-117000000D02*
X133180000Y-118000000D01*
X131820000Y-118000000D02*
X131820000Y-117000000D01*
X144380000Y-109500000D02*
X144380000Y-110500000D01*
X143020000Y-110500000D02*
X143020000Y-109500000D01*
X145720000Y-110500000D02*
X145720000Y-109500000D01*
X147080000Y-109500000D02*
X147080000Y-110500000D01*
X157320000Y-122500000D02*
X157320000Y-121500000D01*
X158680000Y-121500000D02*
X158680000Y-122500000D01*
X138100000Y-96280000D02*
X137100000Y-96280000D01*
X137100000Y-94920000D02*
X138100000Y-94920000D01*
X138100000Y-93080000D02*
X137100000Y-93080000D01*
X137100000Y-91720000D02*
X138100000Y-91720000D01*
X139880000Y-109400000D02*
X139880000Y-110600000D01*
X138120000Y-110600000D02*
X138120000Y-109400000D01*
D11*
X136300000Y-121600000D02*
X136300000Y-118300000D01*
X133700000Y-121600000D02*
X133700000Y-118400000D01*
X134700000Y-117700000D02*
X135300000Y-117700000D01*
X135300000Y-122300000D02*
X134700000Y-122300000D01*
X155300000Y-122300000D02*
X154700000Y-122300000D01*
X154700000Y-117700000D02*
X155300000Y-117700000D01*
X153700000Y-121600000D02*
X153700000Y-118400000D01*
X156300000Y-121600000D02*
X156300000Y-118300000D01*
X165850000Y-106000000D02*
X165600000Y-105750000D01*
X165600000Y-106250000D02*
X165850000Y-106000000D01*
X141800000Y-95600000D02*
X142000000Y-95400000D01*
X142000000Y-95400000D02*
X142200000Y-95600000D01*
X142200000Y-95600000D02*
X142650000Y-95600000D01*
X142650000Y-92400000D02*
X141350000Y-92400000D01*
X141350000Y-95600000D02*
X141800000Y-95600000D01*
D12*
X154000000Y-70650000D02*
X154000000Y-74550000D01*
X152000000Y-70650000D02*
X152000000Y-74550000D01*
X154000000Y-70650000D02*
X152000000Y-70650000D01*
X138000000Y-107250000D02*
X140000000Y-107250000D01*
X140000000Y-107250000D02*
X140000000Y-103350000D01*
X138000000Y-107250000D02*
X138000000Y-103350000D01*
D15*
X151500000Y-69800000D02*
X151500000Y-68200000D01*
D11*
X148500000Y-69800000D02*
X148500000Y-68300000D01*
D12*
X153300000Y-67800000D02*
X153300000Y-68500000D01*
X152100000Y-68500000D02*
X152100000Y-67800000D01*
D11*
X150750000Y-95850000D02*
X149850000Y-95850000D01*
X149850000Y-95850000D02*
X149850000Y-96750000D01*
X149850000Y-96750000D02*
X147850000Y-96750000D01*
X159250000Y-95850000D02*
X160150000Y-95850000D01*
X160150000Y-95850000D02*
X160150000Y-96750000D01*
X150750000Y-106150000D02*
X149850000Y-106150000D01*
X149850000Y-106150000D02*
X149850000Y-105250000D01*
X159250000Y-106150000D02*
X160150000Y-106150000D01*
X160150000Y-106150000D02*
X160150000Y-105250000D01*
D13*
X144338095Y-119252380D02*
X144338095Y-120061904D01*
X144385714Y-120157142D01*
X144433333Y-120204761D01*
X144528571Y-120252380D01*
X144719047Y-120252380D01*
X144814285Y-120204761D01*
X144861904Y-120157142D01*
X144909523Y-120061904D01*
X144909523Y-119252380D01*
X145814285Y-119585714D02*
X145814285Y-120252380D01*
X145576190Y-119204761D02*
X145338095Y-119919047D01*
X145957142Y-119919047D01*
D11*
X151357142Y-111057142D02*
X151309523Y-111104761D01*
X151166666Y-111152380D01*
X151071428Y-111152380D01*
X150928571Y-111104761D01*
X150833333Y-111009523D01*
X150785714Y-110914285D01*
X150738095Y-110723809D01*
X150738095Y-110580952D01*
X150785714Y-110390476D01*
X150833333Y-110295238D01*
X150928571Y-110200000D01*
X151071428Y-110152380D01*
X151166666Y-110152380D01*
X151309523Y-110200000D01*
X151357142Y-110247619D01*
X152309523Y-111152380D02*
X151738095Y-111152380D01*
X152023809Y-111152380D02*
X152023809Y-110152380D01*
X151928571Y-110295238D01*
X151833333Y-110390476D01*
X151738095Y-110438095D01*
X153166666Y-110485714D02*
X153166666Y-111152380D01*
X152928571Y-110104761D02*
X152690476Y-110819047D01*
X153309523Y-110819047D01*
D13*
X167266666Y-85071428D02*
X167266666Y-84595238D01*
X167552380Y-85166666D02*
X166552380Y-84833333D01*
X167552380Y-84500000D01*
X167028571Y-83833333D02*
X167028571Y-84166666D01*
X167552380Y-84166666D02*
X166552380Y-84166666D01*
X166552380Y-83690476D01*
X167028571Y-82976190D02*
X167028571Y-83309523D01*
X167552380Y-83309523D02*
X166552380Y-83309523D01*
X166552380Y-82833333D01*
X167552380Y-81928571D02*
X167552380Y-82500000D01*
X167552380Y-82214285D02*
X166552380Y-82214285D01*
X166695238Y-82309523D01*
X166790476Y-82404761D01*
X166838095Y-82500000D01*
D11*
X143952380Y-67166666D02*
X143476190Y-67500000D01*
X143952380Y-67738095D02*
X142952380Y-67738095D01*
X142952380Y-67357142D01*
X143000000Y-67261904D01*
X143047619Y-67214285D01*
X143142857Y-67166666D01*
X143285714Y-67166666D01*
X143380952Y-67214285D01*
X143428571Y-67261904D01*
X143476190Y-67357142D01*
X143476190Y-67738095D01*
X143285714Y-66309523D02*
X143952380Y-66309523D01*
X142904761Y-66547619D02*
X143619047Y-66785714D01*
X143619047Y-66166666D01*
D13*
X146733333Y-72657142D02*
X146685714Y-72704761D01*
X146542857Y-72752380D01*
X146447619Y-72752380D01*
X146304761Y-72704761D01*
X146209523Y-72609523D01*
X146161904Y-72514285D01*
X146114285Y-72323809D01*
X146114285Y-72180952D01*
X146161904Y-71990476D01*
X146209523Y-71895238D01*
X146304761Y-71800000D01*
X146447619Y-71752380D01*
X146542857Y-71752380D01*
X146685714Y-71800000D01*
X146733333Y-71847619D01*
X147685714Y-72752380D02*
X147114285Y-72752380D01*
X147400000Y-72752380D02*
X147400000Y-71752380D01*
X147304761Y-71895238D01*
X147209523Y-71990476D01*
X147114285Y-72038095D01*
X129004761Y-71647619D02*
X128909523Y-71600000D01*
X128814285Y-71504761D01*
X128671428Y-71361904D01*
X128576190Y-71314285D01*
X128480952Y-71314285D01*
X128528571Y-71552380D02*
X128433333Y-71504761D01*
X128338095Y-71409523D01*
X128290476Y-71219047D01*
X128290476Y-70885714D01*
X128338095Y-70695238D01*
X128433333Y-70600000D01*
X128528571Y-70552380D01*
X128719047Y-70552380D01*
X128814285Y-70600000D01*
X128909523Y-70695238D01*
X128957142Y-70885714D01*
X128957142Y-71219047D01*
X128909523Y-71409523D01*
X128814285Y-71504761D01*
X128719047Y-71552380D01*
X128528571Y-71552380D01*
X129909523Y-71552380D02*
X129338095Y-71552380D01*
X129623809Y-71552380D02*
X129623809Y-70552380D01*
X129528571Y-70695238D01*
X129433333Y-70790476D01*
X129338095Y-70838095D01*
X140790476Y-99952380D02*
X141457142Y-100952380D01*
X141457142Y-99952380D02*
X140790476Y-100952380D01*
X142361904Y-100952380D02*
X141790476Y-100952380D01*
X142076190Y-100952380D02*
X142076190Y-99952380D01*
X141980952Y-100095238D01*
X141885714Y-100190476D01*
X141790476Y-100238095D01*
D11*
X147107142Y-114303571D02*
X147214285Y-114339285D01*
X147392857Y-114339285D01*
X147464285Y-114303571D01*
X147500000Y-114267857D01*
X147535714Y-114196428D01*
X147535714Y-114125000D01*
X147500000Y-114053571D01*
X147464285Y-114017857D01*
X147392857Y-113982142D01*
X147250000Y-113946428D01*
X147178571Y-113910714D01*
X147142857Y-113875000D01*
X147107142Y-113803571D01*
X147107142Y-113732142D01*
X147142857Y-113660714D01*
X147178571Y-113625000D01*
X147250000Y-113589285D01*
X147428571Y-113589285D01*
X147535714Y-113625000D01*
X148285714Y-114267857D02*
X148250000Y-114303571D01*
X148142857Y-114339285D01*
X148071428Y-114339285D01*
X147964285Y-114303571D01*
X147892857Y-114232142D01*
X147857142Y-114160714D01*
X147821428Y-114017857D01*
X147821428Y-113910714D01*
X147857142Y-113767857D01*
X147892857Y-113696428D01*
X147964285Y-113625000D01*
X148071428Y-113589285D01*
X148142857Y-113589285D01*
X148250000Y-113625000D01*
X148285714Y-113660714D01*
X148964285Y-114339285D02*
X148607142Y-114339285D01*
X148607142Y-113589285D01*
X141089285Y-114303571D02*
X141196428Y-114339285D01*
X141375000Y-114339285D01*
X141446428Y-114303571D01*
X141482142Y-114267857D01*
X141517857Y-114196428D01*
X141517857Y-114125000D01*
X141482142Y-114053571D01*
X141446428Y-114017857D01*
X141375000Y-113982142D01*
X141232142Y-113946428D01*
X141160714Y-113910714D01*
X141125000Y-113875000D01*
X141089285Y-113803571D01*
X141089285Y-113732142D01*
X141125000Y-113660714D01*
X141160714Y-113625000D01*
X141232142Y-113589285D01*
X141410714Y-113589285D01*
X141517857Y-113625000D01*
X141839285Y-114339285D02*
X141839285Y-113589285D01*
X142017857Y-113589285D01*
X142125000Y-113625000D01*
X142196428Y-113696428D01*
X142232142Y-113767857D01*
X142267857Y-113910714D01*
X142267857Y-114017857D01*
X142232142Y-114160714D01*
X142196428Y-114232142D01*
X142125000Y-114303571D01*
X142017857Y-114339285D01*
X141839285Y-114339285D01*
X142553571Y-114125000D02*
X142910714Y-114125000D01*
X142482142Y-114339285D02*
X142732142Y-113589285D01*
X142982142Y-114339285D01*
D13*
X147795238Y-92452380D02*
X148033333Y-93452380D01*
X148223809Y-92738095D01*
X148414285Y-93452380D01*
X148652380Y-92452380D01*
X149557142Y-93452380D02*
X148985714Y-93452380D01*
X149271428Y-93452380D02*
X149271428Y-92452380D01*
X149176190Y-92595238D01*
X149080952Y-92690476D01*
X148985714Y-92738095D01*
X137795238Y-90252380D02*
X138033333Y-91252380D01*
X138223809Y-90538095D01*
X138414285Y-91252380D01*
X138652380Y-90252380D01*
X138985714Y-90347619D02*
X139033333Y-90300000D01*
X139128571Y-90252380D01*
X139366666Y-90252380D01*
X139461904Y-90300000D01*
X139509523Y-90347619D01*
X139557142Y-90442857D01*
X139557142Y-90538095D01*
X139509523Y-90680952D01*
X138938095Y-91252380D01*
X139557142Y-91252380D01*
D16*
X129342857Y-124142857D02*
X128942857Y-123571428D01*
X128657142Y-124142857D02*
X128657142Y-122942857D01*
X129114285Y-122942857D01*
X129228571Y-123000000D01*
X129285714Y-123057142D01*
X129342857Y-123171428D01*
X129342857Y-123342857D01*
X129285714Y-123457142D01*
X129228571Y-123514285D01*
X129114285Y-123571428D01*
X128657142Y-123571428D01*
X129800000Y-124085714D02*
X129971428Y-124142857D01*
X130257142Y-124142857D01*
X130371428Y-124085714D01*
X130428571Y-124028571D01*
X130485714Y-123914285D01*
X130485714Y-123800000D01*
X130428571Y-123685714D01*
X130371428Y-123628571D01*
X130257142Y-123571428D01*
X130028571Y-123514285D01*
X129914285Y-123457142D01*
X129857142Y-123400000D01*
X129800000Y-123285714D01*
X129800000Y-123171428D01*
X129857142Y-123057142D01*
X129914285Y-123000000D01*
X130028571Y-122942857D01*
X130314285Y-122942857D01*
X130485714Y-123000000D01*
X130828571Y-122942857D02*
X131514285Y-122942857D01*
X131171428Y-124142857D02*
X131171428Y-122942857D01*
D13*
X127757142Y-114957142D02*
X127709523Y-115004761D01*
X127566666Y-115052380D01*
X127471428Y-115052380D01*
X127328571Y-115004761D01*
X127233333Y-114909523D01*
X127185714Y-114814285D01*
X127138095Y-114623809D01*
X127138095Y-114480952D01*
X127185714Y-114290476D01*
X127233333Y-114195238D01*
X127328571Y-114100000D01*
X127471428Y-114052380D01*
X127566666Y-114052380D01*
X127709523Y-114100000D01*
X127757142Y-114147619D01*
X128138095Y-114147619D02*
X128185714Y-114100000D01*
X128280952Y-114052380D01*
X128519047Y-114052380D01*
X128614285Y-114100000D01*
X128661904Y-114147619D01*
X128709523Y-114242857D01*
X128709523Y-114338095D01*
X128661904Y-114480952D01*
X128090476Y-115052380D01*
X128709523Y-115052380D01*
X129090476Y-114147619D02*
X129138095Y-114100000D01*
X129233333Y-114052380D01*
X129471428Y-114052380D01*
X129566666Y-114100000D01*
X129614285Y-114147619D01*
X129661904Y-114242857D01*
X129661904Y-114338095D01*
X129614285Y-114480952D01*
X129042857Y-115052380D01*
X129661904Y-115052380D01*
D11*
X120819047Y-107271428D02*
X121580952Y-107271428D01*
X162957142Y-74166666D02*
X163004761Y-74214285D01*
X163052380Y-74357142D01*
X163052380Y-74452380D01*
X163004761Y-74595238D01*
X162909523Y-74690476D01*
X162814285Y-74738095D01*
X162623809Y-74785714D01*
X162480952Y-74785714D01*
X162290476Y-74738095D01*
X162195238Y-74690476D01*
X162100000Y-74595238D01*
X162052380Y-74452380D01*
X162052380Y-74357142D01*
X162100000Y-74214285D01*
X162147619Y-74166666D01*
X162052380Y-73833333D02*
X162052380Y-73214285D01*
X162433333Y-73547619D01*
X162433333Y-73404761D01*
X162480952Y-73309523D01*
X162528571Y-73261904D01*
X162623809Y-73214285D01*
X162861904Y-73214285D01*
X162957142Y-73261904D01*
X163004761Y-73309523D01*
X163052380Y-73404761D01*
X163052380Y-73690476D01*
X163004761Y-73785714D01*
X162957142Y-73833333D01*
X146633333Y-94857142D02*
X146585714Y-94904761D01*
X146442857Y-94952380D01*
X146347619Y-94952380D01*
X146204761Y-94904761D01*
X146109523Y-94809523D01*
X146061904Y-94714285D01*
X146014285Y-94523809D01*
X146014285Y-94380952D01*
X146061904Y-94190476D01*
X146109523Y-94095238D01*
X146204761Y-94000000D01*
X146347619Y-93952380D01*
X146442857Y-93952380D01*
X146585714Y-94000000D01*
X146633333Y-94047619D01*
X147490476Y-94285714D02*
X147490476Y-94952380D01*
X147252380Y-93904761D02*
X147014285Y-94619047D01*
X147633333Y-94619047D01*
X146050000Y-101616666D02*
X146083333Y-101650000D01*
X146116666Y-101750000D01*
X146116666Y-101816666D01*
X146083333Y-101916666D01*
X146016666Y-101983333D01*
X145950000Y-102016666D01*
X145816666Y-102050000D01*
X145716666Y-102050000D01*
X145583333Y-102016666D01*
X145516666Y-101983333D01*
X145450000Y-101916666D01*
X145416666Y-101816666D01*
X145416666Y-101750000D01*
X145450000Y-101650000D01*
X145483333Y-101616666D01*
X145416666Y-100983333D02*
X145416666Y-101316666D01*
X145750000Y-101350000D01*
X145716666Y-101316666D01*
X145683333Y-101250000D01*
X145683333Y-101083333D01*
X145716666Y-101016666D01*
X145750000Y-100983333D01*
X145816666Y-100950000D01*
X145983333Y-100950000D01*
X146050000Y-100983333D01*
X146083333Y-101016666D01*
X146116666Y-101083333D01*
X146116666Y-101250000D01*
X146083333Y-101316666D01*
X146050000Y-101350000D01*
D13*
X144133333Y-106957142D02*
X144085714Y-107004761D01*
X143942857Y-107052380D01*
X143847619Y-107052380D01*
X143704761Y-107004761D01*
X143609523Y-106909523D01*
X143561904Y-106814285D01*
X143514285Y-106623809D01*
X143514285Y-106480952D01*
X143561904Y-106290476D01*
X143609523Y-106195238D01*
X143704761Y-106100000D01*
X143847619Y-106052380D01*
X143942857Y-106052380D01*
X144085714Y-106100000D01*
X144133333Y-106147619D01*
X144990476Y-106052380D02*
X144800000Y-106052380D01*
X144704761Y-106100000D01*
X144657142Y-106147619D01*
X144561904Y-106290476D01*
X144514285Y-106480952D01*
X144514285Y-106861904D01*
X144561904Y-106957142D01*
X144609523Y-107004761D01*
X144704761Y-107052380D01*
X144895238Y-107052380D01*
X144990476Y-107004761D01*
X145038095Y-106957142D01*
X145085714Y-106861904D01*
X145085714Y-106623809D01*
X145038095Y-106528571D01*
X144990476Y-106480952D01*
X144895238Y-106433333D01*
X144704761Y-106433333D01*
X144609523Y-106480952D01*
X144561904Y-106528571D01*
X144514285Y-106623809D01*
D11*
X164057142Y-104766666D02*
X164104761Y-104814285D01*
X164152380Y-104957142D01*
X164152380Y-105052380D01*
X164104761Y-105195238D01*
X164009523Y-105290476D01*
X163914285Y-105338095D01*
X163723809Y-105385714D01*
X163580952Y-105385714D01*
X163390476Y-105338095D01*
X163295238Y-105290476D01*
X163200000Y-105195238D01*
X163152380Y-105052380D01*
X163152380Y-104957142D01*
X163200000Y-104814285D01*
X163247619Y-104766666D01*
X163152380Y-104433333D02*
X163152380Y-103766666D01*
X164152380Y-104195238D01*
D13*
X146233333Y-106957142D02*
X146185714Y-107004761D01*
X146042857Y-107052380D01*
X145947619Y-107052380D01*
X145804761Y-107004761D01*
X145709523Y-106909523D01*
X145661904Y-106814285D01*
X145614285Y-106623809D01*
X145614285Y-106480952D01*
X145661904Y-106290476D01*
X145709523Y-106195238D01*
X145804761Y-106100000D01*
X145947619Y-106052380D01*
X146042857Y-106052380D01*
X146185714Y-106100000D01*
X146233333Y-106147619D01*
X146804761Y-106480952D02*
X146709523Y-106433333D01*
X146661904Y-106385714D01*
X146614285Y-106290476D01*
X146614285Y-106242857D01*
X146661904Y-106147619D01*
X146709523Y-106100000D01*
X146804761Y-106052380D01*
X146995238Y-106052380D01*
X147090476Y-106100000D01*
X147138095Y-106147619D01*
X147185714Y-106242857D01*
X147185714Y-106290476D01*
X147138095Y-106385714D01*
X147090476Y-106433333D01*
X146995238Y-106480952D01*
X146804761Y-106480952D01*
X146709523Y-106528571D01*
X146661904Y-106576190D01*
X146614285Y-106671428D01*
X146614285Y-106861904D01*
X146661904Y-106957142D01*
X146709523Y-107004761D01*
X146804761Y-107052380D01*
X146995238Y-107052380D01*
X147090476Y-107004761D01*
X147138095Y-106957142D01*
X147185714Y-106861904D01*
X147185714Y-106671428D01*
X147138095Y-106576190D01*
X147090476Y-106528571D01*
X146995238Y-106480952D01*
D11*
X162607142Y-109416666D02*
X162654761Y-109464285D01*
X162702380Y-109607142D01*
X162702380Y-109702380D01*
X162654761Y-109845238D01*
X162559523Y-109940476D01*
X162464285Y-109988095D01*
X162273809Y-110035714D01*
X162130952Y-110035714D01*
X161940476Y-109988095D01*
X161845238Y-109940476D01*
X161750000Y-109845238D01*
X161702380Y-109702380D01*
X161702380Y-109607142D01*
X161750000Y-109464285D01*
X161797619Y-109416666D01*
X162702380Y-108940476D02*
X162702380Y-108750000D01*
X162654761Y-108654761D01*
X162607142Y-108607142D01*
X162464285Y-108511904D01*
X162273809Y-108464285D01*
X161892857Y-108464285D01*
X161797619Y-108511904D01*
X161750000Y-108559523D01*
X161702380Y-108654761D01*
X161702380Y-108845238D01*
X161750000Y-108940476D01*
X161797619Y-108988095D01*
X161892857Y-109035714D01*
X162130952Y-109035714D01*
X162226190Y-108988095D01*
X162273809Y-108940476D01*
X162321428Y-108845238D01*
X162321428Y-108654761D01*
X162273809Y-108559523D01*
X162226190Y-108511904D01*
X162130952Y-108464285D01*
X165357142Y-94442857D02*
X165404761Y-94490476D01*
X165452380Y-94633333D01*
X165452380Y-94728571D01*
X165404761Y-94871428D01*
X165309523Y-94966666D01*
X165214285Y-95014285D01*
X165023809Y-95061904D01*
X164880952Y-95061904D01*
X164690476Y-95014285D01*
X164595238Y-94966666D01*
X164500000Y-94871428D01*
X164452380Y-94728571D01*
X164452380Y-94633333D01*
X164500000Y-94490476D01*
X164547619Y-94442857D01*
X165452380Y-93490476D02*
X165452380Y-94061904D01*
X165452380Y-93776190D02*
X164452380Y-93776190D01*
X164595238Y-93871428D01*
X164690476Y-93966666D01*
X164738095Y-94061904D01*
X164452380Y-92871428D02*
X164452380Y-92776190D01*
X164500000Y-92680952D01*
X164547619Y-92633333D01*
X164642857Y-92585714D01*
X164833333Y-92538095D01*
X165071428Y-92538095D01*
X165261904Y-92585714D01*
X165357142Y-92633333D01*
X165404761Y-92680952D01*
X165452380Y-92776190D01*
X165452380Y-92871428D01*
X165404761Y-92966666D01*
X165357142Y-93014285D01*
X165261904Y-93061904D01*
X165071428Y-93109523D01*
X164833333Y-93109523D01*
X164642857Y-93061904D01*
X164547619Y-93014285D01*
X164500000Y-92966666D01*
X164452380Y-92871428D01*
X163857142Y-95042857D02*
X163904761Y-95090476D01*
X163952380Y-95233333D01*
X163952380Y-95328571D01*
X163904761Y-95471428D01*
X163809523Y-95566666D01*
X163714285Y-95614285D01*
X163523809Y-95661904D01*
X163380952Y-95661904D01*
X163190476Y-95614285D01*
X163095238Y-95566666D01*
X163000000Y-95471428D01*
X162952380Y-95328571D01*
X162952380Y-95233333D01*
X163000000Y-95090476D01*
X163047619Y-95042857D01*
X163952380Y-94090476D02*
X163952380Y-94661904D01*
X163952380Y-94376190D02*
X162952380Y-94376190D01*
X163095238Y-94471428D01*
X163190476Y-94566666D01*
X163238095Y-94661904D01*
X163952380Y-93138095D02*
X163952380Y-93709523D01*
X163952380Y-93423809D02*
X162952380Y-93423809D01*
X163095238Y-93519047D01*
X163190476Y-93614285D01*
X163238095Y-93709523D01*
X148657142Y-94657142D02*
X148609523Y-94704761D01*
X148466666Y-94752380D01*
X148371428Y-94752380D01*
X148228571Y-94704761D01*
X148133333Y-94609523D01*
X148085714Y-94514285D01*
X148038095Y-94323809D01*
X148038095Y-94180952D01*
X148085714Y-93990476D01*
X148133333Y-93895238D01*
X148228571Y-93800000D01*
X148371428Y-93752380D01*
X148466666Y-93752380D01*
X148609523Y-93800000D01*
X148657142Y-93847619D01*
X149609523Y-94752380D02*
X149038095Y-94752380D01*
X149323809Y-94752380D02*
X149323809Y-93752380D01*
X149228571Y-93895238D01*
X149133333Y-93990476D01*
X149038095Y-94038095D01*
X149990476Y-93847619D02*
X150038095Y-93800000D01*
X150133333Y-93752380D01*
X150371428Y-93752380D01*
X150466666Y-93800000D01*
X150514285Y-93847619D01*
X150561904Y-93942857D01*
X150561904Y-94038095D01*
X150514285Y-94180952D01*
X149942857Y-94752380D01*
X150561904Y-94752380D01*
X157857142Y-111007142D02*
X157809523Y-111054761D01*
X157666666Y-111102380D01*
X157571428Y-111102380D01*
X157428571Y-111054761D01*
X157333333Y-110959523D01*
X157285714Y-110864285D01*
X157238095Y-110673809D01*
X157238095Y-110530952D01*
X157285714Y-110340476D01*
X157333333Y-110245238D01*
X157428571Y-110150000D01*
X157571428Y-110102380D01*
X157666666Y-110102380D01*
X157809523Y-110150000D01*
X157857142Y-110197619D01*
X158809523Y-111102380D02*
X158238095Y-111102380D01*
X158523809Y-111102380D02*
X158523809Y-110102380D01*
X158428571Y-110245238D01*
X158333333Y-110340476D01*
X158238095Y-110388095D01*
X159142857Y-110102380D02*
X159761904Y-110102380D01*
X159428571Y-110483333D01*
X159571428Y-110483333D01*
X159666666Y-110530952D01*
X159714285Y-110578571D01*
X159761904Y-110673809D01*
X159761904Y-110911904D01*
X159714285Y-111007142D01*
X159666666Y-111054761D01*
X159571428Y-111102380D01*
X159285714Y-111102380D01*
X159190476Y-111054761D01*
X159142857Y-111007142D01*
X131917857Y-124567857D02*
X131882142Y-124603571D01*
X131775000Y-124639285D01*
X131703571Y-124639285D01*
X131596428Y-124603571D01*
X131525000Y-124532142D01*
X131489285Y-124460714D01*
X131453571Y-124317857D01*
X131453571Y-124210714D01*
X131489285Y-124067857D01*
X131525000Y-123996428D01*
X131596428Y-123925000D01*
X131703571Y-123889285D01*
X131775000Y-123889285D01*
X131882142Y-123925000D01*
X131917857Y-123960714D01*
X132632142Y-124639285D02*
X132203571Y-124639285D01*
X132417857Y-124639285D02*
X132417857Y-123889285D01*
X132346428Y-123996428D01*
X132275000Y-124067857D01*
X132203571Y-124103571D01*
X133310714Y-123889285D02*
X132953571Y-123889285D01*
X132917857Y-124246428D01*
X132953571Y-124210714D01*
X133025000Y-124175000D01*
X133203571Y-124175000D01*
X133275000Y-124210714D01*
X133310714Y-124246428D01*
X133346428Y-124317857D01*
X133346428Y-124496428D01*
X133310714Y-124567857D01*
X133275000Y-124603571D01*
X133203571Y-124639285D01*
X133025000Y-124639285D01*
X132953571Y-124603571D01*
X132917857Y-124567857D01*
X147157142Y-91657142D02*
X147109523Y-91704761D01*
X146966666Y-91752380D01*
X146871428Y-91752380D01*
X146728571Y-91704761D01*
X146633333Y-91609523D01*
X146585714Y-91514285D01*
X146538095Y-91323809D01*
X146538095Y-91180952D01*
X146585714Y-90990476D01*
X146633333Y-90895238D01*
X146728571Y-90800000D01*
X146871428Y-90752380D01*
X146966666Y-90752380D01*
X147109523Y-90800000D01*
X147157142Y-90847619D01*
X148109523Y-91752380D02*
X147538095Y-91752380D01*
X147823809Y-91752380D02*
X147823809Y-90752380D01*
X147728571Y-90895238D01*
X147633333Y-90990476D01*
X147538095Y-91038095D01*
X148966666Y-90752380D02*
X148776190Y-90752380D01*
X148680952Y-90800000D01*
X148633333Y-90847619D01*
X148538095Y-90990476D01*
X148490476Y-91180952D01*
X148490476Y-91561904D01*
X148538095Y-91657142D01*
X148585714Y-91704761D01*
X148680952Y-91752380D01*
X148871428Y-91752380D01*
X148966666Y-91704761D01*
X149014285Y-91657142D01*
X149061904Y-91561904D01*
X149061904Y-91323809D01*
X149014285Y-91228571D01*
X148966666Y-91180952D01*
X148871428Y-91133333D01*
X148680952Y-91133333D01*
X148585714Y-91180952D01*
X148538095Y-91228571D01*
X148490476Y-91323809D01*
X159857142Y-118142857D02*
X159904761Y-118190476D01*
X159952380Y-118333333D01*
X159952380Y-118428571D01*
X159904761Y-118571428D01*
X159809523Y-118666666D01*
X159714285Y-118714285D01*
X159523809Y-118761904D01*
X159380952Y-118761904D01*
X159190476Y-118714285D01*
X159095238Y-118666666D01*
X159000000Y-118571428D01*
X158952380Y-118428571D01*
X158952380Y-118333333D01*
X159000000Y-118190476D01*
X159047619Y-118142857D01*
X159952380Y-117190476D02*
X159952380Y-117761904D01*
X159952380Y-117476190D02*
X158952380Y-117476190D01*
X159095238Y-117571428D01*
X159190476Y-117666666D01*
X159238095Y-117761904D01*
X158952380Y-116857142D02*
X158952380Y-116190476D01*
X159952380Y-116619047D01*
X147017857Y-119967857D02*
X146982142Y-120003571D01*
X146875000Y-120039285D01*
X146803571Y-120039285D01*
X146696428Y-120003571D01*
X146625000Y-119932142D01*
X146589285Y-119860714D01*
X146553571Y-119717857D01*
X146553571Y-119610714D01*
X146589285Y-119467857D01*
X146625000Y-119396428D01*
X146696428Y-119325000D01*
X146803571Y-119289285D01*
X146875000Y-119289285D01*
X146982142Y-119325000D01*
X147017857Y-119360714D01*
X147732142Y-120039285D02*
X147303571Y-120039285D01*
X147517857Y-120039285D02*
X147517857Y-119289285D01*
X147446428Y-119396428D01*
X147375000Y-119467857D01*
X147303571Y-119503571D01*
X148160714Y-119610714D02*
X148089285Y-119575000D01*
X148053571Y-119539285D01*
X148017857Y-119467857D01*
X148017857Y-119432142D01*
X148053571Y-119360714D01*
X148089285Y-119325000D01*
X148160714Y-119289285D01*
X148303571Y-119289285D01*
X148375000Y-119325000D01*
X148410714Y-119360714D01*
X148446428Y-119432142D01*
X148446428Y-119467857D01*
X148410714Y-119539285D01*
X148375000Y-119575000D01*
X148303571Y-119610714D01*
X148160714Y-119610714D01*
X148089285Y-119646428D01*
X148053571Y-119682142D01*
X148017857Y-119753571D01*
X148017857Y-119896428D01*
X148053571Y-119967857D01*
X148089285Y-120003571D01*
X148160714Y-120039285D01*
X148303571Y-120039285D01*
X148375000Y-120003571D01*
X148410714Y-119967857D01*
X148446428Y-119896428D01*
X148446428Y-119753571D01*
X148410714Y-119682142D01*
X148375000Y-119646428D01*
X148303571Y-119610714D01*
D13*
X144157142Y-91957142D02*
X144109523Y-92004761D01*
X143966666Y-92052380D01*
X143871428Y-92052380D01*
X143728571Y-92004761D01*
X143633333Y-91909523D01*
X143585714Y-91814285D01*
X143538095Y-91623809D01*
X143538095Y-91480952D01*
X143585714Y-91290476D01*
X143633333Y-91195238D01*
X143728571Y-91100000D01*
X143871428Y-91052380D01*
X143966666Y-91052380D01*
X144109523Y-91100000D01*
X144157142Y-91147619D01*
X145109523Y-92052380D02*
X144538095Y-92052380D01*
X144823809Y-92052380D02*
X144823809Y-91052380D01*
X144728571Y-91195238D01*
X144633333Y-91290476D01*
X144538095Y-91338095D01*
X145585714Y-92052380D02*
X145776190Y-92052380D01*
X145871428Y-92004761D01*
X145919047Y-91957142D01*
X146014285Y-91814285D01*
X146061904Y-91623809D01*
X146061904Y-91242857D01*
X146014285Y-91147619D01*
X145966666Y-91100000D01*
X145871428Y-91052380D01*
X145680952Y-91052380D01*
X145585714Y-91100000D01*
X145538095Y-91147619D01*
X145490476Y-91242857D01*
X145490476Y-91480952D01*
X145538095Y-91576190D01*
X145585714Y-91623809D01*
X145680952Y-91671428D01*
X145871428Y-91671428D01*
X145966666Y-91623809D01*
X146014285Y-91576190D01*
X146061904Y-91480952D01*
D11*
X133257142Y-94357142D02*
X133209523Y-94404761D01*
X133066666Y-94452380D01*
X132971428Y-94452380D01*
X132828571Y-94404761D01*
X132733333Y-94309523D01*
X132685714Y-94214285D01*
X132638095Y-94023809D01*
X132638095Y-93880952D01*
X132685714Y-93690476D01*
X132733333Y-93595238D01*
X132828571Y-93500000D01*
X132971428Y-93452380D01*
X133066666Y-93452380D01*
X133209523Y-93500000D01*
X133257142Y-93547619D01*
X133638095Y-93547619D02*
X133685714Y-93500000D01*
X133780952Y-93452380D01*
X134019047Y-93452380D01*
X134114285Y-93500000D01*
X134161904Y-93547619D01*
X134209523Y-93642857D01*
X134209523Y-93738095D01*
X134161904Y-93880952D01*
X133590476Y-94452380D01*
X134209523Y-94452380D01*
X134828571Y-93452380D02*
X134923809Y-93452380D01*
X135019047Y-93500000D01*
X135066666Y-93547619D01*
X135114285Y-93642857D01*
X135161904Y-93833333D01*
X135161904Y-94071428D01*
X135114285Y-94261904D01*
X135066666Y-94357142D01*
X135019047Y-94404761D01*
X134923809Y-94452380D01*
X134828571Y-94452380D01*
X134733333Y-94404761D01*
X134685714Y-94357142D01*
X134638095Y-94261904D01*
X134590476Y-94071428D01*
X134590476Y-93833333D01*
X134638095Y-93642857D01*
X134685714Y-93547619D01*
X134733333Y-93500000D01*
X134828571Y-93452380D01*
X124761904Y-77452380D02*
X124761904Y-76452380D01*
X125000000Y-76452380D01*
X125142857Y-76500000D01*
X125238095Y-76595238D01*
X125285714Y-76690476D01*
X125333333Y-76880952D01*
X125333333Y-77023809D01*
X125285714Y-77214285D01*
X125238095Y-77309523D01*
X125142857Y-77404761D01*
X125000000Y-77452380D01*
X124761904Y-77452380D01*
X126285714Y-77452380D02*
X125714285Y-77452380D01*
X126000000Y-77452380D02*
X126000000Y-76452380D01*
X125904761Y-76595238D01*
X125809523Y-76690476D01*
X125714285Y-76738095D01*
X138952380Y-71738095D02*
X137952380Y-71738095D01*
X137952380Y-71500000D01*
X138000000Y-71357142D01*
X138095238Y-71261904D01*
X138190476Y-71214285D01*
X138380952Y-71166666D01*
X138523809Y-71166666D01*
X138714285Y-71214285D01*
X138809523Y-71261904D01*
X138904761Y-71357142D01*
X138952380Y-71500000D01*
X138952380Y-71738095D01*
X138047619Y-70785714D02*
X138000000Y-70738095D01*
X137952380Y-70642857D01*
X137952380Y-70404761D01*
X138000000Y-70309523D01*
X138047619Y-70261904D01*
X138142857Y-70214285D01*
X138238095Y-70214285D01*
X138380952Y-70261904D01*
X138952380Y-70833333D01*
X138952380Y-70214285D01*
X123002380Y-120738095D02*
X122002380Y-120738095D01*
X122002380Y-120500000D01*
X122050000Y-120357142D01*
X122145238Y-120261904D01*
X122240476Y-120214285D01*
X122430952Y-120166666D01*
X122573809Y-120166666D01*
X122764285Y-120214285D01*
X122859523Y-120261904D01*
X122954761Y-120357142D01*
X123002380Y-120500000D01*
X123002380Y-120738095D01*
X122335714Y-119309523D02*
X123002380Y-119309523D01*
X121954761Y-119547619D02*
X122669047Y-119785714D01*
X122669047Y-119166666D01*
X167852380Y-120738095D02*
X166852380Y-120738095D01*
X166852380Y-120500000D01*
X166900000Y-120357142D01*
X166995238Y-120261904D01*
X167090476Y-120214285D01*
X167280952Y-120166666D01*
X167423809Y-120166666D01*
X167614285Y-120214285D01*
X167709523Y-120261904D01*
X167804761Y-120357142D01*
X167852380Y-120500000D01*
X167852380Y-120738095D01*
X166852380Y-119261904D02*
X166852380Y-119738095D01*
X167328571Y-119785714D01*
X167280952Y-119738095D01*
X167233333Y-119642857D01*
X167233333Y-119404761D01*
X167280952Y-119309523D01*
X167328571Y-119261904D01*
X167423809Y-119214285D01*
X167661904Y-119214285D01*
X167757142Y-119261904D01*
X167804761Y-119309523D01*
X167852380Y-119404761D01*
X167852380Y-119642857D01*
X167804761Y-119738095D01*
X167757142Y-119785714D01*
D13*
X164552380Y-71566666D02*
X164552380Y-72042857D01*
X163552380Y-72042857D01*
X164552380Y-70709523D02*
X164552380Y-71280952D01*
X164552380Y-70995238D02*
X163552380Y-70995238D01*
X163695238Y-71090476D01*
X163790476Y-71185714D01*
X163838095Y-71280952D01*
D11*
X134333333Y-70302380D02*
X134000000Y-69826190D01*
X133761904Y-70302380D02*
X133761904Y-69302380D01*
X134142857Y-69302380D01*
X134238095Y-69350000D01*
X134285714Y-69397619D01*
X134333333Y-69492857D01*
X134333333Y-69635714D01*
X134285714Y-69730952D01*
X134238095Y-69778571D01*
X134142857Y-69826190D01*
X133761904Y-69826190D01*
X135285714Y-70302380D02*
X134714285Y-70302380D01*
X135000000Y-70302380D02*
X135000000Y-69302380D01*
X134904761Y-69445238D01*
X134809523Y-69540476D01*
X134714285Y-69588095D01*
D13*
X143952380Y-70966666D02*
X143476190Y-71300000D01*
X143952380Y-71538095D02*
X142952380Y-71538095D01*
X142952380Y-71157142D01*
X143000000Y-71061904D01*
X143047619Y-71014285D01*
X143142857Y-70966666D01*
X143285714Y-70966666D01*
X143380952Y-71014285D01*
X143428571Y-71061904D01*
X143476190Y-71157142D01*
X143476190Y-71538095D01*
X143047619Y-70585714D02*
X143000000Y-70538095D01*
X142952380Y-70442857D01*
X142952380Y-70204761D01*
X143000000Y-70109523D01*
X143047619Y-70061904D01*
X143142857Y-70014285D01*
X143238095Y-70014285D01*
X143380952Y-70061904D01*
X143952380Y-70633333D01*
X143952380Y-70014285D01*
D11*
X143952380Y-69166666D02*
X143476190Y-69500000D01*
X143952380Y-69738095D02*
X142952380Y-69738095D01*
X142952380Y-69357142D01*
X143000000Y-69261904D01*
X143047619Y-69214285D01*
X143142857Y-69166666D01*
X143285714Y-69166666D01*
X143380952Y-69214285D01*
X143428571Y-69261904D01*
X143476190Y-69357142D01*
X143476190Y-69738095D01*
X142952380Y-68833333D02*
X142952380Y-68214285D01*
X143333333Y-68547619D01*
X143333333Y-68404761D01*
X143380952Y-68309523D01*
X143428571Y-68261904D01*
X143523809Y-68214285D01*
X143761904Y-68214285D01*
X143857142Y-68261904D01*
X143904761Y-68309523D01*
X143952380Y-68404761D01*
X143952380Y-68690476D01*
X143904761Y-68785714D01*
X143857142Y-68833333D01*
X165633333Y-113052380D02*
X165300000Y-112576190D01*
X165061904Y-113052380D02*
X165061904Y-112052380D01*
X165442857Y-112052380D01*
X165538095Y-112100000D01*
X165585714Y-112147619D01*
X165633333Y-112242857D01*
X165633333Y-112385714D01*
X165585714Y-112480952D01*
X165538095Y-112528571D01*
X165442857Y-112576190D01*
X165061904Y-112576190D01*
X166538095Y-112052380D02*
X166061904Y-112052380D01*
X166014285Y-112528571D01*
X166061904Y-112480952D01*
X166157142Y-112433333D01*
X166395238Y-112433333D01*
X166490476Y-112480952D01*
X166538095Y-112528571D01*
X166585714Y-112623809D01*
X166585714Y-112861904D01*
X166538095Y-112957142D01*
X166490476Y-113004761D01*
X166395238Y-113052380D01*
X166157142Y-113052380D01*
X166061904Y-113004761D01*
X166014285Y-112957142D01*
X167633333Y-113052380D02*
X167300000Y-112576190D01*
X167061904Y-113052380D02*
X167061904Y-112052380D01*
X167442857Y-112052380D01*
X167538095Y-112100000D01*
X167585714Y-112147619D01*
X167633333Y-112242857D01*
X167633333Y-112385714D01*
X167585714Y-112480952D01*
X167538095Y-112528571D01*
X167442857Y-112576190D01*
X167061904Y-112576190D01*
X168490476Y-112052380D02*
X168300000Y-112052380D01*
X168204761Y-112100000D01*
X168157142Y-112147619D01*
X168061904Y-112290476D01*
X168014285Y-112480952D01*
X168014285Y-112861904D01*
X168061904Y-112957142D01*
X168109523Y-113004761D01*
X168204761Y-113052380D01*
X168395238Y-113052380D01*
X168490476Y-113004761D01*
X168538095Y-112957142D01*
X168585714Y-112861904D01*
X168585714Y-112623809D01*
X168538095Y-112528571D01*
X168490476Y-112480952D01*
X168395238Y-112433333D01*
X168204761Y-112433333D01*
X168109523Y-112480952D01*
X168061904Y-112528571D01*
X168014285Y-112623809D01*
X127902380Y-120166666D02*
X127426190Y-120500000D01*
X127902380Y-120738095D02*
X126902380Y-120738095D01*
X126902380Y-120357142D01*
X126950000Y-120261904D01*
X126997619Y-120214285D01*
X127092857Y-120166666D01*
X127235714Y-120166666D01*
X127330952Y-120214285D01*
X127378571Y-120261904D01*
X127426190Y-120357142D01*
X127426190Y-120738095D01*
X126902380Y-119833333D02*
X126902380Y-119166666D01*
X127902380Y-119595238D01*
X163052380Y-120166666D02*
X162576190Y-120500000D01*
X163052380Y-120738095D02*
X162052380Y-120738095D01*
X162052380Y-120357142D01*
X162100000Y-120261904D01*
X162147619Y-120214285D01*
X162242857Y-120166666D01*
X162385714Y-120166666D01*
X162480952Y-120214285D01*
X162528571Y-120261904D01*
X162576190Y-120357142D01*
X162576190Y-120738095D01*
X162480952Y-119595238D02*
X162433333Y-119690476D01*
X162385714Y-119738095D01*
X162290476Y-119785714D01*
X162242857Y-119785714D01*
X162147619Y-119738095D01*
X162100000Y-119690476D01*
X162052380Y-119595238D01*
X162052380Y-119404761D01*
X162100000Y-119309523D01*
X162147619Y-119261904D01*
X162242857Y-119214285D01*
X162290476Y-119214285D01*
X162385714Y-119261904D01*
X162433333Y-119309523D01*
X162480952Y-119404761D01*
X162480952Y-119595238D01*
X162528571Y-119690476D01*
X162576190Y-119738095D01*
X162671428Y-119785714D01*
X162861904Y-119785714D01*
X162957142Y-119738095D01*
X163004761Y-119690476D01*
X163052380Y-119595238D01*
X163052380Y-119404761D01*
X163004761Y-119309523D01*
X162957142Y-119261904D01*
X162861904Y-119214285D01*
X162671428Y-119214285D01*
X162576190Y-119261904D01*
X162528571Y-119309523D01*
X162480952Y-119404761D01*
X133052380Y-114766666D02*
X132576190Y-115100000D01*
X133052380Y-115338095D02*
X132052380Y-115338095D01*
X132052380Y-114957142D01*
X132100000Y-114861904D01*
X132147619Y-114814285D01*
X132242857Y-114766666D01*
X132385714Y-114766666D01*
X132480952Y-114814285D01*
X132528571Y-114861904D01*
X132576190Y-114957142D01*
X132576190Y-115338095D01*
X133052380Y-114290476D02*
X133052380Y-114100000D01*
X133004761Y-114004761D01*
X132957142Y-113957142D01*
X132814285Y-113861904D01*
X132623809Y-113814285D01*
X132242857Y-113814285D01*
X132147619Y-113861904D01*
X132100000Y-113909523D01*
X132052380Y-114004761D01*
X132052380Y-114195238D01*
X132100000Y-114290476D01*
X132147619Y-114338095D01*
X132242857Y-114385714D01*
X132480952Y-114385714D01*
X132576190Y-114338095D01*
X132623809Y-114290476D01*
X132671428Y-114195238D01*
X132671428Y-114004761D01*
X132623809Y-113909523D01*
X132576190Y-113861904D01*
X132480952Y-113814285D01*
X145602380Y-110642857D02*
X145126190Y-110976190D01*
X145602380Y-111214285D02*
X144602380Y-111214285D01*
X144602380Y-110833333D01*
X144650000Y-110738095D01*
X144697619Y-110690476D01*
X144792857Y-110642857D01*
X144935714Y-110642857D01*
X145030952Y-110690476D01*
X145078571Y-110738095D01*
X145126190Y-110833333D01*
X145126190Y-111214285D01*
X145602380Y-109690476D02*
X145602380Y-110261904D01*
X145602380Y-109976190D02*
X144602380Y-109976190D01*
X144745238Y-110071428D01*
X144840476Y-110166666D01*
X144888095Y-110261904D01*
X144602380Y-109071428D02*
X144602380Y-108976190D01*
X144650000Y-108880952D01*
X144697619Y-108833333D01*
X144792857Y-108785714D01*
X144983333Y-108738095D01*
X145221428Y-108738095D01*
X145411904Y-108785714D01*
X145507142Y-108833333D01*
X145554761Y-108880952D01*
X145602380Y-108976190D01*
X145602380Y-109071428D01*
X145554761Y-109166666D01*
X145507142Y-109214285D01*
X145411904Y-109261904D01*
X145221428Y-109309523D01*
X144983333Y-109309523D01*
X144792857Y-109261904D01*
X144697619Y-109214285D01*
X144650000Y-109166666D01*
X144602380Y-109071428D01*
D13*
X148302380Y-110642857D02*
X147826190Y-110976190D01*
X148302380Y-111214285D02*
X147302380Y-111214285D01*
X147302380Y-110833333D01*
X147350000Y-110738095D01*
X147397619Y-110690476D01*
X147492857Y-110642857D01*
X147635714Y-110642857D01*
X147730952Y-110690476D01*
X147778571Y-110738095D01*
X147826190Y-110833333D01*
X147826190Y-111214285D01*
X148302380Y-109690476D02*
X148302380Y-110261904D01*
X148302380Y-109976190D02*
X147302380Y-109976190D01*
X147445238Y-110071428D01*
X147540476Y-110166666D01*
X147588095Y-110261904D01*
X148302380Y-108738095D02*
X148302380Y-109309523D01*
X148302380Y-109023809D02*
X147302380Y-109023809D01*
X147445238Y-109119047D01*
X147540476Y-109214285D01*
X147588095Y-109309523D01*
D11*
X159952380Y-122642857D02*
X159476190Y-122976190D01*
X159952380Y-123214285D02*
X158952380Y-123214285D01*
X158952380Y-122833333D01*
X159000000Y-122738095D01*
X159047619Y-122690476D01*
X159142857Y-122642857D01*
X159285714Y-122642857D01*
X159380952Y-122690476D01*
X159428571Y-122738095D01*
X159476190Y-122833333D01*
X159476190Y-123214285D01*
X159952380Y-121690476D02*
X159952380Y-122261904D01*
X159952380Y-121976190D02*
X158952380Y-121976190D01*
X159095238Y-122071428D01*
X159190476Y-122166666D01*
X159238095Y-122261904D01*
X159047619Y-121309523D02*
X159000000Y-121261904D01*
X158952380Y-121166666D01*
X158952380Y-120928571D01*
X159000000Y-120833333D01*
X159047619Y-120785714D01*
X159142857Y-120738095D01*
X159238095Y-120738095D01*
X159380952Y-120785714D01*
X159952380Y-121357142D01*
X159952380Y-120738095D01*
X133257142Y-96052380D02*
X132923809Y-95576190D01*
X132685714Y-96052380D02*
X132685714Y-95052380D01*
X133066666Y-95052380D01*
X133161904Y-95100000D01*
X133209523Y-95147619D01*
X133257142Y-95242857D01*
X133257142Y-95385714D01*
X133209523Y-95480952D01*
X133161904Y-95528571D01*
X133066666Y-95576190D01*
X132685714Y-95576190D01*
X134209523Y-96052380D02*
X133638095Y-96052380D01*
X133923809Y-96052380D02*
X133923809Y-95052380D01*
X133828571Y-95195238D01*
X133733333Y-95290476D01*
X133638095Y-95338095D01*
X134542857Y-95052380D02*
X135161904Y-95052380D01*
X134828571Y-95433333D01*
X134971428Y-95433333D01*
X135066666Y-95480952D01*
X135114285Y-95528571D01*
X135161904Y-95623809D01*
X135161904Y-95861904D01*
X135114285Y-95957142D01*
X135066666Y-96004761D01*
X134971428Y-96052380D01*
X134685714Y-96052380D01*
X134590476Y-96004761D01*
X134542857Y-95957142D01*
X133357142Y-92852380D02*
X133023809Y-92376190D01*
X132785714Y-92852380D02*
X132785714Y-91852380D01*
X133166666Y-91852380D01*
X133261904Y-91900000D01*
X133309523Y-91947619D01*
X133357142Y-92042857D01*
X133357142Y-92185714D01*
X133309523Y-92280952D01*
X133261904Y-92328571D01*
X133166666Y-92376190D01*
X132785714Y-92376190D01*
X134309523Y-92852380D02*
X133738095Y-92852380D01*
X134023809Y-92852380D02*
X134023809Y-91852380D01*
X133928571Y-91995238D01*
X133833333Y-92090476D01*
X133738095Y-92138095D01*
X135166666Y-92185714D02*
X135166666Y-92852380D01*
X134928571Y-91804761D02*
X134690476Y-92519047D01*
X135309523Y-92519047D01*
X141152380Y-110642857D02*
X140676190Y-110976190D01*
X141152380Y-111214285D02*
X140152380Y-111214285D01*
X140152380Y-110833333D01*
X140200000Y-110738095D01*
X140247619Y-110690476D01*
X140342857Y-110642857D01*
X140485714Y-110642857D01*
X140580952Y-110690476D01*
X140628571Y-110738095D01*
X140676190Y-110833333D01*
X140676190Y-111214285D01*
X141152380Y-109690476D02*
X141152380Y-110261904D01*
X141152380Y-109976190D02*
X140152380Y-109976190D01*
X140295238Y-110071428D01*
X140390476Y-110166666D01*
X140438095Y-110261904D01*
X140152380Y-108785714D02*
X140152380Y-109261904D01*
X140628571Y-109309523D01*
X140580952Y-109261904D01*
X140533333Y-109166666D01*
X140533333Y-108928571D01*
X140580952Y-108833333D01*
X140628571Y-108785714D01*
X140723809Y-108738095D01*
X140961904Y-108738095D01*
X141057142Y-108785714D01*
X141104761Y-108833333D01*
X141152380Y-108928571D01*
X141152380Y-109166666D01*
X141104761Y-109261904D01*
X141057142Y-109309523D01*
D16*
X133500000Y-124085714D02*
X133671428Y-124142857D01*
X133957142Y-124142857D01*
X134071428Y-124085714D01*
X134128571Y-124028571D01*
X134185714Y-123914285D01*
X134185714Y-123800000D01*
X134128571Y-123685714D01*
X134071428Y-123628571D01*
X133957142Y-123571428D01*
X133728571Y-123514285D01*
X133614285Y-123457142D01*
X133557142Y-123400000D01*
X133500000Y-123285714D01*
X133500000Y-123171428D01*
X133557142Y-123057142D01*
X133614285Y-123000000D01*
X133728571Y-122942857D01*
X134014285Y-122942857D01*
X134185714Y-123000000D01*
X134585714Y-122942857D02*
X134871428Y-124142857D01*
X135100000Y-123285714D01*
X135328571Y-124142857D01*
X135614285Y-122942857D01*
X136014285Y-123057142D02*
X136071428Y-123000000D01*
X136185714Y-122942857D01*
X136471428Y-122942857D01*
X136585714Y-123000000D01*
X136642857Y-123057142D01*
X136700000Y-123171428D01*
X136700000Y-123285714D01*
X136642857Y-123457142D01*
X135957142Y-124142857D01*
X136700000Y-124142857D01*
X153400000Y-124085714D02*
X153571428Y-124142857D01*
X153857142Y-124142857D01*
X153971428Y-124085714D01*
X154028571Y-124028571D01*
X154085714Y-123914285D01*
X154085714Y-123800000D01*
X154028571Y-123685714D01*
X153971428Y-123628571D01*
X153857142Y-123571428D01*
X153628571Y-123514285D01*
X153514285Y-123457142D01*
X153457142Y-123400000D01*
X153400000Y-123285714D01*
X153400000Y-123171428D01*
X153457142Y-123057142D01*
X153514285Y-123000000D01*
X153628571Y-122942857D01*
X153914285Y-122942857D01*
X154085714Y-123000000D01*
X154485714Y-122942857D02*
X154771428Y-124142857D01*
X155000000Y-123285714D01*
X155228571Y-124142857D01*
X155514285Y-122942857D01*
X155857142Y-122942857D02*
X156600000Y-122942857D01*
X156200000Y-123400000D01*
X156371428Y-123400000D01*
X156485714Y-123457142D01*
X156542857Y-123514285D01*
X156600000Y-123628571D01*
X156600000Y-123914285D01*
X156542857Y-124028571D01*
X156485714Y-124085714D01*
X156371428Y-124142857D01*
X156028571Y-124142857D01*
X155914285Y-124085714D01*
X155857142Y-124028571D01*
D11*
X168189285Y-106571428D02*
X168796428Y-106571428D01*
X168867857Y-106535714D01*
X168903571Y-106500000D01*
X168939285Y-106428571D01*
X168939285Y-106285714D01*
X168903571Y-106214285D01*
X168867857Y-106178571D01*
X168796428Y-106142857D01*
X168189285Y-106142857D01*
X168260714Y-105821428D02*
X168225000Y-105785714D01*
X168189285Y-105714285D01*
X168189285Y-105535714D01*
X168225000Y-105464285D01*
X168260714Y-105428571D01*
X168332142Y-105392857D01*
X168403571Y-105392857D01*
X168510714Y-105428571D01*
X168939285Y-105857142D01*
X168939285Y-105392857D01*
D13*
X141238095Y-91152380D02*
X141238095Y-91961904D01*
X141285714Y-92057142D01*
X141333333Y-92104761D01*
X141428571Y-92152380D01*
X141619047Y-92152380D01*
X141714285Y-92104761D01*
X141761904Y-92057142D01*
X141809523Y-91961904D01*
X141809523Y-91152380D01*
X142761904Y-91152380D02*
X142285714Y-91152380D01*
X142238095Y-91628571D01*
X142285714Y-91580952D01*
X142380952Y-91533333D01*
X142619047Y-91533333D01*
X142714285Y-91580952D01*
X142761904Y-91628571D01*
X142809523Y-91723809D01*
X142809523Y-91961904D01*
X142761904Y-92057142D01*
X142714285Y-92104761D01*
X142619047Y-92152380D01*
X142380952Y-92152380D01*
X142285714Y-92104761D01*
X142238095Y-92057142D01*
D11*
X152261904Y-76652380D02*
X152261904Y-75652380D01*
X152500000Y-75652380D01*
X152642857Y-75700000D01*
X152738095Y-75795238D01*
X152785714Y-75890476D01*
X152833333Y-76080952D01*
X152833333Y-76223809D01*
X152785714Y-76414285D01*
X152738095Y-76509523D01*
X152642857Y-76604761D01*
X152500000Y-76652380D01*
X152261904Y-76652380D01*
X153166666Y-75652380D02*
X153785714Y-75652380D01*
X153452380Y-76033333D01*
X153595238Y-76033333D01*
X153690476Y-76080952D01*
X153738095Y-76128571D01*
X153785714Y-76223809D01*
X153785714Y-76461904D01*
X153738095Y-76557142D01*
X153690476Y-76604761D01*
X153595238Y-76652380D01*
X153309523Y-76652380D01*
X153214285Y-76604761D01*
X153166666Y-76557142D01*
X141252380Y-105738095D02*
X140252380Y-105738095D01*
X140252380Y-105500000D01*
X140300000Y-105357142D01*
X140395238Y-105261904D01*
X140490476Y-105214285D01*
X140680952Y-105166666D01*
X140823809Y-105166666D01*
X141014285Y-105214285D01*
X141109523Y-105261904D01*
X141204761Y-105357142D01*
X141252380Y-105500000D01*
X141252380Y-105738095D01*
X140252380Y-104309523D02*
X140252380Y-104500000D01*
X140300000Y-104595238D01*
X140347619Y-104642857D01*
X140490476Y-104738095D01*
X140680952Y-104785714D01*
X141061904Y-104785714D01*
X141157142Y-104738095D01*
X141204761Y-104690476D01*
X141252380Y-104595238D01*
X141252380Y-104404761D01*
X141204761Y-104309523D01*
X141157142Y-104261904D01*
X141061904Y-104214285D01*
X140823809Y-104214285D01*
X140728571Y-104261904D01*
X140680952Y-104309523D01*
X140633333Y-104404761D01*
X140633333Y-104595238D01*
X140680952Y-104690476D01*
X140728571Y-104738095D01*
X140823809Y-104785714D01*
X146902380Y-69761904D02*
X147711904Y-69761904D01*
X147807142Y-69714285D01*
X147854761Y-69666666D01*
X147902380Y-69571428D01*
X147902380Y-69380952D01*
X147854761Y-69285714D01*
X147807142Y-69238095D01*
X147711904Y-69190476D01*
X146902380Y-69190476D01*
X147902380Y-68190476D02*
X147902380Y-68761904D01*
X147902380Y-68476190D02*
X146902380Y-68476190D01*
X147045238Y-68571428D01*
X147140476Y-68666666D01*
X147188095Y-68761904D01*
X154150000Y-68216666D02*
X154183333Y-68250000D01*
X154216666Y-68350000D01*
X154216666Y-68416666D01*
X154183333Y-68516666D01*
X154116666Y-68583333D01*
X154050000Y-68616666D01*
X153916666Y-68650000D01*
X153816666Y-68650000D01*
X153683333Y-68616666D01*
X153616666Y-68583333D01*
X153550000Y-68516666D01*
X153516666Y-68416666D01*
X153516666Y-68350000D01*
X153550000Y-68250000D01*
X153583333Y-68216666D01*
X153583333Y-67950000D02*
X153550000Y-67916666D01*
X153516666Y-67850000D01*
X153516666Y-67683333D01*
X153550000Y-67616666D01*
X153583333Y-67583333D01*
X153650000Y-67550000D01*
X153716666Y-67550000D01*
X153816666Y-67583333D01*
X154216666Y-67983333D01*
X154216666Y-67550000D01*
X154238095Y-92302380D02*
X154238095Y-93111904D01*
X154285714Y-93207142D01*
X154333333Y-93254761D01*
X154428571Y-93302380D01*
X154619047Y-93302380D01*
X154714285Y-93254761D01*
X154761904Y-93207142D01*
X154809523Y-93111904D01*
X154809523Y-92302380D01*
X155190476Y-92302380D02*
X155809523Y-92302380D01*
X155476190Y-92683333D01*
X155619047Y-92683333D01*
X155714285Y-92730952D01*
X155761904Y-92778571D01*
X155809523Y-92873809D01*
X155809523Y-93111904D01*
X155761904Y-93207142D01*
X155714285Y-93254761D01*
X155619047Y-93302380D01*
X155333333Y-93302380D01*
X155238095Y-93254761D01*
X155190476Y-93207142D01*
D13*
X166552380Y-100961904D02*
X167361904Y-100961904D01*
X167457142Y-100914285D01*
X167504761Y-100866666D01*
X167552380Y-100771428D01*
X167552380Y-100580952D01*
X167504761Y-100485714D01*
X167457142Y-100438095D01*
X167361904Y-100390476D01*
X166552380Y-100390476D01*
X167552380Y-99342857D02*
X167076190Y-99676190D01*
X167552380Y-99914285D02*
X166552380Y-99914285D01*
X166552380Y-99533333D01*
X166600000Y-99438095D01*
X166647619Y-99390476D01*
X166742857Y-99342857D01*
X166885714Y-99342857D01*
X166980952Y-99390476D01*
X167028571Y-99438095D01*
X167076190Y-99533333D01*
X167076190Y-99914285D01*
X166552380Y-99009523D02*
X167552380Y-98342857D01*
X166552380Y-98342857D02*
X167552380Y-99009523D01*
X162657142Y-102252380D02*
X162657142Y-103061904D01*
X162704761Y-103157142D01*
X162752380Y-103204761D01*
X162847619Y-103252380D01*
X163038095Y-103252380D01*
X163133333Y-103204761D01*
X163180952Y-103157142D01*
X163228571Y-103061904D01*
X163228571Y-102252380D01*
X163561904Y-102252380D02*
X164133333Y-102252380D01*
X163847619Y-103252380D02*
X163847619Y-102252380D01*
X164371428Y-102252380D02*
X165038095Y-103252380D01*
X165038095Y-102252380D02*
X164371428Y-103252380D01*
D17*
X163564285Y-68189285D02*
X163742857Y-68939285D01*
X163885714Y-68403571D01*
X164028571Y-68939285D01*
X164207142Y-68189285D01*
X164885714Y-68939285D02*
X164457142Y-68939285D01*
X164671428Y-68939285D02*
X164671428Y-68189285D01*
X164600000Y-68296428D01*
X164528571Y-68367857D01*
X164457142Y-68403571D01*
X165171428Y-68260714D02*
X165207142Y-68225000D01*
X165278571Y-68189285D01*
X165457142Y-68189285D01*
X165528571Y-68225000D01*
X165564285Y-68260714D01*
X165600000Y-68332142D01*
X165600000Y-68403571D01*
X165564285Y-68510714D01*
X165135714Y-68939285D01*
X165600000Y-68939285D01*
M02*
