G04 #@! TF.FileFunction,Copper,L2,Bot,Signal*
%FSLAX46Y46*%
G04 Gerber Fmt 4.6, Leading zero omitted, Abs format (unit mm)*
G04 Created by KiCad (PCBNEW 4.0.4+dfsg1-stable) date Sat Nov 19 08:28:01 2016*
%MOMM*%
%LPD*%
G01*
G04 APERTURE LIST*
%ADD10C,0.100000*%
%ADD11C,1.400000*%
%ADD12R,2.032000X1.727200*%
%ADD13O,2.032000X1.727200*%
%ADD14C,1.000760*%
%ADD15R,1.600000X2.500000*%
%ADD16C,0.600000*%
%ADD17R,1.000000X2.800000*%
%ADD18C,0.500000*%
%ADD19C,0.250000*%
G04 APERTURE END LIST*
D10*
D11*
X148750000Y-80000000D03*
X146250000Y-80000000D03*
X143750000Y-80000000D03*
X141250000Y-80000000D03*
X148750000Y-85000000D03*
X146250000Y-85000000D03*
X143750000Y-85000000D03*
X141250000Y-85000000D03*
D12*
X122500000Y-99880000D03*
D13*
X122500000Y-102420000D03*
X122500000Y-104960000D03*
X122500000Y-107500000D03*
X122500000Y-110040000D03*
D12*
X167500000Y-100000000D03*
D13*
X167500000Y-102540000D03*
X167500000Y-105080000D03*
D14*
X133250000Y-98249300D03*
X133250000Y-96750700D03*
D15*
X145000000Y-122000000D03*
D16*
X145400000Y-121150000D03*
X145400000Y-122850000D03*
X145400000Y-122000000D03*
X144600000Y-121150000D03*
X144600000Y-122850000D03*
X144600000Y-122000000D03*
D17*
X135580000Y-92300000D03*
X135580000Y-87500000D03*
X133040000Y-92300000D03*
X133040000Y-87500000D03*
X130500000Y-92300000D03*
X130500000Y-87500000D03*
X127960000Y-92300000D03*
X127960000Y-87500000D03*
X125420000Y-92300000D03*
X125420000Y-87500000D03*
X164620000Y-92300000D03*
X164620000Y-87500000D03*
X162080000Y-92300000D03*
X162080000Y-87500000D03*
X159540000Y-92300000D03*
X159540000Y-87500000D03*
X157000000Y-92300000D03*
X157000000Y-87500000D03*
X154460000Y-92300000D03*
X154460000Y-87500000D03*
D16*
X154967050Y-100375010D03*
X162467050Y-100375010D03*
X120900000Y-116100000D03*
X162000010Y-120000000D03*
X130000000Y-116000014D03*
X161000000Y-70000000D03*
X127300000Y-71299999D03*
X126500000Y-106600000D03*
X142500000Y-83800000D03*
X130500000Y-95500000D03*
X128500000Y-95000000D03*
X131500000Y-101500000D03*
X140000000Y-107000000D03*
X125000000Y-95000000D03*
X132500000Y-110000000D03*
X135000000Y-117500000D03*
X152500000Y-120000000D03*
X162500000Y-110000000D03*
X162500000Y-105000000D03*
X162500000Y-95100036D03*
X167500000Y-80000000D03*
X167500000Y-75000000D03*
X162500000Y-75000000D03*
X162500000Y-80000000D03*
X162500000Y-85000000D03*
X152500000Y-85000000D03*
X157500000Y-85000000D03*
X152500000Y-90000000D03*
X137500000Y-85000000D03*
X132500000Y-85000000D03*
X127500000Y-85000000D03*
X154000000Y-68000000D03*
X132000000Y-73000000D03*
X148500000Y-76000000D03*
X142500000Y-77500000D03*
X137500000Y-80000000D03*
X122500000Y-80000000D03*
X130000000Y-67500000D03*
X135000000Y-67500000D03*
X140000000Y-67500000D03*
X156000000Y-81250000D03*
X147750000Y-104750000D03*
X147250000Y-112500000D03*
X143500000Y-112500000D03*
X126500000Y-90000000D03*
X152500000Y-91500000D03*
X143250000Y-93000000D03*
X138250000Y-92000000D03*
X131749942Y-100599710D03*
X129646805Y-101817483D03*
X151030338Y-111469662D03*
X150500000Y-109250000D03*
X152250000Y-110750000D03*
X151250000Y-108500000D03*
X151815694Y-107934306D03*
X153250000Y-109500000D03*
X152500000Y-106750000D03*
X157500000Y-106750000D03*
X147294689Y-97532119D03*
X148587715Y-93575021D03*
X147360116Y-101660184D03*
X151500046Y-96000000D03*
X146625010Y-103133898D03*
X146000000Y-104000000D03*
X150701300Y-95257843D03*
X144000000Y-97000000D03*
X148500000Y-97000000D03*
X146000000Y-97500000D03*
X139550002Y-97500000D03*
X139000000Y-93874990D03*
X138252765Y-93368867D03*
X138153037Y-95125010D03*
X142374990Y-96628253D03*
X145500000Y-99000000D03*
X144500000Y-98000000D03*
X145000000Y-100000000D03*
X152500000Y-99874990D03*
X151750000Y-100500000D03*
D18*
X139000000Y-115000000D02*
X136500000Y-117500000D01*
X155500000Y-117000000D02*
X153500000Y-115000000D01*
X153500000Y-115000000D02*
X139000000Y-115000000D01*
X136500000Y-117500000D02*
X135000000Y-117500000D01*
D19*
X162042786Y-100375010D02*
X154967050Y-100375010D01*
D18*
X162500000Y-100407960D02*
X162467050Y-100375010D01*
D19*
X162467050Y-100375010D02*
X162042786Y-100375010D01*
D18*
X162500000Y-105000000D02*
X162500000Y-100407960D01*
X120999986Y-116000014D02*
X120900000Y-116100000D01*
X130000000Y-116000014D02*
X120999986Y-116000014D01*
X152500000Y-120000000D02*
X160000000Y-120000000D01*
X160000000Y-120000000D02*
X162000010Y-120000000D01*
X133500014Y-116000014D02*
X130424264Y-116000014D01*
X135000000Y-117500000D02*
X133500014Y-116000014D01*
X130424264Y-116000014D02*
X130000000Y-116000014D01*
X161000000Y-73500000D02*
X161000000Y-70424264D01*
X162500000Y-75000000D02*
X161000000Y-73500000D01*
X161000000Y-70424264D02*
X161000000Y-70000000D01*
X167500000Y-75000000D02*
X162500000Y-75000000D01*
X127000001Y-71599998D02*
X127300000Y-71299999D01*
X122500000Y-80000000D02*
X122500000Y-76099999D01*
X130000000Y-68599999D02*
X127599999Y-71000000D01*
X130000000Y-67500000D02*
X130000000Y-68599999D01*
X127599999Y-71000000D02*
X127300000Y-71299999D01*
X122500000Y-76099999D02*
X127000001Y-71599998D01*
D19*
X126500000Y-106600000D02*
X125940000Y-106600000D01*
X123766000Y-108774000D02*
X123766000Y-108926400D01*
X125940000Y-106600000D02*
X123766000Y-108774000D01*
X123766000Y-108926400D02*
X122652400Y-110040000D01*
X122652400Y-110040000D02*
X122500000Y-110040000D01*
D18*
X137500000Y-85000000D02*
X140900000Y-88400000D01*
D19*
X142500000Y-83800000D02*
X142500000Y-86800000D01*
D18*
X140900000Y-88400000D02*
X142500000Y-90000000D01*
D19*
X142500000Y-86800000D02*
X140900000Y-88400000D01*
D18*
X129000000Y-95500000D02*
X130500000Y-95500000D01*
X128500000Y-95000000D02*
X129000000Y-95500000D01*
X125000000Y-95000000D02*
X125000000Y-96500000D01*
X125000000Y-96500000D02*
X123000000Y-98500000D01*
X123000000Y-98500000D02*
X121190398Y-98500000D01*
X121190398Y-98500000D02*
X120984000Y-98706398D01*
X120984000Y-98706398D02*
X120984000Y-108676400D01*
X120984000Y-108676400D02*
X122347600Y-110040000D01*
X122347600Y-110040000D02*
X122500000Y-110040000D01*
X125420000Y-87500000D02*
X125420000Y-88400000D01*
X125420000Y-88400000D02*
X124420000Y-89400000D01*
X124420000Y-89400000D02*
X124420000Y-94420000D01*
X124420000Y-94420000D02*
X124469999Y-94469999D01*
X124469999Y-94469999D02*
X125000000Y-95000000D01*
X155500000Y-117000000D02*
X152500000Y-120000000D01*
X162500000Y-110000000D02*
X155500000Y-117000000D01*
X162500000Y-105000000D02*
X162500000Y-110000000D01*
X164529966Y-95100036D02*
X162500000Y-95100036D01*
X166500000Y-86669998D02*
X166500000Y-93130002D01*
X166500000Y-93130002D02*
X164529966Y-95100036D01*
X162500000Y-85000000D02*
X164830002Y-85000000D01*
X164830002Y-85000000D02*
X166500000Y-86669998D01*
X154460000Y-89960000D02*
X154420000Y-90000000D01*
X154420000Y-90000000D02*
X152500000Y-90000000D01*
X125420000Y-87500000D02*
X125420000Y-87080000D01*
X125420000Y-87080000D02*
X127500000Y-85000000D01*
X157500000Y-85000000D02*
X154500000Y-85000000D01*
X154500000Y-85000000D02*
X152500000Y-85000000D01*
X154460000Y-87500000D02*
X154460000Y-85040000D01*
X154460000Y-85040000D02*
X154500000Y-85000000D01*
X154460000Y-89960000D02*
X154460000Y-87500000D01*
X167500000Y-75000000D02*
X167500000Y-80000000D01*
X162500000Y-80000000D02*
X162500000Y-75000000D01*
X162500000Y-85000000D02*
X162500000Y-80000000D01*
X157500000Y-85000000D02*
X162500000Y-85000000D01*
X142500000Y-90000000D02*
X152500000Y-90000000D01*
X132500000Y-85000000D02*
X137500000Y-85000000D01*
X127500000Y-85000000D02*
X132500000Y-85000000D01*
X156000000Y-81250000D02*
X155250000Y-81250000D01*
X155250000Y-81250000D02*
X151750000Y-77750000D01*
X151750000Y-77750000D02*
X148500000Y-77750000D01*
X148500000Y-77750000D02*
X146250000Y-80000000D01*
X132000000Y-80000000D02*
X137500000Y-80000000D01*
X122500000Y-80000000D02*
X132000000Y-80000000D01*
X132000000Y-80000000D02*
X132000000Y-73000000D01*
X153750000Y-81250000D02*
X148500000Y-76000000D01*
X148500000Y-76000000D02*
X140000000Y-67500000D01*
X142500000Y-77500000D02*
X147000000Y-77500000D01*
X147000000Y-77500000D02*
X148500000Y-76000000D01*
X137500000Y-80000000D02*
X140000000Y-77500000D01*
X140000000Y-77500000D02*
X142500000Y-77500000D01*
X140000000Y-67500000D02*
X135000000Y-67500000D01*
X156000000Y-81250000D02*
X153750000Y-81250000D01*
X146250000Y-80000000D02*
X146250000Y-85000000D01*
D19*
X147750000Y-104750000D02*
X145750000Y-104750000D01*
X143500000Y-112500000D02*
X147250000Y-112500000D01*
D18*
X126500000Y-90000000D02*
X125420000Y-91080000D01*
X125420000Y-91080000D02*
X125420000Y-92300000D01*
X152500000Y-91500000D02*
X153660000Y-91500000D01*
X153660000Y-91500000D02*
X154460000Y-92300000D01*
X152500000Y-91500000D02*
X143750000Y-91500000D01*
X143750000Y-91500000D02*
X143549999Y-91700001D01*
X143250000Y-92000000D02*
X143549999Y-91700001D01*
X138250000Y-92000000D02*
X143250000Y-92000000D01*
D19*
X143250000Y-93000000D02*
X143250000Y-92000000D01*
X131325678Y-100599710D02*
X131749942Y-100599710D01*
X130864578Y-100599710D02*
X131325678Y-100599710D01*
X129646805Y-101817483D02*
X130864578Y-100599710D01*
X150500000Y-109250000D02*
X151030338Y-109780338D01*
X151030338Y-109780338D02*
X151030338Y-111045398D01*
X151030338Y-111045398D02*
X151030338Y-111469662D01*
X151250000Y-108500000D02*
X152250000Y-109500000D01*
X152250000Y-109500000D02*
X152250000Y-110750000D01*
D18*
X148750000Y-85000000D02*
X148750000Y-84010051D01*
X148750000Y-84010051D02*
X148750000Y-80000000D01*
D19*
X151815694Y-108065694D02*
X151815694Y-107934306D01*
X153250000Y-109500000D02*
X151815694Y-108065694D01*
X157500000Y-106750000D02*
X152500000Y-106750000D01*
X122500000Y-102420000D02*
X129324318Y-102420000D01*
X147294689Y-98630315D02*
X147294689Y-97956383D01*
X143482519Y-102442485D02*
X147294689Y-98630315D01*
X129346803Y-102442485D02*
X143482519Y-102442485D01*
X129324318Y-102420000D02*
X129346803Y-102442485D01*
X147294689Y-97956383D02*
X147294689Y-97532119D01*
X141601415Y-104960000D02*
X148199999Y-98361416D01*
X148199999Y-98361416D02*
X148199999Y-97625001D01*
X148199999Y-97625001D02*
X147874999Y-97300001D01*
X122500000Y-104960000D02*
X141601415Y-104960000D01*
X147874999Y-97300001D02*
X147874999Y-94287737D01*
X147874999Y-94287737D02*
X148287716Y-93875020D01*
X148287716Y-93875020D02*
X148587715Y-93575021D01*
X147660115Y-101360185D02*
X147360116Y-101660184D01*
X158584160Y-97650074D02*
X151370226Y-97650074D01*
X161759221Y-94475012D02*
X158584160Y-97650074D01*
X163344988Y-94475012D02*
X161759221Y-94475012D01*
X164620000Y-92300000D02*
X164620000Y-93200000D01*
X151370226Y-97650074D02*
X147660115Y-101360185D01*
X164620000Y-93200000D02*
X163344988Y-94475012D01*
X151924310Y-96000000D02*
X151500046Y-96000000D01*
X160500000Y-93825002D02*
X158325002Y-96000000D01*
X160500000Y-90730000D02*
X160500000Y-93825002D01*
X162080000Y-89150000D02*
X160500000Y-90730000D01*
X162080000Y-87500000D02*
X162080000Y-89150000D01*
X158325002Y-96000000D02*
X151924310Y-96000000D01*
X146625010Y-101511400D02*
X146625010Y-102709634D01*
X162905001Y-93960001D02*
X162840001Y-94025001D01*
X150936347Y-97200063D02*
X146625010Y-101511400D01*
X158397760Y-97200063D02*
X150936347Y-97200063D01*
X161572821Y-94025001D02*
X158397760Y-97200063D01*
X162840001Y-94025001D02*
X161572821Y-94025001D01*
X162905001Y-90864999D02*
X162905001Y-93960001D01*
X164620000Y-89150000D02*
X162905001Y-90864999D01*
X164620000Y-87500000D02*
X164620000Y-89150000D01*
X146625010Y-102709634D02*
X146625010Y-103133898D01*
X146000000Y-103575736D02*
X146000000Y-104000000D01*
X146000000Y-101500000D02*
X146000000Y-103575736D01*
X150749947Y-96750053D02*
X146000000Y-101500000D01*
X162080000Y-92881413D02*
X158211360Y-96750053D01*
X162080000Y-92300000D02*
X162080000Y-92881413D01*
X158211360Y-96750053D02*
X150749947Y-96750053D01*
X153023608Y-95257843D02*
X151125564Y-95257843D01*
X153140799Y-95375034D02*
X153023608Y-95257843D01*
X159540000Y-93200000D02*
X157364966Y-95375034D01*
X151125564Y-95257843D02*
X150701300Y-95257843D01*
X159540000Y-92300000D02*
X159540000Y-93200000D01*
X157364966Y-95375034D02*
X153140799Y-95375034D01*
X144000000Y-95000000D02*
X146500000Y-92500000D01*
X153634999Y-93300761D02*
X153634999Y-93960001D01*
X157000000Y-89150000D02*
X157000000Y-87500000D01*
X146500000Y-92500000D02*
X152834238Y-92500000D01*
X155474999Y-94025001D02*
X156000000Y-93500000D01*
X156000000Y-93500000D02*
X156000000Y-90150000D01*
X156000000Y-90150000D02*
X157000000Y-89150000D01*
X144000000Y-97000000D02*
X144000000Y-95000000D01*
X153699999Y-94025001D02*
X155474999Y-94025001D01*
X153634999Y-93960001D02*
X153699999Y-94025001D01*
X152834238Y-92500000D02*
X153634999Y-93300761D01*
X159540000Y-89150000D02*
X159540000Y-87500000D01*
X158714999Y-89975001D02*
X159540000Y-89150000D01*
X148500000Y-96438585D02*
X151513598Y-93424986D01*
X158714999Y-93070003D02*
X158714999Y-89975001D01*
X151513598Y-93424986D02*
X152486402Y-93424986D01*
X153327199Y-94925023D02*
X156859979Y-94925023D01*
X156859979Y-94925023D02*
X158714999Y-93070003D01*
X152734977Y-93673562D02*
X152734977Y-94332801D01*
X148500000Y-97000000D02*
X148500000Y-96438585D01*
X152734977Y-94332801D02*
X153327199Y-94925023D01*
X152486402Y-93424986D02*
X152734977Y-93673562D01*
X157000000Y-92300000D02*
X157000000Y-93200000D01*
X152647838Y-92950011D02*
X147686400Y-92950011D01*
X155724988Y-94475012D02*
X153513599Y-94475012D01*
X147686400Y-92950011D02*
X146000000Y-94636411D01*
X157000000Y-93200000D02*
X155724988Y-94475012D01*
X153184988Y-93487161D02*
X152647838Y-92950011D01*
X153184988Y-94146401D02*
X153184988Y-93487161D01*
X146000000Y-97075736D02*
X146000000Y-97500000D01*
X153513599Y-94475012D02*
X153184988Y-94146401D01*
X146000000Y-94636411D02*
X146000000Y-97075736D01*
X143000000Y-97000000D02*
X142500000Y-97500000D01*
X142500000Y-95500000D02*
X143000000Y-96000000D01*
X143000000Y-97000000D02*
X143000000Y-96000000D01*
X142500000Y-97500000D02*
X139550002Y-97500000D01*
X139500000Y-95500000D02*
X142500000Y-95500000D01*
X135580000Y-92300000D02*
X135580000Y-93200000D01*
X135580000Y-93200000D02*
X136880000Y-94500000D01*
X136880000Y-94500000D02*
X138500000Y-94500000D01*
X138500000Y-94500000D02*
X139500000Y-95500000D01*
X136855012Y-86290010D02*
X136855012Y-91646114D01*
X138552767Y-92743865D02*
X139000000Y-93191098D01*
X137952763Y-92743865D02*
X138552767Y-92743865D01*
X136855012Y-91646114D02*
X137952763Y-92743865D01*
X136340001Y-85774999D02*
X136855012Y-86290010D01*
X133040000Y-86600000D02*
X133865001Y-85774999D01*
X133040000Y-87500000D02*
X133040000Y-86600000D01*
X139000000Y-93450726D02*
X139000000Y-93874990D01*
X139000000Y-93191098D02*
X139000000Y-93450726D01*
X133865001Y-85774999D02*
X136340001Y-85774999D01*
X135580000Y-87500000D02*
X135580000Y-89150000D01*
X136405001Y-91945367D02*
X137828501Y-93368867D01*
X137828501Y-93368867D02*
X138252765Y-93368867D01*
X136405001Y-89975001D02*
X136405001Y-91945367D01*
X135580000Y-89150000D02*
X136405001Y-89975001D01*
X134965010Y-95125010D02*
X137728773Y-95125010D01*
X133040000Y-93200000D02*
X134965010Y-95125010D01*
X133040000Y-92300000D02*
X133040000Y-93200000D01*
X137728773Y-95125010D02*
X138153037Y-95125010D01*
X130500000Y-93200000D02*
X133225319Y-95925319D01*
X133225319Y-95925319D02*
X139288908Y-95925319D01*
X141950726Y-96628253D02*
X142374990Y-96628253D01*
X139288908Y-95925319D02*
X139991842Y-96628253D01*
X130500000Y-92300000D02*
X130500000Y-93200000D01*
X139991842Y-96628253D02*
X141950726Y-96628253D01*
X129224988Y-94299984D02*
X129224988Y-90414988D01*
X129224988Y-90414988D02*
X127960000Y-89150000D01*
X131125002Y-95199998D02*
X130800002Y-94874998D01*
X131388280Y-99524689D02*
X131125002Y-99261411D01*
X143611721Y-99524689D02*
X131388280Y-99524689D01*
X130800002Y-94874998D02*
X129800002Y-94874998D01*
X144136410Y-99000000D02*
X143611721Y-99524689D01*
X129800002Y-94874998D02*
X129224988Y-94299984D01*
X131125002Y-99261411D02*
X131125002Y-95199998D01*
X127960000Y-89150000D02*
X127960000Y-87500000D01*
X145500000Y-99000000D02*
X144136410Y-99000000D01*
X129674999Y-89975001D02*
X130500000Y-89150000D01*
X130674999Y-94113584D02*
X129674999Y-94113584D01*
X131575013Y-95013598D02*
X130674999Y-94113584D01*
X131575013Y-97795878D02*
X131575013Y-95013598D01*
X143425319Y-99074681D02*
X132853816Y-99074681D01*
X132853816Y-99074681D02*
X131575013Y-97795878D01*
X129674999Y-94113584D02*
X129674999Y-89975001D01*
X144500000Y-98000000D02*
X143425319Y-99074681D01*
X130500000Y-89150000D02*
X130500000Y-87500000D01*
X144550436Y-99974700D02*
X144575736Y-100000000D01*
X127210000Y-95982819D02*
X131201881Y-99974700D01*
X127960000Y-92300000D02*
X127960000Y-93200000D01*
X144575736Y-100000000D02*
X145000000Y-100000000D01*
X131201881Y-99974700D02*
X144550436Y-99974700D01*
X127960000Y-93200000D02*
X127210000Y-93950000D01*
X127210000Y-93950000D02*
X127210000Y-95982819D01*
X152799999Y-99574991D02*
X152500000Y-99874990D01*
X165283989Y-99049989D02*
X153325001Y-99049989D01*
X166234000Y-100000000D02*
X165283989Y-99049989D01*
X167500000Y-100000000D02*
X166234000Y-100000000D01*
X153325001Y-99049989D02*
X152799999Y-99574991D01*
X153250000Y-100500000D02*
X151750000Y-100500000D01*
X154000000Y-99750000D02*
X153250000Y-100500000D01*
X163444000Y-99750000D02*
X154000000Y-99750000D01*
X167500000Y-102540000D02*
X166234000Y-102540000D01*
X166234000Y-102540000D02*
X163444000Y-99750000D01*
G36*
X167519236Y-65685793D02*
X168595242Y-66404757D01*
X169314207Y-67480764D01*
X169575000Y-68791861D01*
X169575000Y-81958140D01*
X169523538Y-82216856D01*
X169400698Y-82400700D01*
X169216857Y-82523538D01*
X168917087Y-82583166D01*
X168534404Y-82659286D01*
X168489531Y-82677873D01*
X168381200Y-82722745D01*
X168381197Y-82722748D01*
X168056776Y-82939518D01*
X167939518Y-83056776D01*
X167722745Y-83381200D01*
X167701444Y-83432626D01*
X167659286Y-83534404D01*
X167583166Y-83917087D01*
X167583166Y-83958947D01*
X167575000Y-84000000D01*
X167575000Y-96000000D01*
X167583166Y-96041053D01*
X167583166Y-96082913D01*
X167659286Y-96465596D01*
X167659286Y-96465597D01*
X167722745Y-96618800D01*
X167939518Y-96943224D01*
X168056776Y-97060482D01*
X168381197Y-97277252D01*
X168381200Y-97277255D01*
X168465657Y-97312238D01*
X168534403Y-97340714D01*
X168534404Y-97340714D01*
X168917087Y-97416834D01*
X169216857Y-97476462D01*
X169400698Y-97599300D01*
X169523538Y-97783144D01*
X169575000Y-98041860D01*
X169575000Y-121208139D01*
X169314207Y-122519236D01*
X168595242Y-123595243D01*
X167519236Y-124314207D01*
X166208140Y-124575000D01*
X152041860Y-124575000D01*
X151783144Y-124523538D01*
X151599300Y-124400698D01*
X151476462Y-124216857D01*
X151425000Y-123958140D01*
X151425000Y-121641128D01*
X164274657Y-121641128D01*
X164574700Y-122367286D01*
X165129791Y-122923348D01*
X165855425Y-123224657D01*
X166641128Y-123225343D01*
X167367286Y-122925300D01*
X167923348Y-122370209D01*
X168224657Y-121644575D01*
X168225343Y-120858872D01*
X167925300Y-120132714D01*
X167370209Y-119576652D01*
X166644575Y-119275343D01*
X165858872Y-119274657D01*
X165132714Y-119574700D01*
X164576652Y-120129791D01*
X164275343Y-120855425D01*
X164274657Y-121641128D01*
X151425000Y-121641128D01*
X151425000Y-117000000D01*
X151416834Y-116958947D01*
X151416834Y-116917087D01*
X151340714Y-116534404D01*
X151277255Y-116381200D01*
X151277252Y-116381197D01*
X151060482Y-116056776D01*
X150943224Y-115939518D01*
X150618800Y-115722745D01*
X150465597Y-115659286D01*
X150465596Y-115659286D01*
X150082913Y-115583166D01*
X150041053Y-115583166D01*
X150000000Y-115575000D01*
X148000000Y-115575000D01*
X147958947Y-115583166D01*
X147917087Y-115583166D01*
X147706772Y-115625000D01*
X142293228Y-115625000D01*
X142082913Y-115583166D01*
X142041053Y-115583166D01*
X142000000Y-115575000D01*
X140000000Y-115575000D01*
X139958947Y-115583166D01*
X139917087Y-115583166D01*
X139534404Y-115659286D01*
X139489531Y-115677873D01*
X139381200Y-115722745D01*
X139381197Y-115722748D01*
X139056776Y-115939518D01*
X138939518Y-116056776D01*
X138722745Y-116381200D01*
X138676455Y-116492954D01*
X138659286Y-116534404D01*
X138583166Y-116917087D01*
X138583166Y-116958947D01*
X138575000Y-117000000D01*
X138575000Y-123958140D01*
X138523538Y-124216856D01*
X138400698Y-124400700D01*
X138216857Y-124523538D01*
X137958140Y-124575000D01*
X123791861Y-124575000D01*
X122480764Y-124314207D01*
X121404757Y-123595242D01*
X120685793Y-122519236D01*
X120511127Y-121641128D01*
X121774657Y-121641128D01*
X122074700Y-122367286D01*
X122629791Y-122923348D01*
X123355425Y-123224657D01*
X124141128Y-123225343D01*
X124867286Y-122925300D01*
X125423348Y-122370209D01*
X125724657Y-121644575D01*
X125725343Y-120858872D01*
X125425300Y-120132714D01*
X124870209Y-119576652D01*
X124144575Y-119275343D01*
X123358872Y-119274657D01*
X122632714Y-119574700D01*
X122076652Y-120129791D01*
X121775343Y-120855425D01*
X121774657Y-121641128D01*
X120511127Y-121641128D01*
X120425000Y-121208140D01*
X120425000Y-112633677D01*
X142824883Y-112633677D01*
X142927429Y-112881857D01*
X143117144Y-113071903D01*
X143365145Y-113174883D01*
X143633677Y-113175117D01*
X143881857Y-113072571D01*
X143954555Y-113000000D01*
X146795366Y-113000000D01*
X146867144Y-113071903D01*
X147115145Y-113174883D01*
X147383677Y-113175117D01*
X147631857Y-113072571D01*
X147821903Y-112882856D01*
X147924883Y-112634855D01*
X147925117Y-112366323D01*
X147822571Y-112118143D01*
X147632856Y-111928097D01*
X147384855Y-111825117D01*
X147116323Y-111824883D01*
X146868143Y-111927429D01*
X146795445Y-112000000D01*
X143954634Y-112000000D01*
X143882856Y-111928097D01*
X143634855Y-111825117D01*
X143366323Y-111824883D01*
X143118143Y-111927429D01*
X142928097Y-112117144D01*
X142825117Y-112365145D01*
X142824883Y-112633677D01*
X120425000Y-112633677D01*
X120425000Y-110400660D01*
X120895107Y-110400660D01*
X120896835Y-110412363D01*
X121149765Y-110939202D01*
X121585055Y-111329146D01*
X122136435Y-111522829D01*
X122371000Y-111379356D01*
X122371000Y-110169000D01*
X122629000Y-110169000D01*
X122629000Y-111379356D01*
X122863565Y-111522829D01*
X123414945Y-111329146D01*
X123850235Y-110939202D01*
X124103165Y-110412363D01*
X124104893Y-110400660D01*
X123984519Y-110169000D01*
X122629000Y-110169000D01*
X122371000Y-110169000D01*
X121015481Y-110169000D01*
X120895107Y-110400660D01*
X120425000Y-110400660D01*
X120425000Y-109679340D01*
X120895107Y-109679340D01*
X121015481Y-109911000D01*
X122371000Y-109911000D01*
X122371000Y-109891000D01*
X122629000Y-109891000D01*
X122629000Y-109911000D01*
X123984519Y-109911000D01*
X124104893Y-109679340D01*
X124103165Y-109667637D01*
X123966839Y-109383677D01*
X149824883Y-109383677D01*
X149927429Y-109631857D01*
X150117144Y-109821903D01*
X150365145Y-109924883D01*
X150467866Y-109924973D01*
X150530338Y-109987445D01*
X150530338Y-111015028D01*
X150458435Y-111086806D01*
X150355455Y-111334807D01*
X150355221Y-111603339D01*
X150457767Y-111851519D01*
X150647482Y-112041565D01*
X150895483Y-112144545D01*
X151164015Y-112144779D01*
X151412195Y-112042233D01*
X151602241Y-111852518D01*
X151705221Y-111604517D01*
X151705455Y-111335985D01*
X151602909Y-111087805D01*
X151530338Y-111015107D01*
X151530338Y-109780338D01*
X151492278Y-109588996D01*
X151383891Y-109426784D01*
X151175028Y-109217922D01*
X151175066Y-109174935D01*
X151217866Y-109174973D01*
X151750000Y-109707107D01*
X151750000Y-110295366D01*
X151678097Y-110367144D01*
X151575117Y-110615145D01*
X151574883Y-110883677D01*
X151677429Y-111131857D01*
X151867144Y-111321903D01*
X152115145Y-111424883D01*
X152383677Y-111425117D01*
X152631857Y-111322571D01*
X152821903Y-111132856D01*
X152924883Y-110884855D01*
X152925117Y-110616323D01*
X152822571Y-110368143D01*
X152750000Y-110295445D01*
X152750000Y-109954555D01*
X152867144Y-110071903D01*
X153115145Y-110174883D01*
X153383677Y-110175117D01*
X153631857Y-110072571D01*
X153821903Y-109882856D01*
X153924883Y-109634855D01*
X153925117Y-109366323D01*
X153822571Y-109118143D01*
X153632856Y-108928097D01*
X153384855Y-108825117D01*
X153282133Y-108825027D01*
X152490608Y-108033502D01*
X152490811Y-107800629D01*
X152388265Y-107552449D01*
X152198550Y-107362403D01*
X151950549Y-107259423D01*
X151682017Y-107259189D01*
X151433837Y-107361735D01*
X151243791Y-107551450D01*
X151140811Y-107799451D01*
X151140789Y-107824904D01*
X151116323Y-107824883D01*
X150868143Y-107927429D01*
X150678097Y-108117144D01*
X150575117Y-108365145D01*
X150574934Y-108575065D01*
X150366323Y-108574883D01*
X150118143Y-108677429D01*
X149928097Y-108867144D01*
X149825117Y-109115145D01*
X149824883Y-109383677D01*
X123966839Y-109383677D01*
X123850235Y-109140798D01*
X123414945Y-108750854D01*
X123126834Y-108649650D01*
X123153643Y-108644317D01*
X123555473Y-108375822D01*
X123823968Y-107973992D01*
X123918251Y-107500000D01*
X123823968Y-107026008D01*
X123728866Y-106883677D01*
X151824883Y-106883677D01*
X151927429Y-107131857D01*
X152117144Y-107321903D01*
X152365145Y-107424883D01*
X152633677Y-107425117D01*
X152881857Y-107322571D01*
X152954555Y-107250000D01*
X157045366Y-107250000D01*
X157117144Y-107321903D01*
X157365145Y-107424883D01*
X157633677Y-107425117D01*
X157881857Y-107322571D01*
X158071903Y-107132856D01*
X158174883Y-106884855D01*
X158175117Y-106616323D01*
X158072571Y-106368143D01*
X157882856Y-106178097D01*
X157634855Y-106075117D01*
X157366323Y-106074883D01*
X157118143Y-106177429D01*
X157045445Y-106250000D01*
X152954634Y-106250000D01*
X152882856Y-106178097D01*
X152634855Y-106075117D01*
X152366323Y-106074883D01*
X152118143Y-106177429D01*
X151928097Y-106367144D01*
X151825117Y-106615145D01*
X151824883Y-106883677D01*
X123728866Y-106883677D01*
X123555473Y-106624178D01*
X123153643Y-106355683D01*
X122679651Y-106261400D01*
X122320349Y-106261400D01*
X121846357Y-106355683D01*
X121444527Y-106624178D01*
X121176032Y-107026008D01*
X121081749Y-107500000D01*
X121176032Y-107973992D01*
X121444527Y-108375822D01*
X121846357Y-108644317D01*
X121873166Y-108649650D01*
X121585055Y-108750854D01*
X121149765Y-109140798D01*
X120896835Y-109667637D01*
X120895107Y-109679340D01*
X120425000Y-109679340D01*
X120425000Y-102420000D01*
X121081749Y-102420000D01*
X121176032Y-102893992D01*
X121444527Y-103295822D01*
X121846357Y-103564317D01*
X122320349Y-103658600D01*
X122679651Y-103658600D01*
X123153643Y-103564317D01*
X123555473Y-103295822D01*
X123806590Y-102920000D01*
X129233762Y-102920000D01*
X129346803Y-102942485D01*
X142911824Y-102942485D01*
X141394309Y-104460000D01*
X123806590Y-104460000D01*
X123555473Y-104084178D01*
X123153643Y-103815683D01*
X122679651Y-103721400D01*
X122320349Y-103721400D01*
X121846357Y-103815683D01*
X121444527Y-104084178D01*
X121176032Y-104486008D01*
X121081749Y-104960000D01*
X121176032Y-105433992D01*
X121444527Y-105835822D01*
X121846357Y-106104317D01*
X122320349Y-106198600D01*
X122679651Y-106198600D01*
X123153643Y-106104317D01*
X123555473Y-105835822D01*
X123806590Y-105460000D01*
X141601415Y-105460000D01*
X141698644Y-105440660D01*
X165895107Y-105440660D01*
X165896835Y-105452363D01*
X166149765Y-105979202D01*
X166585055Y-106369146D01*
X167136435Y-106562829D01*
X167371000Y-106419356D01*
X167371000Y-105209000D01*
X167629000Y-105209000D01*
X167629000Y-106419356D01*
X167863565Y-106562829D01*
X168414945Y-106369146D01*
X168850235Y-105979202D01*
X169103165Y-105452363D01*
X169104893Y-105440660D01*
X168984519Y-105209000D01*
X167629000Y-105209000D01*
X167371000Y-105209000D01*
X166015481Y-105209000D01*
X165895107Y-105440660D01*
X141698644Y-105440660D01*
X141792757Y-105421940D01*
X141954968Y-105313553D01*
X145500000Y-101768521D01*
X145500000Y-103545366D01*
X145428097Y-103617144D01*
X145325117Y-103865145D01*
X145324883Y-104133677D01*
X145427429Y-104381857D01*
X145617144Y-104571903D01*
X145865145Y-104674883D01*
X146133677Y-104675117D01*
X146381857Y-104572571D01*
X146571903Y-104382856D01*
X146674883Y-104134855D01*
X146675117Y-103866323D01*
X146651399Y-103808922D01*
X146758687Y-103809015D01*
X147006867Y-103706469D01*
X147196913Y-103516754D01*
X147299893Y-103268753D01*
X147300127Y-103000221D01*
X147197581Y-102752041D01*
X147125010Y-102679343D01*
X147125010Y-102293439D01*
X147225261Y-102335067D01*
X147493793Y-102335301D01*
X147741973Y-102232755D01*
X147932019Y-102043040D01*
X148034999Y-101795039D01*
X148035089Y-101692317D01*
X149093729Y-100633677D01*
X151074883Y-100633677D01*
X151177429Y-100881857D01*
X151367144Y-101071903D01*
X151615145Y-101174883D01*
X151883677Y-101175117D01*
X152131857Y-101072571D01*
X152204555Y-101000000D01*
X153250000Y-101000000D01*
X153441342Y-100961940D01*
X153603553Y-100853553D01*
X154207107Y-100250000D01*
X163236894Y-100250000D01*
X165880447Y-102893554D01*
X166038322Y-102999043D01*
X166042658Y-103001940D01*
X166187188Y-103030689D01*
X166444527Y-103415822D01*
X166846357Y-103684317D01*
X166873166Y-103689650D01*
X166585055Y-103790854D01*
X166149765Y-104180798D01*
X165896835Y-104707637D01*
X165895107Y-104719340D01*
X166015481Y-104951000D01*
X167371000Y-104951000D01*
X167371000Y-104931000D01*
X167629000Y-104931000D01*
X167629000Y-104951000D01*
X168984519Y-104951000D01*
X169104893Y-104719340D01*
X169103165Y-104707637D01*
X168850235Y-104180798D01*
X168414945Y-103790854D01*
X168126834Y-103689650D01*
X168153643Y-103684317D01*
X168555473Y-103415822D01*
X168823968Y-103013992D01*
X168918251Y-102540000D01*
X168823968Y-102066008D01*
X168555473Y-101664178D01*
X168153643Y-101395683D01*
X167679651Y-101301400D01*
X167320349Y-101301400D01*
X166846357Y-101395683D01*
X166444527Y-101664178D01*
X166292624Y-101891517D01*
X163951095Y-99549989D01*
X165076883Y-99549989D01*
X165880446Y-100353553D01*
X166042658Y-100461940D01*
X166101654Y-100473675D01*
X166101654Y-100863600D01*
X166127802Y-101002566D01*
X166209931Y-101130199D01*
X166335246Y-101215823D01*
X166484000Y-101245946D01*
X168516000Y-101245946D01*
X168654966Y-101219798D01*
X168782599Y-101137669D01*
X168868223Y-101012354D01*
X168898346Y-100863600D01*
X168898346Y-99136400D01*
X168872198Y-98997434D01*
X168790069Y-98869801D01*
X168664754Y-98784177D01*
X168516000Y-98754054D01*
X166484000Y-98754054D01*
X166345034Y-98780202D01*
X166217401Y-98862331D01*
X166131777Y-98987646D01*
X166101654Y-99136400D01*
X166101654Y-99160548D01*
X165637542Y-98696436D01*
X165475331Y-98588049D01*
X165283989Y-98549989D01*
X153325001Y-98549989D01*
X153133659Y-98588049D01*
X152971448Y-98696436D01*
X152467922Y-99199962D01*
X152366323Y-99199873D01*
X152118143Y-99302419D01*
X151928097Y-99492134D01*
X151825117Y-99740135D01*
X151825043Y-99825065D01*
X151616323Y-99824883D01*
X151368143Y-99927429D01*
X151178097Y-100117144D01*
X151075117Y-100365145D01*
X151074883Y-100633677D01*
X149093729Y-100633677D01*
X151577333Y-98150074D01*
X158584160Y-98150074D01*
X158775502Y-98112014D01*
X158937713Y-98003627D01*
X161966327Y-94975012D01*
X163344988Y-94975012D01*
X163536330Y-94936952D01*
X163698541Y-94828565D01*
X164444761Y-94082346D01*
X165120000Y-94082346D01*
X165258966Y-94056198D01*
X165386599Y-93974069D01*
X165472223Y-93848754D01*
X165502346Y-93700000D01*
X165502346Y-90900000D01*
X165476198Y-90761034D01*
X165394069Y-90633401D01*
X165268754Y-90547777D01*
X165120000Y-90517654D01*
X164120000Y-90517654D01*
X163981034Y-90543802D01*
X163853401Y-90625931D01*
X163767777Y-90751246D01*
X163737654Y-90900000D01*
X163737654Y-93375239D01*
X163405001Y-93707893D01*
X163405001Y-91072105D01*
X164973554Y-89503553D01*
X165081940Y-89341342D01*
X165093675Y-89282346D01*
X165120000Y-89282346D01*
X165258966Y-89256198D01*
X165386599Y-89174069D01*
X165472223Y-89048754D01*
X165502346Y-88900000D01*
X165502346Y-86100000D01*
X165476198Y-85961034D01*
X165394069Y-85833401D01*
X165268754Y-85747777D01*
X165120000Y-85717654D01*
X164120000Y-85717654D01*
X163981034Y-85743802D01*
X163853401Y-85825931D01*
X163767777Y-85951246D01*
X163737654Y-86100000D01*
X163737654Y-88900000D01*
X163763802Y-89038966D01*
X163845931Y-89166599D01*
X163875851Y-89187042D01*
X162551448Y-90511446D01*
X162547300Y-90517654D01*
X161580000Y-90517654D01*
X161441034Y-90543802D01*
X161313401Y-90625931D01*
X161227777Y-90751246D01*
X161197654Y-90900000D01*
X161197654Y-93056652D01*
X161000000Y-93254306D01*
X161000000Y-90937106D01*
X162433553Y-89503554D01*
X162541940Y-89341342D01*
X162553675Y-89282346D01*
X162580000Y-89282346D01*
X162718966Y-89256198D01*
X162846599Y-89174069D01*
X162932223Y-89048754D01*
X162962346Y-88900000D01*
X162962346Y-86100000D01*
X162936198Y-85961034D01*
X162854069Y-85833401D01*
X162728754Y-85747777D01*
X162580000Y-85717654D01*
X161580000Y-85717654D01*
X161441034Y-85743802D01*
X161313401Y-85825931D01*
X161227777Y-85951246D01*
X161197654Y-86100000D01*
X161197654Y-88900000D01*
X161223802Y-89038966D01*
X161305931Y-89166599D01*
X161335851Y-89187042D01*
X160146447Y-90376447D01*
X160050653Y-90519811D01*
X160040000Y-90517654D01*
X159214999Y-90517654D01*
X159214999Y-90182107D01*
X159893554Y-89503553D01*
X159979617Y-89374750D01*
X160001940Y-89341342D01*
X160013675Y-89282346D01*
X160040000Y-89282346D01*
X160178966Y-89256198D01*
X160306599Y-89174069D01*
X160392223Y-89048754D01*
X160422346Y-88900000D01*
X160422346Y-86100000D01*
X160396198Y-85961034D01*
X160314069Y-85833401D01*
X160188754Y-85747777D01*
X160040000Y-85717654D01*
X159040000Y-85717654D01*
X158901034Y-85743802D01*
X158773401Y-85825931D01*
X158687777Y-85951246D01*
X158657654Y-86100000D01*
X158657654Y-88900000D01*
X158683802Y-89038966D01*
X158765931Y-89166599D01*
X158795851Y-89187042D01*
X158361446Y-89621448D01*
X158253059Y-89783659D01*
X158214999Y-89975001D01*
X158214999Y-92862896D01*
X157882346Y-93195549D01*
X157882346Y-90900000D01*
X157856198Y-90761034D01*
X157774069Y-90633401D01*
X157648754Y-90547777D01*
X157500000Y-90517654D01*
X156500000Y-90517654D01*
X156500000Y-90357106D01*
X157353554Y-89503553D01*
X157439617Y-89374750D01*
X157461940Y-89341342D01*
X157473675Y-89282346D01*
X157500000Y-89282346D01*
X157638966Y-89256198D01*
X157766599Y-89174069D01*
X157852223Y-89048754D01*
X157882346Y-88900000D01*
X157882346Y-86100000D01*
X157856198Y-85961034D01*
X157774069Y-85833401D01*
X157648754Y-85747777D01*
X157500000Y-85717654D01*
X156500000Y-85717654D01*
X156361034Y-85743802D01*
X156233401Y-85825931D01*
X156147777Y-85951246D01*
X156117654Y-86100000D01*
X156117654Y-88900000D01*
X156143802Y-89038966D01*
X156225931Y-89166599D01*
X156255851Y-89187042D01*
X155646447Y-89796447D01*
X155538060Y-89958658D01*
X155500000Y-90150000D01*
X155500000Y-93292893D01*
X155342346Y-93450548D01*
X155342346Y-90900000D01*
X155316198Y-90761034D01*
X155234069Y-90633401D01*
X155108754Y-90547777D01*
X154960000Y-90517654D01*
X153960000Y-90517654D01*
X153821034Y-90543802D01*
X153693401Y-90625931D01*
X153607777Y-90751246D01*
X153582717Y-90875000D01*
X152754985Y-90875000D01*
X152634855Y-90825117D01*
X152366323Y-90824883D01*
X152245031Y-90875000D01*
X143750000Y-90875000D01*
X143510822Y-90922575D01*
X143308058Y-91058058D01*
X143108057Y-91258059D01*
X143108055Y-91258062D01*
X142991117Y-91375000D01*
X138504985Y-91375000D01*
X138384855Y-91325117D01*
X138116323Y-91324883D01*
X137868143Y-91427429D01*
X137678097Y-91617144D01*
X137635568Y-91719564D01*
X137355012Y-91439008D01*
X137355012Y-86290010D01*
X137316952Y-86098668D01*
X137273538Y-86033696D01*
X137208566Y-85936457D01*
X136693554Y-85421446D01*
X136531343Y-85313059D01*
X136340001Y-85274999D01*
X133865001Y-85274999D01*
X133673659Y-85313059D01*
X133608687Y-85356473D01*
X133511448Y-85421445D01*
X133215239Y-85717654D01*
X132540000Y-85717654D01*
X132401034Y-85743802D01*
X132273401Y-85825931D01*
X132187777Y-85951246D01*
X132157654Y-86100000D01*
X132157654Y-88900000D01*
X132183802Y-89038966D01*
X132265931Y-89166599D01*
X132391246Y-89252223D01*
X132540000Y-89282346D01*
X133540000Y-89282346D01*
X133678966Y-89256198D01*
X133806599Y-89174069D01*
X133892223Y-89048754D01*
X133922346Y-88900000D01*
X133922346Y-86424761D01*
X134072108Y-86274999D01*
X134697654Y-86274999D01*
X134697654Y-88900000D01*
X134723802Y-89038966D01*
X134805931Y-89166599D01*
X134931246Y-89252223D01*
X135080000Y-89282346D01*
X135106325Y-89282346D01*
X135118060Y-89341342D01*
X135226447Y-89503553D01*
X135905001Y-90182108D01*
X135905001Y-90517654D01*
X135080000Y-90517654D01*
X134941034Y-90543802D01*
X134813401Y-90625931D01*
X134727777Y-90751246D01*
X134697654Y-90900000D01*
X134697654Y-93700000D01*
X134723802Y-93838966D01*
X134805931Y-93966599D01*
X134931246Y-94052223D01*
X135080000Y-94082346D01*
X135755240Y-94082346D01*
X136297903Y-94625010D01*
X135172117Y-94625010D01*
X133922346Y-93375240D01*
X133922346Y-90900000D01*
X133896198Y-90761034D01*
X133814069Y-90633401D01*
X133688754Y-90547777D01*
X133540000Y-90517654D01*
X132540000Y-90517654D01*
X132401034Y-90543802D01*
X132273401Y-90625931D01*
X132187777Y-90751246D01*
X132157654Y-90900000D01*
X132157654Y-93700000D01*
X132183802Y-93838966D01*
X132265931Y-93966599D01*
X132391246Y-94052223D01*
X132540000Y-94082346D01*
X133215240Y-94082346D01*
X134558212Y-95425319D01*
X133432425Y-95425319D01*
X131382346Y-93375240D01*
X131382346Y-90900000D01*
X131356198Y-90761034D01*
X131274069Y-90633401D01*
X131148754Y-90547777D01*
X131000000Y-90517654D01*
X130174999Y-90517654D01*
X130174999Y-90182107D01*
X130853554Y-89503553D01*
X130939617Y-89374750D01*
X130961940Y-89341342D01*
X130973675Y-89282346D01*
X131000000Y-89282346D01*
X131138966Y-89256198D01*
X131266599Y-89174069D01*
X131352223Y-89048754D01*
X131382346Y-88900000D01*
X131382346Y-86100000D01*
X131356198Y-85961034D01*
X131274069Y-85833401D01*
X131148754Y-85747777D01*
X131000000Y-85717654D01*
X130000000Y-85717654D01*
X129861034Y-85743802D01*
X129733401Y-85825931D01*
X129647777Y-85951246D01*
X129617654Y-86100000D01*
X129617654Y-88900000D01*
X129643802Y-89038966D01*
X129725931Y-89166599D01*
X129755851Y-89187042D01*
X129321446Y-89621448D01*
X129248190Y-89731083D01*
X128705045Y-89187939D01*
X128726599Y-89174069D01*
X128812223Y-89048754D01*
X128842346Y-88900000D01*
X128842346Y-86100000D01*
X128816198Y-85961034D01*
X128734069Y-85833401D01*
X128608754Y-85747777D01*
X128460000Y-85717654D01*
X127460000Y-85717654D01*
X127321034Y-85743802D01*
X127193401Y-85825931D01*
X127107777Y-85951246D01*
X127077654Y-86100000D01*
X127077654Y-88900000D01*
X127103802Y-89038966D01*
X127185931Y-89166599D01*
X127311246Y-89252223D01*
X127460000Y-89282346D01*
X127486325Y-89282346D01*
X127498060Y-89341342D01*
X127606447Y-89503553D01*
X128724988Y-90622095D01*
X128724988Y-90627196D01*
X128608754Y-90547777D01*
X128460000Y-90517654D01*
X127460000Y-90517654D01*
X127321034Y-90543802D01*
X127193401Y-90625931D01*
X127107777Y-90751246D01*
X127077654Y-90900000D01*
X127077654Y-93375240D01*
X126856447Y-93596447D01*
X126748060Y-93758658D01*
X126710000Y-93950000D01*
X126710000Y-95982819D01*
X126740242Y-96134855D01*
X126748060Y-96174161D01*
X126856447Y-96336372D01*
X130664009Y-100143935D01*
X130511025Y-100246157D01*
X129614727Y-101142455D01*
X129513128Y-101142366D01*
X129264948Y-101244912D01*
X129074902Y-101434627D01*
X128971922Y-101682628D01*
X128971715Y-101920000D01*
X123806590Y-101920000D01*
X123555473Y-101544178D01*
X123153643Y-101275683D01*
X122679651Y-101181400D01*
X122320349Y-101181400D01*
X121846357Y-101275683D01*
X121444527Y-101544178D01*
X121176032Y-101946008D01*
X121081749Y-102420000D01*
X120425000Y-102420000D01*
X120425000Y-99016400D01*
X121101654Y-99016400D01*
X121101654Y-100743600D01*
X121127802Y-100882566D01*
X121209931Y-101010199D01*
X121335246Y-101095823D01*
X121484000Y-101125946D01*
X123516000Y-101125946D01*
X123654966Y-101099798D01*
X123782599Y-101017669D01*
X123868223Y-100892354D01*
X123898346Y-100743600D01*
X123898346Y-99016400D01*
X123872198Y-98877434D01*
X123790069Y-98749801D01*
X123664754Y-98664177D01*
X123516000Y-98634054D01*
X121484000Y-98634054D01*
X121345034Y-98660202D01*
X121217401Y-98742331D01*
X121131777Y-98867646D01*
X121101654Y-99016400D01*
X120425000Y-99016400D01*
X120425000Y-98041860D01*
X120476462Y-97783143D01*
X120599300Y-97599302D01*
X120783144Y-97476462D01*
X121082913Y-97416834D01*
X121465596Y-97340714D01*
X121465597Y-97340714D01*
X121618800Y-97277255D01*
X121943224Y-97060482D01*
X122060482Y-96943224D01*
X122277252Y-96618803D01*
X122277255Y-96618800D01*
X122323545Y-96507046D01*
X122340714Y-96465597D01*
X122340714Y-96465596D01*
X122416834Y-96082913D01*
X122416834Y-96041053D01*
X122425000Y-96000000D01*
X122425000Y-90900000D01*
X124537654Y-90900000D01*
X124537654Y-93700000D01*
X124563802Y-93838966D01*
X124645931Y-93966599D01*
X124771246Y-94052223D01*
X124920000Y-94082346D01*
X125920000Y-94082346D01*
X126058966Y-94056198D01*
X126186599Y-93974069D01*
X126272223Y-93848754D01*
X126302346Y-93700000D01*
X126302346Y-91081538D01*
X126761639Y-90622244D01*
X126881857Y-90572571D01*
X127071903Y-90382856D01*
X127174883Y-90134855D01*
X127175117Y-89866323D01*
X127072571Y-89618143D01*
X126882856Y-89428097D01*
X126634855Y-89325117D01*
X126390293Y-89324904D01*
X126456631Y-89258566D01*
X126553000Y-89025912D01*
X126553000Y-87787250D01*
X126394750Y-87629000D01*
X125549000Y-87629000D01*
X125549000Y-89374750D01*
X125707250Y-89533000D01*
X126012388Y-89533000D01*
X125928097Y-89617144D01*
X125877768Y-89738349D01*
X125098462Y-90517654D01*
X124920000Y-90517654D01*
X124781034Y-90543802D01*
X124653401Y-90625931D01*
X124567777Y-90751246D01*
X124537654Y-90900000D01*
X122425000Y-90900000D01*
X122425000Y-87787250D01*
X124287000Y-87787250D01*
X124287000Y-89025912D01*
X124383369Y-89258566D01*
X124561435Y-89436632D01*
X124794089Y-89533000D01*
X125132750Y-89533000D01*
X125291000Y-89374750D01*
X125291000Y-87629000D01*
X124445250Y-87629000D01*
X124287000Y-87787250D01*
X122425000Y-87787250D01*
X122425000Y-85974088D01*
X124287000Y-85974088D01*
X124287000Y-87212750D01*
X124445250Y-87371000D01*
X125291000Y-87371000D01*
X125291000Y-85625250D01*
X125549000Y-85625250D01*
X125549000Y-87371000D01*
X126394750Y-87371000D01*
X126553000Y-87212750D01*
X126553000Y-85974088D01*
X126456631Y-85741434D01*
X126278565Y-85563368D01*
X126045911Y-85467000D01*
X125707250Y-85467000D01*
X125549000Y-85625250D01*
X125291000Y-85625250D01*
X125132750Y-85467000D01*
X124794089Y-85467000D01*
X124561435Y-85563368D01*
X124383369Y-85741434D01*
X124287000Y-85974088D01*
X122425000Y-85974088D01*
X122425000Y-84125000D01*
X139875000Y-84125000D01*
X139875000Y-88750000D01*
X139884848Y-88798632D01*
X139912841Y-88839601D01*
X139954568Y-88866451D01*
X140000000Y-88875000D01*
X150000000Y-88875000D01*
X150048632Y-88865152D01*
X150089601Y-88837159D01*
X150116451Y-88795432D01*
X150125000Y-88750000D01*
X150125000Y-87787250D01*
X153327000Y-87787250D01*
X153327000Y-89025912D01*
X153423369Y-89258566D01*
X153601435Y-89436632D01*
X153834089Y-89533000D01*
X154172750Y-89533000D01*
X154331000Y-89374750D01*
X154331000Y-87629000D01*
X154589000Y-87629000D01*
X154589000Y-89374750D01*
X154747250Y-89533000D01*
X155085911Y-89533000D01*
X155318565Y-89436632D01*
X155496631Y-89258566D01*
X155593000Y-89025912D01*
X155593000Y-87787250D01*
X155434750Y-87629000D01*
X154589000Y-87629000D01*
X154331000Y-87629000D01*
X153485250Y-87629000D01*
X153327000Y-87787250D01*
X150125000Y-87787250D01*
X150125000Y-85974088D01*
X153327000Y-85974088D01*
X153327000Y-87212750D01*
X153485250Y-87371000D01*
X154331000Y-87371000D01*
X154331000Y-85625250D01*
X154589000Y-85625250D01*
X154589000Y-87371000D01*
X155434750Y-87371000D01*
X155593000Y-87212750D01*
X155593000Y-85974088D01*
X155496631Y-85741434D01*
X155318565Y-85563368D01*
X155085911Y-85467000D01*
X154747250Y-85467000D01*
X154589000Y-85625250D01*
X154331000Y-85625250D01*
X154172750Y-85467000D01*
X153834089Y-85467000D01*
X153601435Y-85563368D01*
X153423369Y-85741434D01*
X153327000Y-85974088D01*
X150125000Y-85974088D01*
X150125000Y-84125000D01*
X160000000Y-84125000D01*
X160048632Y-84115152D01*
X160089601Y-84087159D01*
X160116451Y-84045432D01*
X160125000Y-84000000D01*
X160125000Y-69141128D01*
X164274657Y-69141128D01*
X164574700Y-69867286D01*
X165129791Y-70423348D01*
X165855425Y-70724657D01*
X166641128Y-70725343D01*
X167367286Y-70425300D01*
X167923348Y-69870209D01*
X168224657Y-69144575D01*
X168225343Y-68358872D01*
X167925300Y-67632714D01*
X167370209Y-67076652D01*
X166644575Y-66775343D01*
X165858872Y-66774657D01*
X165132714Y-67074700D01*
X164576652Y-67629791D01*
X164275343Y-68355425D01*
X164274657Y-69141128D01*
X160125000Y-69141128D01*
X160125000Y-65425000D01*
X166208140Y-65425000D01*
X167519236Y-65685793D01*
X167519236Y-65685793D01*
G37*
X167519236Y-65685793D02*
X168595242Y-66404757D01*
X169314207Y-67480764D01*
X169575000Y-68791861D01*
X169575000Y-81958140D01*
X169523538Y-82216856D01*
X169400698Y-82400700D01*
X169216857Y-82523538D01*
X168917087Y-82583166D01*
X168534404Y-82659286D01*
X168489531Y-82677873D01*
X168381200Y-82722745D01*
X168381197Y-82722748D01*
X168056776Y-82939518D01*
X167939518Y-83056776D01*
X167722745Y-83381200D01*
X167701444Y-83432626D01*
X167659286Y-83534404D01*
X167583166Y-83917087D01*
X167583166Y-83958947D01*
X167575000Y-84000000D01*
X167575000Y-96000000D01*
X167583166Y-96041053D01*
X167583166Y-96082913D01*
X167659286Y-96465596D01*
X167659286Y-96465597D01*
X167722745Y-96618800D01*
X167939518Y-96943224D01*
X168056776Y-97060482D01*
X168381197Y-97277252D01*
X168381200Y-97277255D01*
X168465657Y-97312238D01*
X168534403Y-97340714D01*
X168534404Y-97340714D01*
X168917087Y-97416834D01*
X169216857Y-97476462D01*
X169400698Y-97599300D01*
X169523538Y-97783144D01*
X169575000Y-98041860D01*
X169575000Y-121208139D01*
X169314207Y-122519236D01*
X168595242Y-123595243D01*
X167519236Y-124314207D01*
X166208140Y-124575000D01*
X152041860Y-124575000D01*
X151783144Y-124523538D01*
X151599300Y-124400698D01*
X151476462Y-124216857D01*
X151425000Y-123958140D01*
X151425000Y-121641128D01*
X164274657Y-121641128D01*
X164574700Y-122367286D01*
X165129791Y-122923348D01*
X165855425Y-123224657D01*
X166641128Y-123225343D01*
X167367286Y-122925300D01*
X167923348Y-122370209D01*
X168224657Y-121644575D01*
X168225343Y-120858872D01*
X167925300Y-120132714D01*
X167370209Y-119576652D01*
X166644575Y-119275343D01*
X165858872Y-119274657D01*
X165132714Y-119574700D01*
X164576652Y-120129791D01*
X164275343Y-120855425D01*
X164274657Y-121641128D01*
X151425000Y-121641128D01*
X151425000Y-117000000D01*
X151416834Y-116958947D01*
X151416834Y-116917087D01*
X151340714Y-116534404D01*
X151277255Y-116381200D01*
X151277252Y-116381197D01*
X151060482Y-116056776D01*
X150943224Y-115939518D01*
X150618800Y-115722745D01*
X150465597Y-115659286D01*
X150465596Y-115659286D01*
X150082913Y-115583166D01*
X150041053Y-115583166D01*
X150000000Y-115575000D01*
X148000000Y-115575000D01*
X147958947Y-115583166D01*
X147917087Y-115583166D01*
X147706772Y-115625000D01*
X142293228Y-115625000D01*
X142082913Y-115583166D01*
X142041053Y-115583166D01*
X142000000Y-115575000D01*
X140000000Y-115575000D01*
X139958947Y-115583166D01*
X139917087Y-115583166D01*
X139534404Y-115659286D01*
X139489531Y-115677873D01*
X139381200Y-115722745D01*
X139381197Y-115722748D01*
X139056776Y-115939518D01*
X138939518Y-116056776D01*
X138722745Y-116381200D01*
X138676455Y-116492954D01*
X138659286Y-116534404D01*
X138583166Y-116917087D01*
X138583166Y-116958947D01*
X138575000Y-117000000D01*
X138575000Y-123958140D01*
X138523538Y-124216856D01*
X138400698Y-124400700D01*
X138216857Y-124523538D01*
X137958140Y-124575000D01*
X123791861Y-124575000D01*
X122480764Y-124314207D01*
X121404757Y-123595242D01*
X120685793Y-122519236D01*
X120511127Y-121641128D01*
X121774657Y-121641128D01*
X122074700Y-122367286D01*
X122629791Y-122923348D01*
X123355425Y-123224657D01*
X124141128Y-123225343D01*
X124867286Y-122925300D01*
X125423348Y-122370209D01*
X125724657Y-121644575D01*
X125725343Y-120858872D01*
X125425300Y-120132714D01*
X124870209Y-119576652D01*
X124144575Y-119275343D01*
X123358872Y-119274657D01*
X122632714Y-119574700D01*
X122076652Y-120129791D01*
X121775343Y-120855425D01*
X121774657Y-121641128D01*
X120511127Y-121641128D01*
X120425000Y-121208140D01*
X120425000Y-112633677D01*
X142824883Y-112633677D01*
X142927429Y-112881857D01*
X143117144Y-113071903D01*
X143365145Y-113174883D01*
X143633677Y-113175117D01*
X143881857Y-113072571D01*
X143954555Y-113000000D01*
X146795366Y-113000000D01*
X146867144Y-113071903D01*
X147115145Y-113174883D01*
X147383677Y-113175117D01*
X147631857Y-113072571D01*
X147821903Y-112882856D01*
X147924883Y-112634855D01*
X147925117Y-112366323D01*
X147822571Y-112118143D01*
X147632856Y-111928097D01*
X147384855Y-111825117D01*
X147116323Y-111824883D01*
X146868143Y-111927429D01*
X146795445Y-112000000D01*
X143954634Y-112000000D01*
X143882856Y-111928097D01*
X143634855Y-111825117D01*
X143366323Y-111824883D01*
X143118143Y-111927429D01*
X142928097Y-112117144D01*
X142825117Y-112365145D01*
X142824883Y-112633677D01*
X120425000Y-112633677D01*
X120425000Y-110400660D01*
X120895107Y-110400660D01*
X120896835Y-110412363D01*
X121149765Y-110939202D01*
X121585055Y-111329146D01*
X122136435Y-111522829D01*
X122371000Y-111379356D01*
X122371000Y-110169000D01*
X122629000Y-110169000D01*
X122629000Y-111379356D01*
X122863565Y-111522829D01*
X123414945Y-111329146D01*
X123850235Y-110939202D01*
X124103165Y-110412363D01*
X124104893Y-110400660D01*
X123984519Y-110169000D01*
X122629000Y-110169000D01*
X122371000Y-110169000D01*
X121015481Y-110169000D01*
X120895107Y-110400660D01*
X120425000Y-110400660D01*
X120425000Y-109679340D01*
X120895107Y-109679340D01*
X121015481Y-109911000D01*
X122371000Y-109911000D01*
X122371000Y-109891000D01*
X122629000Y-109891000D01*
X122629000Y-109911000D01*
X123984519Y-109911000D01*
X124104893Y-109679340D01*
X124103165Y-109667637D01*
X123966839Y-109383677D01*
X149824883Y-109383677D01*
X149927429Y-109631857D01*
X150117144Y-109821903D01*
X150365145Y-109924883D01*
X150467866Y-109924973D01*
X150530338Y-109987445D01*
X150530338Y-111015028D01*
X150458435Y-111086806D01*
X150355455Y-111334807D01*
X150355221Y-111603339D01*
X150457767Y-111851519D01*
X150647482Y-112041565D01*
X150895483Y-112144545D01*
X151164015Y-112144779D01*
X151412195Y-112042233D01*
X151602241Y-111852518D01*
X151705221Y-111604517D01*
X151705455Y-111335985D01*
X151602909Y-111087805D01*
X151530338Y-111015107D01*
X151530338Y-109780338D01*
X151492278Y-109588996D01*
X151383891Y-109426784D01*
X151175028Y-109217922D01*
X151175066Y-109174935D01*
X151217866Y-109174973D01*
X151750000Y-109707107D01*
X151750000Y-110295366D01*
X151678097Y-110367144D01*
X151575117Y-110615145D01*
X151574883Y-110883677D01*
X151677429Y-111131857D01*
X151867144Y-111321903D01*
X152115145Y-111424883D01*
X152383677Y-111425117D01*
X152631857Y-111322571D01*
X152821903Y-111132856D01*
X152924883Y-110884855D01*
X152925117Y-110616323D01*
X152822571Y-110368143D01*
X152750000Y-110295445D01*
X152750000Y-109954555D01*
X152867144Y-110071903D01*
X153115145Y-110174883D01*
X153383677Y-110175117D01*
X153631857Y-110072571D01*
X153821903Y-109882856D01*
X153924883Y-109634855D01*
X153925117Y-109366323D01*
X153822571Y-109118143D01*
X153632856Y-108928097D01*
X153384855Y-108825117D01*
X153282133Y-108825027D01*
X152490608Y-108033502D01*
X152490811Y-107800629D01*
X152388265Y-107552449D01*
X152198550Y-107362403D01*
X151950549Y-107259423D01*
X151682017Y-107259189D01*
X151433837Y-107361735D01*
X151243791Y-107551450D01*
X151140811Y-107799451D01*
X151140789Y-107824904D01*
X151116323Y-107824883D01*
X150868143Y-107927429D01*
X150678097Y-108117144D01*
X150575117Y-108365145D01*
X150574934Y-108575065D01*
X150366323Y-108574883D01*
X150118143Y-108677429D01*
X149928097Y-108867144D01*
X149825117Y-109115145D01*
X149824883Y-109383677D01*
X123966839Y-109383677D01*
X123850235Y-109140798D01*
X123414945Y-108750854D01*
X123126834Y-108649650D01*
X123153643Y-108644317D01*
X123555473Y-108375822D01*
X123823968Y-107973992D01*
X123918251Y-107500000D01*
X123823968Y-107026008D01*
X123728866Y-106883677D01*
X151824883Y-106883677D01*
X151927429Y-107131857D01*
X152117144Y-107321903D01*
X152365145Y-107424883D01*
X152633677Y-107425117D01*
X152881857Y-107322571D01*
X152954555Y-107250000D01*
X157045366Y-107250000D01*
X157117144Y-107321903D01*
X157365145Y-107424883D01*
X157633677Y-107425117D01*
X157881857Y-107322571D01*
X158071903Y-107132856D01*
X158174883Y-106884855D01*
X158175117Y-106616323D01*
X158072571Y-106368143D01*
X157882856Y-106178097D01*
X157634855Y-106075117D01*
X157366323Y-106074883D01*
X157118143Y-106177429D01*
X157045445Y-106250000D01*
X152954634Y-106250000D01*
X152882856Y-106178097D01*
X152634855Y-106075117D01*
X152366323Y-106074883D01*
X152118143Y-106177429D01*
X151928097Y-106367144D01*
X151825117Y-106615145D01*
X151824883Y-106883677D01*
X123728866Y-106883677D01*
X123555473Y-106624178D01*
X123153643Y-106355683D01*
X122679651Y-106261400D01*
X122320349Y-106261400D01*
X121846357Y-106355683D01*
X121444527Y-106624178D01*
X121176032Y-107026008D01*
X121081749Y-107500000D01*
X121176032Y-107973992D01*
X121444527Y-108375822D01*
X121846357Y-108644317D01*
X121873166Y-108649650D01*
X121585055Y-108750854D01*
X121149765Y-109140798D01*
X120896835Y-109667637D01*
X120895107Y-109679340D01*
X120425000Y-109679340D01*
X120425000Y-102420000D01*
X121081749Y-102420000D01*
X121176032Y-102893992D01*
X121444527Y-103295822D01*
X121846357Y-103564317D01*
X122320349Y-103658600D01*
X122679651Y-103658600D01*
X123153643Y-103564317D01*
X123555473Y-103295822D01*
X123806590Y-102920000D01*
X129233762Y-102920000D01*
X129346803Y-102942485D01*
X142911824Y-102942485D01*
X141394309Y-104460000D01*
X123806590Y-104460000D01*
X123555473Y-104084178D01*
X123153643Y-103815683D01*
X122679651Y-103721400D01*
X122320349Y-103721400D01*
X121846357Y-103815683D01*
X121444527Y-104084178D01*
X121176032Y-104486008D01*
X121081749Y-104960000D01*
X121176032Y-105433992D01*
X121444527Y-105835822D01*
X121846357Y-106104317D01*
X122320349Y-106198600D01*
X122679651Y-106198600D01*
X123153643Y-106104317D01*
X123555473Y-105835822D01*
X123806590Y-105460000D01*
X141601415Y-105460000D01*
X141698644Y-105440660D01*
X165895107Y-105440660D01*
X165896835Y-105452363D01*
X166149765Y-105979202D01*
X166585055Y-106369146D01*
X167136435Y-106562829D01*
X167371000Y-106419356D01*
X167371000Y-105209000D01*
X167629000Y-105209000D01*
X167629000Y-106419356D01*
X167863565Y-106562829D01*
X168414945Y-106369146D01*
X168850235Y-105979202D01*
X169103165Y-105452363D01*
X169104893Y-105440660D01*
X168984519Y-105209000D01*
X167629000Y-105209000D01*
X167371000Y-105209000D01*
X166015481Y-105209000D01*
X165895107Y-105440660D01*
X141698644Y-105440660D01*
X141792757Y-105421940D01*
X141954968Y-105313553D01*
X145500000Y-101768521D01*
X145500000Y-103545366D01*
X145428097Y-103617144D01*
X145325117Y-103865145D01*
X145324883Y-104133677D01*
X145427429Y-104381857D01*
X145617144Y-104571903D01*
X145865145Y-104674883D01*
X146133677Y-104675117D01*
X146381857Y-104572571D01*
X146571903Y-104382856D01*
X146674883Y-104134855D01*
X146675117Y-103866323D01*
X146651399Y-103808922D01*
X146758687Y-103809015D01*
X147006867Y-103706469D01*
X147196913Y-103516754D01*
X147299893Y-103268753D01*
X147300127Y-103000221D01*
X147197581Y-102752041D01*
X147125010Y-102679343D01*
X147125010Y-102293439D01*
X147225261Y-102335067D01*
X147493793Y-102335301D01*
X147741973Y-102232755D01*
X147932019Y-102043040D01*
X148034999Y-101795039D01*
X148035089Y-101692317D01*
X149093729Y-100633677D01*
X151074883Y-100633677D01*
X151177429Y-100881857D01*
X151367144Y-101071903D01*
X151615145Y-101174883D01*
X151883677Y-101175117D01*
X152131857Y-101072571D01*
X152204555Y-101000000D01*
X153250000Y-101000000D01*
X153441342Y-100961940D01*
X153603553Y-100853553D01*
X154207107Y-100250000D01*
X163236894Y-100250000D01*
X165880447Y-102893554D01*
X166038322Y-102999043D01*
X166042658Y-103001940D01*
X166187188Y-103030689D01*
X166444527Y-103415822D01*
X166846357Y-103684317D01*
X166873166Y-103689650D01*
X166585055Y-103790854D01*
X166149765Y-104180798D01*
X165896835Y-104707637D01*
X165895107Y-104719340D01*
X166015481Y-104951000D01*
X167371000Y-104951000D01*
X167371000Y-104931000D01*
X167629000Y-104931000D01*
X167629000Y-104951000D01*
X168984519Y-104951000D01*
X169104893Y-104719340D01*
X169103165Y-104707637D01*
X168850235Y-104180798D01*
X168414945Y-103790854D01*
X168126834Y-103689650D01*
X168153643Y-103684317D01*
X168555473Y-103415822D01*
X168823968Y-103013992D01*
X168918251Y-102540000D01*
X168823968Y-102066008D01*
X168555473Y-101664178D01*
X168153643Y-101395683D01*
X167679651Y-101301400D01*
X167320349Y-101301400D01*
X166846357Y-101395683D01*
X166444527Y-101664178D01*
X166292624Y-101891517D01*
X163951095Y-99549989D01*
X165076883Y-99549989D01*
X165880446Y-100353553D01*
X166042658Y-100461940D01*
X166101654Y-100473675D01*
X166101654Y-100863600D01*
X166127802Y-101002566D01*
X166209931Y-101130199D01*
X166335246Y-101215823D01*
X166484000Y-101245946D01*
X168516000Y-101245946D01*
X168654966Y-101219798D01*
X168782599Y-101137669D01*
X168868223Y-101012354D01*
X168898346Y-100863600D01*
X168898346Y-99136400D01*
X168872198Y-98997434D01*
X168790069Y-98869801D01*
X168664754Y-98784177D01*
X168516000Y-98754054D01*
X166484000Y-98754054D01*
X166345034Y-98780202D01*
X166217401Y-98862331D01*
X166131777Y-98987646D01*
X166101654Y-99136400D01*
X166101654Y-99160548D01*
X165637542Y-98696436D01*
X165475331Y-98588049D01*
X165283989Y-98549989D01*
X153325001Y-98549989D01*
X153133659Y-98588049D01*
X152971448Y-98696436D01*
X152467922Y-99199962D01*
X152366323Y-99199873D01*
X152118143Y-99302419D01*
X151928097Y-99492134D01*
X151825117Y-99740135D01*
X151825043Y-99825065D01*
X151616323Y-99824883D01*
X151368143Y-99927429D01*
X151178097Y-100117144D01*
X151075117Y-100365145D01*
X151074883Y-100633677D01*
X149093729Y-100633677D01*
X151577333Y-98150074D01*
X158584160Y-98150074D01*
X158775502Y-98112014D01*
X158937713Y-98003627D01*
X161966327Y-94975012D01*
X163344988Y-94975012D01*
X163536330Y-94936952D01*
X163698541Y-94828565D01*
X164444761Y-94082346D01*
X165120000Y-94082346D01*
X165258966Y-94056198D01*
X165386599Y-93974069D01*
X165472223Y-93848754D01*
X165502346Y-93700000D01*
X165502346Y-90900000D01*
X165476198Y-90761034D01*
X165394069Y-90633401D01*
X165268754Y-90547777D01*
X165120000Y-90517654D01*
X164120000Y-90517654D01*
X163981034Y-90543802D01*
X163853401Y-90625931D01*
X163767777Y-90751246D01*
X163737654Y-90900000D01*
X163737654Y-93375239D01*
X163405001Y-93707893D01*
X163405001Y-91072105D01*
X164973554Y-89503553D01*
X165081940Y-89341342D01*
X165093675Y-89282346D01*
X165120000Y-89282346D01*
X165258966Y-89256198D01*
X165386599Y-89174069D01*
X165472223Y-89048754D01*
X165502346Y-88900000D01*
X165502346Y-86100000D01*
X165476198Y-85961034D01*
X165394069Y-85833401D01*
X165268754Y-85747777D01*
X165120000Y-85717654D01*
X164120000Y-85717654D01*
X163981034Y-85743802D01*
X163853401Y-85825931D01*
X163767777Y-85951246D01*
X163737654Y-86100000D01*
X163737654Y-88900000D01*
X163763802Y-89038966D01*
X163845931Y-89166599D01*
X163875851Y-89187042D01*
X162551448Y-90511446D01*
X162547300Y-90517654D01*
X161580000Y-90517654D01*
X161441034Y-90543802D01*
X161313401Y-90625931D01*
X161227777Y-90751246D01*
X161197654Y-90900000D01*
X161197654Y-93056652D01*
X161000000Y-93254306D01*
X161000000Y-90937106D01*
X162433553Y-89503554D01*
X162541940Y-89341342D01*
X162553675Y-89282346D01*
X162580000Y-89282346D01*
X162718966Y-89256198D01*
X162846599Y-89174069D01*
X162932223Y-89048754D01*
X162962346Y-88900000D01*
X162962346Y-86100000D01*
X162936198Y-85961034D01*
X162854069Y-85833401D01*
X162728754Y-85747777D01*
X162580000Y-85717654D01*
X161580000Y-85717654D01*
X161441034Y-85743802D01*
X161313401Y-85825931D01*
X161227777Y-85951246D01*
X161197654Y-86100000D01*
X161197654Y-88900000D01*
X161223802Y-89038966D01*
X161305931Y-89166599D01*
X161335851Y-89187042D01*
X160146447Y-90376447D01*
X160050653Y-90519811D01*
X160040000Y-90517654D01*
X159214999Y-90517654D01*
X159214999Y-90182107D01*
X159893554Y-89503553D01*
X159979617Y-89374750D01*
X160001940Y-89341342D01*
X160013675Y-89282346D01*
X160040000Y-89282346D01*
X160178966Y-89256198D01*
X160306599Y-89174069D01*
X160392223Y-89048754D01*
X160422346Y-88900000D01*
X160422346Y-86100000D01*
X160396198Y-85961034D01*
X160314069Y-85833401D01*
X160188754Y-85747777D01*
X160040000Y-85717654D01*
X159040000Y-85717654D01*
X158901034Y-85743802D01*
X158773401Y-85825931D01*
X158687777Y-85951246D01*
X158657654Y-86100000D01*
X158657654Y-88900000D01*
X158683802Y-89038966D01*
X158765931Y-89166599D01*
X158795851Y-89187042D01*
X158361446Y-89621448D01*
X158253059Y-89783659D01*
X158214999Y-89975001D01*
X158214999Y-92862896D01*
X157882346Y-93195549D01*
X157882346Y-90900000D01*
X157856198Y-90761034D01*
X157774069Y-90633401D01*
X157648754Y-90547777D01*
X157500000Y-90517654D01*
X156500000Y-90517654D01*
X156500000Y-90357106D01*
X157353554Y-89503553D01*
X157439617Y-89374750D01*
X157461940Y-89341342D01*
X157473675Y-89282346D01*
X157500000Y-89282346D01*
X157638966Y-89256198D01*
X157766599Y-89174069D01*
X157852223Y-89048754D01*
X157882346Y-88900000D01*
X157882346Y-86100000D01*
X157856198Y-85961034D01*
X157774069Y-85833401D01*
X157648754Y-85747777D01*
X157500000Y-85717654D01*
X156500000Y-85717654D01*
X156361034Y-85743802D01*
X156233401Y-85825931D01*
X156147777Y-85951246D01*
X156117654Y-86100000D01*
X156117654Y-88900000D01*
X156143802Y-89038966D01*
X156225931Y-89166599D01*
X156255851Y-89187042D01*
X155646447Y-89796447D01*
X155538060Y-89958658D01*
X155500000Y-90150000D01*
X155500000Y-93292893D01*
X155342346Y-93450548D01*
X155342346Y-90900000D01*
X155316198Y-90761034D01*
X155234069Y-90633401D01*
X155108754Y-90547777D01*
X154960000Y-90517654D01*
X153960000Y-90517654D01*
X153821034Y-90543802D01*
X153693401Y-90625931D01*
X153607777Y-90751246D01*
X153582717Y-90875000D01*
X152754985Y-90875000D01*
X152634855Y-90825117D01*
X152366323Y-90824883D01*
X152245031Y-90875000D01*
X143750000Y-90875000D01*
X143510822Y-90922575D01*
X143308058Y-91058058D01*
X143108057Y-91258059D01*
X143108055Y-91258062D01*
X142991117Y-91375000D01*
X138504985Y-91375000D01*
X138384855Y-91325117D01*
X138116323Y-91324883D01*
X137868143Y-91427429D01*
X137678097Y-91617144D01*
X137635568Y-91719564D01*
X137355012Y-91439008D01*
X137355012Y-86290010D01*
X137316952Y-86098668D01*
X137273538Y-86033696D01*
X137208566Y-85936457D01*
X136693554Y-85421446D01*
X136531343Y-85313059D01*
X136340001Y-85274999D01*
X133865001Y-85274999D01*
X133673659Y-85313059D01*
X133608687Y-85356473D01*
X133511448Y-85421445D01*
X133215239Y-85717654D01*
X132540000Y-85717654D01*
X132401034Y-85743802D01*
X132273401Y-85825931D01*
X132187777Y-85951246D01*
X132157654Y-86100000D01*
X132157654Y-88900000D01*
X132183802Y-89038966D01*
X132265931Y-89166599D01*
X132391246Y-89252223D01*
X132540000Y-89282346D01*
X133540000Y-89282346D01*
X133678966Y-89256198D01*
X133806599Y-89174069D01*
X133892223Y-89048754D01*
X133922346Y-88900000D01*
X133922346Y-86424761D01*
X134072108Y-86274999D01*
X134697654Y-86274999D01*
X134697654Y-88900000D01*
X134723802Y-89038966D01*
X134805931Y-89166599D01*
X134931246Y-89252223D01*
X135080000Y-89282346D01*
X135106325Y-89282346D01*
X135118060Y-89341342D01*
X135226447Y-89503553D01*
X135905001Y-90182108D01*
X135905001Y-90517654D01*
X135080000Y-90517654D01*
X134941034Y-90543802D01*
X134813401Y-90625931D01*
X134727777Y-90751246D01*
X134697654Y-90900000D01*
X134697654Y-93700000D01*
X134723802Y-93838966D01*
X134805931Y-93966599D01*
X134931246Y-94052223D01*
X135080000Y-94082346D01*
X135755240Y-94082346D01*
X136297903Y-94625010D01*
X135172117Y-94625010D01*
X133922346Y-93375240D01*
X133922346Y-90900000D01*
X133896198Y-90761034D01*
X133814069Y-90633401D01*
X133688754Y-90547777D01*
X133540000Y-90517654D01*
X132540000Y-90517654D01*
X132401034Y-90543802D01*
X132273401Y-90625931D01*
X132187777Y-90751246D01*
X132157654Y-90900000D01*
X132157654Y-93700000D01*
X132183802Y-93838966D01*
X132265931Y-93966599D01*
X132391246Y-94052223D01*
X132540000Y-94082346D01*
X133215240Y-94082346D01*
X134558212Y-95425319D01*
X133432425Y-95425319D01*
X131382346Y-93375240D01*
X131382346Y-90900000D01*
X131356198Y-90761034D01*
X131274069Y-90633401D01*
X131148754Y-90547777D01*
X131000000Y-90517654D01*
X130174999Y-90517654D01*
X130174999Y-90182107D01*
X130853554Y-89503553D01*
X130939617Y-89374750D01*
X130961940Y-89341342D01*
X130973675Y-89282346D01*
X131000000Y-89282346D01*
X131138966Y-89256198D01*
X131266599Y-89174069D01*
X131352223Y-89048754D01*
X131382346Y-88900000D01*
X131382346Y-86100000D01*
X131356198Y-85961034D01*
X131274069Y-85833401D01*
X131148754Y-85747777D01*
X131000000Y-85717654D01*
X130000000Y-85717654D01*
X129861034Y-85743802D01*
X129733401Y-85825931D01*
X129647777Y-85951246D01*
X129617654Y-86100000D01*
X129617654Y-88900000D01*
X129643802Y-89038966D01*
X129725931Y-89166599D01*
X129755851Y-89187042D01*
X129321446Y-89621448D01*
X129248190Y-89731083D01*
X128705045Y-89187939D01*
X128726599Y-89174069D01*
X128812223Y-89048754D01*
X128842346Y-88900000D01*
X128842346Y-86100000D01*
X128816198Y-85961034D01*
X128734069Y-85833401D01*
X128608754Y-85747777D01*
X128460000Y-85717654D01*
X127460000Y-85717654D01*
X127321034Y-85743802D01*
X127193401Y-85825931D01*
X127107777Y-85951246D01*
X127077654Y-86100000D01*
X127077654Y-88900000D01*
X127103802Y-89038966D01*
X127185931Y-89166599D01*
X127311246Y-89252223D01*
X127460000Y-89282346D01*
X127486325Y-89282346D01*
X127498060Y-89341342D01*
X127606447Y-89503553D01*
X128724988Y-90622095D01*
X128724988Y-90627196D01*
X128608754Y-90547777D01*
X128460000Y-90517654D01*
X127460000Y-90517654D01*
X127321034Y-90543802D01*
X127193401Y-90625931D01*
X127107777Y-90751246D01*
X127077654Y-90900000D01*
X127077654Y-93375240D01*
X126856447Y-93596447D01*
X126748060Y-93758658D01*
X126710000Y-93950000D01*
X126710000Y-95982819D01*
X126740242Y-96134855D01*
X126748060Y-96174161D01*
X126856447Y-96336372D01*
X130664009Y-100143935D01*
X130511025Y-100246157D01*
X129614727Y-101142455D01*
X129513128Y-101142366D01*
X129264948Y-101244912D01*
X129074902Y-101434627D01*
X128971922Y-101682628D01*
X128971715Y-101920000D01*
X123806590Y-101920000D01*
X123555473Y-101544178D01*
X123153643Y-101275683D01*
X122679651Y-101181400D01*
X122320349Y-101181400D01*
X121846357Y-101275683D01*
X121444527Y-101544178D01*
X121176032Y-101946008D01*
X121081749Y-102420000D01*
X120425000Y-102420000D01*
X120425000Y-99016400D01*
X121101654Y-99016400D01*
X121101654Y-100743600D01*
X121127802Y-100882566D01*
X121209931Y-101010199D01*
X121335246Y-101095823D01*
X121484000Y-101125946D01*
X123516000Y-101125946D01*
X123654966Y-101099798D01*
X123782599Y-101017669D01*
X123868223Y-100892354D01*
X123898346Y-100743600D01*
X123898346Y-99016400D01*
X123872198Y-98877434D01*
X123790069Y-98749801D01*
X123664754Y-98664177D01*
X123516000Y-98634054D01*
X121484000Y-98634054D01*
X121345034Y-98660202D01*
X121217401Y-98742331D01*
X121131777Y-98867646D01*
X121101654Y-99016400D01*
X120425000Y-99016400D01*
X120425000Y-98041860D01*
X120476462Y-97783143D01*
X120599300Y-97599302D01*
X120783144Y-97476462D01*
X121082913Y-97416834D01*
X121465596Y-97340714D01*
X121465597Y-97340714D01*
X121618800Y-97277255D01*
X121943224Y-97060482D01*
X122060482Y-96943224D01*
X122277252Y-96618803D01*
X122277255Y-96618800D01*
X122323545Y-96507046D01*
X122340714Y-96465597D01*
X122340714Y-96465596D01*
X122416834Y-96082913D01*
X122416834Y-96041053D01*
X122425000Y-96000000D01*
X122425000Y-90900000D01*
X124537654Y-90900000D01*
X124537654Y-93700000D01*
X124563802Y-93838966D01*
X124645931Y-93966599D01*
X124771246Y-94052223D01*
X124920000Y-94082346D01*
X125920000Y-94082346D01*
X126058966Y-94056198D01*
X126186599Y-93974069D01*
X126272223Y-93848754D01*
X126302346Y-93700000D01*
X126302346Y-91081538D01*
X126761639Y-90622244D01*
X126881857Y-90572571D01*
X127071903Y-90382856D01*
X127174883Y-90134855D01*
X127175117Y-89866323D01*
X127072571Y-89618143D01*
X126882856Y-89428097D01*
X126634855Y-89325117D01*
X126390293Y-89324904D01*
X126456631Y-89258566D01*
X126553000Y-89025912D01*
X126553000Y-87787250D01*
X126394750Y-87629000D01*
X125549000Y-87629000D01*
X125549000Y-89374750D01*
X125707250Y-89533000D01*
X126012388Y-89533000D01*
X125928097Y-89617144D01*
X125877768Y-89738349D01*
X125098462Y-90517654D01*
X124920000Y-90517654D01*
X124781034Y-90543802D01*
X124653401Y-90625931D01*
X124567777Y-90751246D01*
X124537654Y-90900000D01*
X122425000Y-90900000D01*
X122425000Y-87787250D01*
X124287000Y-87787250D01*
X124287000Y-89025912D01*
X124383369Y-89258566D01*
X124561435Y-89436632D01*
X124794089Y-89533000D01*
X125132750Y-89533000D01*
X125291000Y-89374750D01*
X125291000Y-87629000D01*
X124445250Y-87629000D01*
X124287000Y-87787250D01*
X122425000Y-87787250D01*
X122425000Y-85974088D01*
X124287000Y-85974088D01*
X124287000Y-87212750D01*
X124445250Y-87371000D01*
X125291000Y-87371000D01*
X125291000Y-85625250D01*
X125549000Y-85625250D01*
X125549000Y-87371000D01*
X126394750Y-87371000D01*
X126553000Y-87212750D01*
X126553000Y-85974088D01*
X126456631Y-85741434D01*
X126278565Y-85563368D01*
X126045911Y-85467000D01*
X125707250Y-85467000D01*
X125549000Y-85625250D01*
X125291000Y-85625250D01*
X125132750Y-85467000D01*
X124794089Y-85467000D01*
X124561435Y-85563368D01*
X124383369Y-85741434D01*
X124287000Y-85974088D01*
X122425000Y-85974088D01*
X122425000Y-84125000D01*
X139875000Y-84125000D01*
X139875000Y-88750000D01*
X139884848Y-88798632D01*
X139912841Y-88839601D01*
X139954568Y-88866451D01*
X140000000Y-88875000D01*
X150000000Y-88875000D01*
X150048632Y-88865152D01*
X150089601Y-88837159D01*
X150116451Y-88795432D01*
X150125000Y-88750000D01*
X150125000Y-87787250D01*
X153327000Y-87787250D01*
X153327000Y-89025912D01*
X153423369Y-89258566D01*
X153601435Y-89436632D01*
X153834089Y-89533000D01*
X154172750Y-89533000D01*
X154331000Y-89374750D01*
X154331000Y-87629000D01*
X154589000Y-87629000D01*
X154589000Y-89374750D01*
X154747250Y-89533000D01*
X155085911Y-89533000D01*
X155318565Y-89436632D01*
X155496631Y-89258566D01*
X155593000Y-89025912D01*
X155593000Y-87787250D01*
X155434750Y-87629000D01*
X154589000Y-87629000D01*
X154331000Y-87629000D01*
X153485250Y-87629000D01*
X153327000Y-87787250D01*
X150125000Y-87787250D01*
X150125000Y-85974088D01*
X153327000Y-85974088D01*
X153327000Y-87212750D01*
X153485250Y-87371000D01*
X154331000Y-87371000D01*
X154331000Y-85625250D01*
X154589000Y-85625250D01*
X154589000Y-87371000D01*
X155434750Y-87371000D01*
X155593000Y-87212750D01*
X155593000Y-85974088D01*
X155496631Y-85741434D01*
X155318565Y-85563368D01*
X155085911Y-85467000D01*
X154747250Y-85467000D01*
X154589000Y-85625250D01*
X154331000Y-85625250D01*
X154172750Y-85467000D01*
X153834089Y-85467000D01*
X153601435Y-85563368D01*
X153423369Y-85741434D01*
X153327000Y-85974088D01*
X150125000Y-85974088D01*
X150125000Y-84125000D01*
X160000000Y-84125000D01*
X160048632Y-84115152D01*
X160089601Y-84087159D01*
X160116451Y-84045432D01*
X160125000Y-84000000D01*
X160125000Y-69141128D01*
X164274657Y-69141128D01*
X164574700Y-69867286D01*
X165129791Y-70423348D01*
X165855425Y-70724657D01*
X166641128Y-70725343D01*
X167367286Y-70425300D01*
X167923348Y-69870209D01*
X168224657Y-69144575D01*
X168225343Y-68358872D01*
X167925300Y-67632714D01*
X167370209Y-67076652D01*
X166644575Y-66775343D01*
X165858872Y-66774657D01*
X165132714Y-67074700D01*
X164576652Y-67629791D01*
X164275343Y-68355425D01*
X164274657Y-69141128D01*
X160125000Y-69141128D01*
X160125000Y-65425000D01*
X166208140Y-65425000D01*
X167519236Y-65685793D01*
G36*
X144537842Y-100492462D02*
X144617144Y-100571903D01*
X144637530Y-100580368D01*
X143275413Y-101942485D01*
X130321697Y-101942485D01*
X130321778Y-101849616D01*
X131071684Y-101099710D01*
X131295308Y-101099710D01*
X131367086Y-101171613D01*
X131615087Y-101274593D01*
X131883619Y-101274827D01*
X132131799Y-101172281D01*
X132321845Y-100982566D01*
X132424825Y-100734565D01*
X132425051Y-100474700D01*
X144448543Y-100474700D01*
X144537842Y-100492462D01*
X144537842Y-100492462D01*
G37*
X144537842Y-100492462D02*
X144617144Y-100571903D01*
X144637530Y-100580368D01*
X143275413Y-101942485D01*
X130321697Y-101942485D01*
X130321778Y-101849616D01*
X131071684Y-101099710D01*
X131295308Y-101099710D01*
X131367086Y-101171613D01*
X131615087Y-101274593D01*
X131883619Y-101274827D01*
X132131799Y-101172281D01*
X132321845Y-100982566D01*
X132424825Y-100734565D01*
X132425051Y-100474700D01*
X144448543Y-100474700D01*
X144537842Y-100492462D01*
G36*
X128724988Y-94299984D02*
X128747480Y-94413058D01*
X128763048Y-94491326D01*
X128871435Y-94653537D01*
X129446449Y-95228552D01*
X129521316Y-95278576D01*
X129608660Y-95336938D01*
X129800002Y-95374998D01*
X130592896Y-95374998D01*
X130625002Y-95407105D01*
X130625002Y-98690714D01*
X127710000Y-95775713D01*
X127710000Y-94157106D01*
X127784760Y-94082346D01*
X128460000Y-94082346D01*
X128598966Y-94056198D01*
X128724988Y-93975106D01*
X128724988Y-94299984D01*
X128724988Y-94299984D01*
G37*
X128724988Y-94299984D02*
X128747480Y-94413058D01*
X128763048Y-94491326D01*
X128871435Y-94653537D01*
X129446449Y-95228552D01*
X129521316Y-95278576D01*
X129608660Y-95336938D01*
X129800002Y-95374998D01*
X130592896Y-95374998D01*
X130625002Y-95407105D01*
X130625002Y-98690714D01*
X127710000Y-95775713D01*
X127710000Y-94157106D01*
X127784760Y-94082346D01*
X128460000Y-94082346D01*
X128598966Y-94056198D01*
X128724988Y-93975106D01*
X128724988Y-94299984D01*
G36*
X158625000Y-82375000D02*
X150125000Y-82375000D01*
X150125000Y-79000000D01*
X150115152Y-78951368D01*
X150087159Y-78910399D01*
X150045432Y-78883549D01*
X150000000Y-78875000D01*
X146952901Y-78875000D01*
X146940898Y-78829593D01*
X146440411Y-78654290D01*
X145910936Y-78683859D01*
X145559102Y-78829593D01*
X145547099Y-78875000D01*
X140000000Y-78875000D01*
X139951368Y-78884848D01*
X139910399Y-78912841D01*
X139883549Y-78954568D01*
X139875000Y-79000000D01*
X139875000Y-82375000D01*
X120582129Y-82375000D01*
X120476462Y-82216857D01*
X120425000Y-81958140D01*
X120425000Y-69141128D01*
X121774657Y-69141128D01*
X122074700Y-69867286D01*
X122629791Y-70423348D01*
X123355425Y-70724657D01*
X124141128Y-70725343D01*
X124867286Y-70425300D01*
X125423348Y-69870209D01*
X125724657Y-69144575D01*
X125725343Y-68358872D01*
X125425300Y-67632714D01*
X124870209Y-67076652D01*
X124144575Y-66775343D01*
X123358872Y-66774657D01*
X122632714Y-67074700D01*
X122076652Y-67629791D01*
X121775343Y-68355425D01*
X121774657Y-69141128D01*
X120425000Y-69141128D01*
X120425000Y-68791860D01*
X120685793Y-67480764D01*
X121404757Y-66404758D01*
X122480764Y-65685793D01*
X123791861Y-65425000D01*
X158625000Y-65425000D01*
X158625000Y-82375000D01*
X158625000Y-82375000D01*
G37*
X158625000Y-82375000D02*
X150125000Y-82375000D01*
X150125000Y-79000000D01*
X150115152Y-78951368D01*
X150087159Y-78910399D01*
X150045432Y-78883549D01*
X150000000Y-78875000D01*
X146952901Y-78875000D01*
X146940898Y-78829593D01*
X146440411Y-78654290D01*
X145910936Y-78683859D01*
X145559102Y-78829593D01*
X145547099Y-78875000D01*
X140000000Y-78875000D01*
X139951368Y-78884848D01*
X139910399Y-78912841D01*
X139883549Y-78954568D01*
X139875000Y-79000000D01*
X139875000Y-82375000D01*
X120582129Y-82375000D01*
X120476462Y-82216857D01*
X120425000Y-81958140D01*
X120425000Y-69141128D01*
X121774657Y-69141128D01*
X122074700Y-69867286D01*
X122629791Y-70423348D01*
X123355425Y-70724657D01*
X124141128Y-70725343D01*
X124867286Y-70425300D01*
X125423348Y-69870209D01*
X125724657Y-69144575D01*
X125725343Y-68358872D01*
X125425300Y-67632714D01*
X124870209Y-67076652D01*
X124144575Y-66775343D01*
X123358872Y-66774657D01*
X122632714Y-67074700D01*
X122076652Y-67629791D01*
X121775343Y-68355425D01*
X121774657Y-69141128D01*
X120425000Y-69141128D01*
X120425000Y-68791860D01*
X120685793Y-67480764D01*
X121404757Y-66404758D01*
X122480764Y-65685793D01*
X123791861Y-65425000D01*
X158625000Y-65425000D01*
X158625000Y-82375000D01*
M02*
