G04 #@! TF.FileFunction,Profile,NP*
%FSLAX46Y46*%
G04 Gerber Fmt 4.6, Leading zero omitted, Abs format (unit mm)*
G04 Created by KiCad (PCBNEW 4.0.4+dfsg1-stable) date Sat Nov 19 15:53:21 2016*
%MOMM*%
%LPD*%
G01*
G04 APERTURE LIST*
%ADD10C,0.100000*%
G04 APERTURE END LIST*
D10*
X122000000Y-84000000D02*
G75*
G03X121000000Y-83000000I-1000000J0D01*
G01*
X120000000Y-82000000D02*
G75*
G03X121000000Y-83000000I1000000J0D01*
G01*
X121000000Y-97000000D02*
G75*
G03X122000000Y-96000000I0J1000000D01*
G01*
X121000000Y-97000000D02*
G75*
G03X120000000Y-98000000I0J-1000000D01*
G01*
X169000000Y-83000000D02*
G75*
G03X170000000Y-82000000I0J1000000D01*
G01*
X170000000Y-98000000D02*
G75*
G03X169000000Y-97000000I-1000000J0D01*
G01*
X149000000Y-119000000D02*
G75*
G03X148000000Y-118000000I-1000000J0D01*
G01*
X142000000Y-118000000D02*
G75*
G03X141000000Y-119000000I0J-1000000D01*
G01*
X152000000Y-125000000D02*
G75*
G02X151000000Y-124000000I0J1000000D01*
G01*
X138000000Y-125000000D02*
G75*
G03X139000000Y-124000000I0J1000000D01*
G01*
X148000000Y-125000000D02*
G75*
G03X149000000Y-124000000I0J1000000D01*
G01*
X141000000Y-124000000D02*
G75*
G03X142000000Y-125000000I1000000J0D01*
G01*
X169000000Y-83000000D02*
G75*
G03X168000000Y-84000000I0J-1000000D01*
G01*
X168000000Y-96000000D02*
G75*
G03X169000000Y-97000000I1000000J0D01*
G01*
X148000000Y-116000000D02*
X150000000Y-116000000D01*
X151000000Y-117000000D02*
G75*
G03X150000000Y-116000000I-1000000J0D01*
G01*
X148000000Y-116000000D02*
G75*
G03X148000000Y-118000000I0J-1000000D01*
G01*
X142000000Y-118000000D02*
G75*
G03X142000000Y-116000000I0J1000000D01*
G01*
X140000000Y-116000000D02*
G75*
G03X139000000Y-117000000I0J-1000000D01*
G01*
X120000000Y-121250000D02*
G75*
G03X123750000Y-125000000I3750000J0D01*
G01*
X166250000Y-125000000D02*
G75*
G03X170000000Y-121250000I0J3750000D01*
G01*
X123750000Y-65000000D02*
G75*
G03X120000000Y-68750000I0J-3750000D01*
G01*
X170000000Y-68750000D02*
G75*
G03X166250000Y-65000000I-3750000J0D01*
G01*
X170000000Y-82000000D02*
X170000000Y-68750000D01*
X168000000Y-96000000D02*
X168000000Y-84000000D01*
X120000000Y-82000000D02*
X120000000Y-68750000D01*
X122000000Y-96000000D02*
X122000000Y-84000000D01*
X152000000Y-125000000D02*
X166250000Y-125000000D01*
X142000000Y-125000000D02*
X148000000Y-125000000D01*
X151000000Y-124000000D02*
X151000000Y-117000000D01*
X139000000Y-117000000D02*
X139000000Y-124000000D01*
X142000000Y-116000000D02*
X140000000Y-116000000D01*
X149000000Y-119000000D02*
X149000000Y-124000000D01*
X141000000Y-124000000D02*
X141000000Y-119000000D01*
X138000000Y-125000000D02*
X123750000Y-125000000D01*
X170000000Y-98000000D02*
X170000000Y-121250000D01*
X123750000Y-65000000D02*
X166250000Y-65000000D01*
X120000000Y-121250000D02*
X120000000Y-98000000D01*
M02*
