G04 #@! TF.FileFunction,Soldermask,Top*
%FSLAX46Y46*%
G04 Gerber Fmt 4.6, Leading zero omitted, Abs format (unit mm)*
G04 Created by KiCad (PCBNEW 4.0.4+dfsg1-stable) date Sat Dec  3 18:12:50 2016*
%MOMM*%
%LPD*%
G01*
G04 APERTURE LIST*
%ADD10C,0.100000*%
%ADD11R,0.600000X0.500000*%
%ADD12C,3.200000*%
%ADD13R,0.450000X0.900000*%
%ADD14C,1.400000*%
%ADD15R,2.500000X1.000000*%
%ADD16R,2.200000X0.600000*%
%ADD17R,1.250000X1.000000*%
%ADD18R,1.000000X1.600000*%
%ADD19R,0.500000X0.600000*%
%ADD20R,1.000000X1.250000*%
%ADD21R,1.800860X3.500120*%
%ADD22R,3.500120X1.800860*%
%ADD23R,1.220000X0.910000*%
%ADD24R,0.797560X0.797560*%
%ADD25R,3.500000X5.500000*%
%ADD26R,1.700000X0.900000*%
%ADD27R,0.400000X0.600000*%
%ADD28R,0.600000X0.400000*%
%ADD29R,0.800000X0.800000*%
%ADD30R,1.998980X0.690880*%
%ADD31R,0.400000X0.900000*%
%ADD32R,1.000000X0.250000*%
%ADD33R,0.250000X1.000000*%
%ADD34C,1.000760*%
%ADD35R,0.500000X0.500000*%
%ADD36R,1.000000X0.500000*%
%ADD37R,1.600000X2.500000*%
%ADD38C,0.600000*%
%ADD39C,1.500000*%
G04 APERTURE END LIST*
D10*
D11*
X160650000Y-123700000D03*
X161750000Y-123700000D03*
D12*
X166250000Y-121250000D03*
D13*
X144525000Y-88200000D03*
X144525000Y-90800000D03*
X145175000Y-88200000D03*
X145175000Y-90800000D03*
X145825000Y-88200000D03*
X145825000Y-90800000D03*
X146475000Y-88200000D03*
X146475000Y-90800000D03*
D14*
X148750000Y-80000000D03*
X146250000Y-80000000D03*
X143750000Y-80000000D03*
X141250000Y-80000000D03*
X148750000Y-85000000D03*
X146250000Y-85000000D03*
X143750000Y-85000000D03*
X141250000Y-85000000D03*
D11*
X136050000Y-100000000D03*
X134950000Y-100000000D03*
D15*
X140000000Y-73000000D03*
X140000000Y-70000000D03*
D16*
X150700000Y-73095000D03*
X145300000Y-73095000D03*
X150700000Y-74365000D03*
X145300000Y-74365000D03*
X150700000Y-75635000D03*
X145300000Y-75635000D03*
X150700000Y-76905000D03*
X145300000Y-76905000D03*
D17*
X133500000Y-69500000D03*
X133500000Y-71500000D03*
D18*
X126500000Y-81250000D03*
X129500000Y-81250000D03*
D11*
X134950000Y-96250000D03*
X136050000Y-96250000D03*
X134950000Y-98750000D03*
X136050000Y-98750000D03*
D17*
X133750000Y-103500000D03*
X133750000Y-101500000D03*
D19*
X126500000Y-104450000D03*
X126500000Y-105550000D03*
X136300000Y-103050000D03*
X136300000Y-101950000D03*
D17*
X154750000Y-95750000D03*
X154750000Y-97750000D03*
D19*
X152500000Y-96200000D03*
X152500000Y-97300000D03*
D11*
X140200000Y-92750000D03*
X141300000Y-92750000D03*
X148300000Y-107750000D03*
X147200000Y-107750000D03*
X141800000Y-107750000D03*
X140700000Y-107750000D03*
X155650000Y-123700000D03*
X156750000Y-123700000D03*
D20*
X139750000Y-90750000D03*
X141750000Y-90750000D03*
D19*
X148000000Y-121950000D03*
X148000000Y-123050000D03*
D11*
X146050000Y-92500000D03*
X144950000Y-92500000D03*
D19*
X142545376Y-81969710D03*
X142545376Y-83069710D03*
D21*
X156000000Y-73000640D03*
X156000000Y-77999360D03*
D22*
X145250640Y-68750000D03*
X150249360Y-68750000D03*
D23*
X136750000Y-72135000D03*
X136750000Y-68865000D03*
D24*
X167500000Y-113250700D03*
X167500000Y-114749300D03*
X167500000Y-108001400D03*
X167500000Y-109500000D03*
D25*
X128750000Y-75700000D03*
X123550000Y-75700000D03*
D26*
X156000000Y-66550000D03*
X156000000Y-69450000D03*
D27*
X140500000Y-76750000D03*
X139600000Y-76750000D03*
D28*
X132750000Y-79700000D03*
X132750000Y-78800000D03*
X134250000Y-78800000D03*
X134250000Y-79700000D03*
X127500000Y-108700000D03*
X127500000Y-107800000D03*
X129000000Y-108700000D03*
X129000000Y-107800000D03*
X167500000Y-116950000D03*
X167500000Y-116050000D03*
X167500000Y-111700000D03*
X167500000Y-110800000D03*
D27*
X153350000Y-123700000D03*
X154250000Y-123700000D03*
X143000000Y-113500000D03*
X143900000Y-113500000D03*
X146950000Y-113500000D03*
X146050000Y-113500000D03*
X159250000Y-123700000D03*
X158350000Y-123700000D03*
X140050000Y-82500000D03*
X140950000Y-82500000D03*
X144050000Y-82500000D03*
X144950000Y-82500000D03*
D29*
X129200000Y-117900000D03*
X130800000Y-122100000D03*
X130800000Y-117900000D03*
X129200000Y-122100000D03*
X155800000Y-122100000D03*
X154200000Y-117900000D03*
X154200000Y-122100000D03*
X155800000Y-117900000D03*
X160800000Y-122100000D03*
X159200000Y-117900000D03*
X159200000Y-122100000D03*
X160800000Y-117900000D03*
D30*
X133594602Y-74406084D03*
X133594602Y-75356044D03*
X133594602Y-76306004D03*
X137196322Y-76306004D03*
X137196322Y-75356044D03*
X137196322Y-74406084D03*
D31*
X128100000Y-103900000D03*
X128100000Y-106100000D03*
X128750000Y-106100000D03*
X129400000Y-103900000D03*
X129400000Y-106100000D03*
D32*
X138550000Y-96500000D03*
X138550000Y-97000000D03*
X138550000Y-97500000D03*
X138550000Y-98000000D03*
X138550000Y-98500000D03*
X138550000Y-99000000D03*
X138550000Y-99500000D03*
X138550000Y-100000000D03*
X138550000Y-100500000D03*
X138550000Y-101000000D03*
X138550000Y-101500000D03*
X138550000Y-102000000D03*
X138550000Y-102500000D03*
X138550000Y-103000000D03*
X138550000Y-103500000D03*
X138550000Y-104000000D03*
D33*
X140500000Y-105950000D03*
X141000000Y-105950000D03*
X141500000Y-105950000D03*
X142000000Y-105950000D03*
X142500000Y-105950000D03*
X143000000Y-105950000D03*
X143500000Y-105950000D03*
X144000000Y-105950000D03*
X144500000Y-105950000D03*
X145000000Y-105950000D03*
X145500000Y-105950000D03*
X146000000Y-105950000D03*
X146500000Y-105950000D03*
X147000000Y-105950000D03*
X147500000Y-105950000D03*
X148000000Y-105950000D03*
D32*
X149950000Y-104000000D03*
X149950000Y-103500000D03*
X149950000Y-103000000D03*
X149950000Y-102500000D03*
X149950000Y-102000000D03*
X149950000Y-101500000D03*
X149950000Y-101000000D03*
X149950000Y-100500000D03*
X149950000Y-100000000D03*
X149950000Y-99500000D03*
X149950000Y-99000000D03*
X149950000Y-98500000D03*
X149950000Y-98000000D03*
X149950000Y-97500000D03*
X149950000Y-97000000D03*
X149950000Y-96500000D03*
D33*
X148000000Y-94550000D03*
X147500000Y-94550000D03*
X147000000Y-94550000D03*
X146500000Y-94550000D03*
X146000000Y-94550000D03*
X145500000Y-94550000D03*
X145000000Y-94550000D03*
X144500000Y-94550000D03*
X144000000Y-94550000D03*
X143500000Y-94550000D03*
X143000000Y-94550000D03*
X142500000Y-94550000D03*
X142000000Y-94550000D03*
X141500000Y-94550000D03*
X141000000Y-94550000D03*
X140500000Y-94550000D03*
D34*
X133250000Y-98249300D03*
X133250000Y-96750700D03*
D27*
X140450000Y-110750000D03*
X139550000Y-110750000D03*
X140450000Y-112250000D03*
X139550000Y-112250000D03*
X140450000Y-113750000D03*
X139550000Y-113750000D03*
D35*
X144250000Y-110700000D03*
X145000000Y-110700000D03*
X145750000Y-110700000D03*
X144250000Y-109300000D03*
X145000000Y-109300000D03*
X145750000Y-109300000D03*
D36*
X143500000Y-121000000D03*
X143500000Y-122000000D03*
X143500000Y-123000000D03*
X146500000Y-121000000D03*
X146500000Y-122000000D03*
X146500000Y-123000000D03*
D37*
X145000000Y-122000000D03*
D38*
X145400000Y-121150000D03*
X145400000Y-122850000D03*
X145400000Y-122000000D03*
X144600000Y-121150000D03*
X144600000Y-122850000D03*
X144600000Y-122000000D03*
D12*
X166250000Y-68750000D03*
X123750000Y-68750000D03*
X123750000Y-121250000D03*
D39*
X155500000Y-100000000D03*
X155500000Y-102000000D03*
X153500000Y-103000000D03*
M02*
