G04 #@! TF.GenerationSoftware,KiCad,Pcbnew,5.0.0-rc2-dev-unknown-c8a7840~64~ubuntu18.04.1*
G04 #@! TF.CreationDate,2018-05-01T16:30:53+02:00*
G04 #@! TF.ProjectId,can-node,63616E2D6E6F64652E6B696361645F70,1.1*
G04 #@! TF.SameCoordinates,Original*
G04 #@! TF.FileFunction,Copper,L1,Top,Signal*
G04 #@! TF.FilePolarity,Positive*
%FSLAX46Y46*%
G04 Gerber Fmt 4.6, Leading zero omitted, Abs format (unit mm)*
G04 Created by KiCad (PCBNEW 5.0.0-rc2-dev-unknown-c8a7840~64~ubuntu18.04.1) date Tue May  1 16:30:53 2018*
%MOMM*%
%LPD*%
G01*
G04 APERTURE LIST*
%ADD10C,2.000000*%
%ADD11R,1.500000X0.500000*%
%ADD12R,1.600000X2.500000*%
%ADD13C,0.600000*%
%ADD14R,1.200000X0.750000*%
%ADD15C,1.750000*%
%ADD16C,1.500000*%
%ADD17R,1.200000X0.900000*%
%ADD18R,2.000000X2.500000*%
%ADD19R,2.200000X0.600000*%
%ADD20R,2.500000X3.000000*%
%ADD21R,1.600000X1.000000*%
%ADD22C,1.000000*%
%ADD23R,0.800000X0.800000*%
%ADD24R,2.000000X2.000000*%
%ADD25R,2.000000X1.600000*%
%ADD26R,0.750000X1.200000*%
%ADD27R,1.250000X1.500000*%
%ADD28R,1.500000X1.250000*%
%ADD29R,3.500000X1.800000*%
%ADD30R,1.800000X3.500000*%
%ADD31R,0.900000X1.200000*%
%ADD32R,3.500000X5.500000*%
%ADD33R,2.000000X1.700000*%
%ADD34R,1.300000X1.500000*%
%ADD35R,0.400000X0.900000*%
%ADD36R,0.900000X0.450000*%
%ADD37R,1.200000X1.400000*%
%ADD38R,0.600000X1.500000*%
%ADD39R,2.000000X0.300000*%
%ADD40R,0.300000X2.000000*%
%ADD41C,0.700000*%
%ADD42C,0.600000*%
%ADD43C,0.250000*%
%ADD44C,1.000000*%
%ADD45C,0.700000*%
%ADD46C,0.500000*%
%ADD47C,0.254000*%
G04 APERTURE END LIST*
D10*
X167000000Y-115000000D03*
X123500000Y-115000000D03*
X167000000Y-69000000D03*
X123500000Y-68500000D03*
D11*
X143350000Y-121000000D03*
X143350000Y-122000000D03*
X143350000Y-123000000D03*
X146850000Y-121000000D03*
X146850000Y-122000000D03*
X146850000Y-123000000D03*
D12*
X145100000Y-122000000D03*
D13*
X145500000Y-121150000D03*
X145500000Y-122850000D03*
X145500000Y-122000000D03*
X144700000Y-121150000D03*
X144700000Y-122850000D03*
X144700000Y-122000000D03*
D14*
X152950000Y-109450000D03*
X151050000Y-109450000D03*
D15*
X131500000Y-98750000D03*
X131500000Y-96250000D03*
X131500000Y-93750000D03*
X131500000Y-91250000D03*
X126500000Y-98750000D03*
X126500000Y-96250000D03*
X126500000Y-93750000D03*
X126500000Y-91250000D03*
D16*
X136110000Y-78420000D03*
X138650000Y-78420000D03*
X141190000Y-78420000D03*
X143730000Y-78420000D03*
X148810000Y-78420000D03*
X153890000Y-78420000D03*
X153890000Y-88580000D03*
X151350000Y-88580000D03*
X148810000Y-88580000D03*
X146270000Y-88580000D03*
X143730000Y-88580000D03*
X141190000Y-88580000D03*
X138650000Y-88580000D03*
X136110000Y-88580000D03*
D17*
X144900000Y-67000000D03*
X147100000Y-67000000D03*
D18*
X148900000Y-74400000D03*
X144900000Y-74400000D03*
D19*
X137200000Y-71460000D03*
X131800000Y-71460000D03*
X137200000Y-72730000D03*
X131800000Y-72730000D03*
X137200000Y-74000000D03*
X131800000Y-74000000D03*
X137200000Y-75270000D03*
X131800000Y-75270000D03*
D20*
X138750000Y-98500000D03*
D21*
X145000000Y-99800000D03*
X145000000Y-97200000D03*
D22*
X146200000Y-114000000D03*
X143900000Y-114000000D03*
X147100000Y-92950000D03*
X140300000Y-90900000D03*
D16*
X121500000Y-112500000D03*
D23*
X129200000Y-117900000D03*
X130800000Y-122100000D03*
X130800000Y-117900000D03*
X129200000Y-122100000D03*
D16*
X121500000Y-102000000D03*
D10*
X123800000Y-107200000D03*
D24*
X133800000Y-107200000D03*
D25*
X156500000Y-74000000D03*
X160500000Y-74000000D03*
D26*
X146800000Y-95850000D03*
X146800000Y-97750000D03*
X146800000Y-99450000D03*
X146800000Y-101350000D03*
D27*
X144500000Y-104800000D03*
X144500000Y-102300000D03*
D26*
X165000000Y-106950000D03*
X165000000Y-105050000D03*
X146100000Y-103050000D03*
X146100000Y-104950000D03*
X161000000Y-110200000D03*
X161000000Y-108300000D03*
D27*
X165000000Y-96250000D03*
X165000000Y-98750000D03*
D26*
X163500000Y-96550000D03*
X163500000Y-98450000D03*
D14*
X150550000Y-92800000D03*
X152450000Y-92800000D03*
X159450000Y-109400000D03*
X157550000Y-109400000D03*
D26*
X132500000Y-121050000D03*
X132500000Y-122950000D03*
D28*
X152750000Y-91250000D03*
X150250000Y-91250000D03*
D26*
X158000000Y-116550000D03*
X158000000Y-118450000D03*
X148300000Y-121050000D03*
X148300000Y-122950000D03*
X144800000Y-94950000D03*
X144800000Y-93050000D03*
D14*
X136850000Y-94000000D03*
X138750000Y-94000000D03*
D29*
X123000000Y-74500000D03*
X128000000Y-74500000D03*
D30*
X141000000Y-73500000D03*
X141000000Y-68500000D03*
D31*
X124000000Y-121100000D03*
X124000000Y-118900000D03*
X166000000Y-118900000D03*
X166000000Y-121100000D03*
D32*
X156200000Y-69400000D03*
X161400000Y-69400000D03*
D33*
X132500000Y-68000000D03*
X136500000Y-68000000D03*
D17*
X144900000Y-70800000D03*
X147100000Y-70800000D03*
X144900000Y-68500000D03*
X147100000Y-68500000D03*
D31*
X166000000Y-108900000D03*
X166000000Y-111100000D03*
X167900000Y-111100000D03*
X167900000Y-108900000D03*
X126000000Y-121100000D03*
X126000000Y-118900000D03*
X164000000Y-121100000D03*
X164000000Y-118900000D03*
X132500000Y-118600000D03*
X132500000Y-116400000D03*
X143700000Y-111100000D03*
X143700000Y-108900000D03*
X146400000Y-108900000D03*
X146400000Y-111100000D03*
X158000000Y-120900000D03*
X158000000Y-123100000D03*
D17*
X136500000Y-95600000D03*
X138700000Y-95600000D03*
X136500000Y-92400000D03*
X138700000Y-92400000D03*
D34*
X139000000Y-111350000D03*
X139000000Y-108650000D03*
D23*
X135800000Y-122100000D03*
X134200000Y-117900000D03*
X134200000Y-122100000D03*
X135800000Y-117900000D03*
X155800000Y-117900000D03*
X154200000Y-122100000D03*
X154200000Y-117900000D03*
X155800000Y-122100000D03*
D35*
X166300000Y-104900000D03*
X166300000Y-107100000D03*
X166950000Y-107100000D03*
X167600000Y-104900000D03*
X167600000Y-107100000D03*
D36*
X140700000Y-94975000D03*
X143300000Y-94975000D03*
X140700000Y-94325000D03*
X143300000Y-94325000D03*
X140700000Y-93675000D03*
X143300000Y-93675000D03*
X140700000Y-93025000D03*
X143300000Y-93025000D03*
D37*
X153000000Y-74800000D03*
X153000000Y-71000000D03*
X139000000Y-106900000D03*
X139000000Y-103100000D03*
D38*
X150950000Y-67450000D03*
X150000000Y-67450000D03*
X149050000Y-67450000D03*
X150950000Y-70550000D03*
X150000000Y-70550000D03*
X149050000Y-70550000D03*
D26*
X152700000Y-67200000D03*
X152700000Y-69100000D03*
D39*
X148850000Y-97250000D03*
X148850000Y-97750000D03*
X148850000Y-98250000D03*
X148850000Y-98750000D03*
X148850000Y-99250000D03*
X148850000Y-99750000D03*
X148850000Y-100250000D03*
X148850000Y-100750000D03*
X148850000Y-101250000D03*
X148850000Y-101750000D03*
X148850000Y-102250000D03*
X148850000Y-102750000D03*
X148850000Y-103250000D03*
X148850000Y-103750000D03*
X148850000Y-104250000D03*
X148850000Y-104750000D03*
D40*
X151250000Y-107150000D03*
X151750000Y-107150000D03*
X152250000Y-107150000D03*
X152750000Y-107150000D03*
X153250000Y-107150000D03*
X153750000Y-107150000D03*
X154250000Y-107150000D03*
X154750000Y-107150000D03*
X155250000Y-107150000D03*
X155750000Y-107150000D03*
X156250000Y-107150000D03*
X156750000Y-107150000D03*
X157250000Y-107150000D03*
X157750000Y-107150000D03*
X158250000Y-107150000D03*
X158750000Y-107150000D03*
D39*
X161150000Y-104750000D03*
X161150000Y-104250000D03*
X161150000Y-103750000D03*
X161150000Y-103250000D03*
X161150000Y-102750000D03*
X161150000Y-102250000D03*
X161150000Y-101750000D03*
X161150000Y-101250000D03*
X161150000Y-100750000D03*
X161150000Y-100250000D03*
X161150000Y-99750000D03*
X161150000Y-99250000D03*
X161150000Y-98750000D03*
X161150000Y-98250000D03*
X161150000Y-97750000D03*
X161150000Y-97250000D03*
D40*
X158750000Y-94850000D03*
X158250000Y-94850000D03*
X157750000Y-94850000D03*
X157250000Y-94850000D03*
X156750000Y-94850000D03*
X156250000Y-94850000D03*
X155750000Y-94850000D03*
X155250000Y-94850000D03*
X154750000Y-94850000D03*
X154250000Y-94850000D03*
X153750000Y-94850000D03*
X153250000Y-94850000D03*
X152750000Y-94850000D03*
X152250000Y-94850000D03*
X151750000Y-94850000D03*
X151250000Y-94850000D03*
D22*
X165800000Y-101400000D03*
X163900000Y-101400000D03*
X164600000Y-67400000D03*
D41*
X150500000Y-72500000D03*
X143100000Y-73400000D03*
X146000000Y-67800000D03*
X121750000Y-66750000D03*
X127000000Y-67000000D03*
X122000000Y-72000000D03*
X127000000Y-72000000D03*
X168000000Y-67000000D03*
X167600000Y-73200000D03*
X167900000Y-79000000D03*
X168100000Y-84300000D03*
X154500000Y-73500000D03*
X158500000Y-73500000D03*
X158500000Y-75500000D03*
X156500000Y-75500000D03*
X154500000Y-75500000D03*
X131500000Y-78000000D03*
X134000000Y-84000000D03*
X135000000Y-86000000D03*
X127000000Y-88500000D03*
X127000000Y-83000000D03*
X127000000Y-78000000D03*
X153500000Y-81900000D03*
X162500000Y-80700000D03*
X148200000Y-92300000D03*
X146500000Y-90400000D03*
X139300000Y-84500000D03*
X143500000Y-83900000D03*
X148900000Y-90100000D03*
X135800000Y-97600000D03*
X135600000Y-94000000D03*
X149000000Y-109500000D03*
X156000000Y-111000000D03*
X164000000Y-108000000D03*
X166000000Y-102700000D03*
X164700000Y-103800000D03*
X160200000Y-111173539D03*
X129000000Y-107000000D03*
X150500000Y-98700000D03*
X159000000Y-103900000D03*
X152100000Y-105400000D03*
X169000000Y-113000000D03*
X169000000Y-105000000D03*
X139000000Y-67000000D03*
X134000000Y-75000000D03*
X136000000Y-70000000D03*
X151000000Y-75500000D03*
X147000000Y-75500000D03*
X132500000Y-70000000D03*
X148000000Y-82000000D03*
X144050000Y-91630000D03*
X136500000Y-90500000D03*
X136500000Y-101000000D03*
X145908786Y-93736605D03*
X148250000Y-96150000D03*
X143450000Y-98500000D03*
X154579293Y-91156952D03*
X154000000Y-92900000D03*
X158100000Y-100100000D03*
X165800000Y-100200000D03*
X149500000Y-68899996D03*
X150400000Y-68900000D03*
X136949988Y-98900000D03*
X121000000Y-93000000D03*
X121000000Y-86000000D03*
X121000000Y-79000000D03*
X133000000Y-66000000D03*
X169000000Y-90000000D03*
X169000000Y-98000000D03*
X134000000Y-111000000D03*
X129000000Y-101000000D03*
X153000000Y-72200000D03*
X165847691Y-86802300D03*
X165847692Y-86802301D03*
X167500000Y-102500000D03*
X167500000Y-101500026D03*
X162500000Y-87500000D03*
X142500000Y-97000000D03*
X158124997Y-85823671D03*
X136441791Y-84412819D03*
X153200000Y-111400000D03*
X164549989Y-111900000D03*
X142500000Y-109000000D03*
X148000000Y-111200000D03*
X165000000Y-75500000D03*
X143199989Y-101000000D03*
X159100000Y-111100000D03*
X161000000Y-106600000D03*
X164119208Y-106108222D03*
X141342075Y-111249990D03*
X150000000Y-111000000D03*
X124000000Y-117400000D03*
X162300000Y-114000000D03*
X156324990Y-98356338D03*
X163175010Y-94104871D03*
X147100000Y-69500000D03*
X163800000Y-115000000D03*
X130600000Y-114800000D03*
X137000000Y-106900000D03*
X154348732Y-102799992D03*
X154700000Y-96700000D03*
X158025021Y-98958706D03*
X163086653Y-100167957D03*
X165000000Y-110000000D03*
X142600000Y-90500000D03*
X139500000Y-83000000D03*
X131900000Y-87600000D03*
X152100013Y-101700000D03*
X151200000Y-101700000D03*
X152152092Y-102701521D03*
X152998721Y-103006876D03*
X152868504Y-98224095D03*
X156900000Y-91474985D03*
X157524021Y-92956553D03*
X153176922Y-99422312D03*
X155258398Y-100303788D03*
X154427873Y-105326727D03*
X155500000Y-105200000D03*
X156100000Y-87900000D03*
X155000000Y-93000006D03*
X154275026Y-100332551D03*
X159000000Y-102375023D03*
D42*
X144900000Y-74150000D02*
X144900000Y-74400000D01*
X149700000Y-72200000D02*
X146850000Y-72200000D01*
X146850000Y-72200000D02*
X144900000Y-74150000D01*
X150000000Y-71900000D02*
X149700000Y-72200000D01*
X150000000Y-70550000D02*
X150000000Y-71900000D01*
X141900000Y-74400000D02*
X141000000Y-73500000D01*
X140230000Y-72730000D02*
X141000000Y-73500000D01*
X137200000Y-72730000D02*
X140230000Y-72730000D01*
X140500000Y-74000000D02*
X141000000Y-73500000D01*
X137200000Y-74000000D02*
X140500000Y-74000000D01*
X137200000Y-75270000D02*
X140030000Y-75270000D01*
X141000000Y-74300000D02*
X141000000Y-73500000D01*
X140030000Y-75270000D02*
X141000000Y-74300000D01*
D43*
X146850000Y-72185002D02*
X146850000Y-72200000D01*
X145464998Y-70800000D02*
X146850000Y-72185002D01*
X144900000Y-70800000D02*
X145464998Y-70800000D01*
X150000000Y-71900000D02*
X150000000Y-72000000D01*
X150000000Y-72000000D02*
X150500000Y-72500000D01*
X143100000Y-73400000D02*
X143100000Y-74400000D01*
D42*
X144900000Y-74400000D02*
X143100000Y-74400000D01*
X143100000Y-74400000D02*
X141900000Y-74400000D01*
D43*
X144900000Y-67000000D02*
X145200000Y-67000000D01*
X145200000Y-67000000D02*
X146000000Y-67800000D01*
D44*
X131500000Y-93750000D02*
X126500000Y-93750000D01*
X126500000Y-93750000D02*
X123750000Y-93750000D01*
D43*
X139300000Y-84500000D02*
X138805026Y-84500000D01*
X138805026Y-84500000D02*
X137705026Y-83400000D01*
X137705026Y-83400000D02*
X136500000Y-83400000D01*
X135000000Y-84900000D02*
X135000000Y-86000000D01*
X136500000Y-83400000D02*
X135000000Y-84900000D01*
X136850000Y-94000000D02*
X135600000Y-94000000D01*
X155800000Y-121450000D02*
X155800000Y-117900000D01*
X155800000Y-122100000D02*
X155800000Y-121450000D01*
X156500000Y-116550000D02*
X157375000Y-116550000D01*
X157375000Y-116550000D02*
X158000000Y-116550000D01*
X155800000Y-117250000D02*
X156500000Y-116550000D01*
X155800000Y-117900000D02*
X155800000Y-117250000D01*
X158000000Y-116550000D02*
X158000000Y-113500000D01*
X164000000Y-118900000D02*
X164000000Y-119050000D01*
X166710001Y-119825001D02*
X167000000Y-119535002D01*
X164775001Y-119825001D02*
X166710001Y-119825001D01*
X164000000Y-119050000D02*
X164775001Y-119825001D01*
X130800000Y-122100000D02*
X130800000Y-117900000D01*
X126000000Y-118900000D02*
X126000000Y-113000000D01*
X135800000Y-117900000D02*
X135800000Y-122100000D01*
X135600000Y-122950000D02*
X133125000Y-122950000D01*
X133125000Y-122950000D02*
X132500000Y-122950000D01*
X135800000Y-122750000D02*
X135600000Y-122950000D01*
X135800000Y-122100000D02*
X135800000Y-122750000D01*
X131650000Y-122950000D02*
X130800000Y-122100000D01*
X132500000Y-122950000D02*
X131650000Y-122950000D01*
X130800000Y-115563590D02*
X131500000Y-114863590D01*
X131500000Y-114863590D02*
X131500000Y-113000000D01*
X130800000Y-117900000D02*
X130800000Y-115563590D01*
X161000000Y-110373539D02*
X160200000Y-111173539D01*
X161000000Y-110200000D02*
X161000000Y-110373539D01*
X148300000Y-123175000D02*
X147675000Y-123800000D01*
X148300000Y-122950000D02*
X148300000Y-123175000D01*
X142564998Y-123800000D02*
X142274999Y-123510001D01*
X147675000Y-123800000D02*
X142564998Y-123800000D01*
X142274999Y-121924999D02*
X142274999Y-121900000D01*
X142350000Y-122000000D02*
X142274999Y-121924999D01*
X143350000Y-122000000D02*
X142350000Y-122000000D01*
X142274999Y-123510001D02*
X142274999Y-121900000D01*
X142675001Y-110475001D02*
X142400000Y-110200000D01*
X142675001Y-113996003D02*
X142675001Y-110475001D01*
X144100000Y-115421002D02*
X142675001Y-113996003D01*
X142274999Y-121900000D02*
X142274999Y-120425001D01*
X144100000Y-118600000D02*
X144100000Y-115421002D01*
X142274999Y-120425001D02*
X144100000Y-118600000D01*
X151750000Y-93500000D02*
X152450000Y-92800000D01*
X151750000Y-94850000D02*
X151750000Y-93500000D01*
X152450000Y-91550000D02*
X152750000Y-91250000D01*
X152450000Y-92800000D02*
X152450000Y-91550000D01*
X144175000Y-94325000D02*
X144800000Y-94950000D01*
X143300000Y-94325000D02*
X144175000Y-94325000D01*
X145558787Y-94086604D02*
X145908786Y-93736605D01*
X145000000Y-94950000D02*
X145000000Y-94645391D01*
X145000000Y-94645391D02*
X145558787Y-94086604D01*
X146800000Y-95850000D02*
X147950000Y-95850000D01*
X147950000Y-95850000D02*
X148250000Y-96150000D01*
X146400000Y-102750000D02*
X146100000Y-103050000D01*
X148850000Y-102750000D02*
X146400000Y-102750000D01*
X145250000Y-103050000D02*
X144500000Y-102300000D01*
X146100000Y-103050000D02*
X145250000Y-103050000D01*
X143450000Y-100135002D02*
X143450000Y-98500000D01*
X146800000Y-101350000D02*
X144664998Y-101350000D01*
X144664998Y-101350000D02*
X143450000Y-100135002D01*
X151750000Y-108750000D02*
X151050000Y-109450000D01*
X151750000Y-107150000D02*
X151750000Y-108750000D01*
X158250000Y-108700000D02*
X157550000Y-109400000D01*
X158250000Y-107150000D02*
X158250000Y-108700000D01*
X162800000Y-97750000D02*
X161150000Y-97750000D01*
X163500000Y-98450000D02*
X162800000Y-97750000D01*
X164700000Y-98450000D02*
X165000000Y-98750000D01*
X163500000Y-98450000D02*
X164700000Y-98450000D01*
X152450000Y-92800000D02*
X153900000Y-92800000D01*
X153900000Y-92800000D02*
X154000000Y-92900000D01*
X165000000Y-98750000D02*
X165000000Y-99400000D01*
X165000000Y-99400000D02*
X165800000Y-100200000D01*
D45*
X150000000Y-68399996D02*
X149849999Y-68549997D01*
X150000000Y-67450000D02*
X150000000Y-68399996D01*
X149849999Y-68549997D02*
X149500000Y-68899996D01*
X150000000Y-67450000D02*
X150000000Y-68500000D01*
X150000000Y-68500000D02*
X150400000Y-68900000D01*
D43*
X167000000Y-117500000D02*
X165500000Y-116000000D01*
X167000000Y-119535002D02*
X167000000Y-117500000D01*
X165500000Y-116000000D02*
X165500000Y-113500000D01*
X153000000Y-72200000D02*
X153000000Y-71000000D01*
D46*
X152450000Y-67450000D02*
X152700000Y-67200000D01*
X150950000Y-67450000D02*
X152450000Y-67450000D01*
X161400000Y-68400000D02*
X161400000Y-69400000D01*
X144539998Y-68500000D02*
X143849999Y-67810001D01*
X143849999Y-67810001D02*
X143849999Y-66189999D01*
X144900000Y-68500000D02*
X144539998Y-68500000D01*
X158800000Y-65800000D02*
X161400000Y-68400000D01*
X143849999Y-66189999D02*
X144239998Y-65800000D01*
X144239998Y-65800000D02*
X158800000Y-65800000D01*
D44*
X167500000Y-101005052D02*
X167500000Y-101500026D01*
X167500000Y-101500000D02*
X167500000Y-101500026D01*
X167500000Y-102500000D02*
X167500000Y-101500026D01*
D43*
X162500000Y-87500000D02*
X162000000Y-88000000D01*
X162000000Y-88000000D02*
X161500000Y-88000000D01*
D44*
X160500000Y-87000000D02*
X161500000Y-88000000D01*
X161500000Y-88000000D02*
X167500000Y-94000000D01*
X160500000Y-74000000D02*
X160500000Y-86000000D01*
X160500000Y-86000000D02*
X160500000Y-87000000D01*
D43*
X149300000Y-103250000D02*
X148550000Y-103250000D01*
D44*
X167500000Y-94000000D02*
X167500000Y-96200000D01*
X167500000Y-96200000D02*
X167500000Y-101005052D01*
D43*
X167900000Y-111100000D02*
X166000000Y-111100000D01*
X165150000Y-104900000D02*
X165000000Y-105050000D01*
X166300000Y-104900000D02*
X165150000Y-104900000D01*
X167325000Y-102500000D02*
X167500000Y-102500000D01*
X165000000Y-104825000D02*
X167325000Y-102500000D01*
X165000000Y-105050000D02*
X165000000Y-104825000D01*
X150250000Y-85850000D02*
X150300000Y-85800000D01*
X150250000Y-91250000D02*
X150250000Y-85850000D01*
X150300000Y-85800000D02*
X150323671Y-85823671D01*
X160323671Y-85823671D02*
X158619971Y-85823671D01*
X157630023Y-85823671D02*
X158124997Y-85823671D01*
X158619971Y-85823671D02*
X158124997Y-85823671D01*
X150323671Y-85823671D02*
X157630023Y-85823671D01*
X160500000Y-86000000D02*
X160323671Y-85823671D01*
X137828972Y-85800000D02*
X136791790Y-84762818D01*
X150300000Y-85800000D02*
X137828972Y-85800000D01*
X136791790Y-84762818D02*
X136441791Y-84412819D01*
X166000000Y-111100000D02*
X165300000Y-111100000D01*
X164549989Y-111850011D02*
X164549989Y-111900000D01*
X165300000Y-111100000D02*
X164549989Y-111850011D01*
X143700000Y-108900000D02*
X142600000Y-108900000D01*
X142600000Y-108900000D02*
X142500000Y-109000000D01*
X146400000Y-109050000D02*
X148000000Y-110650000D01*
X148000000Y-111694974D02*
X148000000Y-111200000D01*
X146400000Y-108900000D02*
X146400000Y-109050000D01*
X148000000Y-113571035D02*
X148000000Y-111694974D01*
X148000000Y-110705026D02*
X148000000Y-111200000D01*
X148000000Y-110650000D02*
X148000000Y-110705026D01*
X146000000Y-115571035D02*
X148000000Y-113571035D01*
X142500000Y-100300011D02*
X142849990Y-100650001D01*
X142849990Y-100650001D02*
X143199989Y-101000000D01*
X145000000Y-104750000D02*
X145000000Y-104625000D01*
D46*
X130900000Y-103100000D02*
X121500000Y-112500000D01*
X139000000Y-103100000D02*
X130900000Y-103100000D01*
D43*
X147350000Y-122000000D02*
X148300000Y-121050000D01*
X146850000Y-122000000D02*
X147350000Y-122000000D01*
X146000000Y-118564998D02*
X146000000Y-117800000D01*
X148300000Y-120864998D02*
X146000000Y-118564998D01*
X148300000Y-121050000D02*
X148300000Y-120864998D01*
X146000000Y-117800000D02*
X146000000Y-115571035D01*
X151250000Y-93500000D02*
X150550000Y-92800000D01*
X151250000Y-94850000D02*
X151250000Y-93500000D01*
X150550000Y-91550000D02*
X150250000Y-91250000D01*
X150550000Y-92800000D02*
X150550000Y-91550000D01*
X146375000Y-91250000D02*
X144800000Y-92825000D01*
X144800000Y-92825000D02*
X144800000Y-93050000D01*
X150250000Y-91250000D02*
X146375000Y-91250000D01*
X144175000Y-93675000D02*
X144800000Y-93050000D01*
X143300000Y-93675000D02*
X144175000Y-93675000D01*
X146100000Y-104725000D02*
X146100000Y-104950000D01*
X147575000Y-103250000D02*
X146100000Y-104725000D01*
X148850000Y-103250000D02*
X147575000Y-103250000D01*
X142500000Y-97700000D02*
X142500000Y-96850000D01*
X142500000Y-97000000D02*
X142500000Y-97700000D01*
X142500000Y-97700000D02*
X142500000Y-100300011D01*
X144650000Y-104950000D02*
X144500000Y-104800000D01*
X146100000Y-104950000D02*
X144650000Y-104950000D01*
X143199989Y-101494974D02*
X143199989Y-101000000D01*
X143199989Y-103374989D02*
X143199989Y-101494974D01*
X144500000Y-104675000D02*
X143199989Y-103374989D01*
X144500000Y-104800000D02*
X144500000Y-104675000D01*
X152250000Y-108750000D02*
X152950000Y-109450000D01*
X152250000Y-107150000D02*
X152250000Y-108750000D01*
X152950000Y-111150000D02*
X153200000Y-111400000D01*
X152950000Y-109450000D02*
X152950000Y-111150000D01*
X158750000Y-108700000D02*
X159450000Y-109400000D01*
X158750000Y-107150000D02*
X158750000Y-108700000D01*
X162800000Y-97250000D02*
X163500000Y-96550000D01*
X161150000Y-97250000D02*
X162800000Y-97250000D01*
X164700000Y-96550000D02*
X165000000Y-96250000D01*
X163500000Y-96550000D02*
X164700000Y-96550000D01*
X165000000Y-96250000D02*
X165875000Y-96250000D01*
X167200000Y-96500000D02*
X167500000Y-96200000D01*
X166125000Y-96500000D02*
X167200000Y-96500000D01*
X165875000Y-96250000D02*
X166125000Y-96500000D01*
X159450000Y-109400000D02*
X159450000Y-110750000D01*
X159450000Y-110750000D02*
X159100000Y-111100000D01*
X147300000Y-98250000D02*
X148850000Y-98250000D01*
X146800000Y-97750000D02*
X147300000Y-98250000D01*
X145550000Y-97750000D02*
X145000000Y-97200000D01*
X146800000Y-97750000D02*
X145550000Y-97750000D01*
X147500000Y-98750000D02*
X148850000Y-98750000D01*
X146800000Y-99450000D02*
X147500000Y-98750000D01*
X145350000Y-99450000D02*
X145000000Y-99800000D01*
X146800000Y-99450000D02*
X145350000Y-99450000D01*
X161000000Y-108300000D02*
X161000000Y-106600000D01*
X161000000Y-107450000D02*
X157025002Y-103475002D01*
X152250000Y-100250000D02*
X149300000Y-100250000D01*
X153673722Y-101673722D02*
X152250000Y-100250000D01*
X153673722Y-103172726D02*
X153673722Y-101673722D01*
X161000000Y-108300000D02*
X161000000Y-107450000D01*
X153975998Y-103475002D02*
X153673722Y-103172726D01*
X157025002Y-103475002D02*
X153975998Y-103475002D01*
X167600000Y-104900000D02*
X167600000Y-105150000D01*
X167600000Y-105150000D02*
X166774999Y-105975001D01*
X166774999Y-105975001D02*
X164252429Y-105975001D01*
X164252429Y-105975001D02*
X164119208Y-106108222D01*
X132500000Y-121050000D02*
X132500000Y-118600000D01*
X132500000Y-121050000D02*
X132500000Y-120200000D01*
X140992076Y-111599989D02*
X141342075Y-111249990D01*
X131724999Y-115539999D02*
X132264998Y-115000000D01*
X132264998Y-115000000D02*
X137592065Y-115000000D01*
X132500000Y-118450000D02*
X131724999Y-117674999D01*
X131724999Y-117674999D02*
X131724999Y-115539999D01*
X132500000Y-118600000D02*
X132500000Y-118450000D01*
X137592065Y-115000000D02*
X140992076Y-111599989D01*
X150349999Y-111349999D02*
X150000000Y-111000000D01*
X161700001Y-111060001D02*
X160410003Y-112349999D01*
X161075000Y-104750000D02*
X161075000Y-105175000D01*
X161075000Y-105175000D02*
X161700001Y-105800001D01*
X151349999Y-112349999D02*
X150349999Y-111349999D01*
X161700001Y-105800001D02*
X161700001Y-111060001D01*
X160410003Y-112349999D02*
X151349999Y-112349999D01*
X158000000Y-120900000D02*
X158000000Y-118450000D01*
X162150012Y-105849988D02*
X163100000Y-104900000D01*
X162000000Y-111396413D02*
X162150012Y-111246401D01*
X162000000Y-112500000D02*
X162000000Y-111396413D01*
X158625000Y-118450000D02*
X160000000Y-117075000D01*
X163100000Y-104900000D02*
X162450000Y-104250000D01*
X160000000Y-117075000D02*
X160000000Y-114500000D01*
X162450000Y-104250000D02*
X160700000Y-104250000D01*
X160000000Y-114500000D02*
X162000000Y-112500000D01*
X162150012Y-111246401D02*
X162150012Y-105849988D01*
X158000000Y-118450000D02*
X158625000Y-118450000D01*
X138750000Y-92450000D02*
X138700000Y-92400000D01*
X138750000Y-94000000D02*
X138750000Y-92450000D01*
X138750000Y-95550000D02*
X138700000Y-95600000D01*
X138750000Y-94000000D02*
X138750000Y-95550000D01*
D42*
X137200000Y-68700000D02*
X136500000Y-68000000D01*
X137200000Y-71460000D02*
X137200000Y-68700000D01*
X137000000Y-68500000D02*
X136500000Y-68000000D01*
X141000000Y-68500000D02*
X137000000Y-68500000D01*
D43*
X124000000Y-117400000D02*
X124000000Y-118900000D01*
X162600023Y-106036387D02*
X162600022Y-113099978D01*
X163550009Y-105086401D02*
X162600023Y-106036387D01*
X162600022Y-113099978D02*
X162300000Y-113400000D01*
X162686410Y-103750000D02*
X163550009Y-104613599D01*
X162300000Y-113400000D02*
X162300000Y-113505026D01*
X160700000Y-103750000D02*
X162686410Y-103750000D01*
X162300000Y-113505026D02*
X162300000Y-114000000D01*
X163550009Y-104613599D02*
X163550009Y-105086401D01*
X124000000Y-121100000D02*
X126000000Y-121100000D01*
X162822821Y-103250000D02*
X164000020Y-104427199D01*
X164000020Y-105272801D02*
X163124998Y-106147822D01*
X160700000Y-103250000D02*
X162822821Y-103250000D01*
X164000020Y-104427199D02*
X164000020Y-105272801D01*
X163124998Y-106147822D02*
X163124998Y-115874998D01*
X166000000Y-118750000D02*
X166000000Y-118900000D01*
X163124998Y-115874998D02*
X166000000Y-118750000D01*
X166000000Y-121100000D02*
X164000000Y-121100000D01*
X126500000Y-98750000D02*
X127489949Y-98750000D01*
X127489949Y-98750000D02*
X131500000Y-98750000D01*
X131500000Y-98750000D02*
X134650000Y-95600000D01*
X136650000Y-95600000D02*
X136500000Y-95600000D01*
X137425001Y-96375001D02*
X136650000Y-95600000D01*
X139560001Y-96375001D02*
X137425001Y-96375001D01*
X139625001Y-96310001D02*
X139560001Y-96375001D01*
X139625001Y-94699999D02*
X139625001Y-96310001D01*
X140000000Y-94325000D02*
X139625001Y-94699999D01*
X140700000Y-94325000D02*
X140000000Y-94325000D01*
X134650000Y-95600000D02*
X136500000Y-95600000D01*
X156431328Y-98250000D02*
X156324990Y-98356338D01*
X160700000Y-98250000D02*
X156431328Y-98250000D01*
X158750000Y-95300000D02*
X161979881Y-95300000D01*
X161979881Y-95300000D02*
X162825011Y-94454870D01*
X162825011Y-94454870D02*
X163175010Y-94104871D01*
X126500000Y-96250000D02*
X131500000Y-96250000D01*
X135350000Y-92400000D02*
X131500000Y-96250000D01*
X136650000Y-92400000D02*
X136500000Y-92400000D01*
X137425001Y-91624999D02*
X136650000Y-92400000D01*
X139560001Y-91624999D02*
X137425001Y-91624999D01*
X139625001Y-91689999D02*
X139560001Y-91624999D01*
X139625001Y-93300001D02*
X139625001Y-91689999D01*
X140000000Y-93675000D02*
X139625001Y-93300001D01*
X140700000Y-93675000D02*
X140000000Y-93675000D01*
X135350000Y-92400000D02*
X136500000Y-92400000D01*
D46*
X148800000Y-70800000D02*
X149050000Y-70550000D01*
X147100000Y-70800000D02*
X148800000Y-70800000D01*
D43*
X147100000Y-67750000D02*
X147100000Y-67000000D01*
X147100000Y-68500000D02*
X147100000Y-67750000D01*
X148750000Y-67750000D02*
X149050000Y-67450000D01*
X147100000Y-67750000D02*
X148750000Y-67750000D01*
X147100000Y-68500000D02*
X147100000Y-69500000D01*
X129200000Y-122100000D02*
X129200000Y-121450000D01*
X129200000Y-121450000D02*
X129200000Y-117900000D01*
X166000000Y-107400000D02*
X166300000Y-107100000D01*
X166000000Y-108900000D02*
X166000000Y-107400000D01*
X129200000Y-116200000D02*
X129200000Y-117900000D01*
X130600000Y-114800000D02*
X129200000Y-116200000D01*
X165100996Y-108900000D02*
X163800000Y-110200996D01*
X163800000Y-114505026D02*
X163800000Y-115000000D01*
X163800000Y-110200996D02*
X163800000Y-114505026D01*
X166000000Y-108900000D02*
X165100996Y-108900000D01*
X134200000Y-122100000D02*
X134200000Y-117900000D01*
X133200000Y-116400000D02*
X132500000Y-116400000D01*
X133350000Y-116400000D02*
X133200000Y-116400000D01*
X134200000Y-117250000D02*
X133350000Y-116400000D01*
X134200000Y-117900000D02*
X134200000Y-117250000D01*
X154200000Y-117900000D02*
X154200000Y-122100000D01*
X157300000Y-123100000D02*
X158000000Y-123100000D01*
X154550000Y-123100000D02*
X157300000Y-123100000D01*
X154200000Y-122750000D02*
X154550000Y-123100000D01*
X154200000Y-122100000D02*
X154200000Y-122750000D01*
D46*
X139000000Y-109050000D02*
X139000000Y-106635000D01*
D43*
X137000000Y-106900000D02*
X139000000Y-106900000D01*
X149300000Y-97250000D02*
X150050000Y-97250000D01*
X154348732Y-101548732D02*
X154348732Y-102305018D01*
X154348732Y-102305018D02*
X154348732Y-102799992D01*
X150050000Y-97250000D02*
X154348732Y-101548732D01*
X153850000Y-96700000D02*
X154700000Y-96700000D01*
X153250000Y-94850000D02*
X153250000Y-96100000D01*
X153250000Y-96100000D02*
X153850000Y-96700000D01*
X144600000Y-114000000D02*
X143900000Y-114000000D01*
X144849978Y-114249978D02*
X144600000Y-114000000D01*
X144849978Y-119000022D02*
X144849978Y-114249978D01*
X143350000Y-121000000D02*
X143350000Y-120500000D01*
X143350000Y-120500000D02*
X144849978Y-119000022D01*
X143700000Y-113800000D02*
X143900000Y-114000000D01*
X143700000Y-111100000D02*
X143700000Y-113800000D01*
X144500000Y-111100000D02*
X143700000Y-111100000D01*
X144849978Y-110750022D02*
X144500000Y-111100000D01*
X144849978Y-108178609D02*
X144849978Y-110750022D01*
X157750000Y-104988587D02*
X156816400Y-104054987D01*
X156816400Y-104054987D02*
X151645013Y-104054987D01*
X148350011Y-107349989D02*
X145678598Y-107349989D01*
X157750000Y-106700000D02*
X157750000Y-104988587D01*
X151645013Y-104054987D02*
X148350011Y-107349989D01*
X145678598Y-107349989D02*
X144849978Y-108178609D01*
X146400000Y-113800000D02*
X146200000Y-114000000D01*
X146400000Y-111100000D02*
X146400000Y-113800000D01*
X146850000Y-120500000D02*
X146850000Y-121000000D01*
X145299989Y-114192905D02*
X145299989Y-118949989D01*
X145299989Y-118949989D02*
X146850000Y-120500000D01*
X145492894Y-114000000D02*
X145299989Y-114192905D01*
X146200000Y-114000000D02*
X145492894Y-114000000D01*
X145600000Y-111100000D02*
X146400000Y-111100000D01*
X145299989Y-108365009D02*
X145299989Y-110799989D01*
X157250000Y-105124998D02*
X156630000Y-104504998D01*
X157250000Y-106700000D02*
X157250000Y-105124998D01*
X151831412Y-104504998D02*
X148536411Y-107800000D01*
X145299989Y-110799989D02*
X145600000Y-111100000D01*
X145864998Y-107800000D02*
X145299989Y-108365009D01*
X156630000Y-104504998D02*
X151831412Y-104504998D01*
X148536411Y-107800000D02*
X145864998Y-107800000D01*
X158375020Y-99308705D02*
X158025021Y-98958706D01*
X158816315Y-99750000D02*
X158375020Y-99308705D01*
X160700000Y-99750000D02*
X158816315Y-99750000D01*
X162762652Y-99492956D02*
X163892956Y-99492956D01*
X162505608Y-99750000D02*
X162762652Y-99492956D01*
X161150000Y-99750000D02*
X162505608Y-99750000D01*
X163892956Y-99492956D02*
X165800000Y-101400000D01*
X160700000Y-100250000D02*
X163004610Y-100250000D01*
X163004610Y-100250000D02*
X163086653Y-100167957D01*
X163900000Y-100981304D02*
X163086653Y-100167957D01*
X163900000Y-101400000D02*
X163900000Y-100981304D01*
X166950000Y-108650000D02*
X167200000Y-108900000D01*
X167200000Y-108900000D02*
X167900000Y-108900000D01*
X166950000Y-107100000D02*
X166950000Y-108650000D01*
X167650000Y-110000000D02*
X165000000Y-110000000D01*
X167900000Y-108900000D02*
X167900000Y-109750000D01*
X167900000Y-109750000D02*
X167650000Y-110000000D01*
X143300000Y-93025000D02*
X142600000Y-93025000D01*
X152750000Y-96050000D02*
X152750000Y-95300000D01*
X152750000Y-96386410D02*
X152750000Y-96050000D01*
X152336421Y-96799989D02*
X152750000Y-96386410D01*
X150013596Y-96799989D02*
X152336421Y-96799989D01*
X148138606Y-94924999D02*
X150013596Y-96799989D01*
X145950012Y-95139986D02*
X146164999Y-94924999D01*
X142600000Y-93025000D02*
X142500000Y-93125000D01*
X142500000Y-95313590D02*
X143536421Y-96350011D01*
X143536421Y-96350011D02*
X145596402Y-96350011D01*
X146164999Y-94924999D02*
X148138606Y-94924999D01*
X145950012Y-95996401D02*
X145950012Y-95139986D01*
X145596402Y-96350011D02*
X145950012Y-95996401D01*
X140300000Y-90900000D02*
X142500000Y-93100000D01*
X142500000Y-93125000D02*
X142500000Y-93300000D01*
X142500000Y-93100000D02*
X142500000Y-93300000D01*
X142500000Y-93300000D02*
X142500000Y-95313590D01*
X150025019Y-96175001D02*
X152174999Y-96175001D01*
X152174999Y-96175001D02*
X152250000Y-96100000D01*
X148325006Y-94474988D02*
X150025019Y-96175001D01*
X152250000Y-96100000D02*
X152250000Y-94850000D01*
X147100000Y-94424988D02*
X147100000Y-92950000D01*
X147150000Y-94474988D02*
X147100000Y-94424988D01*
X147150000Y-94474988D02*
X148325006Y-94474988D01*
X145500001Y-94953586D02*
X145978599Y-94474988D01*
X145410002Y-95900000D02*
X145500001Y-95810001D01*
X143750000Y-95900000D02*
X145410002Y-95900000D01*
X145500001Y-95810001D02*
X145500001Y-94953586D01*
X143300000Y-95450000D02*
X143750000Y-95900000D01*
X143300000Y-94975000D02*
X143300000Y-95450000D01*
X145978599Y-94474988D02*
X147150000Y-94474988D01*
X142600000Y-89710000D02*
X143730000Y-88580000D01*
X142600000Y-90500000D02*
X142600000Y-89710000D01*
X139500000Y-83000000D02*
X139150001Y-82650001D01*
X139150001Y-82650001D02*
X136355025Y-82650001D01*
X131900000Y-87105026D02*
X131900000Y-87600000D01*
X136355025Y-82650001D02*
X131900000Y-87105026D01*
X152100013Y-101205026D02*
X152100013Y-101700000D01*
X149300000Y-100750000D02*
X151644987Y-100750000D01*
X151644987Y-100750000D02*
X152100013Y-101205026D01*
X149300000Y-101250000D02*
X150750000Y-101250000D01*
X150850001Y-101350001D02*
X151200000Y-101700000D01*
X150750000Y-101250000D02*
X150850001Y-101350001D01*
X150150998Y-101750000D02*
X151102519Y-102701521D01*
X151102519Y-102701521D02*
X151657118Y-102701521D01*
X149300000Y-101750000D02*
X150150998Y-101750000D01*
X151657118Y-102701521D02*
X152152092Y-102701521D01*
X149300000Y-102250000D02*
X149965841Y-102250000D01*
X151092364Y-103376523D02*
X152629074Y-103376523D01*
X149965841Y-102250000D02*
X151092364Y-103376523D01*
X152629074Y-103376523D02*
X152648722Y-103356875D01*
X152648722Y-103356875D02*
X152998721Y-103006876D01*
X156750000Y-95300000D02*
X156750000Y-96050000D01*
X154575905Y-98224095D02*
X153363478Y-98224095D01*
X153363478Y-98224095D02*
X152868504Y-98224095D01*
X156750000Y-96050000D02*
X154575905Y-98224095D01*
X157250000Y-95300000D02*
X157250000Y-93675001D01*
X156324977Y-92544982D02*
X156900000Y-91969959D01*
X156900000Y-91969959D02*
X156900000Y-91474985D01*
X156324977Y-92749978D02*
X156324977Y-92544982D01*
X157250000Y-93675001D02*
X156324977Y-92749978D01*
X157750000Y-95300000D02*
X157750000Y-93105023D01*
X157601530Y-92956553D02*
X157524021Y-92956553D01*
X157750000Y-93105023D02*
X157601530Y-92956553D01*
X155375924Y-99422312D02*
X153671896Y-99422312D01*
X157203612Y-101250000D02*
X155375924Y-99422312D01*
X153671896Y-99422312D02*
X153176922Y-99422312D01*
X160700000Y-101250000D02*
X157203612Y-101250000D01*
X159900011Y-101700011D02*
X156654621Y-101700011D01*
X155608397Y-100653787D02*
X155258398Y-100303788D01*
X159950000Y-101750000D02*
X159900011Y-101700011D01*
X156654621Y-101700011D02*
X155608397Y-100653787D01*
X160700000Y-101750000D02*
X159950000Y-101750000D01*
X154750000Y-105648854D02*
X154750000Y-106700000D01*
X154427873Y-105326727D02*
X154750000Y-105648854D01*
X155250000Y-105450000D02*
X155250000Y-106700000D01*
X155500000Y-105200000D02*
X155250000Y-105450000D01*
X156100000Y-87900000D02*
X156100000Y-91663589D01*
X156100000Y-91663589D02*
X155349999Y-92413590D01*
X155349999Y-92413590D02*
X155349999Y-92650007D01*
X155349999Y-92650007D02*
X155000000Y-93000006D01*
X154275026Y-100827525D02*
X154275026Y-100332551D01*
X155600011Y-101413600D02*
X154850011Y-101413600D01*
X154275026Y-100838615D02*
X154275026Y-100827525D01*
X157236435Y-103050024D02*
X155600011Y-101413600D01*
X154850011Y-101413600D02*
X154275026Y-100838615D01*
X159324001Y-103050024D02*
X157236435Y-103050024D01*
X159624025Y-102750000D02*
X159324001Y-103050024D01*
X160700000Y-102750000D02*
X159624025Y-102750000D01*
X159125023Y-102250000D02*
X159000000Y-102375023D01*
X160700000Y-102250000D02*
X159125023Y-102250000D01*
X151250000Y-106700000D02*
X151250000Y-107075000D01*
X149300000Y-104250000D02*
X148550000Y-104250000D01*
X141675015Y-105638605D02*
X141675015Y-96661425D01*
X141675015Y-96661425D02*
X141499991Y-96486401D01*
X141499991Y-96486401D02*
X141499991Y-93124991D01*
X141400000Y-93025000D02*
X140700000Y-93025000D01*
X141499991Y-93124991D02*
X141400000Y-93025000D01*
X146800001Y-105810001D02*
X146735001Y-105875001D01*
X146800001Y-104963588D02*
X146800001Y-105810001D01*
X147513589Y-104250000D02*
X146800001Y-104963588D01*
X141911411Y-105875001D02*
X141675015Y-105638605D01*
X148850000Y-104250000D02*
X147513589Y-104250000D01*
X146735001Y-105875001D02*
X141911411Y-105875001D01*
X140700000Y-97150994D02*
X140700000Y-95450000D01*
X141225004Y-105825005D02*
X141225004Y-97675998D01*
X141725011Y-106325012D02*
X141225004Y-105825005D01*
X140700000Y-95450000D02*
X140700000Y-94975000D01*
X146921401Y-106325012D02*
X141725011Y-106325012D01*
X141225004Y-97675998D02*
X140700000Y-97150994D01*
X147250012Y-105996401D02*
X146921401Y-106325012D01*
X149300000Y-104750000D02*
X147650000Y-104750000D01*
X147650000Y-104750000D02*
X147250012Y-105149988D01*
X147250012Y-105149988D02*
X147250012Y-105996401D01*
D46*
X129364360Y-74635000D02*
X128999360Y-75000000D01*
D42*
X128770000Y-75270000D02*
X128000000Y-74500000D01*
X131800000Y-75270000D02*
X128770000Y-75270000D01*
X128500000Y-74000000D02*
X128000000Y-74500000D01*
X131800000Y-74000000D02*
X128500000Y-74000000D01*
X129770000Y-72730000D02*
X128000000Y-74500000D01*
X131800000Y-72730000D02*
X129770000Y-72730000D01*
X131040000Y-71460000D02*
X128000000Y-74500000D01*
X131800000Y-71460000D02*
X131040000Y-71460000D01*
D44*
X131500000Y-91250000D02*
X126500000Y-91250000D01*
X125000000Y-90739949D02*
X125000000Y-76650000D01*
X125510051Y-91250000D02*
X125000000Y-90739949D01*
X126500000Y-91250000D02*
X125510051Y-91250000D01*
X127150000Y-74500000D02*
X128000000Y-74500000D01*
X125000000Y-76650000D02*
X127150000Y-74500000D01*
D46*
X137850000Y-111350000D02*
X139000000Y-111350000D01*
X136450000Y-111350000D02*
X137850000Y-111350000D01*
X133800000Y-108700000D02*
X136450000Y-111350000D01*
X133800000Y-107200000D02*
X133800000Y-108700000D01*
D43*
G36*
X150717654Y-108150000D02*
X150746758Y-108296317D01*
X150829641Y-108420359D01*
X150920998Y-108481402D01*
X150920998Y-108600248D01*
X150762750Y-108442000D01*
X150324089Y-108442000D01*
X150091435Y-108538368D01*
X149913369Y-108716434D01*
X149817000Y-108949088D01*
X149817000Y-109162750D01*
X149975250Y-109321000D01*
X150921000Y-109321000D01*
X150921000Y-109301000D01*
X151179000Y-109301000D01*
X151179000Y-109321000D01*
X151199000Y-109321000D01*
X151199000Y-109579000D01*
X151179000Y-109579000D01*
X151179000Y-110299750D01*
X151337250Y-110458000D01*
X151775911Y-110458000D01*
X152008565Y-110361632D01*
X152186631Y-110183566D01*
X152192055Y-110170472D01*
X152203683Y-110178242D01*
X152350000Y-110207346D01*
X152450000Y-110207346D01*
X152450001Y-111100754D01*
X152440205Y-111150000D01*
X152471989Y-111309784D01*
X152475000Y-111324920D01*
X152475000Y-111544212D01*
X152585374Y-111810680D01*
X152624693Y-111849999D01*
X151557106Y-111849999D01*
X150738374Y-111031268D01*
X150738372Y-111031265D01*
X150725000Y-111017893D01*
X150725000Y-110855788D01*
X150614626Y-110589320D01*
X150483306Y-110458000D01*
X150762750Y-110458000D01*
X150921000Y-110299750D01*
X150921000Y-109579000D01*
X149975250Y-109579000D01*
X149817000Y-109737250D01*
X149817000Y-109950912D01*
X149913369Y-110183566D01*
X150004803Y-110275000D01*
X149855788Y-110275000D01*
X149589320Y-110385374D01*
X149385374Y-110589320D01*
X149275000Y-110855788D01*
X149275000Y-111144212D01*
X149385374Y-111410680D01*
X149589320Y-111614626D01*
X149855788Y-111725000D01*
X150017893Y-111725000D01*
X150031265Y-111738372D01*
X150031268Y-111738374D01*
X150961624Y-112668731D01*
X150989519Y-112710479D01*
X151039481Y-112743862D01*
X151154909Y-112820988D01*
X151349999Y-112859795D01*
X151399245Y-112849999D01*
X160360762Y-112849999D01*
X160410003Y-112859794D01*
X160459244Y-112849999D01*
X160459246Y-112849999D01*
X160605093Y-112820988D01*
X160770483Y-112710479D01*
X160798379Y-112668729D01*
X161500000Y-111967108D01*
X161500000Y-112292893D01*
X159917894Y-113875000D01*
X148398242Y-113875000D01*
X148470989Y-113766125D01*
X148500000Y-113620278D01*
X148500000Y-113620277D01*
X148509795Y-113571036D01*
X148500000Y-113521795D01*
X148500000Y-111725306D01*
X148614626Y-111610680D01*
X148725000Y-111344212D01*
X148725000Y-111055788D01*
X148614626Y-110789320D01*
X148504073Y-110678767D01*
X148509795Y-110650000D01*
X148470989Y-110454910D01*
X148431684Y-110396086D01*
X148360480Y-110289520D01*
X148318733Y-110261626D01*
X147232346Y-109175240D01*
X147232346Y-108300000D01*
X148487169Y-108300000D01*
X148536411Y-108309795D01*
X148585652Y-108300000D01*
X148585654Y-108300000D01*
X148731501Y-108270989D01*
X148896891Y-108160480D01*
X148924788Y-108118729D01*
X150717654Y-106325863D01*
X150717654Y-108150000D01*
X150717654Y-108150000D01*
G37*
X150717654Y-108150000D02*
X150746758Y-108296317D01*
X150829641Y-108420359D01*
X150920998Y-108481402D01*
X150920998Y-108600248D01*
X150762750Y-108442000D01*
X150324089Y-108442000D01*
X150091435Y-108538368D01*
X149913369Y-108716434D01*
X149817000Y-108949088D01*
X149817000Y-109162750D01*
X149975250Y-109321000D01*
X150921000Y-109321000D01*
X150921000Y-109301000D01*
X151179000Y-109301000D01*
X151179000Y-109321000D01*
X151199000Y-109321000D01*
X151199000Y-109579000D01*
X151179000Y-109579000D01*
X151179000Y-110299750D01*
X151337250Y-110458000D01*
X151775911Y-110458000D01*
X152008565Y-110361632D01*
X152186631Y-110183566D01*
X152192055Y-110170472D01*
X152203683Y-110178242D01*
X152350000Y-110207346D01*
X152450000Y-110207346D01*
X152450001Y-111100754D01*
X152440205Y-111150000D01*
X152471989Y-111309784D01*
X152475000Y-111324920D01*
X152475000Y-111544212D01*
X152585374Y-111810680D01*
X152624693Y-111849999D01*
X151557106Y-111849999D01*
X150738374Y-111031268D01*
X150738372Y-111031265D01*
X150725000Y-111017893D01*
X150725000Y-110855788D01*
X150614626Y-110589320D01*
X150483306Y-110458000D01*
X150762750Y-110458000D01*
X150921000Y-110299750D01*
X150921000Y-109579000D01*
X149975250Y-109579000D01*
X149817000Y-109737250D01*
X149817000Y-109950912D01*
X149913369Y-110183566D01*
X150004803Y-110275000D01*
X149855788Y-110275000D01*
X149589320Y-110385374D01*
X149385374Y-110589320D01*
X149275000Y-110855788D01*
X149275000Y-111144212D01*
X149385374Y-111410680D01*
X149589320Y-111614626D01*
X149855788Y-111725000D01*
X150017893Y-111725000D01*
X150031265Y-111738372D01*
X150031268Y-111738374D01*
X150961624Y-112668731D01*
X150989519Y-112710479D01*
X151039481Y-112743862D01*
X151154909Y-112820988D01*
X151349999Y-112859795D01*
X151399245Y-112849999D01*
X160360762Y-112849999D01*
X160410003Y-112859794D01*
X160459244Y-112849999D01*
X160459246Y-112849999D01*
X160605093Y-112820988D01*
X160770483Y-112710479D01*
X160798379Y-112668729D01*
X161500000Y-111967108D01*
X161500000Y-112292893D01*
X159917894Y-113875000D01*
X148398242Y-113875000D01*
X148470989Y-113766125D01*
X148500000Y-113620278D01*
X148500000Y-113620277D01*
X148509795Y-113571036D01*
X148500000Y-113521795D01*
X148500000Y-111725306D01*
X148614626Y-111610680D01*
X148725000Y-111344212D01*
X148725000Y-111055788D01*
X148614626Y-110789320D01*
X148504073Y-110678767D01*
X148509795Y-110650000D01*
X148470989Y-110454910D01*
X148431684Y-110396086D01*
X148360480Y-110289520D01*
X148318733Y-110261626D01*
X147232346Y-109175240D01*
X147232346Y-108300000D01*
X148487169Y-108300000D01*
X148536411Y-108309795D01*
X148585652Y-108300000D01*
X148585654Y-108300000D01*
X148731501Y-108270989D01*
X148896891Y-108160480D01*
X148924788Y-108118729D01*
X150717654Y-106325863D01*
X150717654Y-108150000D01*
G36*
X135546758Y-96196317D02*
X135629641Y-96320359D01*
X135753683Y-96403242D01*
X135900000Y-96432346D01*
X136775239Y-96432346D01*
X137036626Y-96693733D01*
X137064521Y-96735481D01*
X137132631Y-96780990D01*
X137175978Y-96809953D01*
X137146758Y-96853683D01*
X137117654Y-97000000D01*
X137117654Y-100000000D01*
X137146758Y-100146317D01*
X137229641Y-100270359D01*
X137353683Y-100353242D01*
X137500000Y-100382346D01*
X140000000Y-100382346D01*
X140146317Y-100353242D01*
X140270359Y-100270359D01*
X140353242Y-100146317D01*
X140382346Y-100000000D01*
X140382346Y-97540446D01*
X140725005Y-97883106D01*
X140725004Y-105775764D01*
X140715209Y-105825005D01*
X140725004Y-105874246D01*
X140725004Y-105874247D01*
X140754015Y-106020094D01*
X140864524Y-106185485D01*
X140906274Y-106213381D01*
X141336636Y-106643744D01*
X141364531Y-106685492D01*
X141529921Y-106796001D01*
X141655599Y-106821000D01*
X141725011Y-106834807D01*
X141774254Y-106825012D01*
X146872160Y-106825012D01*
X146921401Y-106834807D01*
X146970642Y-106825012D01*
X146970644Y-106825012D01*
X147116491Y-106796001D01*
X147281881Y-106685492D01*
X147309777Y-106643742D01*
X147568744Y-106384776D01*
X147610492Y-106356881D01*
X147721001Y-106191491D01*
X147750012Y-106045644D01*
X147750012Y-106045643D01*
X147759807Y-105996402D01*
X147750012Y-105947161D01*
X147750012Y-105357094D01*
X147828948Y-105278159D01*
X147850000Y-105282346D01*
X149710548Y-105282346D01*
X148142905Y-106849989D01*
X145727841Y-106849989D01*
X145678598Y-106840194D01*
X145629355Y-106849989D01*
X145483508Y-106879000D01*
X145318118Y-106989509D01*
X145290224Y-107031256D01*
X144531248Y-107790233D01*
X144489498Y-107818129D01*
X144378989Y-107983520D01*
X144375745Y-107999830D01*
X144296317Y-107946758D01*
X144150000Y-107917654D01*
X143250000Y-107917654D01*
X143103683Y-107946758D01*
X142979641Y-108029641D01*
X142896758Y-108153683D01*
X142867654Y-108300000D01*
X142867654Y-108367552D01*
X142644212Y-108275000D01*
X142355788Y-108275000D01*
X142089320Y-108385374D01*
X141885374Y-108589320D01*
X141775000Y-108855788D01*
X141775000Y-109144212D01*
X141885374Y-109410680D01*
X142089320Y-109614626D01*
X142355788Y-109725000D01*
X142644212Y-109725000D01*
X142891994Y-109622366D01*
X142896758Y-109646317D01*
X142979641Y-109770359D01*
X143103683Y-109853242D01*
X143250000Y-109882346D01*
X144150000Y-109882346D01*
X144296317Y-109853242D01*
X144349979Y-109817386D01*
X144349979Y-110182614D01*
X144296317Y-110146758D01*
X144150000Y-110117654D01*
X143250000Y-110117654D01*
X143103683Y-110146758D01*
X142979641Y-110229641D01*
X142896758Y-110353683D01*
X142867654Y-110500000D01*
X142867654Y-111700000D01*
X142896758Y-111846317D01*
X142979641Y-111970359D01*
X143103683Y-112053242D01*
X143200000Y-112072401D01*
X143200001Y-113462562D01*
X143158211Y-113504352D01*
X143025000Y-113825952D01*
X143025000Y-113875000D01*
X139424171Y-113875000D01*
X141324182Y-111974990D01*
X141486287Y-111974990D01*
X141752755Y-111864616D01*
X141956701Y-111660670D01*
X142067075Y-111394202D01*
X142067075Y-111105778D01*
X141956701Y-110839310D01*
X141752755Y-110635364D01*
X141486287Y-110524990D01*
X141197863Y-110524990D01*
X140931395Y-110635364D01*
X140727449Y-110839310D01*
X140617075Y-111105778D01*
X140617075Y-111267883D01*
X140032346Y-111852612D01*
X140032346Y-110600000D01*
X140003242Y-110453683D01*
X139920359Y-110329641D01*
X139796317Y-110246758D01*
X139650000Y-110217654D01*
X138350000Y-110217654D01*
X138203683Y-110246758D01*
X138079641Y-110329641D01*
X137996758Y-110453683D01*
X137967654Y-110600000D01*
X137967654Y-110725000D01*
X136708883Y-110725000D01*
X134566228Y-108582346D01*
X134800000Y-108582346D01*
X134946317Y-108553242D01*
X135070359Y-108470359D01*
X135153242Y-108346317D01*
X135182346Y-108200000D01*
X135182346Y-106755788D01*
X136275000Y-106755788D01*
X136275000Y-107044212D01*
X136385374Y-107310680D01*
X136589320Y-107514626D01*
X136855788Y-107625000D01*
X137144212Y-107625000D01*
X137410680Y-107514626D01*
X137525306Y-107400000D01*
X138017654Y-107400000D01*
X138017654Y-107600000D01*
X138036417Y-107694329D01*
X137996758Y-107753683D01*
X137967654Y-107900000D01*
X137967654Y-109400000D01*
X137996758Y-109546317D01*
X138079641Y-109670359D01*
X138203683Y-109753242D01*
X138350000Y-109782346D01*
X139650000Y-109782346D01*
X139796317Y-109753242D01*
X139920359Y-109670359D01*
X140003242Y-109546317D01*
X140032346Y-109400000D01*
X140032346Y-107900000D01*
X140003242Y-107753683D01*
X139963583Y-107694329D01*
X139982346Y-107600000D01*
X139982346Y-106200000D01*
X139953242Y-106053683D01*
X139870359Y-105929641D01*
X139746317Y-105846758D01*
X139600000Y-105817654D01*
X138400000Y-105817654D01*
X138253683Y-105846758D01*
X138129641Y-105929641D01*
X138046758Y-106053683D01*
X138017654Y-106200000D01*
X138017654Y-106400000D01*
X137525306Y-106400000D01*
X137410680Y-106285374D01*
X137144212Y-106175000D01*
X136855788Y-106175000D01*
X136589320Y-106285374D01*
X136385374Y-106489320D01*
X136275000Y-106755788D01*
X135182346Y-106755788D01*
X135182346Y-106200000D01*
X135153242Y-106053683D01*
X135070359Y-105929641D01*
X134946317Y-105846758D01*
X134800000Y-105817654D01*
X132800000Y-105817654D01*
X132653683Y-105846758D01*
X132529641Y-105929641D01*
X132446758Y-106053683D01*
X132417654Y-106200000D01*
X132417654Y-108200000D01*
X132446758Y-108346317D01*
X132529641Y-108470359D01*
X132653683Y-108553242D01*
X132800000Y-108582346D01*
X133175001Y-108582346D01*
X133175001Y-108638440D01*
X133162756Y-108700000D01*
X133211263Y-108943862D01*
X133234749Y-108979011D01*
X133349401Y-109150600D01*
X133401588Y-109185470D01*
X135964529Y-111748412D01*
X135999400Y-111800600D01*
X136176184Y-111918723D01*
X136206137Y-111938737D01*
X136450000Y-111987244D01*
X136511555Y-111975000D01*
X137967654Y-111975000D01*
X137967654Y-112100000D01*
X137996758Y-112246317D01*
X138079641Y-112370359D01*
X138203683Y-112453242D01*
X138350000Y-112482346D01*
X139402612Y-112482346D01*
X138009959Y-113875000D01*
X124319544Y-113875000D01*
X124278875Y-113834331D01*
X123773505Y-113625000D01*
X123226495Y-113625000D01*
X122721125Y-113834331D01*
X122680456Y-113875000D01*
X120425000Y-113875000D01*
X120425000Y-112844487D01*
X120546271Y-113137261D01*
X120862739Y-113453729D01*
X121276224Y-113625000D01*
X121723776Y-113625000D01*
X122137261Y-113453729D01*
X122453729Y-113137261D01*
X122625000Y-112723776D01*
X122625000Y-112276224D01*
X122619921Y-112263961D01*
X131158884Y-103725000D01*
X138017654Y-103725000D01*
X138017654Y-103800000D01*
X138046758Y-103946317D01*
X138129641Y-104070359D01*
X138253683Y-104153242D01*
X138400000Y-104182346D01*
X139600000Y-104182346D01*
X139746317Y-104153242D01*
X139870359Y-104070359D01*
X139953242Y-103946317D01*
X139982346Y-103800000D01*
X139982346Y-102400000D01*
X139953242Y-102253683D01*
X139870359Y-102129641D01*
X139746317Y-102046758D01*
X139600000Y-102017654D01*
X138400000Y-102017654D01*
X138253683Y-102046758D01*
X138129641Y-102129641D01*
X138046758Y-102253683D01*
X138017654Y-102400000D01*
X138017654Y-102475000D01*
X130961553Y-102475000D01*
X130899999Y-102462756D01*
X130838445Y-102475000D01*
X130656137Y-102511263D01*
X130449400Y-102649400D01*
X130414531Y-102701585D01*
X125321000Y-107795118D01*
X125444236Y-107462080D01*
X125419369Y-106812909D01*
X125218782Y-106328647D01*
X124952733Y-106229701D01*
X123982434Y-107200000D01*
X123996576Y-107214142D01*
X123814142Y-107396576D01*
X123800000Y-107382434D01*
X122829701Y-108352733D01*
X122928647Y-108618782D01*
X123537920Y-108844236D01*
X124187091Y-108819369D01*
X124374287Y-108741830D01*
X121736039Y-111380079D01*
X121723776Y-111375000D01*
X121276224Y-111375000D01*
X120862739Y-111546271D01*
X120546271Y-111862739D01*
X120425000Y-112155513D01*
X120425000Y-106937920D01*
X122155764Y-106937920D01*
X122180631Y-107587091D01*
X122381218Y-108071353D01*
X122647267Y-108170299D01*
X123617566Y-107200000D01*
X122647267Y-106229701D01*
X122381218Y-106328647D01*
X122155764Y-106937920D01*
X120425000Y-106937920D01*
X120425000Y-106047267D01*
X122829701Y-106047267D01*
X123800000Y-107017566D01*
X124770299Y-106047267D01*
X124671353Y-105781218D01*
X124062080Y-105555764D01*
X123412909Y-105580631D01*
X122928647Y-105781218D01*
X122829701Y-106047267D01*
X120425000Y-106047267D01*
X120425000Y-102971693D01*
X120710741Y-102971693D01*
X120779006Y-103211831D01*
X121297635Y-103395499D01*
X121847073Y-103366714D01*
X122220994Y-103211831D01*
X122289259Y-102971693D01*
X121500000Y-102182434D01*
X120710741Y-102971693D01*
X120425000Y-102971693D01*
X120425000Y-102759892D01*
X120528307Y-102789259D01*
X121317566Y-102000000D01*
X121682434Y-102000000D01*
X122471693Y-102789259D01*
X122711831Y-102720994D01*
X122895499Y-102202365D01*
X122866714Y-101652927D01*
X122711831Y-101279006D01*
X122471693Y-101210741D01*
X121682434Y-102000000D01*
X121317566Y-102000000D01*
X120528307Y-101210741D01*
X120425000Y-101240108D01*
X120425000Y-100625000D01*
X121311087Y-100625000D01*
X121152927Y-100633286D01*
X120779006Y-100788169D01*
X120710741Y-101028307D01*
X121500000Y-101817566D01*
X122289259Y-101028307D01*
X122220994Y-100788169D01*
X121760249Y-100625000D01*
X134000000Y-100625000D01*
X134047835Y-100615485D01*
X134088388Y-100588388D01*
X134115485Y-100547835D01*
X134125000Y-100500000D01*
X134125000Y-96832107D01*
X134857107Y-96100000D01*
X135527600Y-96100000D01*
X135546758Y-96196317D01*
X135546758Y-96196317D01*
G37*
X135546758Y-96196317D02*
X135629641Y-96320359D01*
X135753683Y-96403242D01*
X135900000Y-96432346D01*
X136775239Y-96432346D01*
X137036626Y-96693733D01*
X137064521Y-96735481D01*
X137132631Y-96780990D01*
X137175978Y-96809953D01*
X137146758Y-96853683D01*
X137117654Y-97000000D01*
X137117654Y-100000000D01*
X137146758Y-100146317D01*
X137229641Y-100270359D01*
X137353683Y-100353242D01*
X137500000Y-100382346D01*
X140000000Y-100382346D01*
X140146317Y-100353242D01*
X140270359Y-100270359D01*
X140353242Y-100146317D01*
X140382346Y-100000000D01*
X140382346Y-97540446D01*
X140725005Y-97883106D01*
X140725004Y-105775764D01*
X140715209Y-105825005D01*
X140725004Y-105874246D01*
X140725004Y-105874247D01*
X140754015Y-106020094D01*
X140864524Y-106185485D01*
X140906274Y-106213381D01*
X141336636Y-106643744D01*
X141364531Y-106685492D01*
X141529921Y-106796001D01*
X141655599Y-106821000D01*
X141725011Y-106834807D01*
X141774254Y-106825012D01*
X146872160Y-106825012D01*
X146921401Y-106834807D01*
X146970642Y-106825012D01*
X146970644Y-106825012D01*
X147116491Y-106796001D01*
X147281881Y-106685492D01*
X147309777Y-106643742D01*
X147568744Y-106384776D01*
X147610492Y-106356881D01*
X147721001Y-106191491D01*
X147750012Y-106045644D01*
X147750012Y-106045643D01*
X147759807Y-105996402D01*
X147750012Y-105947161D01*
X147750012Y-105357094D01*
X147828948Y-105278159D01*
X147850000Y-105282346D01*
X149710548Y-105282346D01*
X148142905Y-106849989D01*
X145727841Y-106849989D01*
X145678598Y-106840194D01*
X145629355Y-106849989D01*
X145483508Y-106879000D01*
X145318118Y-106989509D01*
X145290224Y-107031256D01*
X144531248Y-107790233D01*
X144489498Y-107818129D01*
X144378989Y-107983520D01*
X144375745Y-107999830D01*
X144296317Y-107946758D01*
X144150000Y-107917654D01*
X143250000Y-107917654D01*
X143103683Y-107946758D01*
X142979641Y-108029641D01*
X142896758Y-108153683D01*
X142867654Y-108300000D01*
X142867654Y-108367552D01*
X142644212Y-108275000D01*
X142355788Y-108275000D01*
X142089320Y-108385374D01*
X141885374Y-108589320D01*
X141775000Y-108855788D01*
X141775000Y-109144212D01*
X141885374Y-109410680D01*
X142089320Y-109614626D01*
X142355788Y-109725000D01*
X142644212Y-109725000D01*
X142891994Y-109622366D01*
X142896758Y-109646317D01*
X142979641Y-109770359D01*
X143103683Y-109853242D01*
X143250000Y-109882346D01*
X144150000Y-109882346D01*
X144296317Y-109853242D01*
X144349979Y-109817386D01*
X144349979Y-110182614D01*
X144296317Y-110146758D01*
X144150000Y-110117654D01*
X143250000Y-110117654D01*
X143103683Y-110146758D01*
X142979641Y-110229641D01*
X142896758Y-110353683D01*
X142867654Y-110500000D01*
X142867654Y-111700000D01*
X142896758Y-111846317D01*
X142979641Y-111970359D01*
X143103683Y-112053242D01*
X143200000Y-112072401D01*
X143200001Y-113462562D01*
X143158211Y-113504352D01*
X143025000Y-113825952D01*
X143025000Y-113875000D01*
X139424171Y-113875000D01*
X141324182Y-111974990D01*
X141486287Y-111974990D01*
X141752755Y-111864616D01*
X141956701Y-111660670D01*
X142067075Y-111394202D01*
X142067075Y-111105778D01*
X141956701Y-110839310D01*
X141752755Y-110635364D01*
X141486287Y-110524990D01*
X141197863Y-110524990D01*
X140931395Y-110635364D01*
X140727449Y-110839310D01*
X140617075Y-111105778D01*
X140617075Y-111267883D01*
X140032346Y-111852612D01*
X140032346Y-110600000D01*
X140003242Y-110453683D01*
X139920359Y-110329641D01*
X139796317Y-110246758D01*
X139650000Y-110217654D01*
X138350000Y-110217654D01*
X138203683Y-110246758D01*
X138079641Y-110329641D01*
X137996758Y-110453683D01*
X137967654Y-110600000D01*
X137967654Y-110725000D01*
X136708883Y-110725000D01*
X134566228Y-108582346D01*
X134800000Y-108582346D01*
X134946317Y-108553242D01*
X135070359Y-108470359D01*
X135153242Y-108346317D01*
X135182346Y-108200000D01*
X135182346Y-106755788D01*
X136275000Y-106755788D01*
X136275000Y-107044212D01*
X136385374Y-107310680D01*
X136589320Y-107514626D01*
X136855788Y-107625000D01*
X137144212Y-107625000D01*
X137410680Y-107514626D01*
X137525306Y-107400000D01*
X138017654Y-107400000D01*
X138017654Y-107600000D01*
X138036417Y-107694329D01*
X137996758Y-107753683D01*
X137967654Y-107900000D01*
X137967654Y-109400000D01*
X137996758Y-109546317D01*
X138079641Y-109670359D01*
X138203683Y-109753242D01*
X138350000Y-109782346D01*
X139650000Y-109782346D01*
X139796317Y-109753242D01*
X139920359Y-109670359D01*
X140003242Y-109546317D01*
X140032346Y-109400000D01*
X140032346Y-107900000D01*
X140003242Y-107753683D01*
X139963583Y-107694329D01*
X139982346Y-107600000D01*
X139982346Y-106200000D01*
X139953242Y-106053683D01*
X139870359Y-105929641D01*
X139746317Y-105846758D01*
X139600000Y-105817654D01*
X138400000Y-105817654D01*
X138253683Y-105846758D01*
X138129641Y-105929641D01*
X138046758Y-106053683D01*
X138017654Y-106200000D01*
X138017654Y-106400000D01*
X137525306Y-106400000D01*
X137410680Y-106285374D01*
X137144212Y-106175000D01*
X136855788Y-106175000D01*
X136589320Y-106285374D01*
X136385374Y-106489320D01*
X136275000Y-106755788D01*
X135182346Y-106755788D01*
X135182346Y-106200000D01*
X135153242Y-106053683D01*
X135070359Y-105929641D01*
X134946317Y-105846758D01*
X134800000Y-105817654D01*
X132800000Y-105817654D01*
X132653683Y-105846758D01*
X132529641Y-105929641D01*
X132446758Y-106053683D01*
X132417654Y-106200000D01*
X132417654Y-108200000D01*
X132446758Y-108346317D01*
X132529641Y-108470359D01*
X132653683Y-108553242D01*
X132800000Y-108582346D01*
X133175001Y-108582346D01*
X133175001Y-108638440D01*
X133162756Y-108700000D01*
X133211263Y-108943862D01*
X133234749Y-108979011D01*
X133349401Y-109150600D01*
X133401588Y-109185470D01*
X135964529Y-111748412D01*
X135999400Y-111800600D01*
X136176184Y-111918723D01*
X136206137Y-111938737D01*
X136450000Y-111987244D01*
X136511555Y-111975000D01*
X137967654Y-111975000D01*
X137967654Y-112100000D01*
X137996758Y-112246317D01*
X138079641Y-112370359D01*
X138203683Y-112453242D01*
X138350000Y-112482346D01*
X139402612Y-112482346D01*
X138009959Y-113875000D01*
X124319544Y-113875000D01*
X124278875Y-113834331D01*
X123773505Y-113625000D01*
X123226495Y-113625000D01*
X122721125Y-113834331D01*
X122680456Y-113875000D01*
X120425000Y-113875000D01*
X120425000Y-112844487D01*
X120546271Y-113137261D01*
X120862739Y-113453729D01*
X121276224Y-113625000D01*
X121723776Y-113625000D01*
X122137261Y-113453729D01*
X122453729Y-113137261D01*
X122625000Y-112723776D01*
X122625000Y-112276224D01*
X122619921Y-112263961D01*
X131158884Y-103725000D01*
X138017654Y-103725000D01*
X138017654Y-103800000D01*
X138046758Y-103946317D01*
X138129641Y-104070359D01*
X138253683Y-104153242D01*
X138400000Y-104182346D01*
X139600000Y-104182346D01*
X139746317Y-104153242D01*
X139870359Y-104070359D01*
X139953242Y-103946317D01*
X139982346Y-103800000D01*
X139982346Y-102400000D01*
X139953242Y-102253683D01*
X139870359Y-102129641D01*
X139746317Y-102046758D01*
X139600000Y-102017654D01*
X138400000Y-102017654D01*
X138253683Y-102046758D01*
X138129641Y-102129641D01*
X138046758Y-102253683D01*
X138017654Y-102400000D01*
X138017654Y-102475000D01*
X130961553Y-102475000D01*
X130899999Y-102462756D01*
X130838445Y-102475000D01*
X130656137Y-102511263D01*
X130449400Y-102649400D01*
X130414531Y-102701585D01*
X125321000Y-107795118D01*
X125444236Y-107462080D01*
X125419369Y-106812909D01*
X125218782Y-106328647D01*
X124952733Y-106229701D01*
X123982434Y-107200000D01*
X123996576Y-107214142D01*
X123814142Y-107396576D01*
X123800000Y-107382434D01*
X122829701Y-108352733D01*
X122928647Y-108618782D01*
X123537920Y-108844236D01*
X124187091Y-108819369D01*
X124374287Y-108741830D01*
X121736039Y-111380079D01*
X121723776Y-111375000D01*
X121276224Y-111375000D01*
X120862739Y-111546271D01*
X120546271Y-111862739D01*
X120425000Y-112155513D01*
X120425000Y-106937920D01*
X122155764Y-106937920D01*
X122180631Y-107587091D01*
X122381218Y-108071353D01*
X122647267Y-108170299D01*
X123617566Y-107200000D01*
X122647267Y-106229701D01*
X122381218Y-106328647D01*
X122155764Y-106937920D01*
X120425000Y-106937920D01*
X120425000Y-106047267D01*
X122829701Y-106047267D01*
X123800000Y-107017566D01*
X124770299Y-106047267D01*
X124671353Y-105781218D01*
X124062080Y-105555764D01*
X123412909Y-105580631D01*
X122928647Y-105781218D01*
X122829701Y-106047267D01*
X120425000Y-106047267D01*
X120425000Y-102971693D01*
X120710741Y-102971693D01*
X120779006Y-103211831D01*
X121297635Y-103395499D01*
X121847073Y-103366714D01*
X122220994Y-103211831D01*
X122289259Y-102971693D01*
X121500000Y-102182434D01*
X120710741Y-102971693D01*
X120425000Y-102971693D01*
X120425000Y-102759892D01*
X120528307Y-102789259D01*
X121317566Y-102000000D01*
X121682434Y-102000000D01*
X122471693Y-102789259D01*
X122711831Y-102720994D01*
X122895499Y-102202365D01*
X122866714Y-101652927D01*
X122711831Y-101279006D01*
X122471693Y-101210741D01*
X121682434Y-102000000D01*
X121317566Y-102000000D01*
X120528307Y-101210741D01*
X120425000Y-101240108D01*
X120425000Y-100625000D01*
X121311087Y-100625000D01*
X121152927Y-100633286D01*
X120779006Y-100788169D01*
X120710741Y-101028307D01*
X121500000Y-101817566D01*
X122289259Y-101028307D01*
X122220994Y-100788169D01*
X121760249Y-100625000D01*
X134000000Y-100625000D01*
X134047835Y-100615485D01*
X134088388Y-100588388D01*
X134115485Y-100547835D01*
X134125000Y-100500000D01*
X134125000Y-96832107D01*
X134857107Y-96100000D01*
X135527600Y-96100000D01*
X135546758Y-96196317D01*
G36*
X169575001Y-113875000D02*
X167819544Y-113875000D01*
X167778875Y-113834331D01*
X167273505Y-113625000D01*
X166726495Y-113625000D01*
X166221125Y-113834331D01*
X166180456Y-113875000D01*
X164300000Y-113875000D01*
X164300000Y-112581186D01*
X164405777Y-112625000D01*
X164694201Y-112625000D01*
X164960669Y-112514626D01*
X165164615Y-112310680D01*
X165274989Y-112044212D01*
X165274989Y-111963397D01*
X165279641Y-111970359D01*
X165403683Y-112053242D01*
X165550000Y-112082346D01*
X166450000Y-112082346D01*
X166596317Y-112053242D01*
X166720359Y-111970359D01*
X166803242Y-111846317D01*
X166832346Y-111700000D01*
X166832346Y-111600000D01*
X167067654Y-111600000D01*
X167067654Y-111700000D01*
X167096758Y-111846317D01*
X167179641Y-111970359D01*
X167303683Y-112053242D01*
X167450000Y-112082346D01*
X168350000Y-112082346D01*
X168496317Y-112053242D01*
X168620359Y-111970359D01*
X168703242Y-111846317D01*
X168732346Y-111700000D01*
X168732346Y-110500000D01*
X168703242Y-110353683D01*
X168620359Y-110229641D01*
X168496317Y-110146758D01*
X168350000Y-110117654D01*
X168249743Y-110117654D01*
X168260480Y-110110480D01*
X168370989Y-109945090D01*
X168384848Y-109875414D01*
X168496317Y-109853242D01*
X168620359Y-109770359D01*
X168703242Y-109646317D01*
X168732346Y-109500000D01*
X168732346Y-108300000D01*
X168703242Y-108153683D01*
X168620359Y-108029641D01*
X168496317Y-107946758D01*
X168350000Y-107917654D01*
X168327543Y-107917654D01*
X168336631Y-107908566D01*
X168433000Y-107675912D01*
X168433000Y-107387250D01*
X168274750Y-107229000D01*
X167700000Y-107229000D01*
X167700000Y-107249000D01*
X167532346Y-107249000D01*
X167532346Y-106650000D01*
X167503242Y-106503683D01*
X167500000Y-106498831D01*
X167500000Y-106175250D01*
X167700000Y-106175250D01*
X167700000Y-106971000D01*
X168274750Y-106971000D01*
X168433000Y-106812750D01*
X168433000Y-106524088D01*
X168336631Y-106291434D01*
X168158565Y-106113368D01*
X167925911Y-106017000D01*
X167858250Y-106017000D01*
X167700000Y-106175250D01*
X167500000Y-106175250D01*
X167390928Y-106066178D01*
X167724761Y-105732346D01*
X167800000Y-105732346D01*
X167946317Y-105703242D01*
X168070359Y-105620359D01*
X168153242Y-105496317D01*
X168182346Y-105350000D01*
X168182346Y-104450000D01*
X168153242Y-104303683D01*
X168070359Y-104179641D01*
X167946317Y-104096758D01*
X167800000Y-104067654D01*
X167400000Y-104067654D01*
X167253683Y-104096758D01*
X167129641Y-104179641D01*
X167046758Y-104303683D01*
X167017654Y-104450000D01*
X167017654Y-105025239D01*
X166882346Y-105160547D01*
X166882346Y-104450000D01*
X166853242Y-104303683D01*
X166770359Y-104179641D01*
X166646317Y-104096758D01*
X166500000Y-104067654D01*
X166464452Y-104067654D01*
X167199698Y-103332409D01*
X167500000Y-103392142D01*
X167841407Y-103324232D01*
X168130840Y-103130840D01*
X168324232Y-102841408D01*
X168375000Y-102586179D01*
X168375000Y-94086177D01*
X168392142Y-93999999D01*
X168366482Y-93871000D01*
X168324232Y-93658592D01*
X168130840Y-93369160D01*
X168057777Y-93320341D01*
X162869231Y-88131795D01*
X162910680Y-88114626D01*
X163114626Y-87910680D01*
X163225000Y-87644212D01*
X163225000Y-87355788D01*
X163114626Y-87089320D01*
X162910680Y-86885374D01*
X162644212Y-86775000D01*
X162355788Y-86775000D01*
X162089320Y-86885374D01*
X161885374Y-87089320D01*
X161868205Y-87130769D01*
X161395524Y-86658088D01*
X165122691Y-86658088D01*
X165122691Y-86946512D01*
X165233065Y-87212980D01*
X165437012Y-87416927D01*
X165703480Y-87527301D01*
X165991904Y-87527301D01*
X166258372Y-87416927D01*
X166462318Y-87212981D01*
X166572692Y-86946513D01*
X166572692Y-86658089D01*
X166462318Y-86391621D01*
X166258371Y-86187674D01*
X165991903Y-86077300D01*
X165703479Y-86077300D01*
X165437011Y-86187674D01*
X165233065Y-86391620D01*
X165122691Y-86658088D01*
X161395524Y-86658088D01*
X161375000Y-86637564D01*
X161375000Y-77625000D01*
X169575000Y-77625000D01*
X169575001Y-113875000D01*
X169575001Y-113875000D01*
G37*
X169575001Y-113875000D02*
X167819544Y-113875000D01*
X167778875Y-113834331D01*
X167273505Y-113625000D01*
X166726495Y-113625000D01*
X166221125Y-113834331D01*
X166180456Y-113875000D01*
X164300000Y-113875000D01*
X164300000Y-112581186D01*
X164405777Y-112625000D01*
X164694201Y-112625000D01*
X164960669Y-112514626D01*
X165164615Y-112310680D01*
X165274989Y-112044212D01*
X165274989Y-111963397D01*
X165279641Y-111970359D01*
X165403683Y-112053242D01*
X165550000Y-112082346D01*
X166450000Y-112082346D01*
X166596317Y-112053242D01*
X166720359Y-111970359D01*
X166803242Y-111846317D01*
X166832346Y-111700000D01*
X166832346Y-111600000D01*
X167067654Y-111600000D01*
X167067654Y-111700000D01*
X167096758Y-111846317D01*
X167179641Y-111970359D01*
X167303683Y-112053242D01*
X167450000Y-112082346D01*
X168350000Y-112082346D01*
X168496317Y-112053242D01*
X168620359Y-111970359D01*
X168703242Y-111846317D01*
X168732346Y-111700000D01*
X168732346Y-110500000D01*
X168703242Y-110353683D01*
X168620359Y-110229641D01*
X168496317Y-110146758D01*
X168350000Y-110117654D01*
X168249743Y-110117654D01*
X168260480Y-110110480D01*
X168370989Y-109945090D01*
X168384848Y-109875414D01*
X168496317Y-109853242D01*
X168620359Y-109770359D01*
X168703242Y-109646317D01*
X168732346Y-109500000D01*
X168732346Y-108300000D01*
X168703242Y-108153683D01*
X168620359Y-108029641D01*
X168496317Y-107946758D01*
X168350000Y-107917654D01*
X168327543Y-107917654D01*
X168336631Y-107908566D01*
X168433000Y-107675912D01*
X168433000Y-107387250D01*
X168274750Y-107229000D01*
X167700000Y-107229000D01*
X167700000Y-107249000D01*
X167532346Y-107249000D01*
X167532346Y-106650000D01*
X167503242Y-106503683D01*
X167500000Y-106498831D01*
X167500000Y-106175250D01*
X167700000Y-106175250D01*
X167700000Y-106971000D01*
X168274750Y-106971000D01*
X168433000Y-106812750D01*
X168433000Y-106524088D01*
X168336631Y-106291434D01*
X168158565Y-106113368D01*
X167925911Y-106017000D01*
X167858250Y-106017000D01*
X167700000Y-106175250D01*
X167500000Y-106175250D01*
X167390928Y-106066178D01*
X167724761Y-105732346D01*
X167800000Y-105732346D01*
X167946317Y-105703242D01*
X168070359Y-105620359D01*
X168153242Y-105496317D01*
X168182346Y-105350000D01*
X168182346Y-104450000D01*
X168153242Y-104303683D01*
X168070359Y-104179641D01*
X167946317Y-104096758D01*
X167800000Y-104067654D01*
X167400000Y-104067654D01*
X167253683Y-104096758D01*
X167129641Y-104179641D01*
X167046758Y-104303683D01*
X167017654Y-104450000D01*
X167017654Y-105025239D01*
X166882346Y-105160547D01*
X166882346Y-104450000D01*
X166853242Y-104303683D01*
X166770359Y-104179641D01*
X166646317Y-104096758D01*
X166500000Y-104067654D01*
X166464452Y-104067654D01*
X167199698Y-103332409D01*
X167500000Y-103392142D01*
X167841407Y-103324232D01*
X168130840Y-103130840D01*
X168324232Y-102841408D01*
X168375000Y-102586179D01*
X168375000Y-94086177D01*
X168392142Y-93999999D01*
X168366482Y-93871000D01*
X168324232Y-93658592D01*
X168130840Y-93369160D01*
X168057777Y-93320341D01*
X162869231Y-88131795D01*
X162910680Y-88114626D01*
X163114626Y-87910680D01*
X163225000Y-87644212D01*
X163225000Y-87355788D01*
X163114626Y-87089320D01*
X162910680Y-86885374D01*
X162644212Y-86775000D01*
X162355788Y-86775000D01*
X162089320Y-86885374D01*
X161885374Y-87089320D01*
X161868205Y-87130769D01*
X161395524Y-86658088D01*
X165122691Y-86658088D01*
X165122691Y-86946512D01*
X165233065Y-87212980D01*
X165437012Y-87416927D01*
X165703480Y-87527301D01*
X165991904Y-87527301D01*
X166258372Y-87416927D01*
X166462318Y-87212981D01*
X166572692Y-86946513D01*
X166572692Y-86658089D01*
X166462318Y-86391621D01*
X166258371Y-86187674D01*
X165991903Y-86077300D01*
X165703479Y-86077300D01*
X165437011Y-86187674D01*
X165233065Y-86391620D01*
X165122691Y-86658088D01*
X161395524Y-86658088D01*
X161375000Y-86637564D01*
X161375000Y-77625000D01*
X169575000Y-77625000D01*
X169575001Y-113875000D01*
G36*
X156556174Y-108523629D02*
X156413369Y-108666434D01*
X156317000Y-108899088D01*
X156317000Y-109112750D01*
X156475250Y-109271000D01*
X157421000Y-109271000D01*
X157421000Y-109251000D01*
X157679000Y-109251000D01*
X157679000Y-109271000D01*
X157699000Y-109271000D01*
X157699000Y-109529000D01*
X157679000Y-109529000D01*
X157679000Y-110249750D01*
X157837250Y-110408000D01*
X158275911Y-110408000D01*
X158508565Y-110311632D01*
X158686631Y-110133566D01*
X158692055Y-110120472D01*
X158703683Y-110128242D01*
X158850000Y-110157346D01*
X158950001Y-110157346D01*
X158950001Y-110377397D01*
X158689320Y-110485374D01*
X158485374Y-110689320D01*
X158375000Y-110955788D01*
X158375000Y-111244212D01*
X158485374Y-111510680D01*
X158689320Y-111714626D01*
X158955788Y-111825000D01*
X159244212Y-111825000D01*
X159510680Y-111714626D01*
X159714626Y-111510680D01*
X159825000Y-111244212D01*
X159825000Y-111088749D01*
X159920989Y-110945090D01*
X159950000Y-110799243D01*
X159959795Y-110750000D01*
X159950000Y-110700757D01*
X159950000Y-110157346D01*
X160050000Y-110157346D01*
X160196317Y-110128242D01*
X160281985Y-110071000D01*
X160871000Y-110071000D01*
X160871000Y-110051000D01*
X161129000Y-110051000D01*
X161129000Y-110071000D01*
X161149000Y-110071000D01*
X161149000Y-110329000D01*
X161129000Y-110329000D01*
X161129000Y-110349000D01*
X160871000Y-110349000D01*
X160871000Y-110329000D01*
X160150250Y-110329000D01*
X159992000Y-110487250D01*
X159992000Y-110925911D01*
X160088368Y-111158565D01*
X160266434Y-111336631D01*
X160499088Y-111433000D01*
X160619896Y-111433000D01*
X160202897Y-111849999D01*
X153775307Y-111849999D01*
X153814626Y-111810680D01*
X153925000Y-111544212D01*
X153925000Y-111255788D01*
X153814626Y-110989320D01*
X153610680Y-110785374D01*
X153450000Y-110718819D01*
X153450000Y-110207346D01*
X153550000Y-110207346D01*
X153696317Y-110178242D01*
X153820359Y-110095359D01*
X153903242Y-109971317D01*
X153932346Y-109825000D01*
X153932346Y-109687250D01*
X156317000Y-109687250D01*
X156317000Y-109900912D01*
X156413369Y-110133566D01*
X156591435Y-110311632D01*
X156824089Y-110408000D01*
X157262750Y-110408000D01*
X157421000Y-110249750D01*
X157421000Y-109529000D01*
X156475250Y-109529000D01*
X156317000Y-109687250D01*
X153932346Y-109687250D01*
X153932346Y-109075000D01*
X153903242Y-108928683D01*
X153820359Y-108804641D01*
X153696317Y-108721758D01*
X153550000Y-108692654D01*
X152899760Y-108692654D01*
X152750000Y-108542894D01*
X152750000Y-108532346D01*
X152900000Y-108532346D01*
X153000000Y-108512455D01*
X153100000Y-108532346D01*
X153400000Y-108532346D01*
X153500000Y-108512455D01*
X153600000Y-108532346D01*
X153900000Y-108532346D01*
X154000000Y-108512455D01*
X154100000Y-108532346D01*
X154400000Y-108532346D01*
X154500000Y-108512455D01*
X154600000Y-108532346D01*
X154900000Y-108532346D01*
X155000000Y-108512455D01*
X155100000Y-108532346D01*
X155400000Y-108532346D01*
X155500000Y-108512455D01*
X155600000Y-108532346D01*
X155900000Y-108532346D01*
X156000000Y-108512455D01*
X156100000Y-108532346D01*
X156400000Y-108532346D01*
X156500000Y-108512455D01*
X156556174Y-108523629D01*
X156556174Y-108523629D01*
G37*
X156556174Y-108523629D02*
X156413369Y-108666434D01*
X156317000Y-108899088D01*
X156317000Y-109112750D01*
X156475250Y-109271000D01*
X157421000Y-109271000D01*
X157421000Y-109251000D01*
X157679000Y-109251000D01*
X157679000Y-109271000D01*
X157699000Y-109271000D01*
X157699000Y-109529000D01*
X157679000Y-109529000D01*
X157679000Y-110249750D01*
X157837250Y-110408000D01*
X158275911Y-110408000D01*
X158508565Y-110311632D01*
X158686631Y-110133566D01*
X158692055Y-110120472D01*
X158703683Y-110128242D01*
X158850000Y-110157346D01*
X158950001Y-110157346D01*
X158950001Y-110377397D01*
X158689320Y-110485374D01*
X158485374Y-110689320D01*
X158375000Y-110955788D01*
X158375000Y-111244212D01*
X158485374Y-111510680D01*
X158689320Y-111714626D01*
X158955788Y-111825000D01*
X159244212Y-111825000D01*
X159510680Y-111714626D01*
X159714626Y-111510680D01*
X159825000Y-111244212D01*
X159825000Y-111088749D01*
X159920989Y-110945090D01*
X159950000Y-110799243D01*
X159959795Y-110750000D01*
X159950000Y-110700757D01*
X159950000Y-110157346D01*
X160050000Y-110157346D01*
X160196317Y-110128242D01*
X160281985Y-110071000D01*
X160871000Y-110071000D01*
X160871000Y-110051000D01*
X161129000Y-110051000D01*
X161129000Y-110071000D01*
X161149000Y-110071000D01*
X161149000Y-110329000D01*
X161129000Y-110329000D01*
X161129000Y-110349000D01*
X160871000Y-110349000D01*
X160871000Y-110329000D01*
X160150250Y-110329000D01*
X159992000Y-110487250D01*
X159992000Y-110925911D01*
X160088368Y-111158565D01*
X160266434Y-111336631D01*
X160499088Y-111433000D01*
X160619896Y-111433000D01*
X160202897Y-111849999D01*
X153775307Y-111849999D01*
X153814626Y-111810680D01*
X153925000Y-111544212D01*
X153925000Y-111255788D01*
X153814626Y-110989320D01*
X153610680Y-110785374D01*
X153450000Y-110718819D01*
X153450000Y-110207346D01*
X153550000Y-110207346D01*
X153696317Y-110178242D01*
X153820359Y-110095359D01*
X153903242Y-109971317D01*
X153932346Y-109825000D01*
X153932346Y-109687250D01*
X156317000Y-109687250D01*
X156317000Y-109900912D01*
X156413369Y-110133566D01*
X156591435Y-110311632D01*
X156824089Y-110408000D01*
X157262750Y-110408000D01*
X157421000Y-110249750D01*
X157421000Y-109529000D01*
X156475250Y-109529000D01*
X156317000Y-109687250D01*
X153932346Y-109687250D01*
X153932346Y-109075000D01*
X153903242Y-108928683D01*
X153820359Y-108804641D01*
X153696317Y-108721758D01*
X153550000Y-108692654D01*
X152899760Y-108692654D01*
X152750000Y-108542894D01*
X152750000Y-108532346D01*
X152900000Y-108532346D01*
X153000000Y-108512455D01*
X153100000Y-108532346D01*
X153400000Y-108532346D01*
X153500000Y-108512455D01*
X153600000Y-108532346D01*
X153900000Y-108532346D01*
X154000000Y-108512455D01*
X154100000Y-108532346D01*
X154400000Y-108532346D01*
X154500000Y-108512455D01*
X154600000Y-108532346D01*
X154900000Y-108532346D01*
X155000000Y-108512455D01*
X155100000Y-108532346D01*
X155400000Y-108532346D01*
X155500000Y-108512455D01*
X155600000Y-108532346D01*
X155900000Y-108532346D01*
X156000000Y-108512455D01*
X156100000Y-108532346D01*
X156400000Y-108532346D01*
X156500000Y-108512455D01*
X156556174Y-108523629D01*
G36*
X163708528Y-106722848D02*
X163974996Y-106833222D01*
X164263420Y-106833222D01*
X164292927Y-106821000D01*
X164871000Y-106821000D01*
X164871000Y-106801000D01*
X165129000Y-106801000D01*
X165129000Y-106821000D01*
X165149000Y-106821000D01*
X165149000Y-107079000D01*
X165129000Y-107079000D01*
X165129000Y-108024750D01*
X165221261Y-108117011D01*
X165196758Y-108153683D01*
X165167654Y-108300000D01*
X165167654Y-108400000D01*
X165150236Y-108400000D01*
X165100995Y-108390205D01*
X165051754Y-108400000D01*
X165051753Y-108400000D01*
X164905906Y-108429011D01*
X164740516Y-108539520D01*
X164712622Y-108581267D01*
X163624998Y-109668892D01*
X163624998Y-107237250D01*
X163992000Y-107237250D01*
X163992000Y-107675911D01*
X164088368Y-107908565D01*
X164266434Y-108086631D01*
X164499088Y-108183000D01*
X164712750Y-108183000D01*
X164871000Y-108024750D01*
X164871000Y-107079000D01*
X164150250Y-107079000D01*
X163992000Y-107237250D01*
X163624998Y-107237250D01*
X163624998Y-106639318D01*
X163708528Y-106722848D01*
X163708528Y-106722848D01*
G37*
X163708528Y-106722848D02*
X163974996Y-106833222D01*
X164263420Y-106833222D01*
X164292927Y-106821000D01*
X164871000Y-106821000D01*
X164871000Y-106801000D01*
X165129000Y-106801000D01*
X165129000Y-106821000D01*
X165149000Y-106821000D01*
X165149000Y-107079000D01*
X165129000Y-107079000D01*
X165129000Y-108024750D01*
X165221261Y-108117011D01*
X165196758Y-108153683D01*
X165167654Y-108300000D01*
X165167654Y-108400000D01*
X165150236Y-108400000D01*
X165100995Y-108390205D01*
X165051754Y-108400000D01*
X165051753Y-108400000D01*
X164905906Y-108429011D01*
X164740516Y-108539520D01*
X164712622Y-108581267D01*
X163624998Y-109668892D01*
X163624998Y-107237250D01*
X163992000Y-107237250D01*
X163992000Y-107675911D01*
X164088368Y-107908565D01*
X164266434Y-108086631D01*
X164499088Y-108183000D01*
X164712750Y-108183000D01*
X164871000Y-108024750D01*
X164871000Y-107079000D01*
X164150250Y-107079000D01*
X163992000Y-107237250D01*
X163624998Y-107237250D01*
X163624998Y-106639318D01*
X163708528Y-106722848D01*
G36*
X159767654Y-103400000D02*
X159787545Y-103500000D01*
X159767654Y-103600000D01*
X159767654Y-103900000D01*
X159787545Y-104000000D01*
X159767654Y-104100000D01*
X159767654Y-104400000D01*
X159787545Y-104500000D01*
X159767654Y-104600000D01*
X159767654Y-104900000D01*
X159796758Y-105046317D01*
X159879641Y-105170359D01*
X160003683Y-105253242D01*
X160150000Y-105282346D01*
X160586558Y-105282346D01*
X160604012Y-105370090D01*
X160714521Y-105535480D01*
X160756268Y-105563374D01*
X161067893Y-105875000D01*
X160855788Y-105875000D01*
X160589320Y-105985374D01*
X160415900Y-106158794D01*
X157807130Y-103550024D01*
X159274760Y-103550024D01*
X159324001Y-103559819D01*
X159373242Y-103550024D01*
X159373244Y-103550024D01*
X159519091Y-103521013D01*
X159684481Y-103410504D01*
X159712378Y-103368753D01*
X159767654Y-103313477D01*
X159767654Y-103400000D01*
X159767654Y-103400000D01*
G37*
X159767654Y-103400000D02*
X159787545Y-103500000D01*
X159767654Y-103600000D01*
X159767654Y-103900000D01*
X159787545Y-104000000D01*
X159767654Y-104100000D01*
X159767654Y-104400000D01*
X159787545Y-104500000D01*
X159767654Y-104600000D01*
X159767654Y-104900000D01*
X159796758Y-105046317D01*
X159879641Y-105170359D01*
X160003683Y-105253242D01*
X160150000Y-105282346D01*
X160586558Y-105282346D01*
X160604012Y-105370090D01*
X160714521Y-105535480D01*
X160756268Y-105563374D01*
X161067893Y-105875000D01*
X160855788Y-105875000D01*
X160589320Y-105985374D01*
X160415900Y-106158794D01*
X157807130Y-103550024D01*
X159274760Y-103550024D01*
X159324001Y-103559819D01*
X159373242Y-103550024D01*
X159373244Y-103550024D01*
X159519091Y-103521013D01*
X159684481Y-103410504D01*
X159712378Y-103368753D01*
X159767654Y-103313477D01*
X159767654Y-103400000D01*
G36*
X153702873Y-105182515D02*
X153702873Y-105470939D01*
X153813247Y-105737407D01*
X153843494Y-105767654D01*
X153600000Y-105767654D01*
X153500000Y-105787545D01*
X153400000Y-105767654D01*
X153100000Y-105767654D01*
X153000000Y-105787545D01*
X152900000Y-105767654D01*
X152600000Y-105767654D01*
X152500000Y-105787545D01*
X152416042Y-105770845D01*
X152258565Y-105613368D01*
X152025911Y-105517000D01*
X151983250Y-105517000D01*
X151825000Y-105675250D01*
X151825000Y-105886587D01*
X151750000Y-105998831D01*
X151675000Y-105886587D01*
X151675000Y-105675250D01*
X151521634Y-105521884D01*
X152038519Y-105004998D01*
X153776403Y-105004998D01*
X153702873Y-105182515D01*
X153702873Y-105182515D01*
G37*
X153702873Y-105182515D02*
X153702873Y-105470939D01*
X153813247Y-105737407D01*
X153843494Y-105767654D01*
X153600000Y-105767654D01*
X153500000Y-105787545D01*
X153400000Y-105767654D01*
X153100000Y-105767654D01*
X153000000Y-105787545D01*
X152900000Y-105767654D01*
X152600000Y-105767654D01*
X152500000Y-105787545D01*
X152416042Y-105770845D01*
X152258565Y-105613368D01*
X152025911Y-105517000D01*
X151983250Y-105517000D01*
X151825000Y-105675250D01*
X151825000Y-105886587D01*
X151750000Y-105998831D01*
X151675000Y-105886587D01*
X151675000Y-105675250D01*
X151521634Y-105521884D01*
X152038519Y-105004998D01*
X153776403Y-105004998D01*
X153702873Y-105182515D01*
G36*
X162675973Y-100782583D02*
X162942441Y-100892957D01*
X163104547Y-100892957D01*
X163145831Y-100934241D01*
X163025000Y-101225952D01*
X163025000Y-101574048D01*
X163158211Y-101895648D01*
X163404352Y-102141789D01*
X163725952Y-102275000D01*
X164074048Y-102275000D01*
X164395648Y-102141789D01*
X164641789Y-101895648D01*
X164775000Y-101574048D01*
X164775000Y-101225952D01*
X164673286Y-100980393D01*
X164925000Y-101232107D01*
X164925000Y-101574048D01*
X165058211Y-101895648D01*
X165304352Y-102141789D01*
X165625952Y-102275000D01*
X165974048Y-102275000D01*
X166295648Y-102141789D01*
X166541789Y-101895648D01*
X166625001Y-101694757D01*
X166625000Y-102492893D01*
X165050240Y-104067654D01*
X164625000Y-104067654D01*
X164478683Y-104096758D01*
X164410854Y-104142080D01*
X164360500Y-104066719D01*
X164318753Y-104038825D01*
X163211197Y-102931270D01*
X163183301Y-102889520D01*
X163017911Y-102779011D01*
X162872064Y-102750000D01*
X162872062Y-102750000D01*
X162822821Y-102740205D01*
X162773580Y-102750000D01*
X162532346Y-102750000D01*
X162532346Y-102600000D01*
X162512455Y-102500000D01*
X162532346Y-102400000D01*
X162532346Y-102100000D01*
X162512455Y-102000000D01*
X162532346Y-101900000D01*
X162532346Y-101600000D01*
X162512455Y-101500000D01*
X162532346Y-101400000D01*
X162532346Y-101100000D01*
X162512455Y-100999999D01*
X162532346Y-100900000D01*
X162532346Y-100750000D01*
X162643390Y-100750000D01*
X162675973Y-100782583D01*
X162675973Y-100782583D01*
G37*
X162675973Y-100782583D02*
X162942441Y-100892957D01*
X163104547Y-100892957D01*
X163145831Y-100934241D01*
X163025000Y-101225952D01*
X163025000Y-101574048D01*
X163158211Y-101895648D01*
X163404352Y-102141789D01*
X163725952Y-102275000D01*
X164074048Y-102275000D01*
X164395648Y-102141789D01*
X164641789Y-101895648D01*
X164775000Y-101574048D01*
X164775000Y-101225952D01*
X164673286Y-100980393D01*
X164925000Y-101232107D01*
X164925000Y-101574048D01*
X165058211Y-101895648D01*
X165304352Y-102141789D01*
X165625952Y-102275000D01*
X165974048Y-102275000D01*
X166295648Y-102141789D01*
X166541789Y-101895648D01*
X166625001Y-101694757D01*
X166625000Y-102492893D01*
X165050240Y-104067654D01*
X164625000Y-104067654D01*
X164478683Y-104096758D01*
X164410854Y-104142080D01*
X164360500Y-104066719D01*
X164318753Y-104038825D01*
X163211197Y-102931270D01*
X163183301Y-102889520D01*
X163017911Y-102779011D01*
X162872064Y-102750000D01*
X162872062Y-102750000D01*
X162822821Y-102740205D01*
X162773580Y-102750000D01*
X162532346Y-102750000D01*
X162532346Y-102600000D01*
X162512455Y-102500000D01*
X162532346Y-102400000D01*
X162532346Y-102100000D01*
X162512455Y-102000000D01*
X162532346Y-101900000D01*
X162532346Y-101600000D01*
X162512455Y-101500000D01*
X162532346Y-101400000D01*
X162532346Y-101100000D01*
X162512455Y-100999999D01*
X162532346Y-100900000D01*
X162532346Y-100750000D01*
X162643390Y-100750000D01*
X162675973Y-100782583D01*
G36*
X146229000Y-102921000D02*
X146249000Y-102921000D01*
X146249000Y-103179000D01*
X146229000Y-103179000D01*
X146229000Y-103199000D01*
X145971000Y-103199000D01*
X145971000Y-103179000D01*
X145951000Y-103179000D01*
X145951000Y-102921000D01*
X145971000Y-102921000D01*
X145971000Y-102901000D01*
X146229000Y-102901000D01*
X146229000Y-102921000D01*
X146229000Y-102921000D01*
G37*
X146229000Y-102921000D02*
X146249000Y-102921000D01*
X146249000Y-103179000D01*
X146229000Y-103179000D01*
X146229000Y-103199000D01*
X145971000Y-103199000D01*
X145971000Y-103179000D01*
X145951000Y-103179000D01*
X145951000Y-102921000D01*
X145971000Y-102921000D01*
X145971000Y-102901000D01*
X146229000Y-102901000D01*
X146229000Y-102921000D01*
G36*
X143148046Y-96668743D02*
X143175941Y-96710491D01*
X143341331Y-96821000D01*
X143466964Y-96845990D01*
X143536421Y-96859806D01*
X143585664Y-96850011D01*
X143817654Y-96850011D01*
X143817654Y-97700000D01*
X143846758Y-97846317D01*
X143929641Y-97970359D01*
X144053683Y-98053242D01*
X144200000Y-98082346D01*
X145170722Y-98082346D01*
X145189520Y-98110480D01*
X145354910Y-98220989D01*
X145500757Y-98250000D01*
X145500758Y-98250000D01*
X145549999Y-98259795D01*
X145599240Y-98250000D01*
X146042654Y-98250000D01*
X146042654Y-98350000D01*
X146071758Y-98496317D01*
X146141037Y-98600000D01*
X146071758Y-98703683D01*
X146042654Y-98850000D01*
X146042654Y-98950000D01*
X145951169Y-98950000D01*
X145946317Y-98946758D01*
X145800000Y-98917654D01*
X144200000Y-98917654D01*
X144053683Y-98946758D01*
X143929641Y-99029641D01*
X143846758Y-99153683D01*
X143817654Y-99300000D01*
X143817654Y-100300000D01*
X143846758Y-100446317D01*
X143929641Y-100570359D01*
X144053683Y-100653242D01*
X144200000Y-100682346D01*
X145792000Y-100682346D01*
X145792000Y-101062750D01*
X145950250Y-101221000D01*
X146671000Y-101221000D01*
X146671000Y-101201000D01*
X146929000Y-101201000D01*
X146929000Y-101221000D01*
X146949000Y-101221000D01*
X146949000Y-101479000D01*
X146929000Y-101479000D01*
X146929000Y-101499000D01*
X146671000Y-101499000D01*
X146671000Y-101479000D01*
X145950250Y-101479000D01*
X145792000Y-101637250D01*
X145792000Y-101817000D01*
X145758000Y-101817000D01*
X145758000Y-101424089D01*
X145661632Y-101191435D01*
X145483566Y-101013369D01*
X145250912Y-100917000D01*
X144787250Y-100917000D01*
X144629000Y-101075250D01*
X144629000Y-102171000D01*
X144649000Y-102171000D01*
X144649000Y-102429000D01*
X144629000Y-102429000D01*
X144629000Y-102449000D01*
X144371000Y-102449000D01*
X144371000Y-102429000D01*
X144351000Y-102429000D01*
X144351000Y-102171000D01*
X144371000Y-102171000D01*
X144371000Y-101075250D01*
X144212750Y-100917000D01*
X143924989Y-100917000D01*
X143924989Y-100855788D01*
X143814615Y-100589320D01*
X143610669Y-100385374D01*
X143344201Y-100275000D01*
X143182096Y-100275000D01*
X143000000Y-100092905D01*
X143000000Y-97525306D01*
X143114626Y-97410680D01*
X143225000Y-97144212D01*
X143225000Y-96855788D01*
X143147155Y-96667852D01*
X143148046Y-96668743D01*
X143148046Y-96668743D01*
G37*
X143148046Y-96668743D02*
X143175941Y-96710491D01*
X143341331Y-96821000D01*
X143466964Y-96845990D01*
X143536421Y-96859806D01*
X143585664Y-96850011D01*
X143817654Y-96850011D01*
X143817654Y-97700000D01*
X143846758Y-97846317D01*
X143929641Y-97970359D01*
X144053683Y-98053242D01*
X144200000Y-98082346D01*
X145170722Y-98082346D01*
X145189520Y-98110480D01*
X145354910Y-98220989D01*
X145500757Y-98250000D01*
X145500758Y-98250000D01*
X145549999Y-98259795D01*
X145599240Y-98250000D01*
X146042654Y-98250000D01*
X146042654Y-98350000D01*
X146071758Y-98496317D01*
X146141037Y-98600000D01*
X146071758Y-98703683D01*
X146042654Y-98850000D01*
X146042654Y-98950000D01*
X145951169Y-98950000D01*
X145946317Y-98946758D01*
X145800000Y-98917654D01*
X144200000Y-98917654D01*
X144053683Y-98946758D01*
X143929641Y-99029641D01*
X143846758Y-99153683D01*
X143817654Y-99300000D01*
X143817654Y-100300000D01*
X143846758Y-100446317D01*
X143929641Y-100570359D01*
X144053683Y-100653242D01*
X144200000Y-100682346D01*
X145792000Y-100682346D01*
X145792000Y-101062750D01*
X145950250Y-101221000D01*
X146671000Y-101221000D01*
X146671000Y-101201000D01*
X146929000Y-101201000D01*
X146929000Y-101221000D01*
X146949000Y-101221000D01*
X146949000Y-101479000D01*
X146929000Y-101479000D01*
X146929000Y-101499000D01*
X146671000Y-101499000D01*
X146671000Y-101479000D01*
X145950250Y-101479000D01*
X145792000Y-101637250D01*
X145792000Y-101817000D01*
X145758000Y-101817000D01*
X145758000Y-101424089D01*
X145661632Y-101191435D01*
X145483566Y-101013369D01*
X145250912Y-100917000D01*
X144787250Y-100917000D01*
X144629000Y-101075250D01*
X144629000Y-102171000D01*
X144649000Y-102171000D01*
X144649000Y-102429000D01*
X144629000Y-102429000D01*
X144629000Y-102449000D01*
X144371000Y-102449000D01*
X144371000Y-102429000D01*
X144351000Y-102429000D01*
X144351000Y-102171000D01*
X144371000Y-102171000D01*
X144371000Y-101075250D01*
X144212750Y-100917000D01*
X143924989Y-100917000D01*
X143924989Y-100855788D01*
X143814615Y-100589320D01*
X143610669Y-100385374D01*
X143344201Y-100275000D01*
X143182096Y-100275000D01*
X143000000Y-100092905D01*
X143000000Y-97525306D01*
X143114626Y-97410680D01*
X143225000Y-97144212D01*
X143225000Y-96855788D01*
X143147155Y-96667852D01*
X143148046Y-96668743D01*
G36*
X166075757Y-97000000D02*
X166075758Y-97000000D01*
X166124999Y-97009795D01*
X166174240Y-97000000D01*
X166625000Y-97000000D01*
X166625001Y-100918869D01*
X166625000Y-100918874D01*
X166625000Y-101105241D01*
X166541789Y-100904352D01*
X166295648Y-100658211D01*
X165974048Y-100525000D01*
X165632107Y-100525000D01*
X165129002Y-100021896D01*
X165129002Y-99974752D01*
X165287250Y-100133000D01*
X165750912Y-100133000D01*
X165983566Y-100036631D01*
X166161632Y-99858565D01*
X166258000Y-99625911D01*
X166258000Y-99037250D01*
X166099750Y-98879000D01*
X165129000Y-98879000D01*
X165129000Y-98899000D01*
X164871000Y-98899000D01*
X164871000Y-98879000D01*
X164851000Y-98879000D01*
X164851000Y-98621000D01*
X164871000Y-98621000D01*
X164871000Y-98601000D01*
X165129000Y-98601000D01*
X165129000Y-98621000D01*
X166099750Y-98621000D01*
X166258000Y-98462750D01*
X166258000Y-97874089D01*
X166161632Y-97641435D01*
X165983566Y-97463369D01*
X165750912Y-97367000D01*
X165702150Y-97367000D01*
X165771317Y-97353242D01*
X165895359Y-97270359D01*
X165978242Y-97146317D01*
X166007346Y-97000000D01*
X166007346Y-96986392D01*
X166075757Y-97000000D01*
X166075757Y-97000000D01*
G37*
X166075757Y-97000000D02*
X166075758Y-97000000D01*
X166124999Y-97009795D01*
X166174240Y-97000000D01*
X166625000Y-97000000D01*
X166625001Y-100918869D01*
X166625000Y-100918874D01*
X166625000Y-101105241D01*
X166541789Y-100904352D01*
X166295648Y-100658211D01*
X165974048Y-100525000D01*
X165632107Y-100525000D01*
X165129002Y-100021896D01*
X165129002Y-99974752D01*
X165287250Y-100133000D01*
X165750912Y-100133000D01*
X165983566Y-100036631D01*
X166161632Y-99858565D01*
X166258000Y-99625911D01*
X166258000Y-99037250D01*
X166099750Y-98879000D01*
X165129000Y-98879000D01*
X165129000Y-98899000D01*
X164871000Y-98899000D01*
X164871000Y-98879000D01*
X164851000Y-98879000D01*
X164851000Y-98621000D01*
X164871000Y-98621000D01*
X164871000Y-98601000D01*
X165129000Y-98601000D01*
X165129000Y-98621000D01*
X166099750Y-98621000D01*
X166258000Y-98462750D01*
X166258000Y-97874089D01*
X166161632Y-97641435D01*
X165983566Y-97463369D01*
X165750912Y-97367000D01*
X165702150Y-97367000D01*
X165771317Y-97353242D01*
X165895359Y-97270359D01*
X165978242Y-97146317D01*
X166007346Y-97000000D01*
X166007346Y-96986392D01*
X166075757Y-97000000D01*
G36*
X157714317Y-86438297D02*
X157980785Y-86548671D01*
X158269209Y-86548671D01*
X158535677Y-86438297D01*
X158650303Y-86323671D01*
X159625000Y-86323671D01*
X159625001Y-86913818D01*
X159607858Y-87000000D01*
X159668509Y-87304910D01*
X159675769Y-87341408D01*
X159869161Y-87630840D01*
X159942221Y-87679657D01*
X160942219Y-88679656D01*
X160942222Y-88679658D01*
X166625000Y-94362436D01*
X166625001Y-96000000D01*
X166332106Y-96000000D01*
X166263377Y-95931271D01*
X166235480Y-95889520D01*
X166070090Y-95779011D01*
X166007346Y-95766530D01*
X166007346Y-95500000D01*
X165978242Y-95353683D01*
X165895359Y-95229641D01*
X165771317Y-95146758D01*
X165625000Y-95117654D01*
X164375000Y-95117654D01*
X164228683Y-95146758D01*
X164104641Y-95229641D01*
X164021758Y-95353683D01*
X163992654Y-95500000D01*
X163992654Y-95591057D01*
X163875000Y-95567654D01*
X163125000Y-95567654D01*
X162978683Y-95596758D01*
X162854641Y-95679641D01*
X162771758Y-95803683D01*
X162742654Y-95950000D01*
X162742654Y-96600240D01*
X162592894Y-96750000D01*
X162301169Y-96750000D01*
X162296317Y-96746758D01*
X162150000Y-96717654D01*
X160150000Y-96717654D01*
X160003683Y-96746758D01*
X159879641Y-96829641D01*
X159796758Y-96953683D01*
X159770845Y-97083958D01*
X159613368Y-97241435D01*
X159517000Y-97474089D01*
X159517000Y-97516750D01*
X159675250Y-97675000D01*
X159886587Y-97675000D01*
X159998831Y-97750000D01*
X156743958Y-97750000D01*
X156735670Y-97741712D01*
X156469202Y-97631338D01*
X156180778Y-97631338D01*
X155914310Y-97741712D01*
X155710364Y-97945658D01*
X155599990Y-98212126D01*
X155599990Y-98500550D01*
X155710364Y-98767018D01*
X155914310Y-98970964D01*
X156180778Y-99081338D01*
X156469202Y-99081338D01*
X156735670Y-98970964D01*
X156939616Y-98767018D01*
X156946665Y-98750000D01*
X157326735Y-98750000D01*
X157300021Y-98814494D01*
X157300021Y-99102918D01*
X157410395Y-99369386D01*
X157614341Y-99573332D01*
X157880809Y-99683706D01*
X158042914Y-99683706D01*
X158056286Y-99697078D01*
X158056289Y-99697080D01*
X158427940Y-100068732D01*
X158455835Y-100110480D01*
X158621225Y-100220989D01*
X158767072Y-100250000D01*
X158767073Y-100250000D01*
X158816314Y-100259795D01*
X158865555Y-100250000D01*
X159767654Y-100250000D01*
X159767654Y-100400000D01*
X159787545Y-100500000D01*
X159767654Y-100600000D01*
X159767654Y-100750000D01*
X157410719Y-100750000D01*
X155764300Y-99103582D01*
X155736404Y-99061832D01*
X155571014Y-98951323D01*
X155425167Y-98922312D01*
X155425165Y-98922312D01*
X155375924Y-98912517D01*
X155326683Y-98922312D01*
X153702228Y-98922312D01*
X153587602Y-98807686D01*
X153391462Y-98726443D01*
X153393810Y-98724095D01*
X154526664Y-98724095D01*
X154575905Y-98733890D01*
X154625146Y-98724095D01*
X154625148Y-98724095D01*
X154770995Y-98695084D01*
X154936385Y-98584575D01*
X154964282Y-98542825D01*
X157068732Y-96438375D01*
X157110480Y-96410480D01*
X157220989Y-96245090D01*
X157223524Y-96232346D01*
X157400000Y-96232346D01*
X157500000Y-96212455D01*
X157600000Y-96232346D01*
X157900000Y-96232346D01*
X158000000Y-96212455D01*
X158100000Y-96232346D01*
X158400000Y-96232346D01*
X158500000Y-96212455D01*
X158600000Y-96232346D01*
X158900000Y-96232346D01*
X159046317Y-96203242D01*
X159170359Y-96120359D01*
X159253242Y-95996317D01*
X159282346Y-95850000D01*
X159282346Y-95800000D01*
X161930640Y-95800000D01*
X161979881Y-95809795D01*
X162029122Y-95800000D01*
X162029124Y-95800000D01*
X162174971Y-95770989D01*
X162340361Y-95660480D01*
X162368257Y-95618730D01*
X163157117Y-94829871D01*
X163319222Y-94829871D01*
X163585690Y-94719497D01*
X163789636Y-94515551D01*
X163900010Y-94249083D01*
X163900010Y-93960659D01*
X163789636Y-93694191D01*
X163585690Y-93490245D01*
X163319222Y-93379871D01*
X163030798Y-93379871D01*
X162764330Y-93490245D01*
X162560384Y-93694191D01*
X162450010Y-93960659D01*
X162450010Y-94122764D01*
X161772775Y-94800000D01*
X159282346Y-94800000D01*
X159282346Y-93850000D01*
X159253242Y-93703683D01*
X159170359Y-93579641D01*
X159046317Y-93496758D01*
X158900000Y-93467654D01*
X158600000Y-93467654D01*
X158500000Y-93487545D01*
X158400000Y-93467654D01*
X158250000Y-93467654D01*
X158250000Y-93154263D01*
X158259795Y-93105022D01*
X158249021Y-93050859D01*
X158249021Y-92812341D01*
X158138647Y-92545873D01*
X157934701Y-92341927D01*
X157668233Y-92231553D01*
X157379809Y-92231553D01*
X157306173Y-92262054D01*
X157370989Y-92165049D01*
X157400000Y-92019202D01*
X157400000Y-92019201D01*
X157404696Y-91995595D01*
X157514626Y-91885665D01*
X157625000Y-91619197D01*
X157625000Y-91330773D01*
X157514626Y-91064305D01*
X157310680Y-90860359D01*
X157044212Y-90749985D01*
X156755788Y-90749985D01*
X156600000Y-90814514D01*
X156600000Y-88425306D01*
X156714626Y-88310680D01*
X156825000Y-88044212D01*
X156825000Y-87755788D01*
X156714626Y-87489320D01*
X156510680Y-87285374D01*
X156244212Y-87175000D01*
X155955788Y-87175000D01*
X155689320Y-87285374D01*
X155485374Y-87489320D01*
X155375000Y-87755788D01*
X155375000Y-88044212D01*
X155485374Y-88310680D01*
X155600000Y-88425306D01*
X155600001Y-91456481D01*
X155031269Y-92025214D01*
X154989519Y-92053110D01*
X154879010Y-92218501D01*
X154867770Y-92275006D01*
X154855788Y-92275006D01*
X154589320Y-92385380D01*
X154385374Y-92589326D01*
X154275000Y-92855794D01*
X154275000Y-93144218D01*
X154385374Y-93410686D01*
X154452856Y-93478168D01*
X154400000Y-93467654D01*
X154100000Y-93467654D01*
X154000000Y-93487545D01*
X153900000Y-93467654D01*
X153613933Y-93467654D01*
X153683000Y-93300912D01*
X153683000Y-93087250D01*
X153524750Y-92929000D01*
X152579000Y-92929000D01*
X152579000Y-92949000D01*
X152321000Y-92949000D01*
X152321000Y-92929000D01*
X152301000Y-92929000D01*
X152301000Y-92671000D01*
X152321000Y-92671000D01*
X152321000Y-92651000D01*
X152579000Y-92651000D01*
X152579000Y-92671000D01*
X153524750Y-92671000D01*
X153683000Y-92512750D01*
X153683000Y-92484353D01*
X153858565Y-92411632D01*
X154036631Y-92233566D01*
X154133000Y-92000912D01*
X154133000Y-91537250D01*
X153974750Y-91379000D01*
X152879000Y-91379000D01*
X152879000Y-91399000D01*
X152621000Y-91399000D01*
X152621000Y-91379000D01*
X152601000Y-91379000D01*
X152601000Y-91121000D01*
X152621000Y-91121000D01*
X152621000Y-90150250D01*
X152879000Y-90150250D01*
X152879000Y-91121000D01*
X153974750Y-91121000D01*
X154133000Y-90962750D01*
X154133000Y-90499088D01*
X154036631Y-90266434D01*
X153858565Y-90088368D01*
X153625911Y-89992000D01*
X153037250Y-89992000D01*
X152879000Y-90150250D01*
X152621000Y-90150250D01*
X152462750Y-89992000D01*
X151874089Y-89992000D01*
X151641435Y-90088368D01*
X151463369Y-90266434D01*
X151367000Y-90499088D01*
X151367000Y-90547850D01*
X151353242Y-90478683D01*
X151270359Y-90354641D01*
X151146317Y-90271758D01*
X151000000Y-90242654D01*
X150750000Y-90242654D01*
X150750000Y-89549163D01*
X151126224Y-89705000D01*
X151573776Y-89705000D01*
X151987261Y-89533729D01*
X152303729Y-89217261D01*
X152475000Y-88803776D01*
X152475000Y-88356224D01*
X152765000Y-88356224D01*
X152765000Y-88803776D01*
X152936271Y-89217261D01*
X153252739Y-89533729D01*
X153666224Y-89705000D01*
X154113776Y-89705000D01*
X154527261Y-89533729D01*
X154843729Y-89217261D01*
X155015000Y-88803776D01*
X155015000Y-88356224D01*
X154843729Y-87942739D01*
X154527261Y-87626271D01*
X154113776Y-87455000D01*
X153666224Y-87455000D01*
X153252739Y-87626271D01*
X152936271Y-87942739D01*
X152765000Y-88356224D01*
X152475000Y-88356224D01*
X152303729Y-87942739D01*
X151987261Y-87626271D01*
X151573776Y-87455000D01*
X151126224Y-87455000D01*
X150750000Y-87610837D01*
X150750000Y-86323671D01*
X157599691Y-86323671D01*
X157714317Y-86438297D01*
X157714317Y-86438297D01*
G37*
X157714317Y-86438297D02*
X157980785Y-86548671D01*
X158269209Y-86548671D01*
X158535677Y-86438297D01*
X158650303Y-86323671D01*
X159625000Y-86323671D01*
X159625001Y-86913818D01*
X159607858Y-87000000D01*
X159668509Y-87304910D01*
X159675769Y-87341408D01*
X159869161Y-87630840D01*
X159942221Y-87679657D01*
X160942219Y-88679656D01*
X160942222Y-88679658D01*
X166625000Y-94362436D01*
X166625001Y-96000000D01*
X166332106Y-96000000D01*
X166263377Y-95931271D01*
X166235480Y-95889520D01*
X166070090Y-95779011D01*
X166007346Y-95766530D01*
X166007346Y-95500000D01*
X165978242Y-95353683D01*
X165895359Y-95229641D01*
X165771317Y-95146758D01*
X165625000Y-95117654D01*
X164375000Y-95117654D01*
X164228683Y-95146758D01*
X164104641Y-95229641D01*
X164021758Y-95353683D01*
X163992654Y-95500000D01*
X163992654Y-95591057D01*
X163875000Y-95567654D01*
X163125000Y-95567654D01*
X162978683Y-95596758D01*
X162854641Y-95679641D01*
X162771758Y-95803683D01*
X162742654Y-95950000D01*
X162742654Y-96600240D01*
X162592894Y-96750000D01*
X162301169Y-96750000D01*
X162296317Y-96746758D01*
X162150000Y-96717654D01*
X160150000Y-96717654D01*
X160003683Y-96746758D01*
X159879641Y-96829641D01*
X159796758Y-96953683D01*
X159770845Y-97083958D01*
X159613368Y-97241435D01*
X159517000Y-97474089D01*
X159517000Y-97516750D01*
X159675250Y-97675000D01*
X159886587Y-97675000D01*
X159998831Y-97750000D01*
X156743958Y-97750000D01*
X156735670Y-97741712D01*
X156469202Y-97631338D01*
X156180778Y-97631338D01*
X155914310Y-97741712D01*
X155710364Y-97945658D01*
X155599990Y-98212126D01*
X155599990Y-98500550D01*
X155710364Y-98767018D01*
X155914310Y-98970964D01*
X156180778Y-99081338D01*
X156469202Y-99081338D01*
X156735670Y-98970964D01*
X156939616Y-98767018D01*
X156946665Y-98750000D01*
X157326735Y-98750000D01*
X157300021Y-98814494D01*
X157300021Y-99102918D01*
X157410395Y-99369386D01*
X157614341Y-99573332D01*
X157880809Y-99683706D01*
X158042914Y-99683706D01*
X158056286Y-99697078D01*
X158056289Y-99697080D01*
X158427940Y-100068732D01*
X158455835Y-100110480D01*
X158621225Y-100220989D01*
X158767072Y-100250000D01*
X158767073Y-100250000D01*
X158816314Y-100259795D01*
X158865555Y-100250000D01*
X159767654Y-100250000D01*
X159767654Y-100400000D01*
X159787545Y-100500000D01*
X159767654Y-100600000D01*
X159767654Y-100750000D01*
X157410719Y-100750000D01*
X155764300Y-99103582D01*
X155736404Y-99061832D01*
X155571014Y-98951323D01*
X155425167Y-98922312D01*
X155425165Y-98922312D01*
X155375924Y-98912517D01*
X155326683Y-98922312D01*
X153702228Y-98922312D01*
X153587602Y-98807686D01*
X153391462Y-98726443D01*
X153393810Y-98724095D01*
X154526664Y-98724095D01*
X154575905Y-98733890D01*
X154625146Y-98724095D01*
X154625148Y-98724095D01*
X154770995Y-98695084D01*
X154936385Y-98584575D01*
X154964282Y-98542825D01*
X157068732Y-96438375D01*
X157110480Y-96410480D01*
X157220989Y-96245090D01*
X157223524Y-96232346D01*
X157400000Y-96232346D01*
X157500000Y-96212455D01*
X157600000Y-96232346D01*
X157900000Y-96232346D01*
X158000000Y-96212455D01*
X158100000Y-96232346D01*
X158400000Y-96232346D01*
X158500000Y-96212455D01*
X158600000Y-96232346D01*
X158900000Y-96232346D01*
X159046317Y-96203242D01*
X159170359Y-96120359D01*
X159253242Y-95996317D01*
X159282346Y-95850000D01*
X159282346Y-95800000D01*
X161930640Y-95800000D01*
X161979881Y-95809795D01*
X162029122Y-95800000D01*
X162029124Y-95800000D01*
X162174971Y-95770989D01*
X162340361Y-95660480D01*
X162368257Y-95618730D01*
X163157117Y-94829871D01*
X163319222Y-94829871D01*
X163585690Y-94719497D01*
X163789636Y-94515551D01*
X163900010Y-94249083D01*
X163900010Y-93960659D01*
X163789636Y-93694191D01*
X163585690Y-93490245D01*
X163319222Y-93379871D01*
X163030798Y-93379871D01*
X162764330Y-93490245D01*
X162560384Y-93694191D01*
X162450010Y-93960659D01*
X162450010Y-94122764D01*
X161772775Y-94800000D01*
X159282346Y-94800000D01*
X159282346Y-93850000D01*
X159253242Y-93703683D01*
X159170359Y-93579641D01*
X159046317Y-93496758D01*
X158900000Y-93467654D01*
X158600000Y-93467654D01*
X158500000Y-93487545D01*
X158400000Y-93467654D01*
X158250000Y-93467654D01*
X158250000Y-93154263D01*
X158259795Y-93105022D01*
X158249021Y-93050859D01*
X158249021Y-92812341D01*
X158138647Y-92545873D01*
X157934701Y-92341927D01*
X157668233Y-92231553D01*
X157379809Y-92231553D01*
X157306173Y-92262054D01*
X157370989Y-92165049D01*
X157400000Y-92019202D01*
X157400000Y-92019201D01*
X157404696Y-91995595D01*
X157514626Y-91885665D01*
X157625000Y-91619197D01*
X157625000Y-91330773D01*
X157514626Y-91064305D01*
X157310680Y-90860359D01*
X157044212Y-90749985D01*
X156755788Y-90749985D01*
X156600000Y-90814514D01*
X156600000Y-88425306D01*
X156714626Y-88310680D01*
X156825000Y-88044212D01*
X156825000Y-87755788D01*
X156714626Y-87489320D01*
X156510680Y-87285374D01*
X156244212Y-87175000D01*
X155955788Y-87175000D01*
X155689320Y-87285374D01*
X155485374Y-87489320D01*
X155375000Y-87755788D01*
X155375000Y-88044212D01*
X155485374Y-88310680D01*
X155600000Y-88425306D01*
X155600001Y-91456481D01*
X155031269Y-92025214D01*
X154989519Y-92053110D01*
X154879010Y-92218501D01*
X154867770Y-92275006D01*
X154855788Y-92275006D01*
X154589320Y-92385380D01*
X154385374Y-92589326D01*
X154275000Y-92855794D01*
X154275000Y-93144218D01*
X154385374Y-93410686D01*
X154452856Y-93478168D01*
X154400000Y-93467654D01*
X154100000Y-93467654D01*
X154000000Y-93487545D01*
X153900000Y-93467654D01*
X153613933Y-93467654D01*
X153683000Y-93300912D01*
X153683000Y-93087250D01*
X153524750Y-92929000D01*
X152579000Y-92929000D01*
X152579000Y-92949000D01*
X152321000Y-92949000D01*
X152321000Y-92929000D01*
X152301000Y-92929000D01*
X152301000Y-92671000D01*
X152321000Y-92671000D01*
X152321000Y-92651000D01*
X152579000Y-92651000D01*
X152579000Y-92671000D01*
X153524750Y-92671000D01*
X153683000Y-92512750D01*
X153683000Y-92484353D01*
X153858565Y-92411632D01*
X154036631Y-92233566D01*
X154133000Y-92000912D01*
X154133000Y-91537250D01*
X153974750Y-91379000D01*
X152879000Y-91379000D01*
X152879000Y-91399000D01*
X152621000Y-91399000D01*
X152621000Y-91379000D01*
X152601000Y-91379000D01*
X152601000Y-91121000D01*
X152621000Y-91121000D01*
X152621000Y-90150250D01*
X152879000Y-90150250D01*
X152879000Y-91121000D01*
X153974750Y-91121000D01*
X154133000Y-90962750D01*
X154133000Y-90499088D01*
X154036631Y-90266434D01*
X153858565Y-90088368D01*
X153625911Y-89992000D01*
X153037250Y-89992000D01*
X152879000Y-90150250D01*
X152621000Y-90150250D01*
X152462750Y-89992000D01*
X151874089Y-89992000D01*
X151641435Y-90088368D01*
X151463369Y-90266434D01*
X151367000Y-90499088D01*
X151367000Y-90547850D01*
X151353242Y-90478683D01*
X151270359Y-90354641D01*
X151146317Y-90271758D01*
X151000000Y-90242654D01*
X150750000Y-90242654D01*
X150750000Y-89549163D01*
X151126224Y-89705000D01*
X151573776Y-89705000D01*
X151987261Y-89533729D01*
X152303729Y-89217261D01*
X152475000Y-88803776D01*
X152475000Y-88356224D01*
X152765000Y-88356224D01*
X152765000Y-88803776D01*
X152936271Y-89217261D01*
X153252739Y-89533729D01*
X153666224Y-89705000D01*
X154113776Y-89705000D01*
X154527261Y-89533729D01*
X154843729Y-89217261D01*
X155015000Y-88803776D01*
X155015000Y-88356224D01*
X154843729Y-87942739D01*
X154527261Y-87626271D01*
X154113776Y-87455000D01*
X153666224Y-87455000D01*
X153252739Y-87626271D01*
X152936271Y-87942739D01*
X152765000Y-88356224D01*
X152475000Y-88356224D01*
X152303729Y-87942739D01*
X151987261Y-87626271D01*
X151573776Y-87455000D01*
X151126224Y-87455000D01*
X150750000Y-87610837D01*
X150750000Y-86323671D01*
X157599691Y-86323671D01*
X157714317Y-86438297D01*
G36*
X151842894Y-99750000D02*
X150232346Y-99750000D01*
X150232346Y-99600000D01*
X150212455Y-99500000D01*
X150232346Y-99400000D01*
X150232346Y-99100000D01*
X150212455Y-99000000D01*
X150232346Y-98900000D01*
X150232346Y-98600000D01*
X150212455Y-98500000D01*
X150232346Y-98400000D01*
X150232346Y-98139452D01*
X151842894Y-99750000D01*
X151842894Y-99750000D01*
G37*
X151842894Y-99750000D02*
X150232346Y-99750000D01*
X150232346Y-99600000D01*
X150212455Y-99500000D01*
X150232346Y-99400000D01*
X150232346Y-99100000D01*
X150212455Y-99000000D01*
X150232346Y-98900000D01*
X150232346Y-98600000D01*
X150212455Y-98500000D01*
X150232346Y-98400000D01*
X150232346Y-98139452D01*
X151842894Y-99750000D01*
G36*
X163629000Y-98321000D02*
X163649000Y-98321000D01*
X163649000Y-98579000D01*
X163629000Y-98579000D01*
X163629000Y-98599000D01*
X163371000Y-98599000D01*
X163371000Y-98579000D01*
X163351000Y-98579000D01*
X163351000Y-98321000D01*
X163371000Y-98321000D01*
X163371000Y-98301000D01*
X163629000Y-98301000D01*
X163629000Y-98321000D01*
X163629000Y-98321000D01*
G37*
X163629000Y-98321000D02*
X163649000Y-98321000D01*
X163649000Y-98579000D01*
X163629000Y-98579000D01*
X163629000Y-98599000D01*
X163371000Y-98599000D01*
X163371000Y-98579000D01*
X163351000Y-98579000D01*
X163351000Y-98321000D01*
X163371000Y-98321000D01*
X163371000Y-98301000D01*
X163629000Y-98301000D01*
X163629000Y-98321000D01*
G36*
X149224154Y-96717654D02*
X147850000Y-96717654D01*
X147740246Y-96739485D01*
X147808000Y-96575911D01*
X147808000Y-96137250D01*
X147649750Y-95979000D01*
X146929000Y-95979000D01*
X146929000Y-95999000D01*
X146671000Y-95999000D01*
X146671000Y-95979000D01*
X146651000Y-95979000D01*
X146651000Y-95721000D01*
X146671000Y-95721000D01*
X146671000Y-95701000D01*
X146929000Y-95701000D01*
X146929000Y-95721000D01*
X147649750Y-95721000D01*
X147808000Y-95562750D01*
X147808000Y-95424999D01*
X147931500Y-95424999D01*
X149224154Y-96717654D01*
X149224154Y-96717654D01*
G37*
X149224154Y-96717654D02*
X147850000Y-96717654D01*
X147740246Y-96739485D01*
X147808000Y-96575911D01*
X147808000Y-96137250D01*
X147649750Y-95979000D01*
X146929000Y-95979000D01*
X146929000Y-95999000D01*
X146671000Y-95999000D01*
X146671000Y-95979000D01*
X146651000Y-95979000D01*
X146651000Y-95721000D01*
X146671000Y-95721000D01*
X146671000Y-95701000D01*
X146929000Y-95701000D01*
X146929000Y-95721000D01*
X147649750Y-95721000D01*
X147808000Y-95562750D01*
X147808000Y-95424999D01*
X147931500Y-95424999D01*
X149224154Y-96717654D01*
G36*
X149117654Y-91875000D02*
X149146758Y-92021317D01*
X149229641Y-92145359D01*
X149353683Y-92228242D01*
X149500000Y-92257346D01*
X149611015Y-92257346D01*
X149596758Y-92278683D01*
X149567654Y-92425000D01*
X149567654Y-93175000D01*
X149596758Y-93321317D01*
X149679641Y-93445359D01*
X149803683Y-93528242D01*
X149950000Y-93557346D01*
X150600239Y-93557346D01*
X150746728Y-93703835D01*
X150717654Y-93850000D01*
X150717654Y-95675001D01*
X150232126Y-95675001D01*
X148713382Y-94156258D01*
X148685486Y-94114508D01*
X148520096Y-94003999D01*
X148374249Y-93974988D01*
X148374247Y-93974988D01*
X148325006Y-93965193D01*
X148275765Y-93974988D01*
X147600000Y-93974988D01*
X147600000Y-93687437D01*
X147841789Y-93445648D01*
X147975000Y-93124048D01*
X147975000Y-92775952D01*
X147841789Y-92454352D01*
X147595648Y-92208211D01*
X147274048Y-92075000D01*
X146925952Y-92075000D01*
X146604352Y-92208211D01*
X146358211Y-92454352D01*
X146225000Y-92775952D01*
X146225000Y-93124048D01*
X146358211Y-93445648D01*
X146600001Y-93687438D01*
X146600000Y-93974988D01*
X146027842Y-93974988D01*
X145978599Y-93965193D01*
X145929356Y-93974988D01*
X145783509Y-94003999D01*
X145731289Y-94038891D01*
X145711632Y-93991435D01*
X145533566Y-93813369D01*
X145520472Y-93807945D01*
X145528242Y-93796317D01*
X145557346Y-93650000D01*
X145557346Y-92774760D01*
X146582107Y-91750000D01*
X149117654Y-91750000D01*
X149117654Y-91875000D01*
X149117654Y-91875000D01*
G37*
X149117654Y-91875000D02*
X149146758Y-92021317D01*
X149229641Y-92145359D01*
X149353683Y-92228242D01*
X149500000Y-92257346D01*
X149611015Y-92257346D01*
X149596758Y-92278683D01*
X149567654Y-92425000D01*
X149567654Y-93175000D01*
X149596758Y-93321317D01*
X149679641Y-93445359D01*
X149803683Y-93528242D01*
X149950000Y-93557346D01*
X150600239Y-93557346D01*
X150746728Y-93703835D01*
X150717654Y-93850000D01*
X150717654Y-95675001D01*
X150232126Y-95675001D01*
X148713382Y-94156258D01*
X148685486Y-94114508D01*
X148520096Y-94003999D01*
X148374249Y-93974988D01*
X148374247Y-93974988D01*
X148325006Y-93965193D01*
X148275765Y-93974988D01*
X147600000Y-93974988D01*
X147600000Y-93687437D01*
X147841789Y-93445648D01*
X147975000Y-93124048D01*
X147975000Y-92775952D01*
X147841789Y-92454352D01*
X147595648Y-92208211D01*
X147274048Y-92075000D01*
X146925952Y-92075000D01*
X146604352Y-92208211D01*
X146358211Y-92454352D01*
X146225000Y-92775952D01*
X146225000Y-93124048D01*
X146358211Y-93445648D01*
X146600001Y-93687438D01*
X146600000Y-93974988D01*
X146027842Y-93974988D01*
X145978599Y-93965193D01*
X145929356Y-93974988D01*
X145783509Y-94003999D01*
X145731289Y-94038891D01*
X145711632Y-93991435D01*
X145533566Y-93813369D01*
X145520472Y-93807945D01*
X145528242Y-93796317D01*
X145557346Y-93650000D01*
X145557346Y-92774760D01*
X146582107Y-91750000D01*
X149117654Y-91750000D01*
X149117654Y-91875000D01*
G36*
X135546758Y-92996317D02*
X135629641Y-93120359D01*
X135753683Y-93203242D01*
X135772765Y-93207038D01*
X135713369Y-93266434D01*
X135617000Y-93499088D01*
X135617000Y-93712750D01*
X135775250Y-93871000D01*
X136721000Y-93871000D01*
X136721000Y-93851000D01*
X136979000Y-93851000D01*
X136979000Y-93871000D01*
X136999000Y-93871000D01*
X136999000Y-94129000D01*
X136979000Y-94129000D01*
X136979000Y-94149000D01*
X136721000Y-94149000D01*
X136721000Y-94129000D01*
X135775250Y-94129000D01*
X135617000Y-94287250D01*
X135617000Y-94500912D01*
X135713369Y-94733566D01*
X135772765Y-94792962D01*
X135753683Y-94796758D01*
X135629641Y-94879641D01*
X135546758Y-95003683D01*
X135527600Y-95100000D01*
X134699243Y-95100000D01*
X134650000Y-95090205D01*
X134600757Y-95100000D01*
X134454910Y-95129011D01*
X134289520Y-95239520D01*
X134261626Y-95281267D01*
X134125000Y-95417893D01*
X134125000Y-94332107D01*
X135532495Y-92924612D01*
X135546758Y-92996317D01*
X135546758Y-92996317D01*
G37*
X135546758Y-92996317D02*
X135629641Y-93120359D01*
X135753683Y-93203242D01*
X135772765Y-93207038D01*
X135713369Y-93266434D01*
X135617000Y-93499088D01*
X135617000Y-93712750D01*
X135775250Y-93871000D01*
X136721000Y-93871000D01*
X136721000Y-93851000D01*
X136979000Y-93851000D01*
X136979000Y-93871000D01*
X136999000Y-93871000D01*
X136999000Y-94129000D01*
X136979000Y-94129000D01*
X136979000Y-94149000D01*
X136721000Y-94149000D01*
X136721000Y-94129000D01*
X135775250Y-94129000D01*
X135617000Y-94287250D01*
X135617000Y-94500912D01*
X135713369Y-94733566D01*
X135772765Y-94792962D01*
X135753683Y-94796758D01*
X135629641Y-94879641D01*
X135546758Y-95003683D01*
X135527600Y-95100000D01*
X134699243Y-95100000D01*
X134650000Y-95090205D01*
X134600757Y-95100000D01*
X134454910Y-95129011D01*
X134289520Y-95239520D01*
X134261626Y-95281267D01*
X134125000Y-95417893D01*
X134125000Y-94332107D01*
X135532495Y-92924612D01*
X135546758Y-92996317D01*
G36*
X144929000Y-94821000D02*
X144949000Y-94821000D01*
X144949000Y-95079000D01*
X144929000Y-95079000D01*
X144929000Y-95099000D01*
X144671000Y-95099000D01*
X144671000Y-95079000D01*
X144651000Y-95079000D01*
X144651000Y-94821000D01*
X144671000Y-94821000D01*
X144671000Y-94801000D01*
X144929000Y-94801000D01*
X144929000Y-94821000D01*
X144929000Y-94821000D01*
G37*
X144929000Y-94821000D02*
X144949000Y-94821000D01*
X144949000Y-95079000D01*
X144929000Y-95079000D01*
X144929000Y-95099000D01*
X144671000Y-95099000D01*
X144671000Y-95079000D01*
X144651000Y-95079000D01*
X144651000Y-94821000D01*
X144671000Y-94821000D01*
X144671000Y-94801000D01*
X144929000Y-94801000D01*
X144929000Y-94821000D01*
G36*
X143449000Y-94367654D02*
X143151000Y-94367654D01*
X143151000Y-94282346D01*
X143449000Y-94282346D01*
X143449000Y-94367654D01*
X143449000Y-94367654D01*
G37*
X143449000Y-94367654D02*
X143151000Y-94367654D01*
X143151000Y-94282346D01*
X143449000Y-94282346D01*
X143449000Y-94367654D01*
G36*
X135156271Y-77782739D02*
X134985000Y-78196224D01*
X134985000Y-78643776D01*
X135156271Y-79057261D01*
X135472739Y-79373729D01*
X135886224Y-79545000D01*
X136333776Y-79545000D01*
X136747261Y-79373729D01*
X137063729Y-79057261D01*
X137235000Y-78643776D01*
X137235000Y-78196224D01*
X137063729Y-77782739D01*
X136905990Y-77625000D01*
X137854010Y-77625000D01*
X137696271Y-77782739D01*
X137525000Y-78196224D01*
X137525000Y-78643776D01*
X137696271Y-79057261D01*
X138012739Y-79373729D01*
X138426224Y-79545000D01*
X138873776Y-79545000D01*
X139287261Y-79373729D01*
X139603729Y-79057261D01*
X139775000Y-78643776D01*
X139775000Y-78196224D01*
X139603729Y-77782739D01*
X139445990Y-77625000D01*
X140394010Y-77625000D01*
X140236271Y-77782739D01*
X140065000Y-78196224D01*
X140065000Y-78643776D01*
X140236271Y-79057261D01*
X140552739Y-79373729D01*
X140966224Y-79545000D01*
X141413776Y-79545000D01*
X141827261Y-79373729D01*
X142143729Y-79057261D01*
X142315000Y-78643776D01*
X142315000Y-78196224D01*
X142143729Y-77782739D01*
X141985990Y-77625000D01*
X142934010Y-77625000D01*
X142776271Y-77782739D01*
X142605000Y-78196224D01*
X142605000Y-78643776D01*
X142776271Y-79057261D01*
X143092739Y-79373729D01*
X143506224Y-79545000D01*
X143953776Y-79545000D01*
X144367261Y-79373729D01*
X144683729Y-79057261D01*
X144855000Y-78643776D01*
X144855000Y-78196224D01*
X144683729Y-77782739D01*
X144525990Y-77625000D01*
X148014010Y-77625000D01*
X147856271Y-77782739D01*
X147685000Y-78196224D01*
X147685000Y-78643776D01*
X147856271Y-79057261D01*
X148172739Y-79373729D01*
X148586224Y-79545000D01*
X149033776Y-79545000D01*
X149447261Y-79373729D01*
X149763729Y-79057261D01*
X149935000Y-78643776D01*
X149935000Y-78196224D01*
X149763729Y-77782739D01*
X149605990Y-77625000D01*
X153094010Y-77625000D01*
X152936271Y-77782739D01*
X152765000Y-78196224D01*
X152765000Y-78643776D01*
X152936271Y-79057261D01*
X153252739Y-79373729D01*
X153666224Y-79545000D01*
X154113776Y-79545000D01*
X154527261Y-79373729D01*
X154843729Y-79057261D01*
X155015000Y-78643776D01*
X155015000Y-78196224D01*
X154843729Y-77782739D01*
X154685990Y-77625000D01*
X159625000Y-77625000D01*
X159625001Y-85323671D01*
X158650303Y-85323671D01*
X158535677Y-85209045D01*
X158269209Y-85098671D01*
X157980785Y-85098671D01*
X157714317Y-85209045D01*
X157599691Y-85323671D01*
X150468244Y-85323671D01*
X150349243Y-85300000D01*
X150300000Y-85290205D01*
X150250758Y-85300000D01*
X138036079Y-85300000D01*
X137180165Y-84444087D01*
X137180163Y-84444084D01*
X137166791Y-84430712D01*
X137166791Y-84268607D01*
X137056417Y-84002139D01*
X136852471Y-83798193D01*
X136586003Y-83687819D01*
X136297579Y-83687819D01*
X136031111Y-83798193D01*
X135827165Y-84002139D01*
X135716791Y-84268607D01*
X135716791Y-84557031D01*
X135827165Y-84823499D01*
X136031111Y-85027445D01*
X136297579Y-85137819D01*
X136459684Y-85137819D01*
X136473056Y-85151191D01*
X136473059Y-85151193D01*
X137440597Y-86118732D01*
X137468492Y-86160480D01*
X137633882Y-86270989D01*
X137752884Y-86294660D01*
X137828972Y-86309795D01*
X137878215Y-86300000D01*
X149750001Y-86300000D01*
X149750001Y-87929011D01*
X149447261Y-87626271D01*
X149033776Y-87455000D01*
X148586224Y-87455000D01*
X148172739Y-87626271D01*
X147856271Y-87942739D01*
X147685000Y-88356224D01*
X147685000Y-88803776D01*
X147856271Y-89217261D01*
X148172739Y-89533729D01*
X148586224Y-89705000D01*
X149033776Y-89705000D01*
X149447261Y-89533729D01*
X149750000Y-89230990D01*
X149750000Y-90242654D01*
X149500000Y-90242654D01*
X149353683Y-90271758D01*
X149229641Y-90354641D01*
X149146758Y-90478683D01*
X149117654Y-90625000D01*
X149117654Y-90750000D01*
X146424240Y-90750000D01*
X146374999Y-90740205D01*
X146325758Y-90750000D01*
X146325757Y-90750000D01*
X146179910Y-90779011D01*
X146014520Y-90889520D01*
X145986625Y-90931268D01*
X144850240Y-92067654D01*
X144425000Y-92067654D01*
X144278683Y-92096758D01*
X144154641Y-92179641D01*
X144071758Y-92303683D01*
X144042654Y-92450000D01*
X144042654Y-92563008D01*
X144020359Y-92529641D01*
X143896317Y-92446758D01*
X143750000Y-92417654D01*
X142850000Y-92417654D01*
X142703683Y-92446758D01*
X142613874Y-92506767D01*
X141175000Y-91067894D01*
X141175000Y-90725952D01*
X141041789Y-90404352D01*
X140993225Y-90355788D01*
X141875000Y-90355788D01*
X141875000Y-90644212D01*
X141985374Y-90910680D01*
X142189320Y-91114626D01*
X142455788Y-91225000D01*
X142744212Y-91225000D01*
X143010680Y-91114626D01*
X143214626Y-90910680D01*
X143325000Y-90644212D01*
X143325000Y-90355788D01*
X143214626Y-90089320D01*
X143100000Y-89974694D01*
X143100000Y-89917106D01*
X143368962Y-89648144D01*
X143506224Y-89705000D01*
X143953776Y-89705000D01*
X144367261Y-89533729D01*
X144683729Y-89217261D01*
X144855000Y-88803776D01*
X144855000Y-88356224D01*
X145145000Y-88356224D01*
X145145000Y-88803776D01*
X145316271Y-89217261D01*
X145632739Y-89533729D01*
X146046224Y-89705000D01*
X146493776Y-89705000D01*
X146907261Y-89533729D01*
X147223729Y-89217261D01*
X147395000Y-88803776D01*
X147395000Y-88356224D01*
X147223729Y-87942739D01*
X146907261Y-87626271D01*
X146493776Y-87455000D01*
X146046224Y-87455000D01*
X145632739Y-87626271D01*
X145316271Y-87942739D01*
X145145000Y-88356224D01*
X144855000Y-88356224D01*
X144683729Y-87942739D01*
X144367261Y-87626271D01*
X143953776Y-87455000D01*
X143506224Y-87455000D01*
X143092739Y-87626271D01*
X142776271Y-87942739D01*
X142605000Y-88356224D01*
X142605000Y-88803776D01*
X142661856Y-88941038D01*
X142281268Y-89321626D01*
X142239521Y-89349520D01*
X142211627Y-89391267D01*
X142129012Y-89514910D01*
X142090205Y-89710000D01*
X142100001Y-89759246D01*
X142100001Y-89974693D01*
X141985374Y-90089320D01*
X141875000Y-90355788D01*
X140993225Y-90355788D01*
X140795648Y-90158211D01*
X140474048Y-90025000D01*
X140125952Y-90025000D01*
X139804352Y-90158211D01*
X139558211Y-90404352D01*
X139425000Y-90725952D01*
X139425000Y-91074048D01*
X139446105Y-91124999D01*
X137474244Y-91124999D01*
X137425001Y-91115204D01*
X137229910Y-91154010D01*
X137176766Y-91189520D01*
X137064521Y-91264519D01*
X137036626Y-91306267D01*
X136775239Y-91567654D01*
X135900000Y-91567654D01*
X135753683Y-91596758D01*
X135629641Y-91679641D01*
X135546758Y-91803683D01*
X135527600Y-91900000D01*
X135399240Y-91900000D01*
X135349999Y-91890205D01*
X135300758Y-91900000D01*
X135300757Y-91900000D01*
X135154910Y-91929011D01*
X134989520Y-92039520D01*
X134961626Y-92081267D01*
X134125000Y-92917893D01*
X134125000Y-89000000D01*
X134115485Y-88952165D01*
X134088388Y-88911612D01*
X134047835Y-88884515D01*
X134000000Y-88875000D01*
X126625000Y-88875000D01*
X126625000Y-88356224D01*
X134985000Y-88356224D01*
X134985000Y-88803776D01*
X135156271Y-89217261D01*
X135472739Y-89533729D01*
X135886224Y-89705000D01*
X136333776Y-89705000D01*
X136747261Y-89533729D01*
X137063729Y-89217261D01*
X137235000Y-88803776D01*
X137235000Y-88356224D01*
X137525000Y-88356224D01*
X137525000Y-88803776D01*
X137696271Y-89217261D01*
X138012739Y-89533729D01*
X138426224Y-89705000D01*
X138873776Y-89705000D01*
X139287261Y-89533729D01*
X139603729Y-89217261D01*
X139775000Y-88803776D01*
X139775000Y-88356224D01*
X140065000Y-88356224D01*
X140065000Y-88803776D01*
X140236271Y-89217261D01*
X140552739Y-89533729D01*
X140966224Y-89705000D01*
X141413776Y-89705000D01*
X141827261Y-89533729D01*
X142143729Y-89217261D01*
X142315000Y-88803776D01*
X142315000Y-88356224D01*
X142143729Y-87942739D01*
X141827261Y-87626271D01*
X141413776Y-87455000D01*
X140966224Y-87455000D01*
X140552739Y-87626271D01*
X140236271Y-87942739D01*
X140065000Y-88356224D01*
X139775000Y-88356224D01*
X139603729Y-87942739D01*
X139287261Y-87626271D01*
X138873776Y-87455000D01*
X138426224Y-87455000D01*
X138012739Y-87626271D01*
X137696271Y-87942739D01*
X137525000Y-88356224D01*
X137235000Y-88356224D01*
X137063729Y-87942739D01*
X136747261Y-87626271D01*
X136333776Y-87455000D01*
X135886224Y-87455000D01*
X135472739Y-87626271D01*
X135156271Y-87942739D01*
X134985000Y-88356224D01*
X126625000Y-88356224D01*
X126625000Y-87455788D01*
X131175000Y-87455788D01*
X131175000Y-87744212D01*
X131285374Y-88010680D01*
X131489320Y-88214626D01*
X131755788Y-88325000D01*
X132044212Y-88325000D01*
X132310680Y-88214626D01*
X132514626Y-88010680D01*
X132625000Y-87744212D01*
X132625000Y-87455788D01*
X132517024Y-87195108D01*
X136562132Y-83150001D01*
X138777398Y-83150001D01*
X138885374Y-83410680D01*
X139089320Y-83614626D01*
X139355788Y-83725000D01*
X139644212Y-83725000D01*
X139910680Y-83614626D01*
X140114626Y-83410680D01*
X140225000Y-83144212D01*
X140225000Y-82855788D01*
X140114626Y-82589320D01*
X139910680Y-82385374D01*
X139644212Y-82275000D01*
X139488749Y-82275000D01*
X139345091Y-82179012D01*
X139199244Y-82150001D01*
X139199242Y-82150001D01*
X139150001Y-82140206D01*
X139100760Y-82150001D01*
X136404268Y-82150001D01*
X136355025Y-82140206D01*
X136305782Y-82150001D01*
X136159935Y-82179012D01*
X135994545Y-82289521D01*
X135966650Y-82331269D01*
X131581271Y-86716649D01*
X131539520Y-86744546D01*
X131429011Y-86909937D01*
X131405326Y-87029011D01*
X131395305Y-87079389D01*
X131285374Y-87189320D01*
X131175000Y-87455788D01*
X126625000Y-87455788D01*
X126625000Y-77625000D01*
X135314010Y-77625000D01*
X135156271Y-77782739D01*
X135156271Y-77782739D01*
G37*
X135156271Y-77782739D02*
X134985000Y-78196224D01*
X134985000Y-78643776D01*
X135156271Y-79057261D01*
X135472739Y-79373729D01*
X135886224Y-79545000D01*
X136333776Y-79545000D01*
X136747261Y-79373729D01*
X137063729Y-79057261D01*
X137235000Y-78643776D01*
X137235000Y-78196224D01*
X137063729Y-77782739D01*
X136905990Y-77625000D01*
X137854010Y-77625000D01*
X137696271Y-77782739D01*
X137525000Y-78196224D01*
X137525000Y-78643776D01*
X137696271Y-79057261D01*
X138012739Y-79373729D01*
X138426224Y-79545000D01*
X138873776Y-79545000D01*
X139287261Y-79373729D01*
X139603729Y-79057261D01*
X139775000Y-78643776D01*
X139775000Y-78196224D01*
X139603729Y-77782739D01*
X139445990Y-77625000D01*
X140394010Y-77625000D01*
X140236271Y-77782739D01*
X140065000Y-78196224D01*
X140065000Y-78643776D01*
X140236271Y-79057261D01*
X140552739Y-79373729D01*
X140966224Y-79545000D01*
X141413776Y-79545000D01*
X141827261Y-79373729D01*
X142143729Y-79057261D01*
X142315000Y-78643776D01*
X142315000Y-78196224D01*
X142143729Y-77782739D01*
X141985990Y-77625000D01*
X142934010Y-77625000D01*
X142776271Y-77782739D01*
X142605000Y-78196224D01*
X142605000Y-78643776D01*
X142776271Y-79057261D01*
X143092739Y-79373729D01*
X143506224Y-79545000D01*
X143953776Y-79545000D01*
X144367261Y-79373729D01*
X144683729Y-79057261D01*
X144855000Y-78643776D01*
X144855000Y-78196224D01*
X144683729Y-77782739D01*
X144525990Y-77625000D01*
X148014010Y-77625000D01*
X147856271Y-77782739D01*
X147685000Y-78196224D01*
X147685000Y-78643776D01*
X147856271Y-79057261D01*
X148172739Y-79373729D01*
X148586224Y-79545000D01*
X149033776Y-79545000D01*
X149447261Y-79373729D01*
X149763729Y-79057261D01*
X149935000Y-78643776D01*
X149935000Y-78196224D01*
X149763729Y-77782739D01*
X149605990Y-77625000D01*
X153094010Y-77625000D01*
X152936271Y-77782739D01*
X152765000Y-78196224D01*
X152765000Y-78643776D01*
X152936271Y-79057261D01*
X153252739Y-79373729D01*
X153666224Y-79545000D01*
X154113776Y-79545000D01*
X154527261Y-79373729D01*
X154843729Y-79057261D01*
X155015000Y-78643776D01*
X155015000Y-78196224D01*
X154843729Y-77782739D01*
X154685990Y-77625000D01*
X159625000Y-77625000D01*
X159625001Y-85323671D01*
X158650303Y-85323671D01*
X158535677Y-85209045D01*
X158269209Y-85098671D01*
X157980785Y-85098671D01*
X157714317Y-85209045D01*
X157599691Y-85323671D01*
X150468244Y-85323671D01*
X150349243Y-85300000D01*
X150300000Y-85290205D01*
X150250758Y-85300000D01*
X138036079Y-85300000D01*
X137180165Y-84444087D01*
X137180163Y-84444084D01*
X137166791Y-84430712D01*
X137166791Y-84268607D01*
X137056417Y-84002139D01*
X136852471Y-83798193D01*
X136586003Y-83687819D01*
X136297579Y-83687819D01*
X136031111Y-83798193D01*
X135827165Y-84002139D01*
X135716791Y-84268607D01*
X135716791Y-84557031D01*
X135827165Y-84823499D01*
X136031111Y-85027445D01*
X136297579Y-85137819D01*
X136459684Y-85137819D01*
X136473056Y-85151191D01*
X136473059Y-85151193D01*
X137440597Y-86118732D01*
X137468492Y-86160480D01*
X137633882Y-86270989D01*
X137752884Y-86294660D01*
X137828972Y-86309795D01*
X137878215Y-86300000D01*
X149750001Y-86300000D01*
X149750001Y-87929011D01*
X149447261Y-87626271D01*
X149033776Y-87455000D01*
X148586224Y-87455000D01*
X148172739Y-87626271D01*
X147856271Y-87942739D01*
X147685000Y-88356224D01*
X147685000Y-88803776D01*
X147856271Y-89217261D01*
X148172739Y-89533729D01*
X148586224Y-89705000D01*
X149033776Y-89705000D01*
X149447261Y-89533729D01*
X149750000Y-89230990D01*
X149750000Y-90242654D01*
X149500000Y-90242654D01*
X149353683Y-90271758D01*
X149229641Y-90354641D01*
X149146758Y-90478683D01*
X149117654Y-90625000D01*
X149117654Y-90750000D01*
X146424240Y-90750000D01*
X146374999Y-90740205D01*
X146325758Y-90750000D01*
X146325757Y-90750000D01*
X146179910Y-90779011D01*
X146014520Y-90889520D01*
X145986625Y-90931268D01*
X144850240Y-92067654D01*
X144425000Y-92067654D01*
X144278683Y-92096758D01*
X144154641Y-92179641D01*
X144071758Y-92303683D01*
X144042654Y-92450000D01*
X144042654Y-92563008D01*
X144020359Y-92529641D01*
X143896317Y-92446758D01*
X143750000Y-92417654D01*
X142850000Y-92417654D01*
X142703683Y-92446758D01*
X142613874Y-92506767D01*
X141175000Y-91067894D01*
X141175000Y-90725952D01*
X141041789Y-90404352D01*
X140993225Y-90355788D01*
X141875000Y-90355788D01*
X141875000Y-90644212D01*
X141985374Y-90910680D01*
X142189320Y-91114626D01*
X142455788Y-91225000D01*
X142744212Y-91225000D01*
X143010680Y-91114626D01*
X143214626Y-90910680D01*
X143325000Y-90644212D01*
X143325000Y-90355788D01*
X143214626Y-90089320D01*
X143100000Y-89974694D01*
X143100000Y-89917106D01*
X143368962Y-89648144D01*
X143506224Y-89705000D01*
X143953776Y-89705000D01*
X144367261Y-89533729D01*
X144683729Y-89217261D01*
X144855000Y-88803776D01*
X144855000Y-88356224D01*
X145145000Y-88356224D01*
X145145000Y-88803776D01*
X145316271Y-89217261D01*
X145632739Y-89533729D01*
X146046224Y-89705000D01*
X146493776Y-89705000D01*
X146907261Y-89533729D01*
X147223729Y-89217261D01*
X147395000Y-88803776D01*
X147395000Y-88356224D01*
X147223729Y-87942739D01*
X146907261Y-87626271D01*
X146493776Y-87455000D01*
X146046224Y-87455000D01*
X145632739Y-87626271D01*
X145316271Y-87942739D01*
X145145000Y-88356224D01*
X144855000Y-88356224D01*
X144683729Y-87942739D01*
X144367261Y-87626271D01*
X143953776Y-87455000D01*
X143506224Y-87455000D01*
X143092739Y-87626271D01*
X142776271Y-87942739D01*
X142605000Y-88356224D01*
X142605000Y-88803776D01*
X142661856Y-88941038D01*
X142281268Y-89321626D01*
X142239521Y-89349520D01*
X142211627Y-89391267D01*
X142129012Y-89514910D01*
X142090205Y-89710000D01*
X142100001Y-89759246D01*
X142100001Y-89974693D01*
X141985374Y-90089320D01*
X141875000Y-90355788D01*
X140993225Y-90355788D01*
X140795648Y-90158211D01*
X140474048Y-90025000D01*
X140125952Y-90025000D01*
X139804352Y-90158211D01*
X139558211Y-90404352D01*
X139425000Y-90725952D01*
X139425000Y-91074048D01*
X139446105Y-91124999D01*
X137474244Y-91124999D01*
X137425001Y-91115204D01*
X137229910Y-91154010D01*
X137176766Y-91189520D01*
X137064521Y-91264519D01*
X137036626Y-91306267D01*
X136775239Y-91567654D01*
X135900000Y-91567654D01*
X135753683Y-91596758D01*
X135629641Y-91679641D01*
X135546758Y-91803683D01*
X135527600Y-91900000D01*
X135399240Y-91900000D01*
X135349999Y-91890205D01*
X135300758Y-91900000D01*
X135300757Y-91900000D01*
X135154910Y-91929011D01*
X134989520Y-92039520D01*
X134961626Y-92081267D01*
X134125000Y-92917893D01*
X134125000Y-89000000D01*
X134115485Y-88952165D01*
X134088388Y-88911612D01*
X134047835Y-88884515D01*
X134000000Y-88875000D01*
X126625000Y-88875000D01*
X126625000Y-88356224D01*
X134985000Y-88356224D01*
X134985000Y-88803776D01*
X135156271Y-89217261D01*
X135472739Y-89533729D01*
X135886224Y-89705000D01*
X136333776Y-89705000D01*
X136747261Y-89533729D01*
X137063729Y-89217261D01*
X137235000Y-88803776D01*
X137235000Y-88356224D01*
X137525000Y-88356224D01*
X137525000Y-88803776D01*
X137696271Y-89217261D01*
X138012739Y-89533729D01*
X138426224Y-89705000D01*
X138873776Y-89705000D01*
X139287261Y-89533729D01*
X139603729Y-89217261D01*
X139775000Y-88803776D01*
X139775000Y-88356224D01*
X140065000Y-88356224D01*
X140065000Y-88803776D01*
X140236271Y-89217261D01*
X140552739Y-89533729D01*
X140966224Y-89705000D01*
X141413776Y-89705000D01*
X141827261Y-89533729D01*
X142143729Y-89217261D01*
X142315000Y-88803776D01*
X142315000Y-88356224D01*
X142143729Y-87942739D01*
X141827261Y-87626271D01*
X141413776Y-87455000D01*
X140966224Y-87455000D01*
X140552739Y-87626271D01*
X140236271Y-87942739D01*
X140065000Y-88356224D01*
X139775000Y-88356224D01*
X139603729Y-87942739D01*
X139287261Y-87626271D01*
X138873776Y-87455000D01*
X138426224Y-87455000D01*
X138012739Y-87626271D01*
X137696271Y-87942739D01*
X137525000Y-88356224D01*
X137235000Y-88356224D01*
X137063729Y-87942739D01*
X136747261Y-87626271D01*
X136333776Y-87455000D01*
X135886224Y-87455000D01*
X135472739Y-87626271D01*
X135156271Y-87942739D01*
X134985000Y-88356224D01*
X126625000Y-88356224D01*
X126625000Y-87455788D01*
X131175000Y-87455788D01*
X131175000Y-87744212D01*
X131285374Y-88010680D01*
X131489320Y-88214626D01*
X131755788Y-88325000D01*
X132044212Y-88325000D01*
X132310680Y-88214626D01*
X132514626Y-88010680D01*
X132625000Y-87744212D01*
X132625000Y-87455788D01*
X132517024Y-87195108D01*
X136562132Y-83150001D01*
X138777398Y-83150001D01*
X138885374Y-83410680D01*
X139089320Y-83614626D01*
X139355788Y-83725000D01*
X139644212Y-83725000D01*
X139910680Y-83614626D01*
X140114626Y-83410680D01*
X140225000Y-83144212D01*
X140225000Y-82855788D01*
X140114626Y-82589320D01*
X139910680Y-82385374D01*
X139644212Y-82275000D01*
X139488749Y-82275000D01*
X139345091Y-82179012D01*
X139199244Y-82150001D01*
X139199242Y-82150001D01*
X139150001Y-82140206D01*
X139100760Y-82150001D01*
X136404268Y-82150001D01*
X136355025Y-82140206D01*
X136305782Y-82150001D01*
X136159935Y-82179012D01*
X135994545Y-82289521D01*
X135966650Y-82331269D01*
X131581271Y-86716649D01*
X131539520Y-86744546D01*
X131429011Y-86909937D01*
X131405326Y-87029011D01*
X131395305Y-87079389D01*
X131285374Y-87189320D01*
X131175000Y-87455788D01*
X126625000Y-87455788D01*
X126625000Y-77625000D01*
X135314010Y-77625000D01*
X135156271Y-77782739D01*
G36*
X143451588Y-65704528D02*
X143399400Y-65739399D01*
X143305109Y-65880516D01*
X143261262Y-65946137D01*
X143212755Y-66189999D01*
X143225000Y-66251559D01*
X143224999Y-67748446D01*
X143212755Y-67810001D01*
X143244047Y-67967317D01*
X143261262Y-68053863D01*
X143399399Y-68260601D01*
X143451589Y-68295473D01*
X143917654Y-68761539D01*
X143917654Y-68950000D01*
X143946758Y-69096317D01*
X144029641Y-69220359D01*
X144153683Y-69303242D01*
X144300000Y-69332346D01*
X145500000Y-69332346D01*
X145646317Y-69303242D01*
X145770359Y-69220359D01*
X145853242Y-69096317D01*
X145882346Y-68950000D01*
X145882346Y-68050000D01*
X145853242Y-67903683D01*
X145770359Y-67779641D01*
X145646317Y-67696758D01*
X145500000Y-67667654D01*
X144591534Y-67667654D01*
X144474999Y-67551119D01*
X144474999Y-66448881D01*
X144498880Y-66425000D01*
X146142518Y-66425000D01*
X146117654Y-66550000D01*
X146117654Y-67450000D01*
X146146758Y-67596317D01*
X146229641Y-67720359D01*
X146274001Y-67750000D01*
X146229641Y-67779641D01*
X146146758Y-67903683D01*
X146117654Y-68050000D01*
X146117654Y-68950000D01*
X146146758Y-69096317D01*
X146229641Y-69220359D01*
X146353683Y-69303242D01*
X146393486Y-69311159D01*
X146375000Y-69355788D01*
X146375000Y-69644212D01*
X146485374Y-69910680D01*
X146542348Y-69967654D01*
X146500000Y-69967654D01*
X146353683Y-69996758D01*
X146229641Y-70079641D01*
X146146758Y-70203683D01*
X146117654Y-70350000D01*
X146117654Y-70745550D01*
X145882346Y-70510242D01*
X145882346Y-70350000D01*
X145853242Y-70203683D01*
X145770359Y-70079641D01*
X145646317Y-69996758D01*
X145500000Y-69967654D01*
X144300000Y-69967654D01*
X144153683Y-69996758D01*
X144029641Y-70079641D01*
X143946758Y-70203683D01*
X143917654Y-70350000D01*
X143917654Y-71250000D01*
X143946758Y-71396317D01*
X144029641Y-71520359D01*
X144153683Y-71603242D01*
X144300000Y-71632346D01*
X145500000Y-71632346D01*
X145575266Y-71617375D01*
X146026649Y-72068757D01*
X145327753Y-72767654D01*
X143900000Y-72767654D01*
X143753683Y-72796758D01*
X143629641Y-72879641D01*
X143619750Y-72894444D01*
X143510680Y-72785374D01*
X143244212Y-72675000D01*
X142955788Y-72675000D01*
X142689320Y-72785374D01*
X142485374Y-72989320D01*
X142375000Y-73255788D01*
X142375000Y-73544212D01*
X142449884Y-73725000D01*
X142282346Y-73725000D01*
X142282346Y-71750000D01*
X142253242Y-71603683D01*
X142170359Y-71479641D01*
X142046317Y-71396758D01*
X141900000Y-71367654D01*
X140100000Y-71367654D01*
X139953683Y-71396758D01*
X139829641Y-71479641D01*
X139746758Y-71603683D01*
X139717654Y-71750000D01*
X139717654Y-72055000D01*
X138533481Y-72055000D01*
X138570359Y-72030359D01*
X138653242Y-71906317D01*
X138682346Y-71760000D01*
X138682346Y-71160000D01*
X138653242Y-71013683D01*
X138570359Y-70889641D01*
X138446317Y-70806758D01*
X138300000Y-70777654D01*
X137875000Y-70777654D01*
X137875000Y-69175000D01*
X139717654Y-69175000D01*
X139717654Y-70250000D01*
X139746758Y-70396317D01*
X139829641Y-70520359D01*
X139953683Y-70603242D01*
X140100000Y-70632346D01*
X141900000Y-70632346D01*
X142046317Y-70603242D01*
X142170359Y-70520359D01*
X142253242Y-70396317D01*
X142282346Y-70250000D01*
X142282346Y-66750000D01*
X142253242Y-66603683D01*
X142170359Y-66479641D01*
X142046317Y-66396758D01*
X141900000Y-66367654D01*
X140100000Y-66367654D01*
X139953683Y-66396758D01*
X139829641Y-66479641D01*
X139746758Y-66603683D01*
X139717654Y-66750000D01*
X139717654Y-67825000D01*
X137882346Y-67825000D01*
X137882346Y-67150000D01*
X137853242Y-67003683D01*
X137770359Y-66879641D01*
X137646317Y-66796758D01*
X137500000Y-66767654D01*
X135500000Y-66767654D01*
X135353683Y-66796758D01*
X135229641Y-66879641D01*
X135146758Y-67003683D01*
X135117654Y-67150000D01*
X135117654Y-68850000D01*
X135146758Y-68996317D01*
X135229641Y-69120359D01*
X135353683Y-69203242D01*
X135500000Y-69232346D01*
X136525001Y-69232346D01*
X136525000Y-70777654D01*
X136100000Y-70777654D01*
X135953683Y-70806758D01*
X135829641Y-70889641D01*
X135746758Y-71013683D01*
X135717654Y-71160000D01*
X135717654Y-71760000D01*
X135746758Y-71906317D01*
X135829641Y-72030359D01*
X135926382Y-72095000D01*
X135829641Y-72159641D01*
X135746758Y-72283683D01*
X135717654Y-72430000D01*
X135717654Y-73030000D01*
X135746758Y-73176317D01*
X135829641Y-73300359D01*
X135926382Y-73365000D01*
X135829641Y-73429641D01*
X135746758Y-73553683D01*
X135717654Y-73700000D01*
X135717654Y-74300000D01*
X135746758Y-74446317D01*
X135829641Y-74570359D01*
X135926382Y-74635000D01*
X135829641Y-74699641D01*
X135746758Y-74823683D01*
X135717654Y-74970000D01*
X135717654Y-75570000D01*
X135746758Y-75716317D01*
X135829641Y-75840359D01*
X135881484Y-75875000D01*
X133118516Y-75875000D01*
X133170359Y-75840359D01*
X133253242Y-75716317D01*
X133282346Y-75570000D01*
X133282346Y-74970000D01*
X133253242Y-74823683D01*
X133170359Y-74699641D01*
X133073618Y-74635000D01*
X133170359Y-74570359D01*
X133253242Y-74446317D01*
X133282346Y-74300000D01*
X133282346Y-73700000D01*
X133253242Y-73553683D01*
X133170359Y-73429641D01*
X133073618Y-73365000D01*
X133170359Y-73300359D01*
X133253242Y-73176317D01*
X133282346Y-73030000D01*
X133282346Y-72430000D01*
X133253242Y-72283683D01*
X133170359Y-72159641D01*
X133073618Y-72095000D01*
X133170359Y-72030359D01*
X133253242Y-71906317D01*
X133282346Y-71760000D01*
X133282346Y-71160000D01*
X133253242Y-71013683D01*
X133170359Y-70889641D01*
X133046317Y-70806758D01*
X132900000Y-70777654D01*
X131069549Y-70777654D01*
X131039999Y-70771776D01*
X131010449Y-70777654D01*
X130700000Y-70777654D01*
X130553683Y-70806758D01*
X130429641Y-70889641D01*
X130346758Y-71013683D01*
X130317654Y-71160000D01*
X130317654Y-71227751D01*
X129339713Y-72205693D01*
X129283352Y-72243352D01*
X129245693Y-72299713D01*
X128327752Y-73217654D01*
X126250000Y-73217654D01*
X126103683Y-73246758D01*
X125979641Y-73329641D01*
X125896758Y-73453683D01*
X125867654Y-73600000D01*
X125867654Y-74544909D01*
X124442221Y-75970343D01*
X124369161Y-76019160D01*
X124320344Y-76092220D01*
X124175769Y-76308592D01*
X124107858Y-76650000D01*
X124125001Y-76736183D01*
X124125000Y-90653771D01*
X124107858Y-90739949D01*
X124125000Y-90826127D01*
X124175768Y-91081356D01*
X124369160Y-91370789D01*
X124442223Y-91419608D01*
X124830392Y-91807777D01*
X124879211Y-91880840D01*
X125168643Y-92074232D01*
X125375000Y-92115279D01*
X125375000Y-94375000D01*
X120425000Y-94375000D01*
X120425000Y-68523016D01*
X120457212Y-68226495D01*
X122125000Y-68226495D01*
X122125000Y-68773505D01*
X122334331Y-69278875D01*
X122721125Y-69665669D01*
X123226495Y-69875000D01*
X123773505Y-69875000D01*
X124278875Y-69665669D01*
X124665669Y-69278875D01*
X124875000Y-68773505D01*
X124875000Y-68226495D01*
X124665669Y-67721125D01*
X124278875Y-67334331D01*
X123773505Y-67125000D01*
X123226495Y-67125000D01*
X122721125Y-67334331D01*
X122334331Y-67721125D01*
X122125000Y-68226495D01*
X120457212Y-68226495D01*
X120499174Y-67840228D01*
X120710856Y-67211231D01*
X121052662Y-66642369D01*
X121508652Y-66160173D01*
X122057549Y-65787144D01*
X122673746Y-65540683D01*
X123345454Y-65429482D01*
X123505923Y-65425000D01*
X143731116Y-65425000D01*
X143451588Y-65704528D01*
X143451588Y-65704528D01*
G37*
X143451588Y-65704528D02*
X143399400Y-65739399D01*
X143305109Y-65880516D01*
X143261262Y-65946137D01*
X143212755Y-66189999D01*
X143225000Y-66251559D01*
X143224999Y-67748446D01*
X143212755Y-67810001D01*
X143244047Y-67967317D01*
X143261262Y-68053863D01*
X143399399Y-68260601D01*
X143451589Y-68295473D01*
X143917654Y-68761539D01*
X143917654Y-68950000D01*
X143946758Y-69096317D01*
X144029641Y-69220359D01*
X144153683Y-69303242D01*
X144300000Y-69332346D01*
X145500000Y-69332346D01*
X145646317Y-69303242D01*
X145770359Y-69220359D01*
X145853242Y-69096317D01*
X145882346Y-68950000D01*
X145882346Y-68050000D01*
X145853242Y-67903683D01*
X145770359Y-67779641D01*
X145646317Y-67696758D01*
X145500000Y-67667654D01*
X144591534Y-67667654D01*
X144474999Y-67551119D01*
X144474999Y-66448881D01*
X144498880Y-66425000D01*
X146142518Y-66425000D01*
X146117654Y-66550000D01*
X146117654Y-67450000D01*
X146146758Y-67596317D01*
X146229641Y-67720359D01*
X146274001Y-67750000D01*
X146229641Y-67779641D01*
X146146758Y-67903683D01*
X146117654Y-68050000D01*
X146117654Y-68950000D01*
X146146758Y-69096317D01*
X146229641Y-69220359D01*
X146353683Y-69303242D01*
X146393486Y-69311159D01*
X146375000Y-69355788D01*
X146375000Y-69644212D01*
X146485374Y-69910680D01*
X146542348Y-69967654D01*
X146500000Y-69967654D01*
X146353683Y-69996758D01*
X146229641Y-70079641D01*
X146146758Y-70203683D01*
X146117654Y-70350000D01*
X146117654Y-70745550D01*
X145882346Y-70510242D01*
X145882346Y-70350000D01*
X145853242Y-70203683D01*
X145770359Y-70079641D01*
X145646317Y-69996758D01*
X145500000Y-69967654D01*
X144300000Y-69967654D01*
X144153683Y-69996758D01*
X144029641Y-70079641D01*
X143946758Y-70203683D01*
X143917654Y-70350000D01*
X143917654Y-71250000D01*
X143946758Y-71396317D01*
X144029641Y-71520359D01*
X144153683Y-71603242D01*
X144300000Y-71632346D01*
X145500000Y-71632346D01*
X145575266Y-71617375D01*
X146026649Y-72068757D01*
X145327753Y-72767654D01*
X143900000Y-72767654D01*
X143753683Y-72796758D01*
X143629641Y-72879641D01*
X143619750Y-72894444D01*
X143510680Y-72785374D01*
X143244212Y-72675000D01*
X142955788Y-72675000D01*
X142689320Y-72785374D01*
X142485374Y-72989320D01*
X142375000Y-73255788D01*
X142375000Y-73544212D01*
X142449884Y-73725000D01*
X142282346Y-73725000D01*
X142282346Y-71750000D01*
X142253242Y-71603683D01*
X142170359Y-71479641D01*
X142046317Y-71396758D01*
X141900000Y-71367654D01*
X140100000Y-71367654D01*
X139953683Y-71396758D01*
X139829641Y-71479641D01*
X139746758Y-71603683D01*
X139717654Y-71750000D01*
X139717654Y-72055000D01*
X138533481Y-72055000D01*
X138570359Y-72030359D01*
X138653242Y-71906317D01*
X138682346Y-71760000D01*
X138682346Y-71160000D01*
X138653242Y-71013683D01*
X138570359Y-70889641D01*
X138446317Y-70806758D01*
X138300000Y-70777654D01*
X137875000Y-70777654D01*
X137875000Y-69175000D01*
X139717654Y-69175000D01*
X139717654Y-70250000D01*
X139746758Y-70396317D01*
X139829641Y-70520359D01*
X139953683Y-70603242D01*
X140100000Y-70632346D01*
X141900000Y-70632346D01*
X142046317Y-70603242D01*
X142170359Y-70520359D01*
X142253242Y-70396317D01*
X142282346Y-70250000D01*
X142282346Y-66750000D01*
X142253242Y-66603683D01*
X142170359Y-66479641D01*
X142046317Y-66396758D01*
X141900000Y-66367654D01*
X140100000Y-66367654D01*
X139953683Y-66396758D01*
X139829641Y-66479641D01*
X139746758Y-66603683D01*
X139717654Y-66750000D01*
X139717654Y-67825000D01*
X137882346Y-67825000D01*
X137882346Y-67150000D01*
X137853242Y-67003683D01*
X137770359Y-66879641D01*
X137646317Y-66796758D01*
X137500000Y-66767654D01*
X135500000Y-66767654D01*
X135353683Y-66796758D01*
X135229641Y-66879641D01*
X135146758Y-67003683D01*
X135117654Y-67150000D01*
X135117654Y-68850000D01*
X135146758Y-68996317D01*
X135229641Y-69120359D01*
X135353683Y-69203242D01*
X135500000Y-69232346D01*
X136525001Y-69232346D01*
X136525000Y-70777654D01*
X136100000Y-70777654D01*
X135953683Y-70806758D01*
X135829641Y-70889641D01*
X135746758Y-71013683D01*
X135717654Y-71160000D01*
X135717654Y-71760000D01*
X135746758Y-71906317D01*
X135829641Y-72030359D01*
X135926382Y-72095000D01*
X135829641Y-72159641D01*
X135746758Y-72283683D01*
X135717654Y-72430000D01*
X135717654Y-73030000D01*
X135746758Y-73176317D01*
X135829641Y-73300359D01*
X135926382Y-73365000D01*
X135829641Y-73429641D01*
X135746758Y-73553683D01*
X135717654Y-73700000D01*
X135717654Y-74300000D01*
X135746758Y-74446317D01*
X135829641Y-74570359D01*
X135926382Y-74635000D01*
X135829641Y-74699641D01*
X135746758Y-74823683D01*
X135717654Y-74970000D01*
X135717654Y-75570000D01*
X135746758Y-75716317D01*
X135829641Y-75840359D01*
X135881484Y-75875000D01*
X133118516Y-75875000D01*
X133170359Y-75840359D01*
X133253242Y-75716317D01*
X133282346Y-75570000D01*
X133282346Y-74970000D01*
X133253242Y-74823683D01*
X133170359Y-74699641D01*
X133073618Y-74635000D01*
X133170359Y-74570359D01*
X133253242Y-74446317D01*
X133282346Y-74300000D01*
X133282346Y-73700000D01*
X133253242Y-73553683D01*
X133170359Y-73429641D01*
X133073618Y-73365000D01*
X133170359Y-73300359D01*
X133253242Y-73176317D01*
X133282346Y-73030000D01*
X133282346Y-72430000D01*
X133253242Y-72283683D01*
X133170359Y-72159641D01*
X133073618Y-72095000D01*
X133170359Y-72030359D01*
X133253242Y-71906317D01*
X133282346Y-71760000D01*
X133282346Y-71160000D01*
X133253242Y-71013683D01*
X133170359Y-70889641D01*
X133046317Y-70806758D01*
X132900000Y-70777654D01*
X131069549Y-70777654D01*
X131039999Y-70771776D01*
X131010449Y-70777654D01*
X130700000Y-70777654D01*
X130553683Y-70806758D01*
X130429641Y-70889641D01*
X130346758Y-71013683D01*
X130317654Y-71160000D01*
X130317654Y-71227751D01*
X129339713Y-72205693D01*
X129283352Y-72243352D01*
X129245693Y-72299713D01*
X128327752Y-73217654D01*
X126250000Y-73217654D01*
X126103683Y-73246758D01*
X125979641Y-73329641D01*
X125896758Y-73453683D01*
X125867654Y-73600000D01*
X125867654Y-74544909D01*
X124442221Y-75970343D01*
X124369161Y-76019160D01*
X124320344Y-76092220D01*
X124175769Y-76308592D01*
X124107858Y-76650000D01*
X124125001Y-76736183D01*
X124125000Y-90653771D01*
X124107858Y-90739949D01*
X124125000Y-90826127D01*
X124175768Y-91081356D01*
X124369160Y-91370789D01*
X124442223Y-91419608D01*
X124830392Y-91807777D01*
X124879211Y-91880840D01*
X125168643Y-92074232D01*
X125375000Y-92115279D01*
X125375000Y-94375000D01*
X120425000Y-94375000D01*
X120425000Y-68523016D01*
X120457212Y-68226495D01*
X122125000Y-68226495D01*
X122125000Y-68773505D01*
X122334331Y-69278875D01*
X122721125Y-69665669D01*
X123226495Y-69875000D01*
X123773505Y-69875000D01*
X124278875Y-69665669D01*
X124665669Y-69278875D01*
X124875000Y-68773505D01*
X124875000Y-68226495D01*
X124665669Y-67721125D01*
X124278875Y-67334331D01*
X123773505Y-67125000D01*
X123226495Y-67125000D01*
X122721125Y-67334331D01*
X122334331Y-67721125D01*
X122125000Y-68226495D01*
X120457212Y-68226495D01*
X120499174Y-67840228D01*
X120710856Y-67211231D01*
X121052662Y-66642369D01*
X121508652Y-66160173D01*
X122057549Y-65787144D01*
X122673746Y-65540683D01*
X123345454Y-65429482D01*
X123505923Y-65425000D01*
X143731116Y-65425000D01*
X143451588Y-65704528D01*
G36*
X167159772Y-65499174D02*
X167788769Y-65710856D01*
X168357631Y-66052662D01*
X168839827Y-66508652D01*
X169212856Y-67057549D01*
X169459317Y-67673746D01*
X169570518Y-68345454D01*
X169575000Y-68505923D01*
X169575000Y-75875000D01*
X166433000Y-75875000D01*
X166433000Y-70253430D01*
X166726495Y-70375000D01*
X167273505Y-70375000D01*
X167778875Y-70165669D01*
X168165669Y-69778875D01*
X168375000Y-69273505D01*
X168375000Y-68726495D01*
X168165669Y-68221125D01*
X167778875Y-67834331D01*
X167273505Y-67625000D01*
X166726495Y-67625000D01*
X166433000Y-67746570D01*
X166433000Y-67000000D01*
X166384816Y-66757761D01*
X166247599Y-66552401D01*
X165447599Y-65752401D01*
X165242239Y-65615184D01*
X165000000Y-65567000D01*
X159450882Y-65567000D01*
X159308882Y-65425000D01*
X166476984Y-65425000D01*
X167159772Y-65499174D01*
X167159772Y-65499174D01*
G37*
X167159772Y-65499174D02*
X167788769Y-65710856D01*
X168357631Y-66052662D01*
X168839827Y-66508652D01*
X169212856Y-67057549D01*
X169459317Y-67673746D01*
X169570518Y-68345454D01*
X169575000Y-68505923D01*
X169575000Y-75875000D01*
X166433000Y-75875000D01*
X166433000Y-70253430D01*
X166726495Y-70375000D01*
X167273505Y-70375000D01*
X167778875Y-70165669D01*
X168165669Y-69778875D01*
X168375000Y-69273505D01*
X168375000Y-68726495D01*
X168165669Y-68221125D01*
X167778875Y-67834331D01*
X167273505Y-67625000D01*
X166726495Y-67625000D01*
X166433000Y-67746570D01*
X166433000Y-67000000D01*
X166384816Y-66757761D01*
X166247599Y-66552401D01*
X165447599Y-65752401D01*
X165242239Y-65615184D01*
X165000000Y-65567000D01*
X159450882Y-65567000D01*
X159308882Y-65425000D01*
X166476984Y-65425000D01*
X167159772Y-65499174D01*
G36*
X158865692Y-75875000D02*
X146200667Y-75875000D01*
X146253242Y-75796317D01*
X146282346Y-75650000D01*
X146282346Y-73722247D01*
X147129594Y-72875000D01*
X149633519Y-72875000D01*
X149700000Y-72888224D01*
X149766481Y-72875000D01*
X149862670Y-72855867D01*
X149885374Y-72910680D01*
X150089320Y-73114626D01*
X150355788Y-73225000D01*
X150644212Y-73225000D01*
X150910680Y-73114626D01*
X150992306Y-73033000D01*
X158200000Y-73033000D01*
X158442239Y-72984816D01*
X158647599Y-72847599D01*
X158784816Y-72642239D01*
X158830367Y-72413235D01*
X158865692Y-75875000D01*
X158865692Y-75875000D01*
G37*
X158865692Y-75875000D02*
X146200667Y-75875000D01*
X146253242Y-75796317D01*
X146282346Y-75650000D01*
X146282346Y-73722247D01*
X147129594Y-72875000D01*
X149633519Y-72875000D01*
X149700000Y-72888224D01*
X149766481Y-72875000D01*
X149862670Y-72855867D01*
X149885374Y-72910680D01*
X150089320Y-73114626D01*
X150355788Y-73225000D01*
X150644212Y-73225000D01*
X150910680Y-73114626D01*
X150992306Y-73033000D01*
X158200000Y-73033000D01*
X158442239Y-72984816D01*
X158647599Y-72847599D01*
X158784816Y-72642239D01*
X158830367Y-72413235D01*
X158865692Y-75875000D01*
G36*
X150379641Y-66429641D02*
X150296758Y-66553683D01*
X150267654Y-66700000D01*
X150267654Y-68200000D01*
X150296758Y-68346317D01*
X150379641Y-68470359D01*
X150503683Y-68553242D01*
X150650000Y-68582346D01*
X151250000Y-68582346D01*
X151396317Y-68553242D01*
X151467000Y-68506013D01*
X151467000Y-68867000D01*
X150500000Y-68867000D01*
X150257761Y-68915184D01*
X150052401Y-69052401D01*
X149915184Y-69257761D01*
X149883380Y-69417654D01*
X149700000Y-69417654D01*
X149553683Y-69446758D01*
X149525000Y-69465924D01*
X149496317Y-69446758D01*
X149350000Y-69417654D01*
X148750000Y-69417654D01*
X148603683Y-69446758D01*
X148479641Y-69529641D01*
X148396758Y-69653683D01*
X148367654Y-69800000D01*
X148367654Y-70175000D01*
X148034076Y-70175000D01*
X147970359Y-70079641D01*
X147846317Y-69996758D01*
X147700000Y-69967654D01*
X147657652Y-69967654D01*
X147714626Y-69910680D01*
X147825000Y-69644212D01*
X147825000Y-69355788D01*
X147806514Y-69311159D01*
X147846317Y-69303242D01*
X147970359Y-69220359D01*
X148053242Y-69096317D01*
X148082346Y-68950000D01*
X148082346Y-68250000D01*
X148377600Y-68250000D01*
X148396758Y-68346317D01*
X148479641Y-68470359D01*
X148603683Y-68553242D01*
X148750000Y-68582346D01*
X149350000Y-68582346D01*
X149496317Y-68553242D01*
X149620359Y-68470359D01*
X149703242Y-68346317D01*
X149732346Y-68200000D01*
X149732346Y-66700000D01*
X149703242Y-66553683D01*
X149620359Y-66429641D01*
X149613413Y-66425000D01*
X150386587Y-66425000D01*
X150379641Y-66429641D01*
X150379641Y-66429641D01*
G37*
X150379641Y-66429641D02*
X150296758Y-66553683D01*
X150267654Y-66700000D01*
X150267654Y-68200000D01*
X150296758Y-68346317D01*
X150379641Y-68470359D01*
X150503683Y-68553242D01*
X150650000Y-68582346D01*
X151250000Y-68582346D01*
X151396317Y-68553242D01*
X151467000Y-68506013D01*
X151467000Y-68867000D01*
X150500000Y-68867000D01*
X150257761Y-68915184D01*
X150052401Y-69052401D01*
X149915184Y-69257761D01*
X149883380Y-69417654D01*
X149700000Y-69417654D01*
X149553683Y-69446758D01*
X149525000Y-69465924D01*
X149496317Y-69446758D01*
X149350000Y-69417654D01*
X148750000Y-69417654D01*
X148603683Y-69446758D01*
X148479641Y-69529641D01*
X148396758Y-69653683D01*
X148367654Y-69800000D01*
X148367654Y-70175000D01*
X148034076Y-70175000D01*
X147970359Y-70079641D01*
X147846317Y-69996758D01*
X147700000Y-69967654D01*
X147657652Y-69967654D01*
X147714626Y-69910680D01*
X147825000Y-69644212D01*
X147825000Y-69355788D01*
X147806514Y-69311159D01*
X147846317Y-69303242D01*
X147970359Y-69220359D01*
X148053242Y-69096317D01*
X148082346Y-68950000D01*
X148082346Y-68250000D01*
X148377600Y-68250000D01*
X148396758Y-68346317D01*
X148479641Y-68470359D01*
X148603683Y-68553242D01*
X148750000Y-68582346D01*
X149350000Y-68582346D01*
X149496317Y-68553242D01*
X149620359Y-68470359D01*
X149703242Y-68346317D01*
X149732346Y-68200000D01*
X149732346Y-66700000D01*
X149703242Y-66553683D01*
X149620359Y-66429641D01*
X149613413Y-66425000D01*
X150386587Y-66425000D01*
X150379641Y-66429641D01*
D47*
G36*
X158073000Y-72273000D02*
X151472130Y-72273000D01*
X151335042Y-71942042D01*
X151057958Y-71664958D01*
X150935000Y-71614027D01*
X150935000Y-71362541D01*
X150947440Y-71300000D01*
X150947440Y-69800000D01*
X150936303Y-69744012D01*
X150957958Y-69735042D01*
X151027907Y-69665093D01*
X151084917Y-69627000D01*
X152100000Y-69627000D01*
X152148601Y-69617333D01*
X152189803Y-69589803D01*
X152217333Y-69548601D01*
X152227000Y-69500000D01*
X152227000Y-68427947D01*
X152325000Y-68447440D01*
X153075000Y-68447440D01*
X153177760Y-68427000D01*
X154200000Y-68427000D01*
X154248601Y-68417333D01*
X154289803Y-68389803D01*
X154317333Y-68348601D01*
X154327000Y-68300000D01*
X154327000Y-66685000D01*
X158073000Y-66685000D01*
X158073000Y-72273000D01*
X158073000Y-72273000D01*
G37*
X158073000Y-72273000D02*
X151472130Y-72273000D01*
X151335042Y-71942042D01*
X151057958Y-71664958D01*
X150935000Y-71614027D01*
X150935000Y-71362541D01*
X150947440Y-71300000D01*
X150947440Y-69800000D01*
X150936303Y-69744012D01*
X150957958Y-69735042D01*
X151027907Y-69665093D01*
X151084917Y-69627000D01*
X152100000Y-69627000D01*
X152148601Y-69617333D01*
X152189803Y-69589803D01*
X152217333Y-69548601D01*
X152227000Y-69500000D01*
X152227000Y-68427947D01*
X152325000Y-68447440D01*
X153075000Y-68447440D01*
X153177760Y-68427000D01*
X154200000Y-68427000D01*
X154248601Y-68417333D01*
X154289803Y-68389803D01*
X154317333Y-68348601D01*
X154327000Y-68300000D01*
X154327000Y-66685000D01*
X158073000Y-66685000D01*
X158073000Y-72273000D01*
G36*
X165673000Y-67052606D02*
X165673000Y-68014761D01*
X165613914Y-68073847D01*
X165365000Y-68674778D01*
X165365000Y-69325222D01*
X165613914Y-69926153D01*
X165673000Y-69985239D01*
X165673000Y-75873000D01*
X159625710Y-75873000D01*
X159528302Y-66327000D01*
X164947394Y-66327000D01*
X165673000Y-67052606D01*
X165673000Y-67052606D01*
G37*
X165673000Y-67052606D02*
X165673000Y-68014761D01*
X165613914Y-68073847D01*
X165365000Y-68674778D01*
X165365000Y-69325222D01*
X165613914Y-69926153D01*
X165673000Y-69985239D01*
X165673000Y-75873000D01*
X159625710Y-75873000D01*
X159528302Y-66327000D01*
X164947394Y-66327000D01*
X165673000Y-67052606D01*
M02*
