G04 #@! TF.GenerationSoftware,KiCad,Pcbnew,5.0.0-rc3-6a2723a~65~ubuntu18.04.1*
G04 #@! TF.CreationDate,2018-07-14T21:10:53+02:00*
G04 #@! TF.ProjectId,can-node,63616E2D6E6F64652E6B696361645F70,1.1*
G04 #@! TF.SameCoordinates,Original*
G04 #@! TF.FileFunction,Soldermask,Top*
G04 #@! TF.FilePolarity,Negative*
%FSLAX46Y46*%
G04 Gerber Fmt 4.6, Leading zero omitted, Abs format (unit mm)*
G04 Created by KiCad (PCBNEW 5.0.0-rc3-6a2723a~65~ubuntu18.04.1) date Sat Jul 14 21:10:53 2018*
%MOMM*%
%LPD*%
G01*
G04 APERTURE LIST*
%ADD10C,0.100000*%
%ADD11C,0.950000*%
%ADD12R,2.000000X1.000000*%
%ADD13R,2.500000X3.500000*%
%ADD14C,1.000000*%
%ADD15C,2.000000*%
%ADD16R,1.500000X0.500000*%
%ADD17R,1.600000X2.500000*%
%ADD18C,0.600000*%
%ADD19C,1.750000*%
%ADD20C,1.500000*%
%ADD21R,2.000000X2.000000*%
%ADD22R,3.500000X1.800000*%
%ADD23R,0.900000X1.200000*%
%ADD24R,3.500000X5.500000*%
%ADD25R,0.800000X0.800000*%
%ADD26R,0.900000X0.450000*%
%ADD27R,1.200000X1.400000*%
%ADD28R,0.600000X1.500000*%
%ADD29R,2.000000X0.300000*%
%ADD30R,0.300000X2.000000*%
%ADD31R,2.000000X1.400000*%
%ADD32C,1.525000*%
%ADD33C,1.425000*%
%ADD34R,0.400000X1.500000*%
%ADD35C,1.325000*%
G04 APERTURE END LIST*
D10*
G04 #@! TO.C,C20*
G36*
X138885779Y-93526144D02*
X138908834Y-93529563D01*
X138931443Y-93535227D01*
X138953387Y-93543079D01*
X138974457Y-93553044D01*
X138994448Y-93565026D01*
X139013168Y-93578910D01*
X139030438Y-93594562D01*
X139046090Y-93611832D01*
X139059974Y-93630552D01*
X139071956Y-93650543D01*
X139081921Y-93671613D01*
X139089773Y-93693557D01*
X139095437Y-93716166D01*
X139098856Y-93739221D01*
X139100000Y-93762500D01*
X139100000Y-94237500D01*
X139098856Y-94260779D01*
X139095437Y-94283834D01*
X139089773Y-94306443D01*
X139081921Y-94328387D01*
X139071956Y-94349457D01*
X139059974Y-94369448D01*
X139046090Y-94388168D01*
X139030438Y-94405438D01*
X139013168Y-94421090D01*
X138994448Y-94434974D01*
X138974457Y-94446956D01*
X138953387Y-94456921D01*
X138931443Y-94464773D01*
X138908834Y-94470437D01*
X138885779Y-94473856D01*
X138862500Y-94475000D01*
X138287500Y-94475000D01*
X138264221Y-94473856D01*
X138241166Y-94470437D01*
X138218557Y-94464773D01*
X138196613Y-94456921D01*
X138175543Y-94446956D01*
X138155552Y-94434974D01*
X138136832Y-94421090D01*
X138119562Y-94405438D01*
X138103910Y-94388168D01*
X138090026Y-94369448D01*
X138078044Y-94349457D01*
X138068079Y-94328387D01*
X138060227Y-94306443D01*
X138054563Y-94283834D01*
X138051144Y-94260779D01*
X138050000Y-94237500D01*
X138050000Y-93762500D01*
X138051144Y-93739221D01*
X138054563Y-93716166D01*
X138060227Y-93693557D01*
X138068079Y-93671613D01*
X138078044Y-93650543D01*
X138090026Y-93630552D01*
X138103910Y-93611832D01*
X138119562Y-93594562D01*
X138136832Y-93578910D01*
X138155552Y-93565026D01*
X138175543Y-93553044D01*
X138196613Y-93543079D01*
X138218557Y-93535227D01*
X138241166Y-93529563D01*
X138264221Y-93526144D01*
X138287500Y-93525000D01*
X138862500Y-93525000D01*
X138885779Y-93526144D01*
X138885779Y-93526144D01*
G37*
D11*
X138575000Y-94000000D03*
D10*
G36*
X137135779Y-93526144D02*
X137158834Y-93529563D01*
X137181443Y-93535227D01*
X137203387Y-93543079D01*
X137224457Y-93553044D01*
X137244448Y-93565026D01*
X137263168Y-93578910D01*
X137280438Y-93594562D01*
X137296090Y-93611832D01*
X137309974Y-93630552D01*
X137321956Y-93650543D01*
X137331921Y-93671613D01*
X137339773Y-93693557D01*
X137345437Y-93716166D01*
X137348856Y-93739221D01*
X137350000Y-93762500D01*
X137350000Y-94237500D01*
X137348856Y-94260779D01*
X137345437Y-94283834D01*
X137339773Y-94306443D01*
X137331921Y-94328387D01*
X137321956Y-94349457D01*
X137309974Y-94369448D01*
X137296090Y-94388168D01*
X137280438Y-94405438D01*
X137263168Y-94421090D01*
X137244448Y-94434974D01*
X137224457Y-94446956D01*
X137203387Y-94456921D01*
X137181443Y-94464773D01*
X137158834Y-94470437D01*
X137135779Y-94473856D01*
X137112500Y-94475000D01*
X136537500Y-94475000D01*
X136514221Y-94473856D01*
X136491166Y-94470437D01*
X136468557Y-94464773D01*
X136446613Y-94456921D01*
X136425543Y-94446956D01*
X136405552Y-94434974D01*
X136386832Y-94421090D01*
X136369562Y-94405438D01*
X136353910Y-94388168D01*
X136340026Y-94369448D01*
X136328044Y-94349457D01*
X136318079Y-94328387D01*
X136310227Y-94306443D01*
X136304563Y-94283834D01*
X136301144Y-94260779D01*
X136300000Y-94237500D01*
X136300000Y-93762500D01*
X136301144Y-93739221D01*
X136304563Y-93716166D01*
X136310227Y-93693557D01*
X136318079Y-93671613D01*
X136328044Y-93650543D01*
X136340026Y-93630552D01*
X136353910Y-93611832D01*
X136369562Y-93594562D01*
X136386832Y-93578910D01*
X136405552Y-93565026D01*
X136425543Y-93553044D01*
X136446613Y-93543079D01*
X136468557Y-93535227D01*
X136491166Y-93529563D01*
X136514221Y-93526144D01*
X136537500Y-93525000D01*
X137112500Y-93525000D01*
X137135779Y-93526144D01*
X137135779Y-93526144D01*
G37*
D11*
X136825000Y-94000000D03*
G04 #@! TD*
D12*
G04 #@! TO.C,X1*
X144500000Y-97200000D03*
X144500000Y-99800000D03*
D13*
X138250000Y-98500000D03*
G04 #@! TD*
D14*
G04 #@! TO.C,W1*
X147100000Y-92950000D03*
G04 #@! TD*
G04 #@! TO.C,W2*
X140300000Y-90900000D03*
G04 #@! TD*
G04 #@! TO.C,URX*
X165800000Y-101400000D03*
G04 #@! TD*
G04 #@! TO.C,UTX*
X163900000Y-101400000D03*
G04 #@! TD*
G04 #@! TO.C,W8*
X132100000Y-74500000D03*
G04 #@! TD*
G04 #@! TO.C,W12*
X153500000Y-72500000D03*
G04 #@! TD*
D15*
G04 #@! TO.C,REF\002A\002A*
X167000000Y-115000000D03*
G04 #@! TD*
G04 #@! TO.C,REF\002A\002A*
X123500000Y-115000000D03*
G04 #@! TD*
G04 #@! TO.C,REF\002A\002A*
X167000000Y-69000000D03*
G04 #@! TD*
G04 #@! TO.C,REF\002A\002A*
X123500000Y-68500000D03*
G04 #@! TD*
D16*
G04 #@! TO.C,U4*
X143250000Y-121000000D03*
X143250000Y-122000000D03*
X143250000Y-123000000D03*
X146750000Y-121000000D03*
X146750000Y-122000000D03*
X146750000Y-123000000D03*
D17*
X145000000Y-122000000D03*
D18*
X145400000Y-121150000D03*
X145400000Y-122850000D03*
X145400000Y-122000000D03*
X144600000Y-121150000D03*
X144600000Y-122850000D03*
X144600000Y-122000000D03*
G04 #@! TD*
D19*
G04 #@! TO.C,P2*
X131500000Y-98750000D03*
X131500000Y-96250000D03*
X131500000Y-93750000D03*
X131500000Y-91250000D03*
X126500000Y-98750000D03*
X126500000Y-96250000D03*
X126500000Y-93750000D03*
X126500000Y-91250000D03*
G04 #@! TD*
D20*
G04 #@! TO.C,AFF1*
X136110000Y-78420000D03*
X138650000Y-78420000D03*
X141190000Y-78420000D03*
X143730000Y-78420000D03*
X148810000Y-78420000D03*
X153890000Y-78420000D03*
X153890000Y-88580000D03*
X151350000Y-88580000D03*
X148810000Y-88580000D03*
X146270000Y-88580000D03*
X143730000Y-88580000D03*
X141190000Y-88580000D03*
X138650000Y-88580000D03*
X136110000Y-88580000D03*
G04 #@! TD*
G04 #@! TO.C,W15*
X121500000Y-112500000D03*
G04 #@! TD*
G04 #@! TO.C,W19*
X121500000Y-102000000D03*
G04 #@! TD*
D15*
G04 #@! TO.C,C22*
X123800000Y-107200000D03*
D21*
X133800000Y-107200000D03*
G04 #@! TD*
D22*
G04 #@! TO.C,D1*
X123000000Y-74500000D03*
X128000000Y-74500000D03*
G04 #@! TD*
D23*
G04 #@! TO.C,D4*
X124000000Y-121100000D03*
X124000000Y-118900000D03*
G04 #@! TD*
G04 #@! TO.C,D5*
X166000000Y-118900000D03*
X166000000Y-121100000D03*
G04 #@! TD*
D24*
G04 #@! TO.C,L1*
X150400000Y-69400000D03*
X145200000Y-69400000D03*
G04 #@! TD*
D25*
G04 #@! TO.C,SW2*
X135800000Y-122100000D03*
X134200000Y-117900000D03*
X134200000Y-122100000D03*
X135800000Y-117900000D03*
G04 #@! TD*
G04 #@! TO.C,SW3*
X155800000Y-117900000D03*
X154200000Y-122100000D03*
X154200000Y-117900000D03*
X155800000Y-122100000D03*
G04 #@! TD*
D26*
G04 #@! TO.C,U5*
X140700000Y-94975000D03*
X143300000Y-94975000D03*
X140700000Y-94325000D03*
X143300000Y-94325000D03*
X140700000Y-93675000D03*
X143300000Y-93675000D03*
X140700000Y-93025000D03*
X143300000Y-93025000D03*
G04 #@! TD*
D27*
G04 #@! TO.C,D3*
X142000000Y-71000000D03*
X142000000Y-74800000D03*
G04 #@! TD*
G04 #@! TO.C,D6*
X139000000Y-106900000D03*
X139000000Y-103100000D03*
G04 #@! TD*
D28*
G04 #@! TO.C,U1*
X139950000Y-67450000D03*
X139000000Y-67450000D03*
X138050000Y-67450000D03*
X139950000Y-70550000D03*
X139000000Y-70550000D03*
X138050000Y-70550000D03*
G04 #@! TD*
D29*
G04 #@! TO.C,U3*
X148850000Y-97250000D03*
X148850000Y-97750000D03*
X148850000Y-98250000D03*
X148850000Y-98750000D03*
X148850000Y-99250000D03*
X148850000Y-99750000D03*
X148850000Y-100250000D03*
X148850000Y-100750000D03*
X148850000Y-101250000D03*
X148850000Y-101750000D03*
X148850000Y-102250000D03*
X148850000Y-102750000D03*
X148850000Y-103250000D03*
X148850000Y-103750000D03*
X148850000Y-104250000D03*
X148850000Y-104750000D03*
D30*
X151250000Y-107150000D03*
X151750000Y-107150000D03*
X152250000Y-107150000D03*
X152750000Y-107150000D03*
X153250000Y-107150000D03*
X153750000Y-107150000D03*
X154250000Y-107150000D03*
X154750000Y-107150000D03*
X155250000Y-107150000D03*
X155750000Y-107150000D03*
X156250000Y-107150000D03*
X156750000Y-107150000D03*
X157250000Y-107150000D03*
X157750000Y-107150000D03*
X158250000Y-107150000D03*
X158750000Y-107150000D03*
D29*
X161150000Y-104750000D03*
X161150000Y-104250000D03*
X161150000Y-103750000D03*
X161150000Y-103250000D03*
X161150000Y-102750000D03*
X161150000Y-102250000D03*
X161150000Y-101750000D03*
X161150000Y-101250000D03*
X161150000Y-100750000D03*
X161150000Y-100250000D03*
X161150000Y-99750000D03*
X161150000Y-99250000D03*
X161150000Y-98750000D03*
X161150000Y-98250000D03*
X161150000Y-97750000D03*
X161150000Y-97250000D03*
D30*
X158750000Y-94850000D03*
X158250000Y-94850000D03*
X157750000Y-94850000D03*
X157250000Y-94850000D03*
X156750000Y-94850000D03*
X156250000Y-94850000D03*
X155750000Y-94850000D03*
X155250000Y-94850000D03*
X154750000Y-94850000D03*
X154250000Y-94850000D03*
X153750000Y-94850000D03*
X153250000Y-94850000D03*
X152750000Y-94850000D03*
X152250000Y-94850000D03*
X151750000Y-94850000D03*
X151250000Y-94850000D03*
G04 #@! TD*
D25*
G04 #@! TO.C,SW1*
X129200000Y-117900000D03*
X130800000Y-122100000D03*
X130800000Y-117900000D03*
X129200000Y-122100000D03*
G04 #@! TD*
D31*
G04 #@! TO.C,D2*
X126700000Y-71000000D03*
X130300000Y-71000000D03*
G04 #@! TD*
D10*
G04 #@! TO.C,C1*
G36*
X135699505Y-73176204D02*
X135723773Y-73179804D01*
X135747572Y-73185765D01*
X135770671Y-73194030D01*
X135792850Y-73204520D01*
X135813893Y-73217132D01*
X135833599Y-73231747D01*
X135851777Y-73248223D01*
X135868253Y-73266401D01*
X135882868Y-73286107D01*
X135895480Y-73307150D01*
X135905970Y-73329329D01*
X135914235Y-73352428D01*
X135920196Y-73376227D01*
X135923796Y-73400495D01*
X135925000Y-73424999D01*
X135925000Y-75575001D01*
X135923796Y-75599505D01*
X135920196Y-75623773D01*
X135914235Y-75647572D01*
X135905970Y-75670671D01*
X135895480Y-75692850D01*
X135882868Y-75713893D01*
X135868253Y-75733599D01*
X135851777Y-75751777D01*
X135833599Y-75768253D01*
X135813893Y-75782868D01*
X135792850Y-75795480D01*
X135770671Y-75805970D01*
X135747572Y-75814235D01*
X135723773Y-75820196D01*
X135699505Y-75823796D01*
X135675001Y-75825000D01*
X134649999Y-75825000D01*
X134625495Y-75823796D01*
X134601227Y-75820196D01*
X134577428Y-75814235D01*
X134554329Y-75805970D01*
X134532150Y-75795480D01*
X134511107Y-75782868D01*
X134491401Y-75768253D01*
X134473223Y-75751777D01*
X134456747Y-75733599D01*
X134442132Y-75713893D01*
X134429520Y-75692850D01*
X134419030Y-75670671D01*
X134410765Y-75647572D01*
X134404804Y-75623773D01*
X134401204Y-75599505D01*
X134400000Y-75575001D01*
X134400000Y-73424999D01*
X134401204Y-73400495D01*
X134404804Y-73376227D01*
X134410765Y-73352428D01*
X134419030Y-73329329D01*
X134429520Y-73307150D01*
X134442132Y-73286107D01*
X134456747Y-73266401D01*
X134473223Y-73248223D01*
X134491401Y-73231747D01*
X134511107Y-73217132D01*
X134532150Y-73204520D01*
X134554329Y-73194030D01*
X134577428Y-73185765D01*
X134601227Y-73179804D01*
X134625495Y-73176204D01*
X134649999Y-73175000D01*
X135675001Y-73175000D01*
X135699505Y-73176204D01*
X135699505Y-73176204D01*
G37*
D32*
X135162500Y-74500000D03*
D10*
G36*
X140374505Y-73176204D02*
X140398773Y-73179804D01*
X140422572Y-73185765D01*
X140445671Y-73194030D01*
X140467850Y-73204520D01*
X140488893Y-73217132D01*
X140508599Y-73231747D01*
X140526777Y-73248223D01*
X140543253Y-73266401D01*
X140557868Y-73286107D01*
X140570480Y-73307150D01*
X140580970Y-73329329D01*
X140589235Y-73352428D01*
X140595196Y-73376227D01*
X140598796Y-73400495D01*
X140600000Y-73424999D01*
X140600000Y-75575001D01*
X140598796Y-75599505D01*
X140595196Y-75623773D01*
X140589235Y-75647572D01*
X140580970Y-75670671D01*
X140570480Y-75692850D01*
X140557868Y-75713893D01*
X140543253Y-75733599D01*
X140526777Y-75751777D01*
X140508599Y-75768253D01*
X140488893Y-75782868D01*
X140467850Y-75795480D01*
X140445671Y-75805970D01*
X140422572Y-75814235D01*
X140398773Y-75820196D01*
X140374505Y-75823796D01*
X140350001Y-75825000D01*
X139324999Y-75825000D01*
X139300495Y-75823796D01*
X139276227Y-75820196D01*
X139252428Y-75814235D01*
X139229329Y-75805970D01*
X139207150Y-75795480D01*
X139186107Y-75782868D01*
X139166401Y-75768253D01*
X139148223Y-75751777D01*
X139131747Y-75733599D01*
X139117132Y-75713893D01*
X139104520Y-75692850D01*
X139094030Y-75670671D01*
X139085765Y-75647572D01*
X139079804Y-75623773D01*
X139076204Y-75599505D01*
X139075000Y-75575001D01*
X139075000Y-73424999D01*
X139076204Y-73400495D01*
X139079804Y-73376227D01*
X139085765Y-73352428D01*
X139094030Y-73329329D01*
X139104520Y-73307150D01*
X139117132Y-73286107D01*
X139131747Y-73266401D01*
X139148223Y-73248223D01*
X139166401Y-73231747D01*
X139186107Y-73217132D01*
X139207150Y-73204520D01*
X139229329Y-73194030D01*
X139252428Y-73185765D01*
X139276227Y-73179804D01*
X139300495Y-73176204D01*
X139324999Y-73175000D01*
X140350001Y-73175000D01*
X140374505Y-73176204D01*
X140374505Y-73176204D01*
G37*
D32*
X139837500Y-74500000D03*
G04 #@! TD*
D10*
G04 #@! TO.C,R2*
G36*
X136185779Y-70526144D02*
X136208834Y-70529563D01*
X136231443Y-70535227D01*
X136253387Y-70543079D01*
X136274457Y-70553044D01*
X136294448Y-70565026D01*
X136313168Y-70578910D01*
X136330438Y-70594562D01*
X136346090Y-70611832D01*
X136359974Y-70630552D01*
X136371956Y-70650543D01*
X136381921Y-70671613D01*
X136389773Y-70693557D01*
X136395437Y-70716166D01*
X136398856Y-70739221D01*
X136400000Y-70762500D01*
X136400000Y-71237500D01*
X136398856Y-71260779D01*
X136395437Y-71283834D01*
X136389773Y-71306443D01*
X136381921Y-71328387D01*
X136371956Y-71349457D01*
X136359974Y-71369448D01*
X136346090Y-71388168D01*
X136330438Y-71405438D01*
X136313168Y-71421090D01*
X136294448Y-71434974D01*
X136274457Y-71446956D01*
X136253387Y-71456921D01*
X136231443Y-71464773D01*
X136208834Y-71470437D01*
X136185779Y-71473856D01*
X136162500Y-71475000D01*
X135587500Y-71475000D01*
X135564221Y-71473856D01*
X135541166Y-71470437D01*
X135518557Y-71464773D01*
X135496613Y-71456921D01*
X135475543Y-71446956D01*
X135455552Y-71434974D01*
X135436832Y-71421090D01*
X135419562Y-71405438D01*
X135403910Y-71388168D01*
X135390026Y-71369448D01*
X135378044Y-71349457D01*
X135368079Y-71328387D01*
X135360227Y-71306443D01*
X135354563Y-71283834D01*
X135351144Y-71260779D01*
X135350000Y-71237500D01*
X135350000Y-70762500D01*
X135351144Y-70739221D01*
X135354563Y-70716166D01*
X135360227Y-70693557D01*
X135368079Y-70671613D01*
X135378044Y-70650543D01*
X135390026Y-70630552D01*
X135403910Y-70611832D01*
X135419562Y-70594562D01*
X135436832Y-70578910D01*
X135455552Y-70565026D01*
X135475543Y-70553044D01*
X135496613Y-70543079D01*
X135518557Y-70535227D01*
X135541166Y-70529563D01*
X135564221Y-70526144D01*
X135587500Y-70525000D01*
X136162500Y-70525000D01*
X136185779Y-70526144D01*
X136185779Y-70526144D01*
G37*
D11*
X135875000Y-71000000D03*
D10*
G36*
X134435779Y-70526144D02*
X134458834Y-70529563D01*
X134481443Y-70535227D01*
X134503387Y-70543079D01*
X134524457Y-70553044D01*
X134544448Y-70565026D01*
X134563168Y-70578910D01*
X134580438Y-70594562D01*
X134596090Y-70611832D01*
X134609974Y-70630552D01*
X134621956Y-70650543D01*
X134631921Y-70671613D01*
X134639773Y-70693557D01*
X134645437Y-70716166D01*
X134648856Y-70739221D01*
X134650000Y-70762500D01*
X134650000Y-71237500D01*
X134648856Y-71260779D01*
X134645437Y-71283834D01*
X134639773Y-71306443D01*
X134631921Y-71328387D01*
X134621956Y-71349457D01*
X134609974Y-71369448D01*
X134596090Y-71388168D01*
X134580438Y-71405438D01*
X134563168Y-71421090D01*
X134544448Y-71434974D01*
X134524457Y-71446956D01*
X134503387Y-71456921D01*
X134481443Y-71464773D01*
X134458834Y-71470437D01*
X134435779Y-71473856D01*
X134412500Y-71475000D01*
X133837500Y-71475000D01*
X133814221Y-71473856D01*
X133791166Y-71470437D01*
X133768557Y-71464773D01*
X133746613Y-71456921D01*
X133725543Y-71446956D01*
X133705552Y-71434974D01*
X133686832Y-71421090D01*
X133669562Y-71405438D01*
X133653910Y-71388168D01*
X133640026Y-71369448D01*
X133628044Y-71349457D01*
X133618079Y-71328387D01*
X133610227Y-71306443D01*
X133604563Y-71283834D01*
X133601144Y-71260779D01*
X133600000Y-71237500D01*
X133600000Y-70762500D01*
X133601144Y-70739221D01*
X133604563Y-70716166D01*
X133610227Y-70693557D01*
X133618079Y-70671613D01*
X133628044Y-70650543D01*
X133640026Y-70630552D01*
X133653910Y-70611832D01*
X133669562Y-70594562D01*
X133686832Y-70578910D01*
X133705552Y-70565026D01*
X133725543Y-70553044D01*
X133746613Y-70543079D01*
X133768557Y-70535227D01*
X133791166Y-70529563D01*
X133814221Y-70526144D01*
X133837500Y-70525000D01*
X134412500Y-70525000D01*
X134435779Y-70526144D01*
X134435779Y-70526144D01*
G37*
D11*
X134125000Y-71000000D03*
G04 #@! TD*
D10*
G04 #@! TO.C,R3*
G36*
X136185779Y-68026144D02*
X136208834Y-68029563D01*
X136231443Y-68035227D01*
X136253387Y-68043079D01*
X136274457Y-68053044D01*
X136294448Y-68065026D01*
X136313168Y-68078910D01*
X136330438Y-68094562D01*
X136346090Y-68111832D01*
X136359974Y-68130552D01*
X136371956Y-68150543D01*
X136381921Y-68171613D01*
X136389773Y-68193557D01*
X136395437Y-68216166D01*
X136398856Y-68239221D01*
X136400000Y-68262500D01*
X136400000Y-68737500D01*
X136398856Y-68760779D01*
X136395437Y-68783834D01*
X136389773Y-68806443D01*
X136381921Y-68828387D01*
X136371956Y-68849457D01*
X136359974Y-68869448D01*
X136346090Y-68888168D01*
X136330438Y-68905438D01*
X136313168Y-68921090D01*
X136294448Y-68934974D01*
X136274457Y-68946956D01*
X136253387Y-68956921D01*
X136231443Y-68964773D01*
X136208834Y-68970437D01*
X136185779Y-68973856D01*
X136162500Y-68975000D01*
X135587500Y-68975000D01*
X135564221Y-68973856D01*
X135541166Y-68970437D01*
X135518557Y-68964773D01*
X135496613Y-68956921D01*
X135475543Y-68946956D01*
X135455552Y-68934974D01*
X135436832Y-68921090D01*
X135419562Y-68905438D01*
X135403910Y-68888168D01*
X135390026Y-68869448D01*
X135378044Y-68849457D01*
X135368079Y-68828387D01*
X135360227Y-68806443D01*
X135354563Y-68783834D01*
X135351144Y-68760779D01*
X135350000Y-68737500D01*
X135350000Y-68262500D01*
X135351144Y-68239221D01*
X135354563Y-68216166D01*
X135360227Y-68193557D01*
X135368079Y-68171613D01*
X135378044Y-68150543D01*
X135390026Y-68130552D01*
X135403910Y-68111832D01*
X135419562Y-68094562D01*
X135436832Y-68078910D01*
X135455552Y-68065026D01*
X135475543Y-68053044D01*
X135496613Y-68043079D01*
X135518557Y-68035227D01*
X135541166Y-68029563D01*
X135564221Y-68026144D01*
X135587500Y-68025000D01*
X136162500Y-68025000D01*
X136185779Y-68026144D01*
X136185779Y-68026144D01*
G37*
D11*
X135875000Y-68500000D03*
D10*
G36*
X134435779Y-68026144D02*
X134458834Y-68029563D01*
X134481443Y-68035227D01*
X134503387Y-68043079D01*
X134524457Y-68053044D01*
X134544448Y-68065026D01*
X134563168Y-68078910D01*
X134580438Y-68094562D01*
X134596090Y-68111832D01*
X134609974Y-68130552D01*
X134621956Y-68150543D01*
X134631921Y-68171613D01*
X134639773Y-68193557D01*
X134645437Y-68216166D01*
X134648856Y-68239221D01*
X134650000Y-68262500D01*
X134650000Y-68737500D01*
X134648856Y-68760779D01*
X134645437Y-68783834D01*
X134639773Y-68806443D01*
X134631921Y-68828387D01*
X134621956Y-68849457D01*
X134609974Y-68869448D01*
X134596090Y-68888168D01*
X134580438Y-68905438D01*
X134563168Y-68921090D01*
X134544448Y-68934974D01*
X134524457Y-68946956D01*
X134503387Y-68956921D01*
X134481443Y-68964773D01*
X134458834Y-68970437D01*
X134435779Y-68973856D01*
X134412500Y-68975000D01*
X133837500Y-68975000D01*
X133814221Y-68973856D01*
X133791166Y-68970437D01*
X133768557Y-68964773D01*
X133746613Y-68956921D01*
X133725543Y-68946956D01*
X133705552Y-68934974D01*
X133686832Y-68921090D01*
X133669562Y-68905438D01*
X133653910Y-68888168D01*
X133640026Y-68869448D01*
X133628044Y-68849457D01*
X133618079Y-68828387D01*
X133610227Y-68806443D01*
X133604563Y-68783834D01*
X133601144Y-68760779D01*
X133600000Y-68737500D01*
X133600000Y-68262500D01*
X133601144Y-68239221D01*
X133604563Y-68216166D01*
X133610227Y-68193557D01*
X133618079Y-68171613D01*
X133628044Y-68150543D01*
X133640026Y-68130552D01*
X133653910Y-68111832D01*
X133669562Y-68094562D01*
X133686832Y-68078910D01*
X133705552Y-68065026D01*
X133725543Y-68053044D01*
X133746613Y-68043079D01*
X133768557Y-68035227D01*
X133791166Y-68029563D01*
X133814221Y-68026144D01*
X133837500Y-68025000D01*
X134412500Y-68025000D01*
X134435779Y-68026144D01*
X134435779Y-68026144D01*
G37*
D11*
X134125000Y-68500000D03*
G04 #@! TD*
D10*
G04 #@! TO.C,R4*
G36*
X136185779Y-66526144D02*
X136208834Y-66529563D01*
X136231443Y-66535227D01*
X136253387Y-66543079D01*
X136274457Y-66553044D01*
X136294448Y-66565026D01*
X136313168Y-66578910D01*
X136330438Y-66594562D01*
X136346090Y-66611832D01*
X136359974Y-66630552D01*
X136371956Y-66650543D01*
X136381921Y-66671613D01*
X136389773Y-66693557D01*
X136395437Y-66716166D01*
X136398856Y-66739221D01*
X136400000Y-66762500D01*
X136400000Y-67237500D01*
X136398856Y-67260779D01*
X136395437Y-67283834D01*
X136389773Y-67306443D01*
X136381921Y-67328387D01*
X136371956Y-67349457D01*
X136359974Y-67369448D01*
X136346090Y-67388168D01*
X136330438Y-67405438D01*
X136313168Y-67421090D01*
X136294448Y-67434974D01*
X136274457Y-67446956D01*
X136253387Y-67456921D01*
X136231443Y-67464773D01*
X136208834Y-67470437D01*
X136185779Y-67473856D01*
X136162500Y-67475000D01*
X135587500Y-67475000D01*
X135564221Y-67473856D01*
X135541166Y-67470437D01*
X135518557Y-67464773D01*
X135496613Y-67456921D01*
X135475543Y-67446956D01*
X135455552Y-67434974D01*
X135436832Y-67421090D01*
X135419562Y-67405438D01*
X135403910Y-67388168D01*
X135390026Y-67369448D01*
X135378044Y-67349457D01*
X135368079Y-67328387D01*
X135360227Y-67306443D01*
X135354563Y-67283834D01*
X135351144Y-67260779D01*
X135350000Y-67237500D01*
X135350000Y-66762500D01*
X135351144Y-66739221D01*
X135354563Y-66716166D01*
X135360227Y-66693557D01*
X135368079Y-66671613D01*
X135378044Y-66650543D01*
X135390026Y-66630552D01*
X135403910Y-66611832D01*
X135419562Y-66594562D01*
X135436832Y-66578910D01*
X135455552Y-66565026D01*
X135475543Y-66553044D01*
X135496613Y-66543079D01*
X135518557Y-66535227D01*
X135541166Y-66529563D01*
X135564221Y-66526144D01*
X135587500Y-66525000D01*
X136162500Y-66525000D01*
X136185779Y-66526144D01*
X136185779Y-66526144D01*
G37*
D11*
X135875000Y-67000000D03*
D10*
G36*
X134435779Y-66526144D02*
X134458834Y-66529563D01*
X134481443Y-66535227D01*
X134503387Y-66543079D01*
X134524457Y-66553044D01*
X134544448Y-66565026D01*
X134563168Y-66578910D01*
X134580438Y-66594562D01*
X134596090Y-66611832D01*
X134609974Y-66630552D01*
X134621956Y-66650543D01*
X134631921Y-66671613D01*
X134639773Y-66693557D01*
X134645437Y-66716166D01*
X134648856Y-66739221D01*
X134650000Y-66762500D01*
X134650000Y-67237500D01*
X134648856Y-67260779D01*
X134645437Y-67283834D01*
X134639773Y-67306443D01*
X134631921Y-67328387D01*
X134621956Y-67349457D01*
X134609974Y-67369448D01*
X134596090Y-67388168D01*
X134580438Y-67405438D01*
X134563168Y-67421090D01*
X134544448Y-67434974D01*
X134524457Y-67446956D01*
X134503387Y-67456921D01*
X134481443Y-67464773D01*
X134458834Y-67470437D01*
X134435779Y-67473856D01*
X134412500Y-67475000D01*
X133837500Y-67475000D01*
X133814221Y-67473856D01*
X133791166Y-67470437D01*
X133768557Y-67464773D01*
X133746613Y-67456921D01*
X133725543Y-67446956D01*
X133705552Y-67434974D01*
X133686832Y-67421090D01*
X133669562Y-67405438D01*
X133653910Y-67388168D01*
X133640026Y-67369448D01*
X133628044Y-67349457D01*
X133618079Y-67328387D01*
X133610227Y-67306443D01*
X133604563Y-67283834D01*
X133601144Y-67260779D01*
X133600000Y-67237500D01*
X133600000Y-66762500D01*
X133601144Y-66739221D01*
X133604563Y-66716166D01*
X133610227Y-66693557D01*
X133618079Y-66671613D01*
X133628044Y-66650543D01*
X133640026Y-66630552D01*
X133653910Y-66611832D01*
X133669562Y-66594562D01*
X133686832Y-66578910D01*
X133705552Y-66565026D01*
X133725543Y-66553044D01*
X133746613Y-66543079D01*
X133768557Y-66535227D01*
X133791166Y-66529563D01*
X133814221Y-66526144D01*
X133837500Y-66525000D01*
X134412500Y-66525000D01*
X134435779Y-66526144D01*
X134435779Y-66526144D01*
G37*
D11*
X134125000Y-67000000D03*
G04 #@! TD*
D10*
G04 #@! TO.C,C2*
G36*
X142260779Y-68351144D02*
X142283834Y-68354563D01*
X142306443Y-68360227D01*
X142328387Y-68368079D01*
X142349457Y-68378044D01*
X142369448Y-68390026D01*
X142388168Y-68403910D01*
X142405438Y-68419562D01*
X142421090Y-68436832D01*
X142434974Y-68455552D01*
X142446956Y-68475543D01*
X142456921Y-68496613D01*
X142464773Y-68518557D01*
X142470437Y-68541166D01*
X142473856Y-68564221D01*
X142475000Y-68587500D01*
X142475000Y-69162500D01*
X142473856Y-69185779D01*
X142470437Y-69208834D01*
X142464773Y-69231443D01*
X142456921Y-69253387D01*
X142446956Y-69274457D01*
X142434974Y-69294448D01*
X142421090Y-69313168D01*
X142405438Y-69330438D01*
X142388168Y-69346090D01*
X142369448Y-69359974D01*
X142349457Y-69371956D01*
X142328387Y-69381921D01*
X142306443Y-69389773D01*
X142283834Y-69395437D01*
X142260779Y-69398856D01*
X142237500Y-69400000D01*
X141762500Y-69400000D01*
X141739221Y-69398856D01*
X141716166Y-69395437D01*
X141693557Y-69389773D01*
X141671613Y-69381921D01*
X141650543Y-69371956D01*
X141630552Y-69359974D01*
X141611832Y-69346090D01*
X141594562Y-69330438D01*
X141578910Y-69313168D01*
X141565026Y-69294448D01*
X141553044Y-69274457D01*
X141543079Y-69253387D01*
X141535227Y-69231443D01*
X141529563Y-69208834D01*
X141526144Y-69185779D01*
X141525000Y-69162500D01*
X141525000Y-68587500D01*
X141526144Y-68564221D01*
X141529563Y-68541166D01*
X141535227Y-68518557D01*
X141543079Y-68496613D01*
X141553044Y-68475543D01*
X141565026Y-68455552D01*
X141578910Y-68436832D01*
X141594562Y-68419562D01*
X141611832Y-68403910D01*
X141630552Y-68390026D01*
X141650543Y-68378044D01*
X141671613Y-68368079D01*
X141693557Y-68360227D01*
X141716166Y-68354563D01*
X141739221Y-68351144D01*
X141762500Y-68350000D01*
X142237500Y-68350000D01*
X142260779Y-68351144D01*
X142260779Y-68351144D01*
G37*
D11*
X142000000Y-68875000D03*
D10*
G36*
X142260779Y-66601144D02*
X142283834Y-66604563D01*
X142306443Y-66610227D01*
X142328387Y-66618079D01*
X142349457Y-66628044D01*
X142369448Y-66640026D01*
X142388168Y-66653910D01*
X142405438Y-66669562D01*
X142421090Y-66686832D01*
X142434974Y-66705552D01*
X142446956Y-66725543D01*
X142456921Y-66746613D01*
X142464773Y-66768557D01*
X142470437Y-66791166D01*
X142473856Y-66814221D01*
X142475000Y-66837500D01*
X142475000Y-67412500D01*
X142473856Y-67435779D01*
X142470437Y-67458834D01*
X142464773Y-67481443D01*
X142456921Y-67503387D01*
X142446956Y-67524457D01*
X142434974Y-67544448D01*
X142421090Y-67563168D01*
X142405438Y-67580438D01*
X142388168Y-67596090D01*
X142369448Y-67609974D01*
X142349457Y-67621956D01*
X142328387Y-67631921D01*
X142306443Y-67639773D01*
X142283834Y-67645437D01*
X142260779Y-67648856D01*
X142237500Y-67650000D01*
X141762500Y-67650000D01*
X141739221Y-67648856D01*
X141716166Y-67645437D01*
X141693557Y-67639773D01*
X141671613Y-67631921D01*
X141650543Y-67621956D01*
X141630552Y-67609974D01*
X141611832Y-67596090D01*
X141594562Y-67580438D01*
X141578910Y-67563168D01*
X141565026Y-67544448D01*
X141553044Y-67524457D01*
X141543079Y-67503387D01*
X141535227Y-67481443D01*
X141529563Y-67458834D01*
X141526144Y-67435779D01*
X141525000Y-67412500D01*
X141525000Y-66837500D01*
X141526144Y-66814221D01*
X141529563Y-66791166D01*
X141535227Y-66768557D01*
X141543079Y-66746613D01*
X141553044Y-66725543D01*
X141565026Y-66705552D01*
X141578910Y-66686832D01*
X141594562Y-66669562D01*
X141611832Y-66653910D01*
X141630552Y-66640026D01*
X141650543Y-66628044D01*
X141671613Y-66618079D01*
X141693557Y-66610227D01*
X141716166Y-66604563D01*
X141739221Y-66601144D01*
X141762500Y-66600000D01*
X142237500Y-66600000D01*
X142260779Y-66601144D01*
X142260779Y-66601144D01*
G37*
D11*
X142000000Y-67125000D03*
G04 #@! TD*
D10*
G04 #@! TO.C,C3*
G36*
X146999504Y-73126204D02*
X147023773Y-73129804D01*
X147047571Y-73135765D01*
X147070671Y-73144030D01*
X147092849Y-73154520D01*
X147113893Y-73167133D01*
X147133598Y-73181747D01*
X147151777Y-73198223D01*
X147168253Y-73216402D01*
X147182867Y-73236107D01*
X147195480Y-73257151D01*
X147205970Y-73279329D01*
X147214235Y-73302429D01*
X147220196Y-73326227D01*
X147223796Y-73350496D01*
X147225000Y-73375000D01*
X147225000Y-74625000D01*
X147223796Y-74649504D01*
X147220196Y-74673773D01*
X147214235Y-74697571D01*
X147205970Y-74720671D01*
X147195480Y-74742849D01*
X147182867Y-74763893D01*
X147168253Y-74783598D01*
X147151777Y-74801777D01*
X147133598Y-74818253D01*
X147113893Y-74832867D01*
X147092849Y-74845480D01*
X147070671Y-74855970D01*
X147047571Y-74864235D01*
X147023773Y-74870196D01*
X146999504Y-74873796D01*
X146975000Y-74875000D01*
X146050000Y-74875000D01*
X146025496Y-74873796D01*
X146001227Y-74870196D01*
X145977429Y-74864235D01*
X145954329Y-74855970D01*
X145932151Y-74845480D01*
X145911107Y-74832867D01*
X145891402Y-74818253D01*
X145873223Y-74801777D01*
X145856747Y-74783598D01*
X145842133Y-74763893D01*
X145829520Y-74742849D01*
X145819030Y-74720671D01*
X145810765Y-74697571D01*
X145804804Y-74673773D01*
X145801204Y-74649504D01*
X145800000Y-74625000D01*
X145800000Y-73375000D01*
X145801204Y-73350496D01*
X145804804Y-73326227D01*
X145810765Y-73302429D01*
X145819030Y-73279329D01*
X145829520Y-73257151D01*
X145842133Y-73236107D01*
X145856747Y-73216402D01*
X145873223Y-73198223D01*
X145891402Y-73181747D01*
X145911107Y-73167133D01*
X145932151Y-73154520D01*
X145954329Y-73144030D01*
X145977429Y-73135765D01*
X146001227Y-73129804D01*
X146025496Y-73126204D01*
X146050000Y-73125000D01*
X146975000Y-73125000D01*
X146999504Y-73126204D01*
X146999504Y-73126204D01*
G37*
D33*
X146512500Y-74000000D03*
D10*
G36*
X149974504Y-73126204D02*
X149998773Y-73129804D01*
X150022571Y-73135765D01*
X150045671Y-73144030D01*
X150067849Y-73154520D01*
X150088893Y-73167133D01*
X150108598Y-73181747D01*
X150126777Y-73198223D01*
X150143253Y-73216402D01*
X150157867Y-73236107D01*
X150170480Y-73257151D01*
X150180970Y-73279329D01*
X150189235Y-73302429D01*
X150195196Y-73326227D01*
X150198796Y-73350496D01*
X150200000Y-73375000D01*
X150200000Y-74625000D01*
X150198796Y-74649504D01*
X150195196Y-74673773D01*
X150189235Y-74697571D01*
X150180970Y-74720671D01*
X150170480Y-74742849D01*
X150157867Y-74763893D01*
X150143253Y-74783598D01*
X150126777Y-74801777D01*
X150108598Y-74818253D01*
X150088893Y-74832867D01*
X150067849Y-74845480D01*
X150045671Y-74855970D01*
X150022571Y-74864235D01*
X149998773Y-74870196D01*
X149974504Y-74873796D01*
X149950000Y-74875000D01*
X149025000Y-74875000D01*
X149000496Y-74873796D01*
X148976227Y-74870196D01*
X148952429Y-74864235D01*
X148929329Y-74855970D01*
X148907151Y-74845480D01*
X148886107Y-74832867D01*
X148866402Y-74818253D01*
X148848223Y-74801777D01*
X148831747Y-74783598D01*
X148817133Y-74763893D01*
X148804520Y-74742849D01*
X148794030Y-74720671D01*
X148785765Y-74697571D01*
X148779804Y-74673773D01*
X148776204Y-74649504D01*
X148775000Y-74625000D01*
X148775000Y-73375000D01*
X148776204Y-73350496D01*
X148779804Y-73326227D01*
X148785765Y-73302429D01*
X148794030Y-73279329D01*
X148804520Y-73257151D01*
X148817133Y-73236107D01*
X148831747Y-73216402D01*
X148848223Y-73198223D01*
X148866402Y-73181747D01*
X148886107Y-73167133D01*
X148907151Y-73154520D01*
X148929329Y-73144030D01*
X148952429Y-73135765D01*
X148976227Y-73129804D01*
X149000496Y-73126204D01*
X149025000Y-73125000D01*
X149950000Y-73125000D01*
X149974504Y-73126204D01*
X149974504Y-73126204D01*
G37*
D33*
X149487500Y-74000000D03*
G04 #@! TD*
D10*
G04 #@! TO.C,C15*
G36*
X132760779Y-122351144D02*
X132783834Y-122354563D01*
X132806443Y-122360227D01*
X132828387Y-122368079D01*
X132849457Y-122378044D01*
X132869448Y-122390026D01*
X132888168Y-122403910D01*
X132905438Y-122419562D01*
X132921090Y-122436832D01*
X132934974Y-122455552D01*
X132946956Y-122475543D01*
X132956921Y-122496613D01*
X132964773Y-122518557D01*
X132970437Y-122541166D01*
X132973856Y-122564221D01*
X132975000Y-122587500D01*
X132975000Y-123162500D01*
X132973856Y-123185779D01*
X132970437Y-123208834D01*
X132964773Y-123231443D01*
X132956921Y-123253387D01*
X132946956Y-123274457D01*
X132934974Y-123294448D01*
X132921090Y-123313168D01*
X132905438Y-123330438D01*
X132888168Y-123346090D01*
X132869448Y-123359974D01*
X132849457Y-123371956D01*
X132828387Y-123381921D01*
X132806443Y-123389773D01*
X132783834Y-123395437D01*
X132760779Y-123398856D01*
X132737500Y-123400000D01*
X132262500Y-123400000D01*
X132239221Y-123398856D01*
X132216166Y-123395437D01*
X132193557Y-123389773D01*
X132171613Y-123381921D01*
X132150543Y-123371956D01*
X132130552Y-123359974D01*
X132111832Y-123346090D01*
X132094562Y-123330438D01*
X132078910Y-123313168D01*
X132065026Y-123294448D01*
X132053044Y-123274457D01*
X132043079Y-123253387D01*
X132035227Y-123231443D01*
X132029563Y-123208834D01*
X132026144Y-123185779D01*
X132025000Y-123162500D01*
X132025000Y-122587500D01*
X132026144Y-122564221D01*
X132029563Y-122541166D01*
X132035227Y-122518557D01*
X132043079Y-122496613D01*
X132053044Y-122475543D01*
X132065026Y-122455552D01*
X132078910Y-122436832D01*
X132094562Y-122419562D01*
X132111832Y-122403910D01*
X132130552Y-122390026D01*
X132150543Y-122378044D01*
X132171613Y-122368079D01*
X132193557Y-122360227D01*
X132216166Y-122354563D01*
X132239221Y-122351144D01*
X132262500Y-122350000D01*
X132737500Y-122350000D01*
X132760779Y-122351144D01*
X132760779Y-122351144D01*
G37*
D11*
X132500000Y-122875000D03*
D10*
G36*
X132760779Y-120601144D02*
X132783834Y-120604563D01*
X132806443Y-120610227D01*
X132828387Y-120618079D01*
X132849457Y-120628044D01*
X132869448Y-120640026D01*
X132888168Y-120653910D01*
X132905438Y-120669562D01*
X132921090Y-120686832D01*
X132934974Y-120705552D01*
X132946956Y-120725543D01*
X132956921Y-120746613D01*
X132964773Y-120768557D01*
X132970437Y-120791166D01*
X132973856Y-120814221D01*
X132975000Y-120837500D01*
X132975000Y-121412500D01*
X132973856Y-121435779D01*
X132970437Y-121458834D01*
X132964773Y-121481443D01*
X132956921Y-121503387D01*
X132946956Y-121524457D01*
X132934974Y-121544448D01*
X132921090Y-121563168D01*
X132905438Y-121580438D01*
X132888168Y-121596090D01*
X132869448Y-121609974D01*
X132849457Y-121621956D01*
X132828387Y-121631921D01*
X132806443Y-121639773D01*
X132783834Y-121645437D01*
X132760779Y-121648856D01*
X132737500Y-121650000D01*
X132262500Y-121650000D01*
X132239221Y-121648856D01*
X132216166Y-121645437D01*
X132193557Y-121639773D01*
X132171613Y-121631921D01*
X132150543Y-121621956D01*
X132130552Y-121609974D01*
X132111832Y-121596090D01*
X132094562Y-121580438D01*
X132078910Y-121563168D01*
X132065026Y-121544448D01*
X132053044Y-121524457D01*
X132043079Y-121503387D01*
X132035227Y-121481443D01*
X132029563Y-121458834D01*
X132026144Y-121435779D01*
X132025000Y-121412500D01*
X132025000Y-120837500D01*
X132026144Y-120814221D01*
X132029563Y-120791166D01*
X132035227Y-120768557D01*
X132043079Y-120746613D01*
X132053044Y-120725543D01*
X132065026Y-120705552D01*
X132078910Y-120686832D01*
X132094562Y-120669562D01*
X132111832Y-120653910D01*
X132130552Y-120640026D01*
X132150543Y-120628044D01*
X132171613Y-120618079D01*
X132193557Y-120610227D01*
X132216166Y-120604563D01*
X132239221Y-120601144D01*
X132262500Y-120600000D01*
X132737500Y-120600000D01*
X132760779Y-120601144D01*
X132760779Y-120601144D01*
G37*
D11*
X132500000Y-121125000D03*
G04 #@! TD*
D10*
G04 #@! TO.C,C17*
G36*
X158260779Y-117851144D02*
X158283834Y-117854563D01*
X158306443Y-117860227D01*
X158328387Y-117868079D01*
X158349457Y-117878044D01*
X158369448Y-117890026D01*
X158388168Y-117903910D01*
X158405438Y-117919562D01*
X158421090Y-117936832D01*
X158434974Y-117955552D01*
X158446956Y-117975543D01*
X158456921Y-117996613D01*
X158464773Y-118018557D01*
X158470437Y-118041166D01*
X158473856Y-118064221D01*
X158475000Y-118087500D01*
X158475000Y-118662500D01*
X158473856Y-118685779D01*
X158470437Y-118708834D01*
X158464773Y-118731443D01*
X158456921Y-118753387D01*
X158446956Y-118774457D01*
X158434974Y-118794448D01*
X158421090Y-118813168D01*
X158405438Y-118830438D01*
X158388168Y-118846090D01*
X158369448Y-118859974D01*
X158349457Y-118871956D01*
X158328387Y-118881921D01*
X158306443Y-118889773D01*
X158283834Y-118895437D01*
X158260779Y-118898856D01*
X158237500Y-118900000D01*
X157762500Y-118900000D01*
X157739221Y-118898856D01*
X157716166Y-118895437D01*
X157693557Y-118889773D01*
X157671613Y-118881921D01*
X157650543Y-118871956D01*
X157630552Y-118859974D01*
X157611832Y-118846090D01*
X157594562Y-118830438D01*
X157578910Y-118813168D01*
X157565026Y-118794448D01*
X157553044Y-118774457D01*
X157543079Y-118753387D01*
X157535227Y-118731443D01*
X157529563Y-118708834D01*
X157526144Y-118685779D01*
X157525000Y-118662500D01*
X157525000Y-118087500D01*
X157526144Y-118064221D01*
X157529563Y-118041166D01*
X157535227Y-118018557D01*
X157543079Y-117996613D01*
X157553044Y-117975543D01*
X157565026Y-117955552D01*
X157578910Y-117936832D01*
X157594562Y-117919562D01*
X157611832Y-117903910D01*
X157630552Y-117890026D01*
X157650543Y-117878044D01*
X157671613Y-117868079D01*
X157693557Y-117860227D01*
X157716166Y-117854563D01*
X157739221Y-117851144D01*
X157762500Y-117850000D01*
X158237500Y-117850000D01*
X158260779Y-117851144D01*
X158260779Y-117851144D01*
G37*
D11*
X158000000Y-118375000D03*
D10*
G36*
X158260779Y-116101144D02*
X158283834Y-116104563D01*
X158306443Y-116110227D01*
X158328387Y-116118079D01*
X158349457Y-116128044D01*
X158369448Y-116140026D01*
X158388168Y-116153910D01*
X158405438Y-116169562D01*
X158421090Y-116186832D01*
X158434974Y-116205552D01*
X158446956Y-116225543D01*
X158456921Y-116246613D01*
X158464773Y-116268557D01*
X158470437Y-116291166D01*
X158473856Y-116314221D01*
X158475000Y-116337500D01*
X158475000Y-116912500D01*
X158473856Y-116935779D01*
X158470437Y-116958834D01*
X158464773Y-116981443D01*
X158456921Y-117003387D01*
X158446956Y-117024457D01*
X158434974Y-117044448D01*
X158421090Y-117063168D01*
X158405438Y-117080438D01*
X158388168Y-117096090D01*
X158369448Y-117109974D01*
X158349457Y-117121956D01*
X158328387Y-117131921D01*
X158306443Y-117139773D01*
X158283834Y-117145437D01*
X158260779Y-117148856D01*
X158237500Y-117150000D01*
X157762500Y-117150000D01*
X157739221Y-117148856D01*
X157716166Y-117145437D01*
X157693557Y-117139773D01*
X157671613Y-117131921D01*
X157650543Y-117121956D01*
X157630552Y-117109974D01*
X157611832Y-117096090D01*
X157594562Y-117080438D01*
X157578910Y-117063168D01*
X157565026Y-117044448D01*
X157553044Y-117024457D01*
X157543079Y-117003387D01*
X157535227Y-116981443D01*
X157529563Y-116958834D01*
X157526144Y-116935779D01*
X157525000Y-116912500D01*
X157525000Y-116337500D01*
X157526144Y-116314221D01*
X157529563Y-116291166D01*
X157535227Y-116268557D01*
X157543079Y-116246613D01*
X157553044Y-116225543D01*
X157565026Y-116205552D01*
X157578910Y-116186832D01*
X157594562Y-116169562D01*
X157611832Y-116153910D01*
X157630552Y-116140026D01*
X157650543Y-116128044D01*
X157671613Y-116118079D01*
X157693557Y-116110227D01*
X157716166Y-116104563D01*
X157739221Y-116101144D01*
X157762500Y-116100000D01*
X158237500Y-116100000D01*
X158260779Y-116101144D01*
X158260779Y-116101144D01*
G37*
D11*
X158000000Y-116625000D03*
G04 #@! TD*
D10*
G04 #@! TO.C,C18*
G36*
X148510779Y-120601144D02*
X148533834Y-120604563D01*
X148556443Y-120610227D01*
X148578387Y-120618079D01*
X148599457Y-120628044D01*
X148619448Y-120640026D01*
X148638168Y-120653910D01*
X148655438Y-120669562D01*
X148671090Y-120686832D01*
X148684974Y-120705552D01*
X148696956Y-120725543D01*
X148706921Y-120746613D01*
X148714773Y-120768557D01*
X148720437Y-120791166D01*
X148723856Y-120814221D01*
X148725000Y-120837500D01*
X148725000Y-121412500D01*
X148723856Y-121435779D01*
X148720437Y-121458834D01*
X148714773Y-121481443D01*
X148706921Y-121503387D01*
X148696956Y-121524457D01*
X148684974Y-121544448D01*
X148671090Y-121563168D01*
X148655438Y-121580438D01*
X148638168Y-121596090D01*
X148619448Y-121609974D01*
X148599457Y-121621956D01*
X148578387Y-121631921D01*
X148556443Y-121639773D01*
X148533834Y-121645437D01*
X148510779Y-121648856D01*
X148487500Y-121650000D01*
X148012500Y-121650000D01*
X147989221Y-121648856D01*
X147966166Y-121645437D01*
X147943557Y-121639773D01*
X147921613Y-121631921D01*
X147900543Y-121621956D01*
X147880552Y-121609974D01*
X147861832Y-121596090D01*
X147844562Y-121580438D01*
X147828910Y-121563168D01*
X147815026Y-121544448D01*
X147803044Y-121524457D01*
X147793079Y-121503387D01*
X147785227Y-121481443D01*
X147779563Y-121458834D01*
X147776144Y-121435779D01*
X147775000Y-121412500D01*
X147775000Y-120837500D01*
X147776144Y-120814221D01*
X147779563Y-120791166D01*
X147785227Y-120768557D01*
X147793079Y-120746613D01*
X147803044Y-120725543D01*
X147815026Y-120705552D01*
X147828910Y-120686832D01*
X147844562Y-120669562D01*
X147861832Y-120653910D01*
X147880552Y-120640026D01*
X147900543Y-120628044D01*
X147921613Y-120618079D01*
X147943557Y-120610227D01*
X147966166Y-120604563D01*
X147989221Y-120601144D01*
X148012500Y-120600000D01*
X148487500Y-120600000D01*
X148510779Y-120601144D01*
X148510779Y-120601144D01*
G37*
D11*
X148250000Y-121125000D03*
D10*
G36*
X148510779Y-122351144D02*
X148533834Y-122354563D01*
X148556443Y-122360227D01*
X148578387Y-122368079D01*
X148599457Y-122378044D01*
X148619448Y-122390026D01*
X148638168Y-122403910D01*
X148655438Y-122419562D01*
X148671090Y-122436832D01*
X148684974Y-122455552D01*
X148696956Y-122475543D01*
X148706921Y-122496613D01*
X148714773Y-122518557D01*
X148720437Y-122541166D01*
X148723856Y-122564221D01*
X148725000Y-122587500D01*
X148725000Y-123162500D01*
X148723856Y-123185779D01*
X148720437Y-123208834D01*
X148714773Y-123231443D01*
X148706921Y-123253387D01*
X148696956Y-123274457D01*
X148684974Y-123294448D01*
X148671090Y-123313168D01*
X148655438Y-123330438D01*
X148638168Y-123346090D01*
X148619448Y-123359974D01*
X148599457Y-123371956D01*
X148578387Y-123381921D01*
X148556443Y-123389773D01*
X148533834Y-123395437D01*
X148510779Y-123398856D01*
X148487500Y-123400000D01*
X148012500Y-123400000D01*
X147989221Y-123398856D01*
X147966166Y-123395437D01*
X147943557Y-123389773D01*
X147921613Y-123381921D01*
X147900543Y-123371956D01*
X147880552Y-123359974D01*
X147861832Y-123346090D01*
X147844562Y-123330438D01*
X147828910Y-123313168D01*
X147815026Y-123294448D01*
X147803044Y-123274457D01*
X147793079Y-123253387D01*
X147785227Y-123231443D01*
X147779563Y-123208834D01*
X147776144Y-123185779D01*
X147775000Y-123162500D01*
X147775000Y-122587500D01*
X147776144Y-122564221D01*
X147779563Y-122541166D01*
X147785227Y-122518557D01*
X147793079Y-122496613D01*
X147803044Y-122475543D01*
X147815026Y-122455552D01*
X147828910Y-122436832D01*
X147844562Y-122419562D01*
X147861832Y-122403910D01*
X147880552Y-122390026D01*
X147900543Y-122378044D01*
X147921613Y-122368079D01*
X147943557Y-122360227D01*
X147966166Y-122354563D01*
X147989221Y-122351144D01*
X148012500Y-122350000D01*
X148487500Y-122350000D01*
X148510779Y-122351144D01*
X148510779Y-122351144D01*
G37*
D11*
X148250000Y-122875000D03*
G04 #@! TD*
D10*
G04 #@! TO.C,R7*
G36*
X126260779Y-120351144D02*
X126283834Y-120354563D01*
X126306443Y-120360227D01*
X126328387Y-120368079D01*
X126349457Y-120378044D01*
X126369448Y-120390026D01*
X126388168Y-120403910D01*
X126405438Y-120419562D01*
X126421090Y-120436832D01*
X126434974Y-120455552D01*
X126446956Y-120475543D01*
X126456921Y-120496613D01*
X126464773Y-120518557D01*
X126470437Y-120541166D01*
X126473856Y-120564221D01*
X126475000Y-120587500D01*
X126475000Y-121162500D01*
X126473856Y-121185779D01*
X126470437Y-121208834D01*
X126464773Y-121231443D01*
X126456921Y-121253387D01*
X126446956Y-121274457D01*
X126434974Y-121294448D01*
X126421090Y-121313168D01*
X126405438Y-121330438D01*
X126388168Y-121346090D01*
X126369448Y-121359974D01*
X126349457Y-121371956D01*
X126328387Y-121381921D01*
X126306443Y-121389773D01*
X126283834Y-121395437D01*
X126260779Y-121398856D01*
X126237500Y-121400000D01*
X125762500Y-121400000D01*
X125739221Y-121398856D01*
X125716166Y-121395437D01*
X125693557Y-121389773D01*
X125671613Y-121381921D01*
X125650543Y-121371956D01*
X125630552Y-121359974D01*
X125611832Y-121346090D01*
X125594562Y-121330438D01*
X125578910Y-121313168D01*
X125565026Y-121294448D01*
X125553044Y-121274457D01*
X125543079Y-121253387D01*
X125535227Y-121231443D01*
X125529563Y-121208834D01*
X125526144Y-121185779D01*
X125525000Y-121162500D01*
X125525000Y-120587500D01*
X125526144Y-120564221D01*
X125529563Y-120541166D01*
X125535227Y-120518557D01*
X125543079Y-120496613D01*
X125553044Y-120475543D01*
X125565026Y-120455552D01*
X125578910Y-120436832D01*
X125594562Y-120419562D01*
X125611832Y-120403910D01*
X125630552Y-120390026D01*
X125650543Y-120378044D01*
X125671613Y-120368079D01*
X125693557Y-120360227D01*
X125716166Y-120354563D01*
X125739221Y-120351144D01*
X125762500Y-120350000D01*
X126237500Y-120350000D01*
X126260779Y-120351144D01*
X126260779Y-120351144D01*
G37*
D11*
X126000000Y-120875000D03*
D10*
G36*
X126260779Y-118601144D02*
X126283834Y-118604563D01*
X126306443Y-118610227D01*
X126328387Y-118618079D01*
X126349457Y-118628044D01*
X126369448Y-118640026D01*
X126388168Y-118653910D01*
X126405438Y-118669562D01*
X126421090Y-118686832D01*
X126434974Y-118705552D01*
X126446956Y-118725543D01*
X126456921Y-118746613D01*
X126464773Y-118768557D01*
X126470437Y-118791166D01*
X126473856Y-118814221D01*
X126475000Y-118837500D01*
X126475000Y-119412500D01*
X126473856Y-119435779D01*
X126470437Y-119458834D01*
X126464773Y-119481443D01*
X126456921Y-119503387D01*
X126446956Y-119524457D01*
X126434974Y-119544448D01*
X126421090Y-119563168D01*
X126405438Y-119580438D01*
X126388168Y-119596090D01*
X126369448Y-119609974D01*
X126349457Y-119621956D01*
X126328387Y-119631921D01*
X126306443Y-119639773D01*
X126283834Y-119645437D01*
X126260779Y-119648856D01*
X126237500Y-119650000D01*
X125762500Y-119650000D01*
X125739221Y-119648856D01*
X125716166Y-119645437D01*
X125693557Y-119639773D01*
X125671613Y-119631921D01*
X125650543Y-119621956D01*
X125630552Y-119609974D01*
X125611832Y-119596090D01*
X125594562Y-119580438D01*
X125578910Y-119563168D01*
X125565026Y-119544448D01*
X125553044Y-119524457D01*
X125543079Y-119503387D01*
X125535227Y-119481443D01*
X125529563Y-119458834D01*
X125526144Y-119435779D01*
X125525000Y-119412500D01*
X125525000Y-118837500D01*
X125526144Y-118814221D01*
X125529563Y-118791166D01*
X125535227Y-118768557D01*
X125543079Y-118746613D01*
X125553044Y-118725543D01*
X125565026Y-118705552D01*
X125578910Y-118686832D01*
X125594562Y-118669562D01*
X125611832Y-118653910D01*
X125630552Y-118640026D01*
X125650543Y-118628044D01*
X125671613Y-118618079D01*
X125693557Y-118610227D01*
X125716166Y-118604563D01*
X125739221Y-118601144D01*
X125762500Y-118600000D01*
X126237500Y-118600000D01*
X126260779Y-118601144D01*
X126260779Y-118601144D01*
G37*
D11*
X126000000Y-119125000D03*
G04 #@! TD*
D10*
G04 #@! TO.C,R8*
G36*
X164260779Y-118501144D02*
X164283834Y-118504563D01*
X164306443Y-118510227D01*
X164328387Y-118518079D01*
X164349457Y-118528044D01*
X164369448Y-118540026D01*
X164388168Y-118553910D01*
X164405438Y-118569562D01*
X164421090Y-118586832D01*
X164434974Y-118605552D01*
X164446956Y-118625543D01*
X164456921Y-118646613D01*
X164464773Y-118668557D01*
X164470437Y-118691166D01*
X164473856Y-118714221D01*
X164475000Y-118737500D01*
X164475000Y-119312500D01*
X164473856Y-119335779D01*
X164470437Y-119358834D01*
X164464773Y-119381443D01*
X164456921Y-119403387D01*
X164446956Y-119424457D01*
X164434974Y-119444448D01*
X164421090Y-119463168D01*
X164405438Y-119480438D01*
X164388168Y-119496090D01*
X164369448Y-119509974D01*
X164349457Y-119521956D01*
X164328387Y-119531921D01*
X164306443Y-119539773D01*
X164283834Y-119545437D01*
X164260779Y-119548856D01*
X164237500Y-119550000D01*
X163762500Y-119550000D01*
X163739221Y-119548856D01*
X163716166Y-119545437D01*
X163693557Y-119539773D01*
X163671613Y-119531921D01*
X163650543Y-119521956D01*
X163630552Y-119509974D01*
X163611832Y-119496090D01*
X163594562Y-119480438D01*
X163578910Y-119463168D01*
X163565026Y-119444448D01*
X163553044Y-119424457D01*
X163543079Y-119403387D01*
X163535227Y-119381443D01*
X163529563Y-119358834D01*
X163526144Y-119335779D01*
X163525000Y-119312500D01*
X163525000Y-118737500D01*
X163526144Y-118714221D01*
X163529563Y-118691166D01*
X163535227Y-118668557D01*
X163543079Y-118646613D01*
X163553044Y-118625543D01*
X163565026Y-118605552D01*
X163578910Y-118586832D01*
X163594562Y-118569562D01*
X163611832Y-118553910D01*
X163630552Y-118540026D01*
X163650543Y-118528044D01*
X163671613Y-118518079D01*
X163693557Y-118510227D01*
X163716166Y-118504563D01*
X163739221Y-118501144D01*
X163762500Y-118500000D01*
X164237500Y-118500000D01*
X164260779Y-118501144D01*
X164260779Y-118501144D01*
G37*
D11*
X164000000Y-119025000D03*
D10*
G36*
X164260779Y-120251144D02*
X164283834Y-120254563D01*
X164306443Y-120260227D01*
X164328387Y-120268079D01*
X164349457Y-120278044D01*
X164369448Y-120290026D01*
X164388168Y-120303910D01*
X164405438Y-120319562D01*
X164421090Y-120336832D01*
X164434974Y-120355552D01*
X164446956Y-120375543D01*
X164456921Y-120396613D01*
X164464773Y-120418557D01*
X164470437Y-120441166D01*
X164473856Y-120464221D01*
X164475000Y-120487500D01*
X164475000Y-121062500D01*
X164473856Y-121085779D01*
X164470437Y-121108834D01*
X164464773Y-121131443D01*
X164456921Y-121153387D01*
X164446956Y-121174457D01*
X164434974Y-121194448D01*
X164421090Y-121213168D01*
X164405438Y-121230438D01*
X164388168Y-121246090D01*
X164369448Y-121259974D01*
X164349457Y-121271956D01*
X164328387Y-121281921D01*
X164306443Y-121289773D01*
X164283834Y-121295437D01*
X164260779Y-121298856D01*
X164237500Y-121300000D01*
X163762500Y-121300000D01*
X163739221Y-121298856D01*
X163716166Y-121295437D01*
X163693557Y-121289773D01*
X163671613Y-121281921D01*
X163650543Y-121271956D01*
X163630552Y-121259974D01*
X163611832Y-121246090D01*
X163594562Y-121230438D01*
X163578910Y-121213168D01*
X163565026Y-121194448D01*
X163553044Y-121174457D01*
X163543079Y-121153387D01*
X163535227Y-121131443D01*
X163529563Y-121108834D01*
X163526144Y-121085779D01*
X163525000Y-121062500D01*
X163525000Y-120487500D01*
X163526144Y-120464221D01*
X163529563Y-120441166D01*
X163535227Y-120418557D01*
X163543079Y-120396613D01*
X163553044Y-120375543D01*
X163565026Y-120355552D01*
X163578910Y-120336832D01*
X163594562Y-120319562D01*
X163611832Y-120303910D01*
X163630552Y-120290026D01*
X163650543Y-120278044D01*
X163671613Y-120268079D01*
X163693557Y-120260227D01*
X163716166Y-120254563D01*
X163739221Y-120251144D01*
X163762500Y-120250000D01*
X164237500Y-120250000D01*
X164260779Y-120251144D01*
X164260779Y-120251144D01*
G37*
D11*
X164000000Y-120775000D03*
G04 #@! TD*
D10*
G04 #@! TO.C,R9*
G36*
X132760779Y-117601144D02*
X132783834Y-117604563D01*
X132806443Y-117610227D01*
X132828387Y-117618079D01*
X132849457Y-117628044D01*
X132869448Y-117640026D01*
X132888168Y-117653910D01*
X132905438Y-117669562D01*
X132921090Y-117686832D01*
X132934974Y-117705552D01*
X132946956Y-117725543D01*
X132956921Y-117746613D01*
X132964773Y-117768557D01*
X132970437Y-117791166D01*
X132973856Y-117814221D01*
X132975000Y-117837500D01*
X132975000Y-118412500D01*
X132973856Y-118435779D01*
X132970437Y-118458834D01*
X132964773Y-118481443D01*
X132956921Y-118503387D01*
X132946956Y-118524457D01*
X132934974Y-118544448D01*
X132921090Y-118563168D01*
X132905438Y-118580438D01*
X132888168Y-118596090D01*
X132869448Y-118609974D01*
X132849457Y-118621956D01*
X132828387Y-118631921D01*
X132806443Y-118639773D01*
X132783834Y-118645437D01*
X132760779Y-118648856D01*
X132737500Y-118650000D01*
X132262500Y-118650000D01*
X132239221Y-118648856D01*
X132216166Y-118645437D01*
X132193557Y-118639773D01*
X132171613Y-118631921D01*
X132150543Y-118621956D01*
X132130552Y-118609974D01*
X132111832Y-118596090D01*
X132094562Y-118580438D01*
X132078910Y-118563168D01*
X132065026Y-118544448D01*
X132053044Y-118524457D01*
X132043079Y-118503387D01*
X132035227Y-118481443D01*
X132029563Y-118458834D01*
X132026144Y-118435779D01*
X132025000Y-118412500D01*
X132025000Y-117837500D01*
X132026144Y-117814221D01*
X132029563Y-117791166D01*
X132035227Y-117768557D01*
X132043079Y-117746613D01*
X132053044Y-117725543D01*
X132065026Y-117705552D01*
X132078910Y-117686832D01*
X132094562Y-117669562D01*
X132111832Y-117653910D01*
X132130552Y-117640026D01*
X132150543Y-117628044D01*
X132171613Y-117618079D01*
X132193557Y-117610227D01*
X132216166Y-117604563D01*
X132239221Y-117601144D01*
X132262500Y-117600000D01*
X132737500Y-117600000D01*
X132760779Y-117601144D01*
X132760779Y-117601144D01*
G37*
D11*
X132500000Y-118125000D03*
D10*
G36*
X132760779Y-115851144D02*
X132783834Y-115854563D01*
X132806443Y-115860227D01*
X132828387Y-115868079D01*
X132849457Y-115878044D01*
X132869448Y-115890026D01*
X132888168Y-115903910D01*
X132905438Y-115919562D01*
X132921090Y-115936832D01*
X132934974Y-115955552D01*
X132946956Y-115975543D01*
X132956921Y-115996613D01*
X132964773Y-116018557D01*
X132970437Y-116041166D01*
X132973856Y-116064221D01*
X132975000Y-116087500D01*
X132975000Y-116662500D01*
X132973856Y-116685779D01*
X132970437Y-116708834D01*
X132964773Y-116731443D01*
X132956921Y-116753387D01*
X132946956Y-116774457D01*
X132934974Y-116794448D01*
X132921090Y-116813168D01*
X132905438Y-116830438D01*
X132888168Y-116846090D01*
X132869448Y-116859974D01*
X132849457Y-116871956D01*
X132828387Y-116881921D01*
X132806443Y-116889773D01*
X132783834Y-116895437D01*
X132760779Y-116898856D01*
X132737500Y-116900000D01*
X132262500Y-116900000D01*
X132239221Y-116898856D01*
X132216166Y-116895437D01*
X132193557Y-116889773D01*
X132171613Y-116881921D01*
X132150543Y-116871956D01*
X132130552Y-116859974D01*
X132111832Y-116846090D01*
X132094562Y-116830438D01*
X132078910Y-116813168D01*
X132065026Y-116794448D01*
X132053044Y-116774457D01*
X132043079Y-116753387D01*
X132035227Y-116731443D01*
X132029563Y-116708834D01*
X132026144Y-116685779D01*
X132025000Y-116662500D01*
X132025000Y-116087500D01*
X132026144Y-116064221D01*
X132029563Y-116041166D01*
X132035227Y-116018557D01*
X132043079Y-115996613D01*
X132053044Y-115975543D01*
X132065026Y-115955552D01*
X132078910Y-115936832D01*
X132094562Y-115919562D01*
X132111832Y-115903910D01*
X132130552Y-115890026D01*
X132150543Y-115878044D01*
X132171613Y-115868079D01*
X132193557Y-115860227D01*
X132216166Y-115854563D01*
X132239221Y-115851144D01*
X132262500Y-115850000D01*
X132737500Y-115850000D01*
X132760779Y-115851144D01*
X132760779Y-115851144D01*
G37*
D11*
X132500000Y-116375000D03*
G04 #@! TD*
D10*
G04 #@! TO.C,R12*
G36*
X158260779Y-122101144D02*
X158283834Y-122104563D01*
X158306443Y-122110227D01*
X158328387Y-122118079D01*
X158349457Y-122128044D01*
X158369448Y-122140026D01*
X158388168Y-122153910D01*
X158405438Y-122169562D01*
X158421090Y-122186832D01*
X158434974Y-122205552D01*
X158446956Y-122225543D01*
X158456921Y-122246613D01*
X158464773Y-122268557D01*
X158470437Y-122291166D01*
X158473856Y-122314221D01*
X158475000Y-122337500D01*
X158475000Y-122912500D01*
X158473856Y-122935779D01*
X158470437Y-122958834D01*
X158464773Y-122981443D01*
X158456921Y-123003387D01*
X158446956Y-123024457D01*
X158434974Y-123044448D01*
X158421090Y-123063168D01*
X158405438Y-123080438D01*
X158388168Y-123096090D01*
X158369448Y-123109974D01*
X158349457Y-123121956D01*
X158328387Y-123131921D01*
X158306443Y-123139773D01*
X158283834Y-123145437D01*
X158260779Y-123148856D01*
X158237500Y-123150000D01*
X157762500Y-123150000D01*
X157739221Y-123148856D01*
X157716166Y-123145437D01*
X157693557Y-123139773D01*
X157671613Y-123131921D01*
X157650543Y-123121956D01*
X157630552Y-123109974D01*
X157611832Y-123096090D01*
X157594562Y-123080438D01*
X157578910Y-123063168D01*
X157565026Y-123044448D01*
X157553044Y-123024457D01*
X157543079Y-123003387D01*
X157535227Y-122981443D01*
X157529563Y-122958834D01*
X157526144Y-122935779D01*
X157525000Y-122912500D01*
X157525000Y-122337500D01*
X157526144Y-122314221D01*
X157529563Y-122291166D01*
X157535227Y-122268557D01*
X157543079Y-122246613D01*
X157553044Y-122225543D01*
X157565026Y-122205552D01*
X157578910Y-122186832D01*
X157594562Y-122169562D01*
X157611832Y-122153910D01*
X157630552Y-122140026D01*
X157650543Y-122128044D01*
X157671613Y-122118079D01*
X157693557Y-122110227D01*
X157716166Y-122104563D01*
X157739221Y-122101144D01*
X157762500Y-122100000D01*
X158237500Y-122100000D01*
X158260779Y-122101144D01*
X158260779Y-122101144D01*
G37*
D11*
X158000000Y-122625000D03*
D10*
G36*
X158260779Y-120351144D02*
X158283834Y-120354563D01*
X158306443Y-120360227D01*
X158328387Y-120368079D01*
X158349457Y-120378044D01*
X158369448Y-120390026D01*
X158388168Y-120403910D01*
X158405438Y-120419562D01*
X158421090Y-120436832D01*
X158434974Y-120455552D01*
X158446956Y-120475543D01*
X158456921Y-120496613D01*
X158464773Y-120518557D01*
X158470437Y-120541166D01*
X158473856Y-120564221D01*
X158475000Y-120587500D01*
X158475000Y-121162500D01*
X158473856Y-121185779D01*
X158470437Y-121208834D01*
X158464773Y-121231443D01*
X158456921Y-121253387D01*
X158446956Y-121274457D01*
X158434974Y-121294448D01*
X158421090Y-121313168D01*
X158405438Y-121330438D01*
X158388168Y-121346090D01*
X158369448Y-121359974D01*
X158349457Y-121371956D01*
X158328387Y-121381921D01*
X158306443Y-121389773D01*
X158283834Y-121395437D01*
X158260779Y-121398856D01*
X158237500Y-121400000D01*
X157762500Y-121400000D01*
X157739221Y-121398856D01*
X157716166Y-121395437D01*
X157693557Y-121389773D01*
X157671613Y-121381921D01*
X157650543Y-121371956D01*
X157630552Y-121359974D01*
X157611832Y-121346090D01*
X157594562Y-121330438D01*
X157578910Y-121313168D01*
X157565026Y-121294448D01*
X157553044Y-121274457D01*
X157543079Y-121253387D01*
X157535227Y-121231443D01*
X157529563Y-121208834D01*
X157526144Y-121185779D01*
X157525000Y-121162500D01*
X157525000Y-120587500D01*
X157526144Y-120564221D01*
X157529563Y-120541166D01*
X157535227Y-120518557D01*
X157543079Y-120496613D01*
X157553044Y-120475543D01*
X157565026Y-120455552D01*
X157578910Y-120436832D01*
X157594562Y-120419562D01*
X157611832Y-120403910D01*
X157630552Y-120390026D01*
X157650543Y-120378044D01*
X157671613Y-120368079D01*
X157693557Y-120360227D01*
X157716166Y-120354563D01*
X157739221Y-120351144D01*
X157762500Y-120350000D01*
X158237500Y-120350000D01*
X158260779Y-120351144D01*
X158260779Y-120351144D01*
G37*
D11*
X158000000Y-120875000D03*
G04 #@! TD*
D34*
G04 #@! TO.C,U2*
X166350000Y-104100000D03*
X166350000Y-106900000D03*
X167000000Y-106900000D03*
X167650000Y-104100000D03*
X167650000Y-106900000D03*
G04 #@! TD*
D10*
G04 #@! TO.C,C13*
G36*
X157935779Y-108926144D02*
X157958834Y-108929563D01*
X157981443Y-108935227D01*
X158003387Y-108943079D01*
X158024457Y-108953044D01*
X158044448Y-108965026D01*
X158063168Y-108978910D01*
X158080438Y-108994562D01*
X158096090Y-109011832D01*
X158109974Y-109030552D01*
X158121956Y-109050543D01*
X158131921Y-109071613D01*
X158139773Y-109093557D01*
X158145437Y-109116166D01*
X158148856Y-109139221D01*
X158150000Y-109162500D01*
X158150000Y-109637500D01*
X158148856Y-109660779D01*
X158145437Y-109683834D01*
X158139773Y-109706443D01*
X158131921Y-109728387D01*
X158121956Y-109749457D01*
X158109974Y-109769448D01*
X158096090Y-109788168D01*
X158080438Y-109805438D01*
X158063168Y-109821090D01*
X158044448Y-109834974D01*
X158024457Y-109846956D01*
X158003387Y-109856921D01*
X157981443Y-109864773D01*
X157958834Y-109870437D01*
X157935779Y-109873856D01*
X157912500Y-109875000D01*
X157337500Y-109875000D01*
X157314221Y-109873856D01*
X157291166Y-109870437D01*
X157268557Y-109864773D01*
X157246613Y-109856921D01*
X157225543Y-109846956D01*
X157205552Y-109834974D01*
X157186832Y-109821090D01*
X157169562Y-109805438D01*
X157153910Y-109788168D01*
X157140026Y-109769448D01*
X157128044Y-109749457D01*
X157118079Y-109728387D01*
X157110227Y-109706443D01*
X157104563Y-109683834D01*
X157101144Y-109660779D01*
X157100000Y-109637500D01*
X157100000Y-109162500D01*
X157101144Y-109139221D01*
X157104563Y-109116166D01*
X157110227Y-109093557D01*
X157118079Y-109071613D01*
X157128044Y-109050543D01*
X157140026Y-109030552D01*
X157153910Y-109011832D01*
X157169562Y-108994562D01*
X157186832Y-108978910D01*
X157205552Y-108965026D01*
X157225543Y-108953044D01*
X157246613Y-108943079D01*
X157268557Y-108935227D01*
X157291166Y-108929563D01*
X157314221Y-108926144D01*
X157337500Y-108925000D01*
X157912500Y-108925000D01*
X157935779Y-108926144D01*
X157935779Y-108926144D01*
G37*
D11*
X157625000Y-109400000D03*
D10*
G36*
X159685779Y-108926144D02*
X159708834Y-108929563D01*
X159731443Y-108935227D01*
X159753387Y-108943079D01*
X159774457Y-108953044D01*
X159794448Y-108965026D01*
X159813168Y-108978910D01*
X159830438Y-108994562D01*
X159846090Y-109011832D01*
X159859974Y-109030552D01*
X159871956Y-109050543D01*
X159881921Y-109071613D01*
X159889773Y-109093557D01*
X159895437Y-109116166D01*
X159898856Y-109139221D01*
X159900000Y-109162500D01*
X159900000Y-109637500D01*
X159898856Y-109660779D01*
X159895437Y-109683834D01*
X159889773Y-109706443D01*
X159881921Y-109728387D01*
X159871956Y-109749457D01*
X159859974Y-109769448D01*
X159846090Y-109788168D01*
X159830438Y-109805438D01*
X159813168Y-109821090D01*
X159794448Y-109834974D01*
X159774457Y-109846956D01*
X159753387Y-109856921D01*
X159731443Y-109864773D01*
X159708834Y-109870437D01*
X159685779Y-109873856D01*
X159662500Y-109875000D01*
X159087500Y-109875000D01*
X159064221Y-109873856D01*
X159041166Y-109870437D01*
X159018557Y-109864773D01*
X158996613Y-109856921D01*
X158975543Y-109846956D01*
X158955552Y-109834974D01*
X158936832Y-109821090D01*
X158919562Y-109805438D01*
X158903910Y-109788168D01*
X158890026Y-109769448D01*
X158878044Y-109749457D01*
X158868079Y-109728387D01*
X158860227Y-109706443D01*
X158854563Y-109683834D01*
X158851144Y-109660779D01*
X158850000Y-109637500D01*
X158850000Y-109162500D01*
X158851144Y-109139221D01*
X158854563Y-109116166D01*
X158860227Y-109093557D01*
X158868079Y-109071613D01*
X158878044Y-109050543D01*
X158890026Y-109030552D01*
X158903910Y-109011832D01*
X158919562Y-108994562D01*
X158936832Y-108978910D01*
X158955552Y-108965026D01*
X158975543Y-108953044D01*
X158996613Y-108943079D01*
X159018557Y-108935227D01*
X159041166Y-108929563D01*
X159064221Y-108926144D01*
X159087500Y-108925000D01*
X159662500Y-108925000D01*
X159685779Y-108926144D01*
X159685779Y-108926144D01*
G37*
D11*
X159375000Y-109400000D03*
G04 #@! TD*
D10*
G04 #@! TO.C,C14*
G36*
X153185779Y-108926144D02*
X153208834Y-108929563D01*
X153231443Y-108935227D01*
X153253387Y-108943079D01*
X153274457Y-108953044D01*
X153294448Y-108965026D01*
X153313168Y-108978910D01*
X153330438Y-108994562D01*
X153346090Y-109011832D01*
X153359974Y-109030552D01*
X153371956Y-109050543D01*
X153381921Y-109071613D01*
X153389773Y-109093557D01*
X153395437Y-109116166D01*
X153398856Y-109139221D01*
X153400000Y-109162500D01*
X153400000Y-109637500D01*
X153398856Y-109660779D01*
X153395437Y-109683834D01*
X153389773Y-109706443D01*
X153381921Y-109728387D01*
X153371956Y-109749457D01*
X153359974Y-109769448D01*
X153346090Y-109788168D01*
X153330438Y-109805438D01*
X153313168Y-109821090D01*
X153294448Y-109834974D01*
X153274457Y-109846956D01*
X153253387Y-109856921D01*
X153231443Y-109864773D01*
X153208834Y-109870437D01*
X153185779Y-109873856D01*
X153162500Y-109875000D01*
X152587500Y-109875000D01*
X152564221Y-109873856D01*
X152541166Y-109870437D01*
X152518557Y-109864773D01*
X152496613Y-109856921D01*
X152475543Y-109846956D01*
X152455552Y-109834974D01*
X152436832Y-109821090D01*
X152419562Y-109805438D01*
X152403910Y-109788168D01*
X152390026Y-109769448D01*
X152378044Y-109749457D01*
X152368079Y-109728387D01*
X152360227Y-109706443D01*
X152354563Y-109683834D01*
X152351144Y-109660779D01*
X152350000Y-109637500D01*
X152350000Y-109162500D01*
X152351144Y-109139221D01*
X152354563Y-109116166D01*
X152360227Y-109093557D01*
X152368079Y-109071613D01*
X152378044Y-109050543D01*
X152390026Y-109030552D01*
X152403910Y-109011832D01*
X152419562Y-108994562D01*
X152436832Y-108978910D01*
X152455552Y-108965026D01*
X152475543Y-108953044D01*
X152496613Y-108943079D01*
X152518557Y-108935227D01*
X152541166Y-108929563D01*
X152564221Y-108926144D01*
X152587500Y-108925000D01*
X153162500Y-108925000D01*
X153185779Y-108926144D01*
X153185779Y-108926144D01*
G37*
D11*
X152875000Y-109400000D03*
D10*
G36*
X151435779Y-108926144D02*
X151458834Y-108929563D01*
X151481443Y-108935227D01*
X151503387Y-108943079D01*
X151524457Y-108953044D01*
X151544448Y-108965026D01*
X151563168Y-108978910D01*
X151580438Y-108994562D01*
X151596090Y-109011832D01*
X151609974Y-109030552D01*
X151621956Y-109050543D01*
X151631921Y-109071613D01*
X151639773Y-109093557D01*
X151645437Y-109116166D01*
X151648856Y-109139221D01*
X151650000Y-109162500D01*
X151650000Y-109637500D01*
X151648856Y-109660779D01*
X151645437Y-109683834D01*
X151639773Y-109706443D01*
X151631921Y-109728387D01*
X151621956Y-109749457D01*
X151609974Y-109769448D01*
X151596090Y-109788168D01*
X151580438Y-109805438D01*
X151563168Y-109821090D01*
X151544448Y-109834974D01*
X151524457Y-109846956D01*
X151503387Y-109856921D01*
X151481443Y-109864773D01*
X151458834Y-109870437D01*
X151435779Y-109873856D01*
X151412500Y-109875000D01*
X150837500Y-109875000D01*
X150814221Y-109873856D01*
X150791166Y-109870437D01*
X150768557Y-109864773D01*
X150746613Y-109856921D01*
X150725543Y-109846956D01*
X150705552Y-109834974D01*
X150686832Y-109821090D01*
X150669562Y-109805438D01*
X150653910Y-109788168D01*
X150640026Y-109769448D01*
X150628044Y-109749457D01*
X150618079Y-109728387D01*
X150610227Y-109706443D01*
X150604563Y-109683834D01*
X150601144Y-109660779D01*
X150600000Y-109637500D01*
X150600000Y-109162500D01*
X150601144Y-109139221D01*
X150604563Y-109116166D01*
X150610227Y-109093557D01*
X150618079Y-109071613D01*
X150628044Y-109050543D01*
X150640026Y-109030552D01*
X150653910Y-109011832D01*
X150669562Y-108994562D01*
X150686832Y-108978910D01*
X150705552Y-108965026D01*
X150725543Y-108953044D01*
X150746613Y-108943079D01*
X150768557Y-108935227D01*
X150791166Y-108929563D01*
X150814221Y-108926144D01*
X150837500Y-108925000D01*
X151412500Y-108925000D01*
X151435779Y-108926144D01*
X151435779Y-108926144D01*
G37*
D11*
X151125000Y-109400000D03*
G04 #@! TD*
D10*
G04 #@! TO.C,C10*
G36*
X165724505Y-95901204D02*
X165748773Y-95904804D01*
X165772572Y-95910765D01*
X165795671Y-95919030D01*
X165817850Y-95929520D01*
X165838893Y-95942132D01*
X165858599Y-95956747D01*
X165876777Y-95973223D01*
X165893253Y-95991401D01*
X165907868Y-96011107D01*
X165920480Y-96032150D01*
X165930970Y-96054329D01*
X165939235Y-96077428D01*
X165945196Y-96101227D01*
X165948796Y-96125495D01*
X165950000Y-96149999D01*
X165950000Y-96975001D01*
X165948796Y-96999505D01*
X165945196Y-97023773D01*
X165939235Y-97047572D01*
X165930970Y-97070671D01*
X165920480Y-97092850D01*
X165907868Y-97113893D01*
X165893253Y-97133599D01*
X165876777Y-97151777D01*
X165858599Y-97168253D01*
X165838893Y-97182868D01*
X165817850Y-97195480D01*
X165795671Y-97205970D01*
X165772572Y-97214235D01*
X165748773Y-97220196D01*
X165724505Y-97223796D01*
X165700001Y-97225000D01*
X164799999Y-97225000D01*
X164775495Y-97223796D01*
X164751227Y-97220196D01*
X164727428Y-97214235D01*
X164704329Y-97205970D01*
X164682150Y-97195480D01*
X164661107Y-97182868D01*
X164641401Y-97168253D01*
X164623223Y-97151777D01*
X164606747Y-97133599D01*
X164592132Y-97113893D01*
X164579520Y-97092850D01*
X164569030Y-97070671D01*
X164560765Y-97047572D01*
X164554804Y-97023773D01*
X164551204Y-96999505D01*
X164550000Y-96975001D01*
X164550000Y-96149999D01*
X164551204Y-96125495D01*
X164554804Y-96101227D01*
X164560765Y-96077428D01*
X164569030Y-96054329D01*
X164579520Y-96032150D01*
X164592132Y-96011107D01*
X164606747Y-95991401D01*
X164623223Y-95973223D01*
X164641401Y-95956747D01*
X164661107Y-95942132D01*
X164682150Y-95929520D01*
X164704329Y-95919030D01*
X164727428Y-95910765D01*
X164751227Y-95904804D01*
X164775495Y-95901204D01*
X164799999Y-95900000D01*
X165700001Y-95900000D01*
X165724505Y-95901204D01*
X165724505Y-95901204D01*
G37*
D35*
X165250000Y-96562500D03*
D10*
G36*
X165724505Y-97776204D02*
X165748773Y-97779804D01*
X165772572Y-97785765D01*
X165795671Y-97794030D01*
X165817850Y-97804520D01*
X165838893Y-97817132D01*
X165858599Y-97831747D01*
X165876777Y-97848223D01*
X165893253Y-97866401D01*
X165907868Y-97886107D01*
X165920480Y-97907150D01*
X165930970Y-97929329D01*
X165939235Y-97952428D01*
X165945196Y-97976227D01*
X165948796Y-98000495D01*
X165950000Y-98024999D01*
X165950000Y-98850001D01*
X165948796Y-98874505D01*
X165945196Y-98898773D01*
X165939235Y-98922572D01*
X165930970Y-98945671D01*
X165920480Y-98967850D01*
X165907868Y-98988893D01*
X165893253Y-99008599D01*
X165876777Y-99026777D01*
X165858599Y-99043253D01*
X165838893Y-99057868D01*
X165817850Y-99070480D01*
X165795671Y-99080970D01*
X165772572Y-99089235D01*
X165748773Y-99095196D01*
X165724505Y-99098796D01*
X165700001Y-99100000D01*
X164799999Y-99100000D01*
X164775495Y-99098796D01*
X164751227Y-99095196D01*
X164727428Y-99089235D01*
X164704329Y-99080970D01*
X164682150Y-99070480D01*
X164661107Y-99057868D01*
X164641401Y-99043253D01*
X164623223Y-99026777D01*
X164606747Y-99008599D01*
X164592132Y-98988893D01*
X164579520Y-98967850D01*
X164569030Y-98945671D01*
X164560765Y-98922572D01*
X164554804Y-98898773D01*
X164551204Y-98874505D01*
X164550000Y-98850001D01*
X164550000Y-98024999D01*
X164551204Y-98000495D01*
X164554804Y-97976227D01*
X164560765Y-97952428D01*
X164569030Y-97929329D01*
X164579520Y-97907150D01*
X164592132Y-97886107D01*
X164606747Y-97866401D01*
X164623223Y-97848223D01*
X164641401Y-97831747D01*
X164661107Y-97817132D01*
X164682150Y-97804520D01*
X164704329Y-97794030D01*
X164727428Y-97785765D01*
X164751227Y-97779804D01*
X164775495Y-97776204D01*
X164799999Y-97775000D01*
X165700001Y-97775000D01*
X165724505Y-97776204D01*
X165724505Y-97776204D01*
G37*
D35*
X165250000Y-98437500D03*
G04 #@! TD*
D10*
G04 #@! TO.C,C11*
G36*
X163760779Y-96101144D02*
X163783834Y-96104563D01*
X163806443Y-96110227D01*
X163828387Y-96118079D01*
X163849457Y-96128044D01*
X163869448Y-96140026D01*
X163888168Y-96153910D01*
X163905438Y-96169562D01*
X163921090Y-96186832D01*
X163934974Y-96205552D01*
X163946956Y-96225543D01*
X163956921Y-96246613D01*
X163964773Y-96268557D01*
X163970437Y-96291166D01*
X163973856Y-96314221D01*
X163975000Y-96337500D01*
X163975000Y-96912500D01*
X163973856Y-96935779D01*
X163970437Y-96958834D01*
X163964773Y-96981443D01*
X163956921Y-97003387D01*
X163946956Y-97024457D01*
X163934974Y-97044448D01*
X163921090Y-97063168D01*
X163905438Y-97080438D01*
X163888168Y-97096090D01*
X163869448Y-97109974D01*
X163849457Y-97121956D01*
X163828387Y-97131921D01*
X163806443Y-97139773D01*
X163783834Y-97145437D01*
X163760779Y-97148856D01*
X163737500Y-97150000D01*
X163262500Y-97150000D01*
X163239221Y-97148856D01*
X163216166Y-97145437D01*
X163193557Y-97139773D01*
X163171613Y-97131921D01*
X163150543Y-97121956D01*
X163130552Y-97109974D01*
X163111832Y-97096090D01*
X163094562Y-97080438D01*
X163078910Y-97063168D01*
X163065026Y-97044448D01*
X163053044Y-97024457D01*
X163043079Y-97003387D01*
X163035227Y-96981443D01*
X163029563Y-96958834D01*
X163026144Y-96935779D01*
X163025000Y-96912500D01*
X163025000Y-96337500D01*
X163026144Y-96314221D01*
X163029563Y-96291166D01*
X163035227Y-96268557D01*
X163043079Y-96246613D01*
X163053044Y-96225543D01*
X163065026Y-96205552D01*
X163078910Y-96186832D01*
X163094562Y-96169562D01*
X163111832Y-96153910D01*
X163130552Y-96140026D01*
X163150543Y-96128044D01*
X163171613Y-96118079D01*
X163193557Y-96110227D01*
X163216166Y-96104563D01*
X163239221Y-96101144D01*
X163262500Y-96100000D01*
X163737500Y-96100000D01*
X163760779Y-96101144D01*
X163760779Y-96101144D01*
G37*
D11*
X163500000Y-96625000D03*
D10*
G36*
X163760779Y-97851144D02*
X163783834Y-97854563D01*
X163806443Y-97860227D01*
X163828387Y-97868079D01*
X163849457Y-97878044D01*
X163869448Y-97890026D01*
X163888168Y-97903910D01*
X163905438Y-97919562D01*
X163921090Y-97936832D01*
X163934974Y-97955552D01*
X163946956Y-97975543D01*
X163956921Y-97996613D01*
X163964773Y-98018557D01*
X163970437Y-98041166D01*
X163973856Y-98064221D01*
X163975000Y-98087500D01*
X163975000Y-98662500D01*
X163973856Y-98685779D01*
X163970437Y-98708834D01*
X163964773Y-98731443D01*
X163956921Y-98753387D01*
X163946956Y-98774457D01*
X163934974Y-98794448D01*
X163921090Y-98813168D01*
X163905438Y-98830438D01*
X163888168Y-98846090D01*
X163869448Y-98859974D01*
X163849457Y-98871956D01*
X163828387Y-98881921D01*
X163806443Y-98889773D01*
X163783834Y-98895437D01*
X163760779Y-98898856D01*
X163737500Y-98900000D01*
X163262500Y-98900000D01*
X163239221Y-98898856D01*
X163216166Y-98895437D01*
X163193557Y-98889773D01*
X163171613Y-98881921D01*
X163150543Y-98871956D01*
X163130552Y-98859974D01*
X163111832Y-98846090D01*
X163094562Y-98830438D01*
X163078910Y-98813168D01*
X163065026Y-98794448D01*
X163053044Y-98774457D01*
X163043079Y-98753387D01*
X163035227Y-98731443D01*
X163029563Y-98708834D01*
X163026144Y-98685779D01*
X163025000Y-98662500D01*
X163025000Y-98087500D01*
X163026144Y-98064221D01*
X163029563Y-98041166D01*
X163035227Y-98018557D01*
X163043079Y-97996613D01*
X163053044Y-97975543D01*
X163065026Y-97955552D01*
X163078910Y-97936832D01*
X163094562Y-97919562D01*
X163111832Y-97903910D01*
X163130552Y-97890026D01*
X163150543Y-97878044D01*
X163171613Y-97868079D01*
X163193557Y-97860227D01*
X163216166Y-97854563D01*
X163239221Y-97851144D01*
X163262500Y-97850000D01*
X163737500Y-97850000D01*
X163760779Y-97851144D01*
X163760779Y-97851144D01*
G37*
D11*
X163500000Y-98375000D03*
G04 #@! TD*
D10*
G04 #@! TO.C,C6*
G36*
X144724505Y-104026204D02*
X144748773Y-104029804D01*
X144772572Y-104035765D01*
X144795671Y-104044030D01*
X144817850Y-104054520D01*
X144838893Y-104067132D01*
X144858599Y-104081747D01*
X144876777Y-104098223D01*
X144893253Y-104116401D01*
X144907868Y-104136107D01*
X144920480Y-104157150D01*
X144930970Y-104179329D01*
X144939235Y-104202428D01*
X144945196Y-104226227D01*
X144948796Y-104250495D01*
X144950000Y-104274999D01*
X144950000Y-105100001D01*
X144948796Y-105124505D01*
X144945196Y-105148773D01*
X144939235Y-105172572D01*
X144930970Y-105195671D01*
X144920480Y-105217850D01*
X144907868Y-105238893D01*
X144893253Y-105258599D01*
X144876777Y-105276777D01*
X144858599Y-105293253D01*
X144838893Y-105307868D01*
X144817850Y-105320480D01*
X144795671Y-105330970D01*
X144772572Y-105339235D01*
X144748773Y-105345196D01*
X144724505Y-105348796D01*
X144700001Y-105350000D01*
X143799999Y-105350000D01*
X143775495Y-105348796D01*
X143751227Y-105345196D01*
X143727428Y-105339235D01*
X143704329Y-105330970D01*
X143682150Y-105320480D01*
X143661107Y-105307868D01*
X143641401Y-105293253D01*
X143623223Y-105276777D01*
X143606747Y-105258599D01*
X143592132Y-105238893D01*
X143579520Y-105217850D01*
X143569030Y-105195671D01*
X143560765Y-105172572D01*
X143554804Y-105148773D01*
X143551204Y-105124505D01*
X143550000Y-105100001D01*
X143550000Y-104274999D01*
X143551204Y-104250495D01*
X143554804Y-104226227D01*
X143560765Y-104202428D01*
X143569030Y-104179329D01*
X143579520Y-104157150D01*
X143592132Y-104136107D01*
X143606747Y-104116401D01*
X143623223Y-104098223D01*
X143641401Y-104081747D01*
X143661107Y-104067132D01*
X143682150Y-104054520D01*
X143704329Y-104044030D01*
X143727428Y-104035765D01*
X143751227Y-104029804D01*
X143775495Y-104026204D01*
X143799999Y-104025000D01*
X144700001Y-104025000D01*
X144724505Y-104026204D01*
X144724505Y-104026204D01*
G37*
D35*
X144250000Y-104687500D03*
D10*
G36*
X144724505Y-102151204D02*
X144748773Y-102154804D01*
X144772572Y-102160765D01*
X144795671Y-102169030D01*
X144817850Y-102179520D01*
X144838893Y-102192132D01*
X144858599Y-102206747D01*
X144876777Y-102223223D01*
X144893253Y-102241401D01*
X144907868Y-102261107D01*
X144920480Y-102282150D01*
X144930970Y-102304329D01*
X144939235Y-102327428D01*
X144945196Y-102351227D01*
X144948796Y-102375495D01*
X144950000Y-102399999D01*
X144950000Y-103225001D01*
X144948796Y-103249505D01*
X144945196Y-103273773D01*
X144939235Y-103297572D01*
X144930970Y-103320671D01*
X144920480Y-103342850D01*
X144907868Y-103363893D01*
X144893253Y-103383599D01*
X144876777Y-103401777D01*
X144858599Y-103418253D01*
X144838893Y-103432868D01*
X144817850Y-103445480D01*
X144795671Y-103455970D01*
X144772572Y-103464235D01*
X144748773Y-103470196D01*
X144724505Y-103473796D01*
X144700001Y-103475000D01*
X143799999Y-103475000D01*
X143775495Y-103473796D01*
X143751227Y-103470196D01*
X143727428Y-103464235D01*
X143704329Y-103455970D01*
X143682150Y-103445480D01*
X143661107Y-103432868D01*
X143641401Y-103418253D01*
X143623223Y-103401777D01*
X143606747Y-103383599D01*
X143592132Y-103363893D01*
X143579520Y-103342850D01*
X143569030Y-103320671D01*
X143560765Y-103297572D01*
X143554804Y-103273773D01*
X143551204Y-103249505D01*
X143550000Y-103225001D01*
X143550000Y-102399999D01*
X143551204Y-102375495D01*
X143554804Y-102351227D01*
X143560765Y-102327428D01*
X143569030Y-102304329D01*
X143579520Y-102282150D01*
X143592132Y-102261107D01*
X143606747Y-102241401D01*
X143623223Y-102223223D01*
X143641401Y-102206747D01*
X143661107Y-102192132D01*
X143682150Y-102179520D01*
X143704329Y-102169030D01*
X143727428Y-102160765D01*
X143751227Y-102154804D01*
X143775495Y-102151204D01*
X143799999Y-102150000D01*
X144700001Y-102150000D01*
X144724505Y-102151204D01*
X144724505Y-102151204D01*
G37*
D35*
X144250000Y-102812500D03*
G04 #@! TD*
D10*
G04 #@! TO.C,C8*
G36*
X146260779Y-104351144D02*
X146283834Y-104354563D01*
X146306443Y-104360227D01*
X146328387Y-104368079D01*
X146349457Y-104378044D01*
X146369448Y-104390026D01*
X146388168Y-104403910D01*
X146405438Y-104419562D01*
X146421090Y-104436832D01*
X146434974Y-104455552D01*
X146446956Y-104475543D01*
X146456921Y-104496613D01*
X146464773Y-104518557D01*
X146470437Y-104541166D01*
X146473856Y-104564221D01*
X146475000Y-104587500D01*
X146475000Y-105162500D01*
X146473856Y-105185779D01*
X146470437Y-105208834D01*
X146464773Y-105231443D01*
X146456921Y-105253387D01*
X146446956Y-105274457D01*
X146434974Y-105294448D01*
X146421090Y-105313168D01*
X146405438Y-105330438D01*
X146388168Y-105346090D01*
X146369448Y-105359974D01*
X146349457Y-105371956D01*
X146328387Y-105381921D01*
X146306443Y-105389773D01*
X146283834Y-105395437D01*
X146260779Y-105398856D01*
X146237500Y-105400000D01*
X145762500Y-105400000D01*
X145739221Y-105398856D01*
X145716166Y-105395437D01*
X145693557Y-105389773D01*
X145671613Y-105381921D01*
X145650543Y-105371956D01*
X145630552Y-105359974D01*
X145611832Y-105346090D01*
X145594562Y-105330438D01*
X145578910Y-105313168D01*
X145565026Y-105294448D01*
X145553044Y-105274457D01*
X145543079Y-105253387D01*
X145535227Y-105231443D01*
X145529563Y-105208834D01*
X145526144Y-105185779D01*
X145525000Y-105162500D01*
X145525000Y-104587500D01*
X145526144Y-104564221D01*
X145529563Y-104541166D01*
X145535227Y-104518557D01*
X145543079Y-104496613D01*
X145553044Y-104475543D01*
X145565026Y-104455552D01*
X145578910Y-104436832D01*
X145594562Y-104419562D01*
X145611832Y-104403910D01*
X145630552Y-104390026D01*
X145650543Y-104378044D01*
X145671613Y-104368079D01*
X145693557Y-104360227D01*
X145716166Y-104354563D01*
X145739221Y-104351144D01*
X145762500Y-104350000D01*
X146237500Y-104350000D01*
X146260779Y-104351144D01*
X146260779Y-104351144D01*
G37*
D11*
X146000000Y-104875000D03*
D10*
G36*
X146260779Y-102601144D02*
X146283834Y-102604563D01*
X146306443Y-102610227D01*
X146328387Y-102618079D01*
X146349457Y-102628044D01*
X146369448Y-102640026D01*
X146388168Y-102653910D01*
X146405438Y-102669562D01*
X146421090Y-102686832D01*
X146434974Y-102705552D01*
X146446956Y-102725543D01*
X146456921Y-102746613D01*
X146464773Y-102768557D01*
X146470437Y-102791166D01*
X146473856Y-102814221D01*
X146475000Y-102837500D01*
X146475000Y-103412500D01*
X146473856Y-103435779D01*
X146470437Y-103458834D01*
X146464773Y-103481443D01*
X146456921Y-103503387D01*
X146446956Y-103524457D01*
X146434974Y-103544448D01*
X146421090Y-103563168D01*
X146405438Y-103580438D01*
X146388168Y-103596090D01*
X146369448Y-103609974D01*
X146349457Y-103621956D01*
X146328387Y-103631921D01*
X146306443Y-103639773D01*
X146283834Y-103645437D01*
X146260779Y-103648856D01*
X146237500Y-103650000D01*
X145762500Y-103650000D01*
X145739221Y-103648856D01*
X145716166Y-103645437D01*
X145693557Y-103639773D01*
X145671613Y-103631921D01*
X145650543Y-103621956D01*
X145630552Y-103609974D01*
X145611832Y-103596090D01*
X145594562Y-103580438D01*
X145578910Y-103563168D01*
X145565026Y-103544448D01*
X145553044Y-103524457D01*
X145543079Y-103503387D01*
X145535227Y-103481443D01*
X145529563Y-103458834D01*
X145526144Y-103435779D01*
X145525000Y-103412500D01*
X145525000Y-102837500D01*
X145526144Y-102814221D01*
X145529563Y-102791166D01*
X145535227Y-102768557D01*
X145543079Y-102746613D01*
X145553044Y-102725543D01*
X145565026Y-102705552D01*
X145578910Y-102686832D01*
X145594562Y-102669562D01*
X145611832Y-102653910D01*
X145630552Y-102640026D01*
X145650543Y-102628044D01*
X145671613Y-102618079D01*
X145693557Y-102610227D01*
X145716166Y-102604563D01*
X145739221Y-102601144D01*
X145762500Y-102600000D01*
X146237500Y-102600000D01*
X146260779Y-102601144D01*
X146260779Y-102601144D01*
G37*
D11*
X146000000Y-103125000D03*
G04 #@! TD*
D10*
G04 #@! TO.C,C4*
G36*
X147060779Y-95351144D02*
X147083834Y-95354563D01*
X147106443Y-95360227D01*
X147128387Y-95368079D01*
X147149457Y-95378044D01*
X147169448Y-95390026D01*
X147188168Y-95403910D01*
X147205438Y-95419562D01*
X147221090Y-95436832D01*
X147234974Y-95455552D01*
X147246956Y-95475543D01*
X147256921Y-95496613D01*
X147264773Y-95518557D01*
X147270437Y-95541166D01*
X147273856Y-95564221D01*
X147275000Y-95587500D01*
X147275000Y-96162500D01*
X147273856Y-96185779D01*
X147270437Y-96208834D01*
X147264773Y-96231443D01*
X147256921Y-96253387D01*
X147246956Y-96274457D01*
X147234974Y-96294448D01*
X147221090Y-96313168D01*
X147205438Y-96330438D01*
X147188168Y-96346090D01*
X147169448Y-96359974D01*
X147149457Y-96371956D01*
X147128387Y-96381921D01*
X147106443Y-96389773D01*
X147083834Y-96395437D01*
X147060779Y-96398856D01*
X147037500Y-96400000D01*
X146562500Y-96400000D01*
X146539221Y-96398856D01*
X146516166Y-96395437D01*
X146493557Y-96389773D01*
X146471613Y-96381921D01*
X146450543Y-96371956D01*
X146430552Y-96359974D01*
X146411832Y-96346090D01*
X146394562Y-96330438D01*
X146378910Y-96313168D01*
X146365026Y-96294448D01*
X146353044Y-96274457D01*
X146343079Y-96253387D01*
X146335227Y-96231443D01*
X146329563Y-96208834D01*
X146326144Y-96185779D01*
X146325000Y-96162500D01*
X146325000Y-95587500D01*
X146326144Y-95564221D01*
X146329563Y-95541166D01*
X146335227Y-95518557D01*
X146343079Y-95496613D01*
X146353044Y-95475543D01*
X146365026Y-95455552D01*
X146378910Y-95436832D01*
X146394562Y-95419562D01*
X146411832Y-95403910D01*
X146430552Y-95390026D01*
X146450543Y-95378044D01*
X146471613Y-95368079D01*
X146493557Y-95360227D01*
X146516166Y-95354563D01*
X146539221Y-95351144D01*
X146562500Y-95350000D01*
X147037500Y-95350000D01*
X147060779Y-95351144D01*
X147060779Y-95351144D01*
G37*
D11*
X146800000Y-95875000D03*
D10*
G36*
X147060779Y-97101144D02*
X147083834Y-97104563D01*
X147106443Y-97110227D01*
X147128387Y-97118079D01*
X147149457Y-97128044D01*
X147169448Y-97140026D01*
X147188168Y-97153910D01*
X147205438Y-97169562D01*
X147221090Y-97186832D01*
X147234974Y-97205552D01*
X147246956Y-97225543D01*
X147256921Y-97246613D01*
X147264773Y-97268557D01*
X147270437Y-97291166D01*
X147273856Y-97314221D01*
X147275000Y-97337500D01*
X147275000Y-97912500D01*
X147273856Y-97935779D01*
X147270437Y-97958834D01*
X147264773Y-97981443D01*
X147256921Y-98003387D01*
X147246956Y-98024457D01*
X147234974Y-98044448D01*
X147221090Y-98063168D01*
X147205438Y-98080438D01*
X147188168Y-98096090D01*
X147169448Y-98109974D01*
X147149457Y-98121956D01*
X147128387Y-98131921D01*
X147106443Y-98139773D01*
X147083834Y-98145437D01*
X147060779Y-98148856D01*
X147037500Y-98150000D01*
X146562500Y-98150000D01*
X146539221Y-98148856D01*
X146516166Y-98145437D01*
X146493557Y-98139773D01*
X146471613Y-98131921D01*
X146450543Y-98121956D01*
X146430552Y-98109974D01*
X146411832Y-98096090D01*
X146394562Y-98080438D01*
X146378910Y-98063168D01*
X146365026Y-98044448D01*
X146353044Y-98024457D01*
X146343079Y-98003387D01*
X146335227Y-97981443D01*
X146329563Y-97958834D01*
X146326144Y-97935779D01*
X146325000Y-97912500D01*
X146325000Y-97337500D01*
X146326144Y-97314221D01*
X146329563Y-97291166D01*
X146335227Y-97268557D01*
X146343079Y-97246613D01*
X146353044Y-97225543D01*
X146365026Y-97205552D01*
X146378910Y-97186832D01*
X146394562Y-97169562D01*
X146411832Y-97153910D01*
X146430552Y-97140026D01*
X146450543Y-97128044D01*
X146471613Y-97118079D01*
X146493557Y-97110227D01*
X146516166Y-97104563D01*
X146539221Y-97101144D01*
X146562500Y-97100000D01*
X147037500Y-97100000D01*
X147060779Y-97101144D01*
X147060779Y-97101144D01*
G37*
D11*
X146800000Y-97625000D03*
G04 #@! TD*
D10*
G04 #@! TO.C,C5*
G36*
X147060779Y-99101144D02*
X147083834Y-99104563D01*
X147106443Y-99110227D01*
X147128387Y-99118079D01*
X147149457Y-99128044D01*
X147169448Y-99140026D01*
X147188168Y-99153910D01*
X147205438Y-99169562D01*
X147221090Y-99186832D01*
X147234974Y-99205552D01*
X147246956Y-99225543D01*
X147256921Y-99246613D01*
X147264773Y-99268557D01*
X147270437Y-99291166D01*
X147273856Y-99314221D01*
X147275000Y-99337500D01*
X147275000Y-99912500D01*
X147273856Y-99935779D01*
X147270437Y-99958834D01*
X147264773Y-99981443D01*
X147256921Y-100003387D01*
X147246956Y-100024457D01*
X147234974Y-100044448D01*
X147221090Y-100063168D01*
X147205438Y-100080438D01*
X147188168Y-100096090D01*
X147169448Y-100109974D01*
X147149457Y-100121956D01*
X147128387Y-100131921D01*
X147106443Y-100139773D01*
X147083834Y-100145437D01*
X147060779Y-100148856D01*
X147037500Y-100150000D01*
X146562500Y-100150000D01*
X146539221Y-100148856D01*
X146516166Y-100145437D01*
X146493557Y-100139773D01*
X146471613Y-100131921D01*
X146450543Y-100121956D01*
X146430552Y-100109974D01*
X146411832Y-100096090D01*
X146394562Y-100080438D01*
X146378910Y-100063168D01*
X146365026Y-100044448D01*
X146353044Y-100024457D01*
X146343079Y-100003387D01*
X146335227Y-99981443D01*
X146329563Y-99958834D01*
X146326144Y-99935779D01*
X146325000Y-99912500D01*
X146325000Y-99337500D01*
X146326144Y-99314221D01*
X146329563Y-99291166D01*
X146335227Y-99268557D01*
X146343079Y-99246613D01*
X146353044Y-99225543D01*
X146365026Y-99205552D01*
X146378910Y-99186832D01*
X146394562Y-99169562D01*
X146411832Y-99153910D01*
X146430552Y-99140026D01*
X146450543Y-99128044D01*
X146471613Y-99118079D01*
X146493557Y-99110227D01*
X146516166Y-99104563D01*
X146539221Y-99101144D01*
X146562500Y-99100000D01*
X147037500Y-99100000D01*
X147060779Y-99101144D01*
X147060779Y-99101144D01*
G37*
D11*
X146800000Y-99625000D03*
D10*
G36*
X147060779Y-100851144D02*
X147083834Y-100854563D01*
X147106443Y-100860227D01*
X147128387Y-100868079D01*
X147149457Y-100878044D01*
X147169448Y-100890026D01*
X147188168Y-100903910D01*
X147205438Y-100919562D01*
X147221090Y-100936832D01*
X147234974Y-100955552D01*
X147246956Y-100975543D01*
X147256921Y-100996613D01*
X147264773Y-101018557D01*
X147270437Y-101041166D01*
X147273856Y-101064221D01*
X147275000Y-101087500D01*
X147275000Y-101662500D01*
X147273856Y-101685779D01*
X147270437Y-101708834D01*
X147264773Y-101731443D01*
X147256921Y-101753387D01*
X147246956Y-101774457D01*
X147234974Y-101794448D01*
X147221090Y-101813168D01*
X147205438Y-101830438D01*
X147188168Y-101846090D01*
X147169448Y-101859974D01*
X147149457Y-101871956D01*
X147128387Y-101881921D01*
X147106443Y-101889773D01*
X147083834Y-101895437D01*
X147060779Y-101898856D01*
X147037500Y-101900000D01*
X146562500Y-101900000D01*
X146539221Y-101898856D01*
X146516166Y-101895437D01*
X146493557Y-101889773D01*
X146471613Y-101881921D01*
X146450543Y-101871956D01*
X146430552Y-101859974D01*
X146411832Y-101846090D01*
X146394562Y-101830438D01*
X146378910Y-101813168D01*
X146365026Y-101794448D01*
X146353044Y-101774457D01*
X146343079Y-101753387D01*
X146335227Y-101731443D01*
X146329563Y-101708834D01*
X146326144Y-101685779D01*
X146325000Y-101662500D01*
X146325000Y-101087500D01*
X146326144Y-101064221D01*
X146329563Y-101041166D01*
X146335227Y-101018557D01*
X146343079Y-100996613D01*
X146353044Y-100975543D01*
X146365026Y-100955552D01*
X146378910Y-100936832D01*
X146394562Y-100919562D01*
X146411832Y-100903910D01*
X146430552Y-100890026D01*
X146450543Y-100878044D01*
X146471613Y-100868079D01*
X146493557Y-100860227D01*
X146516166Y-100854563D01*
X146539221Y-100851144D01*
X146562500Y-100850000D01*
X147037500Y-100850000D01*
X147060779Y-100851144D01*
X147060779Y-100851144D01*
G37*
D11*
X146800000Y-101375000D03*
G04 #@! TD*
D10*
G04 #@! TO.C,C12*
G36*
X151010780Y-92331145D02*
X151033835Y-92334564D01*
X151056444Y-92340228D01*
X151078388Y-92348080D01*
X151099458Y-92358045D01*
X151119449Y-92370027D01*
X151138169Y-92383911D01*
X151155439Y-92399563D01*
X151171091Y-92416833D01*
X151184975Y-92435553D01*
X151196957Y-92455544D01*
X151206922Y-92476614D01*
X151214774Y-92498558D01*
X151220438Y-92521167D01*
X151223857Y-92544222D01*
X151225001Y-92567501D01*
X151225001Y-93042501D01*
X151223857Y-93065780D01*
X151220438Y-93088835D01*
X151214774Y-93111444D01*
X151206922Y-93133388D01*
X151196957Y-93154458D01*
X151184975Y-93174449D01*
X151171091Y-93193169D01*
X151155439Y-93210439D01*
X151138169Y-93226091D01*
X151119449Y-93239975D01*
X151099458Y-93251957D01*
X151078388Y-93261922D01*
X151056444Y-93269774D01*
X151033835Y-93275438D01*
X151010780Y-93278857D01*
X150987501Y-93280001D01*
X150412501Y-93280001D01*
X150389222Y-93278857D01*
X150366167Y-93275438D01*
X150343558Y-93269774D01*
X150321614Y-93261922D01*
X150300544Y-93251957D01*
X150280553Y-93239975D01*
X150261833Y-93226091D01*
X150244563Y-93210439D01*
X150228911Y-93193169D01*
X150215027Y-93174449D01*
X150203045Y-93154458D01*
X150193080Y-93133388D01*
X150185228Y-93111444D01*
X150179564Y-93088835D01*
X150176145Y-93065780D01*
X150175001Y-93042501D01*
X150175001Y-92567501D01*
X150176145Y-92544222D01*
X150179564Y-92521167D01*
X150185228Y-92498558D01*
X150193080Y-92476614D01*
X150203045Y-92455544D01*
X150215027Y-92435553D01*
X150228911Y-92416833D01*
X150244563Y-92399563D01*
X150261833Y-92383911D01*
X150280553Y-92370027D01*
X150300544Y-92358045D01*
X150321614Y-92348080D01*
X150343558Y-92340228D01*
X150366167Y-92334564D01*
X150389222Y-92331145D01*
X150412501Y-92330001D01*
X150987501Y-92330001D01*
X151010780Y-92331145D01*
X151010780Y-92331145D01*
G37*
D11*
X150700001Y-92805001D03*
D10*
G36*
X152760780Y-92331145D02*
X152783835Y-92334564D01*
X152806444Y-92340228D01*
X152828388Y-92348080D01*
X152849458Y-92358045D01*
X152869449Y-92370027D01*
X152888169Y-92383911D01*
X152905439Y-92399563D01*
X152921091Y-92416833D01*
X152934975Y-92435553D01*
X152946957Y-92455544D01*
X152956922Y-92476614D01*
X152964774Y-92498558D01*
X152970438Y-92521167D01*
X152973857Y-92544222D01*
X152975001Y-92567501D01*
X152975001Y-93042501D01*
X152973857Y-93065780D01*
X152970438Y-93088835D01*
X152964774Y-93111444D01*
X152956922Y-93133388D01*
X152946957Y-93154458D01*
X152934975Y-93174449D01*
X152921091Y-93193169D01*
X152905439Y-93210439D01*
X152888169Y-93226091D01*
X152869449Y-93239975D01*
X152849458Y-93251957D01*
X152828388Y-93261922D01*
X152806444Y-93269774D01*
X152783835Y-93275438D01*
X152760780Y-93278857D01*
X152737501Y-93280001D01*
X152162501Y-93280001D01*
X152139222Y-93278857D01*
X152116167Y-93275438D01*
X152093558Y-93269774D01*
X152071614Y-93261922D01*
X152050544Y-93251957D01*
X152030553Y-93239975D01*
X152011833Y-93226091D01*
X151994563Y-93210439D01*
X151978911Y-93193169D01*
X151965027Y-93174449D01*
X151953045Y-93154458D01*
X151943080Y-93133388D01*
X151935228Y-93111444D01*
X151929564Y-93088835D01*
X151926145Y-93065780D01*
X151925001Y-93042501D01*
X151925001Y-92567501D01*
X151926145Y-92544222D01*
X151929564Y-92521167D01*
X151935228Y-92498558D01*
X151943080Y-92476614D01*
X151953045Y-92455544D01*
X151965027Y-92435553D01*
X151978911Y-92416833D01*
X151994563Y-92399563D01*
X152011833Y-92383911D01*
X152030553Y-92370027D01*
X152050544Y-92358045D01*
X152071614Y-92348080D01*
X152093558Y-92340228D01*
X152116167Y-92334564D01*
X152139222Y-92331145D01*
X152162501Y-92330001D01*
X152737501Y-92330001D01*
X152760780Y-92331145D01*
X152760780Y-92331145D01*
G37*
D11*
X152450001Y-92805001D03*
G04 #@! TD*
D10*
G04 #@! TO.C,C16*
G36*
X150999505Y-90376205D02*
X151023773Y-90379805D01*
X151047572Y-90385766D01*
X151070671Y-90394031D01*
X151092850Y-90404521D01*
X151113893Y-90417133D01*
X151133599Y-90431748D01*
X151151777Y-90448224D01*
X151168253Y-90466402D01*
X151182868Y-90486108D01*
X151195480Y-90507151D01*
X151205970Y-90529330D01*
X151214235Y-90552429D01*
X151220196Y-90576228D01*
X151223796Y-90600496D01*
X151225000Y-90625000D01*
X151225000Y-91525002D01*
X151223796Y-91549506D01*
X151220196Y-91573774D01*
X151214235Y-91597573D01*
X151205970Y-91620672D01*
X151195480Y-91642851D01*
X151182868Y-91663894D01*
X151168253Y-91683600D01*
X151151777Y-91701778D01*
X151133599Y-91718254D01*
X151113893Y-91732869D01*
X151092850Y-91745481D01*
X151070671Y-91755971D01*
X151047572Y-91764236D01*
X151023773Y-91770197D01*
X150999505Y-91773797D01*
X150975001Y-91775001D01*
X150149999Y-91775001D01*
X150125495Y-91773797D01*
X150101227Y-91770197D01*
X150077428Y-91764236D01*
X150054329Y-91755971D01*
X150032150Y-91745481D01*
X150011107Y-91732869D01*
X149991401Y-91718254D01*
X149973223Y-91701778D01*
X149956747Y-91683600D01*
X149942132Y-91663894D01*
X149929520Y-91642851D01*
X149919030Y-91620672D01*
X149910765Y-91597573D01*
X149904804Y-91573774D01*
X149901204Y-91549506D01*
X149900000Y-91525002D01*
X149900000Y-90625000D01*
X149901204Y-90600496D01*
X149904804Y-90576228D01*
X149910765Y-90552429D01*
X149919030Y-90529330D01*
X149929520Y-90507151D01*
X149942132Y-90486108D01*
X149956747Y-90466402D01*
X149973223Y-90448224D01*
X149991401Y-90431748D01*
X150011107Y-90417133D01*
X150032150Y-90404521D01*
X150054329Y-90394031D01*
X150077428Y-90385766D01*
X150101227Y-90379805D01*
X150125495Y-90376205D01*
X150149999Y-90375001D01*
X150975001Y-90375001D01*
X150999505Y-90376205D01*
X150999505Y-90376205D01*
G37*
D35*
X150562500Y-91075001D03*
D10*
G36*
X152874505Y-90376205D02*
X152898773Y-90379805D01*
X152922572Y-90385766D01*
X152945671Y-90394031D01*
X152967850Y-90404521D01*
X152988893Y-90417133D01*
X153008599Y-90431748D01*
X153026777Y-90448224D01*
X153043253Y-90466402D01*
X153057868Y-90486108D01*
X153070480Y-90507151D01*
X153080970Y-90529330D01*
X153089235Y-90552429D01*
X153095196Y-90576228D01*
X153098796Y-90600496D01*
X153100000Y-90625000D01*
X153100000Y-91525002D01*
X153098796Y-91549506D01*
X153095196Y-91573774D01*
X153089235Y-91597573D01*
X153080970Y-91620672D01*
X153070480Y-91642851D01*
X153057868Y-91663894D01*
X153043253Y-91683600D01*
X153026777Y-91701778D01*
X153008599Y-91718254D01*
X152988893Y-91732869D01*
X152967850Y-91745481D01*
X152945671Y-91755971D01*
X152922572Y-91764236D01*
X152898773Y-91770197D01*
X152874505Y-91773797D01*
X152850001Y-91775001D01*
X152024999Y-91775001D01*
X152000495Y-91773797D01*
X151976227Y-91770197D01*
X151952428Y-91764236D01*
X151929329Y-91755971D01*
X151907150Y-91745481D01*
X151886107Y-91732869D01*
X151866401Y-91718254D01*
X151848223Y-91701778D01*
X151831747Y-91683600D01*
X151817132Y-91663894D01*
X151804520Y-91642851D01*
X151794030Y-91620672D01*
X151785765Y-91597573D01*
X151779804Y-91573774D01*
X151776204Y-91549506D01*
X151775000Y-91525002D01*
X151775000Y-90625000D01*
X151776204Y-90600496D01*
X151779804Y-90576228D01*
X151785765Y-90552429D01*
X151794030Y-90529330D01*
X151804520Y-90507151D01*
X151817132Y-90486108D01*
X151831747Y-90466402D01*
X151848223Y-90448224D01*
X151866401Y-90431748D01*
X151886107Y-90417133D01*
X151907150Y-90404521D01*
X151929329Y-90394031D01*
X151952428Y-90385766D01*
X151976227Y-90379805D01*
X152000495Y-90376205D01*
X152024999Y-90375001D01*
X152850001Y-90375001D01*
X152874505Y-90376205D01*
X152874505Y-90376205D01*
G37*
D35*
X152437500Y-91075001D03*
G04 #@! TD*
D10*
G04 #@! TO.C,R13*
G36*
X138885779Y-95026144D02*
X138908834Y-95029563D01*
X138931443Y-95035227D01*
X138953387Y-95043079D01*
X138974457Y-95053044D01*
X138994448Y-95065026D01*
X139013168Y-95078910D01*
X139030438Y-95094562D01*
X139046090Y-95111832D01*
X139059974Y-95130552D01*
X139071956Y-95150543D01*
X139081921Y-95171613D01*
X139089773Y-95193557D01*
X139095437Y-95216166D01*
X139098856Y-95239221D01*
X139100000Y-95262500D01*
X139100000Y-95737500D01*
X139098856Y-95760779D01*
X139095437Y-95783834D01*
X139089773Y-95806443D01*
X139081921Y-95828387D01*
X139071956Y-95849457D01*
X139059974Y-95869448D01*
X139046090Y-95888168D01*
X139030438Y-95905438D01*
X139013168Y-95921090D01*
X138994448Y-95934974D01*
X138974457Y-95946956D01*
X138953387Y-95956921D01*
X138931443Y-95964773D01*
X138908834Y-95970437D01*
X138885779Y-95973856D01*
X138862500Y-95975000D01*
X138287500Y-95975000D01*
X138264221Y-95973856D01*
X138241166Y-95970437D01*
X138218557Y-95964773D01*
X138196613Y-95956921D01*
X138175543Y-95946956D01*
X138155552Y-95934974D01*
X138136832Y-95921090D01*
X138119562Y-95905438D01*
X138103910Y-95888168D01*
X138090026Y-95869448D01*
X138078044Y-95849457D01*
X138068079Y-95828387D01*
X138060227Y-95806443D01*
X138054563Y-95783834D01*
X138051144Y-95760779D01*
X138050000Y-95737500D01*
X138050000Y-95262500D01*
X138051144Y-95239221D01*
X138054563Y-95216166D01*
X138060227Y-95193557D01*
X138068079Y-95171613D01*
X138078044Y-95150543D01*
X138090026Y-95130552D01*
X138103910Y-95111832D01*
X138119562Y-95094562D01*
X138136832Y-95078910D01*
X138155552Y-95065026D01*
X138175543Y-95053044D01*
X138196613Y-95043079D01*
X138218557Y-95035227D01*
X138241166Y-95029563D01*
X138264221Y-95026144D01*
X138287500Y-95025000D01*
X138862500Y-95025000D01*
X138885779Y-95026144D01*
X138885779Y-95026144D01*
G37*
D11*
X138575000Y-95500000D03*
D10*
G36*
X137135779Y-95026144D02*
X137158834Y-95029563D01*
X137181443Y-95035227D01*
X137203387Y-95043079D01*
X137224457Y-95053044D01*
X137244448Y-95065026D01*
X137263168Y-95078910D01*
X137280438Y-95094562D01*
X137296090Y-95111832D01*
X137309974Y-95130552D01*
X137321956Y-95150543D01*
X137331921Y-95171613D01*
X137339773Y-95193557D01*
X137345437Y-95216166D01*
X137348856Y-95239221D01*
X137350000Y-95262500D01*
X137350000Y-95737500D01*
X137348856Y-95760779D01*
X137345437Y-95783834D01*
X137339773Y-95806443D01*
X137331921Y-95828387D01*
X137321956Y-95849457D01*
X137309974Y-95869448D01*
X137296090Y-95888168D01*
X137280438Y-95905438D01*
X137263168Y-95921090D01*
X137244448Y-95934974D01*
X137224457Y-95946956D01*
X137203387Y-95956921D01*
X137181443Y-95964773D01*
X137158834Y-95970437D01*
X137135779Y-95973856D01*
X137112500Y-95975000D01*
X136537500Y-95975000D01*
X136514221Y-95973856D01*
X136491166Y-95970437D01*
X136468557Y-95964773D01*
X136446613Y-95956921D01*
X136425543Y-95946956D01*
X136405552Y-95934974D01*
X136386832Y-95921090D01*
X136369562Y-95905438D01*
X136353910Y-95888168D01*
X136340026Y-95869448D01*
X136328044Y-95849457D01*
X136318079Y-95828387D01*
X136310227Y-95806443D01*
X136304563Y-95783834D01*
X136301144Y-95760779D01*
X136300000Y-95737500D01*
X136300000Y-95262500D01*
X136301144Y-95239221D01*
X136304563Y-95216166D01*
X136310227Y-95193557D01*
X136318079Y-95171613D01*
X136328044Y-95150543D01*
X136340026Y-95130552D01*
X136353910Y-95111832D01*
X136369562Y-95094562D01*
X136386832Y-95078910D01*
X136405552Y-95065026D01*
X136425543Y-95053044D01*
X136446613Y-95043079D01*
X136468557Y-95035227D01*
X136491166Y-95029563D01*
X136514221Y-95026144D01*
X136537500Y-95025000D01*
X137112500Y-95025000D01*
X137135779Y-95026144D01*
X137135779Y-95026144D01*
G37*
D11*
X136825000Y-95500000D03*
G04 #@! TD*
D10*
G04 #@! TO.C,R14*
G36*
X138885779Y-92026144D02*
X138908834Y-92029563D01*
X138931443Y-92035227D01*
X138953387Y-92043079D01*
X138974457Y-92053044D01*
X138994448Y-92065026D01*
X139013168Y-92078910D01*
X139030438Y-92094562D01*
X139046090Y-92111832D01*
X139059974Y-92130552D01*
X139071956Y-92150543D01*
X139081921Y-92171613D01*
X139089773Y-92193557D01*
X139095437Y-92216166D01*
X139098856Y-92239221D01*
X139100000Y-92262500D01*
X139100000Y-92737500D01*
X139098856Y-92760779D01*
X139095437Y-92783834D01*
X139089773Y-92806443D01*
X139081921Y-92828387D01*
X139071956Y-92849457D01*
X139059974Y-92869448D01*
X139046090Y-92888168D01*
X139030438Y-92905438D01*
X139013168Y-92921090D01*
X138994448Y-92934974D01*
X138974457Y-92946956D01*
X138953387Y-92956921D01*
X138931443Y-92964773D01*
X138908834Y-92970437D01*
X138885779Y-92973856D01*
X138862500Y-92975000D01*
X138287500Y-92975000D01*
X138264221Y-92973856D01*
X138241166Y-92970437D01*
X138218557Y-92964773D01*
X138196613Y-92956921D01*
X138175543Y-92946956D01*
X138155552Y-92934974D01*
X138136832Y-92921090D01*
X138119562Y-92905438D01*
X138103910Y-92888168D01*
X138090026Y-92869448D01*
X138078044Y-92849457D01*
X138068079Y-92828387D01*
X138060227Y-92806443D01*
X138054563Y-92783834D01*
X138051144Y-92760779D01*
X138050000Y-92737500D01*
X138050000Y-92262500D01*
X138051144Y-92239221D01*
X138054563Y-92216166D01*
X138060227Y-92193557D01*
X138068079Y-92171613D01*
X138078044Y-92150543D01*
X138090026Y-92130552D01*
X138103910Y-92111832D01*
X138119562Y-92094562D01*
X138136832Y-92078910D01*
X138155552Y-92065026D01*
X138175543Y-92053044D01*
X138196613Y-92043079D01*
X138218557Y-92035227D01*
X138241166Y-92029563D01*
X138264221Y-92026144D01*
X138287500Y-92025000D01*
X138862500Y-92025000D01*
X138885779Y-92026144D01*
X138885779Y-92026144D01*
G37*
D11*
X138575000Y-92500000D03*
D10*
G36*
X137135779Y-92026144D02*
X137158834Y-92029563D01*
X137181443Y-92035227D01*
X137203387Y-92043079D01*
X137224457Y-92053044D01*
X137244448Y-92065026D01*
X137263168Y-92078910D01*
X137280438Y-92094562D01*
X137296090Y-92111832D01*
X137309974Y-92130552D01*
X137321956Y-92150543D01*
X137331921Y-92171613D01*
X137339773Y-92193557D01*
X137345437Y-92216166D01*
X137348856Y-92239221D01*
X137350000Y-92262500D01*
X137350000Y-92737500D01*
X137348856Y-92760779D01*
X137345437Y-92783834D01*
X137339773Y-92806443D01*
X137331921Y-92828387D01*
X137321956Y-92849457D01*
X137309974Y-92869448D01*
X137296090Y-92888168D01*
X137280438Y-92905438D01*
X137263168Y-92921090D01*
X137244448Y-92934974D01*
X137224457Y-92946956D01*
X137203387Y-92956921D01*
X137181443Y-92964773D01*
X137158834Y-92970437D01*
X137135779Y-92973856D01*
X137112500Y-92975000D01*
X136537500Y-92975000D01*
X136514221Y-92973856D01*
X136491166Y-92970437D01*
X136468557Y-92964773D01*
X136446613Y-92956921D01*
X136425543Y-92946956D01*
X136405552Y-92934974D01*
X136386832Y-92921090D01*
X136369562Y-92905438D01*
X136353910Y-92888168D01*
X136340026Y-92869448D01*
X136328044Y-92849457D01*
X136318079Y-92828387D01*
X136310227Y-92806443D01*
X136304563Y-92783834D01*
X136301144Y-92760779D01*
X136300000Y-92737500D01*
X136300000Y-92262500D01*
X136301144Y-92239221D01*
X136304563Y-92216166D01*
X136310227Y-92193557D01*
X136318079Y-92171613D01*
X136328044Y-92150543D01*
X136340026Y-92130552D01*
X136353910Y-92111832D01*
X136369562Y-92094562D01*
X136386832Y-92078910D01*
X136405552Y-92065026D01*
X136425543Y-92053044D01*
X136446613Y-92043079D01*
X136468557Y-92035227D01*
X136491166Y-92029563D01*
X136514221Y-92026144D01*
X136537500Y-92025000D01*
X137112500Y-92025000D01*
X137135779Y-92026144D01*
X137135779Y-92026144D01*
G37*
D11*
X136825000Y-92500000D03*
G04 #@! TD*
D10*
G04 #@! TO.C,R15*
G36*
X139474505Y-108301204D02*
X139498773Y-108304804D01*
X139522572Y-108310765D01*
X139545671Y-108319030D01*
X139567850Y-108329520D01*
X139588893Y-108342132D01*
X139608599Y-108356747D01*
X139626777Y-108373223D01*
X139643253Y-108391401D01*
X139657868Y-108411107D01*
X139670480Y-108432150D01*
X139680970Y-108454329D01*
X139689235Y-108477428D01*
X139695196Y-108501227D01*
X139698796Y-108525495D01*
X139700000Y-108549999D01*
X139700000Y-109375001D01*
X139698796Y-109399505D01*
X139695196Y-109423773D01*
X139689235Y-109447572D01*
X139680970Y-109470671D01*
X139670480Y-109492850D01*
X139657868Y-109513893D01*
X139643253Y-109533599D01*
X139626777Y-109551777D01*
X139608599Y-109568253D01*
X139588893Y-109582868D01*
X139567850Y-109595480D01*
X139545671Y-109605970D01*
X139522572Y-109614235D01*
X139498773Y-109620196D01*
X139474505Y-109623796D01*
X139450001Y-109625000D01*
X138549999Y-109625000D01*
X138525495Y-109623796D01*
X138501227Y-109620196D01*
X138477428Y-109614235D01*
X138454329Y-109605970D01*
X138432150Y-109595480D01*
X138411107Y-109582868D01*
X138391401Y-109568253D01*
X138373223Y-109551777D01*
X138356747Y-109533599D01*
X138342132Y-109513893D01*
X138329520Y-109492850D01*
X138319030Y-109470671D01*
X138310765Y-109447572D01*
X138304804Y-109423773D01*
X138301204Y-109399505D01*
X138300000Y-109375001D01*
X138300000Y-108549999D01*
X138301204Y-108525495D01*
X138304804Y-108501227D01*
X138310765Y-108477428D01*
X138319030Y-108454329D01*
X138329520Y-108432150D01*
X138342132Y-108411107D01*
X138356747Y-108391401D01*
X138373223Y-108373223D01*
X138391401Y-108356747D01*
X138411107Y-108342132D01*
X138432150Y-108329520D01*
X138454329Y-108319030D01*
X138477428Y-108310765D01*
X138501227Y-108304804D01*
X138525495Y-108301204D01*
X138549999Y-108300000D01*
X139450001Y-108300000D01*
X139474505Y-108301204D01*
X139474505Y-108301204D01*
G37*
D35*
X139000000Y-108962500D03*
D10*
G36*
X139474505Y-110176204D02*
X139498773Y-110179804D01*
X139522572Y-110185765D01*
X139545671Y-110194030D01*
X139567850Y-110204520D01*
X139588893Y-110217132D01*
X139608599Y-110231747D01*
X139626777Y-110248223D01*
X139643253Y-110266401D01*
X139657868Y-110286107D01*
X139670480Y-110307150D01*
X139680970Y-110329329D01*
X139689235Y-110352428D01*
X139695196Y-110376227D01*
X139698796Y-110400495D01*
X139700000Y-110424999D01*
X139700000Y-111250001D01*
X139698796Y-111274505D01*
X139695196Y-111298773D01*
X139689235Y-111322572D01*
X139680970Y-111345671D01*
X139670480Y-111367850D01*
X139657868Y-111388893D01*
X139643253Y-111408599D01*
X139626777Y-111426777D01*
X139608599Y-111443253D01*
X139588893Y-111457868D01*
X139567850Y-111470480D01*
X139545671Y-111480970D01*
X139522572Y-111489235D01*
X139498773Y-111495196D01*
X139474505Y-111498796D01*
X139450001Y-111500000D01*
X138549999Y-111500000D01*
X138525495Y-111498796D01*
X138501227Y-111495196D01*
X138477428Y-111489235D01*
X138454329Y-111480970D01*
X138432150Y-111470480D01*
X138411107Y-111457868D01*
X138391401Y-111443253D01*
X138373223Y-111426777D01*
X138356747Y-111408599D01*
X138342132Y-111388893D01*
X138329520Y-111367850D01*
X138319030Y-111345671D01*
X138310765Y-111322572D01*
X138304804Y-111298773D01*
X138301204Y-111274505D01*
X138300000Y-111250001D01*
X138300000Y-110424999D01*
X138301204Y-110400495D01*
X138304804Y-110376227D01*
X138310765Y-110352428D01*
X138319030Y-110329329D01*
X138329520Y-110307150D01*
X138342132Y-110286107D01*
X138356747Y-110266401D01*
X138373223Y-110248223D01*
X138391401Y-110231747D01*
X138411107Y-110217132D01*
X138432150Y-110204520D01*
X138454329Y-110194030D01*
X138477428Y-110185765D01*
X138501227Y-110179804D01*
X138525495Y-110176204D01*
X138549999Y-110175000D01*
X139450001Y-110175000D01*
X139474505Y-110176204D01*
X139474505Y-110176204D01*
G37*
D35*
X139000000Y-110837500D03*
G04 #@! TD*
D10*
G04 #@! TO.C,R10*
G36*
X143660779Y-108601144D02*
X143683834Y-108604563D01*
X143706443Y-108610227D01*
X143728387Y-108618079D01*
X143749457Y-108628044D01*
X143769448Y-108640026D01*
X143788168Y-108653910D01*
X143805438Y-108669562D01*
X143821090Y-108686832D01*
X143834974Y-108705552D01*
X143846956Y-108725543D01*
X143856921Y-108746613D01*
X143864773Y-108768557D01*
X143870437Y-108791166D01*
X143873856Y-108814221D01*
X143875000Y-108837500D01*
X143875000Y-109412500D01*
X143873856Y-109435779D01*
X143870437Y-109458834D01*
X143864773Y-109481443D01*
X143856921Y-109503387D01*
X143846956Y-109524457D01*
X143834974Y-109544448D01*
X143821090Y-109563168D01*
X143805438Y-109580438D01*
X143788168Y-109596090D01*
X143769448Y-109609974D01*
X143749457Y-109621956D01*
X143728387Y-109631921D01*
X143706443Y-109639773D01*
X143683834Y-109645437D01*
X143660779Y-109648856D01*
X143637500Y-109650000D01*
X143162500Y-109650000D01*
X143139221Y-109648856D01*
X143116166Y-109645437D01*
X143093557Y-109639773D01*
X143071613Y-109631921D01*
X143050543Y-109621956D01*
X143030552Y-109609974D01*
X143011832Y-109596090D01*
X142994562Y-109580438D01*
X142978910Y-109563168D01*
X142965026Y-109544448D01*
X142953044Y-109524457D01*
X142943079Y-109503387D01*
X142935227Y-109481443D01*
X142929563Y-109458834D01*
X142926144Y-109435779D01*
X142925000Y-109412500D01*
X142925000Y-108837500D01*
X142926144Y-108814221D01*
X142929563Y-108791166D01*
X142935227Y-108768557D01*
X142943079Y-108746613D01*
X142953044Y-108725543D01*
X142965026Y-108705552D01*
X142978910Y-108686832D01*
X142994562Y-108669562D01*
X143011832Y-108653910D01*
X143030552Y-108640026D01*
X143050543Y-108628044D01*
X143071613Y-108618079D01*
X143093557Y-108610227D01*
X143116166Y-108604563D01*
X143139221Y-108601144D01*
X143162500Y-108600000D01*
X143637500Y-108600000D01*
X143660779Y-108601144D01*
X143660779Y-108601144D01*
G37*
D11*
X143400000Y-109125000D03*
D10*
G36*
X143660779Y-110351144D02*
X143683834Y-110354563D01*
X143706443Y-110360227D01*
X143728387Y-110368079D01*
X143749457Y-110378044D01*
X143769448Y-110390026D01*
X143788168Y-110403910D01*
X143805438Y-110419562D01*
X143821090Y-110436832D01*
X143834974Y-110455552D01*
X143846956Y-110475543D01*
X143856921Y-110496613D01*
X143864773Y-110518557D01*
X143870437Y-110541166D01*
X143873856Y-110564221D01*
X143875000Y-110587500D01*
X143875000Y-111162500D01*
X143873856Y-111185779D01*
X143870437Y-111208834D01*
X143864773Y-111231443D01*
X143856921Y-111253387D01*
X143846956Y-111274457D01*
X143834974Y-111294448D01*
X143821090Y-111313168D01*
X143805438Y-111330438D01*
X143788168Y-111346090D01*
X143769448Y-111359974D01*
X143749457Y-111371956D01*
X143728387Y-111381921D01*
X143706443Y-111389773D01*
X143683834Y-111395437D01*
X143660779Y-111398856D01*
X143637500Y-111400000D01*
X143162500Y-111400000D01*
X143139221Y-111398856D01*
X143116166Y-111395437D01*
X143093557Y-111389773D01*
X143071613Y-111381921D01*
X143050543Y-111371956D01*
X143030552Y-111359974D01*
X143011832Y-111346090D01*
X142994562Y-111330438D01*
X142978910Y-111313168D01*
X142965026Y-111294448D01*
X142953044Y-111274457D01*
X142943079Y-111253387D01*
X142935227Y-111231443D01*
X142929563Y-111208834D01*
X142926144Y-111185779D01*
X142925000Y-111162500D01*
X142925000Y-110587500D01*
X142926144Y-110564221D01*
X142929563Y-110541166D01*
X142935227Y-110518557D01*
X142943079Y-110496613D01*
X142953044Y-110475543D01*
X142965026Y-110455552D01*
X142978910Y-110436832D01*
X142994562Y-110419562D01*
X143011832Y-110403910D01*
X143030552Y-110390026D01*
X143050543Y-110378044D01*
X143071613Y-110368079D01*
X143093557Y-110360227D01*
X143116166Y-110354563D01*
X143139221Y-110351144D01*
X143162500Y-110350000D01*
X143637500Y-110350000D01*
X143660779Y-110351144D01*
X143660779Y-110351144D01*
G37*
D11*
X143400000Y-110875000D03*
G04 #@! TD*
D10*
G04 #@! TO.C,R11*
G36*
X146860779Y-110351144D02*
X146883834Y-110354563D01*
X146906443Y-110360227D01*
X146928387Y-110368079D01*
X146949457Y-110378044D01*
X146969448Y-110390026D01*
X146988168Y-110403910D01*
X147005438Y-110419562D01*
X147021090Y-110436832D01*
X147034974Y-110455552D01*
X147046956Y-110475543D01*
X147056921Y-110496613D01*
X147064773Y-110518557D01*
X147070437Y-110541166D01*
X147073856Y-110564221D01*
X147075000Y-110587500D01*
X147075000Y-111162500D01*
X147073856Y-111185779D01*
X147070437Y-111208834D01*
X147064773Y-111231443D01*
X147056921Y-111253387D01*
X147046956Y-111274457D01*
X147034974Y-111294448D01*
X147021090Y-111313168D01*
X147005438Y-111330438D01*
X146988168Y-111346090D01*
X146969448Y-111359974D01*
X146949457Y-111371956D01*
X146928387Y-111381921D01*
X146906443Y-111389773D01*
X146883834Y-111395437D01*
X146860779Y-111398856D01*
X146837500Y-111400000D01*
X146362500Y-111400000D01*
X146339221Y-111398856D01*
X146316166Y-111395437D01*
X146293557Y-111389773D01*
X146271613Y-111381921D01*
X146250543Y-111371956D01*
X146230552Y-111359974D01*
X146211832Y-111346090D01*
X146194562Y-111330438D01*
X146178910Y-111313168D01*
X146165026Y-111294448D01*
X146153044Y-111274457D01*
X146143079Y-111253387D01*
X146135227Y-111231443D01*
X146129563Y-111208834D01*
X146126144Y-111185779D01*
X146125000Y-111162500D01*
X146125000Y-110587500D01*
X146126144Y-110564221D01*
X146129563Y-110541166D01*
X146135227Y-110518557D01*
X146143079Y-110496613D01*
X146153044Y-110475543D01*
X146165026Y-110455552D01*
X146178910Y-110436832D01*
X146194562Y-110419562D01*
X146211832Y-110403910D01*
X146230552Y-110390026D01*
X146250543Y-110378044D01*
X146271613Y-110368079D01*
X146293557Y-110360227D01*
X146316166Y-110354563D01*
X146339221Y-110351144D01*
X146362500Y-110350000D01*
X146837500Y-110350000D01*
X146860779Y-110351144D01*
X146860779Y-110351144D01*
G37*
D11*
X146600000Y-110875000D03*
D10*
G36*
X146860779Y-108601144D02*
X146883834Y-108604563D01*
X146906443Y-108610227D01*
X146928387Y-108618079D01*
X146949457Y-108628044D01*
X146969448Y-108640026D01*
X146988168Y-108653910D01*
X147005438Y-108669562D01*
X147021090Y-108686832D01*
X147034974Y-108705552D01*
X147046956Y-108725543D01*
X147056921Y-108746613D01*
X147064773Y-108768557D01*
X147070437Y-108791166D01*
X147073856Y-108814221D01*
X147075000Y-108837500D01*
X147075000Y-109412500D01*
X147073856Y-109435779D01*
X147070437Y-109458834D01*
X147064773Y-109481443D01*
X147056921Y-109503387D01*
X147046956Y-109524457D01*
X147034974Y-109544448D01*
X147021090Y-109563168D01*
X147005438Y-109580438D01*
X146988168Y-109596090D01*
X146969448Y-109609974D01*
X146949457Y-109621956D01*
X146928387Y-109631921D01*
X146906443Y-109639773D01*
X146883834Y-109645437D01*
X146860779Y-109648856D01*
X146837500Y-109650000D01*
X146362500Y-109650000D01*
X146339221Y-109648856D01*
X146316166Y-109645437D01*
X146293557Y-109639773D01*
X146271613Y-109631921D01*
X146250543Y-109621956D01*
X146230552Y-109609974D01*
X146211832Y-109596090D01*
X146194562Y-109580438D01*
X146178910Y-109563168D01*
X146165026Y-109544448D01*
X146153044Y-109524457D01*
X146143079Y-109503387D01*
X146135227Y-109481443D01*
X146129563Y-109458834D01*
X146126144Y-109435779D01*
X146125000Y-109412500D01*
X146125000Y-108837500D01*
X146126144Y-108814221D01*
X146129563Y-108791166D01*
X146135227Y-108768557D01*
X146143079Y-108746613D01*
X146153044Y-108725543D01*
X146165026Y-108705552D01*
X146178910Y-108686832D01*
X146194562Y-108669562D01*
X146211832Y-108653910D01*
X146230552Y-108640026D01*
X146250543Y-108628044D01*
X146271613Y-108618079D01*
X146293557Y-108610227D01*
X146316166Y-108604563D01*
X146339221Y-108601144D01*
X146362500Y-108600000D01*
X146837500Y-108600000D01*
X146860779Y-108601144D01*
X146860779Y-108601144D01*
G37*
D11*
X146600000Y-109125000D03*
G04 #@! TD*
D10*
G04 #@! TO.C,C7*
G36*
X165260779Y-104601144D02*
X165283834Y-104604563D01*
X165306443Y-104610227D01*
X165328387Y-104618079D01*
X165349457Y-104628044D01*
X165369448Y-104640026D01*
X165388168Y-104653910D01*
X165405438Y-104669562D01*
X165421090Y-104686832D01*
X165434974Y-104705552D01*
X165446956Y-104725543D01*
X165456921Y-104746613D01*
X165464773Y-104768557D01*
X165470437Y-104791166D01*
X165473856Y-104814221D01*
X165475000Y-104837500D01*
X165475000Y-105412500D01*
X165473856Y-105435779D01*
X165470437Y-105458834D01*
X165464773Y-105481443D01*
X165456921Y-105503387D01*
X165446956Y-105524457D01*
X165434974Y-105544448D01*
X165421090Y-105563168D01*
X165405438Y-105580438D01*
X165388168Y-105596090D01*
X165369448Y-105609974D01*
X165349457Y-105621956D01*
X165328387Y-105631921D01*
X165306443Y-105639773D01*
X165283834Y-105645437D01*
X165260779Y-105648856D01*
X165237500Y-105650000D01*
X164762500Y-105650000D01*
X164739221Y-105648856D01*
X164716166Y-105645437D01*
X164693557Y-105639773D01*
X164671613Y-105631921D01*
X164650543Y-105621956D01*
X164630552Y-105609974D01*
X164611832Y-105596090D01*
X164594562Y-105580438D01*
X164578910Y-105563168D01*
X164565026Y-105544448D01*
X164553044Y-105524457D01*
X164543079Y-105503387D01*
X164535227Y-105481443D01*
X164529563Y-105458834D01*
X164526144Y-105435779D01*
X164525000Y-105412500D01*
X164525000Y-104837500D01*
X164526144Y-104814221D01*
X164529563Y-104791166D01*
X164535227Y-104768557D01*
X164543079Y-104746613D01*
X164553044Y-104725543D01*
X164565026Y-104705552D01*
X164578910Y-104686832D01*
X164594562Y-104669562D01*
X164611832Y-104653910D01*
X164630552Y-104640026D01*
X164650543Y-104628044D01*
X164671613Y-104618079D01*
X164693557Y-104610227D01*
X164716166Y-104604563D01*
X164739221Y-104601144D01*
X164762500Y-104600000D01*
X165237500Y-104600000D01*
X165260779Y-104601144D01*
X165260779Y-104601144D01*
G37*
D11*
X165000000Y-105125000D03*
D10*
G36*
X165260779Y-106351144D02*
X165283834Y-106354563D01*
X165306443Y-106360227D01*
X165328387Y-106368079D01*
X165349457Y-106378044D01*
X165369448Y-106390026D01*
X165388168Y-106403910D01*
X165405438Y-106419562D01*
X165421090Y-106436832D01*
X165434974Y-106455552D01*
X165446956Y-106475543D01*
X165456921Y-106496613D01*
X165464773Y-106518557D01*
X165470437Y-106541166D01*
X165473856Y-106564221D01*
X165475000Y-106587500D01*
X165475000Y-107162500D01*
X165473856Y-107185779D01*
X165470437Y-107208834D01*
X165464773Y-107231443D01*
X165456921Y-107253387D01*
X165446956Y-107274457D01*
X165434974Y-107294448D01*
X165421090Y-107313168D01*
X165405438Y-107330438D01*
X165388168Y-107346090D01*
X165369448Y-107359974D01*
X165349457Y-107371956D01*
X165328387Y-107381921D01*
X165306443Y-107389773D01*
X165283834Y-107395437D01*
X165260779Y-107398856D01*
X165237500Y-107400000D01*
X164762500Y-107400000D01*
X164739221Y-107398856D01*
X164716166Y-107395437D01*
X164693557Y-107389773D01*
X164671613Y-107381921D01*
X164650543Y-107371956D01*
X164630552Y-107359974D01*
X164611832Y-107346090D01*
X164594562Y-107330438D01*
X164578910Y-107313168D01*
X164565026Y-107294448D01*
X164553044Y-107274457D01*
X164543079Y-107253387D01*
X164535227Y-107231443D01*
X164529563Y-107208834D01*
X164526144Y-107185779D01*
X164525000Y-107162500D01*
X164525000Y-106587500D01*
X164526144Y-106564221D01*
X164529563Y-106541166D01*
X164535227Y-106518557D01*
X164543079Y-106496613D01*
X164553044Y-106475543D01*
X164565026Y-106455552D01*
X164578910Y-106436832D01*
X164594562Y-106419562D01*
X164611832Y-106403910D01*
X164630552Y-106390026D01*
X164650543Y-106378044D01*
X164671613Y-106368079D01*
X164693557Y-106360227D01*
X164716166Y-106354563D01*
X164739221Y-106351144D01*
X164762500Y-106350000D01*
X165237500Y-106350000D01*
X165260779Y-106351144D01*
X165260779Y-106351144D01*
G37*
D11*
X165000000Y-106875000D03*
G04 #@! TD*
D10*
G04 #@! TO.C,R5*
G36*
X166260779Y-108501144D02*
X166283834Y-108504563D01*
X166306443Y-108510227D01*
X166328387Y-108518079D01*
X166349457Y-108528044D01*
X166369448Y-108540026D01*
X166388168Y-108553910D01*
X166405438Y-108569562D01*
X166421090Y-108586832D01*
X166434974Y-108605552D01*
X166446956Y-108625543D01*
X166456921Y-108646613D01*
X166464773Y-108668557D01*
X166470437Y-108691166D01*
X166473856Y-108714221D01*
X166475000Y-108737500D01*
X166475000Y-109312500D01*
X166473856Y-109335779D01*
X166470437Y-109358834D01*
X166464773Y-109381443D01*
X166456921Y-109403387D01*
X166446956Y-109424457D01*
X166434974Y-109444448D01*
X166421090Y-109463168D01*
X166405438Y-109480438D01*
X166388168Y-109496090D01*
X166369448Y-109509974D01*
X166349457Y-109521956D01*
X166328387Y-109531921D01*
X166306443Y-109539773D01*
X166283834Y-109545437D01*
X166260779Y-109548856D01*
X166237500Y-109550000D01*
X165762500Y-109550000D01*
X165739221Y-109548856D01*
X165716166Y-109545437D01*
X165693557Y-109539773D01*
X165671613Y-109531921D01*
X165650543Y-109521956D01*
X165630552Y-109509974D01*
X165611832Y-109496090D01*
X165594562Y-109480438D01*
X165578910Y-109463168D01*
X165565026Y-109444448D01*
X165553044Y-109424457D01*
X165543079Y-109403387D01*
X165535227Y-109381443D01*
X165529563Y-109358834D01*
X165526144Y-109335779D01*
X165525000Y-109312500D01*
X165525000Y-108737500D01*
X165526144Y-108714221D01*
X165529563Y-108691166D01*
X165535227Y-108668557D01*
X165543079Y-108646613D01*
X165553044Y-108625543D01*
X165565026Y-108605552D01*
X165578910Y-108586832D01*
X165594562Y-108569562D01*
X165611832Y-108553910D01*
X165630552Y-108540026D01*
X165650543Y-108528044D01*
X165671613Y-108518079D01*
X165693557Y-108510227D01*
X165716166Y-108504563D01*
X165739221Y-108501144D01*
X165762500Y-108500000D01*
X166237500Y-108500000D01*
X166260779Y-108501144D01*
X166260779Y-108501144D01*
G37*
D11*
X166000000Y-109025000D03*
D10*
G36*
X166260779Y-110251144D02*
X166283834Y-110254563D01*
X166306443Y-110260227D01*
X166328387Y-110268079D01*
X166349457Y-110278044D01*
X166369448Y-110290026D01*
X166388168Y-110303910D01*
X166405438Y-110319562D01*
X166421090Y-110336832D01*
X166434974Y-110355552D01*
X166446956Y-110375543D01*
X166456921Y-110396613D01*
X166464773Y-110418557D01*
X166470437Y-110441166D01*
X166473856Y-110464221D01*
X166475000Y-110487500D01*
X166475000Y-111062500D01*
X166473856Y-111085779D01*
X166470437Y-111108834D01*
X166464773Y-111131443D01*
X166456921Y-111153387D01*
X166446956Y-111174457D01*
X166434974Y-111194448D01*
X166421090Y-111213168D01*
X166405438Y-111230438D01*
X166388168Y-111246090D01*
X166369448Y-111259974D01*
X166349457Y-111271956D01*
X166328387Y-111281921D01*
X166306443Y-111289773D01*
X166283834Y-111295437D01*
X166260779Y-111298856D01*
X166237500Y-111300000D01*
X165762500Y-111300000D01*
X165739221Y-111298856D01*
X165716166Y-111295437D01*
X165693557Y-111289773D01*
X165671613Y-111281921D01*
X165650543Y-111271956D01*
X165630552Y-111259974D01*
X165611832Y-111246090D01*
X165594562Y-111230438D01*
X165578910Y-111213168D01*
X165565026Y-111194448D01*
X165553044Y-111174457D01*
X165543079Y-111153387D01*
X165535227Y-111131443D01*
X165529563Y-111108834D01*
X165526144Y-111085779D01*
X165525000Y-111062500D01*
X165525000Y-110487500D01*
X165526144Y-110464221D01*
X165529563Y-110441166D01*
X165535227Y-110418557D01*
X165543079Y-110396613D01*
X165553044Y-110375543D01*
X165565026Y-110355552D01*
X165578910Y-110336832D01*
X165594562Y-110319562D01*
X165611832Y-110303910D01*
X165630552Y-110290026D01*
X165650543Y-110278044D01*
X165671613Y-110268079D01*
X165693557Y-110260227D01*
X165716166Y-110254563D01*
X165739221Y-110251144D01*
X165762500Y-110250000D01*
X166237500Y-110250000D01*
X166260779Y-110251144D01*
X166260779Y-110251144D01*
G37*
D11*
X166000000Y-110775000D03*
G04 #@! TD*
D10*
G04 #@! TO.C,R6*
G36*
X167860779Y-110251144D02*
X167883834Y-110254563D01*
X167906443Y-110260227D01*
X167928387Y-110268079D01*
X167949457Y-110278044D01*
X167969448Y-110290026D01*
X167988168Y-110303910D01*
X168005438Y-110319562D01*
X168021090Y-110336832D01*
X168034974Y-110355552D01*
X168046956Y-110375543D01*
X168056921Y-110396613D01*
X168064773Y-110418557D01*
X168070437Y-110441166D01*
X168073856Y-110464221D01*
X168075000Y-110487500D01*
X168075000Y-111062500D01*
X168073856Y-111085779D01*
X168070437Y-111108834D01*
X168064773Y-111131443D01*
X168056921Y-111153387D01*
X168046956Y-111174457D01*
X168034974Y-111194448D01*
X168021090Y-111213168D01*
X168005438Y-111230438D01*
X167988168Y-111246090D01*
X167969448Y-111259974D01*
X167949457Y-111271956D01*
X167928387Y-111281921D01*
X167906443Y-111289773D01*
X167883834Y-111295437D01*
X167860779Y-111298856D01*
X167837500Y-111300000D01*
X167362500Y-111300000D01*
X167339221Y-111298856D01*
X167316166Y-111295437D01*
X167293557Y-111289773D01*
X167271613Y-111281921D01*
X167250543Y-111271956D01*
X167230552Y-111259974D01*
X167211832Y-111246090D01*
X167194562Y-111230438D01*
X167178910Y-111213168D01*
X167165026Y-111194448D01*
X167153044Y-111174457D01*
X167143079Y-111153387D01*
X167135227Y-111131443D01*
X167129563Y-111108834D01*
X167126144Y-111085779D01*
X167125000Y-111062500D01*
X167125000Y-110487500D01*
X167126144Y-110464221D01*
X167129563Y-110441166D01*
X167135227Y-110418557D01*
X167143079Y-110396613D01*
X167153044Y-110375543D01*
X167165026Y-110355552D01*
X167178910Y-110336832D01*
X167194562Y-110319562D01*
X167211832Y-110303910D01*
X167230552Y-110290026D01*
X167250543Y-110278044D01*
X167271613Y-110268079D01*
X167293557Y-110260227D01*
X167316166Y-110254563D01*
X167339221Y-110251144D01*
X167362500Y-110250000D01*
X167837500Y-110250000D01*
X167860779Y-110251144D01*
X167860779Y-110251144D01*
G37*
D11*
X167600000Y-110775000D03*
D10*
G36*
X167860779Y-108501144D02*
X167883834Y-108504563D01*
X167906443Y-108510227D01*
X167928387Y-108518079D01*
X167949457Y-108528044D01*
X167969448Y-108540026D01*
X167988168Y-108553910D01*
X168005438Y-108569562D01*
X168021090Y-108586832D01*
X168034974Y-108605552D01*
X168046956Y-108625543D01*
X168056921Y-108646613D01*
X168064773Y-108668557D01*
X168070437Y-108691166D01*
X168073856Y-108714221D01*
X168075000Y-108737500D01*
X168075000Y-109312500D01*
X168073856Y-109335779D01*
X168070437Y-109358834D01*
X168064773Y-109381443D01*
X168056921Y-109403387D01*
X168046956Y-109424457D01*
X168034974Y-109444448D01*
X168021090Y-109463168D01*
X168005438Y-109480438D01*
X167988168Y-109496090D01*
X167969448Y-109509974D01*
X167949457Y-109521956D01*
X167928387Y-109531921D01*
X167906443Y-109539773D01*
X167883834Y-109545437D01*
X167860779Y-109548856D01*
X167837500Y-109550000D01*
X167362500Y-109550000D01*
X167339221Y-109548856D01*
X167316166Y-109545437D01*
X167293557Y-109539773D01*
X167271613Y-109531921D01*
X167250543Y-109521956D01*
X167230552Y-109509974D01*
X167211832Y-109496090D01*
X167194562Y-109480438D01*
X167178910Y-109463168D01*
X167165026Y-109444448D01*
X167153044Y-109424457D01*
X167143079Y-109403387D01*
X167135227Y-109381443D01*
X167129563Y-109358834D01*
X167126144Y-109335779D01*
X167125000Y-109312500D01*
X167125000Y-108737500D01*
X167126144Y-108714221D01*
X167129563Y-108691166D01*
X167135227Y-108668557D01*
X167143079Y-108646613D01*
X167153044Y-108625543D01*
X167165026Y-108605552D01*
X167178910Y-108586832D01*
X167194562Y-108569562D01*
X167211832Y-108553910D01*
X167230552Y-108540026D01*
X167250543Y-108528044D01*
X167271613Y-108518079D01*
X167293557Y-108510227D01*
X167316166Y-108504563D01*
X167339221Y-108501144D01*
X167362500Y-108500000D01*
X167837500Y-108500000D01*
X167860779Y-108501144D01*
X167860779Y-108501144D01*
G37*
D11*
X167600000Y-109025000D03*
G04 #@! TD*
D10*
G04 #@! TO.C,C9*
G36*
X161160779Y-107701144D02*
X161183834Y-107704563D01*
X161206443Y-107710227D01*
X161228387Y-107718079D01*
X161249457Y-107728044D01*
X161269448Y-107740026D01*
X161288168Y-107753910D01*
X161305438Y-107769562D01*
X161321090Y-107786832D01*
X161334974Y-107805552D01*
X161346956Y-107825543D01*
X161356921Y-107846613D01*
X161364773Y-107868557D01*
X161370437Y-107891166D01*
X161373856Y-107914221D01*
X161375000Y-107937500D01*
X161375000Y-108512500D01*
X161373856Y-108535779D01*
X161370437Y-108558834D01*
X161364773Y-108581443D01*
X161356921Y-108603387D01*
X161346956Y-108624457D01*
X161334974Y-108644448D01*
X161321090Y-108663168D01*
X161305438Y-108680438D01*
X161288168Y-108696090D01*
X161269448Y-108709974D01*
X161249457Y-108721956D01*
X161228387Y-108731921D01*
X161206443Y-108739773D01*
X161183834Y-108745437D01*
X161160779Y-108748856D01*
X161137500Y-108750000D01*
X160662500Y-108750000D01*
X160639221Y-108748856D01*
X160616166Y-108745437D01*
X160593557Y-108739773D01*
X160571613Y-108731921D01*
X160550543Y-108721956D01*
X160530552Y-108709974D01*
X160511832Y-108696090D01*
X160494562Y-108680438D01*
X160478910Y-108663168D01*
X160465026Y-108644448D01*
X160453044Y-108624457D01*
X160443079Y-108603387D01*
X160435227Y-108581443D01*
X160429563Y-108558834D01*
X160426144Y-108535779D01*
X160425000Y-108512500D01*
X160425000Y-107937500D01*
X160426144Y-107914221D01*
X160429563Y-107891166D01*
X160435227Y-107868557D01*
X160443079Y-107846613D01*
X160453044Y-107825543D01*
X160465026Y-107805552D01*
X160478910Y-107786832D01*
X160494562Y-107769562D01*
X160511832Y-107753910D01*
X160530552Y-107740026D01*
X160550543Y-107728044D01*
X160571613Y-107718079D01*
X160593557Y-107710227D01*
X160616166Y-107704563D01*
X160639221Y-107701144D01*
X160662500Y-107700000D01*
X161137500Y-107700000D01*
X161160779Y-107701144D01*
X161160779Y-107701144D01*
G37*
D11*
X160900000Y-108225000D03*
D10*
G36*
X161160779Y-109451144D02*
X161183834Y-109454563D01*
X161206443Y-109460227D01*
X161228387Y-109468079D01*
X161249457Y-109478044D01*
X161269448Y-109490026D01*
X161288168Y-109503910D01*
X161305438Y-109519562D01*
X161321090Y-109536832D01*
X161334974Y-109555552D01*
X161346956Y-109575543D01*
X161356921Y-109596613D01*
X161364773Y-109618557D01*
X161370437Y-109641166D01*
X161373856Y-109664221D01*
X161375000Y-109687500D01*
X161375000Y-110262500D01*
X161373856Y-110285779D01*
X161370437Y-110308834D01*
X161364773Y-110331443D01*
X161356921Y-110353387D01*
X161346956Y-110374457D01*
X161334974Y-110394448D01*
X161321090Y-110413168D01*
X161305438Y-110430438D01*
X161288168Y-110446090D01*
X161269448Y-110459974D01*
X161249457Y-110471956D01*
X161228387Y-110481921D01*
X161206443Y-110489773D01*
X161183834Y-110495437D01*
X161160779Y-110498856D01*
X161137500Y-110500000D01*
X160662500Y-110500000D01*
X160639221Y-110498856D01*
X160616166Y-110495437D01*
X160593557Y-110489773D01*
X160571613Y-110481921D01*
X160550543Y-110471956D01*
X160530552Y-110459974D01*
X160511832Y-110446090D01*
X160494562Y-110430438D01*
X160478910Y-110413168D01*
X160465026Y-110394448D01*
X160453044Y-110374457D01*
X160443079Y-110353387D01*
X160435227Y-110331443D01*
X160429563Y-110308834D01*
X160426144Y-110285779D01*
X160425000Y-110262500D01*
X160425000Y-109687500D01*
X160426144Y-109664221D01*
X160429563Y-109641166D01*
X160435227Y-109618557D01*
X160443079Y-109596613D01*
X160453044Y-109575543D01*
X160465026Y-109555552D01*
X160478910Y-109536832D01*
X160494562Y-109519562D01*
X160511832Y-109503910D01*
X160530552Y-109490026D01*
X160550543Y-109478044D01*
X160571613Y-109468079D01*
X160593557Y-109460227D01*
X160616166Y-109454563D01*
X160639221Y-109451144D01*
X160662500Y-109450000D01*
X161137500Y-109450000D01*
X161160779Y-109451144D01*
X161160779Y-109451144D01*
G37*
D11*
X160900000Y-109975000D03*
G04 #@! TD*
D10*
G04 #@! TO.C,C19*
G36*
X144960779Y-94351144D02*
X144983834Y-94354563D01*
X145006443Y-94360227D01*
X145028387Y-94368079D01*
X145049457Y-94378044D01*
X145069448Y-94390026D01*
X145088168Y-94403910D01*
X145105438Y-94419562D01*
X145121090Y-94436832D01*
X145134974Y-94455552D01*
X145146956Y-94475543D01*
X145156921Y-94496613D01*
X145164773Y-94518557D01*
X145170437Y-94541166D01*
X145173856Y-94564221D01*
X145175000Y-94587500D01*
X145175000Y-95162500D01*
X145173856Y-95185779D01*
X145170437Y-95208834D01*
X145164773Y-95231443D01*
X145156921Y-95253387D01*
X145146956Y-95274457D01*
X145134974Y-95294448D01*
X145121090Y-95313168D01*
X145105438Y-95330438D01*
X145088168Y-95346090D01*
X145069448Y-95359974D01*
X145049457Y-95371956D01*
X145028387Y-95381921D01*
X145006443Y-95389773D01*
X144983834Y-95395437D01*
X144960779Y-95398856D01*
X144937500Y-95400000D01*
X144462500Y-95400000D01*
X144439221Y-95398856D01*
X144416166Y-95395437D01*
X144393557Y-95389773D01*
X144371613Y-95381921D01*
X144350543Y-95371956D01*
X144330552Y-95359974D01*
X144311832Y-95346090D01*
X144294562Y-95330438D01*
X144278910Y-95313168D01*
X144265026Y-95294448D01*
X144253044Y-95274457D01*
X144243079Y-95253387D01*
X144235227Y-95231443D01*
X144229563Y-95208834D01*
X144226144Y-95185779D01*
X144225000Y-95162500D01*
X144225000Y-94587500D01*
X144226144Y-94564221D01*
X144229563Y-94541166D01*
X144235227Y-94518557D01*
X144243079Y-94496613D01*
X144253044Y-94475543D01*
X144265026Y-94455552D01*
X144278910Y-94436832D01*
X144294562Y-94419562D01*
X144311832Y-94403910D01*
X144330552Y-94390026D01*
X144350543Y-94378044D01*
X144371613Y-94368079D01*
X144393557Y-94360227D01*
X144416166Y-94354563D01*
X144439221Y-94351144D01*
X144462500Y-94350000D01*
X144937500Y-94350000D01*
X144960779Y-94351144D01*
X144960779Y-94351144D01*
G37*
D11*
X144700000Y-94875000D03*
D10*
G36*
X144960779Y-92601144D02*
X144983834Y-92604563D01*
X145006443Y-92610227D01*
X145028387Y-92618079D01*
X145049457Y-92628044D01*
X145069448Y-92640026D01*
X145088168Y-92653910D01*
X145105438Y-92669562D01*
X145121090Y-92686832D01*
X145134974Y-92705552D01*
X145146956Y-92725543D01*
X145156921Y-92746613D01*
X145164773Y-92768557D01*
X145170437Y-92791166D01*
X145173856Y-92814221D01*
X145175000Y-92837500D01*
X145175000Y-93412500D01*
X145173856Y-93435779D01*
X145170437Y-93458834D01*
X145164773Y-93481443D01*
X145156921Y-93503387D01*
X145146956Y-93524457D01*
X145134974Y-93544448D01*
X145121090Y-93563168D01*
X145105438Y-93580438D01*
X145088168Y-93596090D01*
X145069448Y-93609974D01*
X145049457Y-93621956D01*
X145028387Y-93631921D01*
X145006443Y-93639773D01*
X144983834Y-93645437D01*
X144960779Y-93648856D01*
X144937500Y-93650000D01*
X144462500Y-93650000D01*
X144439221Y-93648856D01*
X144416166Y-93645437D01*
X144393557Y-93639773D01*
X144371613Y-93631921D01*
X144350543Y-93621956D01*
X144330552Y-93609974D01*
X144311832Y-93596090D01*
X144294562Y-93580438D01*
X144278910Y-93563168D01*
X144265026Y-93544448D01*
X144253044Y-93524457D01*
X144243079Y-93503387D01*
X144235227Y-93481443D01*
X144229563Y-93458834D01*
X144226144Y-93435779D01*
X144225000Y-93412500D01*
X144225000Y-92837500D01*
X144226144Y-92814221D01*
X144229563Y-92791166D01*
X144235227Y-92768557D01*
X144243079Y-92746613D01*
X144253044Y-92725543D01*
X144265026Y-92705552D01*
X144278910Y-92686832D01*
X144294562Y-92669562D01*
X144311832Y-92653910D01*
X144330552Y-92640026D01*
X144350543Y-92628044D01*
X144371613Y-92618079D01*
X144393557Y-92610227D01*
X144416166Y-92604563D01*
X144439221Y-92601144D01*
X144462500Y-92600000D01*
X144937500Y-92600000D01*
X144960779Y-92601144D01*
X144960779Y-92601144D01*
G37*
D11*
X144700000Y-93125000D03*
G04 #@! TD*
M02*
