G04 #@! TF.FileFunction,Legend,Top*
%FSLAX46Y46*%
G04 Gerber Fmt 4.6, Leading zero omitted, Abs format (unit mm)*
G04 Created by KiCad (PCBNEW 4.0.4+dfsg1-stable) date Sat Dec  3 18:54:26 2016*
%MOMM*%
%LPD*%
G01*
G04 APERTURE LIST*
%ADD10C,0.100000*%
%ADD11C,0.200000*%
%ADD12C,0.150000*%
%ADD13C,0.010000*%
%ADD14C,0.254000*%
G04 APERTURE END LIST*
D10*
D11*
X167702381Y-83547619D02*
X167226190Y-83880953D01*
X167702381Y-84119048D02*
X166702381Y-84119048D01*
X166702381Y-83738095D01*
X166750000Y-83642857D01*
X166797619Y-83595238D01*
X166892857Y-83547619D01*
X167035714Y-83547619D01*
X167130952Y-83595238D01*
X167178571Y-83642857D01*
X167226190Y-83738095D01*
X167226190Y-84119048D01*
X167178571Y-83119048D02*
X167178571Y-82785714D01*
X167702381Y-82642857D02*
X167702381Y-83119048D01*
X166702381Y-83119048D01*
X166702381Y-82642857D01*
X166702381Y-82357143D02*
X167702381Y-82023810D01*
X166702381Y-81690476D01*
X167702381Y-80833333D02*
X167702381Y-81404762D01*
X167702381Y-81119048D02*
X166702381Y-81119048D01*
X166845238Y-81214286D01*
X166940476Y-81309524D01*
X166988095Y-81404762D01*
X163440476Y-113428573D02*
X163392857Y-113523811D01*
X163392857Y-113714287D01*
X163440476Y-113809525D01*
X163535714Y-113904763D01*
X163630952Y-113952382D01*
X163821429Y-113952382D01*
X163916667Y-113904763D01*
X164011905Y-113809525D01*
X164059524Y-113714287D01*
X164059524Y-113523811D01*
X164011905Y-113428573D01*
X163059524Y-113619049D02*
X163107143Y-113857144D01*
X163250000Y-114095240D01*
X163488095Y-114238097D01*
X163726190Y-114285716D01*
X163964286Y-114238097D01*
X164202381Y-114095240D01*
X164345238Y-113857144D01*
X164392857Y-113619049D01*
X164345238Y-113380954D01*
X164202381Y-113142859D01*
X163964286Y-113000002D01*
X163726190Y-112952382D01*
X163488095Y-113000002D01*
X163250000Y-113142859D01*
X163107143Y-113380954D01*
X163059524Y-113619049D01*
X163297619Y-111809525D02*
X163250000Y-111761906D01*
X163202381Y-111666668D01*
X163202381Y-111428572D01*
X163250000Y-111333334D01*
X163297619Y-111285715D01*
X163392857Y-111238096D01*
X163488095Y-111238096D01*
X163630952Y-111285715D01*
X164202381Y-111857144D01*
X164202381Y-111238096D01*
X163202381Y-110619049D02*
X163202381Y-110523810D01*
X163250000Y-110428572D01*
X163297619Y-110380953D01*
X163392857Y-110333334D01*
X163583333Y-110285715D01*
X163821429Y-110285715D01*
X164011905Y-110333334D01*
X164107143Y-110380953D01*
X164154762Y-110428572D01*
X164202381Y-110523810D01*
X164202381Y-110619049D01*
X164154762Y-110714287D01*
X164107143Y-110761906D01*
X164011905Y-110809525D01*
X163821429Y-110857144D01*
X163583333Y-110857144D01*
X163392857Y-110809525D01*
X163297619Y-110761906D01*
X163250000Y-110714287D01*
X163202381Y-110619049D01*
X164202381Y-109333334D02*
X164202381Y-109904763D01*
X164202381Y-109619049D02*
X163202381Y-109619049D01*
X163345238Y-109714287D01*
X163440476Y-109809525D01*
X163488095Y-109904763D01*
X163202381Y-108476191D02*
X163202381Y-108666668D01*
X163250000Y-108761906D01*
X163297619Y-108809525D01*
X163440476Y-108904763D01*
X163630952Y-108952382D01*
X164011905Y-108952382D01*
X164107143Y-108904763D01*
X164154762Y-108857144D01*
X164202381Y-108761906D01*
X164202381Y-108571429D01*
X164154762Y-108476191D01*
X164107143Y-108428572D01*
X164011905Y-108380953D01*
X163773810Y-108380953D01*
X163678571Y-108428572D01*
X163630952Y-108476191D01*
X163583333Y-108571429D01*
X163583333Y-108761906D01*
X163630952Y-108857144D01*
X163678571Y-108904763D01*
X163773810Y-108952382D01*
X163202381Y-106904762D02*
X163916667Y-106904762D01*
X164059524Y-106952382D01*
X164154762Y-107047620D01*
X164202381Y-107190477D01*
X164202381Y-107285715D01*
X164202381Y-106285715D02*
X164154762Y-106380953D01*
X164107143Y-106428572D01*
X164011905Y-106476191D01*
X163726190Y-106476191D01*
X163630952Y-106428572D01*
X163583333Y-106380953D01*
X163535714Y-106285715D01*
X163535714Y-106142857D01*
X163583333Y-106047619D01*
X163630952Y-106000000D01*
X163726190Y-105952381D01*
X164011905Y-105952381D01*
X164107143Y-106000000D01*
X164154762Y-106047619D01*
X164202381Y-106142857D01*
X164202381Y-106285715D01*
X164154762Y-105571429D02*
X164202381Y-105476191D01*
X164202381Y-105285715D01*
X164154762Y-105190476D01*
X164059524Y-105142857D01*
X164011905Y-105142857D01*
X163916667Y-105190476D01*
X163869048Y-105285715D01*
X163869048Y-105428572D01*
X163821429Y-105523810D01*
X163726190Y-105571429D01*
X163678571Y-105571429D01*
X163583333Y-105523810D01*
X163535714Y-105428572D01*
X163535714Y-105285715D01*
X163583333Y-105190476D01*
X164154762Y-104333333D02*
X164202381Y-104428571D01*
X164202381Y-104619048D01*
X164154762Y-104714286D01*
X164059524Y-104761905D01*
X163678571Y-104761905D01*
X163583333Y-104714286D01*
X163535714Y-104619048D01*
X163535714Y-104428571D01*
X163583333Y-104333333D01*
X163678571Y-104285714D01*
X163773810Y-104285714D01*
X163869048Y-104761905D01*
X163535714Y-104000000D02*
X163535714Y-103619048D01*
X164202381Y-103857143D02*
X163345238Y-103857143D01*
X163250000Y-103809524D01*
X163202381Y-103714286D01*
X163202381Y-103619048D01*
X164202381Y-101952380D02*
X163726190Y-102285714D01*
X164202381Y-102523809D02*
X163202381Y-102523809D01*
X163202381Y-102142856D01*
X163250000Y-102047618D01*
X163297619Y-101999999D01*
X163392857Y-101952380D01*
X163535714Y-101952380D01*
X163630952Y-101999999D01*
X163678571Y-102047618D01*
X163726190Y-102142856D01*
X163726190Y-102523809D01*
X164202381Y-101095237D02*
X163678571Y-101095237D01*
X163583333Y-101142856D01*
X163535714Y-101238094D01*
X163535714Y-101428571D01*
X163583333Y-101523809D01*
X164154762Y-101095237D02*
X164202381Y-101190475D01*
X164202381Y-101428571D01*
X164154762Y-101523809D01*
X164059524Y-101571428D01*
X163964286Y-101571428D01*
X163869048Y-101523809D01*
X163821429Y-101428571D01*
X163821429Y-101190475D01*
X163773810Y-101095237D01*
X164154762Y-100666666D02*
X164202381Y-100571428D01*
X164202381Y-100380952D01*
X164154762Y-100285713D01*
X164059524Y-100238094D01*
X164011905Y-100238094D01*
X163916667Y-100285713D01*
X163869048Y-100380952D01*
X163869048Y-100523809D01*
X163821429Y-100619047D01*
X163726190Y-100666666D01*
X163678571Y-100666666D01*
X163583333Y-100619047D01*
X163535714Y-100523809D01*
X163535714Y-100380952D01*
X163583333Y-100285713D01*
X164154762Y-99380951D02*
X164202381Y-99476189D01*
X164202381Y-99666666D01*
X164154762Y-99761904D01*
X164107143Y-99809523D01*
X164011905Y-99857142D01*
X163726190Y-99857142D01*
X163630952Y-99809523D01*
X163583333Y-99761904D01*
X163535714Y-99666666D01*
X163535714Y-99476189D01*
X163583333Y-99380951D01*
X164202381Y-98952380D02*
X163202381Y-98952380D01*
X164202381Y-98523808D02*
X163678571Y-98523808D01*
X163583333Y-98571427D01*
X163535714Y-98666665D01*
X163535714Y-98809523D01*
X163583333Y-98904761D01*
X163630952Y-98952380D01*
X164154762Y-97666665D02*
X164202381Y-97761903D01*
X164202381Y-97952380D01*
X164154762Y-98047618D01*
X164059524Y-98095237D01*
X163678571Y-98095237D01*
X163583333Y-98047618D01*
X163535714Y-97952380D01*
X163535714Y-97761903D01*
X163583333Y-97666665D01*
X163678571Y-97619046D01*
X163773810Y-97619046D01*
X163869048Y-98095237D01*
X163535714Y-97190475D02*
X164202381Y-97190475D01*
X163630952Y-97190475D02*
X163583333Y-97142856D01*
X163535714Y-97047618D01*
X163535714Y-96904760D01*
X163583333Y-96809522D01*
X163678571Y-96761903D01*
X164202381Y-96761903D01*
X165000000Y-115000000D02*
X165000000Y-97500000D01*
X125000000Y-115000000D02*
X165000000Y-115000000D01*
X125000000Y-97500000D02*
X125000000Y-115000000D01*
D12*
X161450000Y-123225000D02*
X160950000Y-123225000D01*
X160950000Y-124175000D02*
X161450000Y-124175000D01*
X143900000Y-89300000D02*
X144100000Y-89500000D01*
X144100000Y-89500000D02*
X143900000Y-89700000D01*
X143900000Y-89700000D02*
X143900000Y-90150000D01*
X147100000Y-90150000D02*
X147100000Y-88850000D01*
X143900000Y-88850000D02*
X143900000Y-89300000D01*
X135250000Y-100475000D02*
X135750000Y-100475000D01*
X135750000Y-99525000D02*
X135250000Y-99525000D01*
X138525000Y-70500000D02*
X138525000Y-72500000D01*
X141475000Y-72500000D02*
X141475000Y-70500000D01*
X143700000Y-73095000D02*
X144500000Y-72295000D01*
X144500000Y-72295000D02*
X152300000Y-72295000D01*
X152300000Y-72295000D02*
X152300000Y-77705000D01*
X152300000Y-77705000D02*
X143700000Y-77705000D01*
X143700000Y-77705000D02*
X143700000Y-73095000D01*
X134350000Y-71000000D02*
X134350000Y-70000000D01*
X132650000Y-70000000D02*
X132650000Y-71000000D01*
X129000000Y-80225000D02*
X127000000Y-80225000D01*
X127000000Y-82275000D02*
X129000000Y-82275000D01*
X135750000Y-95775000D02*
X135250000Y-95775000D01*
X135250000Y-96725000D02*
X135750000Y-96725000D01*
X135750000Y-98275000D02*
X135250000Y-98275000D01*
X135250000Y-99225000D02*
X135750000Y-99225000D01*
X132900000Y-102000000D02*
X132900000Y-103000000D01*
X134600000Y-103000000D02*
X134600000Y-102000000D01*
X126975000Y-105250000D02*
X126975000Y-104750000D01*
X126025000Y-104750000D02*
X126025000Y-105250000D01*
X135825000Y-102250000D02*
X135825000Y-102750000D01*
X136775000Y-102750000D02*
X136775000Y-102250000D01*
X155600000Y-97250000D02*
X155600000Y-96250000D01*
X153900000Y-96250000D02*
X153900000Y-97250000D01*
X152975000Y-97000000D02*
X152975000Y-96500000D01*
X152025000Y-96500000D02*
X152025000Y-97000000D01*
X141000000Y-92275000D02*
X140500000Y-92275000D01*
X140500000Y-93225000D02*
X141000000Y-93225000D01*
X147500000Y-108225000D02*
X148000000Y-108225000D01*
X148000000Y-107275000D02*
X147500000Y-107275000D01*
X141000000Y-108225000D02*
X141500000Y-108225000D01*
X141500000Y-107275000D02*
X141000000Y-107275000D01*
X156450000Y-123225000D02*
X155950000Y-123225000D01*
X155950000Y-124175000D02*
X156450000Y-124175000D01*
X141250000Y-89900000D02*
X140250000Y-89900000D01*
X140250000Y-91600000D02*
X141250000Y-91600000D01*
X148475000Y-122750000D02*
X148475000Y-122250000D01*
X147525000Y-122250000D02*
X147525000Y-122750000D01*
X145250000Y-92975000D02*
X145750000Y-92975000D01*
X145750000Y-92025000D02*
X145250000Y-92025000D01*
X143020376Y-82769710D02*
X143020376Y-82269710D01*
X142070376Y-82269710D02*
X142070376Y-82769710D01*
X156000000Y-75250000D02*
X156450000Y-75800000D01*
X156450000Y-75800000D02*
X155550000Y-75800000D01*
X155550000Y-75800000D02*
X156000000Y-75250000D01*
X156550000Y-75250000D02*
X155450000Y-75250000D01*
X154249940Y-73700860D02*
X154600460Y-73700860D01*
X157750060Y-73700860D02*
X157399540Y-73700860D01*
X154249940Y-77750440D02*
X154600460Y-77750440D01*
X154249940Y-73249560D02*
X154600460Y-73249560D01*
X157750060Y-73249560D02*
X157399540Y-73249560D01*
X157750060Y-77750440D02*
X157399540Y-77750440D01*
X154249940Y-73249560D02*
X154249940Y-77750440D01*
X157750060Y-73249560D02*
X157750060Y-77750440D01*
X147500000Y-68750000D02*
X148050000Y-68300000D01*
X148050000Y-68300000D02*
X148050000Y-69200000D01*
X148050000Y-69200000D02*
X147500000Y-68750000D01*
X147500000Y-68200000D02*
X147500000Y-69300000D01*
X145950860Y-70500060D02*
X145950860Y-70149540D01*
X145950860Y-66999940D02*
X145950860Y-67350460D01*
X150000440Y-70500060D02*
X150000440Y-70149540D01*
X145499560Y-70500060D02*
X145499560Y-70149540D01*
X145499560Y-66999940D02*
X145499560Y-67350460D01*
X150000440Y-66999940D02*
X150000440Y-67350460D01*
X145499560Y-70500060D02*
X150000440Y-70500060D01*
X145499560Y-66999940D02*
X150000440Y-66999940D01*
X136750000Y-70182500D02*
X136750000Y-69801500D01*
X136750000Y-71198500D02*
X136750000Y-70817500D01*
X136750000Y-70817500D02*
X136369000Y-70182500D01*
X136369000Y-70182500D02*
X137131000Y-70182500D01*
X137131000Y-70182500D02*
X136750000Y-70817500D01*
X136242000Y-70817500D02*
X137258000Y-70817500D01*
X137650000Y-72500000D02*
X137650000Y-68960000D01*
X135850000Y-72500000D02*
X135850000Y-68960000D01*
X168050000Y-115100000D02*
X168050000Y-113200000D01*
X166950000Y-115100000D02*
X166950000Y-113200000D01*
X167500000Y-114200000D02*
X167500000Y-113750000D01*
X167250000Y-114250000D02*
X167750000Y-114250000D01*
X167500000Y-114250000D02*
X167250000Y-114000000D01*
X167250000Y-114000000D02*
X167750000Y-114000000D01*
X167750000Y-114000000D02*
X167500000Y-114250000D01*
X168050000Y-109850700D02*
X168050000Y-107950700D01*
X166950000Y-109850700D02*
X166950000Y-107950700D01*
X167500000Y-108950700D02*
X167500000Y-108500700D01*
X167250000Y-109000700D02*
X167750000Y-109000700D01*
X167500000Y-109000700D02*
X167250000Y-108750700D01*
X167250000Y-108750700D02*
X167750000Y-108750700D01*
X167750000Y-108750700D02*
X167500000Y-109000700D01*
X126950000Y-72900000D02*
X125350000Y-72900000D01*
X126950000Y-78500000D02*
X125350000Y-78500000D01*
X154925000Y-69000000D02*
X154925000Y-67000000D01*
X157075000Y-67000000D02*
X157075000Y-69000000D01*
X139800000Y-77275000D02*
X140300000Y-77275000D01*
X140300000Y-76225000D02*
X139800000Y-76225000D01*
X132225000Y-79000000D02*
X132225000Y-79500000D01*
X133275000Y-79500000D02*
X133275000Y-79000000D01*
X134775000Y-79500000D02*
X134775000Y-79000000D01*
X133725000Y-79000000D02*
X133725000Y-79500000D01*
X126975000Y-108000000D02*
X126975000Y-108500000D01*
X128025000Y-108500000D02*
X128025000Y-108000000D01*
X128475000Y-108000000D02*
X128475000Y-108500000D01*
X129525000Y-108500000D02*
X129525000Y-108000000D01*
X166975000Y-116250000D02*
X166975000Y-116750000D01*
X168025000Y-116750000D02*
X168025000Y-116250000D01*
X166975000Y-111000000D02*
X166975000Y-111500000D01*
X168025000Y-111500000D02*
X168025000Y-111000000D01*
X154050000Y-123175000D02*
X153550000Y-123175000D01*
X153550000Y-124225000D02*
X154050000Y-124225000D01*
X143700000Y-112975000D02*
X143200000Y-112975000D01*
X143200000Y-114025000D02*
X143700000Y-114025000D01*
X146250000Y-114025000D02*
X146750000Y-114025000D01*
X146750000Y-112975000D02*
X146250000Y-112975000D01*
X158550000Y-124225000D02*
X159050000Y-124225000D01*
X159050000Y-123175000D02*
X158550000Y-123175000D01*
X140750000Y-81975000D02*
X140250000Y-81975000D01*
X140250000Y-83025000D02*
X140750000Y-83025000D01*
X144750000Y-81975000D02*
X144250000Y-81975000D01*
X144250000Y-83025000D02*
X144750000Y-83025000D01*
X128700000Y-118400000D02*
X128700000Y-121700000D01*
X131300000Y-118400000D02*
X131300000Y-121600000D01*
X130300000Y-122300000D02*
X129700000Y-122300000D01*
X129700000Y-117700000D02*
X130300000Y-117700000D01*
X156300000Y-121600000D02*
X156300000Y-118300000D01*
X153700000Y-121600000D02*
X153700000Y-118400000D01*
X154700000Y-117700000D02*
X155300000Y-117700000D01*
X155300000Y-122300000D02*
X154700000Y-122300000D01*
X161300000Y-121600000D02*
X161300000Y-118300000D01*
X158700000Y-121600000D02*
X158700000Y-118400000D01*
X159700000Y-117700000D02*
X160300000Y-117700000D01*
X160300000Y-122300000D02*
X159700000Y-122300000D01*
X135044942Y-73755844D02*
X135044942Y-74246064D01*
X135745982Y-73755844D02*
X135044942Y-73755844D01*
X135745982Y-76956244D02*
X135044942Y-76956244D01*
X127650000Y-105000000D02*
X127400000Y-104750000D01*
X127400000Y-105250000D02*
X127650000Y-105000000D01*
X139075000Y-95075000D02*
X139075000Y-96075000D01*
X149425000Y-95075000D02*
X149425000Y-96150000D01*
X149425000Y-105425000D02*
X149425000Y-104350000D01*
X139075000Y-105425000D02*
X139075000Y-104350000D01*
X139075000Y-95075000D02*
X140150000Y-95075000D01*
X139075000Y-105425000D02*
X140150000Y-105425000D01*
X149425000Y-105425000D02*
X148350000Y-105425000D01*
X149425000Y-95075000D02*
X148350000Y-95075000D01*
X139075000Y-96075000D02*
X138050000Y-96075000D01*
D13*
G36*
X155349744Y-112919918D02*
X155405201Y-112947568D01*
X155454148Y-112998480D01*
X155467629Y-113017338D01*
X155482314Y-113042015D01*
X155491842Y-113068816D01*
X155497293Y-113104587D01*
X155499747Y-113156169D01*
X155500286Y-113224267D01*
X155497852Y-113317588D01*
X155489394Y-113387657D01*
X155473174Y-113439931D01*
X155447454Y-113479869D01*
X155410497Y-113512929D01*
X155407782Y-113514886D01*
X155371360Y-113534908D01*
X155327502Y-113544815D01*
X155271724Y-113547257D01*
X155181048Y-113547257D01*
X155181010Y-113635283D01*
X155180166Y-113684308D01*
X155175024Y-113713065D01*
X155161587Y-113730311D01*
X155135858Y-113744808D01*
X155129679Y-113747769D01*
X155100764Y-113761648D01*
X155078376Y-113770414D01*
X155061729Y-113771171D01*
X155050036Y-113761023D01*
X155042510Y-113737073D01*
X155038366Y-113696426D01*
X155036815Y-113636186D01*
X155037071Y-113553455D01*
X155038349Y-113445339D01*
X155038748Y-113413000D01*
X155040185Y-113301524D01*
X155041472Y-113228603D01*
X155180971Y-113228603D01*
X155181755Y-113290499D01*
X155185240Y-113330997D01*
X155193124Y-113357708D01*
X155207105Y-113378244D01*
X155216597Y-113388260D01*
X155255404Y-113417567D01*
X155289763Y-113419952D01*
X155325216Y-113395750D01*
X155326114Y-113394857D01*
X155340539Y-113376153D01*
X155349313Y-113350732D01*
X155353739Y-113311584D01*
X155355118Y-113251697D01*
X155355143Y-113238430D01*
X155351812Y-113155901D01*
X155340969Y-113098691D01*
X155321340Y-113063766D01*
X155291650Y-113048094D01*
X155274491Y-113046514D01*
X155233766Y-113053926D01*
X155205832Y-113078330D01*
X155189017Y-113122980D01*
X155181650Y-113191130D01*
X155180971Y-113228603D01*
X155041472Y-113228603D01*
X155041708Y-113215245D01*
X155043677Y-113150333D01*
X155046450Y-113102958D01*
X155050388Y-113069290D01*
X155055849Y-113045498D01*
X155063192Y-113027753D01*
X155072777Y-113012224D01*
X155076887Y-113006381D01*
X155131405Y-112951185D01*
X155200336Y-112919890D01*
X155280072Y-112911165D01*
X155349744Y-112919918D01*
X155349744Y-112919918D01*
G37*
X155349744Y-112919918D02*
X155405201Y-112947568D01*
X155454148Y-112998480D01*
X155467629Y-113017338D01*
X155482314Y-113042015D01*
X155491842Y-113068816D01*
X155497293Y-113104587D01*
X155499747Y-113156169D01*
X155500286Y-113224267D01*
X155497852Y-113317588D01*
X155489394Y-113387657D01*
X155473174Y-113439931D01*
X155447454Y-113479869D01*
X155410497Y-113512929D01*
X155407782Y-113514886D01*
X155371360Y-113534908D01*
X155327502Y-113544815D01*
X155271724Y-113547257D01*
X155181048Y-113547257D01*
X155181010Y-113635283D01*
X155180166Y-113684308D01*
X155175024Y-113713065D01*
X155161587Y-113730311D01*
X155135858Y-113744808D01*
X155129679Y-113747769D01*
X155100764Y-113761648D01*
X155078376Y-113770414D01*
X155061729Y-113771171D01*
X155050036Y-113761023D01*
X155042510Y-113737073D01*
X155038366Y-113696426D01*
X155036815Y-113636186D01*
X155037071Y-113553455D01*
X155038349Y-113445339D01*
X155038748Y-113413000D01*
X155040185Y-113301524D01*
X155041472Y-113228603D01*
X155180971Y-113228603D01*
X155181755Y-113290499D01*
X155185240Y-113330997D01*
X155193124Y-113357708D01*
X155207105Y-113378244D01*
X155216597Y-113388260D01*
X155255404Y-113417567D01*
X155289763Y-113419952D01*
X155325216Y-113395750D01*
X155326114Y-113394857D01*
X155340539Y-113376153D01*
X155349313Y-113350732D01*
X155353739Y-113311584D01*
X155355118Y-113251697D01*
X155355143Y-113238430D01*
X155351812Y-113155901D01*
X155340969Y-113098691D01*
X155321340Y-113063766D01*
X155291650Y-113048094D01*
X155274491Y-113046514D01*
X155233766Y-113053926D01*
X155205832Y-113078330D01*
X155189017Y-113122980D01*
X155181650Y-113191130D01*
X155180971Y-113228603D01*
X155041472Y-113228603D01*
X155041708Y-113215245D01*
X155043677Y-113150333D01*
X155046450Y-113102958D01*
X155050388Y-113069290D01*
X155055849Y-113045498D01*
X155063192Y-113027753D01*
X155072777Y-113012224D01*
X155076887Y-113006381D01*
X155131405Y-112951185D01*
X155200336Y-112919890D01*
X155280072Y-112911165D01*
X155349744Y-112919918D01*
G36*
X156466093Y-112927780D02*
X156512672Y-112954723D01*
X156545057Y-112981466D01*
X156568742Y-113009484D01*
X156585059Y-113043748D01*
X156595339Y-113089227D01*
X156600914Y-113150892D01*
X156603116Y-113233711D01*
X156603371Y-113293246D01*
X156603371Y-113512391D01*
X156541686Y-113540044D01*
X156480000Y-113567697D01*
X156472743Y-113327670D01*
X156469744Y-113238028D01*
X156466598Y-113172962D01*
X156462701Y-113128026D01*
X156457447Y-113098770D01*
X156450231Y-113080748D01*
X156440450Y-113069511D01*
X156437312Y-113067079D01*
X156389761Y-113048083D01*
X156341697Y-113055600D01*
X156313086Y-113075543D01*
X156301447Y-113089675D01*
X156293391Y-113108220D01*
X156288271Y-113136334D01*
X156285441Y-113179173D01*
X156284256Y-113241895D01*
X156284057Y-113307261D01*
X156284018Y-113389268D01*
X156282614Y-113447316D01*
X156277914Y-113486465D01*
X156267987Y-113511780D01*
X156250903Y-113528323D01*
X156224732Y-113541156D01*
X156189775Y-113554491D01*
X156151596Y-113569007D01*
X156156141Y-113311389D01*
X156157971Y-113218519D01*
X156160112Y-113149889D01*
X156163181Y-113100711D01*
X156167794Y-113066198D01*
X156174568Y-113041562D01*
X156184119Y-113022016D01*
X156195634Y-113004770D01*
X156251190Y-112949680D01*
X156318980Y-112917822D01*
X156392713Y-112910191D01*
X156466093Y-112927780D01*
X156466093Y-112927780D01*
G37*
X156466093Y-112927780D02*
X156512672Y-112954723D01*
X156545057Y-112981466D01*
X156568742Y-113009484D01*
X156585059Y-113043748D01*
X156595339Y-113089227D01*
X156600914Y-113150892D01*
X156603116Y-113233711D01*
X156603371Y-113293246D01*
X156603371Y-113512391D01*
X156541686Y-113540044D01*
X156480000Y-113567697D01*
X156472743Y-113327670D01*
X156469744Y-113238028D01*
X156466598Y-113172962D01*
X156462701Y-113128026D01*
X156457447Y-113098770D01*
X156450231Y-113080748D01*
X156440450Y-113069511D01*
X156437312Y-113067079D01*
X156389761Y-113048083D01*
X156341697Y-113055600D01*
X156313086Y-113075543D01*
X156301447Y-113089675D01*
X156293391Y-113108220D01*
X156288271Y-113136334D01*
X156285441Y-113179173D01*
X156284256Y-113241895D01*
X156284057Y-113307261D01*
X156284018Y-113389268D01*
X156282614Y-113447316D01*
X156277914Y-113486465D01*
X156267987Y-113511780D01*
X156250903Y-113528323D01*
X156224732Y-113541156D01*
X156189775Y-113554491D01*
X156151596Y-113569007D01*
X156156141Y-113311389D01*
X156157971Y-113218519D01*
X156160112Y-113149889D01*
X156163181Y-113100711D01*
X156167794Y-113066198D01*
X156174568Y-113041562D01*
X156184119Y-113022016D01*
X156195634Y-113004770D01*
X156251190Y-112949680D01*
X156318980Y-112917822D01*
X156392713Y-112910191D01*
X156466093Y-112927780D01*
G36*
X154791115Y-112921962D02*
X154859145Y-112957733D01*
X154909351Y-113015301D01*
X154927185Y-113052312D01*
X154941063Y-113107882D01*
X154948167Y-113178096D01*
X154948840Y-113254727D01*
X154943427Y-113329552D01*
X154932270Y-113394342D01*
X154915714Y-113440873D01*
X154910626Y-113448887D01*
X154850355Y-113508707D01*
X154778769Y-113544535D01*
X154701092Y-113555020D01*
X154622548Y-113538810D01*
X154600689Y-113529092D01*
X154558122Y-113499143D01*
X154520763Y-113459433D01*
X154517232Y-113454397D01*
X154502881Y-113430124D01*
X154493394Y-113404178D01*
X154487790Y-113370022D01*
X154485086Y-113321119D01*
X154484299Y-113250935D01*
X154484286Y-113235200D01*
X154484322Y-113230192D01*
X154629429Y-113230192D01*
X154630273Y-113296430D01*
X154633596Y-113340386D01*
X154640583Y-113368779D01*
X154652416Y-113388325D01*
X154658457Y-113394857D01*
X154693186Y-113419680D01*
X154726903Y-113418548D01*
X154760995Y-113397016D01*
X154781329Y-113374029D01*
X154793371Y-113340478D01*
X154800134Y-113287569D01*
X154800598Y-113281399D01*
X154801752Y-113185513D01*
X154789688Y-113114299D01*
X154764570Y-113068194D01*
X154726560Y-113047635D01*
X154712992Y-113046514D01*
X154677364Y-113052152D01*
X154652994Y-113071686D01*
X154638093Y-113109042D01*
X154630875Y-113168150D01*
X154629429Y-113230192D01*
X154484322Y-113230192D01*
X154484826Y-113160413D01*
X154487096Y-113108159D01*
X154492068Y-113071949D01*
X154500713Y-113045299D01*
X154514005Y-113021722D01*
X154516943Y-113017338D01*
X154566313Y-112958249D01*
X154620109Y-112923947D01*
X154685602Y-112910331D01*
X154707842Y-112909665D01*
X154791115Y-112921962D01*
X154791115Y-112921962D01*
G37*
X154791115Y-112921962D02*
X154859145Y-112957733D01*
X154909351Y-113015301D01*
X154927185Y-113052312D01*
X154941063Y-113107882D01*
X154948167Y-113178096D01*
X154948840Y-113254727D01*
X154943427Y-113329552D01*
X154932270Y-113394342D01*
X154915714Y-113440873D01*
X154910626Y-113448887D01*
X154850355Y-113508707D01*
X154778769Y-113544535D01*
X154701092Y-113555020D01*
X154622548Y-113538810D01*
X154600689Y-113529092D01*
X154558122Y-113499143D01*
X154520763Y-113459433D01*
X154517232Y-113454397D01*
X154502881Y-113430124D01*
X154493394Y-113404178D01*
X154487790Y-113370022D01*
X154485086Y-113321119D01*
X154484299Y-113250935D01*
X154484286Y-113235200D01*
X154484322Y-113230192D01*
X154629429Y-113230192D01*
X154630273Y-113296430D01*
X154633596Y-113340386D01*
X154640583Y-113368779D01*
X154652416Y-113388325D01*
X154658457Y-113394857D01*
X154693186Y-113419680D01*
X154726903Y-113418548D01*
X154760995Y-113397016D01*
X154781329Y-113374029D01*
X154793371Y-113340478D01*
X154800134Y-113287569D01*
X154800598Y-113281399D01*
X154801752Y-113185513D01*
X154789688Y-113114299D01*
X154764570Y-113068194D01*
X154726560Y-113047635D01*
X154712992Y-113046514D01*
X154677364Y-113052152D01*
X154652994Y-113071686D01*
X154638093Y-113109042D01*
X154630875Y-113168150D01*
X154629429Y-113230192D01*
X154484322Y-113230192D01*
X154484826Y-113160413D01*
X154487096Y-113108159D01*
X154492068Y-113071949D01*
X154500713Y-113045299D01*
X154514005Y-113021722D01*
X154516943Y-113017338D01*
X154566313Y-112958249D01*
X154620109Y-112923947D01*
X154685602Y-112910331D01*
X154707842Y-112909665D01*
X154791115Y-112921962D01*
G36*
X155918303Y-112931239D02*
X155975527Y-112969735D01*
X156019749Y-113025335D01*
X156046167Y-113096086D01*
X156051510Y-113148162D01*
X156050903Y-113169893D01*
X156045822Y-113186531D01*
X156031855Y-113201437D01*
X156004589Y-113217973D01*
X155959612Y-113239498D01*
X155892511Y-113269374D01*
X155892171Y-113269524D01*
X155830407Y-113297813D01*
X155779759Y-113322933D01*
X155745404Y-113342179D01*
X155732518Y-113352848D01*
X155732514Y-113352934D01*
X155743872Y-113376166D01*
X155770431Y-113401774D01*
X155800923Y-113420221D01*
X155816370Y-113423886D01*
X155858515Y-113411212D01*
X155894808Y-113379471D01*
X155912517Y-113344572D01*
X155929552Y-113318845D01*
X155962922Y-113289546D01*
X156002149Y-113264235D01*
X156036756Y-113250471D01*
X156043993Y-113249714D01*
X156052139Y-113262160D01*
X156052630Y-113293972D01*
X156046643Y-113336866D01*
X156035357Y-113382558D01*
X156019950Y-113422761D01*
X156019171Y-113424322D01*
X155972804Y-113489062D01*
X155912711Y-113533097D01*
X155844465Y-113554711D01*
X155773638Y-113552185D01*
X155705804Y-113523804D01*
X155702788Y-113521808D01*
X155649427Y-113473448D01*
X155614340Y-113410352D01*
X155594922Y-113327387D01*
X155592316Y-113304078D01*
X155587701Y-113194055D01*
X155593233Y-113142748D01*
X155732514Y-113142748D01*
X155734324Y-113174753D01*
X155744222Y-113184093D01*
X155768898Y-113177105D01*
X155807795Y-113160587D01*
X155851275Y-113139881D01*
X155852356Y-113139333D01*
X155889209Y-113119949D01*
X155904000Y-113107013D01*
X155900353Y-113093451D01*
X155884995Y-113075632D01*
X155845923Y-113049845D01*
X155803846Y-113047950D01*
X155766103Y-113066717D01*
X155740034Y-113102915D01*
X155732514Y-113142748D01*
X155593233Y-113142748D01*
X155597194Y-113106027D01*
X155621550Y-113036212D01*
X155655456Y-112987302D01*
X155716653Y-112937878D01*
X155784063Y-112913359D01*
X155852880Y-112911797D01*
X155918303Y-112931239D01*
X155918303Y-112931239D01*
G37*
X155918303Y-112931239D02*
X155975527Y-112969735D01*
X156019749Y-113025335D01*
X156046167Y-113096086D01*
X156051510Y-113148162D01*
X156050903Y-113169893D01*
X156045822Y-113186531D01*
X156031855Y-113201437D01*
X156004589Y-113217973D01*
X155959612Y-113239498D01*
X155892511Y-113269374D01*
X155892171Y-113269524D01*
X155830407Y-113297813D01*
X155779759Y-113322933D01*
X155745404Y-113342179D01*
X155732518Y-113352848D01*
X155732514Y-113352934D01*
X155743872Y-113376166D01*
X155770431Y-113401774D01*
X155800923Y-113420221D01*
X155816370Y-113423886D01*
X155858515Y-113411212D01*
X155894808Y-113379471D01*
X155912517Y-113344572D01*
X155929552Y-113318845D01*
X155962922Y-113289546D01*
X156002149Y-113264235D01*
X156036756Y-113250471D01*
X156043993Y-113249714D01*
X156052139Y-113262160D01*
X156052630Y-113293972D01*
X156046643Y-113336866D01*
X156035357Y-113382558D01*
X156019950Y-113422761D01*
X156019171Y-113424322D01*
X155972804Y-113489062D01*
X155912711Y-113533097D01*
X155844465Y-113554711D01*
X155773638Y-113552185D01*
X155705804Y-113523804D01*
X155702788Y-113521808D01*
X155649427Y-113473448D01*
X155614340Y-113410352D01*
X155594922Y-113327387D01*
X155592316Y-113304078D01*
X155587701Y-113194055D01*
X155593233Y-113142748D01*
X155732514Y-113142748D01*
X155734324Y-113174753D01*
X155744222Y-113184093D01*
X155768898Y-113177105D01*
X155807795Y-113160587D01*
X155851275Y-113139881D01*
X155852356Y-113139333D01*
X155889209Y-113119949D01*
X155904000Y-113107013D01*
X155900353Y-113093451D01*
X155884995Y-113075632D01*
X155845923Y-113049845D01*
X155803846Y-113047950D01*
X155766103Y-113066717D01*
X155740034Y-113102915D01*
X155732514Y-113142748D01*
X155593233Y-113142748D01*
X155597194Y-113106027D01*
X155621550Y-113036212D01*
X155655456Y-112987302D01*
X155716653Y-112937878D01*
X155784063Y-112913359D01*
X155852880Y-112911797D01*
X155918303Y-112931239D01*
G36*
X157125886Y-112851289D02*
X157130139Y-112910613D01*
X157135025Y-112945572D01*
X157141795Y-112960820D01*
X157151702Y-112961015D01*
X157154914Y-112959195D01*
X157197644Y-112946015D01*
X157253227Y-112946785D01*
X157309737Y-112960333D01*
X157345082Y-112977861D01*
X157381321Y-113005861D01*
X157407813Y-113037549D01*
X157425999Y-113077813D01*
X157437322Y-113131543D01*
X157443222Y-113203626D01*
X157445143Y-113298951D01*
X157445177Y-113317237D01*
X157445200Y-113522646D01*
X157399491Y-113538580D01*
X157367027Y-113549420D01*
X157349215Y-113554468D01*
X157348691Y-113554514D01*
X157346937Y-113540828D01*
X157345444Y-113503076D01*
X157344326Y-113446224D01*
X157343697Y-113375234D01*
X157343600Y-113332073D01*
X157343398Y-113246973D01*
X157342358Y-113185981D01*
X157339831Y-113144177D01*
X157335164Y-113116642D01*
X157327707Y-113098456D01*
X157316811Y-113084698D01*
X157310007Y-113078073D01*
X157263272Y-113051375D01*
X157212272Y-113049375D01*
X157166001Y-113071955D01*
X157157444Y-113080107D01*
X157144893Y-113095436D01*
X157136188Y-113113618D01*
X157130631Y-113139909D01*
X157127526Y-113179562D01*
X157126176Y-113237832D01*
X157125886Y-113318173D01*
X157125886Y-113522646D01*
X157080177Y-113538580D01*
X157047713Y-113549420D01*
X157029901Y-113554468D01*
X157029377Y-113554514D01*
X157028037Y-113540623D01*
X157026828Y-113501439D01*
X157025801Y-113440700D01*
X157025002Y-113362141D01*
X157024481Y-113269498D01*
X157024286Y-113166509D01*
X157024286Y-112769342D01*
X157071457Y-112749444D01*
X157118629Y-112729547D01*
X157125886Y-112851289D01*
X157125886Y-112851289D01*
G37*
X157125886Y-112851289D02*
X157130139Y-112910613D01*
X157135025Y-112945572D01*
X157141795Y-112960820D01*
X157151702Y-112961015D01*
X157154914Y-112959195D01*
X157197644Y-112946015D01*
X157253227Y-112946785D01*
X157309737Y-112960333D01*
X157345082Y-112977861D01*
X157381321Y-113005861D01*
X157407813Y-113037549D01*
X157425999Y-113077813D01*
X157437322Y-113131543D01*
X157443222Y-113203626D01*
X157445143Y-113298951D01*
X157445177Y-113317237D01*
X157445200Y-113522646D01*
X157399491Y-113538580D01*
X157367027Y-113549420D01*
X157349215Y-113554468D01*
X157348691Y-113554514D01*
X157346937Y-113540828D01*
X157345444Y-113503076D01*
X157344326Y-113446224D01*
X157343697Y-113375234D01*
X157343600Y-113332073D01*
X157343398Y-113246973D01*
X157342358Y-113185981D01*
X157339831Y-113144177D01*
X157335164Y-113116642D01*
X157327707Y-113098456D01*
X157316811Y-113084698D01*
X157310007Y-113078073D01*
X157263272Y-113051375D01*
X157212272Y-113049375D01*
X157166001Y-113071955D01*
X157157444Y-113080107D01*
X157144893Y-113095436D01*
X157136188Y-113113618D01*
X157130631Y-113139909D01*
X157127526Y-113179562D01*
X157126176Y-113237832D01*
X157125886Y-113318173D01*
X157125886Y-113522646D01*
X157080177Y-113538580D01*
X157047713Y-113549420D01*
X157029901Y-113554468D01*
X157029377Y-113554514D01*
X157028037Y-113540623D01*
X157026828Y-113501439D01*
X157025801Y-113440700D01*
X157025002Y-113362141D01*
X157024481Y-113269498D01*
X157024286Y-113166509D01*
X157024286Y-112769342D01*
X157071457Y-112749444D01*
X157118629Y-112729547D01*
X157125886Y-112851289D01*
G36*
X157789744Y-112950968D02*
X157846616Y-112972087D01*
X157847267Y-112972493D01*
X157882440Y-112998380D01*
X157908407Y-113028633D01*
X157926670Y-113068058D01*
X157938732Y-113121462D01*
X157946096Y-113193651D01*
X157950264Y-113289432D01*
X157950629Y-113303078D01*
X157955876Y-113508842D01*
X157911716Y-113531678D01*
X157879763Y-113547110D01*
X157860470Y-113554423D01*
X157859578Y-113554514D01*
X157856239Y-113541022D01*
X157853587Y-113504626D01*
X157851956Y-113451452D01*
X157851600Y-113408393D01*
X157851592Y-113338641D01*
X157848403Y-113294837D01*
X157837288Y-113273944D01*
X157813501Y-113272925D01*
X157772296Y-113288741D01*
X157710086Y-113317815D01*
X157664341Y-113341963D01*
X157640813Y-113362913D01*
X157633896Y-113385747D01*
X157633886Y-113386877D01*
X157645299Y-113426212D01*
X157679092Y-113447462D01*
X157730809Y-113450539D01*
X157768061Y-113450006D01*
X157787703Y-113460735D01*
X157799952Y-113486505D01*
X157807002Y-113519337D01*
X157796842Y-113537966D01*
X157793017Y-113540632D01*
X157757001Y-113551340D01*
X157706566Y-113552856D01*
X157654626Y-113545759D01*
X157617822Y-113532788D01*
X157566938Y-113489585D01*
X157538014Y-113429446D01*
X157532286Y-113382462D01*
X157536657Y-113340082D01*
X157552475Y-113305488D01*
X157583797Y-113274763D01*
X157634678Y-113243990D01*
X157709176Y-113209252D01*
X157713714Y-113207288D01*
X157780821Y-113176287D01*
X157822232Y-113150862D01*
X157839981Y-113128014D01*
X157836107Y-113104745D01*
X157812643Y-113078056D01*
X157805627Y-113071914D01*
X157758630Y-113048100D01*
X157709933Y-113049103D01*
X157667522Y-113072451D01*
X157639384Y-113115675D01*
X157636769Y-113124160D01*
X157611308Y-113165308D01*
X157579001Y-113185128D01*
X157532286Y-113204770D01*
X157532286Y-113153950D01*
X157546496Y-113080082D01*
X157588675Y-113012327D01*
X157610624Y-112989661D01*
X157660517Y-112960569D01*
X157723967Y-112947400D01*
X157789744Y-112950968D01*
X157789744Y-112950968D01*
G37*
X157789744Y-112950968D02*
X157846616Y-112972087D01*
X157847267Y-112972493D01*
X157882440Y-112998380D01*
X157908407Y-113028633D01*
X157926670Y-113068058D01*
X157938732Y-113121462D01*
X157946096Y-113193651D01*
X157950264Y-113289432D01*
X157950629Y-113303078D01*
X157955876Y-113508842D01*
X157911716Y-113531678D01*
X157879763Y-113547110D01*
X157860470Y-113554423D01*
X157859578Y-113554514D01*
X157856239Y-113541022D01*
X157853587Y-113504626D01*
X157851956Y-113451452D01*
X157851600Y-113408393D01*
X157851592Y-113338641D01*
X157848403Y-113294837D01*
X157837288Y-113273944D01*
X157813501Y-113272925D01*
X157772296Y-113288741D01*
X157710086Y-113317815D01*
X157664341Y-113341963D01*
X157640813Y-113362913D01*
X157633896Y-113385747D01*
X157633886Y-113386877D01*
X157645299Y-113426212D01*
X157679092Y-113447462D01*
X157730809Y-113450539D01*
X157768061Y-113450006D01*
X157787703Y-113460735D01*
X157799952Y-113486505D01*
X157807002Y-113519337D01*
X157796842Y-113537966D01*
X157793017Y-113540632D01*
X157757001Y-113551340D01*
X157706566Y-113552856D01*
X157654626Y-113545759D01*
X157617822Y-113532788D01*
X157566938Y-113489585D01*
X157538014Y-113429446D01*
X157532286Y-113382462D01*
X157536657Y-113340082D01*
X157552475Y-113305488D01*
X157583797Y-113274763D01*
X157634678Y-113243990D01*
X157709176Y-113209252D01*
X157713714Y-113207288D01*
X157780821Y-113176287D01*
X157822232Y-113150862D01*
X157839981Y-113128014D01*
X157836107Y-113104745D01*
X157812643Y-113078056D01*
X157805627Y-113071914D01*
X157758630Y-113048100D01*
X157709933Y-113049103D01*
X157667522Y-113072451D01*
X157639384Y-113115675D01*
X157636769Y-113124160D01*
X157611308Y-113165308D01*
X157579001Y-113185128D01*
X157532286Y-113204770D01*
X157532286Y-113153950D01*
X157546496Y-113080082D01*
X157588675Y-113012327D01*
X157610624Y-112989661D01*
X157660517Y-112960569D01*
X157723967Y-112947400D01*
X157789744Y-112950968D01*
G36*
X158279926Y-112949755D02*
X158345858Y-112974084D01*
X158399273Y-113017117D01*
X158420164Y-113047409D01*
X158442939Y-113102994D01*
X158442466Y-113143186D01*
X158418562Y-113170217D01*
X158409717Y-113174813D01*
X158371530Y-113189144D01*
X158352028Y-113185472D01*
X158345422Y-113161407D01*
X158345086Y-113148114D01*
X158332992Y-113099210D01*
X158301471Y-113064999D01*
X158257659Y-113048476D01*
X158208695Y-113052634D01*
X158168894Y-113074227D01*
X158155450Y-113086544D01*
X158145921Y-113101487D01*
X158139485Y-113124075D01*
X158135317Y-113159328D01*
X158132597Y-113212266D01*
X158130502Y-113287907D01*
X158129960Y-113311857D01*
X158127981Y-113393790D01*
X158125731Y-113451455D01*
X158122357Y-113489608D01*
X158117006Y-113513004D01*
X158108824Y-113526398D01*
X158096959Y-113534545D01*
X158089362Y-113538144D01*
X158057102Y-113550452D01*
X158038111Y-113554514D01*
X158031836Y-113540948D01*
X158028006Y-113499934D01*
X158026600Y-113430999D01*
X158027598Y-113333669D01*
X158027908Y-113318657D01*
X158030101Y-113229859D01*
X158032693Y-113165019D01*
X158036382Y-113119067D01*
X158041864Y-113086935D01*
X158049835Y-113063553D01*
X158060993Y-113043852D01*
X158066830Y-113035410D01*
X158100296Y-112998057D01*
X158137727Y-112969003D01*
X158142309Y-112966467D01*
X158209426Y-112946443D01*
X158279926Y-112949755D01*
X158279926Y-112949755D01*
G37*
X158279926Y-112949755D02*
X158345858Y-112974084D01*
X158399273Y-113017117D01*
X158420164Y-113047409D01*
X158442939Y-113102994D01*
X158442466Y-113143186D01*
X158418562Y-113170217D01*
X158409717Y-113174813D01*
X158371530Y-113189144D01*
X158352028Y-113185472D01*
X158345422Y-113161407D01*
X158345086Y-113148114D01*
X158332992Y-113099210D01*
X158301471Y-113064999D01*
X158257659Y-113048476D01*
X158208695Y-113052634D01*
X158168894Y-113074227D01*
X158155450Y-113086544D01*
X158145921Y-113101487D01*
X158139485Y-113124075D01*
X158135317Y-113159328D01*
X158132597Y-113212266D01*
X158130502Y-113287907D01*
X158129960Y-113311857D01*
X158127981Y-113393790D01*
X158125731Y-113451455D01*
X158122357Y-113489608D01*
X158117006Y-113513004D01*
X158108824Y-113526398D01*
X158096959Y-113534545D01*
X158089362Y-113538144D01*
X158057102Y-113550452D01*
X158038111Y-113554514D01*
X158031836Y-113540948D01*
X158028006Y-113499934D01*
X158026600Y-113430999D01*
X158027598Y-113333669D01*
X158027908Y-113318657D01*
X158030101Y-113229859D01*
X158032693Y-113165019D01*
X158036382Y-113119067D01*
X158041864Y-113086935D01*
X158049835Y-113063553D01*
X158060993Y-113043852D01*
X158066830Y-113035410D01*
X158100296Y-112998057D01*
X158137727Y-112969003D01*
X158142309Y-112966467D01*
X158209426Y-112946443D01*
X158279926Y-112949755D01*
G36*
X158940117Y-113065358D02*
X158939933Y-113173837D01*
X158939219Y-113257287D01*
X158937675Y-113319704D01*
X158935001Y-113365085D01*
X158930894Y-113397429D01*
X158925055Y-113420733D01*
X158917182Y-113438995D01*
X158911221Y-113449418D01*
X158861855Y-113505945D01*
X158799264Y-113541377D01*
X158730013Y-113554090D01*
X158660668Y-113542463D01*
X158619375Y-113521568D01*
X158576025Y-113485422D01*
X158546481Y-113441276D01*
X158528655Y-113383462D01*
X158520463Y-113306313D01*
X158519302Y-113249714D01*
X158519458Y-113245647D01*
X158620857Y-113245647D01*
X158621476Y-113310550D01*
X158624314Y-113353514D01*
X158630840Y-113381622D01*
X158642523Y-113401953D01*
X158656483Y-113417288D01*
X158703365Y-113446890D01*
X158753701Y-113449419D01*
X158801276Y-113424705D01*
X158804979Y-113421356D01*
X158820783Y-113403935D01*
X158830693Y-113383209D01*
X158836058Y-113352362D01*
X158838228Y-113304577D01*
X158838571Y-113251748D01*
X158837827Y-113185381D01*
X158834748Y-113141106D01*
X158828061Y-113112009D01*
X158816496Y-113091173D01*
X158807013Y-113080107D01*
X158762960Y-113052198D01*
X158712224Y-113048843D01*
X158663796Y-113070159D01*
X158654450Y-113078073D01*
X158638540Y-113095647D01*
X158628610Y-113116587D01*
X158623278Y-113147782D01*
X158621163Y-113196122D01*
X158620857Y-113245647D01*
X158519458Y-113245647D01*
X158522810Y-113158568D01*
X158534726Y-113090086D01*
X158557135Y-113038600D01*
X158592124Y-112998443D01*
X158619375Y-112977861D01*
X158668907Y-112955625D01*
X158726316Y-112945304D01*
X158779682Y-112948067D01*
X158809543Y-112959212D01*
X158821261Y-112962383D01*
X158829037Y-112950557D01*
X158834465Y-112918866D01*
X158838571Y-112870593D01*
X158843067Y-112816829D01*
X158849313Y-112784482D01*
X158860676Y-112765985D01*
X158880528Y-112753770D01*
X158893000Y-112748362D01*
X158940171Y-112728601D01*
X158940117Y-113065358D01*
X158940117Y-113065358D01*
G37*
X158940117Y-113065358D02*
X158939933Y-113173837D01*
X158939219Y-113257287D01*
X158937675Y-113319704D01*
X158935001Y-113365085D01*
X158930894Y-113397429D01*
X158925055Y-113420733D01*
X158917182Y-113438995D01*
X158911221Y-113449418D01*
X158861855Y-113505945D01*
X158799264Y-113541377D01*
X158730013Y-113554090D01*
X158660668Y-113542463D01*
X158619375Y-113521568D01*
X158576025Y-113485422D01*
X158546481Y-113441276D01*
X158528655Y-113383462D01*
X158520463Y-113306313D01*
X158519302Y-113249714D01*
X158519458Y-113245647D01*
X158620857Y-113245647D01*
X158621476Y-113310550D01*
X158624314Y-113353514D01*
X158630840Y-113381622D01*
X158642523Y-113401953D01*
X158656483Y-113417288D01*
X158703365Y-113446890D01*
X158753701Y-113449419D01*
X158801276Y-113424705D01*
X158804979Y-113421356D01*
X158820783Y-113403935D01*
X158830693Y-113383209D01*
X158836058Y-113352362D01*
X158838228Y-113304577D01*
X158838571Y-113251748D01*
X158837827Y-113185381D01*
X158834748Y-113141106D01*
X158828061Y-113112009D01*
X158816496Y-113091173D01*
X158807013Y-113080107D01*
X158762960Y-113052198D01*
X158712224Y-113048843D01*
X158663796Y-113070159D01*
X158654450Y-113078073D01*
X158638540Y-113095647D01*
X158628610Y-113116587D01*
X158623278Y-113147782D01*
X158621163Y-113196122D01*
X158620857Y-113245647D01*
X158519458Y-113245647D01*
X158522810Y-113158568D01*
X158534726Y-113090086D01*
X158557135Y-113038600D01*
X158592124Y-112998443D01*
X158619375Y-112977861D01*
X158668907Y-112955625D01*
X158726316Y-112945304D01*
X158779682Y-112948067D01*
X158809543Y-112959212D01*
X158821261Y-112962383D01*
X158829037Y-112950557D01*
X158834465Y-112918866D01*
X158838571Y-112870593D01*
X158843067Y-112816829D01*
X158849313Y-112784482D01*
X158860676Y-112765985D01*
X158880528Y-112753770D01*
X158893000Y-112748362D01*
X158940171Y-112728601D01*
X158940117Y-113065358D01*
G36*
X159529833Y-112958663D02*
X159532048Y-112996850D01*
X159533784Y-113054886D01*
X159534899Y-113128180D01*
X159535257Y-113205055D01*
X159535257Y-113465196D01*
X159489326Y-113511127D01*
X159457675Y-113539429D01*
X159429890Y-113550893D01*
X159391915Y-113550168D01*
X159376840Y-113548321D01*
X159329726Y-113542948D01*
X159290756Y-113539869D01*
X159281257Y-113539585D01*
X159249233Y-113541445D01*
X159203432Y-113546114D01*
X159185674Y-113548321D01*
X159142057Y-113551735D01*
X159112745Y-113544320D01*
X159083680Y-113521427D01*
X159073188Y-113511127D01*
X159027257Y-113465196D01*
X159027257Y-112978602D01*
X159064226Y-112961758D01*
X159096059Y-112949282D01*
X159114683Y-112944914D01*
X159119458Y-112958718D01*
X159123921Y-112997286D01*
X159127775Y-113056356D01*
X159130722Y-113131663D01*
X159132143Y-113195286D01*
X159136114Y-113445657D01*
X159170759Y-113450556D01*
X159202268Y-113447131D01*
X159217708Y-113436041D01*
X159222023Y-113415308D01*
X159225708Y-113371145D01*
X159228469Y-113309146D01*
X159230012Y-113234909D01*
X159230235Y-113196706D01*
X159230457Y-112976783D01*
X159276166Y-112960849D01*
X159308518Y-112950015D01*
X159326115Y-112944962D01*
X159326623Y-112944914D01*
X159328388Y-112958648D01*
X159330329Y-112996730D01*
X159332282Y-113054482D01*
X159334084Y-113127227D01*
X159335343Y-113195286D01*
X159339314Y-113445657D01*
X159426400Y-113445657D01*
X159430396Y-113217240D01*
X159434392Y-112988822D01*
X159476847Y-112966868D01*
X159508192Y-112951793D01*
X159526744Y-112944951D01*
X159527279Y-112944914D01*
X159529833Y-112958663D01*
X159529833Y-112958663D01*
G37*
X159529833Y-112958663D02*
X159532048Y-112996850D01*
X159533784Y-113054886D01*
X159534899Y-113128180D01*
X159535257Y-113205055D01*
X159535257Y-113465196D01*
X159489326Y-113511127D01*
X159457675Y-113539429D01*
X159429890Y-113550893D01*
X159391915Y-113550168D01*
X159376840Y-113548321D01*
X159329726Y-113542948D01*
X159290756Y-113539869D01*
X159281257Y-113539585D01*
X159249233Y-113541445D01*
X159203432Y-113546114D01*
X159185674Y-113548321D01*
X159142057Y-113551735D01*
X159112745Y-113544320D01*
X159083680Y-113521427D01*
X159073188Y-113511127D01*
X159027257Y-113465196D01*
X159027257Y-112978602D01*
X159064226Y-112961758D01*
X159096059Y-112949282D01*
X159114683Y-112944914D01*
X159119458Y-112958718D01*
X159123921Y-112997286D01*
X159127775Y-113056356D01*
X159130722Y-113131663D01*
X159132143Y-113195286D01*
X159136114Y-113445657D01*
X159170759Y-113450556D01*
X159202268Y-113447131D01*
X159217708Y-113436041D01*
X159222023Y-113415308D01*
X159225708Y-113371145D01*
X159228469Y-113309146D01*
X159230012Y-113234909D01*
X159230235Y-113196706D01*
X159230457Y-112976783D01*
X159276166Y-112960849D01*
X159308518Y-112950015D01*
X159326115Y-112944962D01*
X159326623Y-112944914D01*
X159328388Y-112958648D01*
X159330329Y-112996730D01*
X159332282Y-113054482D01*
X159334084Y-113127227D01*
X159335343Y-113195286D01*
X159339314Y-113445657D01*
X159426400Y-113445657D01*
X159430396Y-113217240D01*
X159434392Y-112988822D01*
X159476847Y-112966868D01*
X159508192Y-112951793D01*
X159526744Y-112944951D01*
X159527279Y-112944914D01*
X159529833Y-112958663D01*
G36*
X159894876Y-112956335D02*
X159936667Y-112975344D01*
X159969469Y-112998378D01*
X159993503Y-113024133D01*
X160010097Y-113057358D01*
X160020577Y-113102800D01*
X160026271Y-113165207D01*
X160028507Y-113249327D01*
X160028743Y-113304721D01*
X160028743Y-113520826D01*
X159991774Y-113537670D01*
X159962656Y-113549981D01*
X159948231Y-113554514D01*
X159945472Y-113541025D01*
X159943282Y-113504653D01*
X159941942Y-113451542D01*
X159941657Y-113409372D01*
X159940434Y-113348447D01*
X159937136Y-113300115D01*
X159932321Y-113270518D01*
X159928496Y-113264229D01*
X159902783Y-113270652D01*
X159862418Y-113287125D01*
X159815679Y-113309458D01*
X159770845Y-113333457D01*
X159736193Y-113354930D01*
X159720002Y-113369685D01*
X159719938Y-113369845D01*
X159721330Y-113397152D01*
X159733818Y-113423219D01*
X159755743Y-113444392D01*
X159787743Y-113451474D01*
X159815092Y-113450649D01*
X159853826Y-113450042D01*
X159874158Y-113459116D01*
X159886369Y-113483092D01*
X159887909Y-113487613D01*
X159893203Y-113521806D01*
X159879047Y-113542568D01*
X159842148Y-113552462D01*
X159802289Y-113554292D01*
X159730562Y-113540727D01*
X159693432Y-113521355D01*
X159647576Y-113475845D01*
X159623256Y-113419983D01*
X159621073Y-113360957D01*
X159641629Y-113305953D01*
X159672549Y-113271486D01*
X159703420Y-113252189D01*
X159751942Y-113227759D01*
X159808485Y-113202985D01*
X159817910Y-113199199D01*
X159880019Y-113171791D01*
X159915822Y-113147634D01*
X159927337Y-113123619D01*
X159916580Y-113096635D01*
X159898114Y-113075543D01*
X159854469Y-113049572D01*
X159806446Y-113047624D01*
X159762406Y-113067637D01*
X159730709Y-113107551D01*
X159726549Y-113117848D01*
X159702327Y-113155724D01*
X159666965Y-113183842D01*
X159622343Y-113206917D01*
X159622343Y-113141485D01*
X159624969Y-113101506D01*
X159636230Y-113069997D01*
X159661199Y-113036378D01*
X159685169Y-113010484D01*
X159722441Y-112973817D01*
X159751401Y-112954121D01*
X159782505Y-112946220D01*
X159817713Y-112944914D01*
X159894876Y-112956335D01*
X159894876Y-112956335D01*
G37*
X159894876Y-112956335D02*
X159936667Y-112975344D01*
X159969469Y-112998378D01*
X159993503Y-113024133D01*
X160010097Y-113057358D01*
X160020577Y-113102800D01*
X160026271Y-113165207D01*
X160028507Y-113249327D01*
X160028743Y-113304721D01*
X160028743Y-113520826D01*
X159991774Y-113537670D01*
X159962656Y-113549981D01*
X159948231Y-113554514D01*
X159945472Y-113541025D01*
X159943282Y-113504653D01*
X159941942Y-113451542D01*
X159941657Y-113409372D01*
X159940434Y-113348447D01*
X159937136Y-113300115D01*
X159932321Y-113270518D01*
X159928496Y-113264229D01*
X159902783Y-113270652D01*
X159862418Y-113287125D01*
X159815679Y-113309458D01*
X159770845Y-113333457D01*
X159736193Y-113354930D01*
X159720002Y-113369685D01*
X159719938Y-113369845D01*
X159721330Y-113397152D01*
X159733818Y-113423219D01*
X159755743Y-113444392D01*
X159787743Y-113451474D01*
X159815092Y-113450649D01*
X159853826Y-113450042D01*
X159874158Y-113459116D01*
X159886369Y-113483092D01*
X159887909Y-113487613D01*
X159893203Y-113521806D01*
X159879047Y-113542568D01*
X159842148Y-113552462D01*
X159802289Y-113554292D01*
X159730562Y-113540727D01*
X159693432Y-113521355D01*
X159647576Y-113475845D01*
X159623256Y-113419983D01*
X159621073Y-113360957D01*
X159641629Y-113305953D01*
X159672549Y-113271486D01*
X159703420Y-113252189D01*
X159751942Y-113227759D01*
X159808485Y-113202985D01*
X159817910Y-113199199D01*
X159880019Y-113171791D01*
X159915822Y-113147634D01*
X159927337Y-113123619D01*
X159916580Y-113096635D01*
X159898114Y-113075543D01*
X159854469Y-113049572D01*
X159806446Y-113047624D01*
X159762406Y-113067637D01*
X159730709Y-113107551D01*
X159726549Y-113117848D01*
X159702327Y-113155724D01*
X159666965Y-113183842D01*
X159622343Y-113206917D01*
X159622343Y-113141485D01*
X159624969Y-113101506D01*
X159636230Y-113069997D01*
X159661199Y-113036378D01*
X159685169Y-113010484D01*
X159722441Y-112973817D01*
X159751401Y-112954121D01*
X159782505Y-112946220D01*
X159817713Y-112944914D01*
X159894876Y-112956335D01*
G36*
X160402600Y-112958752D02*
X160419948Y-112966334D01*
X160461356Y-112999128D01*
X160496765Y-113046547D01*
X160518664Y-113097151D01*
X160522229Y-113122098D01*
X160510279Y-113156927D01*
X160484067Y-113175357D01*
X160455964Y-113186516D01*
X160443095Y-113188572D01*
X160436829Y-113173649D01*
X160424456Y-113141175D01*
X160419028Y-113126502D01*
X160388590Y-113075744D01*
X160344520Y-113050427D01*
X160288010Y-113051206D01*
X160283825Y-113052203D01*
X160253655Y-113066507D01*
X160231476Y-113094393D01*
X160216327Y-113139287D01*
X160207250Y-113204615D01*
X160203286Y-113293804D01*
X160202914Y-113341261D01*
X160202730Y-113416071D01*
X160201522Y-113467069D01*
X160198309Y-113499471D01*
X160192109Y-113518495D01*
X160181940Y-113529356D01*
X160166819Y-113537272D01*
X160165946Y-113537670D01*
X160136828Y-113549981D01*
X160122403Y-113554514D01*
X160120186Y-113540809D01*
X160118289Y-113502925D01*
X160116847Y-113445715D01*
X160115998Y-113374027D01*
X160115829Y-113321565D01*
X160116692Y-113220047D01*
X160120070Y-113143032D01*
X160127142Y-113086023D01*
X160139088Y-113044526D01*
X160157090Y-113014043D01*
X160182327Y-112990080D01*
X160207247Y-112973355D01*
X160267171Y-112951097D01*
X160336911Y-112946076D01*
X160402600Y-112958752D01*
X160402600Y-112958752D01*
G37*
X160402600Y-112958752D02*
X160419948Y-112966334D01*
X160461356Y-112999128D01*
X160496765Y-113046547D01*
X160518664Y-113097151D01*
X160522229Y-113122098D01*
X160510279Y-113156927D01*
X160484067Y-113175357D01*
X160455964Y-113186516D01*
X160443095Y-113188572D01*
X160436829Y-113173649D01*
X160424456Y-113141175D01*
X160419028Y-113126502D01*
X160388590Y-113075744D01*
X160344520Y-113050427D01*
X160288010Y-113051206D01*
X160283825Y-113052203D01*
X160253655Y-113066507D01*
X160231476Y-113094393D01*
X160216327Y-113139287D01*
X160207250Y-113204615D01*
X160203286Y-113293804D01*
X160202914Y-113341261D01*
X160202730Y-113416071D01*
X160201522Y-113467069D01*
X160198309Y-113499471D01*
X160192109Y-113518495D01*
X160181940Y-113529356D01*
X160166819Y-113537272D01*
X160165946Y-113537670D01*
X160136828Y-113549981D01*
X160122403Y-113554514D01*
X160120186Y-113540809D01*
X160118289Y-113502925D01*
X160116847Y-113445715D01*
X160115998Y-113374027D01*
X160115829Y-113321565D01*
X160116692Y-113220047D01*
X160120070Y-113143032D01*
X160127142Y-113086023D01*
X160139088Y-113044526D01*
X160157090Y-113014043D01*
X160182327Y-112990080D01*
X160207247Y-112973355D01*
X160267171Y-112951097D01*
X160336911Y-112946076D01*
X160402600Y-112958752D01*
G36*
X160903595Y-112966966D02*
X160961021Y-113004497D01*
X160988719Y-113038096D01*
X161010662Y-113099064D01*
X161012405Y-113147308D01*
X161008457Y-113211816D01*
X160859686Y-113276934D01*
X160787349Y-113310202D01*
X160740084Y-113336964D01*
X160715507Y-113360144D01*
X160711237Y-113382667D01*
X160724889Y-113407455D01*
X160739943Y-113423886D01*
X160783746Y-113450235D01*
X160831389Y-113452081D01*
X160875145Y-113431546D01*
X160907289Y-113390752D01*
X160913038Y-113376347D01*
X160940576Y-113331356D01*
X160972258Y-113312182D01*
X161015714Y-113295779D01*
X161015714Y-113357966D01*
X161011872Y-113400283D01*
X160996823Y-113435969D01*
X160965280Y-113476943D01*
X160960592Y-113482267D01*
X160925506Y-113518720D01*
X160895347Y-113538283D01*
X160857615Y-113547283D01*
X160826335Y-113550230D01*
X160770385Y-113550965D01*
X160730555Y-113541660D01*
X160705708Y-113527846D01*
X160666656Y-113497467D01*
X160639625Y-113464613D01*
X160622517Y-113423294D01*
X160613238Y-113367521D01*
X160609693Y-113291305D01*
X160609410Y-113252622D01*
X160610372Y-113206247D01*
X160698007Y-113206247D01*
X160699023Y-113231126D01*
X160701556Y-113235200D01*
X160718274Y-113229665D01*
X160754249Y-113215017D01*
X160802331Y-113194190D01*
X160812386Y-113189714D01*
X160873152Y-113158814D01*
X160906632Y-113131657D01*
X160913990Y-113106220D01*
X160896391Y-113080481D01*
X160881856Y-113069109D01*
X160829410Y-113046364D01*
X160780322Y-113050122D01*
X160739227Y-113077884D01*
X160710758Y-113127152D01*
X160701631Y-113166257D01*
X160698007Y-113206247D01*
X160610372Y-113206247D01*
X160611285Y-113162249D01*
X160618196Y-113095384D01*
X160631884Y-113046695D01*
X160654096Y-113010849D01*
X160686574Y-112982513D01*
X160700733Y-112973355D01*
X160765053Y-112949507D01*
X160835473Y-112948006D01*
X160903595Y-112966966D01*
X160903595Y-112966966D01*
G37*
X160903595Y-112966966D02*
X160961021Y-113004497D01*
X160988719Y-113038096D01*
X161010662Y-113099064D01*
X161012405Y-113147308D01*
X161008457Y-113211816D01*
X160859686Y-113276934D01*
X160787349Y-113310202D01*
X160740084Y-113336964D01*
X160715507Y-113360144D01*
X160711237Y-113382667D01*
X160724889Y-113407455D01*
X160739943Y-113423886D01*
X160783746Y-113450235D01*
X160831389Y-113452081D01*
X160875145Y-113431546D01*
X160907289Y-113390752D01*
X160913038Y-113376347D01*
X160940576Y-113331356D01*
X160972258Y-113312182D01*
X161015714Y-113295779D01*
X161015714Y-113357966D01*
X161011872Y-113400283D01*
X160996823Y-113435969D01*
X160965280Y-113476943D01*
X160960592Y-113482267D01*
X160925506Y-113518720D01*
X160895347Y-113538283D01*
X160857615Y-113547283D01*
X160826335Y-113550230D01*
X160770385Y-113550965D01*
X160730555Y-113541660D01*
X160705708Y-113527846D01*
X160666656Y-113497467D01*
X160639625Y-113464613D01*
X160622517Y-113423294D01*
X160613238Y-113367521D01*
X160609693Y-113291305D01*
X160609410Y-113252622D01*
X160610372Y-113206247D01*
X160698007Y-113206247D01*
X160699023Y-113231126D01*
X160701556Y-113235200D01*
X160718274Y-113229665D01*
X160754249Y-113215017D01*
X160802331Y-113194190D01*
X160812386Y-113189714D01*
X160873152Y-113158814D01*
X160906632Y-113131657D01*
X160913990Y-113106220D01*
X160896391Y-113080481D01*
X160881856Y-113069109D01*
X160829410Y-113046364D01*
X160780322Y-113050122D01*
X160739227Y-113077884D01*
X160710758Y-113127152D01*
X160701631Y-113166257D01*
X160698007Y-113206247D01*
X160610372Y-113206247D01*
X160611285Y-113162249D01*
X160618196Y-113095384D01*
X160631884Y-113046695D01*
X160654096Y-113010849D01*
X160686574Y-112982513D01*
X160700733Y-112973355D01*
X160765053Y-112949507D01*
X160835473Y-112948006D01*
X160903595Y-112966966D01*
G36*
X157853910Y-108242348D02*
X157932454Y-108242778D01*
X157989298Y-108243942D01*
X158028105Y-108246207D01*
X158052538Y-108249940D01*
X158066262Y-108255506D01*
X158072940Y-108263273D01*
X158076236Y-108273605D01*
X158076556Y-108274943D01*
X158081562Y-108299079D01*
X158090829Y-108346701D01*
X158103392Y-108412741D01*
X158118287Y-108492128D01*
X158134551Y-108579796D01*
X158135119Y-108582875D01*
X158151410Y-108668789D01*
X158166652Y-108744696D01*
X158179861Y-108806045D01*
X158190054Y-108848282D01*
X158196248Y-108866855D01*
X158196543Y-108867184D01*
X158214788Y-108876253D01*
X158252405Y-108891367D01*
X158301271Y-108909262D01*
X158301543Y-108909358D01*
X158363093Y-108932493D01*
X158435657Y-108961965D01*
X158504057Y-108991597D01*
X158507294Y-108993062D01*
X158618702Y-109043626D01*
X158865399Y-108875160D01*
X158941077Y-108823803D01*
X159009631Y-108777889D01*
X159067088Y-108740030D01*
X159109476Y-108712837D01*
X159132825Y-108698921D01*
X159135042Y-108697889D01*
X159152010Y-108702484D01*
X159183701Y-108724655D01*
X159231352Y-108765447D01*
X159296198Y-108825905D01*
X159362397Y-108890227D01*
X159426214Y-108953612D01*
X159483329Y-109011451D01*
X159530305Y-109060175D01*
X159563703Y-109096210D01*
X159580085Y-109115984D01*
X159580694Y-109117002D01*
X159582505Y-109130572D01*
X159575683Y-109152733D01*
X159558540Y-109186478D01*
X159529393Y-109234800D01*
X159486555Y-109300692D01*
X159429448Y-109385517D01*
X159378766Y-109460177D01*
X159333461Y-109527140D01*
X159296150Y-109582516D01*
X159269452Y-109622420D01*
X159255985Y-109642962D01*
X159255137Y-109644356D01*
X159256781Y-109664038D01*
X159269245Y-109702293D01*
X159290048Y-109751889D01*
X159297462Y-109767728D01*
X159329814Y-109838290D01*
X159364328Y-109918353D01*
X159392365Y-109987629D01*
X159412568Y-110039045D01*
X159428615Y-110078119D01*
X159437888Y-110098541D01*
X159439041Y-110100114D01*
X159456096Y-110102721D01*
X159496298Y-110109863D01*
X159554302Y-110120523D01*
X159624763Y-110133685D01*
X159702335Y-110148333D01*
X159781672Y-110163449D01*
X159857431Y-110178018D01*
X159924264Y-110191022D01*
X159976828Y-110201445D01*
X160009776Y-110208270D01*
X160017857Y-110210199D01*
X160026205Y-110214962D01*
X160032506Y-110225718D01*
X160037045Y-110246098D01*
X160040104Y-110279734D01*
X160041967Y-110330255D01*
X160042918Y-110401292D01*
X160043240Y-110496476D01*
X160043257Y-110535492D01*
X160043257Y-110852799D01*
X159967057Y-110867839D01*
X159924663Y-110875995D01*
X159861400Y-110887899D01*
X159784962Y-110902116D01*
X159703043Y-110917210D01*
X159680400Y-110921355D01*
X159604806Y-110936053D01*
X159538953Y-110950505D01*
X159488366Y-110963375D01*
X159458574Y-110973322D01*
X159453612Y-110976287D01*
X159441426Y-110997283D01*
X159423953Y-111037967D01*
X159404577Y-111090322D01*
X159400734Y-111101600D01*
X159375339Y-111171523D01*
X159343817Y-111250418D01*
X159312969Y-111321266D01*
X159312817Y-111321595D01*
X159261447Y-111432733D01*
X159430399Y-111681253D01*
X159599352Y-111929772D01*
X159382429Y-112147058D01*
X159316819Y-112211726D01*
X159256979Y-112268733D01*
X159206267Y-112315033D01*
X159168046Y-112347584D01*
X159145675Y-112363343D01*
X159142466Y-112364343D01*
X159123626Y-112356469D01*
X159085180Y-112334578D01*
X159031330Y-112301267D01*
X158966276Y-112259131D01*
X158895940Y-112211943D01*
X158824555Y-112163810D01*
X158760908Y-112121928D01*
X158709041Y-112088871D01*
X158672995Y-112067218D01*
X158656867Y-112059543D01*
X158637189Y-112066037D01*
X158599875Y-112083150D01*
X158552621Y-112107326D01*
X158547612Y-112110013D01*
X158483977Y-112141927D01*
X158440341Y-112157579D01*
X158413202Y-112157745D01*
X158399057Y-112143204D01*
X158398975Y-112143000D01*
X158391905Y-112125779D01*
X158375042Y-112084899D01*
X158349695Y-112023525D01*
X158317171Y-111944819D01*
X158278778Y-111851947D01*
X158235822Y-111748072D01*
X158194222Y-111647502D01*
X158148504Y-111536516D01*
X158106526Y-111433703D01*
X158069548Y-111342215D01*
X158038827Y-111265201D01*
X158015622Y-111205815D01*
X158001190Y-111167209D01*
X157996743Y-111152800D01*
X158007896Y-111136272D01*
X158037069Y-111109930D01*
X158075971Y-111080887D01*
X158186757Y-110989039D01*
X158273351Y-110883759D01*
X158334716Y-110767266D01*
X158369815Y-110641776D01*
X158377608Y-110509507D01*
X158371943Y-110448457D01*
X158341078Y-110321795D01*
X158287920Y-110209941D01*
X158215767Y-110114001D01*
X158127917Y-110035076D01*
X158027665Y-109974270D01*
X157918310Y-109932687D01*
X157803147Y-109911428D01*
X157685475Y-109911599D01*
X157568590Y-109934301D01*
X157455789Y-109980638D01*
X157350369Y-110051713D01*
X157306368Y-110091911D01*
X157221979Y-110195129D01*
X157163222Y-110307925D01*
X157129704Y-110427010D01*
X157121035Y-110549095D01*
X157136823Y-110670893D01*
X157176678Y-110789116D01*
X157240207Y-110900475D01*
X157327021Y-111001684D01*
X157424029Y-111080887D01*
X157464437Y-111111162D01*
X157492982Y-111137219D01*
X157503257Y-111152825D01*
X157497877Y-111169843D01*
X157482575Y-111210500D01*
X157458612Y-111271642D01*
X157427244Y-111350119D01*
X157389732Y-111442780D01*
X157347333Y-111546472D01*
X157305663Y-111647526D01*
X157259690Y-111758607D01*
X157217107Y-111861541D01*
X157179221Y-111953165D01*
X157147340Y-112030316D01*
X157122771Y-112089831D01*
X157106820Y-112128544D01*
X157100910Y-112143000D01*
X157086948Y-112157685D01*
X157059940Y-112157642D01*
X157016413Y-112142099D01*
X156952890Y-112110284D01*
X156952388Y-112110013D01*
X156904560Y-112085323D01*
X156865897Y-112067338D01*
X156844095Y-112059614D01*
X156843133Y-112059543D01*
X156826721Y-112067378D01*
X156790487Y-112089165D01*
X156738474Y-112122328D01*
X156674725Y-112164291D01*
X156604060Y-112211943D01*
X156532116Y-112260191D01*
X156467274Y-112302151D01*
X156413735Y-112335227D01*
X156375697Y-112356821D01*
X156357533Y-112364343D01*
X156340808Y-112354457D01*
X156307180Y-112326826D01*
X156260010Y-112284495D01*
X156202658Y-112230505D01*
X156138484Y-112167899D01*
X156117497Y-112146983D01*
X155900499Y-111929623D01*
X156065668Y-111687220D01*
X156115864Y-111612781D01*
X156159919Y-111545972D01*
X156195362Y-111490665D01*
X156219719Y-111450729D01*
X156230522Y-111430036D01*
X156230838Y-111428563D01*
X156225143Y-111409058D01*
X156209826Y-111369822D01*
X156187537Y-111317430D01*
X156171893Y-111282355D01*
X156142641Y-111215201D01*
X156115094Y-111147358D01*
X156093737Y-111090034D01*
X156087935Y-111072572D01*
X156071452Y-111025938D01*
X156055340Y-110989905D01*
X156046490Y-110976287D01*
X156026960Y-110967952D01*
X155984334Y-110956137D01*
X155924145Y-110942181D01*
X155851922Y-110927422D01*
X155819600Y-110921355D01*
X155737522Y-110906273D01*
X155658795Y-110891669D01*
X155591109Y-110878980D01*
X155542160Y-110869642D01*
X155532943Y-110867839D01*
X155456743Y-110852799D01*
X155456743Y-110535492D01*
X155456914Y-110431154D01*
X155457616Y-110352213D01*
X155459134Y-110295038D01*
X155461749Y-110255999D01*
X155465746Y-110231465D01*
X155471409Y-110217805D01*
X155479020Y-110211389D01*
X155482143Y-110210199D01*
X155500978Y-110205980D01*
X155542588Y-110197562D01*
X155601630Y-110185961D01*
X155672757Y-110172195D01*
X155750625Y-110157280D01*
X155829887Y-110142232D01*
X155905198Y-110128069D01*
X155971213Y-110115806D01*
X156022587Y-110106461D01*
X156053975Y-110101050D01*
X156060959Y-110100114D01*
X156067285Y-110087596D01*
X156081290Y-110054246D01*
X156100355Y-110006377D01*
X156107634Y-109987629D01*
X156136996Y-109915195D01*
X156171571Y-109835170D01*
X156202537Y-109767728D01*
X156225323Y-109716159D01*
X156240482Y-109673785D01*
X156245542Y-109647834D01*
X156244736Y-109644356D01*
X156234041Y-109627936D01*
X156209620Y-109591417D01*
X156174095Y-109538687D01*
X156130087Y-109473635D01*
X156080217Y-109400151D01*
X156070356Y-109385645D01*
X156012492Y-109299704D01*
X155969956Y-109234261D01*
X155941054Y-109186304D01*
X155924090Y-109152820D01*
X155917367Y-109130795D01*
X155919190Y-109117217D01*
X155919236Y-109117131D01*
X155933586Y-109099297D01*
X155965323Y-109064817D01*
X156011010Y-109017268D01*
X156067204Y-108960222D01*
X156130468Y-108897255D01*
X156137602Y-108890227D01*
X156217330Y-108813020D01*
X156278857Y-108756330D01*
X156323421Y-108719110D01*
X156352257Y-108700315D01*
X156364958Y-108697889D01*
X156383494Y-108708471D01*
X156421961Y-108732916D01*
X156476386Y-108768612D01*
X156542798Y-108812947D01*
X156617225Y-108863311D01*
X156634601Y-108875160D01*
X156881297Y-109043626D01*
X156992706Y-108993062D01*
X157060457Y-108963595D01*
X157133183Y-108933959D01*
X157195703Y-108910330D01*
X157198457Y-108909358D01*
X157247360Y-108891457D01*
X157285057Y-108876320D01*
X157303425Y-108867210D01*
X157303456Y-108867184D01*
X157309285Y-108850717D01*
X157319192Y-108810219D01*
X157332195Y-108750242D01*
X157347309Y-108675340D01*
X157363552Y-108590064D01*
X157364881Y-108582875D01*
X157381175Y-108495014D01*
X157396133Y-108415260D01*
X157408791Y-108348681D01*
X157418186Y-108300347D01*
X157423354Y-108275325D01*
X157423444Y-108274943D01*
X157426589Y-108264299D01*
X157432704Y-108256262D01*
X157445453Y-108250467D01*
X157468500Y-108246547D01*
X157505509Y-108244135D01*
X157560144Y-108242865D01*
X157636067Y-108242371D01*
X157736944Y-108242286D01*
X157750000Y-108242286D01*
X157853910Y-108242348D01*
X157853910Y-108242348D01*
G37*
X157853910Y-108242348D02*
X157932454Y-108242778D01*
X157989298Y-108243942D01*
X158028105Y-108246207D01*
X158052538Y-108249940D01*
X158066262Y-108255506D01*
X158072940Y-108263273D01*
X158076236Y-108273605D01*
X158076556Y-108274943D01*
X158081562Y-108299079D01*
X158090829Y-108346701D01*
X158103392Y-108412741D01*
X158118287Y-108492128D01*
X158134551Y-108579796D01*
X158135119Y-108582875D01*
X158151410Y-108668789D01*
X158166652Y-108744696D01*
X158179861Y-108806045D01*
X158190054Y-108848282D01*
X158196248Y-108866855D01*
X158196543Y-108867184D01*
X158214788Y-108876253D01*
X158252405Y-108891367D01*
X158301271Y-108909262D01*
X158301543Y-108909358D01*
X158363093Y-108932493D01*
X158435657Y-108961965D01*
X158504057Y-108991597D01*
X158507294Y-108993062D01*
X158618702Y-109043626D01*
X158865399Y-108875160D01*
X158941077Y-108823803D01*
X159009631Y-108777889D01*
X159067088Y-108740030D01*
X159109476Y-108712837D01*
X159132825Y-108698921D01*
X159135042Y-108697889D01*
X159152010Y-108702484D01*
X159183701Y-108724655D01*
X159231352Y-108765447D01*
X159296198Y-108825905D01*
X159362397Y-108890227D01*
X159426214Y-108953612D01*
X159483329Y-109011451D01*
X159530305Y-109060175D01*
X159563703Y-109096210D01*
X159580085Y-109115984D01*
X159580694Y-109117002D01*
X159582505Y-109130572D01*
X159575683Y-109152733D01*
X159558540Y-109186478D01*
X159529393Y-109234800D01*
X159486555Y-109300692D01*
X159429448Y-109385517D01*
X159378766Y-109460177D01*
X159333461Y-109527140D01*
X159296150Y-109582516D01*
X159269452Y-109622420D01*
X159255985Y-109642962D01*
X159255137Y-109644356D01*
X159256781Y-109664038D01*
X159269245Y-109702293D01*
X159290048Y-109751889D01*
X159297462Y-109767728D01*
X159329814Y-109838290D01*
X159364328Y-109918353D01*
X159392365Y-109987629D01*
X159412568Y-110039045D01*
X159428615Y-110078119D01*
X159437888Y-110098541D01*
X159439041Y-110100114D01*
X159456096Y-110102721D01*
X159496298Y-110109863D01*
X159554302Y-110120523D01*
X159624763Y-110133685D01*
X159702335Y-110148333D01*
X159781672Y-110163449D01*
X159857431Y-110178018D01*
X159924264Y-110191022D01*
X159976828Y-110201445D01*
X160009776Y-110208270D01*
X160017857Y-110210199D01*
X160026205Y-110214962D01*
X160032506Y-110225718D01*
X160037045Y-110246098D01*
X160040104Y-110279734D01*
X160041967Y-110330255D01*
X160042918Y-110401292D01*
X160043240Y-110496476D01*
X160043257Y-110535492D01*
X160043257Y-110852799D01*
X159967057Y-110867839D01*
X159924663Y-110875995D01*
X159861400Y-110887899D01*
X159784962Y-110902116D01*
X159703043Y-110917210D01*
X159680400Y-110921355D01*
X159604806Y-110936053D01*
X159538953Y-110950505D01*
X159488366Y-110963375D01*
X159458574Y-110973322D01*
X159453612Y-110976287D01*
X159441426Y-110997283D01*
X159423953Y-111037967D01*
X159404577Y-111090322D01*
X159400734Y-111101600D01*
X159375339Y-111171523D01*
X159343817Y-111250418D01*
X159312969Y-111321266D01*
X159312817Y-111321595D01*
X159261447Y-111432733D01*
X159430399Y-111681253D01*
X159599352Y-111929772D01*
X159382429Y-112147058D01*
X159316819Y-112211726D01*
X159256979Y-112268733D01*
X159206267Y-112315033D01*
X159168046Y-112347584D01*
X159145675Y-112363343D01*
X159142466Y-112364343D01*
X159123626Y-112356469D01*
X159085180Y-112334578D01*
X159031330Y-112301267D01*
X158966276Y-112259131D01*
X158895940Y-112211943D01*
X158824555Y-112163810D01*
X158760908Y-112121928D01*
X158709041Y-112088871D01*
X158672995Y-112067218D01*
X158656867Y-112059543D01*
X158637189Y-112066037D01*
X158599875Y-112083150D01*
X158552621Y-112107326D01*
X158547612Y-112110013D01*
X158483977Y-112141927D01*
X158440341Y-112157579D01*
X158413202Y-112157745D01*
X158399057Y-112143204D01*
X158398975Y-112143000D01*
X158391905Y-112125779D01*
X158375042Y-112084899D01*
X158349695Y-112023525D01*
X158317171Y-111944819D01*
X158278778Y-111851947D01*
X158235822Y-111748072D01*
X158194222Y-111647502D01*
X158148504Y-111536516D01*
X158106526Y-111433703D01*
X158069548Y-111342215D01*
X158038827Y-111265201D01*
X158015622Y-111205815D01*
X158001190Y-111167209D01*
X157996743Y-111152800D01*
X158007896Y-111136272D01*
X158037069Y-111109930D01*
X158075971Y-111080887D01*
X158186757Y-110989039D01*
X158273351Y-110883759D01*
X158334716Y-110767266D01*
X158369815Y-110641776D01*
X158377608Y-110509507D01*
X158371943Y-110448457D01*
X158341078Y-110321795D01*
X158287920Y-110209941D01*
X158215767Y-110114001D01*
X158127917Y-110035076D01*
X158027665Y-109974270D01*
X157918310Y-109932687D01*
X157803147Y-109911428D01*
X157685475Y-109911599D01*
X157568590Y-109934301D01*
X157455789Y-109980638D01*
X157350369Y-110051713D01*
X157306368Y-110091911D01*
X157221979Y-110195129D01*
X157163222Y-110307925D01*
X157129704Y-110427010D01*
X157121035Y-110549095D01*
X157136823Y-110670893D01*
X157176678Y-110789116D01*
X157240207Y-110900475D01*
X157327021Y-111001684D01*
X157424029Y-111080887D01*
X157464437Y-111111162D01*
X157492982Y-111137219D01*
X157503257Y-111152825D01*
X157497877Y-111169843D01*
X157482575Y-111210500D01*
X157458612Y-111271642D01*
X157427244Y-111350119D01*
X157389732Y-111442780D01*
X157347333Y-111546472D01*
X157305663Y-111647526D01*
X157259690Y-111758607D01*
X157217107Y-111861541D01*
X157179221Y-111953165D01*
X157147340Y-112030316D01*
X157122771Y-112089831D01*
X157106820Y-112128544D01*
X157100910Y-112143000D01*
X157086948Y-112157685D01*
X157059940Y-112157642D01*
X157016413Y-112142099D01*
X156952890Y-112110284D01*
X156952388Y-112110013D01*
X156904560Y-112085323D01*
X156865897Y-112067338D01*
X156844095Y-112059614D01*
X156843133Y-112059543D01*
X156826721Y-112067378D01*
X156790487Y-112089165D01*
X156738474Y-112122328D01*
X156674725Y-112164291D01*
X156604060Y-112211943D01*
X156532116Y-112260191D01*
X156467274Y-112302151D01*
X156413735Y-112335227D01*
X156375697Y-112356821D01*
X156357533Y-112364343D01*
X156340808Y-112354457D01*
X156307180Y-112326826D01*
X156260010Y-112284495D01*
X156202658Y-112230505D01*
X156138484Y-112167899D01*
X156117497Y-112146983D01*
X155900499Y-111929623D01*
X156065668Y-111687220D01*
X156115864Y-111612781D01*
X156159919Y-111545972D01*
X156195362Y-111490665D01*
X156219719Y-111450729D01*
X156230522Y-111430036D01*
X156230838Y-111428563D01*
X156225143Y-111409058D01*
X156209826Y-111369822D01*
X156187537Y-111317430D01*
X156171893Y-111282355D01*
X156142641Y-111215201D01*
X156115094Y-111147358D01*
X156093737Y-111090034D01*
X156087935Y-111072572D01*
X156071452Y-111025938D01*
X156055340Y-110989905D01*
X156046490Y-110976287D01*
X156026960Y-110967952D01*
X155984334Y-110956137D01*
X155924145Y-110942181D01*
X155851922Y-110927422D01*
X155819600Y-110921355D01*
X155737522Y-110906273D01*
X155658795Y-110891669D01*
X155591109Y-110878980D01*
X155542160Y-110869642D01*
X155532943Y-110867839D01*
X155456743Y-110852799D01*
X155456743Y-110535492D01*
X155456914Y-110431154D01*
X155457616Y-110352213D01*
X155459134Y-110295038D01*
X155461749Y-110255999D01*
X155465746Y-110231465D01*
X155471409Y-110217805D01*
X155479020Y-110211389D01*
X155482143Y-110210199D01*
X155500978Y-110205980D01*
X155542588Y-110197562D01*
X155601630Y-110185961D01*
X155672757Y-110172195D01*
X155750625Y-110157280D01*
X155829887Y-110142232D01*
X155905198Y-110128069D01*
X155971213Y-110115806D01*
X156022587Y-110106461D01*
X156053975Y-110101050D01*
X156060959Y-110100114D01*
X156067285Y-110087596D01*
X156081290Y-110054246D01*
X156100355Y-110006377D01*
X156107634Y-109987629D01*
X156136996Y-109915195D01*
X156171571Y-109835170D01*
X156202537Y-109767728D01*
X156225323Y-109716159D01*
X156240482Y-109673785D01*
X156245542Y-109647834D01*
X156244736Y-109644356D01*
X156234041Y-109627936D01*
X156209620Y-109591417D01*
X156174095Y-109538687D01*
X156130087Y-109473635D01*
X156080217Y-109400151D01*
X156070356Y-109385645D01*
X156012492Y-109299704D01*
X155969956Y-109234261D01*
X155941054Y-109186304D01*
X155924090Y-109152820D01*
X155917367Y-109130795D01*
X155919190Y-109117217D01*
X155919236Y-109117131D01*
X155933586Y-109099297D01*
X155965323Y-109064817D01*
X156011010Y-109017268D01*
X156067204Y-108960222D01*
X156130468Y-108897255D01*
X156137602Y-108890227D01*
X156217330Y-108813020D01*
X156278857Y-108756330D01*
X156323421Y-108719110D01*
X156352257Y-108700315D01*
X156364958Y-108697889D01*
X156383494Y-108708471D01*
X156421961Y-108732916D01*
X156476386Y-108768612D01*
X156542798Y-108812947D01*
X156617225Y-108863311D01*
X156634601Y-108875160D01*
X156881297Y-109043626D01*
X156992706Y-108993062D01*
X157060457Y-108963595D01*
X157133183Y-108933959D01*
X157195703Y-108910330D01*
X157198457Y-108909358D01*
X157247360Y-108891457D01*
X157285057Y-108876320D01*
X157303425Y-108867210D01*
X157303456Y-108867184D01*
X157309285Y-108850717D01*
X157319192Y-108810219D01*
X157332195Y-108750242D01*
X157347309Y-108675340D01*
X157363552Y-108590064D01*
X157364881Y-108582875D01*
X157381175Y-108495014D01*
X157396133Y-108415260D01*
X157408791Y-108348681D01*
X157418186Y-108300347D01*
X157423354Y-108275325D01*
X157423444Y-108274943D01*
X157426589Y-108264299D01*
X157432704Y-108256262D01*
X157445453Y-108250467D01*
X157468500Y-108246547D01*
X157505509Y-108244135D01*
X157560144Y-108242865D01*
X157636067Y-108242371D01*
X157736944Y-108242286D01*
X157750000Y-108242286D01*
X157853910Y-108242348D01*
D12*
X132000320Y-97799720D02*
X132450000Y-98000000D01*
X132000320Y-97200280D02*
X132450000Y-97000000D01*
X131950000Y-96500000D02*
X125650000Y-96500000D01*
X125650000Y-96500000D02*
X125650000Y-98500000D01*
X125650000Y-98500000D02*
X131950000Y-98500000D01*
X131950000Y-96500000D02*
X131950000Y-98500000D01*
X139750000Y-111275000D02*
X140250000Y-111275000D01*
X140250000Y-110225000D02*
X139750000Y-110225000D01*
X139750000Y-112775000D02*
X140250000Y-112775000D01*
X140250000Y-111725000D02*
X139750000Y-111725000D01*
X139750000Y-114275000D02*
X140250000Y-114275000D01*
X140250000Y-113225000D02*
X139750000Y-113225000D01*
X144625000Y-110800000D02*
X144625000Y-111250000D01*
X144200000Y-109200000D02*
X145800000Y-109200000D01*
X144200000Y-110800000D02*
X144200000Y-109200000D01*
X145800000Y-110800000D02*
X144200000Y-110800000D01*
X145800000Y-109200000D02*
X145800000Y-110800000D01*
X145375000Y-110800000D02*
X145375000Y-111250000D01*
X144200000Y-121700000D02*
X145750000Y-121700000D01*
X144200000Y-123200000D02*
X144200000Y-121700000D01*
X145750000Y-123200000D02*
X144200000Y-123200000D01*
X145750000Y-121700000D02*
X145750000Y-123200000D01*
X163157143Y-124057143D02*
X163109524Y-124104762D01*
X162966667Y-124152381D01*
X162871429Y-124152381D01*
X162728571Y-124104762D01*
X162633333Y-124009524D01*
X162585714Y-123914286D01*
X162538095Y-123723810D01*
X162538095Y-123580952D01*
X162585714Y-123390476D01*
X162633333Y-123295238D01*
X162728571Y-123200000D01*
X162871429Y-123152381D01*
X162966667Y-123152381D01*
X163109524Y-123200000D01*
X163157143Y-123247619D01*
X164109524Y-124152381D02*
X163538095Y-124152381D01*
X163823809Y-124152381D02*
X163823809Y-123152381D01*
X163728571Y-123295238D01*
X163633333Y-123390476D01*
X163538095Y-123438095D01*
X164442857Y-123152381D02*
X165109524Y-123152381D01*
X164680952Y-124152381D01*
X147667857Y-90414286D02*
X148639286Y-90414286D01*
X148753571Y-90357143D01*
X148810714Y-90300000D01*
X148867857Y-90185714D01*
X148867857Y-89957143D01*
X148810714Y-89842857D01*
X148753571Y-89785714D01*
X148639286Y-89728571D01*
X147667857Y-89728571D01*
X147667857Y-88585714D02*
X147667857Y-89157143D01*
X148239286Y-89214286D01*
X148182143Y-89157143D01*
X148125000Y-89042857D01*
X148125000Y-88757143D01*
X148182143Y-88642857D01*
X148239286Y-88585714D01*
X148353571Y-88528571D01*
X148639286Y-88528571D01*
X148753571Y-88585714D01*
X148810714Y-88642857D01*
X148867857Y-88757143D01*
X148867857Y-89042857D01*
X148810714Y-89157143D01*
X148753571Y-89214286D01*
X137657143Y-100466666D02*
X137704762Y-100514285D01*
X137752381Y-100657142D01*
X137752381Y-100752380D01*
X137704762Y-100895238D01*
X137609524Y-100990476D01*
X137514286Y-101038095D01*
X137323810Y-101085714D01*
X137180952Y-101085714D01*
X136990476Y-101038095D01*
X136895238Y-100990476D01*
X136800000Y-100895238D01*
X136752381Y-100752380D01*
X136752381Y-100657142D01*
X136800000Y-100514285D01*
X136847619Y-100466666D01*
X137752381Y-99990476D02*
X137752381Y-99800000D01*
X137704762Y-99704761D01*
X137657143Y-99657142D01*
X137514286Y-99561904D01*
X137323810Y-99514285D01*
X136942857Y-99514285D01*
X136847619Y-99561904D01*
X136800000Y-99609523D01*
X136752381Y-99704761D01*
X136752381Y-99895238D01*
X136800000Y-99990476D01*
X136847619Y-100038095D01*
X136942857Y-100085714D01*
X137180952Y-100085714D01*
X137276190Y-100038095D01*
X137323810Y-99990476D01*
X137371429Y-99895238D01*
X137371429Y-99704761D01*
X137323810Y-99609523D01*
X137276190Y-99561904D01*
X137180952Y-99514285D01*
X142857143Y-71666666D02*
X142904762Y-71714285D01*
X142952381Y-71857142D01*
X142952381Y-71952380D01*
X142904762Y-72095238D01*
X142809524Y-72190476D01*
X142714286Y-72238095D01*
X142523810Y-72285714D01*
X142380952Y-72285714D01*
X142190476Y-72238095D01*
X142095238Y-72190476D01*
X142000000Y-72095238D01*
X141952381Y-71952380D01*
X141952381Y-71857142D01*
X142000000Y-71714285D01*
X142047619Y-71666666D01*
X142952381Y-70714285D02*
X142952381Y-71285714D01*
X142952381Y-71000000D02*
X141952381Y-71000000D01*
X142095238Y-71095238D01*
X142190476Y-71190476D01*
X142238095Y-71285714D01*
X147904762Y-79147619D02*
X147809524Y-79100000D01*
X147714286Y-79004762D01*
X147571429Y-78861905D01*
X147476190Y-78814286D01*
X147380952Y-78814286D01*
X147428571Y-79052381D02*
X147333333Y-79004762D01*
X147238095Y-78909524D01*
X147190476Y-78719048D01*
X147190476Y-78385714D01*
X147238095Y-78195238D01*
X147333333Y-78100000D01*
X147428571Y-78052381D01*
X147619048Y-78052381D01*
X147714286Y-78100000D01*
X147809524Y-78195238D01*
X147857143Y-78385714D01*
X147857143Y-78719048D01*
X147809524Y-78909524D01*
X147714286Y-79004762D01*
X147619048Y-79052381D01*
X147428571Y-79052381D01*
X148809524Y-79052381D02*
X148238095Y-79052381D01*
X148523809Y-79052381D02*
X148523809Y-78052381D01*
X148428571Y-78195238D01*
X148333333Y-78290476D01*
X148238095Y-78338095D01*
X133857143Y-67916666D02*
X133904762Y-67964285D01*
X133952381Y-68107142D01*
X133952381Y-68202380D01*
X133904762Y-68345238D01*
X133809524Y-68440476D01*
X133714286Y-68488095D01*
X133523810Y-68535714D01*
X133380952Y-68535714D01*
X133190476Y-68488095D01*
X133095238Y-68440476D01*
X133000000Y-68345238D01*
X132952381Y-68202380D01*
X132952381Y-68107142D01*
X133000000Y-67964285D01*
X133047619Y-67916666D01*
X133047619Y-67535714D02*
X133000000Y-67488095D01*
X132952381Y-67392857D01*
X132952381Y-67154761D01*
X133000000Y-67059523D01*
X133047619Y-67011904D01*
X133142857Y-66964285D01*
X133238095Y-66964285D01*
X133380952Y-67011904D01*
X133952381Y-67583333D01*
X133952381Y-66964285D01*
X127833334Y-83557143D02*
X127785715Y-83604762D01*
X127642858Y-83652381D01*
X127547620Y-83652381D01*
X127404762Y-83604762D01*
X127309524Y-83509524D01*
X127261905Y-83414286D01*
X127214286Y-83223810D01*
X127214286Y-83080952D01*
X127261905Y-82890476D01*
X127309524Y-82795238D01*
X127404762Y-82700000D01*
X127547620Y-82652381D01*
X127642858Y-82652381D01*
X127785715Y-82700000D01*
X127833334Y-82747619D01*
X128166667Y-82652381D02*
X128785715Y-82652381D01*
X128452381Y-83033333D01*
X128595239Y-83033333D01*
X128690477Y-83080952D01*
X128738096Y-83128571D01*
X128785715Y-83223810D01*
X128785715Y-83461905D01*
X128738096Y-83557143D01*
X128690477Y-83604762D01*
X128595239Y-83652381D01*
X128309524Y-83652381D01*
X128214286Y-83604762D01*
X128166667Y-83557143D01*
X135333334Y-95357143D02*
X135285715Y-95404762D01*
X135142858Y-95452381D01*
X135047620Y-95452381D01*
X134904762Y-95404762D01*
X134809524Y-95309524D01*
X134761905Y-95214286D01*
X134714286Y-95023810D01*
X134714286Y-94880952D01*
X134761905Y-94690476D01*
X134809524Y-94595238D01*
X134904762Y-94500000D01*
X135047620Y-94452381D01*
X135142858Y-94452381D01*
X135285715Y-94500000D01*
X135333334Y-94547619D01*
X136190477Y-94785714D02*
X136190477Y-95452381D01*
X135952381Y-94404762D02*
X135714286Y-95119048D01*
X136333334Y-95119048D01*
X137657143Y-98466666D02*
X137704762Y-98514285D01*
X137752381Y-98657142D01*
X137752381Y-98752380D01*
X137704762Y-98895238D01*
X137609524Y-98990476D01*
X137514286Y-99038095D01*
X137323810Y-99085714D01*
X137180952Y-99085714D01*
X136990476Y-99038095D01*
X136895238Y-98990476D01*
X136800000Y-98895238D01*
X136752381Y-98752380D01*
X136752381Y-98657142D01*
X136800000Y-98514285D01*
X136847619Y-98466666D01*
X136752381Y-97561904D02*
X136752381Y-98038095D01*
X137228571Y-98085714D01*
X137180952Y-98038095D01*
X137133333Y-97942857D01*
X137133333Y-97704761D01*
X137180952Y-97609523D01*
X137228571Y-97561904D01*
X137323810Y-97514285D01*
X137561905Y-97514285D01*
X137657143Y-97561904D01*
X137704762Y-97609523D01*
X137752381Y-97704761D01*
X137752381Y-97942857D01*
X137704762Y-98038095D01*
X137657143Y-98085714D01*
X133633334Y-105457143D02*
X133585715Y-105504762D01*
X133442858Y-105552381D01*
X133347620Y-105552381D01*
X133204762Y-105504762D01*
X133109524Y-105409524D01*
X133061905Y-105314286D01*
X133014286Y-105123810D01*
X133014286Y-104980952D01*
X133061905Y-104790476D01*
X133109524Y-104695238D01*
X133204762Y-104600000D01*
X133347620Y-104552381D01*
X133442858Y-104552381D01*
X133585715Y-104600000D01*
X133633334Y-104647619D01*
X134490477Y-104552381D02*
X134300000Y-104552381D01*
X134204762Y-104600000D01*
X134157143Y-104647619D01*
X134061905Y-104790476D01*
X134014286Y-104980952D01*
X134014286Y-105361905D01*
X134061905Y-105457143D01*
X134109524Y-105504762D01*
X134204762Y-105552381D01*
X134395239Y-105552381D01*
X134490477Y-105504762D01*
X134538096Y-105457143D01*
X134585715Y-105361905D01*
X134585715Y-105123810D01*
X134538096Y-105028571D01*
X134490477Y-104980952D01*
X134395239Y-104933333D01*
X134204762Y-104933333D01*
X134109524Y-104980952D01*
X134061905Y-105028571D01*
X134014286Y-105123810D01*
X126333334Y-103557143D02*
X126285715Y-103604762D01*
X126142858Y-103652381D01*
X126047620Y-103652381D01*
X125904762Y-103604762D01*
X125809524Y-103509524D01*
X125761905Y-103414286D01*
X125714286Y-103223810D01*
X125714286Y-103080952D01*
X125761905Y-102890476D01*
X125809524Y-102795238D01*
X125904762Y-102700000D01*
X126047620Y-102652381D01*
X126142858Y-102652381D01*
X126285715Y-102700000D01*
X126333334Y-102747619D01*
X126666667Y-102652381D02*
X127333334Y-102652381D01*
X126904762Y-103652381D01*
X136133334Y-104757143D02*
X136085715Y-104804762D01*
X135942858Y-104852381D01*
X135847620Y-104852381D01*
X135704762Y-104804762D01*
X135609524Y-104709524D01*
X135561905Y-104614286D01*
X135514286Y-104423810D01*
X135514286Y-104280952D01*
X135561905Y-104090476D01*
X135609524Y-103995238D01*
X135704762Y-103900000D01*
X135847620Y-103852381D01*
X135942858Y-103852381D01*
X136085715Y-103900000D01*
X136133334Y-103947619D01*
X136704762Y-104280952D02*
X136609524Y-104233333D01*
X136561905Y-104185714D01*
X136514286Y-104090476D01*
X136514286Y-104042857D01*
X136561905Y-103947619D01*
X136609524Y-103900000D01*
X136704762Y-103852381D01*
X136895239Y-103852381D01*
X136990477Y-103900000D01*
X137038096Y-103947619D01*
X137085715Y-104042857D01*
X137085715Y-104090476D01*
X137038096Y-104185714D01*
X136990477Y-104233333D01*
X136895239Y-104280952D01*
X136704762Y-104280952D01*
X136609524Y-104328571D01*
X136561905Y-104376190D01*
X136514286Y-104471429D01*
X136514286Y-104661905D01*
X136561905Y-104757143D01*
X136609524Y-104804762D01*
X136704762Y-104852381D01*
X136895239Y-104852381D01*
X136990477Y-104804762D01*
X137038096Y-104757143D01*
X137085715Y-104661905D01*
X137085715Y-104471429D01*
X137038096Y-104376190D01*
X136990477Y-104328571D01*
X136895239Y-104280952D01*
X157207143Y-97392857D02*
X157254762Y-97440476D01*
X157302381Y-97583333D01*
X157302381Y-97678571D01*
X157254762Y-97821429D01*
X157159524Y-97916667D01*
X157064286Y-97964286D01*
X156873810Y-98011905D01*
X156730952Y-98011905D01*
X156540476Y-97964286D01*
X156445238Y-97916667D01*
X156350000Y-97821429D01*
X156302381Y-97678571D01*
X156302381Y-97583333D01*
X156350000Y-97440476D01*
X156397619Y-97392857D01*
X157302381Y-96440476D02*
X157302381Y-97011905D01*
X157302381Y-96726191D02*
X156302381Y-96726191D01*
X156445238Y-96821429D01*
X156540476Y-96916667D01*
X156588095Y-97011905D01*
X156302381Y-95821429D02*
X156302381Y-95726190D01*
X156350000Y-95630952D01*
X156397619Y-95583333D01*
X156492857Y-95535714D01*
X156683333Y-95488095D01*
X156921429Y-95488095D01*
X157111905Y-95535714D01*
X157207143Y-95583333D01*
X157254762Y-95630952D01*
X157302381Y-95726190D01*
X157302381Y-95821429D01*
X157254762Y-95916667D01*
X157207143Y-95964286D01*
X157111905Y-96011905D01*
X156921429Y-96059524D01*
X156683333Y-96059524D01*
X156492857Y-96011905D01*
X156397619Y-95964286D01*
X156350000Y-95916667D01*
X156302381Y-95821429D01*
X151857143Y-99057143D02*
X151809524Y-99104762D01*
X151666667Y-99152381D01*
X151571429Y-99152381D01*
X151428571Y-99104762D01*
X151333333Y-99009524D01*
X151285714Y-98914286D01*
X151238095Y-98723810D01*
X151238095Y-98580952D01*
X151285714Y-98390476D01*
X151333333Y-98295238D01*
X151428571Y-98200000D01*
X151571429Y-98152381D01*
X151666667Y-98152381D01*
X151809524Y-98200000D01*
X151857143Y-98247619D01*
X152809524Y-99152381D02*
X152238095Y-99152381D01*
X152523809Y-99152381D02*
X152523809Y-98152381D01*
X152428571Y-98295238D01*
X152333333Y-98390476D01*
X152238095Y-98438095D01*
X153761905Y-99152381D02*
X153190476Y-99152381D01*
X153476190Y-99152381D02*
X153476190Y-98152381D01*
X153380952Y-98295238D01*
X153285714Y-98390476D01*
X153190476Y-98438095D01*
X137357143Y-93157143D02*
X137309524Y-93204762D01*
X137166667Y-93252381D01*
X137071429Y-93252381D01*
X136928571Y-93204762D01*
X136833333Y-93109524D01*
X136785714Y-93014286D01*
X136738095Y-92823810D01*
X136738095Y-92680952D01*
X136785714Y-92490476D01*
X136833333Y-92395238D01*
X136928571Y-92300000D01*
X137071429Y-92252381D01*
X137166667Y-92252381D01*
X137309524Y-92300000D01*
X137357143Y-92347619D01*
X138309524Y-93252381D02*
X137738095Y-93252381D01*
X138023809Y-93252381D02*
X138023809Y-92252381D01*
X137928571Y-92395238D01*
X137833333Y-92490476D01*
X137738095Y-92538095D01*
X138690476Y-92347619D02*
X138738095Y-92300000D01*
X138833333Y-92252381D01*
X139071429Y-92252381D01*
X139166667Y-92300000D01*
X139214286Y-92347619D01*
X139261905Y-92442857D01*
X139261905Y-92538095D01*
X139214286Y-92680952D01*
X138642857Y-93252381D01*
X139261905Y-93252381D01*
X147107143Y-109457143D02*
X147059524Y-109504762D01*
X146916667Y-109552381D01*
X146821429Y-109552381D01*
X146678571Y-109504762D01*
X146583333Y-109409524D01*
X146535714Y-109314286D01*
X146488095Y-109123810D01*
X146488095Y-108980952D01*
X146535714Y-108790476D01*
X146583333Y-108695238D01*
X146678571Y-108600000D01*
X146821429Y-108552381D01*
X146916667Y-108552381D01*
X147059524Y-108600000D01*
X147107143Y-108647619D01*
X148059524Y-109552381D02*
X147488095Y-109552381D01*
X147773809Y-109552381D02*
X147773809Y-108552381D01*
X147678571Y-108695238D01*
X147583333Y-108790476D01*
X147488095Y-108838095D01*
X148392857Y-108552381D02*
X149011905Y-108552381D01*
X148678571Y-108933333D01*
X148821429Y-108933333D01*
X148916667Y-108980952D01*
X148964286Y-109028571D01*
X149011905Y-109123810D01*
X149011905Y-109361905D01*
X148964286Y-109457143D01*
X148916667Y-109504762D01*
X148821429Y-109552381D01*
X148535714Y-109552381D01*
X148440476Y-109504762D01*
X148392857Y-109457143D01*
X140607143Y-109457143D02*
X140559524Y-109504762D01*
X140416667Y-109552381D01*
X140321429Y-109552381D01*
X140178571Y-109504762D01*
X140083333Y-109409524D01*
X140035714Y-109314286D01*
X139988095Y-109123810D01*
X139988095Y-108980952D01*
X140035714Y-108790476D01*
X140083333Y-108695238D01*
X140178571Y-108600000D01*
X140321429Y-108552381D01*
X140416667Y-108552381D01*
X140559524Y-108600000D01*
X140607143Y-108647619D01*
X141559524Y-109552381D02*
X140988095Y-109552381D01*
X141273809Y-109552381D02*
X141273809Y-108552381D01*
X141178571Y-108695238D01*
X141083333Y-108790476D01*
X140988095Y-108838095D01*
X142416667Y-108885714D02*
X142416667Y-109552381D01*
X142178571Y-108504762D02*
X141940476Y-109219048D01*
X142559524Y-109219048D01*
X152557143Y-121892857D02*
X152604762Y-121940476D01*
X152652381Y-122083333D01*
X152652381Y-122178571D01*
X152604762Y-122321429D01*
X152509524Y-122416667D01*
X152414286Y-122464286D01*
X152223810Y-122511905D01*
X152080952Y-122511905D01*
X151890476Y-122464286D01*
X151795238Y-122416667D01*
X151700000Y-122321429D01*
X151652381Y-122178571D01*
X151652381Y-122083333D01*
X151700000Y-121940476D01*
X151747619Y-121892857D01*
X152652381Y-120940476D02*
X152652381Y-121511905D01*
X152652381Y-121226191D02*
X151652381Y-121226191D01*
X151795238Y-121321429D01*
X151890476Y-121416667D01*
X151938095Y-121511905D01*
X151652381Y-120035714D02*
X151652381Y-120511905D01*
X152128571Y-120559524D01*
X152080952Y-120511905D01*
X152033333Y-120416667D01*
X152033333Y-120178571D01*
X152080952Y-120083333D01*
X152128571Y-120035714D01*
X152223810Y-119988095D01*
X152461905Y-119988095D01*
X152557143Y-120035714D01*
X152604762Y-120083333D01*
X152652381Y-120178571D01*
X152652381Y-120416667D01*
X152604762Y-120511905D01*
X152557143Y-120559524D01*
X143657143Y-91342857D02*
X143704762Y-91390476D01*
X143752381Y-91533333D01*
X143752381Y-91628571D01*
X143704762Y-91771429D01*
X143609524Y-91866667D01*
X143514286Y-91914286D01*
X143323810Y-91961905D01*
X143180952Y-91961905D01*
X142990476Y-91914286D01*
X142895238Y-91866667D01*
X142800000Y-91771429D01*
X142752381Y-91628571D01*
X142752381Y-91533333D01*
X142800000Y-91390476D01*
X142847619Y-91342857D01*
X143752381Y-90390476D02*
X143752381Y-90961905D01*
X143752381Y-90676191D02*
X142752381Y-90676191D01*
X142895238Y-90771429D01*
X142990476Y-90866667D01*
X143038095Y-90961905D01*
X142752381Y-89533333D02*
X142752381Y-89723810D01*
X142800000Y-89819048D01*
X142847619Y-89866667D01*
X142990476Y-89961905D01*
X143180952Y-90009524D01*
X143561905Y-90009524D01*
X143657143Y-89961905D01*
X143704762Y-89914286D01*
X143752381Y-89819048D01*
X143752381Y-89628571D01*
X143704762Y-89533333D01*
X143657143Y-89485714D01*
X143561905Y-89438095D01*
X143323810Y-89438095D01*
X143228571Y-89485714D01*
X143180952Y-89533333D01*
X143133333Y-89628571D01*
X143133333Y-89819048D01*
X143180952Y-89914286D01*
X143228571Y-89961905D01*
X143323810Y-90009524D01*
X148285714Y-120264286D02*
X148323810Y-120302381D01*
X148361905Y-120416667D01*
X148361905Y-120492857D01*
X148323810Y-120607143D01*
X148247619Y-120683334D01*
X148171429Y-120721429D01*
X148019048Y-120759524D01*
X147904762Y-120759524D01*
X147752381Y-120721429D01*
X147676190Y-120683334D01*
X147600000Y-120607143D01*
X147561905Y-120492857D01*
X147561905Y-120416667D01*
X147600000Y-120302381D01*
X147638095Y-120264286D01*
X148361905Y-119502381D02*
X148361905Y-119959524D01*
X148361905Y-119730953D02*
X147561905Y-119730953D01*
X147676190Y-119807143D01*
X147752381Y-119883334D01*
X147790476Y-119959524D01*
X147904762Y-119045238D02*
X147866667Y-119121429D01*
X147828571Y-119159524D01*
X147752381Y-119197619D01*
X147714286Y-119197619D01*
X147638095Y-119159524D01*
X147600000Y-119121429D01*
X147561905Y-119045238D01*
X147561905Y-118892857D01*
X147600000Y-118816667D01*
X147638095Y-118778571D01*
X147714286Y-118740476D01*
X147752381Y-118740476D01*
X147828571Y-118778571D01*
X147866667Y-118816667D01*
X147904762Y-118892857D01*
X147904762Y-119045238D01*
X147942857Y-119121429D01*
X147980952Y-119159524D01*
X148057143Y-119197619D01*
X148209524Y-119197619D01*
X148285714Y-119159524D01*
X148323810Y-119121429D01*
X148361905Y-119045238D01*
X148361905Y-118892857D01*
X148323810Y-118816667D01*
X148285714Y-118778571D01*
X148209524Y-118740476D01*
X148057143Y-118740476D01*
X147980952Y-118778571D01*
X147942857Y-118816667D01*
X147904762Y-118892857D01*
X147957143Y-93142857D02*
X148004762Y-93190476D01*
X148052381Y-93333333D01*
X148052381Y-93428571D01*
X148004762Y-93571429D01*
X147909524Y-93666667D01*
X147814286Y-93714286D01*
X147623810Y-93761905D01*
X147480952Y-93761905D01*
X147290476Y-93714286D01*
X147195238Y-93666667D01*
X147100000Y-93571429D01*
X147052381Y-93428571D01*
X147052381Y-93333333D01*
X147100000Y-93190476D01*
X147147619Y-93142857D01*
X148052381Y-92190476D02*
X148052381Y-92761905D01*
X148052381Y-92476191D02*
X147052381Y-92476191D01*
X147195238Y-92571429D01*
X147290476Y-92666667D01*
X147338095Y-92761905D01*
X148052381Y-91714286D02*
X148052381Y-91523810D01*
X148004762Y-91428571D01*
X147957143Y-91380952D01*
X147814286Y-91285714D01*
X147623810Y-91238095D01*
X147242857Y-91238095D01*
X147147619Y-91285714D01*
X147100000Y-91333333D01*
X147052381Y-91428571D01*
X147052381Y-91619048D01*
X147100000Y-91714286D01*
X147147619Y-91761905D01*
X147242857Y-91809524D01*
X147480952Y-91809524D01*
X147576190Y-91761905D01*
X147623810Y-91714286D01*
X147671429Y-91619048D01*
X147671429Y-91428571D01*
X147623810Y-91333333D01*
X147576190Y-91285714D01*
X147480952Y-91238095D01*
X142857143Y-80542857D02*
X142904762Y-80590476D01*
X142952381Y-80733333D01*
X142952381Y-80828571D01*
X142904762Y-80971429D01*
X142809524Y-81066667D01*
X142714286Y-81114286D01*
X142523810Y-81161905D01*
X142380952Y-81161905D01*
X142190476Y-81114286D01*
X142095238Y-81066667D01*
X142000000Y-80971429D01*
X141952381Y-80828571D01*
X141952381Y-80733333D01*
X142000000Y-80590476D01*
X142047619Y-80542857D01*
X142047619Y-80161905D02*
X142000000Y-80114286D01*
X141952381Y-80019048D01*
X141952381Y-79780952D01*
X142000000Y-79685714D01*
X142047619Y-79638095D01*
X142142857Y-79590476D01*
X142238095Y-79590476D01*
X142380952Y-79638095D01*
X142952381Y-80209524D01*
X142952381Y-79590476D01*
X141952381Y-78971429D02*
X141952381Y-78876190D01*
X142000000Y-78780952D01*
X142047619Y-78733333D01*
X142142857Y-78685714D01*
X142333333Y-78638095D01*
X142571429Y-78638095D01*
X142761905Y-78685714D01*
X142857143Y-78733333D01*
X142904762Y-78780952D01*
X142952381Y-78876190D01*
X142952381Y-78971429D01*
X142904762Y-79066667D01*
X142857143Y-79114286D01*
X142761905Y-79161905D01*
X142571429Y-79209524D01*
X142333333Y-79209524D01*
X142142857Y-79161905D01*
X142047619Y-79114286D01*
X142000000Y-79066667D01*
X141952381Y-78971429D01*
X159302381Y-76238095D02*
X158302381Y-76238095D01*
X158302381Y-76000000D01*
X158350000Y-75857142D01*
X158445238Y-75761904D01*
X158540476Y-75714285D01*
X158730952Y-75666666D01*
X158873810Y-75666666D01*
X159064286Y-75714285D01*
X159159524Y-75761904D01*
X159254762Y-75857142D01*
X159302381Y-76000000D01*
X159302381Y-76238095D01*
X159302381Y-74714285D02*
X159302381Y-75285714D01*
X159302381Y-75000000D02*
X158302381Y-75000000D01*
X158445238Y-75095238D01*
X158540476Y-75190476D01*
X158588095Y-75285714D01*
X158352381Y-72661905D02*
X157352381Y-72661905D01*
X158352381Y-72090476D02*
X157780952Y-72519048D01*
X157352381Y-72090476D02*
X157923810Y-72661905D01*
X157966667Y-79038095D02*
X157966667Y-78561904D01*
X158252381Y-79133333D02*
X157252381Y-78800000D01*
X158252381Y-78466666D01*
X147011905Y-66652381D02*
X147011905Y-65652381D01*
X147250000Y-65652381D01*
X147392858Y-65700000D01*
X147488096Y-65795238D01*
X147535715Y-65890476D01*
X147583334Y-66080952D01*
X147583334Y-66223810D01*
X147535715Y-66414286D01*
X147488096Y-66509524D01*
X147392858Y-66604762D01*
X147250000Y-66652381D01*
X147011905Y-66652381D01*
X147964286Y-65747619D02*
X148011905Y-65700000D01*
X148107143Y-65652381D01*
X148345239Y-65652381D01*
X148440477Y-65700000D01*
X148488096Y-65747619D01*
X148535715Y-65842857D01*
X148535715Y-65938095D01*
X148488096Y-66080952D01*
X147916667Y-66652381D01*
X148535715Y-66652381D01*
X144138095Y-71452381D02*
X144138095Y-70452381D01*
X144709524Y-71452381D02*
X144280952Y-70880952D01*
X144709524Y-70452381D02*
X144138095Y-71023810D01*
X150761905Y-71266667D02*
X151238096Y-71266667D01*
X150666667Y-71552381D02*
X151000000Y-70552381D01*
X151333334Y-71552381D01*
X137202381Y-67738095D02*
X136202381Y-67738095D01*
X136202381Y-67500000D01*
X136250000Y-67357142D01*
X136345238Y-67261904D01*
X136440476Y-67214285D01*
X136630952Y-67166666D01*
X136773810Y-67166666D01*
X136964286Y-67214285D01*
X137059524Y-67261904D01*
X137154762Y-67357142D01*
X137202381Y-67500000D01*
X137202381Y-67738095D01*
X136202381Y-66833333D02*
X136202381Y-66214285D01*
X136583333Y-66547619D01*
X136583333Y-66404761D01*
X136630952Y-66309523D01*
X136678571Y-66261904D01*
X136773810Y-66214285D01*
X137011905Y-66214285D01*
X137107143Y-66261904D01*
X137154762Y-66309523D01*
X137202381Y-66404761D01*
X137202381Y-66690476D01*
X137154762Y-66785714D01*
X137107143Y-66833333D01*
X166452381Y-114738095D02*
X165452381Y-114738095D01*
X165452381Y-114500000D01*
X165500000Y-114357142D01*
X165595238Y-114261904D01*
X165690476Y-114214285D01*
X165880952Y-114166666D01*
X166023810Y-114166666D01*
X166214286Y-114214285D01*
X166309524Y-114261904D01*
X166404762Y-114357142D01*
X166452381Y-114500000D01*
X166452381Y-114738095D01*
X165785714Y-113309523D02*
X166452381Y-113309523D01*
X165404762Y-113547619D02*
X166119048Y-113785714D01*
X166119048Y-113166666D01*
X166452381Y-109488795D02*
X165452381Y-109488795D01*
X165452381Y-109250700D01*
X165500000Y-109107842D01*
X165595238Y-109012604D01*
X165690476Y-108964985D01*
X165880952Y-108917366D01*
X166023810Y-108917366D01*
X166214286Y-108964985D01*
X166309524Y-109012604D01*
X166404762Y-109107842D01*
X166452381Y-109250700D01*
X166452381Y-109488795D01*
X165452381Y-108012604D02*
X165452381Y-108488795D01*
X165928571Y-108536414D01*
X165880952Y-108488795D01*
X165833333Y-108393557D01*
X165833333Y-108155461D01*
X165880952Y-108060223D01*
X165928571Y-108012604D01*
X166023810Y-107964985D01*
X166261905Y-107964985D01*
X166357143Y-108012604D01*
X166404762Y-108060223D01*
X166452381Y-108155461D01*
X166452381Y-108393557D01*
X166404762Y-108488795D01*
X166357143Y-108536414D01*
X125983334Y-79952381D02*
X125507143Y-79952381D01*
X125507143Y-78952381D01*
X126840477Y-79952381D02*
X126269048Y-79952381D01*
X126554762Y-79952381D02*
X126554762Y-78952381D01*
X126459524Y-79095238D01*
X126364286Y-79190476D01*
X126269048Y-79238095D01*
X158752381Y-68166666D02*
X158276190Y-68500000D01*
X158752381Y-68738095D02*
X157752381Y-68738095D01*
X157752381Y-68357142D01*
X157800000Y-68261904D01*
X157847619Y-68214285D01*
X157942857Y-68166666D01*
X158085714Y-68166666D01*
X158180952Y-68214285D01*
X158228571Y-68261904D01*
X158276190Y-68357142D01*
X158276190Y-68738095D01*
X158752381Y-67214285D02*
X158752381Y-67785714D01*
X158752381Y-67500000D02*
X157752381Y-67500000D01*
X157895238Y-67595238D01*
X157990476Y-67690476D01*
X158038095Y-67785714D01*
X139883334Y-79002381D02*
X139550000Y-78526190D01*
X139311905Y-79002381D02*
X139311905Y-78002381D01*
X139692858Y-78002381D01*
X139788096Y-78050000D01*
X139835715Y-78097619D01*
X139883334Y-78192857D01*
X139883334Y-78335714D01*
X139835715Y-78430952D01*
X139788096Y-78478571D01*
X139692858Y-78526190D01*
X139311905Y-78526190D01*
X140264286Y-78097619D02*
X140311905Y-78050000D01*
X140407143Y-78002381D01*
X140645239Y-78002381D01*
X140740477Y-78050000D01*
X140788096Y-78097619D01*
X140835715Y-78192857D01*
X140835715Y-78288095D01*
X140788096Y-78430952D01*
X140216667Y-79002381D01*
X140835715Y-79002381D01*
X132433334Y-81452381D02*
X132100000Y-80976190D01*
X131861905Y-81452381D02*
X131861905Y-80452381D01*
X132242858Y-80452381D01*
X132338096Y-80500000D01*
X132385715Y-80547619D01*
X132433334Y-80642857D01*
X132433334Y-80785714D01*
X132385715Y-80880952D01*
X132338096Y-80928571D01*
X132242858Y-80976190D01*
X131861905Y-80976190D01*
X132766667Y-80452381D02*
X133385715Y-80452381D01*
X133052381Y-80833333D01*
X133195239Y-80833333D01*
X133290477Y-80880952D01*
X133338096Y-80928571D01*
X133385715Y-81023810D01*
X133385715Y-81261905D01*
X133338096Y-81357143D01*
X133290477Y-81404762D01*
X133195239Y-81452381D01*
X132909524Y-81452381D01*
X132814286Y-81404762D01*
X132766667Y-81357143D01*
X134233334Y-81452381D02*
X133900000Y-80976190D01*
X133661905Y-81452381D02*
X133661905Y-80452381D01*
X134042858Y-80452381D01*
X134138096Y-80500000D01*
X134185715Y-80547619D01*
X134233334Y-80642857D01*
X134233334Y-80785714D01*
X134185715Y-80880952D01*
X134138096Y-80928571D01*
X134042858Y-80976190D01*
X133661905Y-80976190D01*
X135090477Y-80785714D02*
X135090477Y-81452381D01*
X134852381Y-80404762D02*
X134614286Y-81119048D01*
X135233334Y-81119048D01*
X127333334Y-110452381D02*
X127000000Y-109976190D01*
X126761905Y-110452381D02*
X126761905Y-109452381D01*
X127142858Y-109452381D01*
X127238096Y-109500000D01*
X127285715Y-109547619D01*
X127333334Y-109642857D01*
X127333334Y-109785714D01*
X127285715Y-109880952D01*
X127238096Y-109928571D01*
X127142858Y-109976190D01*
X126761905Y-109976190D01*
X128238096Y-109452381D02*
X127761905Y-109452381D01*
X127714286Y-109928571D01*
X127761905Y-109880952D01*
X127857143Y-109833333D01*
X128095239Y-109833333D01*
X128190477Y-109880952D01*
X128238096Y-109928571D01*
X128285715Y-110023810D01*
X128285715Y-110261905D01*
X128238096Y-110357143D01*
X128190477Y-110404762D01*
X128095239Y-110452381D01*
X127857143Y-110452381D01*
X127761905Y-110404762D01*
X127714286Y-110357143D01*
X130852381Y-108416666D02*
X130376190Y-108750000D01*
X130852381Y-108988095D02*
X129852381Y-108988095D01*
X129852381Y-108607142D01*
X129900000Y-108511904D01*
X129947619Y-108464285D01*
X130042857Y-108416666D01*
X130185714Y-108416666D01*
X130280952Y-108464285D01*
X130328571Y-108511904D01*
X130376190Y-108607142D01*
X130376190Y-108988095D01*
X129852381Y-107559523D02*
X129852381Y-107750000D01*
X129900000Y-107845238D01*
X129947619Y-107892857D01*
X130090476Y-107988095D01*
X130280952Y-108035714D01*
X130661905Y-108035714D01*
X130757143Y-107988095D01*
X130804762Y-107940476D01*
X130852381Y-107845238D01*
X130852381Y-107654761D01*
X130804762Y-107559523D01*
X130757143Y-107511904D01*
X130661905Y-107464285D01*
X130423810Y-107464285D01*
X130328571Y-107511904D01*
X130280952Y-107559523D01*
X130233333Y-107654761D01*
X130233333Y-107845238D01*
X130280952Y-107940476D01*
X130328571Y-107988095D01*
X130423810Y-108035714D01*
X166452381Y-116666666D02*
X165976190Y-117000000D01*
X166452381Y-117238095D02*
X165452381Y-117238095D01*
X165452381Y-116857142D01*
X165500000Y-116761904D01*
X165547619Y-116714285D01*
X165642857Y-116666666D01*
X165785714Y-116666666D01*
X165880952Y-116714285D01*
X165928571Y-116761904D01*
X165976190Y-116857142D01*
X165976190Y-117238095D01*
X165452381Y-116333333D02*
X165452381Y-115666666D01*
X166452381Y-116095238D01*
X166452381Y-111416666D02*
X165976190Y-111750000D01*
X166452381Y-111988095D02*
X165452381Y-111988095D01*
X165452381Y-111607142D01*
X165500000Y-111511904D01*
X165547619Y-111464285D01*
X165642857Y-111416666D01*
X165785714Y-111416666D01*
X165880952Y-111464285D01*
X165928571Y-111511904D01*
X165976190Y-111607142D01*
X165976190Y-111988095D01*
X165880952Y-110845238D02*
X165833333Y-110940476D01*
X165785714Y-110988095D01*
X165690476Y-111035714D01*
X165642857Y-111035714D01*
X165547619Y-110988095D01*
X165500000Y-110940476D01*
X165452381Y-110845238D01*
X165452381Y-110654761D01*
X165500000Y-110559523D01*
X165547619Y-110511904D01*
X165642857Y-110464285D01*
X165690476Y-110464285D01*
X165785714Y-110511904D01*
X165833333Y-110559523D01*
X165880952Y-110654761D01*
X165880952Y-110845238D01*
X165928571Y-110940476D01*
X165976190Y-110988095D01*
X166071429Y-111035714D01*
X166261905Y-111035714D01*
X166357143Y-110988095D01*
X166404762Y-110940476D01*
X166452381Y-110845238D01*
X166452381Y-110654761D01*
X166404762Y-110559523D01*
X166357143Y-110511904D01*
X166261905Y-110464285D01*
X166071429Y-110464285D01*
X165976190Y-110511904D01*
X165928571Y-110559523D01*
X165880952Y-110654761D01*
X152083334Y-124202381D02*
X151750000Y-123726190D01*
X151511905Y-124202381D02*
X151511905Y-123202381D01*
X151892858Y-123202381D01*
X151988096Y-123250000D01*
X152035715Y-123297619D01*
X152083334Y-123392857D01*
X152083334Y-123535714D01*
X152035715Y-123630952D01*
X151988096Y-123678571D01*
X151892858Y-123726190D01*
X151511905Y-123726190D01*
X152559524Y-124202381D02*
X152750000Y-124202381D01*
X152845239Y-124154762D01*
X152892858Y-124107143D01*
X152988096Y-123964286D01*
X153035715Y-123773810D01*
X153035715Y-123392857D01*
X152988096Y-123297619D01*
X152940477Y-123250000D01*
X152845239Y-123202381D01*
X152654762Y-123202381D01*
X152559524Y-123250000D01*
X152511905Y-123297619D01*
X152464286Y-123392857D01*
X152464286Y-123630952D01*
X152511905Y-123726190D01*
X152559524Y-123773810D01*
X152654762Y-123821429D01*
X152845239Y-123821429D01*
X152940477Y-123773810D01*
X152988096Y-123726190D01*
X153035715Y-123630952D01*
X142202381Y-114142857D02*
X141726190Y-114476191D01*
X142202381Y-114714286D02*
X141202381Y-114714286D01*
X141202381Y-114333333D01*
X141250000Y-114238095D01*
X141297619Y-114190476D01*
X141392857Y-114142857D01*
X141535714Y-114142857D01*
X141630952Y-114190476D01*
X141678571Y-114238095D01*
X141726190Y-114333333D01*
X141726190Y-114714286D01*
X142202381Y-113190476D02*
X142202381Y-113761905D01*
X142202381Y-113476191D02*
X141202381Y-113476191D01*
X141345238Y-113571429D01*
X141440476Y-113666667D01*
X141488095Y-113761905D01*
X141202381Y-112571429D02*
X141202381Y-112476190D01*
X141250000Y-112380952D01*
X141297619Y-112333333D01*
X141392857Y-112285714D01*
X141583333Y-112238095D01*
X141821429Y-112238095D01*
X142011905Y-112285714D01*
X142107143Y-112333333D01*
X142154762Y-112380952D01*
X142202381Y-112476190D01*
X142202381Y-112571429D01*
X142154762Y-112666667D01*
X142107143Y-112714286D01*
X142011905Y-112761905D01*
X141821429Y-112809524D01*
X141583333Y-112809524D01*
X141392857Y-112761905D01*
X141297619Y-112714286D01*
X141250000Y-112666667D01*
X141202381Y-112571429D01*
X148702381Y-114142857D02*
X148226190Y-114476191D01*
X148702381Y-114714286D02*
X147702381Y-114714286D01*
X147702381Y-114333333D01*
X147750000Y-114238095D01*
X147797619Y-114190476D01*
X147892857Y-114142857D01*
X148035714Y-114142857D01*
X148130952Y-114190476D01*
X148178571Y-114238095D01*
X148226190Y-114333333D01*
X148226190Y-114714286D01*
X148702381Y-113190476D02*
X148702381Y-113761905D01*
X148702381Y-113476191D02*
X147702381Y-113476191D01*
X147845238Y-113571429D01*
X147940476Y-113666667D01*
X147988095Y-113761905D01*
X148702381Y-112238095D02*
X148702381Y-112809524D01*
X148702381Y-112523810D02*
X147702381Y-112523810D01*
X147845238Y-112619048D01*
X147940476Y-112714286D01*
X147988095Y-112809524D01*
X158052381Y-122142857D02*
X157576190Y-122476191D01*
X158052381Y-122714286D02*
X157052381Y-122714286D01*
X157052381Y-122333333D01*
X157100000Y-122238095D01*
X157147619Y-122190476D01*
X157242857Y-122142857D01*
X157385714Y-122142857D01*
X157480952Y-122190476D01*
X157528571Y-122238095D01*
X157576190Y-122333333D01*
X157576190Y-122714286D01*
X158052381Y-121190476D02*
X158052381Y-121761905D01*
X158052381Y-121476191D02*
X157052381Y-121476191D01*
X157195238Y-121571429D01*
X157290476Y-121666667D01*
X157338095Y-121761905D01*
X157147619Y-120809524D02*
X157100000Y-120761905D01*
X157052381Y-120666667D01*
X157052381Y-120428571D01*
X157100000Y-120333333D01*
X157147619Y-120285714D01*
X157242857Y-120238095D01*
X157338095Y-120238095D01*
X157480952Y-120285714D01*
X158052381Y-120857143D01*
X158052381Y-120238095D01*
X137357143Y-82952381D02*
X137023809Y-82476190D01*
X136785714Y-82952381D02*
X136785714Y-81952381D01*
X137166667Y-81952381D01*
X137261905Y-82000000D01*
X137309524Y-82047619D01*
X137357143Y-82142857D01*
X137357143Y-82285714D01*
X137309524Y-82380952D01*
X137261905Y-82428571D01*
X137166667Y-82476190D01*
X136785714Y-82476190D01*
X138309524Y-82952381D02*
X137738095Y-82952381D01*
X138023809Y-82952381D02*
X138023809Y-81952381D01*
X137928571Y-82095238D01*
X137833333Y-82190476D01*
X137738095Y-82238095D01*
X138642857Y-81952381D02*
X139261905Y-81952381D01*
X138928571Y-82333333D01*
X139071429Y-82333333D01*
X139166667Y-82380952D01*
X139214286Y-82428571D01*
X139261905Y-82523810D01*
X139261905Y-82761905D01*
X139214286Y-82857143D01*
X139166667Y-82904762D01*
X139071429Y-82952381D01*
X138785714Y-82952381D01*
X138690476Y-82904762D01*
X138642857Y-82857143D01*
X146257143Y-82952381D02*
X145923809Y-82476190D01*
X145685714Y-82952381D02*
X145685714Y-81952381D01*
X146066667Y-81952381D01*
X146161905Y-82000000D01*
X146209524Y-82047619D01*
X146257143Y-82142857D01*
X146257143Y-82285714D01*
X146209524Y-82380952D01*
X146161905Y-82428571D01*
X146066667Y-82476190D01*
X145685714Y-82476190D01*
X147209524Y-82952381D02*
X146638095Y-82952381D01*
X146923809Y-82952381D02*
X146923809Y-81952381D01*
X146828571Y-82095238D01*
X146733333Y-82190476D01*
X146638095Y-82238095D01*
X148066667Y-82285714D02*
X148066667Y-82952381D01*
X147828571Y-81904762D02*
X147590476Y-82619048D01*
X148209524Y-82619048D01*
X128666667Y-124204762D02*
X128809524Y-124252381D01*
X129047620Y-124252381D01*
X129142858Y-124204762D01*
X129190477Y-124157143D01*
X129238096Y-124061905D01*
X129238096Y-123966667D01*
X129190477Y-123871429D01*
X129142858Y-123823810D01*
X129047620Y-123776190D01*
X128857143Y-123728571D01*
X128761905Y-123680952D01*
X128714286Y-123633333D01*
X128666667Y-123538095D01*
X128666667Y-123442857D01*
X128714286Y-123347619D01*
X128761905Y-123300000D01*
X128857143Y-123252381D01*
X129095239Y-123252381D01*
X129238096Y-123300000D01*
X129571429Y-123252381D02*
X129809524Y-124252381D01*
X130000001Y-123538095D01*
X130190477Y-124252381D01*
X130428572Y-123252381D01*
X131333334Y-124252381D02*
X130761905Y-124252381D01*
X131047619Y-124252381D02*
X131047619Y-123252381D01*
X130952381Y-123395238D01*
X130857143Y-123490476D01*
X130761905Y-123538095D01*
X153666667Y-116804762D02*
X153809524Y-116852381D01*
X154047620Y-116852381D01*
X154142858Y-116804762D01*
X154190477Y-116757143D01*
X154238096Y-116661905D01*
X154238096Y-116566667D01*
X154190477Y-116471429D01*
X154142858Y-116423810D01*
X154047620Y-116376190D01*
X153857143Y-116328571D01*
X153761905Y-116280952D01*
X153714286Y-116233333D01*
X153666667Y-116138095D01*
X153666667Y-116042857D01*
X153714286Y-115947619D01*
X153761905Y-115900000D01*
X153857143Y-115852381D01*
X154095239Y-115852381D01*
X154238096Y-115900000D01*
X154571429Y-115852381D02*
X154809524Y-116852381D01*
X155000001Y-116138095D01*
X155190477Y-116852381D01*
X155428572Y-115852381D01*
X155761905Y-115947619D02*
X155809524Y-115900000D01*
X155904762Y-115852381D01*
X156142858Y-115852381D01*
X156238096Y-115900000D01*
X156285715Y-115947619D01*
X156333334Y-116042857D01*
X156333334Y-116138095D01*
X156285715Y-116280952D01*
X155714286Y-116852381D01*
X156333334Y-116852381D01*
X158666667Y-116804762D02*
X158809524Y-116852381D01*
X159047620Y-116852381D01*
X159142858Y-116804762D01*
X159190477Y-116757143D01*
X159238096Y-116661905D01*
X159238096Y-116566667D01*
X159190477Y-116471429D01*
X159142858Y-116423810D01*
X159047620Y-116376190D01*
X158857143Y-116328571D01*
X158761905Y-116280952D01*
X158714286Y-116233333D01*
X158666667Y-116138095D01*
X158666667Y-116042857D01*
X158714286Y-115947619D01*
X158761905Y-115900000D01*
X158857143Y-115852381D01*
X159095239Y-115852381D01*
X159238096Y-115900000D01*
X159571429Y-115852381D02*
X159809524Y-116852381D01*
X160000001Y-116138095D01*
X160190477Y-116852381D01*
X160428572Y-115852381D01*
X160714286Y-115852381D02*
X161333334Y-115852381D01*
X161000000Y-116233333D01*
X161142858Y-116233333D01*
X161238096Y-116280952D01*
X161285715Y-116328571D01*
X161333334Y-116423810D01*
X161333334Y-116661905D01*
X161285715Y-116757143D01*
X161238096Y-116804762D01*
X161142858Y-116852381D01*
X160857143Y-116852381D01*
X160761905Y-116804762D01*
X160714286Y-116757143D01*
X134638095Y-77252381D02*
X134638095Y-78061905D01*
X134685714Y-78157143D01*
X134733333Y-78204762D01*
X134828571Y-78252381D01*
X135019048Y-78252381D01*
X135114286Y-78204762D01*
X135161905Y-78157143D01*
X135209524Y-78061905D01*
X135209524Y-77252381D01*
X136209524Y-78252381D02*
X135638095Y-78252381D01*
X135923809Y-78252381D02*
X135923809Y-77252381D01*
X135828571Y-77395238D01*
X135733333Y-77490476D01*
X135638095Y-77538095D01*
X130342857Y-105914286D02*
X131314286Y-105914286D01*
X131428571Y-105857143D01*
X131485714Y-105800000D01*
X131542857Y-105685714D01*
X131542857Y-105457143D01*
X131485714Y-105342857D01*
X131428571Y-105285714D01*
X131314286Y-105228571D01*
X130342857Y-105228571D01*
X130457143Y-104714286D02*
X130400000Y-104657143D01*
X130342857Y-104542857D01*
X130342857Y-104257143D01*
X130400000Y-104142857D01*
X130457143Y-104085714D01*
X130571429Y-104028571D01*
X130685714Y-104028571D01*
X130857143Y-104085714D01*
X131542857Y-104771428D01*
X131542857Y-104028571D01*
X143488095Y-106852381D02*
X143488095Y-107661905D01*
X143535714Y-107757143D01*
X143583333Y-107804762D01*
X143678571Y-107852381D01*
X143869048Y-107852381D01*
X143964286Y-107804762D01*
X144011905Y-107757143D01*
X144059524Y-107661905D01*
X144059524Y-106852381D01*
X144440476Y-106852381D02*
X145059524Y-106852381D01*
X144726190Y-107233333D01*
X144869048Y-107233333D01*
X144964286Y-107280952D01*
X145011905Y-107328571D01*
X145059524Y-107423810D01*
X145059524Y-107661905D01*
X145011905Y-107757143D01*
X144964286Y-107804762D01*
X144869048Y-107852381D01*
X144583333Y-107852381D01*
X144488095Y-107804762D01*
X144440476Y-107757143D01*
X127690476Y-98852381D02*
X128357143Y-99852381D01*
X128357143Y-98852381D02*
X127690476Y-99852381D01*
X129261905Y-99852381D02*
X128690476Y-99852381D01*
X128976190Y-99852381D02*
X128976190Y-98852381D01*
X128880952Y-98995238D01*
X128785714Y-99090476D01*
X128690476Y-99138095D01*
X136857143Y-111202381D02*
X136523809Y-110726190D01*
X136285714Y-111202381D02*
X136285714Y-110202381D01*
X136666667Y-110202381D01*
X136761905Y-110250000D01*
X136809524Y-110297619D01*
X136857143Y-110392857D01*
X136857143Y-110535714D01*
X136809524Y-110630952D01*
X136761905Y-110678571D01*
X136666667Y-110726190D01*
X136285714Y-110726190D01*
X137809524Y-111202381D02*
X137238095Y-111202381D01*
X137523809Y-111202381D02*
X137523809Y-110202381D01*
X137428571Y-110345238D01*
X137333333Y-110440476D01*
X137238095Y-110488095D01*
X138714286Y-110202381D02*
X138238095Y-110202381D01*
X138190476Y-110678571D01*
X138238095Y-110630952D01*
X138333333Y-110583333D01*
X138571429Y-110583333D01*
X138666667Y-110630952D01*
X138714286Y-110678571D01*
X138761905Y-110773810D01*
X138761905Y-111011905D01*
X138714286Y-111107143D01*
X138666667Y-111154762D01*
X138571429Y-111202381D01*
X138333333Y-111202381D01*
X138238095Y-111154762D01*
X138190476Y-111107143D01*
X136857143Y-112702381D02*
X136523809Y-112226190D01*
X136285714Y-112702381D02*
X136285714Y-111702381D01*
X136666667Y-111702381D01*
X136761905Y-111750000D01*
X136809524Y-111797619D01*
X136857143Y-111892857D01*
X136857143Y-112035714D01*
X136809524Y-112130952D01*
X136761905Y-112178571D01*
X136666667Y-112226190D01*
X136285714Y-112226190D01*
X137809524Y-112702381D02*
X137238095Y-112702381D01*
X137523809Y-112702381D02*
X137523809Y-111702381D01*
X137428571Y-111845238D01*
X137333333Y-111940476D01*
X137238095Y-111988095D01*
X138666667Y-111702381D02*
X138476190Y-111702381D01*
X138380952Y-111750000D01*
X138333333Y-111797619D01*
X138238095Y-111940476D01*
X138190476Y-112130952D01*
X138190476Y-112511905D01*
X138238095Y-112607143D01*
X138285714Y-112654762D01*
X138380952Y-112702381D01*
X138571429Y-112702381D01*
X138666667Y-112654762D01*
X138714286Y-112607143D01*
X138761905Y-112511905D01*
X138761905Y-112273810D01*
X138714286Y-112178571D01*
X138666667Y-112130952D01*
X138571429Y-112083333D01*
X138380952Y-112083333D01*
X138285714Y-112130952D01*
X138238095Y-112178571D01*
X138190476Y-112273810D01*
X136857143Y-114202381D02*
X136523809Y-113726190D01*
X136285714Y-114202381D02*
X136285714Y-113202381D01*
X136666667Y-113202381D01*
X136761905Y-113250000D01*
X136809524Y-113297619D01*
X136857143Y-113392857D01*
X136857143Y-113535714D01*
X136809524Y-113630952D01*
X136761905Y-113678571D01*
X136666667Y-113726190D01*
X136285714Y-113726190D01*
X137809524Y-114202381D02*
X137238095Y-114202381D01*
X137523809Y-114202381D02*
X137523809Y-113202381D01*
X137428571Y-113345238D01*
X137333333Y-113440476D01*
X137238095Y-113488095D01*
X138142857Y-113202381D02*
X138809524Y-113202381D01*
X138380952Y-114202381D01*
X144261905Y-112452381D02*
X144261905Y-111452381D01*
X144500000Y-111452381D01*
X144642858Y-111500000D01*
X144738096Y-111595238D01*
X144785715Y-111690476D01*
X144833334Y-111880952D01*
X144833334Y-112023810D01*
X144785715Y-112214286D01*
X144738096Y-112309524D01*
X144642858Y-112404762D01*
X144500000Y-112452381D01*
X144261905Y-112452381D01*
X145690477Y-111452381D02*
X145500000Y-111452381D01*
X145404762Y-111500000D01*
X145357143Y-111547619D01*
X145261905Y-111690476D01*
X145214286Y-111880952D01*
X145214286Y-112261905D01*
X145261905Y-112357143D01*
X145309524Y-112404762D01*
X145404762Y-112452381D01*
X145595239Y-112452381D01*
X145690477Y-112404762D01*
X145738096Y-112357143D01*
X145785715Y-112261905D01*
X145785715Y-112023810D01*
X145738096Y-111928571D01*
X145690477Y-111880952D01*
X145595239Y-111833333D01*
X145404762Y-111833333D01*
X145309524Y-111880952D01*
X145261905Y-111928571D01*
X145214286Y-112023810D01*
X144238095Y-119002381D02*
X144238095Y-119811905D01*
X144285714Y-119907143D01*
X144333333Y-119954762D01*
X144428571Y-120002381D01*
X144619048Y-120002381D01*
X144714286Y-119954762D01*
X144761905Y-119907143D01*
X144809524Y-119811905D01*
X144809524Y-119002381D01*
X145714286Y-119335714D02*
X145714286Y-120002381D01*
X145476190Y-118954762D02*
X145238095Y-119669048D01*
X145857143Y-119669048D01*
X156595238Y-99452381D02*
X156833333Y-100452381D01*
X157023810Y-99738095D01*
X157214286Y-100452381D01*
X157452381Y-99452381D01*
X157738095Y-99452381D02*
X158357143Y-99452381D01*
X158023809Y-99833333D01*
X158166667Y-99833333D01*
X158261905Y-99880952D01*
X158309524Y-99928571D01*
X158357143Y-100023810D01*
X158357143Y-100261905D01*
X158309524Y-100357143D01*
X158261905Y-100404762D01*
X158166667Y-100452381D01*
X157880952Y-100452381D01*
X157785714Y-100404762D01*
X157738095Y-100357143D01*
X154595238Y-103202381D02*
X154833333Y-104202381D01*
X155023810Y-103488095D01*
X155214286Y-104202381D01*
X155452381Y-103202381D01*
X156261905Y-103535714D02*
X156261905Y-104202381D01*
X156023809Y-103154762D02*
X155785714Y-103869048D01*
X156404762Y-103869048D01*
X152595238Y-104202381D02*
X152833333Y-105202381D01*
X153023810Y-104488095D01*
X153214286Y-105202381D01*
X153452381Y-104202381D01*
X154309524Y-104202381D02*
X153833333Y-104202381D01*
X153785714Y-104678571D01*
X153833333Y-104630952D01*
X153928571Y-104583333D01*
X154166667Y-104583333D01*
X154261905Y-104630952D01*
X154309524Y-104678571D01*
X154357143Y-104773810D01*
X154357143Y-105011905D01*
X154309524Y-105107143D01*
X154261905Y-105154762D01*
X154166667Y-105202381D01*
X153928571Y-105202381D01*
X153833333Y-105154762D01*
X153785714Y-105107143D01*
D14*
G36*
X166623000Y-89873000D02*
X153377000Y-89873000D01*
X153377000Y-86127000D01*
X166623000Y-86127000D01*
X166623000Y-89873000D01*
X166623000Y-89873000D01*
G37*
X166623000Y-89873000D02*
X153377000Y-89873000D01*
X153377000Y-86127000D01*
X166623000Y-86127000D01*
X166623000Y-89873000D01*
M02*
