G04 #@! TF.GenerationSoftware,KiCad,Pcbnew,5.0.0-rc3-6a2723a~65~ubuntu18.04.1*
G04 #@! TF.CreationDate,2018-07-14T21:10:53+02:00*
G04 #@! TF.ProjectId,can-node,63616E2D6E6F64652E6B696361645F70,1.1*
G04 #@! TF.SameCoordinates,Original*
G04 #@! TF.FileFunction,Legend,Top*
G04 #@! TF.FilePolarity,Positive*
%FSLAX46Y46*%
G04 Gerber Fmt 4.6, Leading zero omitted, Abs format (unit mm)*
G04 Created by KiCad (PCBNEW 5.0.0-rc3-6a2723a~65~ubuntu18.04.1) date Sat Jul 14 21:10:53 2018*
%MOMM*%
%LPD*%
G01*
G04 APERTURE LIST*
%ADD10C,0.150000*%
%ADD11C,0.120000*%
%ADD12C,0.200000*%
%ADD13C,1.000000*%
%ADD14C,0.300000*%
%ADD15C,0.187500*%
%ADD16C,0.250000*%
G04 APERTURE END LIST*
D10*
X123253571Y-114000000D02*
X123253571Y-113428571D01*
X123539285Y-113714285D02*
X122967857Y-113714285D01*
X122789285Y-113142857D02*
X122789285Y-112678571D01*
X123075000Y-112928571D01*
X123075000Y-112821428D01*
X123110714Y-112750000D01*
X123146428Y-112714285D01*
X123217857Y-112678571D01*
X123396428Y-112678571D01*
X123467857Y-112714285D01*
X123503571Y-112750000D01*
X123539285Y-112821428D01*
X123539285Y-113035714D01*
X123503571Y-113107142D01*
X123467857Y-113142857D01*
X123467857Y-112357142D02*
X123503571Y-112321428D01*
X123539285Y-112357142D01*
X123503571Y-112392857D01*
X123467857Y-112357142D01*
X123539285Y-112357142D01*
X122789285Y-112071428D02*
X122789285Y-111607142D01*
X123075000Y-111857142D01*
X123075000Y-111750000D01*
X123110714Y-111678571D01*
X123146428Y-111642857D01*
X123217857Y-111607142D01*
X123396428Y-111607142D01*
X123467857Y-111642857D01*
X123503571Y-111678571D01*
X123539285Y-111750000D01*
X123539285Y-111964285D01*
X123503571Y-112035714D01*
X123467857Y-112071428D01*
X122789285Y-111392857D02*
X123539285Y-111142857D01*
X122789285Y-110892857D01*
X122725000Y-102571428D02*
X122689285Y-102642857D01*
X122689285Y-102750000D01*
X122725000Y-102857142D01*
X122796428Y-102928571D01*
X122867857Y-102964285D01*
X123010714Y-103000000D01*
X123117857Y-103000000D01*
X123260714Y-102964285D01*
X123332142Y-102928571D01*
X123403571Y-102857142D01*
X123439285Y-102750000D01*
X123439285Y-102678571D01*
X123403571Y-102571428D01*
X123367857Y-102535714D01*
X123117857Y-102535714D01*
X123117857Y-102678571D01*
X123439285Y-102214285D02*
X122689285Y-102214285D01*
X123439285Y-101785714D01*
X122689285Y-101785714D01*
X123439285Y-101428571D02*
X122689285Y-101428571D01*
X122689285Y-101250000D01*
X122725000Y-101142857D01*
X122796428Y-101071428D01*
X122867857Y-101035714D01*
X123010714Y-101000000D01*
X123117857Y-101000000D01*
X123260714Y-101035714D01*
X123332142Y-101071428D01*
X123403571Y-101142857D01*
X123439285Y-101250000D01*
X123439285Y-101428571D01*
D11*
G04 #@! TO.C,C20*
X137871267Y-94510000D02*
X137528733Y-94510000D01*
X137871267Y-93490000D02*
X137528733Y-93490000D01*
D12*
G04 #@! TO.C,X1*
X143000000Y-99000000D02*
X143500000Y-99000000D01*
X143000000Y-98000000D02*
X143500000Y-98000000D01*
X143000000Y-99500000D02*
X143000000Y-97500000D01*
X136700000Y-99500000D02*
X143000000Y-99500000D01*
X136700000Y-97500000D02*
X136700000Y-99500000D01*
X143000000Y-97500000D02*
X136700000Y-97500000D01*
D10*
G04 #@! TO.C,AFF1*
X165900000Y-89900000D02*
X124100000Y-89900000D01*
X165900000Y-77100000D02*
X165900000Y-89900000D01*
X124100000Y-77100000D02*
X165900000Y-77100000D01*
X124100000Y-89900000D02*
X124100000Y-77100000D01*
D12*
G04 #@! TO.C,C22*
X135300000Y-107200000D02*
G75*
G03X135300000Y-107200000I-6500000J0D01*
G01*
D13*
X125000000Y-107200000D02*
G75*
G03X125000000Y-107200000I-1200000J0D01*
G01*
D11*
G04 #@! TO.C,D1*
X129900000Y-76150000D02*
X123000000Y-76150000D01*
X129900000Y-72850000D02*
X123000000Y-72850000D01*
X129900000Y-76150000D02*
X129900000Y-72850000D01*
G04 #@! TO.C,D4*
X123450000Y-121800000D02*
X124550000Y-121800000D01*
X124550000Y-121800000D02*
X124550000Y-119200000D01*
X123450000Y-121800000D02*
X123450000Y-119200000D01*
G04 #@! TO.C,D5*
X165450000Y-121800000D02*
X165450000Y-119200000D01*
X166550000Y-121800000D02*
X166550000Y-119200000D01*
X165450000Y-121800000D02*
X166550000Y-121800000D01*
D10*
G04 #@! TO.C,L1*
X147000000Y-66600000D02*
X148600000Y-66600000D01*
X147000000Y-72200000D02*
X148600000Y-72200000D01*
G04 #@! TO.C,SW2*
X136300000Y-121600000D02*
X136300000Y-118300000D01*
X133700000Y-121600000D02*
X133700000Y-118400000D01*
X134700000Y-117700000D02*
X135300000Y-117700000D01*
X135300000Y-122300000D02*
X134700000Y-122300000D01*
G04 #@! TO.C,SW3*
X155300000Y-122300000D02*
X154700000Y-122300000D01*
X154700000Y-117700000D02*
X155300000Y-117700000D01*
X153700000Y-121600000D02*
X153700000Y-118400000D01*
X156300000Y-121600000D02*
X156300000Y-118300000D01*
G04 #@! TO.C,U5*
X141800000Y-95600000D02*
X142000000Y-95400000D01*
X142000000Y-95400000D02*
X142200000Y-95600000D01*
X142200000Y-95600000D02*
X142650000Y-95600000D01*
X142650000Y-92400000D02*
X141350000Y-92400000D01*
X141350000Y-95600000D02*
X141800000Y-95600000D01*
D11*
G04 #@! TO.C,D3*
X143000000Y-70650000D02*
X141000000Y-70650000D01*
X141000000Y-70650000D02*
X141000000Y-74550000D01*
X143000000Y-70650000D02*
X143000000Y-74550000D01*
G04 #@! TO.C,D6*
X138000000Y-107250000D02*
X140000000Y-107250000D01*
X140000000Y-107250000D02*
X140000000Y-103350000D01*
X138000000Y-107250000D02*
X138000000Y-103350000D01*
D14*
G04 #@! TO.C,U1*
X140500000Y-69800000D02*
X140500000Y-68200000D01*
D10*
X137500000Y-69800000D02*
X137500000Y-68300000D01*
G04 #@! TO.C,U3*
X150750000Y-95850000D02*
X149850000Y-95850000D01*
X149850000Y-95850000D02*
X149850000Y-96750000D01*
X149850000Y-96750000D02*
X147850000Y-96750000D01*
X159250000Y-95850000D02*
X160150000Y-95850000D01*
X160150000Y-95850000D02*
X160150000Y-96750000D01*
X150750000Y-106150000D02*
X149850000Y-106150000D01*
X149850000Y-106150000D02*
X149850000Y-105250000D01*
X159250000Y-106150000D02*
X160150000Y-106150000D01*
X160150000Y-106150000D02*
X160150000Y-105250000D01*
G04 #@! TO.C,SW1*
X128700000Y-118400000D02*
X128700000Y-121700000D01*
X131300000Y-118400000D02*
X131300000Y-121600000D01*
X130300000Y-122300000D02*
X129700000Y-122300000D01*
X129700000Y-117700000D02*
X130300000Y-117700000D01*
D11*
G04 #@! TO.C,D2*
X131500000Y-72250000D02*
X125500000Y-72250000D01*
X131500000Y-69750000D02*
X125500000Y-69750000D01*
X131500000Y-72250000D02*
X131500000Y-69750000D01*
G04 #@! TO.C,C1*
X136097936Y-73140000D02*
X138902064Y-73140000D01*
X136097936Y-75860000D02*
X138902064Y-75860000D01*
G04 #@! TO.C,R2*
X134828733Y-71510000D02*
X135171267Y-71510000D01*
X134828733Y-70490000D02*
X135171267Y-70490000D01*
G04 #@! TO.C,R3*
X134828733Y-69010000D02*
X135171267Y-69010000D01*
X134828733Y-67990000D02*
X135171267Y-67990000D01*
G04 #@! TO.C,R4*
X135171267Y-67510000D02*
X134828733Y-67510000D01*
X135171267Y-66490000D02*
X134828733Y-66490000D01*
G04 #@! TO.C,C2*
X141490000Y-68171267D02*
X141490000Y-67828733D01*
X142510000Y-68171267D02*
X142510000Y-67828733D01*
G04 #@! TO.C,C3*
X148602064Y-73090000D02*
X147397936Y-73090000D01*
X148602064Y-74910000D02*
X147397936Y-74910000D01*
G04 #@! TO.C,C15*
X131990000Y-121828733D02*
X131990000Y-122171267D01*
X133010000Y-121828733D02*
X133010000Y-122171267D01*
G04 #@! TO.C,C17*
X157490000Y-117671267D02*
X157490000Y-117328733D01*
X158510000Y-117671267D02*
X158510000Y-117328733D01*
G04 #@! TO.C,C18*
X148760000Y-121828733D02*
X148760000Y-122171267D01*
X147740000Y-121828733D02*
X147740000Y-122171267D01*
G04 #@! TO.C,R7*
X125490000Y-119828733D02*
X125490000Y-120171267D01*
X126510000Y-119828733D02*
X126510000Y-120171267D01*
G04 #@! TO.C,R8*
X164510000Y-119728733D02*
X164510000Y-120071267D01*
X163490000Y-119728733D02*
X163490000Y-120071267D01*
G04 #@! TO.C,R9*
X131990000Y-117078733D02*
X131990000Y-117421267D01*
X133010000Y-117078733D02*
X133010000Y-117421267D01*
G04 #@! TO.C,R12*
X157490000Y-121921267D02*
X157490000Y-121578733D01*
X158510000Y-121921267D02*
X158510000Y-121578733D01*
D10*
G04 #@! TO.C,U2*
X165900000Y-106200000D02*
X165900000Y-104800000D01*
X165900000Y-104800000D02*
X168100000Y-104800000D01*
X168100000Y-104800000D02*
X168100000Y-106200000D01*
X168100000Y-106200000D02*
X165900000Y-106200000D01*
X165700000Y-106200000D02*
X165900000Y-106200000D01*
D11*
G04 #@! TO.C,C13*
X158671267Y-108890000D02*
X158328733Y-108890000D01*
X158671267Y-109910000D02*
X158328733Y-109910000D01*
G04 #@! TO.C,C14*
X152171267Y-109910000D02*
X151828733Y-109910000D01*
X152171267Y-108890000D02*
X151828733Y-108890000D01*
G04 #@! TO.C,C10*
X165960000Y-97292017D02*
X165960000Y-97707983D01*
X164540000Y-97292017D02*
X164540000Y-97707983D01*
G04 #@! TO.C,C11*
X164010000Y-97328733D02*
X164010000Y-97671267D01*
X162990000Y-97328733D02*
X162990000Y-97671267D01*
G04 #@! TO.C,C6*
X143540000Y-103957983D02*
X143540000Y-103542017D01*
X144960000Y-103957983D02*
X144960000Y-103542017D01*
G04 #@! TO.C,C8*
X145490000Y-104171267D02*
X145490000Y-103828733D01*
X146510000Y-104171267D02*
X146510000Y-103828733D01*
G04 #@! TO.C,C4*
X147310000Y-96921267D02*
X147310000Y-96578733D01*
X146290000Y-96921267D02*
X146290000Y-96578733D01*
G04 #@! TO.C,C5*
X147310000Y-100328733D02*
X147310000Y-100671267D01*
X146290000Y-100328733D02*
X146290000Y-100671267D01*
G04 #@! TO.C,C12*
X151403734Y-92295001D02*
X151746268Y-92295001D01*
X151403734Y-93315001D02*
X151746268Y-93315001D01*
G04 #@! TO.C,C16*
X151292017Y-90365001D02*
X151707983Y-90365001D01*
X151292017Y-91785001D02*
X151707983Y-91785001D01*
G04 #@! TO.C,R13*
X137528733Y-96010000D02*
X137871267Y-96010000D01*
X137528733Y-94990000D02*
X137871267Y-94990000D01*
G04 #@! TO.C,R14*
X137871267Y-93010000D02*
X137528733Y-93010000D01*
X137871267Y-91990000D02*
X137528733Y-91990000D01*
G04 #@! TO.C,R15*
X139710000Y-109692017D02*
X139710000Y-110107983D01*
X138290000Y-109692017D02*
X138290000Y-110107983D01*
G04 #@! TO.C,R10*
X143910000Y-109828733D02*
X143910000Y-110171267D01*
X142890000Y-109828733D02*
X142890000Y-110171267D01*
G04 #@! TO.C,R11*
X146090000Y-109828733D02*
X146090000Y-110171267D01*
X147110000Y-109828733D02*
X147110000Y-110171267D01*
G04 #@! TO.C,C7*
X165510000Y-105828733D02*
X165510000Y-106171267D01*
X164490000Y-105828733D02*
X164490000Y-106171267D01*
G04 #@! TO.C,R5*
X166510000Y-110071267D02*
X166510000Y-109728733D01*
X165490000Y-110071267D02*
X165490000Y-109728733D01*
G04 #@! TO.C,R6*
X167090000Y-110071267D02*
X167090000Y-109728733D01*
X168110000Y-110071267D02*
X168110000Y-109728733D01*
G04 #@! TO.C,C9*
X161410000Y-108928733D02*
X161410000Y-109271267D01*
X160390000Y-108928733D02*
X160390000Y-109271267D01*
G04 #@! TO.C,C19*
X144190000Y-93828733D02*
X144190000Y-94171267D01*
X145210000Y-93828733D02*
X145210000Y-94171267D01*
G04 #@! TO.C,C20*
D10*
X137057142Y-95787142D02*
X137009523Y-95834761D01*
X136866666Y-95882380D01*
X136771428Y-95882380D01*
X136628571Y-95834761D01*
X136533333Y-95739523D01*
X136485714Y-95644285D01*
X136438095Y-95453809D01*
X136438095Y-95310952D01*
X136485714Y-95120476D01*
X136533333Y-95025238D01*
X136628571Y-94930000D01*
X136771428Y-94882380D01*
X136866666Y-94882380D01*
X137009523Y-94930000D01*
X137057142Y-94977619D01*
X137438095Y-94977619D02*
X137485714Y-94930000D01*
X137580952Y-94882380D01*
X137819047Y-94882380D01*
X137914285Y-94930000D01*
X137961904Y-94977619D01*
X138009523Y-95072857D01*
X138009523Y-95168095D01*
X137961904Y-95310952D01*
X137390476Y-95882380D01*
X138009523Y-95882380D01*
X138628571Y-94882380D02*
X138723809Y-94882380D01*
X138819047Y-94930000D01*
X138866666Y-94977619D01*
X138914285Y-95072857D01*
X138961904Y-95263333D01*
X138961904Y-95501428D01*
X138914285Y-95691904D01*
X138866666Y-95787142D01*
X138819047Y-95834761D01*
X138723809Y-95882380D01*
X138628571Y-95882380D01*
X138533333Y-95834761D01*
X138485714Y-95787142D01*
X138438095Y-95691904D01*
X138390476Y-95501428D01*
X138390476Y-95263333D01*
X138438095Y-95072857D01*
X138485714Y-94977619D01*
X138533333Y-94930000D01*
X138628571Y-94882380D01*
G04 #@! TO.C,X1*
D12*
X140290476Y-99952380D02*
X140957142Y-100952380D01*
X140957142Y-99952380D02*
X140290476Y-100952380D01*
X141861904Y-100952380D02*
X141290476Y-100952380D01*
X141576190Y-100952380D02*
X141576190Y-99952380D01*
X141480952Y-100095238D01*
X141385714Y-100190476D01*
X141290476Y-100238095D01*
G04 #@! TO.C,W1*
X147795238Y-92452380D02*
X148033333Y-93452380D01*
X148223809Y-92738095D01*
X148414285Y-93452380D01*
X148652380Y-92452380D01*
X149557142Y-93452380D02*
X148985714Y-93452380D01*
X149271428Y-93452380D02*
X149271428Y-92452380D01*
X149176190Y-92595238D01*
X149080952Y-92690476D01*
X148985714Y-92738095D01*
G04 #@! TO.C,W2*
X137795238Y-90252380D02*
X138033333Y-91252380D01*
X138223809Y-90538095D01*
X138414285Y-91252380D01*
X138652380Y-90252380D01*
X138985714Y-90347619D02*
X139033333Y-90300000D01*
X139128571Y-90252380D01*
X139366666Y-90252380D01*
X139461904Y-90300000D01*
X139509523Y-90347619D01*
X139557142Y-90442857D01*
X139557142Y-90538095D01*
X139509523Y-90680952D01*
X138938095Y-91252380D01*
X139557142Y-91252380D01*
G04 #@! TO.C,URX*
X166552380Y-100961904D02*
X167361904Y-100961904D01*
X167457142Y-100914285D01*
X167504761Y-100866666D01*
X167552380Y-100771428D01*
X167552380Y-100580952D01*
X167504761Y-100485714D01*
X167457142Y-100438095D01*
X167361904Y-100390476D01*
X166552380Y-100390476D01*
X167552380Y-99342857D02*
X167076190Y-99676190D01*
X167552380Y-99914285D02*
X166552380Y-99914285D01*
X166552380Y-99533333D01*
X166600000Y-99438095D01*
X166647619Y-99390476D01*
X166742857Y-99342857D01*
X166885714Y-99342857D01*
X166980952Y-99390476D01*
X167028571Y-99438095D01*
X167076190Y-99533333D01*
X167076190Y-99914285D01*
X166552380Y-99009523D02*
X167552380Y-98342857D01*
X166552380Y-98342857D02*
X167552380Y-99009523D01*
G04 #@! TO.C,UTX*
X162657142Y-102252380D02*
X162657142Y-103061904D01*
X162704761Y-103157142D01*
X162752380Y-103204761D01*
X162847619Y-103252380D01*
X163038095Y-103252380D01*
X163133333Y-103204761D01*
X163180952Y-103157142D01*
X163228571Y-103061904D01*
X163228571Y-102252380D01*
X163561904Y-102252380D02*
X164133333Y-102252380D01*
X163847619Y-103252380D02*
X163847619Y-102252380D01*
X164371428Y-102252380D02*
X165038095Y-103252380D01*
X165038095Y-102252380D02*
X164371428Y-103252380D01*
G04 #@! TO.C,W8*
X131095238Y-72702380D02*
X131333333Y-73702380D01*
X131523809Y-72988095D01*
X131714285Y-73702380D01*
X131952380Y-72702380D01*
X132476190Y-73130952D02*
X132380952Y-73083333D01*
X132333333Y-73035714D01*
X132285714Y-72940476D01*
X132285714Y-72892857D01*
X132333333Y-72797619D01*
X132380952Y-72750000D01*
X132476190Y-72702380D01*
X132666666Y-72702380D01*
X132761904Y-72750000D01*
X132809523Y-72797619D01*
X132857142Y-72892857D01*
X132857142Y-72940476D01*
X132809523Y-73035714D01*
X132761904Y-73083333D01*
X132666666Y-73130952D01*
X132476190Y-73130952D01*
X132380952Y-73178571D01*
X132333333Y-73226190D01*
X132285714Y-73321428D01*
X132285714Y-73511904D01*
X132333333Y-73607142D01*
X132380952Y-73654761D01*
X132476190Y-73702380D01*
X132666666Y-73702380D01*
X132761904Y-73654761D01*
X132809523Y-73607142D01*
X132857142Y-73511904D01*
X132857142Y-73321428D01*
X132809523Y-73226190D01*
X132761904Y-73178571D01*
X132666666Y-73130952D01*
G04 #@! TO.C,W12*
D15*
X152464285Y-73589285D02*
X152642857Y-74339285D01*
X152785714Y-73803571D01*
X152928571Y-74339285D01*
X153107142Y-73589285D01*
X153785714Y-74339285D02*
X153357142Y-74339285D01*
X153571428Y-74339285D02*
X153571428Y-73589285D01*
X153500000Y-73696428D01*
X153428571Y-73767857D01*
X153357142Y-73803571D01*
X154071428Y-73660714D02*
X154107142Y-73625000D01*
X154178571Y-73589285D01*
X154357142Y-73589285D01*
X154428571Y-73625000D01*
X154464285Y-73660714D01*
X154500000Y-73732142D01*
X154500000Y-73803571D01*
X154464285Y-73910714D01*
X154035714Y-74339285D01*
X154500000Y-74339285D01*
G04 #@! TO.C,U4*
D12*
X144238095Y-119252380D02*
X144238095Y-120061904D01*
X144285714Y-120157142D01*
X144333333Y-120204761D01*
X144428571Y-120252380D01*
X144619047Y-120252380D01*
X144714285Y-120204761D01*
X144761904Y-120157142D01*
X144809523Y-120061904D01*
X144809523Y-119252380D01*
X145714285Y-119585714D02*
X145714285Y-120252380D01*
X145476190Y-119204761D02*
X145238095Y-119919047D01*
X145857142Y-119919047D01*
G04 #@! TO.C,AFF1*
X167266666Y-85071428D02*
X167266666Y-84595238D01*
X167552380Y-85166666D02*
X166552380Y-84833333D01*
X167552380Y-84500000D01*
X167028571Y-83833333D02*
X167028571Y-84166666D01*
X167552380Y-84166666D02*
X166552380Y-84166666D01*
X166552380Y-83690476D01*
X167028571Y-82976190D02*
X167028571Y-83309523D01*
X167552380Y-83309523D02*
X166552380Y-83309523D01*
X166552380Y-82833333D01*
X167552380Y-81928571D02*
X167552380Y-82500000D01*
X167552380Y-82214285D02*
X166552380Y-82214285D01*
X166695238Y-82309523D01*
X166790476Y-82404761D01*
X166838095Y-82500000D01*
G04 #@! TO.C,C22*
X127757142Y-114957142D02*
X127709523Y-115004761D01*
X127566666Y-115052380D01*
X127471428Y-115052380D01*
X127328571Y-115004761D01*
X127233333Y-114909523D01*
X127185714Y-114814285D01*
X127138095Y-114623809D01*
X127138095Y-114480952D01*
X127185714Y-114290476D01*
X127233333Y-114195238D01*
X127328571Y-114100000D01*
X127471428Y-114052380D01*
X127566666Y-114052380D01*
X127709523Y-114100000D01*
X127757142Y-114147619D01*
X128138095Y-114147619D02*
X128185714Y-114100000D01*
X128280952Y-114052380D01*
X128519047Y-114052380D01*
X128614285Y-114100000D01*
X128661904Y-114147619D01*
X128709523Y-114242857D01*
X128709523Y-114338095D01*
X128661904Y-114480952D01*
X128090476Y-115052380D01*
X128709523Y-115052380D01*
X129090476Y-114147619D02*
X129138095Y-114100000D01*
X129233333Y-114052380D01*
X129471428Y-114052380D01*
X129566666Y-114100000D01*
X129614285Y-114147619D01*
X129661904Y-114242857D01*
X129661904Y-114338095D01*
X129614285Y-114480952D01*
X129042857Y-115052380D01*
X129661904Y-115052380D01*
D10*
X120819047Y-107271428D02*
X121580952Y-107271428D01*
G04 #@! TO.C,D1*
X124761904Y-77452380D02*
X124761904Y-76452380D01*
X125000000Y-76452380D01*
X125142857Y-76500000D01*
X125238095Y-76595238D01*
X125285714Y-76690476D01*
X125333333Y-76880952D01*
X125333333Y-77023809D01*
X125285714Y-77214285D01*
X125238095Y-77309523D01*
X125142857Y-77404761D01*
X125000000Y-77452380D01*
X124761904Y-77452380D01*
X126285714Y-77452380D02*
X125714285Y-77452380D01*
X126000000Y-77452380D02*
X126000000Y-76452380D01*
X125904761Y-76595238D01*
X125809523Y-76690476D01*
X125714285Y-76738095D01*
G04 #@! TO.C,D4*
X123002380Y-120738095D02*
X122002380Y-120738095D01*
X122002380Y-120500000D01*
X122050000Y-120357142D01*
X122145238Y-120261904D01*
X122240476Y-120214285D01*
X122430952Y-120166666D01*
X122573809Y-120166666D01*
X122764285Y-120214285D01*
X122859523Y-120261904D01*
X122954761Y-120357142D01*
X123002380Y-120500000D01*
X123002380Y-120738095D01*
X122335714Y-119309523D02*
X123002380Y-119309523D01*
X121954761Y-119547619D02*
X122669047Y-119785714D01*
X122669047Y-119166666D01*
G04 #@! TO.C,D5*
X167852380Y-120738095D02*
X166852380Y-120738095D01*
X166852380Y-120500000D01*
X166900000Y-120357142D01*
X166995238Y-120261904D01*
X167090476Y-120214285D01*
X167280952Y-120166666D01*
X167423809Y-120166666D01*
X167614285Y-120214285D01*
X167709523Y-120261904D01*
X167804761Y-120357142D01*
X167852380Y-120500000D01*
X167852380Y-120738095D01*
X166852380Y-119261904D02*
X166852380Y-119738095D01*
X167328571Y-119785714D01*
X167280952Y-119738095D01*
X167233333Y-119642857D01*
X167233333Y-119404761D01*
X167280952Y-119309523D01*
X167328571Y-119261904D01*
X167423809Y-119214285D01*
X167661904Y-119214285D01*
X167757142Y-119261904D01*
X167804761Y-119309523D01*
X167852380Y-119404761D01*
X167852380Y-119642857D01*
X167804761Y-119738095D01*
X167757142Y-119785714D01*
G04 #@! TO.C,L1*
D12*
X153552380Y-69666666D02*
X153552380Y-70142857D01*
X152552380Y-70142857D01*
X153552380Y-68809523D02*
X153552380Y-69380952D01*
X153552380Y-69095238D02*
X152552380Y-69095238D01*
X152695238Y-69190476D01*
X152790476Y-69285714D01*
X152838095Y-69380952D01*
G04 #@! TO.C,SW2*
D16*
X133500000Y-124085714D02*
X133671428Y-124142857D01*
X133957142Y-124142857D01*
X134071428Y-124085714D01*
X134128571Y-124028571D01*
X134185714Y-123914285D01*
X134185714Y-123800000D01*
X134128571Y-123685714D01*
X134071428Y-123628571D01*
X133957142Y-123571428D01*
X133728571Y-123514285D01*
X133614285Y-123457142D01*
X133557142Y-123400000D01*
X133500000Y-123285714D01*
X133500000Y-123171428D01*
X133557142Y-123057142D01*
X133614285Y-123000000D01*
X133728571Y-122942857D01*
X134014285Y-122942857D01*
X134185714Y-123000000D01*
X134585714Y-122942857D02*
X134871428Y-124142857D01*
X135100000Y-123285714D01*
X135328571Y-124142857D01*
X135614285Y-122942857D01*
X136014285Y-123057142D02*
X136071428Y-123000000D01*
X136185714Y-122942857D01*
X136471428Y-122942857D01*
X136585714Y-123000000D01*
X136642857Y-123057142D01*
X136700000Y-123171428D01*
X136700000Y-123285714D01*
X136642857Y-123457142D01*
X135957142Y-124142857D01*
X136700000Y-124142857D01*
G04 #@! TO.C,SW3*
X153400000Y-124085714D02*
X153571428Y-124142857D01*
X153857142Y-124142857D01*
X153971428Y-124085714D01*
X154028571Y-124028571D01*
X154085714Y-123914285D01*
X154085714Y-123800000D01*
X154028571Y-123685714D01*
X153971428Y-123628571D01*
X153857142Y-123571428D01*
X153628571Y-123514285D01*
X153514285Y-123457142D01*
X153457142Y-123400000D01*
X153400000Y-123285714D01*
X153400000Y-123171428D01*
X153457142Y-123057142D01*
X153514285Y-123000000D01*
X153628571Y-122942857D01*
X153914285Y-122942857D01*
X154085714Y-123000000D01*
X154485714Y-122942857D02*
X154771428Y-124142857D01*
X155000000Y-123285714D01*
X155228571Y-124142857D01*
X155514285Y-122942857D01*
X155857142Y-122942857D02*
X156600000Y-122942857D01*
X156200000Y-123400000D01*
X156371428Y-123400000D01*
X156485714Y-123457142D01*
X156542857Y-123514285D01*
X156600000Y-123628571D01*
X156600000Y-123914285D01*
X156542857Y-124028571D01*
X156485714Y-124085714D01*
X156371428Y-124142857D01*
X156028571Y-124142857D01*
X155914285Y-124085714D01*
X155857142Y-124028571D01*
G04 #@! TO.C,U5*
D12*
X141238095Y-91152380D02*
X141238095Y-91961904D01*
X141285714Y-92057142D01*
X141333333Y-92104761D01*
X141428571Y-92152380D01*
X141619047Y-92152380D01*
X141714285Y-92104761D01*
X141761904Y-92057142D01*
X141809523Y-91961904D01*
X141809523Y-91152380D01*
X142761904Y-91152380D02*
X142285714Y-91152380D01*
X142238095Y-91628571D01*
X142285714Y-91580952D01*
X142380952Y-91533333D01*
X142619047Y-91533333D01*
X142714285Y-91580952D01*
X142761904Y-91628571D01*
X142809523Y-91723809D01*
X142809523Y-91961904D01*
X142761904Y-92057142D01*
X142714285Y-92104761D01*
X142619047Y-92152380D01*
X142380952Y-92152380D01*
X142285714Y-92104761D01*
X142238095Y-92057142D01*
G04 #@! TO.C,D3*
D10*
X144202380Y-74238095D02*
X143202380Y-74238095D01*
X143202380Y-74000000D01*
X143250000Y-73857142D01*
X143345238Y-73761904D01*
X143440476Y-73714285D01*
X143630952Y-73666666D01*
X143773809Y-73666666D01*
X143964285Y-73714285D01*
X144059523Y-73761904D01*
X144154761Y-73857142D01*
X144202380Y-74000000D01*
X144202380Y-74238095D01*
X143202380Y-73333333D02*
X143202380Y-72714285D01*
X143583333Y-73047619D01*
X143583333Y-72904761D01*
X143630952Y-72809523D01*
X143678571Y-72761904D01*
X143773809Y-72714285D01*
X144011904Y-72714285D01*
X144107142Y-72761904D01*
X144154761Y-72809523D01*
X144202380Y-72904761D01*
X144202380Y-73190476D01*
X144154761Y-73285714D01*
X144107142Y-73333333D01*
G04 #@! TO.C,D6*
X141252380Y-105738095D02*
X140252380Y-105738095D01*
X140252380Y-105500000D01*
X140300000Y-105357142D01*
X140395238Y-105261904D01*
X140490476Y-105214285D01*
X140680952Y-105166666D01*
X140823809Y-105166666D01*
X141014285Y-105214285D01*
X141109523Y-105261904D01*
X141204761Y-105357142D01*
X141252380Y-105500000D01*
X141252380Y-105738095D01*
X140252380Y-104309523D02*
X140252380Y-104500000D01*
X140300000Y-104595238D01*
X140347619Y-104642857D01*
X140490476Y-104738095D01*
X140680952Y-104785714D01*
X141061904Y-104785714D01*
X141157142Y-104738095D01*
X141204761Y-104690476D01*
X141252380Y-104595238D01*
X141252380Y-104404761D01*
X141204761Y-104309523D01*
X141157142Y-104261904D01*
X141061904Y-104214285D01*
X140823809Y-104214285D01*
X140728571Y-104261904D01*
X140680952Y-104309523D01*
X140633333Y-104404761D01*
X140633333Y-104595238D01*
X140680952Y-104690476D01*
X140728571Y-104738095D01*
X140823809Y-104785714D01*
G04 #@! TO.C,U1*
X139138095Y-71552380D02*
X139138095Y-72361904D01*
X139185714Y-72457142D01*
X139233333Y-72504761D01*
X139328571Y-72552380D01*
X139519047Y-72552380D01*
X139614285Y-72504761D01*
X139661904Y-72457142D01*
X139709523Y-72361904D01*
X139709523Y-71552380D01*
X140709523Y-72552380D02*
X140138095Y-72552380D01*
X140423809Y-72552380D02*
X140423809Y-71552380D01*
X140328571Y-71695238D01*
X140233333Y-71790476D01*
X140138095Y-71838095D01*
G04 #@! TO.C,U3*
X155438095Y-92302380D02*
X155438095Y-93111904D01*
X155485714Y-93207142D01*
X155533333Y-93254761D01*
X155628571Y-93302380D01*
X155819047Y-93302380D01*
X155914285Y-93254761D01*
X155961904Y-93207142D01*
X156009523Y-93111904D01*
X156009523Y-92302380D01*
X156390476Y-92302380D02*
X157009523Y-92302380D01*
X156676190Y-92683333D01*
X156819047Y-92683333D01*
X156914285Y-92730952D01*
X156961904Y-92778571D01*
X157009523Y-92873809D01*
X157009523Y-93111904D01*
X156961904Y-93207142D01*
X156914285Y-93254761D01*
X156819047Y-93302380D01*
X156533333Y-93302380D01*
X156438095Y-93254761D01*
X156390476Y-93207142D01*
G04 #@! TO.C,SW1*
D16*
X128400000Y-123985714D02*
X128571428Y-124042857D01*
X128857142Y-124042857D01*
X128971428Y-123985714D01*
X129028571Y-123928571D01*
X129085714Y-123814285D01*
X129085714Y-123700000D01*
X129028571Y-123585714D01*
X128971428Y-123528571D01*
X128857142Y-123471428D01*
X128628571Y-123414285D01*
X128514285Y-123357142D01*
X128457142Y-123300000D01*
X128400000Y-123185714D01*
X128400000Y-123071428D01*
X128457142Y-122957142D01*
X128514285Y-122900000D01*
X128628571Y-122842857D01*
X128914285Y-122842857D01*
X129085714Y-122900000D01*
X129485714Y-122842857D02*
X129771428Y-124042857D01*
X130000000Y-123185714D01*
X130228571Y-124042857D01*
X130514285Y-122842857D01*
X131600000Y-124042857D02*
X130914285Y-124042857D01*
X131257142Y-124042857D02*
X131257142Y-122842857D01*
X131142857Y-123014285D01*
X131028571Y-123128571D01*
X130914285Y-123185714D01*
G04 #@! TO.C,D2*
D10*
X127761904Y-69452380D02*
X127761904Y-68452380D01*
X128000000Y-68452380D01*
X128142857Y-68500000D01*
X128238095Y-68595238D01*
X128285714Y-68690476D01*
X128333333Y-68880952D01*
X128333333Y-69023809D01*
X128285714Y-69214285D01*
X128238095Y-69309523D01*
X128142857Y-69404761D01*
X128000000Y-69452380D01*
X127761904Y-69452380D01*
X128714285Y-68547619D02*
X128761904Y-68500000D01*
X128857142Y-68452380D01*
X129095238Y-68452380D01*
X129190476Y-68500000D01*
X129238095Y-68547619D01*
X129285714Y-68642857D01*
X129285714Y-68738095D01*
X129238095Y-68880952D01*
X128666666Y-69452380D01*
X129285714Y-69452380D01*
G04 #@! TO.C,C1*
X137333333Y-72577142D02*
X137285714Y-72624761D01*
X137142857Y-72672380D01*
X137047619Y-72672380D01*
X136904761Y-72624761D01*
X136809523Y-72529523D01*
X136761904Y-72434285D01*
X136714285Y-72243809D01*
X136714285Y-72100952D01*
X136761904Y-71910476D01*
X136809523Y-71815238D01*
X136904761Y-71720000D01*
X137047619Y-71672380D01*
X137142857Y-71672380D01*
X137285714Y-71720000D01*
X137333333Y-71767619D01*
X138285714Y-72672380D02*
X137714285Y-72672380D01*
X138000000Y-72672380D02*
X138000000Y-71672380D01*
X137904761Y-71815238D01*
X137809523Y-71910476D01*
X137714285Y-71958095D01*
G04 #@! TO.C,R2*
X132333333Y-71452380D02*
X132000000Y-70976190D01*
X131761904Y-71452380D02*
X131761904Y-70452380D01*
X132142857Y-70452380D01*
X132238095Y-70500000D01*
X132285714Y-70547619D01*
X132333333Y-70642857D01*
X132333333Y-70785714D01*
X132285714Y-70880952D01*
X132238095Y-70928571D01*
X132142857Y-70976190D01*
X131761904Y-70976190D01*
X132714285Y-70547619D02*
X132761904Y-70500000D01*
X132857142Y-70452380D01*
X133095238Y-70452380D01*
X133190476Y-70500000D01*
X133238095Y-70547619D01*
X133285714Y-70642857D01*
X133285714Y-70738095D01*
X133238095Y-70880952D01*
X132666666Y-71452380D01*
X133285714Y-71452380D01*
G04 #@! TO.C,R3*
X131533333Y-67452380D02*
X131200000Y-66976190D01*
X130961904Y-67452380D02*
X130961904Y-66452380D01*
X131342857Y-66452380D01*
X131438095Y-66500000D01*
X131485714Y-66547619D01*
X131533333Y-66642857D01*
X131533333Y-66785714D01*
X131485714Y-66880952D01*
X131438095Y-66928571D01*
X131342857Y-66976190D01*
X130961904Y-66976190D01*
X131866666Y-66452380D02*
X132485714Y-66452380D01*
X132152380Y-66833333D01*
X132295238Y-66833333D01*
X132390476Y-66880952D01*
X132438095Y-66928571D01*
X132485714Y-67023809D01*
X132485714Y-67261904D01*
X132438095Y-67357142D01*
X132390476Y-67404761D01*
X132295238Y-67452380D01*
X132009523Y-67452380D01*
X131914285Y-67404761D01*
X131866666Y-67357142D01*
G04 #@! TO.C,R4*
X132333333Y-68952380D02*
X132000000Y-68476190D01*
X131761904Y-68952380D02*
X131761904Y-67952380D01*
X132142857Y-67952380D01*
X132238095Y-68000000D01*
X132285714Y-68047619D01*
X132333333Y-68142857D01*
X132333333Y-68285714D01*
X132285714Y-68380952D01*
X132238095Y-68428571D01*
X132142857Y-68476190D01*
X131761904Y-68476190D01*
X133190476Y-68285714D02*
X133190476Y-68952380D01*
X132952380Y-67904761D02*
X132714285Y-68619047D01*
X133333333Y-68619047D01*
G04 #@! TO.C,C2*
X141883333Y-66150000D02*
X141850000Y-66183333D01*
X141750000Y-66216666D01*
X141683333Y-66216666D01*
X141583333Y-66183333D01*
X141516666Y-66116666D01*
X141483333Y-66050000D01*
X141450000Y-65916666D01*
X141450000Y-65816666D01*
X141483333Y-65683333D01*
X141516666Y-65616666D01*
X141583333Y-65550000D01*
X141683333Y-65516666D01*
X141750000Y-65516666D01*
X141850000Y-65550000D01*
X141883333Y-65583333D01*
X142150000Y-65583333D02*
X142183333Y-65550000D01*
X142250000Y-65516666D01*
X142416666Y-65516666D01*
X142483333Y-65550000D01*
X142516666Y-65583333D01*
X142550000Y-65650000D01*
X142550000Y-65716666D01*
X142516666Y-65816666D01*
X142116666Y-66216666D01*
X142550000Y-66216666D01*
G04 #@! TO.C,C3*
X151607142Y-74166666D02*
X151654761Y-74214285D01*
X151702380Y-74357142D01*
X151702380Y-74452380D01*
X151654761Y-74595238D01*
X151559523Y-74690476D01*
X151464285Y-74738095D01*
X151273809Y-74785714D01*
X151130952Y-74785714D01*
X150940476Y-74738095D01*
X150845238Y-74690476D01*
X150750000Y-74595238D01*
X150702380Y-74452380D01*
X150702380Y-74357142D01*
X150750000Y-74214285D01*
X150797619Y-74166666D01*
X150702380Y-73833333D02*
X150702380Y-73214285D01*
X151083333Y-73547619D01*
X151083333Y-73404761D01*
X151130952Y-73309523D01*
X151178571Y-73261904D01*
X151273809Y-73214285D01*
X151511904Y-73214285D01*
X151607142Y-73261904D01*
X151654761Y-73309523D01*
X151702380Y-73404761D01*
X151702380Y-73690476D01*
X151654761Y-73785714D01*
X151607142Y-73833333D01*
G04 #@! TO.C,C15*
X134287142Y-122642857D02*
X134334761Y-122690476D01*
X134382380Y-122833333D01*
X134382380Y-122928571D01*
X134334761Y-123071428D01*
X134239523Y-123166666D01*
X134144285Y-123214285D01*
X133953809Y-123261904D01*
X133810952Y-123261904D01*
X133620476Y-123214285D01*
X133525238Y-123166666D01*
X133430000Y-123071428D01*
X133382380Y-122928571D01*
X133382380Y-122833333D01*
X133430000Y-122690476D01*
X133477619Y-122642857D01*
X134382380Y-121690476D02*
X134382380Y-122261904D01*
X134382380Y-121976190D02*
X133382380Y-121976190D01*
X133525238Y-122071428D01*
X133620476Y-122166666D01*
X133668095Y-122261904D01*
X133382380Y-120785714D02*
X133382380Y-121261904D01*
X133858571Y-121309523D01*
X133810952Y-121261904D01*
X133763333Y-121166666D01*
X133763333Y-120928571D01*
X133810952Y-120833333D01*
X133858571Y-120785714D01*
X133953809Y-120738095D01*
X134191904Y-120738095D01*
X134287142Y-120785714D01*
X134334761Y-120833333D01*
X134382380Y-120928571D01*
X134382380Y-121166666D01*
X134334761Y-121261904D01*
X134287142Y-121309523D01*
G04 #@! TO.C,C17*
X156927142Y-118142857D02*
X156974761Y-118190476D01*
X157022380Y-118333333D01*
X157022380Y-118428571D01*
X156974761Y-118571428D01*
X156879523Y-118666666D01*
X156784285Y-118714285D01*
X156593809Y-118761904D01*
X156450952Y-118761904D01*
X156260476Y-118714285D01*
X156165238Y-118666666D01*
X156070000Y-118571428D01*
X156022380Y-118428571D01*
X156022380Y-118333333D01*
X156070000Y-118190476D01*
X156117619Y-118142857D01*
X157022380Y-117190476D02*
X157022380Y-117761904D01*
X157022380Y-117476190D02*
X156022380Y-117476190D01*
X156165238Y-117571428D01*
X156260476Y-117666666D01*
X156308095Y-117761904D01*
X156022380Y-116857142D02*
X156022380Y-116190476D01*
X157022380Y-116619047D01*
G04 #@! TO.C,C18*
X147050000Y-124250000D02*
X147016666Y-124283333D01*
X146916666Y-124316666D01*
X146850000Y-124316666D01*
X146750000Y-124283333D01*
X146683333Y-124216666D01*
X146650000Y-124150000D01*
X146616666Y-124016666D01*
X146616666Y-123916666D01*
X146650000Y-123783333D01*
X146683333Y-123716666D01*
X146750000Y-123650000D01*
X146850000Y-123616666D01*
X146916666Y-123616666D01*
X147016666Y-123650000D01*
X147050000Y-123683333D01*
X147716666Y-124316666D02*
X147316666Y-124316666D01*
X147516666Y-124316666D02*
X147516666Y-123616666D01*
X147450000Y-123716666D01*
X147383333Y-123783333D01*
X147316666Y-123816666D01*
X148116666Y-123916666D02*
X148050000Y-123883333D01*
X148016666Y-123850000D01*
X147983333Y-123783333D01*
X147983333Y-123750000D01*
X148016666Y-123683333D01*
X148050000Y-123650000D01*
X148116666Y-123616666D01*
X148250000Y-123616666D01*
X148316666Y-123650000D01*
X148350000Y-123683333D01*
X148383333Y-123750000D01*
X148383333Y-123783333D01*
X148350000Y-123850000D01*
X148316666Y-123883333D01*
X148250000Y-123916666D01*
X148116666Y-123916666D01*
X148050000Y-123950000D01*
X148016666Y-123983333D01*
X147983333Y-124050000D01*
X147983333Y-124183333D01*
X148016666Y-124250000D01*
X148050000Y-124283333D01*
X148116666Y-124316666D01*
X148250000Y-124316666D01*
X148316666Y-124283333D01*
X148350000Y-124250000D01*
X148383333Y-124183333D01*
X148383333Y-124050000D01*
X148350000Y-123983333D01*
X148316666Y-123950000D01*
X148250000Y-123916666D01*
G04 #@! TO.C,R7*
X127882380Y-120166666D02*
X127406190Y-120500000D01*
X127882380Y-120738095D02*
X126882380Y-120738095D01*
X126882380Y-120357142D01*
X126930000Y-120261904D01*
X126977619Y-120214285D01*
X127072857Y-120166666D01*
X127215714Y-120166666D01*
X127310952Y-120214285D01*
X127358571Y-120261904D01*
X127406190Y-120357142D01*
X127406190Y-120738095D01*
X126882380Y-119833333D02*
X126882380Y-119166666D01*
X127882380Y-119595238D01*
G04 #@! TO.C,R8*
X165882380Y-120066666D02*
X165406190Y-120400000D01*
X165882380Y-120638095D02*
X164882380Y-120638095D01*
X164882380Y-120257142D01*
X164930000Y-120161904D01*
X164977619Y-120114285D01*
X165072857Y-120066666D01*
X165215714Y-120066666D01*
X165310952Y-120114285D01*
X165358571Y-120161904D01*
X165406190Y-120257142D01*
X165406190Y-120638095D01*
X165310952Y-119495238D02*
X165263333Y-119590476D01*
X165215714Y-119638095D01*
X165120476Y-119685714D01*
X165072857Y-119685714D01*
X164977619Y-119638095D01*
X164930000Y-119590476D01*
X164882380Y-119495238D01*
X164882380Y-119304761D01*
X164930000Y-119209523D01*
X164977619Y-119161904D01*
X165072857Y-119114285D01*
X165120476Y-119114285D01*
X165215714Y-119161904D01*
X165263333Y-119209523D01*
X165310952Y-119304761D01*
X165310952Y-119495238D01*
X165358571Y-119590476D01*
X165406190Y-119638095D01*
X165501428Y-119685714D01*
X165691904Y-119685714D01*
X165787142Y-119638095D01*
X165834761Y-119590476D01*
X165882380Y-119495238D01*
X165882380Y-119304761D01*
X165834761Y-119209523D01*
X165787142Y-119161904D01*
X165691904Y-119114285D01*
X165501428Y-119114285D01*
X165406190Y-119161904D01*
X165358571Y-119209523D01*
X165310952Y-119304761D01*
G04 #@! TO.C,R9*
X134382380Y-117416666D02*
X133906190Y-117750000D01*
X134382380Y-117988095D02*
X133382380Y-117988095D01*
X133382380Y-117607142D01*
X133430000Y-117511904D01*
X133477619Y-117464285D01*
X133572857Y-117416666D01*
X133715714Y-117416666D01*
X133810952Y-117464285D01*
X133858571Y-117511904D01*
X133906190Y-117607142D01*
X133906190Y-117988095D01*
X134382380Y-116940476D02*
X134382380Y-116750000D01*
X134334761Y-116654761D01*
X134287142Y-116607142D01*
X134144285Y-116511904D01*
X133953809Y-116464285D01*
X133572857Y-116464285D01*
X133477619Y-116511904D01*
X133430000Y-116559523D01*
X133382380Y-116654761D01*
X133382380Y-116845238D01*
X133430000Y-116940476D01*
X133477619Y-116988095D01*
X133572857Y-117035714D01*
X133810952Y-117035714D01*
X133906190Y-116988095D01*
X133953809Y-116940476D01*
X134001428Y-116845238D01*
X134001428Y-116654761D01*
X133953809Y-116559523D01*
X133906190Y-116511904D01*
X133810952Y-116464285D01*
G04 #@! TO.C,R12*
X157022380Y-122392857D02*
X156546190Y-122726190D01*
X157022380Y-122964285D02*
X156022380Y-122964285D01*
X156022380Y-122583333D01*
X156070000Y-122488095D01*
X156117619Y-122440476D01*
X156212857Y-122392857D01*
X156355714Y-122392857D01*
X156450952Y-122440476D01*
X156498571Y-122488095D01*
X156546190Y-122583333D01*
X156546190Y-122964285D01*
X157022380Y-121440476D02*
X157022380Y-122011904D01*
X157022380Y-121726190D02*
X156022380Y-121726190D01*
X156165238Y-121821428D01*
X156260476Y-121916666D01*
X156308095Y-122011904D01*
X156117619Y-121059523D02*
X156070000Y-121011904D01*
X156022380Y-120916666D01*
X156022380Y-120678571D01*
X156070000Y-120583333D01*
X156117619Y-120535714D01*
X156212857Y-120488095D01*
X156308095Y-120488095D01*
X156450952Y-120535714D01*
X157022380Y-121107142D01*
X157022380Y-120488095D01*
G04 #@! TO.C,U2*
X168416666Y-106033333D02*
X168983333Y-106033333D01*
X169050000Y-106000000D01*
X169083333Y-105966666D01*
X169116666Y-105900000D01*
X169116666Y-105766666D01*
X169083333Y-105700000D01*
X169050000Y-105666666D01*
X168983333Y-105633333D01*
X168416666Y-105633333D01*
X168483333Y-105333333D02*
X168450000Y-105300000D01*
X168416666Y-105233333D01*
X168416666Y-105066666D01*
X168450000Y-105000000D01*
X168483333Y-104966666D01*
X168550000Y-104933333D01*
X168616666Y-104933333D01*
X168716666Y-104966666D01*
X169116666Y-105366666D01*
X169116666Y-104933333D01*
G04 #@! TO.C,C13*
X157350000Y-110950000D02*
X157316666Y-110983333D01*
X157216666Y-111016666D01*
X157150000Y-111016666D01*
X157050000Y-110983333D01*
X156983333Y-110916666D01*
X156950000Y-110850000D01*
X156916666Y-110716666D01*
X156916666Y-110616666D01*
X156950000Y-110483333D01*
X156983333Y-110416666D01*
X157050000Y-110350000D01*
X157150000Y-110316666D01*
X157216666Y-110316666D01*
X157316666Y-110350000D01*
X157350000Y-110383333D01*
X158016666Y-111016666D02*
X157616666Y-111016666D01*
X157816666Y-111016666D02*
X157816666Y-110316666D01*
X157750000Y-110416666D01*
X157683333Y-110483333D01*
X157616666Y-110516666D01*
X158250000Y-110316666D02*
X158683333Y-110316666D01*
X158450000Y-110583333D01*
X158550000Y-110583333D01*
X158616666Y-110616666D01*
X158650000Y-110650000D01*
X158683333Y-110716666D01*
X158683333Y-110883333D01*
X158650000Y-110950000D01*
X158616666Y-110983333D01*
X158550000Y-111016666D01*
X158350000Y-111016666D01*
X158283333Y-110983333D01*
X158250000Y-110950000D01*
G04 #@! TO.C,C14*
X151550000Y-110950000D02*
X151516666Y-110983333D01*
X151416666Y-111016666D01*
X151350000Y-111016666D01*
X151250000Y-110983333D01*
X151183333Y-110916666D01*
X151150000Y-110850000D01*
X151116666Y-110716666D01*
X151116666Y-110616666D01*
X151150000Y-110483333D01*
X151183333Y-110416666D01*
X151250000Y-110350000D01*
X151350000Y-110316666D01*
X151416666Y-110316666D01*
X151516666Y-110350000D01*
X151550000Y-110383333D01*
X152216666Y-111016666D02*
X151816666Y-111016666D01*
X152016666Y-111016666D02*
X152016666Y-110316666D01*
X151950000Y-110416666D01*
X151883333Y-110483333D01*
X151816666Y-110516666D01*
X152816666Y-110550000D02*
X152816666Y-111016666D01*
X152650000Y-110283333D02*
X152483333Y-110783333D01*
X152916666Y-110783333D01*
G04 #@! TO.C,C10*
X167257142Y-98142857D02*
X167304761Y-98190476D01*
X167352380Y-98333333D01*
X167352380Y-98428571D01*
X167304761Y-98571428D01*
X167209523Y-98666666D01*
X167114285Y-98714285D01*
X166923809Y-98761904D01*
X166780952Y-98761904D01*
X166590476Y-98714285D01*
X166495238Y-98666666D01*
X166400000Y-98571428D01*
X166352380Y-98428571D01*
X166352380Y-98333333D01*
X166400000Y-98190476D01*
X166447619Y-98142857D01*
X167352380Y-97190476D02*
X167352380Y-97761904D01*
X167352380Y-97476190D02*
X166352380Y-97476190D01*
X166495238Y-97571428D01*
X166590476Y-97666666D01*
X166638095Y-97761904D01*
X166352380Y-96571428D02*
X166352380Y-96476190D01*
X166400000Y-96380952D01*
X166447619Y-96333333D01*
X166542857Y-96285714D01*
X166733333Y-96238095D01*
X166971428Y-96238095D01*
X167161904Y-96285714D01*
X167257142Y-96333333D01*
X167304761Y-96380952D01*
X167352380Y-96476190D01*
X167352380Y-96571428D01*
X167304761Y-96666666D01*
X167257142Y-96714285D01*
X167161904Y-96761904D01*
X166971428Y-96809523D01*
X166733333Y-96809523D01*
X166542857Y-96761904D01*
X166447619Y-96714285D01*
X166400000Y-96666666D01*
X166352380Y-96571428D01*
G04 #@! TO.C,C11*
X165287142Y-98142857D02*
X165334761Y-98190476D01*
X165382380Y-98333333D01*
X165382380Y-98428571D01*
X165334761Y-98571428D01*
X165239523Y-98666666D01*
X165144285Y-98714285D01*
X164953809Y-98761904D01*
X164810952Y-98761904D01*
X164620476Y-98714285D01*
X164525238Y-98666666D01*
X164430000Y-98571428D01*
X164382380Y-98428571D01*
X164382380Y-98333333D01*
X164430000Y-98190476D01*
X164477619Y-98142857D01*
X165382380Y-97190476D02*
X165382380Y-97761904D01*
X165382380Y-97476190D02*
X164382380Y-97476190D01*
X164525238Y-97571428D01*
X164620476Y-97666666D01*
X164668095Y-97761904D01*
X165382380Y-96238095D02*
X165382380Y-96809523D01*
X165382380Y-96523809D02*
X164382380Y-96523809D01*
X164525238Y-96619047D01*
X164620476Y-96714285D01*
X164668095Y-96809523D01*
G04 #@! TO.C,C6*
X142957142Y-103916666D02*
X143004761Y-103964285D01*
X143052380Y-104107142D01*
X143052380Y-104202380D01*
X143004761Y-104345238D01*
X142909523Y-104440476D01*
X142814285Y-104488095D01*
X142623809Y-104535714D01*
X142480952Y-104535714D01*
X142290476Y-104488095D01*
X142195238Y-104440476D01*
X142100000Y-104345238D01*
X142052380Y-104202380D01*
X142052380Y-104107142D01*
X142100000Y-103964285D01*
X142147619Y-103916666D01*
X142052380Y-103059523D02*
X142052380Y-103250000D01*
X142100000Y-103345238D01*
X142147619Y-103392857D01*
X142290476Y-103488095D01*
X142480952Y-103535714D01*
X142861904Y-103535714D01*
X142957142Y-103488095D01*
X143004761Y-103440476D01*
X143052380Y-103345238D01*
X143052380Y-103154761D01*
X143004761Y-103059523D01*
X142957142Y-103011904D01*
X142861904Y-102964285D01*
X142623809Y-102964285D01*
X142528571Y-103011904D01*
X142480952Y-103059523D01*
X142433333Y-103154761D01*
X142433333Y-103345238D01*
X142480952Y-103440476D01*
X142528571Y-103488095D01*
X142623809Y-103535714D01*
G04 #@! TO.C,C8*
X144927142Y-104166666D02*
X144974761Y-104214285D01*
X145022380Y-104357142D01*
X145022380Y-104452380D01*
X144974761Y-104595238D01*
X144879523Y-104690476D01*
X144784285Y-104738095D01*
X144593809Y-104785714D01*
X144450952Y-104785714D01*
X144260476Y-104738095D01*
X144165238Y-104690476D01*
X144070000Y-104595238D01*
X144022380Y-104452380D01*
X144022380Y-104357142D01*
X144070000Y-104214285D01*
X144117619Y-104166666D01*
X144450952Y-103595238D02*
X144403333Y-103690476D01*
X144355714Y-103738095D01*
X144260476Y-103785714D01*
X144212857Y-103785714D01*
X144117619Y-103738095D01*
X144070000Y-103690476D01*
X144022380Y-103595238D01*
X144022380Y-103404761D01*
X144070000Y-103309523D01*
X144117619Y-103261904D01*
X144212857Y-103214285D01*
X144260476Y-103214285D01*
X144355714Y-103261904D01*
X144403333Y-103309523D01*
X144450952Y-103404761D01*
X144450952Y-103595238D01*
X144498571Y-103690476D01*
X144546190Y-103738095D01*
X144641428Y-103785714D01*
X144831904Y-103785714D01*
X144927142Y-103738095D01*
X144974761Y-103690476D01*
X145022380Y-103595238D01*
X145022380Y-103404761D01*
X144974761Y-103309523D01*
X144927142Y-103261904D01*
X144831904Y-103214285D01*
X144641428Y-103214285D01*
X144546190Y-103261904D01*
X144498571Y-103309523D01*
X144450952Y-103404761D01*
G04 #@! TO.C,C4*
X145727142Y-96916666D02*
X145774761Y-96964285D01*
X145822380Y-97107142D01*
X145822380Y-97202380D01*
X145774761Y-97345238D01*
X145679523Y-97440476D01*
X145584285Y-97488095D01*
X145393809Y-97535714D01*
X145250952Y-97535714D01*
X145060476Y-97488095D01*
X144965238Y-97440476D01*
X144870000Y-97345238D01*
X144822380Y-97202380D01*
X144822380Y-97107142D01*
X144870000Y-96964285D01*
X144917619Y-96916666D01*
X145155714Y-96059523D02*
X145822380Y-96059523D01*
X144774761Y-96297619D02*
X145489047Y-96535714D01*
X145489047Y-95916666D01*
G04 #@! TO.C,C5*
X148587142Y-100666666D02*
X148634761Y-100714285D01*
X148682380Y-100857142D01*
X148682380Y-100952380D01*
X148634761Y-101095238D01*
X148539523Y-101190476D01*
X148444285Y-101238095D01*
X148253809Y-101285714D01*
X148110952Y-101285714D01*
X147920476Y-101238095D01*
X147825238Y-101190476D01*
X147730000Y-101095238D01*
X147682380Y-100952380D01*
X147682380Y-100857142D01*
X147730000Y-100714285D01*
X147777619Y-100666666D01*
X147682380Y-99761904D02*
X147682380Y-100238095D01*
X148158571Y-100285714D01*
X148110952Y-100238095D01*
X148063333Y-100142857D01*
X148063333Y-99904761D01*
X148110952Y-99809523D01*
X148158571Y-99761904D01*
X148253809Y-99714285D01*
X148491904Y-99714285D01*
X148587142Y-99761904D01*
X148634761Y-99809523D01*
X148682380Y-99904761D01*
X148682380Y-100142857D01*
X148634761Y-100238095D01*
X148587142Y-100285714D01*
G04 #@! TO.C,C12*
X150932143Y-91732143D02*
X150884524Y-91779762D01*
X150741667Y-91827381D01*
X150646429Y-91827381D01*
X150503572Y-91779762D01*
X150408334Y-91684524D01*
X150360715Y-91589286D01*
X150313096Y-91398810D01*
X150313096Y-91255953D01*
X150360715Y-91065477D01*
X150408334Y-90970239D01*
X150503572Y-90875001D01*
X150646429Y-90827381D01*
X150741667Y-90827381D01*
X150884524Y-90875001D01*
X150932143Y-90922620D01*
X151884524Y-91827381D02*
X151313096Y-91827381D01*
X151598810Y-91827381D02*
X151598810Y-90827381D01*
X151503572Y-90970239D01*
X151408334Y-91065477D01*
X151313096Y-91113096D01*
X152265477Y-90922620D02*
X152313096Y-90875001D01*
X152408334Y-90827381D01*
X152646429Y-90827381D01*
X152741667Y-90875001D01*
X152789286Y-90922620D01*
X152836905Y-91017858D01*
X152836905Y-91113096D01*
X152789286Y-91255953D01*
X152217858Y-91827381D01*
X152836905Y-91827381D01*
G04 #@! TO.C,C16*
X150857142Y-89782143D02*
X150809523Y-89829762D01*
X150666666Y-89877381D01*
X150571428Y-89877381D01*
X150428571Y-89829762D01*
X150333333Y-89734524D01*
X150285714Y-89639286D01*
X150238095Y-89448810D01*
X150238095Y-89305953D01*
X150285714Y-89115477D01*
X150333333Y-89020239D01*
X150428571Y-88925001D01*
X150571428Y-88877381D01*
X150666666Y-88877381D01*
X150809523Y-88925001D01*
X150857142Y-88972620D01*
X151809523Y-89877381D02*
X151238095Y-89877381D01*
X151523809Y-89877381D02*
X151523809Y-88877381D01*
X151428571Y-89020239D01*
X151333333Y-89115477D01*
X151238095Y-89163096D01*
X152666666Y-88877381D02*
X152476190Y-88877381D01*
X152380952Y-88925001D01*
X152333333Y-88972620D01*
X152238095Y-89115477D01*
X152190476Y-89305953D01*
X152190476Y-89686905D01*
X152238095Y-89782143D01*
X152285714Y-89829762D01*
X152380952Y-89877381D01*
X152571428Y-89877381D01*
X152666666Y-89829762D01*
X152714285Y-89782143D01*
X152761904Y-89686905D01*
X152761904Y-89448810D01*
X152714285Y-89353572D01*
X152666666Y-89305953D01*
X152571428Y-89258334D01*
X152380952Y-89258334D01*
X152285714Y-89305953D01*
X152238095Y-89353572D01*
X152190476Y-89448810D01*
G04 #@! TO.C,R13*
X137057142Y-94522380D02*
X136723809Y-94046190D01*
X136485714Y-94522380D02*
X136485714Y-93522380D01*
X136866666Y-93522380D01*
X136961904Y-93570000D01*
X137009523Y-93617619D01*
X137057142Y-93712857D01*
X137057142Y-93855714D01*
X137009523Y-93950952D01*
X136961904Y-93998571D01*
X136866666Y-94046190D01*
X136485714Y-94046190D01*
X138009523Y-94522380D02*
X137438095Y-94522380D01*
X137723809Y-94522380D02*
X137723809Y-93522380D01*
X137628571Y-93665238D01*
X137533333Y-93760476D01*
X137438095Y-93808095D01*
X138342857Y-93522380D02*
X138961904Y-93522380D01*
X138628571Y-93903333D01*
X138771428Y-93903333D01*
X138866666Y-93950952D01*
X138914285Y-93998571D01*
X138961904Y-94093809D01*
X138961904Y-94331904D01*
X138914285Y-94427142D01*
X138866666Y-94474761D01*
X138771428Y-94522380D01*
X138485714Y-94522380D01*
X138390476Y-94474761D01*
X138342857Y-94427142D01*
G04 #@! TO.C,R14*
X137057142Y-94382380D02*
X136723809Y-93906190D01*
X136485714Y-94382380D02*
X136485714Y-93382380D01*
X136866666Y-93382380D01*
X136961904Y-93430000D01*
X137009523Y-93477619D01*
X137057142Y-93572857D01*
X137057142Y-93715714D01*
X137009523Y-93810952D01*
X136961904Y-93858571D01*
X136866666Y-93906190D01*
X136485714Y-93906190D01*
X138009523Y-94382380D02*
X137438095Y-94382380D01*
X137723809Y-94382380D02*
X137723809Y-93382380D01*
X137628571Y-93525238D01*
X137533333Y-93620476D01*
X137438095Y-93668095D01*
X138866666Y-93715714D02*
X138866666Y-94382380D01*
X138628571Y-93334761D02*
X138390476Y-94049047D01*
X139009523Y-94049047D01*
G04 #@! TO.C,R15*
X141102380Y-110542857D02*
X140626190Y-110876190D01*
X141102380Y-111114285D02*
X140102380Y-111114285D01*
X140102380Y-110733333D01*
X140150000Y-110638095D01*
X140197619Y-110590476D01*
X140292857Y-110542857D01*
X140435714Y-110542857D01*
X140530952Y-110590476D01*
X140578571Y-110638095D01*
X140626190Y-110733333D01*
X140626190Y-111114285D01*
X141102380Y-109590476D02*
X141102380Y-110161904D01*
X141102380Y-109876190D02*
X140102380Y-109876190D01*
X140245238Y-109971428D01*
X140340476Y-110066666D01*
X140388095Y-110161904D01*
X140102380Y-108685714D02*
X140102380Y-109161904D01*
X140578571Y-109209523D01*
X140530952Y-109161904D01*
X140483333Y-109066666D01*
X140483333Y-108828571D01*
X140530952Y-108733333D01*
X140578571Y-108685714D01*
X140673809Y-108638095D01*
X140911904Y-108638095D01*
X141007142Y-108685714D01*
X141054761Y-108733333D01*
X141102380Y-108828571D01*
X141102380Y-109066666D01*
X141054761Y-109161904D01*
X141007142Y-109209523D01*
G04 #@! TO.C,R10*
X145282380Y-110642857D02*
X144806190Y-110976190D01*
X145282380Y-111214285D02*
X144282380Y-111214285D01*
X144282380Y-110833333D01*
X144330000Y-110738095D01*
X144377619Y-110690476D01*
X144472857Y-110642857D01*
X144615714Y-110642857D01*
X144710952Y-110690476D01*
X144758571Y-110738095D01*
X144806190Y-110833333D01*
X144806190Y-111214285D01*
X145282380Y-109690476D02*
X145282380Y-110261904D01*
X145282380Y-109976190D02*
X144282380Y-109976190D01*
X144425238Y-110071428D01*
X144520476Y-110166666D01*
X144568095Y-110261904D01*
X144282380Y-109071428D02*
X144282380Y-108976190D01*
X144330000Y-108880952D01*
X144377619Y-108833333D01*
X144472857Y-108785714D01*
X144663333Y-108738095D01*
X144901428Y-108738095D01*
X145091904Y-108785714D01*
X145187142Y-108833333D01*
X145234761Y-108880952D01*
X145282380Y-108976190D01*
X145282380Y-109071428D01*
X145234761Y-109166666D01*
X145187142Y-109214285D01*
X145091904Y-109261904D01*
X144901428Y-109309523D01*
X144663333Y-109309523D01*
X144472857Y-109261904D01*
X144377619Y-109214285D01*
X144330000Y-109166666D01*
X144282380Y-109071428D01*
G04 #@! TO.C,R11*
X148482380Y-110642857D02*
X148006190Y-110976190D01*
X148482380Y-111214285D02*
X147482380Y-111214285D01*
X147482380Y-110833333D01*
X147530000Y-110738095D01*
X147577619Y-110690476D01*
X147672857Y-110642857D01*
X147815714Y-110642857D01*
X147910952Y-110690476D01*
X147958571Y-110738095D01*
X148006190Y-110833333D01*
X148006190Y-111214285D01*
X148482380Y-109690476D02*
X148482380Y-110261904D01*
X148482380Y-109976190D02*
X147482380Y-109976190D01*
X147625238Y-110071428D01*
X147720476Y-110166666D01*
X147768095Y-110261904D01*
X148482380Y-108738095D02*
X148482380Y-109309523D01*
X148482380Y-109023809D02*
X147482380Y-109023809D01*
X147625238Y-109119047D01*
X147720476Y-109214285D01*
X147768095Y-109309523D01*
G04 #@! TO.C,C7*
X166787142Y-106166666D02*
X166834761Y-106214285D01*
X166882380Y-106357142D01*
X166882380Y-106452380D01*
X166834761Y-106595238D01*
X166739523Y-106690476D01*
X166644285Y-106738095D01*
X166453809Y-106785714D01*
X166310952Y-106785714D01*
X166120476Y-106738095D01*
X166025238Y-106690476D01*
X165930000Y-106595238D01*
X165882380Y-106452380D01*
X165882380Y-106357142D01*
X165930000Y-106214285D01*
X165977619Y-106166666D01*
X165882380Y-105833333D02*
X165882380Y-105166666D01*
X166882380Y-105595238D01*
G04 #@! TO.C,R5*
X166552380Y-112666666D02*
X166076190Y-113000000D01*
X166552380Y-113238095D02*
X165552380Y-113238095D01*
X165552380Y-112857142D01*
X165600000Y-112761904D01*
X165647619Y-112714285D01*
X165742857Y-112666666D01*
X165885714Y-112666666D01*
X165980952Y-112714285D01*
X166028571Y-112761904D01*
X166076190Y-112857142D01*
X166076190Y-113238095D01*
X165552380Y-111761904D02*
X165552380Y-112238095D01*
X166028571Y-112285714D01*
X165980952Y-112238095D01*
X165933333Y-112142857D01*
X165933333Y-111904761D01*
X165980952Y-111809523D01*
X166028571Y-111761904D01*
X166123809Y-111714285D01*
X166361904Y-111714285D01*
X166457142Y-111761904D01*
X166504761Y-111809523D01*
X166552380Y-111904761D01*
X166552380Y-112142857D01*
X166504761Y-112238095D01*
X166457142Y-112285714D01*
G04 #@! TO.C,R6*
X168052380Y-112666666D02*
X167576190Y-113000000D01*
X168052380Y-113238095D02*
X167052380Y-113238095D01*
X167052380Y-112857142D01*
X167100000Y-112761904D01*
X167147619Y-112714285D01*
X167242857Y-112666666D01*
X167385714Y-112666666D01*
X167480952Y-112714285D01*
X167528571Y-112761904D01*
X167576190Y-112857142D01*
X167576190Y-113238095D01*
X167052380Y-111809523D02*
X167052380Y-112000000D01*
X167100000Y-112095238D01*
X167147619Y-112142857D01*
X167290476Y-112238095D01*
X167480952Y-112285714D01*
X167861904Y-112285714D01*
X167957142Y-112238095D01*
X168004761Y-112190476D01*
X168052380Y-112095238D01*
X168052380Y-111904761D01*
X168004761Y-111809523D01*
X167957142Y-111761904D01*
X167861904Y-111714285D01*
X167623809Y-111714285D01*
X167528571Y-111761904D01*
X167480952Y-111809523D01*
X167433333Y-111904761D01*
X167433333Y-112095238D01*
X167480952Y-112190476D01*
X167528571Y-112238095D01*
X167623809Y-112285714D01*
G04 #@! TO.C,C9*
X162687142Y-109266666D02*
X162734761Y-109314285D01*
X162782380Y-109457142D01*
X162782380Y-109552380D01*
X162734761Y-109695238D01*
X162639523Y-109790476D01*
X162544285Y-109838095D01*
X162353809Y-109885714D01*
X162210952Y-109885714D01*
X162020476Y-109838095D01*
X161925238Y-109790476D01*
X161830000Y-109695238D01*
X161782380Y-109552380D01*
X161782380Y-109457142D01*
X161830000Y-109314285D01*
X161877619Y-109266666D01*
X162782380Y-108790476D02*
X162782380Y-108600000D01*
X162734761Y-108504761D01*
X162687142Y-108457142D01*
X162544285Y-108361904D01*
X162353809Y-108314285D01*
X161972857Y-108314285D01*
X161877619Y-108361904D01*
X161830000Y-108409523D01*
X161782380Y-108504761D01*
X161782380Y-108695238D01*
X161830000Y-108790476D01*
X161877619Y-108838095D01*
X161972857Y-108885714D01*
X162210952Y-108885714D01*
X162306190Y-108838095D01*
X162353809Y-108790476D01*
X162401428Y-108695238D01*
X162401428Y-108504761D01*
X162353809Y-108409523D01*
X162306190Y-108361904D01*
X162210952Y-108314285D01*
G04 #@! TO.C,C19*
X146487142Y-94642857D02*
X146534761Y-94690476D01*
X146582380Y-94833333D01*
X146582380Y-94928571D01*
X146534761Y-95071428D01*
X146439523Y-95166666D01*
X146344285Y-95214285D01*
X146153809Y-95261904D01*
X146010952Y-95261904D01*
X145820476Y-95214285D01*
X145725238Y-95166666D01*
X145630000Y-95071428D01*
X145582380Y-94928571D01*
X145582380Y-94833333D01*
X145630000Y-94690476D01*
X145677619Y-94642857D01*
X146582380Y-93690476D02*
X146582380Y-94261904D01*
X146582380Y-93976190D02*
X145582380Y-93976190D01*
X145725238Y-94071428D01*
X145820476Y-94166666D01*
X145868095Y-94261904D01*
X146582380Y-93214285D02*
X146582380Y-93023809D01*
X146534761Y-92928571D01*
X146487142Y-92880952D01*
X146344285Y-92785714D01*
X146153809Y-92738095D01*
X145772857Y-92738095D01*
X145677619Y-92785714D01*
X145630000Y-92833333D01*
X145582380Y-92928571D01*
X145582380Y-93119047D01*
X145630000Y-93214285D01*
X145677619Y-93261904D01*
X145772857Y-93309523D01*
X146010952Y-93309523D01*
X146106190Y-93261904D01*
X146153809Y-93214285D01*
X146201428Y-93119047D01*
X146201428Y-92928571D01*
X146153809Y-92833333D01*
X146106190Y-92785714D01*
X146010952Y-92738095D01*
G04 #@! TD*
M02*
