M48
;DRILL file {KiCad no-vcs-found-7433~57~ubuntu16.10.1} date Tue Jan 10 21:31:51 2017
;FORMAT={-:-/ absolute / inch / decimal}
FMAT,2
INCH,TZ
T1C0.016
T2C0.028
T3C0.039
%
G90
G05
M72
T1
X4.7835Y-3.2677
X4.7835Y-3.9764
X4.8189Y-3.685
X4.8819Y-2.8543
X4.9213Y-3.2677
X5.0394Y-2.5984
X5.0787Y-3.0906
X5.0787Y-3.2283
X5.0787Y-3.3661
X5.1102Y-2.8071
X5.126Y-4.5748
X5.1378Y-4.1929
X5.1378Y-4.2717
X5.1378Y-4.3701
X5.1378Y-4.4488
X5.32Y-4.49
X5.3268Y-3.8307
X5.3307Y-3.9724
X5.3465Y-3.7205
X5.3543Y-2.5984
X5.3543Y-2.9921
X5.378Y-2.8976
X5.3976Y-3.3858
X5.4331Y-4.2835
X5.4528Y-4.2126
X5.4528Y-4.4094
X5.4803Y-4.0236
X5.5079Y-3.3858
X5.5787Y-3.9882
X5.6638Y-4.115
X5.67Y-3.6
X5.6929Y-4.3346
X5.6929Y-4.7697
X5.6929Y-4.8031
X5.6929Y-4.8366
X5.6988Y-3.3858
X5.7008Y-4.3976
X5.7008Y-4.4528
X5.7087Y-2.5984
X5.7244Y-4.7697
X5.7244Y-4.8031
X5.7244Y-4.8366
X5.7323Y-2.7756
X5.7382Y-2.9724
X5.74Y-3.7
X5.8071Y-2.7067
X5.8346Y-2.6614
X5.8346Y-3.9528
X5.84Y-3.78
X5.86Y-3.55
X5.88Y-4.32
X5.8985Y-3.7089
X5.91Y-4.49
X5.9167Y-3.9567
X5.9229Y-4.0059
X5.935Y-3.3071
X5.9393Y-4.3159
X5.95Y-4.1
X5.9536Y-3.8522
X5.9606Y-4.4528
X5.9717Y-3.9876
X5.9843Y-4.311
X5.9961Y-4.1535
X6.0118Y-4.0315
X6.0197Y-3.3858
X6.0271Y-3.8893
X6.039Y-3.6821
X6.0433Y-2.9626
X6.0555Y-3.9405
X6.063Y-4.0276
X6.0669Y-3.9724
X6.0748Y-4.2913
X6.0925Y-4.252
X6.122Y-4.3228
X6.1575Y-4.248
X6.16Y-4.28
X6.1614Y-2.6181
X6.1614Y-4.1535
X6.1772Y-4.0197
X6.1811Y-3.4646
X6.19Y-3.68
X6.2008Y-3.2087
X6.2057Y-3.8117
X6.2087Y-4.2441
X6.2205Y-3.1496
X6.24Y-3.69
X6.2795Y-3.8878
X6.29Y-3.14
X6.3009Y-4.4521
X6.3071Y-4.1811
X6.3976Y-2.628
X6.406Y-3.9154
X6.4075Y-3.5827
X6.4075Y-3.9469
X6.4764Y-4.252
X6.4921Y-3.9394
X6.4961Y-2.9528
X6.4961Y-3.1496
X6.5248Y-4.2384
X6.5482Y-4.0827
X6.5896Y-4.4726
X6.5945Y-3.8031
X6.6142Y-3.3858
X6.6634Y-3.7894
X6.6634Y-4.1339
T2
X5.3587Y-3.0874
X5.3587Y-3.4874
X5.4587Y-3.0874
X5.4587Y-3.4874
X5.5587Y-3.0874
X5.5587Y-3.4874
X5.6587Y-3.0874
X5.6587Y-3.4874
X5.7587Y-3.4874
X5.8587Y-3.0874
X5.8587Y-3.4874
X5.9587Y-3.4874
X6.0587Y-3.0874
X6.0587Y-3.4874
T3
X4.9803Y-3.5925
X4.9803Y-3.6909
X4.9803Y-3.7894
X4.9803Y-3.8878
X4.9803Y-3.9862
X4.9803Y-4.0846
X5.1772Y-3.5925
X5.1772Y-3.6909
X5.1772Y-3.7894
X5.1772Y-3.8878
X5.1772Y-3.9862
X5.1772Y-4.0846
T0
M30
