G04 #@! TF.GenerationSoftware,KiCad,Pcbnew,no-vcs-found-7433~57~ubuntu16.10.1*
G04 #@! TF.CreationDate,2017-01-11T15:26:42+01:00*
G04 #@! TF.ProjectId,can-node,63616E2D6E6F64652E6B696361645F70,rev?*
G04 #@! TF.FileFunction,Soldermask,Bot*
G04 #@! TF.FilePolarity,Negative*
%FSLAX46Y46*%
G04 Gerber Fmt 4.6, Leading zero omitted, Abs format (unit mm)*
G04 Created by KiCad (PCBNEW no-vcs-found-7433~57~ubuntu16.10.1) date Wed Jan 11 15:26:42 2017*
%MOMM*%
%LPD*%
G01*
G04 APERTURE LIST*
%ADD10C,0.100000*%
%ADD11C,1.500000*%
%ADD12R,3.000000X1.500000*%
%ADD13C,1.000000*%
%ADD14C,3.200000*%
%ADD15R,1.600000X2.500000*%
%ADD16C,0.600000*%
%ADD17R,0.900000X0.800000*%
%ADD18R,0.800000X0.900000*%
%ADD19R,0.400000X0.600000*%
%ADD20R,0.600000X0.400000*%
%ADD21C,1.400000*%
G04 APERTURE END LIST*
D10*
D11*
X136110000Y-78420000D03*
X138650000Y-78420000D03*
X141190000Y-78420000D03*
X143730000Y-78420000D03*
X148810000Y-78420000D03*
X153890000Y-78420000D03*
X153890000Y-88580000D03*
X151350000Y-88580000D03*
X148810000Y-88580000D03*
X146270000Y-88580000D03*
X143730000Y-88580000D03*
X141190000Y-88580000D03*
X138650000Y-88580000D03*
X136110000Y-88580000D03*
D12*
X160500000Y-89920000D03*
X165000000Y-91190000D03*
X160500000Y-92460000D03*
X165000000Y-93730000D03*
X160500000Y-95000000D03*
X165000000Y-96270000D03*
X160500000Y-97540000D03*
X165000000Y-98810000D03*
X160500000Y-100080000D03*
X165000000Y-101350000D03*
D13*
X128900000Y-71100000D03*
X136000000Y-73000000D03*
X157800000Y-66800000D03*
X146000000Y-67600000D03*
X146000000Y-69250000D03*
X150876000Y-108712000D03*
X149352000Y-108712000D03*
D14*
X166500000Y-121500000D03*
D15*
X145000000Y-122000000D03*
D16*
X145400000Y-121150000D03*
X145400000Y-122850000D03*
X145400000Y-122000000D03*
X144600000Y-121150000D03*
X144600000Y-122850000D03*
X144600000Y-122000000D03*
D14*
X166250000Y-68750000D03*
X123500000Y-68500000D03*
X123500000Y-121500000D03*
D17*
X130250000Y-83700000D03*
X130250000Y-81800000D03*
X132250000Y-82750000D03*
X132250000Y-79250000D03*
X130250000Y-78300000D03*
X130250000Y-80200000D03*
X130250000Y-87200000D03*
X130250000Y-85300000D03*
X132250000Y-86250000D03*
D18*
X141250000Y-83500000D03*
X142200000Y-81500000D03*
X140300000Y-81500000D03*
X145300000Y-81500000D03*
X147200000Y-81500000D03*
X146250000Y-83500000D03*
X150000000Y-80500000D03*
X149050000Y-82500000D03*
X150950000Y-82500000D03*
D17*
X133750000Y-81950000D03*
X133750000Y-80050000D03*
X135750000Y-81000000D03*
X152750000Y-83500000D03*
X154750000Y-84450000D03*
X154750000Y-82550000D03*
D18*
X134050000Y-84750000D03*
X135950000Y-84750000D03*
X135000000Y-86750000D03*
X138750000Y-86750000D03*
X139700000Y-84750000D03*
X137800000Y-84750000D03*
X148750000Y-86750000D03*
X149700000Y-84750000D03*
X147800000Y-84750000D03*
D17*
X156734000Y-83566000D03*
X158734000Y-84516000D03*
X158734000Y-82616000D03*
D18*
X142800000Y-84750000D03*
X144700000Y-84750000D03*
X143750000Y-86750000D03*
D19*
X141200000Y-80000000D03*
X140300000Y-80000000D03*
X133550000Y-78500000D03*
X134450000Y-78500000D03*
D20*
X143750000Y-79850000D03*
X143750000Y-80750000D03*
X141250000Y-86050000D03*
X141250000Y-86950000D03*
X146250000Y-86050000D03*
X146250000Y-86950000D03*
X147000000Y-78300000D03*
X147000000Y-79200000D03*
D19*
X137000000Y-80000000D03*
X137900000Y-80000000D03*
D20*
X151250000Y-86650000D03*
X151250000Y-85750000D03*
D13*
X160782000Y-79756000D03*
X152400000Y-103378000D03*
D21*
X126500000Y-91250000D03*
X126500000Y-93750000D03*
X126500000Y-96250000D03*
X126500000Y-98750000D03*
X131500000Y-91250000D03*
X131500000Y-93750000D03*
X131500000Y-96250000D03*
X131500000Y-98750000D03*
D13*
X153670000Y-104600000D03*
X152400000Y-104600000D03*
X151100000Y-104600000D03*
X149800000Y-104600000D03*
D11*
X135890000Y-102870000D03*
D13*
X158100000Y-106500000D03*
X156900000Y-106500000D03*
X154100000Y-109600000D03*
X154400000Y-94900000D03*
X155100000Y-91800000D03*
X156500000Y-91900000D03*
X157200000Y-98300000D03*
X153100000Y-94900000D03*
D11*
X135890000Y-113030000D03*
M02*
