G04 #@! TF.GenerationSoftware,KiCad,Pcbnew,no-vcs-found-7433~57~ubuntu16.10.1*
G04 #@! TF.CreationDate,2017-01-10T21:31:49+01:00*
G04 #@! TF.ProjectId,can-node,63616E2D6E6F64652E6B696361645F70,rev?*
G04 #@! TF.FileFunction,Legend,Bot*
G04 #@! TF.FilePolarity,Positive*
%FSLAX46Y46*%
G04 Gerber Fmt 4.6, Leading zero omitted, Abs format (unit mm)*
G04 Created by KiCad (PCBNEW no-vcs-found-7433~57~ubuntu16.10.1) date Tue Jan 10 21:31:49 2017*
%MOMM*%
%LPD*%
G01*
G04 APERTURE LIST*
%ADD10C,0.100000*%
%ADD11C,0.150000*%
%ADD12C,0.200000*%
%ADD13C,0.010000*%
%ADD14C,0.120000*%
%ADD15C,0.254000*%
G04 APERTURE END LIST*
D10*
D11*
X136392857Y-117701785D02*
X136392857Y-116951785D01*
X136392857Y-117666071D02*
X136464285Y-117701785D01*
X136607142Y-117701785D01*
X136678571Y-117666071D01*
X136714285Y-117630357D01*
X136750000Y-117558928D01*
X136750000Y-117344642D01*
X136714285Y-117273214D01*
X136678571Y-117237500D01*
X136607142Y-117201785D01*
X136464285Y-117201785D01*
X136392857Y-117237500D01*
X135750000Y-117666071D02*
X135821428Y-117701785D01*
X135964285Y-117701785D01*
X136035714Y-117666071D01*
X136071428Y-117594642D01*
X136071428Y-117308928D01*
X136035714Y-117237500D01*
X135964285Y-117201785D01*
X135821428Y-117201785D01*
X135750000Y-117237500D01*
X135714285Y-117308928D01*
X135714285Y-117380357D01*
X136071428Y-117451785D01*
X135428571Y-117666071D02*
X135357142Y-117701785D01*
X135214285Y-117701785D01*
X135142857Y-117666071D01*
X135107142Y-117594642D01*
X135107142Y-117558928D01*
X135142857Y-117487500D01*
X135214285Y-117451785D01*
X135321428Y-117451785D01*
X135392857Y-117416071D01*
X135428571Y-117344642D01*
X135428571Y-117308928D01*
X135392857Y-117237500D01*
X135321428Y-117201785D01*
X135214285Y-117201785D01*
X135142857Y-117237500D01*
X134785714Y-117701785D02*
X134785714Y-117201785D01*
X134785714Y-116951785D02*
X134821428Y-116987500D01*
X134785714Y-117023214D01*
X134750000Y-116987500D01*
X134785714Y-116951785D01*
X134785714Y-117023214D01*
X134107142Y-117201785D02*
X134107142Y-117808928D01*
X134142857Y-117880357D01*
X134178571Y-117916071D01*
X134250000Y-117951785D01*
X134357142Y-117951785D01*
X134428571Y-117916071D01*
X134107142Y-117666071D02*
X134178571Y-117701785D01*
X134321428Y-117701785D01*
X134392857Y-117666071D01*
X134428571Y-117630357D01*
X134464285Y-117558928D01*
X134464285Y-117344642D01*
X134428571Y-117273214D01*
X134392857Y-117237500D01*
X134321428Y-117201785D01*
X134178571Y-117201785D01*
X134107142Y-117237500D01*
X133750000Y-117201785D02*
X133750000Y-117701785D01*
X133750000Y-117273214D02*
X133714285Y-117237500D01*
X133642857Y-117201785D01*
X133535714Y-117201785D01*
X133464285Y-117237500D01*
X133428571Y-117308928D01*
X133428571Y-117701785D01*
X132785714Y-117666071D02*
X132857142Y-117701785D01*
X133000000Y-117701785D01*
X133071428Y-117666071D01*
X133107142Y-117594642D01*
X133107142Y-117308928D01*
X133071428Y-117237500D01*
X133000000Y-117201785D01*
X132857142Y-117201785D01*
X132785714Y-117237500D01*
X132750000Y-117308928D01*
X132750000Y-117380357D01*
X133107142Y-117451785D01*
X132107142Y-117701785D02*
X132107142Y-116951785D01*
X132107142Y-117666071D02*
X132178571Y-117701785D01*
X132321428Y-117701785D01*
X132392857Y-117666071D01*
X132428571Y-117630357D01*
X132464285Y-117558928D01*
X132464285Y-117344642D01*
X132428571Y-117273214D01*
X132392857Y-117237500D01*
X132321428Y-117201785D01*
X132178571Y-117201785D01*
X132107142Y-117237500D01*
X131250000Y-117201785D02*
X131107142Y-117701785D01*
X130964285Y-117344642D01*
X130821428Y-117701785D01*
X130678571Y-117201785D01*
X130392857Y-117701785D02*
X130392857Y-117201785D01*
X130392857Y-116951785D02*
X130428571Y-116987500D01*
X130392857Y-117023214D01*
X130357142Y-116987500D01*
X130392857Y-116951785D01*
X130392857Y-117023214D01*
X130142857Y-117201785D02*
X129857142Y-117201785D01*
X130035714Y-116951785D02*
X130035714Y-117594642D01*
X130000000Y-117666071D01*
X129928571Y-117701785D01*
X129857142Y-117701785D01*
X129607142Y-117701785D02*
X129607142Y-116951785D01*
X129285714Y-117701785D02*
X129285714Y-117308928D01*
X129321428Y-117237500D01*
X129392857Y-117201785D01*
X129500000Y-117201785D01*
X129571428Y-117237500D01*
X129607142Y-117273214D01*
X134446428Y-118976785D02*
X134446428Y-118226785D01*
X134017857Y-118976785D02*
X134339285Y-118548214D01*
X134017857Y-118226785D02*
X134446428Y-118655357D01*
X133696428Y-118976785D02*
X133696428Y-118476785D01*
X133696428Y-118226785D02*
X133732142Y-118262500D01*
X133696428Y-118298214D01*
X133660714Y-118262500D01*
X133696428Y-118226785D01*
X133696428Y-118298214D01*
X132910714Y-118905357D02*
X132946428Y-118941071D01*
X133053571Y-118976785D01*
X133125000Y-118976785D01*
X133232142Y-118941071D01*
X133303571Y-118869642D01*
X133339285Y-118798214D01*
X133375000Y-118655357D01*
X133375000Y-118548214D01*
X133339285Y-118405357D01*
X133303571Y-118333928D01*
X133232142Y-118262500D01*
X133125000Y-118226785D01*
X133053571Y-118226785D01*
X132946428Y-118262500D01*
X132910714Y-118298214D01*
X132625000Y-118762500D02*
X132267857Y-118762500D01*
X132696428Y-118976785D02*
X132446428Y-118226785D01*
X132196428Y-118976785D01*
X131946428Y-118976785D02*
X131946428Y-118226785D01*
X131767857Y-118226785D01*
X131660714Y-118262500D01*
X131589285Y-118333928D01*
X131553571Y-118405357D01*
X131517857Y-118548214D01*
X131517857Y-118655357D01*
X131553571Y-118798214D01*
X131589285Y-118869642D01*
X131660714Y-118941071D01*
X131767857Y-118976785D01*
X131946428Y-118976785D01*
D12*
X136558571Y-104297619D02*
X136749047Y-104297619D01*
X136844285Y-104250000D01*
X136939523Y-104154761D01*
X136987142Y-103964285D01*
X136987142Y-103630952D01*
X136939523Y-103440476D01*
X136844285Y-103345238D01*
X136749047Y-103297619D01*
X136558571Y-103297619D01*
X136463333Y-103345238D01*
X136368095Y-103440476D01*
X136320476Y-103630952D01*
X136320476Y-103964285D01*
X136368095Y-104154761D01*
X136463333Y-104250000D01*
X136558571Y-104297619D01*
X137415714Y-104297619D02*
X137415714Y-103488095D01*
X137463333Y-103392857D01*
X137510952Y-103345238D01*
X137606190Y-103297619D01*
X137796666Y-103297619D01*
X137891904Y-103345238D01*
X137939523Y-103392857D01*
X137987142Y-103488095D01*
X137987142Y-104297619D01*
X138320476Y-104297619D02*
X138891904Y-104297619D01*
X138606190Y-103297619D02*
X138606190Y-104297619D01*
X139177619Y-104202380D02*
X139225238Y-104250000D01*
X139320476Y-104297619D01*
X139558571Y-104297619D01*
X139653809Y-104250000D01*
X139701428Y-104202380D01*
X139749047Y-104107142D01*
X139749047Y-104011904D01*
X139701428Y-103869047D01*
X139130000Y-103297619D01*
X139749047Y-103297619D01*
X136558571Y-101797619D02*
X136749047Y-101797619D01*
X136844285Y-101750000D01*
X136939523Y-101654761D01*
X136987142Y-101464285D01*
X136987142Y-101130952D01*
X136939523Y-100940476D01*
X136844285Y-100845238D01*
X136749047Y-100797619D01*
X136558571Y-100797619D01*
X136463333Y-100845238D01*
X136368095Y-100940476D01*
X136320476Y-101130952D01*
X136320476Y-101464285D01*
X136368095Y-101654761D01*
X136463333Y-101750000D01*
X136558571Y-101797619D01*
X137415714Y-101797619D02*
X137415714Y-100988095D01*
X137463333Y-100892857D01*
X137510952Y-100845238D01*
X137606190Y-100797619D01*
X137796666Y-100797619D01*
X137891904Y-100845238D01*
X137939523Y-100892857D01*
X137987142Y-100988095D01*
X137987142Y-101797619D01*
X138320476Y-101797619D02*
X138891904Y-101797619D01*
X138606190Y-100797619D02*
X138606190Y-101797619D01*
X139749047Y-100797619D02*
X139177619Y-100797619D01*
X139463333Y-100797619D02*
X139463333Y-101797619D01*
X139368095Y-101654761D01*
X139272857Y-101559523D01*
X139177619Y-101511904D01*
X136225238Y-91797619D02*
X136558571Y-90797619D01*
X136891904Y-91797619D01*
X137225238Y-90797619D02*
X137225238Y-91797619D01*
X137701428Y-90797619D02*
X137701428Y-91797619D01*
X138272857Y-90797619D01*
X138272857Y-91797619D01*
X138749047Y-91178571D02*
X139510952Y-91178571D01*
X139130000Y-90797619D02*
X139130000Y-91559523D01*
X140701428Y-91845238D02*
X139844285Y-90559523D01*
X140987142Y-91702380D02*
X141034761Y-91750000D01*
X141130000Y-91797619D01*
X141368095Y-91797619D01*
X141463333Y-91750000D01*
X141510952Y-91702380D01*
X141558571Y-91607142D01*
X141558571Y-91511904D01*
X141510952Y-91369047D01*
X140939523Y-90797619D01*
X141558571Y-90797619D01*
X142415714Y-91464285D02*
X142415714Y-90797619D01*
X142177619Y-91845238D02*
X141939523Y-91130952D01*
X142558571Y-91130952D01*
X142796666Y-91797619D02*
X143130000Y-90797619D01*
X143463333Y-91797619D01*
X144558571Y-90797619D02*
X144558571Y-91797619D01*
X144796666Y-91797619D01*
X144939523Y-91750000D01*
X145034761Y-91654761D01*
X145082380Y-91559523D01*
X145130000Y-91369047D01*
X145130000Y-91226190D01*
X145082380Y-91035714D01*
X145034761Y-90940476D01*
X144939523Y-90845238D01*
X144796666Y-90797619D01*
X144558571Y-90797619D01*
X146130000Y-90892857D02*
X146082380Y-90845238D01*
X145939523Y-90797619D01*
X145844285Y-90797619D01*
X145701428Y-90845238D01*
X145606190Y-90940476D01*
X145558571Y-91035714D01*
X145510952Y-91226190D01*
X145510952Y-91369047D01*
X145558571Y-91559523D01*
X145606190Y-91654761D01*
X145701428Y-91750000D01*
X145844285Y-91797619D01*
X145939523Y-91797619D01*
X146082380Y-91750000D01*
X146130000Y-91702380D01*
X136225238Y-94297619D02*
X136558571Y-93297619D01*
X136891904Y-94297619D01*
X137225238Y-93297619D02*
X137225238Y-94297619D01*
X137701428Y-93297619D02*
X137701428Y-94297619D01*
X138272857Y-93297619D01*
X138272857Y-94297619D01*
X138749047Y-93678571D02*
X139510952Y-93678571D01*
X140701428Y-94345238D02*
X139844285Y-93059523D01*
X141225238Y-94297619D02*
X141320476Y-94297619D01*
X141415714Y-94250000D01*
X141463333Y-94202380D01*
X141510952Y-94107142D01*
X141558571Y-93916666D01*
X141558571Y-93678571D01*
X141510952Y-93488095D01*
X141463333Y-93392857D01*
X141415714Y-93345238D01*
X141320476Y-93297619D01*
X141225238Y-93297619D01*
X141130000Y-93345238D01*
X141082380Y-93392857D01*
X141034761Y-93488095D01*
X140987142Y-93678571D01*
X140987142Y-93916666D01*
X141034761Y-94107142D01*
X141082380Y-94202380D01*
X141130000Y-94250000D01*
X141225238Y-94297619D01*
X141844285Y-94297619D02*
X142177619Y-93297619D01*
X142510952Y-94297619D01*
X136939523Y-95892857D02*
X136891904Y-95845238D01*
X136749047Y-95797619D01*
X136653809Y-95797619D01*
X136510952Y-95845238D01*
X136415714Y-95940476D01*
X136368095Y-96035714D01*
X136320476Y-96226190D01*
X136320476Y-96369047D01*
X136368095Y-96559523D01*
X136415714Y-96654761D01*
X136510952Y-96750000D01*
X136653809Y-96797619D01*
X136749047Y-96797619D01*
X136891904Y-96750000D01*
X136939523Y-96702380D01*
X137320476Y-96083333D02*
X137796666Y-96083333D01*
X137225238Y-95797619D02*
X137558571Y-96797619D01*
X137891904Y-95797619D01*
X138225238Y-95797619D02*
X138225238Y-96797619D01*
X138796666Y-95797619D01*
X138796666Y-96797619D01*
X139749047Y-95797619D02*
X139272857Y-95797619D01*
X139272857Y-96797619D01*
X136939523Y-98392857D02*
X136891904Y-98345238D01*
X136749047Y-98297619D01*
X136653809Y-98297619D01*
X136510952Y-98345238D01*
X136415714Y-98440476D01*
X136368095Y-98535714D01*
X136320476Y-98726190D01*
X136320476Y-98869047D01*
X136368095Y-99059523D01*
X136415714Y-99154761D01*
X136510952Y-99250000D01*
X136653809Y-99297619D01*
X136749047Y-99297619D01*
X136891904Y-99250000D01*
X136939523Y-99202380D01*
X137320476Y-98583333D02*
X137796666Y-98583333D01*
X137225238Y-98297619D02*
X137558571Y-99297619D01*
X137891904Y-98297619D01*
X138225238Y-98297619D02*
X138225238Y-99297619D01*
X138796666Y-98297619D01*
X138796666Y-99297619D01*
X139272857Y-98297619D02*
X139272857Y-99297619D01*
X139272857Y-98821428D02*
X139844285Y-98821428D01*
X139844285Y-98297619D02*
X139844285Y-99297619D01*
X161547619Y-76452380D02*
X161880952Y-75976190D01*
X162119047Y-76452380D02*
X162119047Y-75452380D01*
X161738095Y-75452380D01*
X161642857Y-75500000D01*
X161595238Y-75547619D01*
X161547619Y-75642857D01*
X161547619Y-75785714D01*
X161595238Y-75880952D01*
X161642857Y-75928571D01*
X161738095Y-75976190D01*
X162119047Y-75976190D01*
X161119047Y-75928571D02*
X160785714Y-75928571D01*
X160642857Y-76452380D02*
X161119047Y-76452380D01*
X161119047Y-75452380D01*
X160642857Y-75452380D01*
X160357142Y-75452380D02*
X160023809Y-76452380D01*
X159690476Y-75452380D01*
X158833333Y-76452380D02*
X159404761Y-76452380D01*
X159119047Y-76452380D02*
X159119047Y-75452380D01*
X159214285Y-75595238D01*
X159309523Y-75690476D01*
X159404761Y-75738095D01*
X167928571Y-111690476D02*
X168023809Y-111642857D01*
X168214285Y-111642857D01*
X168309523Y-111690476D01*
X168404761Y-111785714D01*
X168452380Y-111880952D01*
X168452380Y-112071428D01*
X168404761Y-112166666D01*
X168309523Y-112261904D01*
X168214285Y-112309523D01*
X168023809Y-112309523D01*
X167928571Y-112261904D01*
X168119047Y-111309523D02*
X168357142Y-111357142D01*
X168595238Y-111500000D01*
X168738095Y-111738095D01*
X168785714Y-111976190D01*
X168738095Y-112214285D01*
X168595238Y-112452380D01*
X168357142Y-112595238D01*
X168119047Y-112642857D01*
X167880952Y-112595238D01*
X167642857Y-112452380D01*
X167500000Y-112214285D01*
X167452380Y-111976190D01*
X167500000Y-111738095D01*
X167642857Y-111500000D01*
X167880952Y-111357142D01*
X168119047Y-111309523D01*
X166309523Y-111547619D02*
X166261904Y-111500000D01*
X166166666Y-111452380D01*
X165928571Y-111452380D01*
X165833333Y-111500000D01*
X165785714Y-111547619D01*
X165738095Y-111642857D01*
X165738095Y-111738095D01*
X165785714Y-111880952D01*
X166357142Y-112452380D01*
X165738095Y-112452380D01*
X165119047Y-111452380D02*
X165023809Y-111452380D01*
X164928571Y-111500000D01*
X164880952Y-111547619D01*
X164833333Y-111642857D01*
X164785714Y-111833333D01*
X164785714Y-112071428D01*
X164833333Y-112261904D01*
X164880952Y-112357142D01*
X164928571Y-112404761D01*
X165023809Y-112452380D01*
X165119047Y-112452380D01*
X165214285Y-112404761D01*
X165261904Y-112357142D01*
X165309523Y-112261904D01*
X165357142Y-112071428D01*
X165357142Y-111833333D01*
X165309523Y-111642857D01*
X165261904Y-111547619D01*
X165214285Y-111500000D01*
X165119047Y-111452380D01*
X163833333Y-112452380D02*
X164404761Y-112452380D01*
X164119047Y-112452380D02*
X164119047Y-111452380D01*
X164214285Y-111595238D01*
X164309523Y-111690476D01*
X164404761Y-111738095D01*
X163500000Y-111452380D02*
X162833333Y-111452380D01*
X163261904Y-112452380D01*
X161404761Y-111452380D02*
X161404761Y-112166666D01*
X161452380Y-112309523D01*
X161547619Y-112404761D01*
X161690476Y-112452380D01*
X161785714Y-112452380D01*
X160785714Y-112452380D02*
X160880952Y-112404761D01*
X160928571Y-112357142D01*
X160976190Y-112261904D01*
X160976190Y-111976190D01*
X160928571Y-111880952D01*
X160880952Y-111833333D01*
X160785714Y-111785714D01*
X160642857Y-111785714D01*
X160547619Y-111833333D01*
X160500000Y-111880952D01*
X160452380Y-111976190D01*
X160452380Y-112261904D01*
X160500000Y-112357142D01*
X160547619Y-112404761D01*
X160642857Y-112452380D01*
X160785714Y-112452380D01*
X160071428Y-112404761D02*
X159976190Y-112452380D01*
X159785714Y-112452380D01*
X159690476Y-112404761D01*
X159642857Y-112309523D01*
X159642857Y-112261904D01*
X159690476Y-112166666D01*
X159785714Y-112119047D01*
X159928571Y-112119047D01*
X160023809Y-112071428D01*
X160071428Y-111976190D01*
X160071428Y-111928571D01*
X160023809Y-111833333D01*
X159928571Y-111785714D01*
X159785714Y-111785714D01*
X159690476Y-111833333D01*
X158833333Y-112404761D02*
X158928571Y-112452380D01*
X159119047Y-112452380D01*
X159214285Y-112404761D01*
X159261904Y-112309523D01*
X159261904Y-111928571D01*
X159214285Y-111833333D01*
X159119047Y-111785714D01*
X158928571Y-111785714D01*
X158833333Y-111833333D01*
X158785714Y-111928571D01*
X158785714Y-112023809D01*
X159261904Y-112119047D01*
X158500000Y-111785714D02*
X158119047Y-111785714D01*
X158357142Y-112452380D02*
X158357142Y-111595238D01*
X158309523Y-111500000D01*
X158214285Y-111452380D01*
X158119047Y-111452380D01*
X156452380Y-112452380D02*
X156785714Y-111976190D01*
X157023809Y-112452380D02*
X157023809Y-111452380D01*
X156642857Y-111452380D01*
X156547619Y-111500000D01*
X156500000Y-111547619D01*
X156452380Y-111642857D01*
X156452380Y-111785714D01*
X156500000Y-111880952D01*
X156547619Y-111928571D01*
X156642857Y-111976190D01*
X157023809Y-111976190D01*
X155595238Y-112452380D02*
X155595238Y-111928571D01*
X155642857Y-111833333D01*
X155738095Y-111785714D01*
X155928571Y-111785714D01*
X156023809Y-111833333D01*
X155595238Y-112404761D02*
X155690476Y-112452380D01*
X155928571Y-112452380D01*
X156023809Y-112404761D01*
X156071428Y-112309523D01*
X156071428Y-112214285D01*
X156023809Y-112119047D01*
X155928571Y-112071428D01*
X155690476Y-112071428D01*
X155595238Y-112023809D01*
X155166666Y-112404761D02*
X155071428Y-112452380D01*
X154880952Y-112452380D01*
X154785714Y-112404761D01*
X154738095Y-112309523D01*
X154738095Y-112261904D01*
X154785714Y-112166666D01*
X154880952Y-112119047D01*
X155023809Y-112119047D01*
X155119047Y-112071428D01*
X155166666Y-111976190D01*
X155166666Y-111928571D01*
X155119047Y-111833333D01*
X155023809Y-111785714D01*
X154880952Y-111785714D01*
X154785714Y-111833333D01*
X153880952Y-112404761D02*
X153976190Y-112452380D01*
X154166666Y-112452380D01*
X154261904Y-112404761D01*
X154309523Y-112357142D01*
X154357142Y-112261904D01*
X154357142Y-111976190D01*
X154309523Y-111880952D01*
X154261904Y-111833333D01*
X154166666Y-111785714D01*
X153976190Y-111785714D01*
X153880952Y-111833333D01*
X153452380Y-112452380D02*
X153452380Y-111452380D01*
X153023809Y-112452380D02*
X153023809Y-111928571D01*
X153071428Y-111833333D01*
X153166666Y-111785714D01*
X153309523Y-111785714D01*
X153404761Y-111833333D01*
X153452380Y-111880952D01*
X152166666Y-112404761D02*
X152261904Y-112452380D01*
X152452380Y-112452380D01*
X152547619Y-112404761D01*
X152595238Y-112309523D01*
X152595238Y-111928571D01*
X152547619Y-111833333D01*
X152452380Y-111785714D01*
X152261904Y-111785714D01*
X152166666Y-111833333D01*
X152119047Y-111928571D01*
X152119047Y-112023809D01*
X152595238Y-112119047D01*
X151690476Y-111785714D02*
X151690476Y-112452380D01*
X151690476Y-111880952D02*
X151642857Y-111833333D01*
X151547619Y-111785714D01*
X151404761Y-111785714D01*
X151309523Y-111833333D01*
X151261904Y-111928571D01*
X151261904Y-112452380D01*
D11*
X164250000Y-88500000D02*
X164250000Y-87690000D01*
X161250000Y-88500000D02*
X164250000Y-88500000D01*
X161250000Y-87690000D02*
X161250000Y-88500000D01*
X165250000Y-102310000D02*
X160250000Y-102310000D01*
X165250000Y-87690000D02*
X165250000Y-102310000D01*
X160250000Y-87690000D02*
X161250000Y-87690000D01*
X160250000Y-102310000D02*
X160250000Y-87690000D01*
X164250000Y-87690000D02*
X165250000Y-87690000D01*
D13*
G36*
X163196090Y-80842348D02*
X163117546Y-80842778D01*
X163060702Y-80843942D01*
X163021895Y-80846207D01*
X162997462Y-80849940D01*
X162983738Y-80855506D01*
X162977060Y-80863273D01*
X162973764Y-80873605D01*
X162973444Y-80874943D01*
X162968438Y-80899079D01*
X162959171Y-80946701D01*
X162946608Y-81012741D01*
X162931713Y-81092128D01*
X162915449Y-81179796D01*
X162914881Y-81182875D01*
X162898590Y-81268789D01*
X162883348Y-81344696D01*
X162870139Y-81406045D01*
X162859946Y-81448282D01*
X162853752Y-81466855D01*
X162853457Y-81467184D01*
X162835212Y-81476253D01*
X162797595Y-81491367D01*
X162748729Y-81509262D01*
X162748457Y-81509358D01*
X162686907Y-81532493D01*
X162614343Y-81561965D01*
X162545943Y-81591597D01*
X162542706Y-81593062D01*
X162431298Y-81643626D01*
X162184601Y-81475160D01*
X162108923Y-81423803D01*
X162040369Y-81377889D01*
X161982912Y-81340030D01*
X161940524Y-81312837D01*
X161917175Y-81298921D01*
X161914958Y-81297889D01*
X161897990Y-81302484D01*
X161866299Y-81324655D01*
X161818648Y-81365447D01*
X161753802Y-81425905D01*
X161687603Y-81490227D01*
X161623786Y-81553612D01*
X161566671Y-81611451D01*
X161519695Y-81660175D01*
X161486297Y-81696210D01*
X161469915Y-81715984D01*
X161469306Y-81717002D01*
X161467495Y-81730572D01*
X161474317Y-81752733D01*
X161491460Y-81786478D01*
X161520607Y-81834800D01*
X161563445Y-81900692D01*
X161620552Y-81985517D01*
X161671234Y-82060177D01*
X161716539Y-82127140D01*
X161753850Y-82182516D01*
X161780548Y-82222420D01*
X161794015Y-82242962D01*
X161794863Y-82244356D01*
X161793219Y-82264038D01*
X161780755Y-82302293D01*
X161759952Y-82351889D01*
X161752538Y-82367728D01*
X161720186Y-82438290D01*
X161685672Y-82518353D01*
X161657635Y-82587629D01*
X161637432Y-82639045D01*
X161621385Y-82678119D01*
X161612112Y-82698541D01*
X161610959Y-82700114D01*
X161593904Y-82702721D01*
X161553702Y-82709863D01*
X161495698Y-82720523D01*
X161425237Y-82733685D01*
X161347665Y-82748333D01*
X161268328Y-82763449D01*
X161192569Y-82778018D01*
X161125736Y-82791022D01*
X161073172Y-82801445D01*
X161040224Y-82808270D01*
X161032143Y-82810199D01*
X161023795Y-82814962D01*
X161017494Y-82825718D01*
X161012955Y-82846098D01*
X161009896Y-82879734D01*
X161008033Y-82930255D01*
X161007082Y-83001292D01*
X161006760Y-83096476D01*
X161006743Y-83135492D01*
X161006743Y-83452799D01*
X161082943Y-83467839D01*
X161125337Y-83475995D01*
X161188600Y-83487899D01*
X161265038Y-83502116D01*
X161346957Y-83517210D01*
X161369600Y-83521355D01*
X161445194Y-83536053D01*
X161511047Y-83550505D01*
X161561634Y-83563375D01*
X161591426Y-83573322D01*
X161596388Y-83576287D01*
X161608574Y-83597283D01*
X161626047Y-83637967D01*
X161645423Y-83690322D01*
X161649266Y-83701600D01*
X161674661Y-83771523D01*
X161706183Y-83850418D01*
X161737031Y-83921266D01*
X161737183Y-83921595D01*
X161788553Y-84032733D01*
X161619601Y-84281253D01*
X161450648Y-84529772D01*
X161667571Y-84747058D01*
X161733181Y-84811726D01*
X161793021Y-84868733D01*
X161843733Y-84915033D01*
X161881954Y-84947584D01*
X161904325Y-84963343D01*
X161907534Y-84964343D01*
X161926374Y-84956469D01*
X161964820Y-84934578D01*
X162018670Y-84901267D01*
X162083724Y-84859131D01*
X162154060Y-84811943D01*
X162225445Y-84763810D01*
X162289092Y-84721928D01*
X162340959Y-84688871D01*
X162377005Y-84667218D01*
X162393133Y-84659543D01*
X162412811Y-84666037D01*
X162450125Y-84683150D01*
X162497379Y-84707326D01*
X162502388Y-84710013D01*
X162566023Y-84741927D01*
X162609659Y-84757579D01*
X162636798Y-84757745D01*
X162650943Y-84743204D01*
X162651025Y-84743000D01*
X162658095Y-84725779D01*
X162674958Y-84684899D01*
X162700305Y-84623525D01*
X162732829Y-84544819D01*
X162771222Y-84451947D01*
X162814178Y-84348072D01*
X162855778Y-84247502D01*
X162901496Y-84136516D01*
X162943474Y-84033703D01*
X162980452Y-83942215D01*
X163011173Y-83865201D01*
X163034378Y-83805815D01*
X163048810Y-83767209D01*
X163053257Y-83752800D01*
X163042104Y-83736272D01*
X163012931Y-83709930D01*
X162974029Y-83680887D01*
X162863243Y-83589039D01*
X162776649Y-83483759D01*
X162715284Y-83367266D01*
X162680185Y-83241776D01*
X162672392Y-83109507D01*
X162678057Y-83048457D01*
X162708922Y-82921795D01*
X162762080Y-82809941D01*
X162834233Y-82714001D01*
X162922083Y-82635076D01*
X163022335Y-82574270D01*
X163131690Y-82532687D01*
X163246853Y-82511428D01*
X163364525Y-82511599D01*
X163481410Y-82534301D01*
X163594211Y-82580638D01*
X163699631Y-82651713D01*
X163743632Y-82691911D01*
X163828021Y-82795129D01*
X163886778Y-82907925D01*
X163920296Y-83027010D01*
X163928965Y-83149095D01*
X163913177Y-83270893D01*
X163873322Y-83389116D01*
X163809793Y-83500475D01*
X163722979Y-83601684D01*
X163625971Y-83680887D01*
X163585563Y-83711162D01*
X163557018Y-83737219D01*
X163546743Y-83752825D01*
X163552123Y-83769843D01*
X163567425Y-83810500D01*
X163591388Y-83871642D01*
X163622756Y-83950119D01*
X163660268Y-84042780D01*
X163702667Y-84146472D01*
X163744337Y-84247526D01*
X163790310Y-84358607D01*
X163832893Y-84461541D01*
X163870779Y-84553165D01*
X163902660Y-84630316D01*
X163927229Y-84689831D01*
X163943180Y-84728544D01*
X163949090Y-84743000D01*
X163963052Y-84757685D01*
X163990060Y-84757642D01*
X164033587Y-84742099D01*
X164097110Y-84710284D01*
X164097612Y-84710013D01*
X164145440Y-84685323D01*
X164184103Y-84667338D01*
X164205905Y-84659614D01*
X164206867Y-84659543D01*
X164223279Y-84667378D01*
X164259513Y-84689165D01*
X164311526Y-84722328D01*
X164375275Y-84764291D01*
X164445940Y-84811943D01*
X164517884Y-84860191D01*
X164582726Y-84902151D01*
X164636265Y-84935227D01*
X164674303Y-84956821D01*
X164692467Y-84964343D01*
X164709192Y-84954457D01*
X164742820Y-84926826D01*
X164789990Y-84884495D01*
X164847342Y-84830505D01*
X164911516Y-84767899D01*
X164932503Y-84746983D01*
X165149501Y-84529623D01*
X164984332Y-84287220D01*
X164934136Y-84212781D01*
X164890081Y-84145972D01*
X164854638Y-84090665D01*
X164830281Y-84050729D01*
X164819478Y-84030036D01*
X164819162Y-84028563D01*
X164824857Y-84009058D01*
X164840174Y-83969822D01*
X164862463Y-83917430D01*
X164878107Y-83882355D01*
X164907359Y-83815201D01*
X164934906Y-83747358D01*
X164956263Y-83690034D01*
X164962065Y-83672572D01*
X164978548Y-83625938D01*
X164994660Y-83589905D01*
X165003510Y-83576287D01*
X165023040Y-83567952D01*
X165065666Y-83556137D01*
X165125855Y-83542181D01*
X165198078Y-83527422D01*
X165230400Y-83521355D01*
X165312478Y-83506273D01*
X165391205Y-83491669D01*
X165458891Y-83478980D01*
X165507840Y-83469642D01*
X165517057Y-83467839D01*
X165593257Y-83452799D01*
X165593257Y-83135492D01*
X165593086Y-83031154D01*
X165592384Y-82952213D01*
X165590866Y-82895038D01*
X165588251Y-82855999D01*
X165584254Y-82831465D01*
X165578591Y-82817805D01*
X165570980Y-82811389D01*
X165567857Y-82810199D01*
X165549022Y-82805980D01*
X165507412Y-82797562D01*
X165448370Y-82785961D01*
X165377243Y-82772195D01*
X165299375Y-82757280D01*
X165220113Y-82742232D01*
X165144802Y-82728069D01*
X165078787Y-82715806D01*
X165027413Y-82706461D01*
X164996025Y-82701050D01*
X164989041Y-82700114D01*
X164982715Y-82687596D01*
X164968710Y-82654246D01*
X164949645Y-82606377D01*
X164942366Y-82587629D01*
X164913004Y-82515195D01*
X164878429Y-82435170D01*
X164847463Y-82367728D01*
X164824677Y-82316159D01*
X164809518Y-82273785D01*
X164804458Y-82247834D01*
X164805264Y-82244356D01*
X164815959Y-82227936D01*
X164840380Y-82191417D01*
X164875905Y-82138687D01*
X164919913Y-82073635D01*
X164969783Y-82000151D01*
X164979644Y-81985645D01*
X165037508Y-81899704D01*
X165080044Y-81834261D01*
X165108946Y-81786304D01*
X165125910Y-81752820D01*
X165132633Y-81730795D01*
X165130810Y-81717217D01*
X165130764Y-81717131D01*
X165116414Y-81699297D01*
X165084677Y-81664817D01*
X165038990Y-81617268D01*
X164982796Y-81560222D01*
X164919532Y-81497255D01*
X164912398Y-81490227D01*
X164832670Y-81413020D01*
X164771143Y-81356330D01*
X164726579Y-81319110D01*
X164697743Y-81300315D01*
X164685042Y-81297889D01*
X164666506Y-81308471D01*
X164628039Y-81332916D01*
X164573614Y-81368612D01*
X164507202Y-81412947D01*
X164432775Y-81463311D01*
X164415399Y-81475160D01*
X164168703Y-81643626D01*
X164057294Y-81593062D01*
X163989543Y-81563595D01*
X163916817Y-81533959D01*
X163854297Y-81510330D01*
X163851543Y-81509358D01*
X163802640Y-81491457D01*
X163764943Y-81476320D01*
X163746575Y-81467210D01*
X163746544Y-81467184D01*
X163740715Y-81450717D01*
X163730808Y-81410219D01*
X163717805Y-81350242D01*
X163702691Y-81275340D01*
X163686448Y-81190064D01*
X163685119Y-81182875D01*
X163668825Y-81095014D01*
X163653867Y-81015260D01*
X163641209Y-80948681D01*
X163631814Y-80900347D01*
X163626646Y-80875325D01*
X163626556Y-80874943D01*
X163623411Y-80864299D01*
X163617296Y-80856262D01*
X163604547Y-80850467D01*
X163581500Y-80846547D01*
X163544491Y-80844135D01*
X163489856Y-80842865D01*
X163413933Y-80842371D01*
X163313056Y-80842286D01*
X163300000Y-80842286D01*
X163196090Y-80842348D01*
X163196090Y-80842348D01*
G37*
X163196090Y-80842348D02*
X163117546Y-80842778D01*
X163060702Y-80843942D01*
X163021895Y-80846207D01*
X162997462Y-80849940D01*
X162983738Y-80855506D01*
X162977060Y-80863273D01*
X162973764Y-80873605D01*
X162973444Y-80874943D01*
X162968438Y-80899079D01*
X162959171Y-80946701D01*
X162946608Y-81012741D01*
X162931713Y-81092128D01*
X162915449Y-81179796D01*
X162914881Y-81182875D01*
X162898590Y-81268789D01*
X162883348Y-81344696D01*
X162870139Y-81406045D01*
X162859946Y-81448282D01*
X162853752Y-81466855D01*
X162853457Y-81467184D01*
X162835212Y-81476253D01*
X162797595Y-81491367D01*
X162748729Y-81509262D01*
X162748457Y-81509358D01*
X162686907Y-81532493D01*
X162614343Y-81561965D01*
X162545943Y-81591597D01*
X162542706Y-81593062D01*
X162431298Y-81643626D01*
X162184601Y-81475160D01*
X162108923Y-81423803D01*
X162040369Y-81377889D01*
X161982912Y-81340030D01*
X161940524Y-81312837D01*
X161917175Y-81298921D01*
X161914958Y-81297889D01*
X161897990Y-81302484D01*
X161866299Y-81324655D01*
X161818648Y-81365447D01*
X161753802Y-81425905D01*
X161687603Y-81490227D01*
X161623786Y-81553612D01*
X161566671Y-81611451D01*
X161519695Y-81660175D01*
X161486297Y-81696210D01*
X161469915Y-81715984D01*
X161469306Y-81717002D01*
X161467495Y-81730572D01*
X161474317Y-81752733D01*
X161491460Y-81786478D01*
X161520607Y-81834800D01*
X161563445Y-81900692D01*
X161620552Y-81985517D01*
X161671234Y-82060177D01*
X161716539Y-82127140D01*
X161753850Y-82182516D01*
X161780548Y-82222420D01*
X161794015Y-82242962D01*
X161794863Y-82244356D01*
X161793219Y-82264038D01*
X161780755Y-82302293D01*
X161759952Y-82351889D01*
X161752538Y-82367728D01*
X161720186Y-82438290D01*
X161685672Y-82518353D01*
X161657635Y-82587629D01*
X161637432Y-82639045D01*
X161621385Y-82678119D01*
X161612112Y-82698541D01*
X161610959Y-82700114D01*
X161593904Y-82702721D01*
X161553702Y-82709863D01*
X161495698Y-82720523D01*
X161425237Y-82733685D01*
X161347665Y-82748333D01*
X161268328Y-82763449D01*
X161192569Y-82778018D01*
X161125736Y-82791022D01*
X161073172Y-82801445D01*
X161040224Y-82808270D01*
X161032143Y-82810199D01*
X161023795Y-82814962D01*
X161017494Y-82825718D01*
X161012955Y-82846098D01*
X161009896Y-82879734D01*
X161008033Y-82930255D01*
X161007082Y-83001292D01*
X161006760Y-83096476D01*
X161006743Y-83135492D01*
X161006743Y-83452799D01*
X161082943Y-83467839D01*
X161125337Y-83475995D01*
X161188600Y-83487899D01*
X161265038Y-83502116D01*
X161346957Y-83517210D01*
X161369600Y-83521355D01*
X161445194Y-83536053D01*
X161511047Y-83550505D01*
X161561634Y-83563375D01*
X161591426Y-83573322D01*
X161596388Y-83576287D01*
X161608574Y-83597283D01*
X161626047Y-83637967D01*
X161645423Y-83690322D01*
X161649266Y-83701600D01*
X161674661Y-83771523D01*
X161706183Y-83850418D01*
X161737031Y-83921266D01*
X161737183Y-83921595D01*
X161788553Y-84032733D01*
X161619601Y-84281253D01*
X161450648Y-84529772D01*
X161667571Y-84747058D01*
X161733181Y-84811726D01*
X161793021Y-84868733D01*
X161843733Y-84915033D01*
X161881954Y-84947584D01*
X161904325Y-84963343D01*
X161907534Y-84964343D01*
X161926374Y-84956469D01*
X161964820Y-84934578D01*
X162018670Y-84901267D01*
X162083724Y-84859131D01*
X162154060Y-84811943D01*
X162225445Y-84763810D01*
X162289092Y-84721928D01*
X162340959Y-84688871D01*
X162377005Y-84667218D01*
X162393133Y-84659543D01*
X162412811Y-84666037D01*
X162450125Y-84683150D01*
X162497379Y-84707326D01*
X162502388Y-84710013D01*
X162566023Y-84741927D01*
X162609659Y-84757579D01*
X162636798Y-84757745D01*
X162650943Y-84743204D01*
X162651025Y-84743000D01*
X162658095Y-84725779D01*
X162674958Y-84684899D01*
X162700305Y-84623525D01*
X162732829Y-84544819D01*
X162771222Y-84451947D01*
X162814178Y-84348072D01*
X162855778Y-84247502D01*
X162901496Y-84136516D01*
X162943474Y-84033703D01*
X162980452Y-83942215D01*
X163011173Y-83865201D01*
X163034378Y-83805815D01*
X163048810Y-83767209D01*
X163053257Y-83752800D01*
X163042104Y-83736272D01*
X163012931Y-83709930D01*
X162974029Y-83680887D01*
X162863243Y-83589039D01*
X162776649Y-83483759D01*
X162715284Y-83367266D01*
X162680185Y-83241776D01*
X162672392Y-83109507D01*
X162678057Y-83048457D01*
X162708922Y-82921795D01*
X162762080Y-82809941D01*
X162834233Y-82714001D01*
X162922083Y-82635076D01*
X163022335Y-82574270D01*
X163131690Y-82532687D01*
X163246853Y-82511428D01*
X163364525Y-82511599D01*
X163481410Y-82534301D01*
X163594211Y-82580638D01*
X163699631Y-82651713D01*
X163743632Y-82691911D01*
X163828021Y-82795129D01*
X163886778Y-82907925D01*
X163920296Y-83027010D01*
X163928965Y-83149095D01*
X163913177Y-83270893D01*
X163873322Y-83389116D01*
X163809793Y-83500475D01*
X163722979Y-83601684D01*
X163625971Y-83680887D01*
X163585563Y-83711162D01*
X163557018Y-83737219D01*
X163546743Y-83752825D01*
X163552123Y-83769843D01*
X163567425Y-83810500D01*
X163591388Y-83871642D01*
X163622756Y-83950119D01*
X163660268Y-84042780D01*
X163702667Y-84146472D01*
X163744337Y-84247526D01*
X163790310Y-84358607D01*
X163832893Y-84461541D01*
X163870779Y-84553165D01*
X163902660Y-84630316D01*
X163927229Y-84689831D01*
X163943180Y-84728544D01*
X163949090Y-84743000D01*
X163963052Y-84757685D01*
X163990060Y-84757642D01*
X164033587Y-84742099D01*
X164097110Y-84710284D01*
X164097612Y-84710013D01*
X164145440Y-84685323D01*
X164184103Y-84667338D01*
X164205905Y-84659614D01*
X164206867Y-84659543D01*
X164223279Y-84667378D01*
X164259513Y-84689165D01*
X164311526Y-84722328D01*
X164375275Y-84764291D01*
X164445940Y-84811943D01*
X164517884Y-84860191D01*
X164582726Y-84902151D01*
X164636265Y-84935227D01*
X164674303Y-84956821D01*
X164692467Y-84964343D01*
X164709192Y-84954457D01*
X164742820Y-84926826D01*
X164789990Y-84884495D01*
X164847342Y-84830505D01*
X164911516Y-84767899D01*
X164932503Y-84746983D01*
X165149501Y-84529623D01*
X164984332Y-84287220D01*
X164934136Y-84212781D01*
X164890081Y-84145972D01*
X164854638Y-84090665D01*
X164830281Y-84050729D01*
X164819478Y-84030036D01*
X164819162Y-84028563D01*
X164824857Y-84009058D01*
X164840174Y-83969822D01*
X164862463Y-83917430D01*
X164878107Y-83882355D01*
X164907359Y-83815201D01*
X164934906Y-83747358D01*
X164956263Y-83690034D01*
X164962065Y-83672572D01*
X164978548Y-83625938D01*
X164994660Y-83589905D01*
X165003510Y-83576287D01*
X165023040Y-83567952D01*
X165065666Y-83556137D01*
X165125855Y-83542181D01*
X165198078Y-83527422D01*
X165230400Y-83521355D01*
X165312478Y-83506273D01*
X165391205Y-83491669D01*
X165458891Y-83478980D01*
X165507840Y-83469642D01*
X165517057Y-83467839D01*
X165593257Y-83452799D01*
X165593257Y-83135492D01*
X165593086Y-83031154D01*
X165592384Y-82952213D01*
X165590866Y-82895038D01*
X165588251Y-82855999D01*
X165584254Y-82831465D01*
X165578591Y-82817805D01*
X165570980Y-82811389D01*
X165567857Y-82810199D01*
X165549022Y-82805980D01*
X165507412Y-82797562D01*
X165448370Y-82785961D01*
X165377243Y-82772195D01*
X165299375Y-82757280D01*
X165220113Y-82742232D01*
X165144802Y-82728069D01*
X165078787Y-82715806D01*
X165027413Y-82706461D01*
X164996025Y-82701050D01*
X164989041Y-82700114D01*
X164982715Y-82687596D01*
X164968710Y-82654246D01*
X164949645Y-82606377D01*
X164942366Y-82587629D01*
X164913004Y-82515195D01*
X164878429Y-82435170D01*
X164847463Y-82367728D01*
X164824677Y-82316159D01*
X164809518Y-82273785D01*
X164804458Y-82247834D01*
X164805264Y-82244356D01*
X164815959Y-82227936D01*
X164840380Y-82191417D01*
X164875905Y-82138687D01*
X164919913Y-82073635D01*
X164969783Y-82000151D01*
X164979644Y-81985645D01*
X165037508Y-81899704D01*
X165080044Y-81834261D01*
X165108946Y-81786304D01*
X165125910Y-81752820D01*
X165132633Y-81730795D01*
X165130810Y-81717217D01*
X165130764Y-81717131D01*
X165116414Y-81699297D01*
X165084677Y-81664817D01*
X165038990Y-81617268D01*
X164982796Y-81560222D01*
X164919532Y-81497255D01*
X164912398Y-81490227D01*
X164832670Y-81413020D01*
X164771143Y-81356330D01*
X164726579Y-81319110D01*
X164697743Y-81300315D01*
X164685042Y-81297889D01*
X164666506Y-81308471D01*
X164628039Y-81332916D01*
X164573614Y-81368612D01*
X164507202Y-81412947D01*
X164432775Y-81463311D01*
X164415399Y-81475160D01*
X164168703Y-81643626D01*
X164057294Y-81593062D01*
X163989543Y-81563595D01*
X163916817Y-81533959D01*
X163854297Y-81510330D01*
X163851543Y-81509358D01*
X163802640Y-81491457D01*
X163764943Y-81476320D01*
X163746575Y-81467210D01*
X163746544Y-81467184D01*
X163740715Y-81450717D01*
X163730808Y-81410219D01*
X163717805Y-81350242D01*
X163702691Y-81275340D01*
X163686448Y-81190064D01*
X163685119Y-81182875D01*
X163668825Y-81095014D01*
X163653867Y-81015260D01*
X163641209Y-80948681D01*
X163631814Y-80900347D01*
X163626646Y-80875325D01*
X163626556Y-80874943D01*
X163623411Y-80864299D01*
X163617296Y-80856262D01*
X163604547Y-80850467D01*
X163581500Y-80846547D01*
X163544491Y-80844135D01*
X163489856Y-80842865D01*
X163413933Y-80842371D01*
X163313056Y-80842286D01*
X163300000Y-80842286D01*
X163196090Y-80842348D01*
G36*
X160146405Y-85566966D02*
X160088979Y-85604497D01*
X160061281Y-85638096D01*
X160039338Y-85699064D01*
X160037595Y-85747308D01*
X160041543Y-85811816D01*
X160190314Y-85876934D01*
X160262651Y-85910202D01*
X160309916Y-85936964D01*
X160334493Y-85960144D01*
X160338763Y-85982667D01*
X160325111Y-86007455D01*
X160310057Y-86023886D01*
X160266254Y-86050235D01*
X160218611Y-86052081D01*
X160174855Y-86031546D01*
X160142711Y-85990752D01*
X160136962Y-85976347D01*
X160109424Y-85931356D01*
X160077742Y-85912182D01*
X160034286Y-85895779D01*
X160034286Y-85957966D01*
X160038128Y-86000283D01*
X160053177Y-86035969D01*
X160084720Y-86076943D01*
X160089408Y-86082267D01*
X160124494Y-86118720D01*
X160154653Y-86138283D01*
X160192385Y-86147283D01*
X160223665Y-86150230D01*
X160279615Y-86150965D01*
X160319445Y-86141660D01*
X160344292Y-86127846D01*
X160383344Y-86097467D01*
X160410375Y-86064613D01*
X160427483Y-86023294D01*
X160436762Y-85967521D01*
X160440307Y-85891305D01*
X160440590Y-85852622D01*
X160439628Y-85806247D01*
X160351993Y-85806247D01*
X160350977Y-85831126D01*
X160348444Y-85835200D01*
X160331726Y-85829665D01*
X160295751Y-85815017D01*
X160247669Y-85794190D01*
X160237614Y-85789714D01*
X160176848Y-85758814D01*
X160143368Y-85731657D01*
X160136010Y-85706220D01*
X160153609Y-85680481D01*
X160168144Y-85669109D01*
X160220590Y-85646364D01*
X160269678Y-85650122D01*
X160310773Y-85677884D01*
X160339242Y-85727152D01*
X160348369Y-85766257D01*
X160351993Y-85806247D01*
X160439628Y-85806247D01*
X160438715Y-85762249D01*
X160431804Y-85695384D01*
X160418116Y-85646695D01*
X160395904Y-85610849D01*
X160363426Y-85582513D01*
X160349267Y-85573355D01*
X160284947Y-85549507D01*
X160214527Y-85548006D01*
X160146405Y-85566966D01*
X160146405Y-85566966D01*
G37*
X160146405Y-85566966D02*
X160088979Y-85604497D01*
X160061281Y-85638096D01*
X160039338Y-85699064D01*
X160037595Y-85747308D01*
X160041543Y-85811816D01*
X160190314Y-85876934D01*
X160262651Y-85910202D01*
X160309916Y-85936964D01*
X160334493Y-85960144D01*
X160338763Y-85982667D01*
X160325111Y-86007455D01*
X160310057Y-86023886D01*
X160266254Y-86050235D01*
X160218611Y-86052081D01*
X160174855Y-86031546D01*
X160142711Y-85990752D01*
X160136962Y-85976347D01*
X160109424Y-85931356D01*
X160077742Y-85912182D01*
X160034286Y-85895779D01*
X160034286Y-85957966D01*
X160038128Y-86000283D01*
X160053177Y-86035969D01*
X160084720Y-86076943D01*
X160089408Y-86082267D01*
X160124494Y-86118720D01*
X160154653Y-86138283D01*
X160192385Y-86147283D01*
X160223665Y-86150230D01*
X160279615Y-86150965D01*
X160319445Y-86141660D01*
X160344292Y-86127846D01*
X160383344Y-86097467D01*
X160410375Y-86064613D01*
X160427483Y-86023294D01*
X160436762Y-85967521D01*
X160440307Y-85891305D01*
X160440590Y-85852622D01*
X160439628Y-85806247D01*
X160351993Y-85806247D01*
X160350977Y-85831126D01*
X160348444Y-85835200D01*
X160331726Y-85829665D01*
X160295751Y-85815017D01*
X160247669Y-85794190D01*
X160237614Y-85789714D01*
X160176848Y-85758814D01*
X160143368Y-85731657D01*
X160136010Y-85706220D01*
X160153609Y-85680481D01*
X160168144Y-85669109D01*
X160220590Y-85646364D01*
X160269678Y-85650122D01*
X160310773Y-85677884D01*
X160339242Y-85727152D01*
X160348369Y-85766257D01*
X160351993Y-85806247D01*
X160439628Y-85806247D01*
X160438715Y-85762249D01*
X160431804Y-85695384D01*
X160418116Y-85646695D01*
X160395904Y-85610849D01*
X160363426Y-85582513D01*
X160349267Y-85573355D01*
X160284947Y-85549507D01*
X160214527Y-85548006D01*
X160146405Y-85566966D01*
G36*
X160647400Y-85558752D02*
X160630052Y-85566334D01*
X160588644Y-85599128D01*
X160553235Y-85646547D01*
X160531336Y-85697151D01*
X160527771Y-85722098D01*
X160539721Y-85756927D01*
X160565933Y-85775357D01*
X160594036Y-85786516D01*
X160606905Y-85788572D01*
X160613171Y-85773649D01*
X160625544Y-85741175D01*
X160630972Y-85726502D01*
X160661410Y-85675744D01*
X160705480Y-85650427D01*
X160761990Y-85651206D01*
X160766175Y-85652203D01*
X160796345Y-85666507D01*
X160818524Y-85694393D01*
X160833673Y-85739287D01*
X160842750Y-85804615D01*
X160846714Y-85893804D01*
X160847086Y-85941261D01*
X160847270Y-86016071D01*
X160848478Y-86067069D01*
X160851691Y-86099471D01*
X160857891Y-86118495D01*
X160868060Y-86129356D01*
X160883181Y-86137272D01*
X160884054Y-86137670D01*
X160913172Y-86149981D01*
X160927597Y-86154514D01*
X160929814Y-86140809D01*
X160931711Y-86102925D01*
X160933153Y-86045715D01*
X160934002Y-85974027D01*
X160934171Y-85921565D01*
X160933308Y-85820047D01*
X160929930Y-85743032D01*
X160922858Y-85686023D01*
X160910912Y-85644526D01*
X160892910Y-85614043D01*
X160867673Y-85590080D01*
X160842753Y-85573355D01*
X160782829Y-85551097D01*
X160713089Y-85546076D01*
X160647400Y-85558752D01*
X160647400Y-85558752D01*
G37*
X160647400Y-85558752D02*
X160630052Y-85566334D01*
X160588644Y-85599128D01*
X160553235Y-85646547D01*
X160531336Y-85697151D01*
X160527771Y-85722098D01*
X160539721Y-85756927D01*
X160565933Y-85775357D01*
X160594036Y-85786516D01*
X160606905Y-85788572D01*
X160613171Y-85773649D01*
X160625544Y-85741175D01*
X160630972Y-85726502D01*
X160661410Y-85675744D01*
X160705480Y-85650427D01*
X160761990Y-85651206D01*
X160766175Y-85652203D01*
X160796345Y-85666507D01*
X160818524Y-85694393D01*
X160833673Y-85739287D01*
X160842750Y-85804615D01*
X160846714Y-85893804D01*
X160847086Y-85941261D01*
X160847270Y-86016071D01*
X160848478Y-86067069D01*
X160851691Y-86099471D01*
X160857891Y-86118495D01*
X160868060Y-86129356D01*
X160883181Y-86137272D01*
X160884054Y-86137670D01*
X160913172Y-86149981D01*
X160927597Y-86154514D01*
X160929814Y-86140809D01*
X160931711Y-86102925D01*
X160933153Y-86045715D01*
X160934002Y-85974027D01*
X160934171Y-85921565D01*
X160933308Y-85820047D01*
X160929930Y-85743032D01*
X160922858Y-85686023D01*
X160910912Y-85644526D01*
X160892910Y-85614043D01*
X160867673Y-85590080D01*
X160842753Y-85573355D01*
X160782829Y-85551097D01*
X160713089Y-85546076D01*
X160647400Y-85558752D01*
G36*
X161155124Y-85556335D02*
X161113333Y-85575344D01*
X161080531Y-85598378D01*
X161056497Y-85624133D01*
X161039903Y-85657358D01*
X161029423Y-85702800D01*
X161023729Y-85765207D01*
X161021493Y-85849327D01*
X161021257Y-85904721D01*
X161021257Y-86120826D01*
X161058226Y-86137670D01*
X161087344Y-86149981D01*
X161101769Y-86154514D01*
X161104528Y-86141025D01*
X161106718Y-86104653D01*
X161108058Y-86051542D01*
X161108343Y-86009372D01*
X161109566Y-85948447D01*
X161112864Y-85900115D01*
X161117679Y-85870518D01*
X161121504Y-85864229D01*
X161147217Y-85870652D01*
X161187582Y-85887125D01*
X161234321Y-85909458D01*
X161279155Y-85933457D01*
X161313807Y-85954930D01*
X161329998Y-85969685D01*
X161330062Y-85969845D01*
X161328670Y-85997152D01*
X161316182Y-86023219D01*
X161294257Y-86044392D01*
X161262257Y-86051474D01*
X161234908Y-86050649D01*
X161196174Y-86050042D01*
X161175842Y-86059116D01*
X161163631Y-86083092D01*
X161162091Y-86087613D01*
X161156797Y-86121806D01*
X161170953Y-86142568D01*
X161207852Y-86152462D01*
X161247711Y-86154292D01*
X161319438Y-86140727D01*
X161356568Y-86121355D01*
X161402424Y-86075845D01*
X161426744Y-86019983D01*
X161428927Y-85960957D01*
X161408371Y-85905953D01*
X161377451Y-85871486D01*
X161346580Y-85852189D01*
X161298058Y-85827759D01*
X161241515Y-85802985D01*
X161232090Y-85799199D01*
X161169981Y-85771791D01*
X161134178Y-85747634D01*
X161122663Y-85723619D01*
X161133420Y-85696635D01*
X161151886Y-85675543D01*
X161195531Y-85649572D01*
X161243554Y-85647624D01*
X161287594Y-85667637D01*
X161319291Y-85707551D01*
X161323451Y-85717848D01*
X161347673Y-85755724D01*
X161383035Y-85783842D01*
X161427657Y-85806917D01*
X161427657Y-85741485D01*
X161425031Y-85701506D01*
X161413770Y-85669997D01*
X161388801Y-85636378D01*
X161364831Y-85610484D01*
X161327559Y-85573817D01*
X161298599Y-85554121D01*
X161267495Y-85546220D01*
X161232287Y-85544914D01*
X161155124Y-85556335D01*
X161155124Y-85556335D01*
G37*
X161155124Y-85556335D02*
X161113333Y-85575344D01*
X161080531Y-85598378D01*
X161056497Y-85624133D01*
X161039903Y-85657358D01*
X161029423Y-85702800D01*
X161023729Y-85765207D01*
X161021493Y-85849327D01*
X161021257Y-85904721D01*
X161021257Y-86120826D01*
X161058226Y-86137670D01*
X161087344Y-86149981D01*
X161101769Y-86154514D01*
X161104528Y-86141025D01*
X161106718Y-86104653D01*
X161108058Y-86051542D01*
X161108343Y-86009372D01*
X161109566Y-85948447D01*
X161112864Y-85900115D01*
X161117679Y-85870518D01*
X161121504Y-85864229D01*
X161147217Y-85870652D01*
X161187582Y-85887125D01*
X161234321Y-85909458D01*
X161279155Y-85933457D01*
X161313807Y-85954930D01*
X161329998Y-85969685D01*
X161330062Y-85969845D01*
X161328670Y-85997152D01*
X161316182Y-86023219D01*
X161294257Y-86044392D01*
X161262257Y-86051474D01*
X161234908Y-86050649D01*
X161196174Y-86050042D01*
X161175842Y-86059116D01*
X161163631Y-86083092D01*
X161162091Y-86087613D01*
X161156797Y-86121806D01*
X161170953Y-86142568D01*
X161207852Y-86152462D01*
X161247711Y-86154292D01*
X161319438Y-86140727D01*
X161356568Y-86121355D01*
X161402424Y-86075845D01*
X161426744Y-86019983D01*
X161428927Y-85960957D01*
X161408371Y-85905953D01*
X161377451Y-85871486D01*
X161346580Y-85852189D01*
X161298058Y-85827759D01*
X161241515Y-85802985D01*
X161232090Y-85799199D01*
X161169981Y-85771791D01*
X161134178Y-85747634D01*
X161122663Y-85723619D01*
X161133420Y-85696635D01*
X161151886Y-85675543D01*
X161195531Y-85649572D01*
X161243554Y-85647624D01*
X161287594Y-85667637D01*
X161319291Y-85707551D01*
X161323451Y-85717848D01*
X161347673Y-85755724D01*
X161383035Y-85783842D01*
X161427657Y-85806917D01*
X161427657Y-85741485D01*
X161425031Y-85701506D01*
X161413770Y-85669997D01*
X161388801Y-85636378D01*
X161364831Y-85610484D01*
X161327559Y-85573817D01*
X161298599Y-85554121D01*
X161267495Y-85546220D01*
X161232287Y-85544914D01*
X161155124Y-85556335D01*
G36*
X161520167Y-85558663D02*
X161517952Y-85596850D01*
X161516216Y-85654886D01*
X161515101Y-85728180D01*
X161514743Y-85805055D01*
X161514743Y-86065196D01*
X161560674Y-86111127D01*
X161592325Y-86139429D01*
X161620110Y-86150893D01*
X161658085Y-86150168D01*
X161673160Y-86148321D01*
X161720274Y-86142948D01*
X161759244Y-86139869D01*
X161768743Y-86139585D01*
X161800767Y-86141445D01*
X161846568Y-86146114D01*
X161864326Y-86148321D01*
X161907943Y-86151735D01*
X161937255Y-86144320D01*
X161966320Y-86121427D01*
X161976812Y-86111127D01*
X162022743Y-86065196D01*
X162022743Y-85578602D01*
X161985774Y-85561758D01*
X161953941Y-85549282D01*
X161935317Y-85544914D01*
X161930542Y-85558718D01*
X161926079Y-85597286D01*
X161922225Y-85656356D01*
X161919278Y-85731663D01*
X161917857Y-85795286D01*
X161913886Y-86045657D01*
X161879241Y-86050556D01*
X161847732Y-86047131D01*
X161832292Y-86036041D01*
X161827977Y-86015308D01*
X161824292Y-85971145D01*
X161821531Y-85909146D01*
X161819988Y-85834909D01*
X161819765Y-85796706D01*
X161819543Y-85576783D01*
X161773834Y-85560849D01*
X161741482Y-85550015D01*
X161723885Y-85544962D01*
X161723377Y-85544914D01*
X161721612Y-85558648D01*
X161719671Y-85596730D01*
X161717718Y-85654482D01*
X161715916Y-85727227D01*
X161714657Y-85795286D01*
X161710686Y-86045657D01*
X161623600Y-86045657D01*
X161619604Y-85817240D01*
X161615608Y-85588822D01*
X161573153Y-85566868D01*
X161541808Y-85551793D01*
X161523256Y-85544951D01*
X161522721Y-85544914D01*
X161520167Y-85558663D01*
X161520167Y-85558663D01*
G37*
X161520167Y-85558663D02*
X161517952Y-85596850D01*
X161516216Y-85654886D01*
X161515101Y-85728180D01*
X161514743Y-85805055D01*
X161514743Y-86065196D01*
X161560674Y-86111127D01*
X161592325Y-86139429D01*
X161620110Y-86150893D01*
X161658085Y-86150168D01*
X161673160Y-86148321D01*
X161720274Y-86142948D01*
X161759244Y-86139869D01*
X161768743Y-86139585D01*
X161800767Y-86141445D01*
X161846568Y-86146114D01*
X161864326Y-86148321D01*
X161907943Y-86151735D01*
X161937255Y-86144320D01*
X161966320Y-86121427D01*
X161976812Y-86111127D01*
X162022743Y-86065196D01*
X162022743Y-85578602D01*
X161985774Y-85561758D01*
X161953941Y-85549282D01*
X161935317Y-85544914D01*
X161930542Y-85558718D01*
X161926079Y-85597286D01*
X161922225Y-85656356D01*
X161919278Y-85731663D01*
X161917857Y-85795286D01*
X161913886Y-86045657D01*
X161879241Y-86050556D01*
X161847732Y-86047131D01*
X161832292Y-86036041D01*
X161827977Y-86015308D01*
X161824292Y-85971145D01*
X161821531Y-85909146D01*
X161819988Y-85834909D01*
X161819765Y-85796706D01*
X161819543Y-85576783D01*
X161773834Y-85560849D01*
X161741482Y-85550015D01*
X161723885Y-85544962D01*
X161723377Y-85544914D01*
X161721612Y-85558648D01*
X161719671Y-85596730D01*
X161717718Y-85654482D01*
X161715916Y-85727227D01*
X161714657Y-85795286D01*
X161710686Y-86045657D01*
X161623600Y-86045657D01*
X161619604Y-85817240D01*
X161615608Y-85588822D01*
X161573153Y-85566868D01*
X161541808Y-85551793D01*
X161523256Y-85544951D01*
X161522721Y-85544914D01*
X161520167Y-85558663D01*
G36*
X162109883Y-85665358D02*
X162110067Y-85773837D01*
X162110781Y-85857287D01*
X162112325Y-85919704D01*
X162114999Y-85965085D01*
X162119106Y-85997429D01*
X162124945Y-86020733D01*
X162132818Y-86038995D01*
X162138779Y-86049418D01*
X162188145Y-86105945D01*
X162250736Y-86141377D01*
X162319987Y-86154090D01*
X162389332Y-86142463D01*
X162430625Y-86121568D01*
X162473975Y-86085422D01*
X162503519Y-86041276D01*
X162521345Y-85983462D01*
X162529537Y-85906313D01*
X162530698Y-85849714D01*
X162530542Y-85845647D01*
X162429143Y-85845647D01*
X162428524Y-85910550D01*
X162425686Y-85953514D01*
X162419160Y-85981622D01*
X162407477Y-86001953D01*
X162393517Y-86017288D01*
X162346635Y-86046890D01*
X162296299Y-86049419D01*
X162248724Y-86024705D01*
X162245021Y-86021356D01*
X162229217Y-86003935D01*
X162219307Y-85983209D01*
X162213942Y-85952362D01*
X162211772Y-85904577D01*
X162211429Y-85851748D01*
X162212173Y-85785381D01*
X162215252Y-85741106D01*
X162221939Y-85712009D01*
X162233504Y-85691173D01*
X162242987Y-85680107D01*
X162287040Y-85652198D01*
X162337776Y-85648843D01*
X162386204Y-85670159D01*
X162395550Y-85678073D01*
X162411460Y-85695647D01*
X162421390Y-85716587D01*
X162426722Y-85747782D01*
X162428837Y-85796122D01*
X162429143Y-85845647D01*
X162530542Y-85845647D01*
X162527190Y-85758568D01*
X162515274Y-85690086D01*
X162492865Y-85638600D01*
X162457876Y-85598443D01*
X162430625Y-85577861D01*
X162381093Y-85555625D01*
X162323684Y-85545304D01*
X162270318Y-85548067D01*
X162240457Y-85559212D01*
X162228739Y-85562383D01*
X162220963Y-85550557D01*
X162215535Y-85518866D01*
X162211429Y-85470593D01*
X162206933Y-85416829D01*
X162200687Y-85384482D01*
X162189324Y-85365985D01*
X162169472Y-85353770D01*
X162157000Y-85348362D01*
X162109829Y-85328601D01*
X162109883Y-85665358D01*
X162109883Y-85665358D01*
G37*
X162109883Y-85665358D02*
X162110067Y-85773837D01*
X162110781Y-85857287D01*
X162112325Y-85919704D01*
X162114999Y-85965085D01*
X162119106Y-85997429D01*
X162124945Y-86020733D01*
X162132818Y-86038995D01*
X162138779Y-86049418D01*
X162188145Y-86105945D01*
X162250736Y-86141377D01*
X162319987Y-86154090D01*
X162389332Y-86142463D01*
X162430625Y-86121568D01*
X162473975Y-86085422D01*
X162503519Y-86041276D01*
X162521345Y-85983462D01*
X162529537Y-85906313D01*
X162530698Y-85849714D01*
X162530542Y-85845647D01*
X162429143Y-85845647D01*
X162428524Y-85910550D01*
X162425686Y-85953514D01*
X162419160Y-85981622D01*
X162407477Y-86001953D01*
X162393517Y-86017288D01*
X162346635Y-86046890D01*
X162296299Y-86049419D01*
X162248724Y-86024705D01*
X162245021Y-86021356D01*
X162229217Y-86003935D01*
X162219307Y-85983209D01*
X162213942Y-85952362D01*
X162211772Y-85904577D01*
X162211429Y-85851748D01*
X162212173Y-85785381D01*
X162215252Y-85741106D01*
X162221939Y-85712009D01*
X162233504Y-85691173D01*
X162242987Y-85680107D01*
X162287040Y-85652198D01*
X162337776Y-85648843D01*
X162386204Y-85670159D01*
X162395550Y-85678073D01*
X162411460Y-85695647D01*
X162421390Y-85716587D01*
X162426722Y-85747782D01*
X162428837Y-85796122D01*
X162429143Y-85845647D01*
X162530542Y-85845647D01*
X162527190Y-85758568D01*
X162515274Y-85690086D01*
X162492865Y-85638600D01*
X162457876Y-85598443D01*
X162430625Y-85577861D01*
X162381093Y-85555625D01*
X162323684Y-85545304D01*
X162270318Y-85548067D01*
X162240457Y-85559212D01*
X162228739Y-85562383D01*
X162220963Y-85550557D01*
X162215535Y-85518866D01*
X162211429Y-85470593D01*
X162206933Y-85416829D01*
X162200687Y-85384482D01*
X162189324Y-85365985D01*
X162169472Y-85353770D01*
X162157000Y-85348362D01*
X162109829Y-85328601D01*
X162109883Y-85665358D01*
G36*
X162770074Y-85549755D02*
X162704142Y-85574084D01*
X162650727Y-85617117D01*
X162629836Y-85647409D01*
X162607061Y-85702994D01*
X162607534Y-85743186D01*
X162631438Y-85770217D01*
X162640283Y-85774813D01*
X162678470Y-85789144D01*
X162697972Y-85785472D01*
X162704578Y-85761407D01*
X162704914Y-85748114D01*
X162717008Y-85699210D01*
X162748529Y-85664999D01*
X162792341Y-85648476D01*
X162841305Y-85652634D01*
X162881106Y-85674227D01*
X162894550Y-85686544D01*
X162904079Y-85701487D01*
X162910515Y-85724075D01*
X162914683Y-85759328D01*
X162917403Y-85812266D01*
X162919498Y-85887907D01*
X162920040Y-85911857D01*
X162922019Y-85993790D01*
X162924269Y-86051455D01*
X162927643Y-86089608D01*
X162932994Y-86113004D01*
X162941176Y-86126398D01*
X162953041Y-86134545D01*
X162960638Y-86138144D01*
X162992898Y-86150452D01*
X163011889Y-86154514D01*
X163018164Y-86140948D01*
X163021994Y-86099934D01*
X163023400Y-86030999D01*
X163022402Y-85933669D01*
X163022092Y-85918657D01*
X163019899Y-85829859D01*
X163017307Y-85765019D01*
X163013618Y-85719067D01*
X163008136Y-85686935D01*
X163000165Y-85663553D01*
X162989007Y-85643852D01*
X162983170Y-85635410D01*
X162949704Y-85598057D01*
X162912273Y-85569003D01*
X162907691Y-85566467D01*
X162840574Y-85546443D01*
X162770074Y-85549755D01*
X162770074Y-85549755D01*
G37*
X162770074Y-85549755D02*
X162704142Y-85574084D01*
X162650727Y-85617117D01*
X162629836Y-85647409D01*
X162607061Y-85702994D01*
X162607534Y-85743186D01*
X162631438Y-85770217D01*
X162640283Y-85774813D01*
X162678470Y-85789144D01*
X162697972Y-85785472D01*
X162704578Y-85761407D01*
X162704914Y-85748114D01*
X162717008Y-85699210D01*
X162748529Y-85664999D01*
X162792341Y-85648476D01*
X162841305Y-85652634D01*
X162881106Y-85674227D01*
X162894550Y-85686544D01*
X162904079Y-85701487D01*
X162910515Y-85724075D01*
X162914683Y-85759328D01*
X162917403Y-85812266D01*
X162919498Y-85887907D01*
X162920040Y-85911857D01*
X162922019Y-85993790D01*
X162924269Y-86051455D01*
X162927643Y-86089608D01*
X162932994Y-86113004D01*
X162941176Y-86126398D01*
X162953041Y-86134545D01*
X162960638Y-86138144D01*
X162992898Y-86150452D01*
X163011889Y-86154514D01*
X163018164Y-86140948D01*
X163021994Y-86099934D01*
X163023400Y-86030999D01*
X163022402Y-85933669D01*
X163022092Y-85918657D01*
X163019899Y-85829859D01*
X163017307Y-85765019D01*
X163013618Y-85719067D01*
X163008136Y-85686935D01*
X163000165Y-85663553D01*
X162989007Y-85643852D01*
X162983170Y-85635410D01*
X162949704Y-85598057D01*
X162912273Y-85569003D01*
X162907691Y-85566467D01*
X162840574Y-85546443D01*
X162770074Y-85549755D01*
G36*
X163260256Y-85550968D02*
X163203384Y-85572087D01*
X163202733Y-85572493D01*
X163167560Y-85598380D01*
X163141593Y-85628633D01*
X163123330Y-85668058D01*
X163111268Y-85721462D01*
X163103904Y-85793651D01*
X163099736Y-85889432D01*
X163099371Y-85903078D01*
X163094124Y-86108842D01*
X163138284Y-86131678D01*
X163170237Y-86147110D01*
X163189530Y-86154423D01*
X163190422Y-86154514D01*
X163193761Y-86141022D01*
X163196413Y-86104626D01*
X163198044Y-86051452D01*
X163198400Y-86008393D01*
X163198408Y-85938641D01*
X163201597Y-85894837D01*
X163212712Y-85873944D01*
X163236499Y-85872925D01*
X163277704Y-85888741D01*
X163339914Y-85917815D01*
X163385659Y-85941963D01*
X163409187Y-85962913D01*
X163416104Y-85985747D01*
X163416114Y-85986877D01*
X163404701Y-86026212D01*
X163370908Y-86047462D01*
X163319191Y-86050539D01*
X163281939Y-86050006D01*
X163262297Y-86060735D01*
X163250048Y-86086505D01*
X163242998Y-86119337D01*
X163253158Y-86137966D01*
X163256983Y-86140632D01*
X163292999Y-86151340D01*
X163343434Y-86152856D01*
X163395374Y-86145759D01*
X163432178Y-86132788D01*
X163483062Y-86089585D01*
X163511986Y-86029446D01*
X163517714Y-85982462D01*
X163513343Y-85940082D01*
X163497525Y-85905488D01*
X163466203Y-85874763D01*
X163415322Y-85843990D01*
X163340824Y-85809252D01*
X163336286Y-85807288D01*
X163269179Y-85776287D01*
X163227768Y-85750862D01*
X163210019Y-85728014D01*
X163213893Y-85704745D01*
X163237357Y-85678056D01*
X163244373Y-85671914D01*
X163291370Y-85648100D01*
X163340067Y-85649103D01*
X163382478Y-85672451D01*
X163410616Y-85715675D01*
X163413231Y-85724160D01*
X163438692Y-85765308D01*
X163470999Y-85785128D01*
X163517714Y-85804770D01*
X163517714Y-85753950D01*
X163503504Y-85680082D01*
X163461325Y-85612327D01*
X163439376Y-85589661D01*
X163389483Y-85560569D01*
X163326033Y-85547400D01*
X163260256Y-85550968D01*
X163260256Y-85550968D01*
G37*
X163260256Y-85550968D02*
X163203384Y-85572087D01*
X163202733Y-85572493D01*
X163167560Y-85598380D01*
X163141593Y-85628633D01*
X163123330Y-85668058D01*
X163111268Y-85721462D01*
X163103904Y-85793651D01*
X163099736Y-85889432D01*
X163099371Y-85903078D01*
X163094124Y-86108842D01*
X163138284Y-86131678D01*
X163170237Y-86147110D01*
X163189530Y-86154423D01*
X163190422Y-86154514D01*
X163193761Y-86141022D01*
X163196413Y-86104626D01*
X163198044Y-86051452D01*
X163198400Y-86008393D01*
X163198408Y-85938641D01*
X163201597Y-85894837D01*
X163212712Y-85873944D01*
X163236499Y-85872925D01*
X163277704Y-85888741D01*
X163339914Y-85917815D01*
X163385659Y-85941963D01*
X163409187Y-85962913D01*
X163416104Y-85985747D01*
X163416114Y-85986877D01*
X163404701Y-86026212D01*
X163370908Y-86047462D01*
X163319191Y-86050539D01*
X163281939Y-86050006D01*
X163262297Y-86060735D01*
X163250048Y-86086505D01*
X163242998Y-86119337D01*
X163253158Y-86137966D01*
X163256983Y-86140632D01*
X163292999Y-86151340D01*
X163343434Y-86152856D01*
X163395374Y-86145759D01*
X163432178Y-86132788D01*
X163483062Y-86089585D01*
X163511986Y-86029446D01*
X163517714Y-85982462D01*
X163513343Y-85940082D01*
X163497525Y-85905488D01*
X163466203Y-85874763D01*
X163415322Y-85843990D01*
X163340824Y-85809252D01*
X163336286Y-85807288D01*
X163269179Y-85776287D01*
X163227768Y-85750862D01*
X163210019Y-85728014D01*
X163213893Y-85704745D01*
X163237357Y-85678056D01*
X163244373Y-85671914D01*
X163291370Y-85648100D01*
X163340067Y-85649103D01*
X163382478Y-85672451D01*
X163410616Y-85715675D01*
X163413231Y-85724160D01*
X163438692Y-85765308D01*
X163470999Y-85785128D01*
X163517714Y-85804770D01*
X163517714Y-85753950D01*
X163503504Y-85680082D01*
X163461325Y-85612327D01*
X163439376Y-85589661D01*
X163389483Y-85560569D01*
X163326033Y-85547400D01*
X163260256Y-85550968D01*
G36*
X163924114Y-85451289D02*
X163919861Y-85510613D01*
X163914975Y-85545572D01*
X163908205Y-85560820D01*
X163898298Y-85561015D01*
X163895086Y-85559195D01*
X163852356Y-85546015D01*
X163796773Y-85546785D01*
X163740263Y-85560333D01*
X163704918Y-85577861D01*
X163668679Y-85605861D01*
X163642187Y-85637549D01*
X163624001Y-85677813D01*
X163612678Y-85731543D01*
X163606778Y-85803626D01*
X163604857Y-85898951D01*
X163604823Y-85917237D01*
X163604800Y-86122646D01*
X163650509Y-86138580D01*
X163682973Y-86149420D01*
X163700785Y-86154468D01*
X163701309Y-86154514D01*
X163703063Y-86140828D01*
X163704556Y-86103076D01*
X163705674Y-86046224D01*
X163706303Y-85975234D01*
X163706400Y-85932073D01*
X163706602Y-85846973D01*
X163707642Y-85785981D01*
X163710169Y-85744177D01*
X163714836Y-85716642D01*
X163722293Y-85698456D01*
X163733189Y-85684698D01*
X163739993Y-85678073D01*
X163786728Y-85651375D01*
X163837728Y-85649375D01*
X163883999Y-85671955D01*
X163892556Y-85680107D01*
X163905107Y-85695436D01*
X163913812Y-85713618D01*
X163919369Y-85739909D01*
X163922474Y-85779562D01*
X163923824Y-85837832D01*
X163924114Y-85918173D01*
X163924114Y-86122646D01*
X163969823Y-86138580D01*
X164002287Y-86149420D01*
X164020099Y-86154468D01*
X164020623Y-86154514D01*
X164021963Y-86140623D01*
X164023172Y-86101439D01*
X164024199Y-86040700D01*
X164024998Y-85962141D01*
X164025519Y-85869498D01*
X164025714Y-85766509D01*
X164025714Y-85369342D01*
X163978543Y-85349444D01*
X163931371Y-85329547D01*
X163924114Y-85451289D01*
X163924114Y-85451289D01*
G37*
X163924114Y-85451289D02*
X163919861Y-85510613D01*
X163914975Y-85545572D01*
X163908205Y-85560820D01*
X163898298Y-85561015D01*
X163895086Y-85559195D01*
X163852356Y-85546015D01*
X163796773Y-85546785D01*
X163740263Y-85560333D01*
X163704918Y-85577861D01*
X163668679Y-85605861D01*
X163642187Y-85637549D01*
X163624001Y-85677813D01*
X163612678Y-85731543D01*
X163606778Y-85803626D01*
X163604857Y-85898951D01*
X163604823Y-85917237D01*
X163604800Y-86122646D01*
X163650509Y-86138580D01*
X163682973Y-86149420D01*
X163700785Y-86154468D01*
X163701309Y-86154514D01*
X163703063Y-86140828D01*
X163704556Y-86103076D01*
X163705674Y-86046224D01*
X163706303Y-85975234D01*
X163706400Y-85932073D01*
X163706602Y-85846973D01*
X163707642Y-85785981D01*
X163710169Y-85744177D01*
X163714836Y-85716642D01*
X163722293Y-85698456D01*
X163733189Y-85684698D01*
X163739993Y-85678073D01*
X163786728Y-85651375D01*
X163837728Y-85649375D01*
X163883999Y-85671955D01*
X163892556Y-85680107D01*
X163905107Y-85695436D01*
X163913812Y-85713618D01*
X163919369Y-85739909D01*
X163922474Y-85779562D01*
X163923824Y-85837832D01*
X163924114Y-85918173D01*
X163924114Y-86122646D01*
X163969823Y-86138580D01*
X164002287Y-86149420D01*
X164020099Y-86154468D01*
X164020623Y-86154514D01*
X164021963Y-86140623D01*
X164023172Y-86101439D01*
X164024199Y-86040700D01*
X164024998Y-85962141D01*
X164025519Y-85869498D01*
X164025714Y-85766509D01*
X164025714Y-85369342D01*
X163978543Y-85349444D01*
X163931371Y-85329547D01*
X163924114Y-85451289D01*
G36*
X165131697Y-85531239D02*
X165074473Y-85569735D01*
X165030251Y-85625335D01*
X165003833Y-85696086D01*
X164998490Y-85748162D01*
X164999097Y-85769893D01*
X165004178Y-85786531D01*
X165018145Y-85801437D01*
X165045411Y-85817973D01*
X165090388Y-85839498D01*
X165157489Y-85869374D01*
X165157829Y-85869524D01*
X165219593Y-85897813D01*
X165270241Y-85922933D01*
X165304596Y-85942179D01*
X165317482Y-85952848D01*
X165317486Y-85952934D01*
X165306128Y-85976166D01*
X165279569Y-86001774D01*
X165249077Y-86020221D01*
X165233630Y-86023886D01*
X165191485Y-86011212D01*
X165155192Y-85979471D01*
X165137483Y-85944572D01*
X165120448Y-85918845D01*
X165087078Y-85889546D01*
X165047851Y-85864235D01*
X165013244Y-85850471D01*
X165006007Y-85849714D01*
X164997861Y-85862160D01*
X164997370Y-85893972D01*
X165003357Y-85936866D01*
X165014643Y-85982558D01*
X165030050Y-86022761D01*
X165030829Y-86024322D01*
X165077196Y-86089062D01*
X165137289Y-86133097D01*
X165205535Y-86154711D01*
X165276362Y-86152185D01*
X165344196Y-86123804D01*
X165347212Y-86121808D01*
X165400573Y-86073448D01*
X165435660Y-86010352D01*
X165455078Y-85927387D01*
X165457684Y-85904078D01*
X165462299Y-85794055D01*
X165456767Y-85742748D01*
X165317486Y-85742748D01*
X165315676Y-85774753D01*
X165305778Y-85784093D01*
X165281102Y-85777105D01*
X165242205Y-85760587D01*
X165198725Y-85739881D01*
X165197644Y-85739333D01*
X165160791Y-85719949D01*
X165146000Y-85707013D01*
X165149647Y-85693451D01*
X165165005Y-85675632D01*
X165204077Y-85649845D01*
X165246154Y-85647950D01*
X165283897Y-85666717D01*
X165309966Y-85702915D01*
X165317486Y-85742748D01*
X165456767Y-85742748D01*
X165452806Y-85706027D01*
X165428450Y-85636212D01*
X165394544Y-85587302D01*
X165333347Y-85537878D01*
X165265937Y-85513359D01*
X165197120Y-85511797D01*
X165131697Y-85531239D01*
X165131697Y-85531239D01*
G37*
X165131697Y-85531239D02*
X165074473Y-85569735D01*
X165030251Y-85625335D01*
X165003833Y-85696086D01*
X164998490Y-85748162D01*
X164999097Y-85769893D01*
X165004178Y-85786531D01*
X165018145Y-85801437D01*
X165045411Y-85817973D01*
X165090388Y-85839498D01*
X165157489Y-85869374D01*
X165157829Y-85869524D01*
X165219593Y-85897813D01*
X165270241Y-85922933D01*
X165304596Y-85942179D01*
X165317482Y-85952848D01*
X165317486Y-85952934D01*
X165306128Y-85976166D01*
X165279569Y-86001774D01*
X165249077Y-86020221D01*
X165233630Y-86023886D01*
X165191485Y-86011212D01*
X165155192Y-85979471D01*
X165137483Y-85944572D01*
X165120448Y-85918845D01*
X165087078Y-85889546D01*
X165047851Y-85864235D01*
X165013244Y-85850471D01*
X165006007Y-85849714D01*
X164997861Y-85862160D01*
X164997370Y-85893972D01*
X165003357Y-85936866D01*
X165014643Y-85982558D01*
X165030050Y-86022761D01*
X165030829Y-86024322D01*
X165077196Y-86089062D01*
X165137289Y-86133097D01*
X165205535Y-86154711D01*
X165276362Y-86152185D01*
X165344196Y-86123804D01*
X165347212Y-86121808D01*
X165400573Y-86073448D01*
X165435660Y-86010352D01*
X165455078Y-85927387D01*
X165457684Y-85904078D01*
X165462299Y-85794055D01*
X165456767Y-85742748D01*
X165317486Y-85742748D01*
X165315676Y-85774753D01*
X165305778Y-85784093D01*
X165281102Y-85777105D01*
X165242205Y-85760587D01*
X165198725Y-85739881D01*
X165197644Y-85739333D01*
X165160791Y-85719949D01*
X165146000Y-85707013D01*
X165149647Y-85693451D01*
X165165005Y-85675632D01*
X165204077Y-85649845D01*
X165246154Y-85647950D01*
X165283897Y-85666717D01*
X165309966Y-85702915D01*
X165317486Y-85742748D01*
X165456767Y-85742748D01*
X165452806Y-85706027D01*
X165428450Y-85636212D01*
X165394544Y-85587302D01*
X165333347Y-85537878D01*
X165265937Y-85513359D01*
X165197120Y-85511797D01*
X165131697Y-85531239D01*
G36*
X166258885Y-85521962D02*
X166190855Y-85557733D01*
X166140649Y-85615301D01*
X166122815Y-85652312D01*
X166108937Y-85707882D01*
X166101833Y-85778096D01*
X166101160Y-85854727D01*
X166106573Y-85929552D01*
X166117730Y-85994342D01*
X166134286Y-86040873D01*
X166139374Y-86048887D01*
X166199645Y-86108707D01*
X166271231Y-86144535D01*
X166348908Y-86155020D01*
X166427452Y-86138810D01*
X166449311Y-86129092D01*
X166491878Y-86099143D01*
X166529237Y-86059433D01*
X166532768Y-86054397D01*
X166547119Y-86030124D01*
X166556606Y-86004178D01*
X166562210Y-85970022D01*
X166564914Y-85921119D01*
X166565701Y-85850935D01*
X166565714Y-85835200D01*
X166565678Y-85830192D01*
X166420571Y-85830192D01*
X166419727Y-85896430D01*
X166416404Y-85940386D01*
X166409417Y-85968779D01*
X166397584Y-85988325D01*
X166391543Y-85994857D01*
X166356814Y-86019680D01*
X166323097Y-86018548D01*
X166289005Y-85997016D01*
X166268671Y-85974029D01*
X166256629Y-85940478D01*
X166249866Y-85887569D01*
X166249402Y-85881399D01*
X166248248Y-85785513D01*
X166260312Y-85714299D01*
X166285430Y-85668194D01*
X166323440Y-85647635D01*
X166337008Y-85646514D01*
X166372636Y-85652152D01*
X166397006Y-85671686D01*
X166411907Y-85709042D01*
X166419125Y-85768150D01*
X166420571Y-85830192D01*
X166565678Y-85830192D01*
X166565174Y-85760413D01*
X166562904Y-85708159D01*
X166557932Y-85671949D01*
X166549287Y-85645299D01*
X166535995Y-85621722D01*
X166533057Y-85617338D01*
X166483687Y-85558249D01*
X166429891Y-85523947D01*
X166364398Y-85510331D01*
X166342158Y-85509665D01*
X166258885Y-85521962D01*
X166258885Y-85521962D01*
G37*
X166258885Y-85521962D02*
X166190855Y-85557733D01*
X166140649Y-85615301D01*
X166122815Y-85652312D01*
X166108937Y-85707882D01*
X166101833Y-85778096D01*
X166101160Y-85854727D01*
X166106573Y-85929552D01*
X166117730Y-85994342D01*
X166134286Y-86040873D01*
X166139374Y-86048887D01*
X166199645Y-86108707D01*
X166271231Y-86144535D01*
X166348908Y-86155020D01*
X166427452Y-86138810D01*
X166449311Y-86129092D01*
X166491878Y-86099143D01*
X166529237Y-86059433D01*
X166532768Y-86054397D01*
X166547119Y-86030124D01*
X166556606Y-86004178D01*
X166562210Y-85970022D01*
X166564914Y-85921119D01*
X166565701Y-85850935D01*
X166565714Y-85835200D01*
X166565678Y-85830192D01*
X166420571Y-85830192D01*
X166419727Y-85896430D01*
X166416404Y-85940386D01*
X166409417Y-85968779D01*
X166397584Y-85988325D01*
X166391543Y-85994857D01*
X166356814Y-86019680D01*
X166323097Y-86018548D01*
X166289005Y-85997016D01*
X166268671Y-85974029D01*
X166256629Y-85940478D01*
X166249866Y-85887569D01*
X166249402Y-85881399D01*
X166248248Y-85785513D01*
X166260312Y-85714299D01*
X166285430Y-85668194D01*
X166323440Y-85647635D01*
X166337008Y-85646514D01*
X166372636Y-85652152D01*
X166397006Y-85671686D01*
X166411907Y-85709042D01*
X166419125Y-85768150D01*
X166420571Y-85830192D01*
X166565678Y-85830192D01*
X166565174Y-85760413D01*
X166562904Y-85708159D01*
X166557932Y-85671949D01*
X166549287Y-85645299D01*
X166535995Y-85621722D01*
X166533057Y-85617338D01*
X166483687Y-85558249D01*
X166429891Y-85523947D01*
X166364398Y-85510331D01*
X166342158Y-85509665D01*
X166258885Y-85521962D01*
G36*
X164583907Y-85527780D02*
X164537328Y-85554723D01*
X164504943Y-85581466D01*
X164481258Y-85609484D01*
X164464941Y-85643748D01*
X164454661Y-85689227D01*
X164449086Y-85750892D01*
X164446884Y-85833711D01*
X164446629Y-85893246D01*
X164446629Y-86112391D01*
X164508314Y-86140044D01*
X164570000Y-86167697D01*
X164577257Y-85927670D01*
X164580256Y-85838028D01*
X164583402Y-85772962D01*
X164587299Y-85728026D01*
X164592553Y-85698770D01*
X164599769Y-85680748D01*
X164609550Y-85669511D01*
X164612688Y-85667079D01*
X164660239Y-85648083D01*
X164708303Y-85655600D01*
X164736914Y-85675543D01*
X164748553Y-85689675D01*
X164756609Y-85708220D01*
X164761729Y-85736334D01*
X164764559Y-85779173D01*
X164765744Y-85841895D01*
X164765943Y-85907261D01*
X164765982Y-85989268D01*
X164767386Y-86047316D01*
X164772086Y-86086465D01*
X164782013Y-86111780D01*
X164799097Y-86128323D01*
X164825268Y-86141156D01*
X164860225Y-86154491D01*
X164898404Y-86169007D01*
X164893859Y-85911389D01*
X164892029Y-85818519D01*
X164889888Y-85749889D01*
X164886819Y-85700711D01*
X164882206Y-85666198D01*
X164875432Y-85641562D01*
X164865881Y-85622016D01*
X164854366Y-85604770D01*
X164798810Y-85549680D01*
X164731020Y-85517822D01*
X164657287Y-85510191D01*
X164583907Y-85527780D01*
X164583907Y-85527780D01*
G37*
X164583907Y-85527780D02*
X164537328Y-85554723D01*
X164504943Y-85581466D01*
X164481258Y-85609484D01*
X164464941Y-85643748D01*
X164454661Y-85689227D01*
X164449086Y-85750892D01*
X164446884Y-85833711D01*
X164446629Y-85893246D01*
X164446629Y-86112391D01*
X164508314Y-86140044D01*
X164570000Y-86167697D01*
X164577257Y-85927670D01*
X164580256Y-85838028D01*
X164583402Y-85772962D01*
X164587299Y-85728026D01*
X164592553Y-85698770D01*
X164599769Y-85680748D01*
X164609550Y-85669511D01*
X164612688Y-85667079D01*
X164660239Y-85648083D01*
X164708303Y-85655600D01*
X164736914Y-85675543D01*
X164748553Y-85689675D01*
X164756609Y-85708220D01*
X164761729Y-85736334D01*
X164764559Y-85779173D01*
X164765744Y-85841895D01*
X164765943Y-85907261D01*
X164765982Y-85989268D01*
X164767386Y-86047316D01*
X164772086Y-86086465D01*
X164782013Y-86111780D01*
X164799097Y-86128323D01*
X164825268Y-86141156D01*
X164860225Y-86154491D01*
X164898404Y-86169007D01*
X164893859Y-85911389D01*
X164892029Y-85818519D01*
X164889888Y-85749889D01*
X164886819Y-85700711D01*
X164882206Y-85666198D01*
X164875432Y-85641562D01*
X164865881Y-85622016D01*
X164854366Y-85604770D01*
X164798810Y-85549680D01*
X164731020Y-85517822D01*
X164657287Y-85510191D01*
X164583907Y-85527780D01*
G36*
X165700256Y-85519918D02*
X165644799Y-85547568D01*
X165595852Y-85598480D01*
X165582371Y-85617338D01*
X165567686Y-85642015D01*
X165558158Y-85668816D01*
X165552707Y-85704587D01*
X165550253Y-85756169D01*
X165549714Y-85824267D01*
X165552148Y-85917588D01*
X165560606Y-85987657D01*
X165576826Y-86039931D01*
X165602546Y-86079869D01*
X165639503Y-86112929D01*
X165642218Y-86114886D01*
X165678640Y-86134908D01*
X165722498Y-86144815D01*
X165778276Y-86147257D01*
X165868952Y-86147257D01*
X165868990Y-86235283D01*
X165869834Y-86284308D01*
X165874976Y-86313065D01*
X165888413Y-86330311D01*
X165914142Y-86344808D01*
X165920321Y-86347769D01*
X165949236Y-86361648D01*
X165971624Y-86370414D01*
X165988271Y-86371171D01*
X165999964Y-86361023D01*
X166007490Y-86337073D01*
X166011634Y-86296426D01*
X166013185Y-86236186D01*
X166012929Y-86153455D01*
X166011651Y-86045339D01*
X166011252Y-86013000D01*
X166009815Y-85901524D01*
X166008528Y-85828603D01*
X165869029Y-85828603D01*
X165868245Y-85890499D01*
X165864760Y-85930997D01*
X165856876Y-85957708D01*
X165842895Y-85978244D01*
X165833403Y-85988260D01*
X165794596Y-86017567D01*
X165760237Y-86019952D01*
X165724784Y-85995750D01*
X165723886Y-85994857D01*
X165709461Y-85976153D01*
X165700687Y-85950732D01*
X165696261Y-85911584D01*
X165694882Y-85851697D01*
X165694857Y-85838430D01*
X165698188Y-85755901D01*
X165709031Y-85698691D01*
X165728660Y-85663766D01*
X165758350Y-85648094D01*
X165775509Y-85646514D01*
X165816234Y-85653926D01*
X165844168Y-85678330D01*
X165860983Y-85722980D01*
X165868350Y-85791130D01*
X165869029Y-85828603D01*
X166008528Y-85828603D01*
X166008292Y-85815245D01*
X166006323Y-85750333D01*
X166003550Y-85702958D01*
X165999612Y-85669290D01*
X165994151Y-85645498D01*
X165986808Y-85627753D01*
X165977223Y-85612224D01*
X165973113Y-85606381D01*
X165918595Y-85551185D01*
X165849664Y-85519890D01*
X165769928Y-85511165D01*
X165700256Y-85519918D01*
X165700256Y-85519918D01*
G37*
X165700256Y-85519918D02*
X165644799Y-85547568D01*
X165595852Y-85598480D01*
X165582371Y-85617338D01*
X165567686Y-85642015D01*
X165558158Y-85668816D01*
X165552707Y-85704587D01*
X165550253Y-85756169D01*
X165549714Y-85824267D01*
X165552148Y-85917588D01*
X165560606Y-85987657D01*
X165576826Y-86039931D01*
X165602546Y-86079869D01*
X165639503Y-86112929D01*
X165642218Y-86114886D01*
X165678640Y-86134908D01*
X165722498Y-86144815D01*
X165778276Y-86147257D01*
X165868952Y-86147257D01*
X165868990Y-86235283D01*
X165869834Y-86284308D01*
X165874976Y-86313065D01*
X165888413Y-86330311D01*
X165914142Y-86344808D01*
X165920321Y-86347769D01*
X165949236Y-86361648D01*
X165971624Y-86370414D01*
X165988271Y-86371171D01*
X165999964Y-86361023D01*
X166007490Y-86337073D01*
X166011634Y-86296426D01*
X166013185Y-86236186D01*
X166012929Y-86153455D01*
X166011651Y-86045339D01*
X166011252Y-86013000D01*
X166009815Y-85901524D01*
X166008528Y-85828603D01*
X165869029Y-85828603D01*
X165868245Y-85890499D01*
X165864760Y-85930997D01*
X165856876Y-85957708D01*
X165842895Y-85978244D01*
X165833403Y-85988260D01*
X165794596Y-86017567D01*
X165760237Y-86019952D01*
X165724784Y-85995750D01*
X165723886Y-85994857D01*
X165709461Y-85976153D01*
X165700687Y-85950732D01*
X165696261Y-85911584D01*
X165694882Y-85851697D01*
X165694857Y-85838430D01*
X165698188Y-85755901D01*
X165709031Y-85698691D01*
X165728660Y-85663766D01*
X165758350Y-85648094D01*
X165775509Y-85646514D01*
X165816234Y-85653926D01*
X165844168Y-85678330D01*
X165860983Y-85722980D01*
X165868350Y-85791130D01*
X165869029Y-85828603D01*
X166008528Y-85828603D01*
X166008292Y-85815245D01*
X166006323Y-85750333D01*
X166003550Y-85702958D01*
X165999612Y-85669290D01*
X165994151Y-85645498D01*
X165986808Y-85627753D01*
X165977223Y-85612224D01*
X165973113Y-85606381D01*
X165918595Y-85551185D01*
X165849664Y-85519890D01*
X165769928Y-85511165D01*
X165700256Y-85519918D01*
D11*
X154300000Y-104850000D02*
X154300000Y-104150000D01*
X153100000Y-104150000D02*
X153100000Y-104850000D01*
D14*
X132010000Y-81170000D02*
X132010000Y-82100000D01*
X132010000Y-84330000D02*
X132010000Y-83400000D01*
X132010000Y-84330000D02*
X129850000Y-84330000D01*
X132010000Y-81170000D02*
X130550000Y-81170000D01*
X132010000Y-77670000D02*
X130550000Y-77670000D01*
X132010000Y-80830000D02*
X129850000Y-80830000D01*
X132010000Y-80830000D02*
X132010000Y-79900000D01*
X132010000Y-77670000D02*
X132010000Y-78600000D01*
X132010000Y-84670000D02*
X132010000Y-85600000D01*
X132010000Y-87830000D02*
X132010000Y-86900000D01*
X132010000Y-87830000D02*
X129850000Y-87830000D01*
X132010000Y-84670000D02*
X130550000Y-84670000D01*
X142830000Y-83260000D02*
X142830000Y-81800000D01*
X139670000Y-83260000D02*
X139670000Y-81100000D01*
X139670000Y-83260000D02*
X140600000Y-83260000D01*
X142830000Y-83260000D02*
X141900000Y-83260000D01*
X147830000Y-83260000D02*
X146900000Y-83260000D01*
X144670000Y-83260000D02*
X145600000Y-83260000D01*
X144670000Y-83260000D02*
X144670000Y-81100000D01*
X147830000Y-83260000D02*
X147830000Y-81800000D01*
X148420000Y-80740000D02*
X148420000Y-82200000D01*
X151580000Y-80740000D02*
X151580000Y-82900000D01*
X151580000Y-80740000D02*
X150650000Y-80740000D01*
X148420000Y-80740000D02*
X149350000Y-80740000D01*
X135510000Y-79420000D02*
X135510000Y-80350000D01*
X135510000Y-82580000D02*
X135510000Y-81650000D01*
X135510000Y-82580000D02*
X133350000Y-82580000D01*
X135510000Y-79420000D02*
X134050000Y-79420000D01*
X152990000Y-85080000D02*
X154450000Y-85080000D01*
X152990000Y-81920000D02*
X155150000Y-81920000D01*
X152990000Y-81920000D02*
X152990000Y-82850000D01*
X152990000Y-85080000D02*
X152990000Y-84150000D01*
X136580000Y-86510000D02*
X135650000Y-86510000D01*
X133420000Y-86510000D02*
X134350000Y-86510000D01*
X133420000Y-86510000D02*
X133420000Y-84350000D01*
X136580000Y-86510000D02*
X136580000Y-85050000D01*
X140330000Y-86510000D02*
X140330000Y-85050000D01*
X137170000Y-86510000D02*
X137170000Y-84350000D01*
X137170000Y-86510000D02*
X138100000Y-86510000D01*
X140330000Y-86510000D02*
X139400000Y-86510000D01*
X150330000Y-86510000D02*
X150330000Y-85050000D01*
X147170000Y-86510000D02*
X147170000Y-84350000D01*
X147170000Y-86510000D02*
X148100000Y-86510000D01*
X150330000Y-86510000D02*
X149400000Y-86510000D01*
X156974000Y-85146000D02*
X158434000Y-85146000D01*
X156974000Y-81986000D02*
X159134000Y-81986000D01*
X156974000Y-81986000D02*
X156974000Y-82916000D01*
X156974000Y-85146000D02*
X156974000Y-84216000D01*
X145330000Y-86510000D02*
X144400000Y-86510000D01*
X142170000Y-86510000D02*
X143100000Y-86510000D01*
X142170000Y-86510000D02*
X142170000Y-84350000D01*
X145330000Y-86510000D02*
X145330000Y-85050000D01*
D11*
X140500000Y-79475000D02*
X141000000Y-79475000D01*
X141000000Y-80525000D02*
X140500000Y-80525000D01*
X134250000Y-79025000D02*
X133750000Y-79025000D01*
X133750000Y-77975000D02*
X134250000Y-77975000D01*
X143225000Y-80550000D02*
X143225000Y-80050000D01*
X144275000Y-80050000D02*
X144275000Y-80550000D01*
X140725000Y-86750000D02*
X140725000Y-86250000D01*
X141775000Y-86250000D02*
X141775000Y-86750000D01*
X145725000Y-86750000D02*
X145725000Y-86250000D01*
X146775000Y-86250000D02*
X146775000Y-86750000D01*
X146475000Y-79000000D02*
X146475000Y-78500000D01*
X147525000Y-78500000D02*
X147525000Y-79000000D01*
X137700000Y-80525000D02*
X137200000Y-80525000D01*
X137200000Y-79475000D02*
X137700000Y-79475000D01*
X151775000Y-85950000D02*
X151775000Y-86450000D01*
X150725000Y-86450000D02*
X150725000Y-85950000D01*
X129800000Y-90000000D02*
X129800000Y-105000000D01*
X133000000Y-90000000D02*
X133000000Y-105000000D01*
X125000000Y-91500000D02*
X125000000Y-91000000D01*
X123000000Y-91500000D02*
X125000000Y-91500000D01*
X123000000Y-91000000D02*
X123000000Y-91500000D01*
X125000000Y-91000000D02*
X123000000Y-91000000D01*
X133000000Y-102500000D02*
X135300000Y-102500000D01*
X133000000Y-100000000D02*
X135300000Y-100000000D01*
X133000000Y-97500000D02*
X135300000Y-97500000D01*
X133000000Y-95000000D02*
X135300000Y-95000000D01*
X135300000Y-92500000D02*
X133000000Y-92500000D01*
X122300000Y-90000000D02*
X122300000Y-105000000D01*
X135300000Y-90000000D02*
X122300000Y-90000000D01*
X135300000Y-105000000D02*
X135300000Y-90000000D01*
X122300000Y-105000000D02*
X135300000Y-105000000D01*
X125000000Y-94000000D02*
X125000000Y-93500000D01*
X125000000Y-93500000D02*
X123000000Y-93500000D01*
X123000000Y-94000000D02*
X125000000Y-94000000D01*
X123000000Y-93500000D02*
X123000000Y-94000000D01*
X123000000Y-96000000D02*
X123000000Y-96500000D01*
X125000000Y-96500000D02*
X125000000Y-96000000D01*
X123000000Y-96500000D02*
X125000000Y-96500000D01*
X125000000Y-96000000D02*
X123000000Y-96000000D01*
X123000000Y-99000000D02*
X125000000Y-99000000D01*
X125000000Y-99000000D02*
X125000000Y-98500000D01*
X125000000Y-98500000D02*
X123000000Y-98500000D01*
X123000000Y-98500000D02*
X123000000Y-99000000D01*
X123000000Y-101000000D02*
X123000000Y-101500000D01*
X125000000Y-101500000D02*
X125000000Y-101000000D01*
X123000000Y-101500000D02*
X125000000Y-101500000D01*
X125000000Y-101000000D02*
X123000000Y-101000000D01*
X123000000Y-104000000D02*
X125000000Y-104000000D01*
X125000000Y-104000000D02*
X125000000Y-103500000D01*
X125000000Y-103500000D02*
X123000000Y-103500000D01*
X123000000Y-103500000D02*
X123000000Y-104000000D01*
X137475000Y-110750000D02*
X137475000Y-110250000D01*
X138525000Y-110250000D02*
X138525000Y-110750000D01*
X130975000Y-112250000D02*
X130975000Y-111750000D01*
X132025000Y-111750000D02*
X132025000Y-112250000D01*
X138525000Y-105300000D02*
X138525000Y-105800000D01*
X137475000Y-105800000D02*
X137475000Y-105300000D01*
X130975000Y-107700000D02*
X130975000Y-107200000D01*
X132025000Y-107200000D02*
X132025000Y-107700000D01*
X163438095Y-103702380D02*
X163438095Y-102702380D01*
X163057142Y-102702380D01*
X162961904Y-102750000D01*
X162914285Y-102797619D01*
X162866666Y-102892857D01*
X162866666Y-103035714D01*
X162914285Y-103130952D01*
X162961904Y-103178571D01*
X163057142Y-103226190D01*
X163438095Y-103226190D01*
X161914285Y-103702380D02*
X162485714Y-103702380D01*
X162200000Y-103702380D02*
X162200000Y-102702380D01*
X162295238Y-102845238D01*
X162390476Y-102940476D01*
X162485714Y-102988095D01*
D10*
X127376190Y-70647619D02*
X127876190Y-70766666D01*
X127519047Y-70861904D01*
X127876190Y-70957142D01*
X127376190Y-71076190D01*
X127376190Y-71219047D02*
X127376190Y-71552380D01*
X127876190Y-71338095D01*
X136452380Y-71476190D02*
X136333333Y-71976190D01*
X136238095Y-71619047D01*
X136142857Y-71976190D01*
X136023809Y-71476190D01*
X135761904Y-71690476D02*
X135809523Y-71666666D01*
X135833333Y-71642857D01*
X135857142Y-71595238D01*
X135857142Y-71571428D01*
X135833333Y-71523809D01*
X135809523Y-71500000D01*
X135761904Y-71476190D01*
X135666666Y-71476190D01*
X135619047Y-71500000D01*
X135595238Y-71523809D01*
X135571428Y-71571428D01*
X135571428Y-71595238D01*
X135595238Y-71642857D01*
X135619047Y-71666666D01*
X135666666Y-71690476D01*
X135761904Y-71690476D01*
X135809523Y-71714285D01*
X135833333Y-71738095D01*
X135857142Y-71785714D01*
X135857142Y-71880952D01*
X135833333Y-71928571D01*
X135809523Y-71952380D01*
X135761904Y-71976190D01*
X135666666Y-71976190D01*
X135619047Y-71952380D01*
X135595238Y-71928571D01*
X135571428Y-71880952D01*
X135571428Y-71785714D01*
X135595238Y-71738095D01*
X135619047Y-71714285D01*
X135666666Y-71690476D01*
X158490476Y-65276190D02*
X158371428Y-65776190D01*
X158276190Y-65419047D01*
X158180952Y-65776190D01*
X158061904Y-65276190D01*
X157609523Y-65776190D02*
X157895238Y-65776190D01*
X157752380Y-65776190D02*
X157752380Y-65276190D01*
X157800000Y-65347619D01*
X157847619Y-65395238D01*
X157895238Y-65419047D01*
X157133333Y-65776190D02*
X157419047Y-65776190D01*
X157276190Y-65776190D02*
X157276190Y-65276190D01*
X157323809Y-65347619D01*
X157371428Y-65395238D01*
X157419047Y-65419047D01*
X146690476Y-66076190D02*
X146571428Y-66576190D01*
X146476190Y-66219047D01*
X146380952Y-66576190D01*
X146261904Y-66076190D01*
X145809523Y-66576190D02*
X146095238Y-66576190D01*
X145952380Y-66576190D02*
X145952380Y-66076190D01*
X146000000Y-66147619D01*
X146047619Y-66195238D01*
X146095238Y-66219047D01*
X145500000Y-66076190D02*
X145452380Y-66076190D01*
X145404761Y-66100000D01*
X145380952Y-66123809D01*
X145357142Y-66171428D01*
X145333333Y-66266666D01*
X145333333Y-66385714D01*
X145357142Y-66480952D01*
X145380952Y-66528571D01*
X145404761Y-66552380D01*
X145452380Y-66576190D01*
X145500000Y-66576190D01*
X145547619Y-66552380D01*
X145571428Y-66528571D01*
X145595238Y-66480952D01*
X145619047Y-66385714D01*
X145619047Y-66266666D01*
X145595238Y-66171428D01*
X145571428Y-66123809D01*
X145547619Y-66100000D01*
X145500000Y-66076190D01*
X146452380Y-70226190D02*
X146333333Y-70726190D01*
X146238095Y-70369047D01*
X146142857Y-70726190D01*
X146023809Y-70226190D01*
X145809523Y-70726190D02*
X145714285Y-70726190D01*
X145666666Y-70702380D01*
X145642857Y-70678571D01*
X145595238Y-70607142D01*
X145571428Y-70511904D01*
X145571428Y-70321428D01*
X145595238Y-70273809D01*
X145619047Y-70250000D01*
X145666666Y-70226190D01*
X145761904Y-70226190D01*
X145809523Y-70250000D01*
X145833333Y-70273809D01*
X145857142Y-70321428D01*
X145857142Y-70440476D01*
X145833333Y-70488095D01*
X145809523Y-70511904D01*
X145761904Y-70535714D01*
X145666666Y-70535714D01*
X145619047Y-70511904D01*
X145595238Y-70488095D01*
X145571428Y-70440476D01*
X151566476Y-107526190D02*
X151447428Y-108026190D01*
X151352190Y-107669047D01*
X151256952Y-108026190D01*
X151137904Y-107526190D01*
X150685523Y-108026190D02*
X150971238Y-108026190D01*
X150828380Y-108026190D02*
X150828380Y-107526190D01*
X150876000Y-107597619D01*
X150923619Y-107645238D01*
X150971238Y-107669047D01*
X150518857Y-107526190D02*
X150185523Y-107526190D01*
X150399809Y-108026190D01*
X150042476Y-107526190D02*
X149923428Y-108026190D01*
X149828190Y-107669047D01*
X149732952Y-108026190D01*
X149613904Y-107526190D01*
X149161523Y-108026190D02*
X149447238Y-108026190D01*
X149304380Y-108026190D02*
X149304380Y-107526190D01*
X149352000Y-107597619D01*
X149399619Y-107645238D01*
X149447238Y-107669047D01*
X148732952Y-107526190D02*
X148828190Y-107526190D01*
X148875809Y-107550000D01*
X148899619Y-107573809D01*
X148947238Y-107645238D01*
X148971047Y-107740476D01*
X148971047Y-107930952D01*
X148947238Y-107978571D01*
X148923428Y-108002380D01*
X148875809Y-108026190D01*
X148780571Y-108026190D01*
X148732952Y-108002380D01*
X148709142Y-107978571D01*
X148685333Y-107930952D01*
X148685333Y-107811904D01*
X148709142Y-107764285D01*
X148732952Y-107740476D01*
X148780571Y-107716666D01*
X148875809Y-107716666D01*
X148923428Y-107740476D01*
X148947238Y-107764285D01*
X148971047Y-107811904D01*
D11*
X153966666Y-107057142D02*
X154014285Y-107104761D01*
X154157142Y-107152380D01*
X154252380Y-107152380D01*
X154395238Y-107104761D01*
X154490476Y-107009523D01*
X154538095Y-106914285D01*
X154585714Y-106723809D01*
X154585714Y-106580952D01*
X154538095Y-106390476D01*
X154490476Y-106295238D01*
X154395238Y-106200000D01*
X154252380Y-106152380D01*
X154157142Y-106152380D01*
X154014285Y-106200000D01*
X153966666Y-106247619D01*
X153490476Y-107152380D02*
X153300000Y-107152380D01*
X153204761Y-107104761D01*
X153157142Y-107057142D01*
X153061904Y-106914285D01*
X153014285Y-106723809D01*
X153014285Y-106342857D01*
X153061904Y-106247619D01*
X153109523Y-106200000D01*
X153204761Y-106152380D01*
X153395238Y-106152380D01*
X153490476Y-106200000D01*
X153538095Y-106247619D01*
X153585714Y-106342857D01*
X153585714Y-106580952D01*
X153538095Y-106676190D01*
X153490476Y-106723809D01*
X153395238Y-106771428D01*
X153204761Y-106771428D01*
X153109523Y-106723809D01*
X153061904Y-106676190D01*
X153014285Y-106580952D01*
X131345238Y-85797619D02*
X131440476Y-85750000D01*
X131535714Y-85654761D01*
X131678571Y-85511904D01*
X131773809Y-85464285D01*
X131869047Y-85464285D01*
X131821428Y-85702380D02*
X131916666Y-85654761D01*
X132011904Y-85559523D01*
X132059523Y-85369047D01*
X132059523Y-85035714D01*
X132011904Y-84845238D01*
X131916666Y-84750000D01*
X131821428Y-84702380D01*
X131630952Y-84702380D01*
X131535714Y-84750000D01*
X131440476Y-84845238D01*
X131392857Y-85035714D01*
X131392857Y-85369047D01*
X131440476Y-85559523D01*
X131535714Y-85654761D01*
X131630952Y-85702380D01*
X131821428Y-85702380D01*
X131059523Y-84702380D02*
X130440476Y-84702380D01*
X130773809Y-85083333D01*
X130630952Y-85083333D01*
X130535714Y-85130952D01*
X130488095Y-85178571D01*
X130440476Y-85273809D01*
X130440476Y-85511904D01*
X130488095Y-85607142D01*
X130535714Y-85654761D01*
X130630952Y-85702380D01*
X130916666Y-85702380D01*
X131011904Y-85654761D01*
X131059523Y-85607142D01*
X131345238Y-82297619D02*
X131440476Y-82250000D01*
X131535714Y-82154761D01*
X131678571Y-82011904D01*
X131773809Y-81964285D01*
X131869047Y-81964285D01*
X131821428Y-82202380D02*
X131916666Y-82154761D01*
X132011904Y-82059523D01*
X132059523Y-81869047D01*
X132059523Y-81535714D01*
X132011904Y-81345238D01*
X131916666Y-81250000D01*
X131821428Y-81202380D01*
X131630952Y-81202380D01*
X131535714Y-81250000D01*
X131440476Y-81345238D01*
X131392857Y-81535714D01*
X131392857Y-81869047D01*
X131440476Y-82059523D01*
X131535714Y-82154761D01*
X131630952Y-82202380D01*
X131821428Y-82202380D01*
X130535714Y-81535714D02*
X130535714Y-82202380D01*
X130773809Y-81154761D02*
X131011904Y-81869047D01*
X130392857Y-81869047D01*
X131345238Y-89297619D02*
X131440476Y-89250000D01*
X131535714Y-89154761D01*
X131678571Y-89011904D01*
X131773809Y-88964285D01*
X131869047Y-88964285D01*
X131821428Y-89202380D02*
X131916666Y-89154761D01*
X132011904Y-89059523D01*
X132059523Y-88869047D01*
X132059523Y-88535714D01*
X132011904Y-88345238D01*
X131916666Y-88250000D01*
X131821428Y-88202380D01*
X131630952Y-88202380D01*
X131535714Y-88250000D01*
X131440476Y-88345238D01*
X131392857Y-88535714D01*
X131392857Y-88869047D01*
X131440476Y-89059523D01*
X131535714Y-89154761D01*
X131630952Y-89202380D01*
X131821428Y-89202380D01*
X130488095Y-88202380D02*
X130964285Y-88202380D01*
X131011904Y-88678571D01*
X130964285Y-88630952D01*
X130869047Y-88583333D01*
X130630952Y-88583333D01*
X130535714Y-88630952D01*
X130488095Y-88678571D01*
X130440476Y-88773809D01*
X130440476Y-89011904D01*
X130488095Y-89107142D01*
X130535714Y-89154761D01*
X130630952Y-89202380D01*
X130869047Y-89202380D01*
X130964285Y-89154761D01*
X131011904Y-89107142D01*
X139297619Y-82404761D02*
X139250000Y-82309523D01*
X139154761Y-82214285D01*
X139011904Y-82071428D01*
X138964285Y-81976190D01*
X138964285Y-81880952D01*
X139202380Y-81928571D02*
X139154761Y-81833333D01*
X139059523Y-81738095D01*
X138869047Y-81690476D01*
X138535714Y-81690476D01*
X138345238Y-81738095D01*
X138250000Y-81833333D01*
X138202380Y-81928571D01*
X138202380Y-82119047D01*
X138250000Y-82214285D01*
X138345238Y-82309523D01*
X138535714Y-82357142D01*
X138869047Y-82357142D01*
X139059523Y-82309523D01*
X139154761Y-82214285D01*
X139202380Y-82119047D01*
X139202380Y-81928571D01*
X138202380Y-83214285D02*
X138202380Y-83023809D01*
X138250000Y-82928571D01*
X138297619Y-82880952D01*
X138440476Y-82785714D01*
X138630952Y-82738095D01*
X139011904Y-82738095D01*
X139107142Y-82785714D01*
X139154761Y-82833333D01*
X139202380Y-82928571D01*
X139202380Y-83119047D01*
X139154761Y-83214285D01*
X139107142Y-83261904D01*
X139011904Y-83309523D01*
X138773809Y-83309523D01*
X138678571Y-83261904D01*
X138630952Y-83214285D01*
X138583333Y-83119047D01*
X138583333Y-82928571D01*
X138630952Y-82833333D01*
X138678571Y-82785714D01*
X138773809Y-82738095D01*
X144297619Y-82404761D02*
X144250000Y-82309523D01*
X144154761Y-82214285D01*
X144011904Y-82071428D01*
X143964285Y-81976190D01*
X143964285Y-81880952D01*
X144202380Y-81928571D02*
X144154761Y-81833333D01*
X144059523Y-81738095D01*
X143869047Y-81690476D01*
X143535714Y-81690476D01*
X143345238Y-81738095D01*
X143250000Y-81833333D01*
X143202380Y-81928571D01*
X143202380Y-82119047D01*
X143250000Y-82214285D01*
X143345238Y-82309523D01*
X143535714Y-82357142D01*
X143869047Y-82357142D01*
X144059523Y-82309523D01*
X144154761Y-82214285D01*
X144202380Y-82119047D01*
X144202380Y-81928571D01*
X143202380Y-82690476D02*
X143202380Y-83357142D01*
X144202380Y-82928571D01*
X153047619Y-81404761D02*
X153000000Y-81309523D01*
X152904761Y-81214285D01*
X152761904Y-81071428D01*
X152714285Y-80976190D01*
X152714285Y-80880952D01*
X152952380Y-80928571D02*
X152904761Y-80833333D01*
X152809523Y-80738095D01*
X152619047Y-80690476D01*
X152285714Y-80690476D01*
X152095238Y-80738095D01*
X152000000Y-80833333D01*
X151952380Y-80928571D01*
X151952380Y-81119047D01*
X152000000Y-81214285D01*
X152095238Y-81309523D01*
X152285714Y-81357142D01*
X152619047Y-81357142D01*
X152809523Y-81309523D01*
X152904761Y-81214285D01*
X152952380Y-81119047D01*
X152952380Y-80928571D01*
X152380952Y-81928571D02*
X152333333Y-81833333D01*
X152285714Y-81785714D01*
X152190476Y-81738095D01*
X152142857Y-81738095D01*
X152047619Y-81785714D01*
X152000000Y-81833333D01*
X151952380Y-81928571D01*
X151952380Y-82119047D01*
X152000000Y-82214285D01*
X152047619Y-82261904D01*
X152142857Y-82309523D01*
X152190476Y-82309523D01*
X152285714Y-82261904D01*
X152333333Y-82214285D01*
X152380952Y-82119047D01*
X152380952Y-81928571D01*
X152428571Y-81833333D01*
X152476190Y-81785714D01*
X152571428Y-81738095D01*
X152761904Y-81738095D01*
X152857142Y-81785714D01*
X152904761Y-81833333D01*
X152952380Y-81928571D01*
X152952380Y-82119047D01*
X152904761Y-82214285D01*
X152857142Y-82261904D01*
X152761904Y-82309523D01*
X152571428Y-82309523D01*
X152476190Y-82261904D01*
X152428571Y-82214285D01*
X152380952Y-82119047D01*
X134845238Y-84047619D02*
X134940476Y-84000000D01*
X135035714Y-83904761D01*
X135178571Y-83761904D01*
X135273809Y-83714285D01*
X135369047Y-83714285D01*
X135321428Y-83952380D02*
X135416666Y-83904761D01*
X135511904Y-83809523D01*
X135559523Y-83619047D01*
X135559523Y-83285714D01*
X135511904Y-83095238D01*
X135416666Y-83000000D01*
X135321428Y-82952380D01*
X135130952Y-82952380D01*
X135035714Y-83000000D01*
X134940476Y-83095238D01*
X134892857Y-83285714D01*
X134892857Y-83619047D01*
X134940476Y-83809523D01*
X135035714Y-83904761D01*
X135130952Y-83952380D01*
X135321428Y-83952380D01*
X134416666Y-83952380D02*
X134226190Y-83952380D01*
X134130952Y-83904761D01*
X134083333Y-83857142D01*
X133988095Y-83714285D01*
X133940476Y-83523809D01*
X133940476Y-83142857D01*
X133988095Y-83047619D01*
X134035714Y-83000000D01*
X134130952Y-82952380D01*
X134321428Y-82952380D01*
X134416666Y-83000000D01*
X134464285Y-83047619D01*
X134511904Y-83142857D01*
X134511904Y-83380952D01*
X134464285Y-83476190D01*
X134416666Y-83523809D01*
X134321428Y-83571428D01*
X134130952Y-83571428D01*
X134035714Y-83523809D01*
X133988095Y-83476190D01*
X133940476Y-83380952D01*
X154321428Y-81547619D02*
X154416666Y-81500000D01*
X154511904Y-81404761D01*
X154654761Y-81261904D01*
X154750000Y-81214285D01*
X154845238Y-81214285D01*
X154797619Y-81452380D02*
X154892857Y-81404761D01*
X154988095Y-81309523D01*
X155035714Y-81119047D01*
X155035714Y-80785714D01*
X154988095Y-80595238D01*
X154892857Y-80500000D01*
X154797619Y-80452380D01*
X154607142Y-80452380D01*
X154511904Y-80500000D01*
X154416666Y-80595238D01*
X154369047Y-80785714D01*
X154369047Y-81119047D01*
X154416666Y-81309523D01*
X154511904Y-81404761D01*
X154607142Y-81452380D01*
X154797619Y-81452380D01*
X153416666Y-81452380D02*
X153988095Y-81452380D01*
X153702380Y-81452380D02*
X153702380Y-80452380D01*
X153797619Y-80595238D01*
X153892857Y-80690476D01*
X153988095Y-80738095D01*
X152797619Y-80452380D02*
X152702380Y-80452380D01*
X152607142Y-80500000D01*
X152559523Y-80547619D01*
X152511904Y-80642857D01*
X152464285Y-80833333D01*
X152464285Y-81071428D01*
X152511904Y-81261904D01*
X152559523Y-81357142D01*
X152607142Y-81404761D01*
X152702380Y-81452380D01*
X152797619Y-81452380D01*
X152892857Y-81404761D01*
X152940476Y-81357142D01*
X152988095Y-81261904D01*
X153035714Y-81071428D01*
X153035714Y-80833333D01*
X152988095Y-80642857D01*
X152940476Y-80547619D01*
X152892857Y-80500000D01*
X152797619Y-80452380D01*
X133047619Y-85178571D02*
X133000000Y-85083333D01*
X132904761Y-84988095D01*
X132761904Y-84845238D01*
X132714285Y-84750000D01*
X132714285Y-84654761D01*
X132952380Y-84702380D02*
X132904761Y-84607142D01*
X132809523Y-84511904D01*
X132619047Y-84464285D01*
X132285714Y-84464285D01*
X132095238Y-84511904D01*
X132000000Y-84607142D01*
X131952380Y-84702380D01*
X131952380Y-84892857D01*
X132000000Y-84988095D01*
X132095238Y-85083333D01*
X132285714Y-85130952D01*
X132619047Y-85130952D01*
X132809523Y-85083333D01*
X132904761Y-84988095D01*
X132952380Y-84892857D01*
X132952380Y-84702380D01*
X132952380Y-86083333D02*
X132952380Y-85511904D01*
X132952380Y-85797619D02*
X131952380Y-85797619D01*
X132095238Y-85702380D01*
X132190476Y-85607142D01*
X132238095Y-85511904D01*
X132952380Y-87035714D02*
X132952380Y-86464285D01*
X132952380Y-86750000D02*
X131952380Y-86750000D01*
X132095238Y-86654761D01*
X132190476Y-86559523D01*
X132238095Y-86464285D01*
X136797619Y-85178571D02*
X136750000Y-85083333D01*
X136654761Y-84988095D01*
X136511904Y-84845238D01*
X136464285Y-84750000D01*
X136464285Y-84654761D01*
X136702380Y-84702380D02*
X136654761Y-84607142D01*
X136559523Y-84511904D01*
X136369047Y-84464285D01*
X136035714Y-84464285D01*
X135845238Y-84511904D01*
X135750000Y-84607142D01*
X135702380Y-84702380D01*
X135702380Y-84892857D01*
X135750000Y-84988095D01*
X135845238Y-85083333D01*
X136035714Y-85130952D01*
X136369047Y-85130952D01*
X136559523Y-85083333D01*
X136654761Y-84988095D01*
X136702380Y-84892857D01*
X136702380Y-84702380D01*
X136702380Y-86083333D02*
X136702380Y-85511904D01*
X136702380Y-85797619D02*
X135702380Y-85797619D01*
X135845238Y-85702380D01*
X135940476Y-85607142D01*
X135988095Y-85511904D01*
X135797619Y-86464285D02*
X135750000Y-86511904D01*
X135702380Y-86607142D01*
X135702380Y-86845238D01*
X135750000Y-86940476D01*
X135797619Y-86988095D01*
X135892857Y-87035714D01*
X135988095Y-87035714D01*
X136130952Y-86988095D01*
X136702380Y-86416666D01*
X136702380Y-87035714D01*
X146797619Y-85178571D02*
X146750000Y-85083333D01*
X146654761Y-84988095D01*
X146511904Y-84845238D01*
X146464285Y-84750000D01*
X146464285Y-84654761D01*
X146702380Y-84702380D02*
X146654761Y-84607142D01*
X146559523Y-84511904D01*
X146369047Y-84464285D01*
X146035714Y-84464285D01*
X145845238Y-84511904D01*
X145750000Y-84607142D01*
X145702380Y-84702380D01*
X145702380Y-84892857D01*
X145750000Y-84988095D01*
X145845238Y-85083333D01*
X146035714Y-85130952D01*
X146369047Y-85130952D01*
X146559523Y-85083333D01*
X146654761Y-84988095D01*
X146702380Y-84892857D01*
X146702380Y-84702380D01*
X146702380Y-86083333D02*
X146702380Y-85511904D01*
X146702380Y-85797619D02*
X145702380Y-85797619D01*
X145845238Y-85702380D01*
X145940476Y-85607142D01*
X145988095Y-85511904D01*
X145702380Y-86416666D02*
X145702380Y-87035714D01*
X146083333Y-86702380D01*
X146083333Y-86845238D01*
X146130952Y-86940476D01*
X146178571Y-86988095D01*
X146273809Y-87035714D01*
X146511904Y-87035714D01*
X146607142Y-86988095D01*
X146654761Y-86940476D01*
X146702380Y-86845238D01*
X146702380Y-86559523D01*
X146654761Y-86464285D01*
X146607142Y-86416666D01*
X158305428Y-81613619D02*
X158400666Y-81566000D01*
X158495904Y-81470761D01*
X158638761Y-81327904D01*
X158734000Y-81280285D01*
X158829238Y-81280285D01*
X158781619Y-81518380D02*
X158876857Y-81470761D01*
X158972095Y-81375523D01*
X159019714Y-81185047D01*
X159019714Y-80851714D01*
X158972095Y-80661238D01*
X158876857Y-80566000D01*
X158781619Y-80518380D01*
X158591142Y-80518380D01*
X158495904Y-80566000D01*
X158400666Y-80661238D01*
X158353047Y-80851714D01*
X158353047Y-81185047D01*
X158400666Y-81375523D01*
X158495904Y-81470761D01*
X158591142Y-81518380D01*
X158781619Y-81518380D01*
X157400666Y-81518380D02*
X157972095Y-81518380D01*
X157686380Y-81518380D02*
X157686380Y-80518380D01*
X157781619Y-80661238D01*
X157876857Y-80756476D01*
X157972095Y-80804095D01*
X156543523Y-80851714D02*
X156543523Y-81518380D01*
X156781619Y-80470761D02*
X157019714Y-81185047D01*
X156400666Y-81185047D01*
X141797619Y-85178571D02*
X141750000Y-85083333D01*
X141654761Y-84988095D01*
X141511904Y-84845238D01*
X141464285Y-84750000D01*
X141464285Y-84654761D01*
X141702380Y-84702380D02*
X141654761Y-84607142D01*
X141559523Y-84511904D01*
X141369047Y-84464285D01*
X141035714Y-84464285D01*
X140845238Y-84511904D01*
X140750000Y-84607142D01*
X140702380Y-84702380D01*
X140702380Y-84892857D01*
X140750000Y-84988095D01*
X140845238Y-85083333D01*
X141035714Y-85130952D01*
X141369047Y-85130952D01*
X141559523Y-85083333D01*
X141654761Y-84988095D01*
X141702380Y-84892857D01*
X141702380Y-84702380D01*
X141702380Y-86083333D02*
X141702380Y-85511904D01*
X141702380Y-85797619D02*
X140702380Y-85797619D01*
X140845238Y-85702380D01*
X140940476Y-85607142D01*
X140988095Y-85511904D01*
X140702380Y-86988095D02*
X140702380Y-86511904D01*
X141178571Y-86464285D01*
X141130952Y-86511904D01*
X141083333Y-86607142D01*
X141083333Y-86845238D01*
X141130952Y-86940476D01*
X141178571Y-86988095D01*
X141273809Y-87035714D01*
X141511904Y-87035714D01*
X141607142Y-86988095D01*
X141654761Y-86940476D01*
X141702380Y-86845238D01*
X141702380Y-86607142D01*
X141654761Y-86511904D01*
X141607142Y-86464285D01*
X141392857Y-78652380D02*
X141726190Y-78176190D01*
X141964285Y-78652380D02*
X141964285Y-77652380D01*
X141583333Y-77652380D01*
X141488095Y-77700000D01*
X141440476Y-77747619D01*
X141392857Y-77842857D01*
X141392857Y-77985714D01*
X141440476Y-78080952D01*
X141488095Y-78128571D01*
X141583333Y-78176190D01*
X141964285Y-78176190D01*
X141011904Y-77747619D02*
X140964285Y-77700000D01*
X140869047Y-77652380D01*
X140630952Y-77652380D01*
X140535714Y-77700000D01*
X140488095Y-77747619D01*
X140440476Y-77842857D01*
X140440476Y-77938095D01*
X140488095Y-78080952D01*
X141059523Y-78652380D01*
X140440476Y-78652380D01*
X139535714Y-77652380D02*
X140011904Y-77652380D01*
X140059523Y-78128571D01*
X140011904Y-78080952D01*
X139916666Y-78033333D01*
X139678571Y-78033333D01*
X139583333Y-78080952D01*
X139535714Y-78128571D01*
X139488095Y-78223809D01*
X139488095Y-78461904D01*
X139535714Y-78557142D01*
X139583333Y-78604761D01*
X139678571Y-78652380D01*
X139916666Y-78652380D01*
X140011904Y-78604761D01*
X140059523Y-78557142D01*
X134642857Y-77152380D02*
X134976190Y-76676190D01*
X135214285Y-77152380D02*
X135214285Y-76152380D01*
X134833333Y-76152380D01*
X134738095Y-76200000D01*
X134690476Y-76247619D01*
X134642857Y-76342857D01*
X134642857Y-76485714D01*
X134690476Y-76580952D01*
X134738095Y-76628571D01*
X134833333Y-76676190D01*
X135214285Y-76676190D01*
X134261904Y-76247619D02*
X134214285Y-76200000D01*
X134119047Y-76152380D01*
X133880952Y-76152380D01*
X133785714Y-76200000D01*
X133738095Y-76247619D01*
X133690476Y-76342857D01*
X133690476Y-76438095D01*
X133738095Y-76580952D01*
X134309523Y-77152380D01*
X133690476Y-77152380D01*
X132833333Y-76152380D02*
X133023809Y-76152380D01*
X133119047Y-76200000D01*
X133166666Y-76247619D01*
X133261904Y-76390476D01*
X133309523Y-76580952D01*
X133309523Y-76961904D01*
X133261904Y-77057142D01*
X133214285Y-77104761D01*
X133119047Y-77152380D01*
X132928571Y-77152380D01*
X132833333Y-77104761D01*
X132785714Y-77057142D01*
X132738095Y-76961904D01*
X132738095Y-76723809D01*
X132785714Y-76628571D01*
X132833333Y-76580952D01*
X132928571Y-76533333D01*
X133119047Y-76533333D01*
X133214285Y-76580952D01*
X133261904Y-76628571D01*
X133309523Y-76723809D01*
X142402380Y-79657142D02*
X141926190Y-79323809D01*
X142402380Y-79085714D02*
X141402380Y-79085714D01*
X141402380Y-79466666D01*
X141450000Y-79561904D01*
X141497619Y-79609523D01*
X141592857Y-79657142D01*
X141735714Y-79657142D01*
X141830952Y-79609523D01*
X141878571Y-79561904D01*
X141926190Y-79466666D01*
X141926190Y-79085714D01*
X141497619Y-80038095D02*
X141450000Y-80085714D01*
X141402380Y-80180952D01*
X141402380Y-80419047D01*
X141450000Y-80514285D01*
X141497619Y-80561904D01*
X141592857Y-80609523D01*
X141688095Y-80609523D01*
X141830952Y-80561904D01*
X142402380Y-79990476D01*
X142402380Y-80609523D01*
X141402380Y-80942857D02*
X141402380Y-81609523D01*
X142402380Y-81180952D01*
X143502380Y-85857142D02*
X143026190Y-85523809D01*
X143502380Y-85285714D02*
X142502380Y-85285714D01*
X142502380Y-85666666D01*
X142550000Y-85761904D01*
X142597619Y-85809523D01*
X142692857Y-85857142D01*
X142835714Y-85857142D01*
X142930952Y-85809523D01*
X142978571Y-85761904D01*
X143026190Y-85666666D01*
X143026190Y-85285714D01*
X142597619Y-86238095D02*
X142550000Y-86285714D01*
X142502380Y-86380952D01*
X142502380Y-86619047D01*
X142550000Y-86714285D01*
X142597619Y-86761904D01*
X142692857Y-86809523D01*
X142788095Y-86809523D01*
X142930952Y-86761904D01*
X143502380Y-86190476D01*
X143502380Y-86809523D01*
X142930952Y-87380952D02*
X142883333Y-87285714D01*
X142835714Y-87238095D01*
X142740476Y-87190476D01*
X142692857Y-87190476D01*
X142597619Y-87238095D01*
X142550000Y-87285714D01*
X142502380Y-87380952D01*
X142502380Y-87571428D01*
X142550000Y-87666666D01*
X142597619Y-87714285D01*
X142692857Y-87761904D01*
X142740476Y-87761904D01*
X142835714Y-87714285D01*
X142883333Y-87666666D01*
X142930952Y-87571428D01*
X142930952Y-87380952D01*
X142978571Y-87285714D01*
X143026190Y-87238095D01*
X143121428Y-87190476D01*
X143311904Y-87190476D01*
X143407142Y-87238095D01*
X143454761Y-87285714D01*
X143502380Y-87380952D01*
X143502380Y-87571428D01*
X143454761Y-87666666D01*
X143407142Y-87714285D01*
X143311904Y-87761904D01*
X143121428Y-87761904D01*
X143026190Y-87714285D01*
X142978571Y-87666666D01*
X142930952Y-87571428D01*
X148502380Y-85857142D02*
X148026190Y-85523809D01*
X148502380Y-85285714D02*
X147502380Y-85285714D01*
X147502380Y-85666666D01*
X147550000Y-85761904D01*
X147597619Y-85809523D01*
X147692857Y-85857142D01*
X147835714Y-85857142D01*
X147930952Y-85809523D01*
X147978571Y-85761904D01*
X148026190Y-85666666D01*
X148026190Y-85285714D01*
X147502380Y-86190476D02*
X147502380Y-86809523D01*
X147883333Y-86476190D01*
X147883333Y-86619047D01*
X147930952Y-86714285D01*
X147978571Y-86761904D01*
X148073809Y-86809523D01*
X148311904Y-86809523D01*
X148407142Y-86761904D01*
X148454761Y-86714285D01*
X148502380Y-86619047D01*
X148502380Y-86333333D01*
X148454761Y-86238095D01*
X148407142Y-86190476D01*
X147502380Y-87142857D02*
X147502380Y-87761904D01*
X147883333Y-87428571D01*
X147883333Y-87571428D01*
X147930952Y-87666666D01*
X147978571Y-87714285D01*
X148073809Y-87761904D01*
X148311904Y-87761904D01*
X148407142Y-87714285D01*
X148454761Y-87666666D01*
X148502380Y-87571428D01*
X148502380Y-87285714D01*
X148454761Y-87190476D01*
X148407142Y-87142857D01*
X145652380Y-78107142D02*
X145176190Y-77773809D01*
X145652380Y-77535714D02*
X144652380Y-77535714D01*
X144652380Y-77916666D01*
X144700000Y-78011904D01*
X144747619Y-78059523D01*
X144842857Y-78107142D01*
X144985714Y-78107142D01*
X145080952Y-78059523D01*
X145128571Y-78011904D01*
X145176190Y-77916666D01*
X145176190Y-77535714D01*
X144652380Y-78440476D02*
X144652380Y-79059523D01*
X145033333Y-78726190D01*
X145033333Y-78869047D01*
X145080952Y-78964285D01*
X145128571Y-79011904D01*
X145223809Y-79059523D01*
X145461904Y-79059523D01*
X145557142Y-79011904D01*
X145604761Y-78964285D01*
X145652380Y-78869047D01*
X145652380Y-78583333D01*
X145604761Y-78488095D01*
X145557142Y-78440476D01*
X144985714Y-79916666D02*
X145652380Y-79916666D01*
X144604761Y-79678571D02*
X145319047Y-79440476D01*
X145319047Y-80059523D01*
X138092857Y-78652380D02*
X138426190Y-78176190D01*
X138664285Y-78652380D02*
X138664285Y-77652380D01*
X138283333Y-77652380D01*
X138188095Y-77700000D01*
X138140476Y-77747619D01*
X138092857Y-77842857D01*
X138092857Y-77985714D01*
X138140476Y-78080952D01*
X138188095Y-78128571D01*
X138283333Y-78176190D01*
X138664285Y-78176190D01*
X137759523Y-77652380D02*
X137140476Y-77652380D01*
X137473809Y-78033333D01*
X137330952Y-78033333D01*
X137235714Y-78080952D01*
X137188095Y-78128571D01*
X137140476Y-78223809D01*
X137140476Y-78461904D01*
X137188095Y-78557142D01*
X137235714Y-78604761D01*
X137330952Y-78652380D01*
X137616666Y-78652380D01*
X137711904Y-78604761D01*
X137759523Y-78557142D01*
X136235714Y-77652380D02*
X136711904Y-77652380D01*
X136759523Y-78128571D01*
X136711904Y-78080952D01*
X136616666Y-78033333D01*
X136378571Y-78033333D01*
X136283333Y-78080952D01*
X136235714Y-78128571D01*
X136188095Y-78223809D01*
X136188095Y-78461904D01*
X136235714Y-78557142D01*
X136283333Y-78604761D01*
X136378571Y-78652380D01*
X136616666Y-78652380D01*
X136711904Y-78604761D01*
X136759523Y-78557142D01*
X153502380Y-85557142D02*
X153026190Y-85223809D01*
X153502380Y-84985714D02*
X152502380Y-84985714D01*
X152502380Y-85366666D01*
X152550000Y-85461904D01*
X152597619Y-85509523D01*
X152692857Y-85557142D01*
X152835714Y-85557142D01*
X152930952Y-85509523D01*
X152978571Y-85461904D01*
X153026190Y-85366666D01*
X153026190Y-84985714D01*
X152502380Y-85890476D02*
X152502380Y-86509523D01*
X152883333Y-86176190D01*
X152883333Y-86319047D01*
X152930952Y-86414285D01*
X152978571Y-86461904D01*
X153073809Y-86509523D01*
X153311904Y-86509523D01*
X153407142Y-86461904D01*
X153454761Y-86414285D01*
X153502380Y-86319047D01*
X153502380Y-86033333D01*
X153454761Y-85938095D01*
X153407142Y-85890476D01*
X152502380Y-87366666D02*
X152502380Y-87176190D01*
X152550000Y-87080952D01*
X152597619Y-87033333D01*
X152740476Y-86938095D01*
X152930952Y-86890476D01*
X153311904Y-86890476D01*
X153407142Y-86938095D01*
X153454761Y-86985714D01*
X153502380Y-87080952D01*
X153502380Y-87271428D01*
X153454761Y-87366666D01*
X153407142Y-87414285D01*
X153311904Y-87461904D01*
X153073809Y-87461904D01*
X152978571Y-87414285D01*
X152930952Y-87366666D01*
X152883333Y-87271428D01*
X152883333Y-87080952D01*
X152930952Y-86985714D01*
X152978571Y-86938095D01*
X153073809Y-86890476D01*
D10*
X161472476Y-80732190D02*
X161353428Y-81232190D01*
X161258190Y-80875047D01*
X161162952Y-81232190D01*
X161043904Y-80732190D01*
X160591523Y-81232190D02*
X160877238Y-81232190D01*
X160734380Y-81232190D02*
X160734380Y-80732190D01*
X160782000Y-80803619D01*
X160829619Y-80851238D01*
X160877238Y-80875047D01*
X160401047Y-80779809D02*
X160377238Y-80756000D01*
X160329619Y-80732190D01*
X160210571Y-80732190D01*
X160162952Y-80756000D01*
X160139142Y-80779809D01*
X160115333Y-80827428D01*
X160115333Y-80875047D01*
X160139142Y-80946476D01*
X160424857Y-81232190D01*
X160115333Y-81232190D01*
X151890476Y-102526190D02*
X151771428Y-103026190D01*
X151676190Y-102669047D01*
X151580952Y-103026190D01*
X151461904Y-102526190D01*
X151009523Y-103026190D02*
X151295238Y-103026190D01*
X151152380Y-103026190D02*
X151152380Y-102526190D01*
X151200000Y-102597619D01*
X151247619Y-102645238D01*
X151295238Y-102669047D01*
X150723809Y-102740476D02*
X150771428Y-102716666D01*
X150795238Y-102692857D01*
X150819047Y-102645238D01*
X150819047Y-102621428D01*
X150795238Y-102573809D01*
X150771428Y-102550000D01*
X150723809Y-102526190D01*
X150628571Y-102526190D01*
X150580952Y-102550000D01*
X150557142Y-102573809D01*
X150533333Y-102621428D01*
X150533333Y-102645238D01*
X150557142Y-102692857D01*
X150580952Y-102716666D01*
X150628571Y-102740476D01*
X150723809Y-102740476D01*
X150771428Y-102764285D01*
X150795238Y-102788095D01*
X150819047Y-102835714D01*
X150819047Y-102930952D01*
X150795238Y-102978571D01*
X150771428Y-103002380D01*
X150723809Y-103026190D01*
X150628571Y-103026190D01*
X150580952Y-103002380D01*
X150557142Y-102978571D01*
X150533333Y-102930952D01*
X150533333Y-102835714D01*
X150557142Y-102788095D01*
X150580952Y-102764285D01*
X150628571Y-102740476D01*
D11*
X129738095Y-106702380D02*
X129738095Y-105702380D01*
X129357142Y-105702380D01*
X129261904Y-105750000D01*
X129214285Y-105797619D01*
X129166666Y-105892857D01*
X129166666Y-106035714D01*
X129214285Y-106130952D01*
X129261904Y-106178571D01*
X129357142Y-106226190D01*
X129738095Y-106226190D01*
X128785714Y-105797619D02*
X128738095Y-105750000D01*
X128642857Y-105702380D01*
X128404761Y-105702380D01*
X128309523Y-105750000D01*
X128261904Y-105797619D01*
X128214285Y-105892857D01*
X128214285Y-105988095D01*
X128261904Y-106130952D01*
X128833333Y-106702380D01*
X128214285Y-106702380D01*
X140252380Y-109857142D02*
X139776190Y-109523809D01*
X140252380Y-109285714D02*
X139252380Y-109285714D01*
X139252380Y-109666666D01*
X139300000Y-109761904D01*
X139347619Y-109809523D01*
X139442857Y-109857142D01*
X139585714Y-109857142D01*
X139680952Y-109809523D01*
X139728571Y-109761904D01*
X139776190Y-109666666D01*
X139776190Y-109285714D01*
X140252380Y-110809523D02*
X140252380Y-110238095D01*
X140252380Y-110523809D02*
X139252380Y-110523809D01*
X139395238Y-110428571D01*
X139490476Y-110333333D01*
X139538095Y-110238095D01*
X139252380Y-111714285D02*
X139252380Y-111238095D01*
X139728571Y-111190476D01*
X139680952Y-111238095D01*
X139633333Y-111333333D01*
X139633333Y-111571428D01*
X139680952Y-111666666D01*
X139728571Y-111714285D01*
X139823809Y-111761904D01*
X140061904Y-111761904D01*
X140157142Y-111714285D01*
X140204761Y-111666666D01*
X140252380Y-111571428D01*
X140252380Y-111333333D01*
X140204761Y-111238095D01*
X140157142Y-111190476D01*
X133752380Y-111357142D02*
X133276190Y-111023809D01*
X133752380Y-110785714D02*
X132752380Y-110785714D01*
X132752380Y-111166666D01*
X132800000Y-111261904D01*
X132847619Y-111309523D01*
X132942857Y-111357142D01*
X133085714Y-111357142D01*
X133180952Y-111309523D01*
X133228571Y-111261904D01*
X133276190Y-111166666D01*
X133276190Y-110785714D01*
X133752380Y-112309523D02*
X133752380Y-111738095D01*
X133752380Y-112023809D02*
X132752380Y-112023809D01*
X132895238Y-111928571D01*
X132990476Y-111833333D01*
X133038095Y-111738095D01*
X132752380Y-113166666D02*
X132752380Y-112976190D01*
X132800000Y-112880952D01*
X132847619Y-112833333D01*
X132990476Y-112738095D01*
X133180952Y-112690476D01*
X133561904Y-112690476D01*
X133657142Y-112738095D01*
X133704761Y-112785714D01*
X133752380Y-112880952D01*
X133752380Y-113071428D01*
X133704761Y-113166666D01*
X133657142Y-113214285D01*
X133561904Y-113261904D01*
X133323809Y-113261904D01*
X133228571Y-113214285D01*
X133180952Y-113166666D01*
X133133333Y-113071428D01*
X133133333Y-112880952D01*
X133180952Y-112785714D01*
X133228571Y-112738095D01*
X133323809Y-112690476D01*
X140252380Y-104907142D02*
X139776190Y-104573809D01*
X140252380Y-104335714D02*
X139252380Y-104335714D01*
X139252380Y-104716666D01*
X139300000Y-104811904D01*
X139347619Y-104859523D01*
X139442857Y-104907142D01*
X139585714Y-104907142D01*
X139680952Y-104859523D01*
X139728571Y-104811904D01*
X139776190Y-104716666D01*
X139776190Y-104335714D01*
X140252380Y-105859523D02*
X140252380Y-105288095D01*
X140252380Y-105573809D02*
X139252380Y-105573809D01*
X139395238Y-105478571D01*
X139490476Y-105383333D01*
X139538095Y-105288095D01*
X139252380Y-106192857D02*
X139252380Y-106859523D01*
X140252380Y-106430952D01*
X133752380Y-106807142D02*
X133276190Y-106473809D01*
X133752380Y-106235714D02*
X132752380Y-106235714D01*
X132752380Y-106616666D01*
X132800000Y-106711904D01*
X132847619Y-106759523D01*
X132942857Y-106807142D01*
X133085714Y-106807142D01*
X133180952Y-106759523D01*
X133228571Y-106711904D01*
X133276190Y-106616666D01*
X133276190Y-106235714D01*
X133752380Y-107759523D02*
X133752380Y-107188095D01*
X133752380Y-107473809D02*
X132752380Y-107473809D01*
X132895238Y-107378571D01*
X132990476Y-107283333D01*
X133038095Y-107188095D01*
X133752380Y-108235714D02*
X133752380Y-108426190D01*
X133704761Y-108521428D01*
X133657142Y-108569047D01*
X133514285Y-108664285D01*
X133323809Y-108711904D01*
X132942857Y-108711904D01*
X132847619Y-108664285D01*
X132800000Y-108616666D01*
X132752380Y-108521428D01*
X132752380Y-108330952D01*
X132800000Y-108235714D01*
X132847619Y-108188095D01*
X132942857Y-108140476D01*
X133180952Y-108140476D01*
X133276190Y-108188095D01*
X133323809Y-108235714D01*
X133371428Y-108330952D01*
X133371428Y-108521428D01*
X133323809Y-108616666D01*
X133276190Y-108664285D01*
X133180952Y-108711904D01*
D15*
G36*
X162372910Y-74673000D02*
X148126910Y-74673000D01*
X148122476Y-68427000D01*
X162368476Y-68427000D01*
X162372910Y-74673000D01*
X162372910Y-74673000D01*
G37*
X162372910Y-74673000D02*
X148126910Y-74673000D01*
X148122476Y-68427000D01*
X162368476Y-68427000D01*
X162372910Y-74673000D01*
M02*
