M48
;DRILL file {KiCad 4.0.4+dfsg1-stable} date Thu Nov  3 14:08:00 2016
;FORMAT={-:-/ absolute / metric / decimal}
FMAT,2
METRIC,TZ
T1C0.400
T2C0.599
T3C1.000
T4C1.016
%
G90
G05
M71
T1
X122.5Y-80.
X125.Y-67.5
X125.Y-117.5
X125.Y-122.5
X127.5Y-85.
X127.5Y-95.
X129.647Y-101.817
X130.Y-67.5
X130.Y-117.5
X131.75Y-100.5
X132.Y-73.
X132.5Y-85.
X132.5Y-110.
X135.Y-67.5
X135.Y-117.5
X137.5Y-80.
X137.5Y-85.
X138.25Y-92.
X140.Y-67.5
X140.Y-115.2
X140.Y-116.
X142.5Y-77.5
X143.25Y-93.
X143.75Y-115.75
X144.6Y-121.15
X144.6Y-122.
X144.6Y-122.85
X145.4Y-121.15
X145.4Y-122.
X145.4Y-122.85
X147.Y-115.75
X147.375Y-97.5
X147.75Y-104.75
X148.5Y-76.
X148.5Y-93.
X150.5Y-109.25
X151.Y-111.5
X151.25Y-108.5
X151.75Y-100.5
X151.816Y-107.934
X152.25Y-110.75
X152.5Y-85.
X152.5Y-90.
X152.5Y-100.
X152.5Y-105.
X152.5Y-106.75
X152.5Y-120.
X153.25Y-109.5
X154.Y-68.
X154.75Y-92.
X156.Y-81.25
X157.5Y-85.
X157.5Y-90.
X157.5Y-100.
X157.5Y-105.
X157.5Y-106.75
X160.Y-120.
X162.5Y-70.
X162.5Y-75.
X162.5Y-80.
X162.5Y-85.
X162.5Y-95.
X162.5Y-100.
X162.5Y-105.
X162.5Y-110.
X167.5Y-70.
X167.5Y-75.
X167.5Y-80.
X167.5Y-100.
X167.5Y-105.
T2
X133.25Y-96.751
X133.25Y-98.249
T3
X141.25Y-80.
X141.25Y-85.
X143.75Y-80.
X143.75Y-85.
X146.25Y-80.
X146.25Y-85.
X148.75Y-80.
X148.75Y-85.
T4
X122.5Y-99.88
X122.5Y-102.42
X122.5Y-104.96
X122.5Y-107.5
X122.5Y-110.04
X132.71Y-122.75
X135.25Y-122.75
X137.79Y-122.75
T0
M30
