G04 #@! TF.GenerationSoftware,KiCad,Pcbnew,no-vcs-found-7433~57~ubuntu16.10.1*
G04 #@! TF.CreationDate,2017-01-11T15:26:42+01:00*
G04 #@! TF.ProjectId,can-node,63616E2D6E6F64652E6B696361645F70,rev?*
G04 #@! TF.FileFunction,Drawing*
%FSLAX46Y46*%
G04 Gerber Fmt 4.6, Leading zero omitted, Abs format (unit mm)*
G04 Created by KiCad (PCBNEW no-vcs-found-7433~57~ubuntu16.10.1) date Wed Jan 11 15:26:42 2017*
%MOMM*%
%LPD*%
G01*
G04 APERTURE LIST*
%ADD10C,0.100000*%
%ADD11C,0.200000*%
G04 APERTURE END LIST*
D10*
D11*
X191447619Y-75809523D02*
X191447619Y-76428571D01*
X191066666Y-76095238D01*
X191066666Y-76238095D01*
X191019047Y-76333333D01*
X190971428Y-76380952D01*
X190876190Y-76428571D01*
X190638095Y-76428571D01*
X190542857Y-76380952D01*
X190495238Y-76333333D01*
X190447619Y-76238095D01*
X190447619Y-75952380D01*
X190495238Y-75857142D01*
X190542857Y-75809523D01*
X191447619Y-77047619D02*
X191447619Y-77142857D01*
X191400000Y-77238095D01*
X191352380Y-77285714D01*
X191257142Y-77333333D01*
X191066666Y-77380952D01*
X190828571Y-77380952D01*
X190638095Y-77333333D01*
X190542857Y-77285714D01*
X190495238Y-77238095D01*
X190447619Y-77142857D01*
X190447619Y-77047619D01*
X190495238Y-76952380D01*
X190542857Y-76904761D01*
X190638095Y-76857142D01*
X190828571Y-76809523D01*
X191066666Y-76809523D01*
X191257142Y-76857142D01*
X191352380Y-76904761D01*
X191400000Y-76952380D01*
X191447619Y-77047619D01*
X190495238Y-77857142D02*
X190447619Y-77857142D01*
X190352380Y-77809523D01*
X190304761Y-77761904D01*
X191447619Y-78476190D02*
X191447619Y-78571428D01*
X191400000Y-78666666D01*
X191352380Y-78714285D01*
X191257142Y-78761904D01*
X191066666Y-78809523D01*
X190828571Y-78809523D01*
X190638095Y-78761904D01*
X190542857Y-78714285D01*
X190495238Y-78666666D01*
X190447619Y-78571428D01*
X190447619Y-78476190D01*
X190495238Y-78380952D01*
X190542857Y-78333333D01*
X190638095Y-78285714D01*
X190828571Y-78238095D01*
X191066666Y-78238095D01*
X191257142Y-78285714D01*
X191352380Y-78333333D01*
X191400000Y-78380952D01*
X191447619Y-78476190D01*
X191447619Y-79428571D02*
X191447619Y-79523809D01*
X191400000Y-79619047D01*
X191352380Y-79666666D01*
X191257142Y-79714285D01*
X191066666Y-79761904D01*
X190828571Y-79761904D01*
X190638095Y-79714285D01*
X190542857Y-79666666D01*
X190495238Y-79619047D01*
X190447619Y-79523809D01*
X190447619Y-79428571D01*
X190495238Y-79333333D01*
X190542857Y-79285714D01*
X190638095Y-79238095D01*
X190828571Y-79190476D01*
X191066666Y-79190476D01*
X191257142Y-79238095D01*
X191352380Y-79285714D01*
X191400000Y-79333333D01*
X191447619Y-79428571D01*
X191447619Y-80380952D02*
X191447619Y-80476190D01*
X191400000Y-80571428D01*
X191352380Y-80619047D01*
X191257142Y-80666666D01*
X191066666Y-80714285D01*
X190828571Y-80714285D01*
X190638095Y-80666666D01*
X190542857Y-80619047D01*
X190495238Y-80571428D01*
X190447619Y-80476190D01*
X190447619Y-80380952D01*
X190495238Y-80285714D01*
X190542857Y-80238095D01*
X190638095Y-80190476D01*
X190828571Y-80142857D01*
X191066666Y-80142857D01*
X191257142Y-80190476D01*
X191352380Y-80238095D01*
X191400000Y-80285714D01*
X191447619Y-80380952D01*
X190447619Y-81904761D02*
X191114285Y-81904761D01*
X191019047Y-81904761D02*
X191066666Y-81952380D01*
X191114285Y-82047619D01*
X191114285Y-82190476D01*
X191066666Y-82285714D01*
X190971428Y-82333333D01*
X190447619Y-82333333D01*
X190971428Y-82333333D02*
X191066666Y-82380952D01*
X191114285Y-82476190D01*
X191114285Y-82619047D01*
X191066666Y-82714285D01*
X190971428Y-82761904D01*
X190447619Y-82761904D01*
X190447619Y-83238095D02*
X191114285Y-83238095D01*
X191019047Y-83238095D02*
X191066666Y-83285714D01*
X191114285Y-83380952D01*
X191114285Y-83523809D01*
X191066666Y-83619047D01*
X190971428Y-83666666D01*
X190447619Y-83666666D01*
X190971428Y-83666666D02*
X191066666Y-83714285D01*
X191114285Y-83809523D01*
X191114285Y-83952380D01*
X191066666Y-84047619D01*
X190971428Y-84095238D01*
X190447619Y-84095238D01*
X190000000Y-65000000D02*
X190000000Y-95000000D01*
X175000000Y-65000000D02*
X191800000Y-65000000D01*
X175000000Y-95000000D02*
X191800000Y-95000000D01*
X190000000Y-95000000D02*
X189413579Y-93873496D01*
X190000000Y-95000000D02*
X190586421Y-93873496D01*
X190000000Y-65000000D02*
X189413579Y-66126504D01*
X190000000Y-65000000D02*
X190586421Y-66126504D01*
X141333333Y-59635714D02*
X141333333Y-60302380D01*
X141095238Y-59254761D02*
X140857142Y-59969047D01*
X141476190Y-59969047D01*
X141809523Y-59397619D02*
X141857142Y-59350000D01*
X141952380Y-59302380D01*
X142190476Y-59302380D01*
X142285714Y-59350000D01*
X142333333Y-59397619D01*
X142380952Y-59492857D01*
X142380952Y-59588095D01*
X142333333Y-59730952D01*
X141761904Y-60302380D01*
X142380952Y-60302380D01*
X142857142Y-60254761D02*
X142857142Y-60302380D01*
X142809523Y-60397619D01*
X142761904Y-60445238D01*
X143761904Y-59302380D02*
X143285714Y-59302380D01*
X143238095Y-59778571D01*
X143285714Y-59730952D01*
X143380952Y-59683333D01*
X143619047Y-59683333D01*
X143714285Y-59730952D01*
X143761904Y-59778571D01*
X143809523Y-59873809D01*
X143809523Y-60111904D01*
X143761904Y-60207142D01*
X143714285Y-60254761D01*
X143619047Y-60302380D01*
X143380952Y-60302380D01*
X143285714Y-60254761D01*
X143238095Y-60207142D01*
X144428571Y-59302380D02*
X144523809Y-59302380D01*
X144619047Y-59350000D01*
X144666666Y-59397619D01*
X144714285Y-59492857D01*
X144761904Y-59683333D01*
X144761904Y-59921428D01*
X144714285Y-60111904D01*
X144666666Y-60207142D01*
X144619047Y-60254761D01*
X144523809Y-60302380D01*
X144428571Y-60302380D01*
X144333333Y-60254761D01*
X144285714Y-60207142D01*
X144238095Y-60111904D01*
X144190476Y-59921428D01*
X144190476Y-59683333D01*
X144238095Y-59492857D01*
X144285714Y-59397619D01*
X144333333Y-59350000D01*
X144428571Y-59302380D01*
X145380952Y-59302380D02*
X145476190Y-59302380D01*
X145571428Y-59350000D01*
X145619047Y-59397619D01*
X145666666Y-59492857D01*
X145714285Y-59683333D01*
X145714285Y-59921428D01*
X145666666Y-60111904D01*
X145619047Y-60207142D01*
X145571428Y-60254761D01*
X145476190Y-60302380D01*
X145380952Y-60302380D01*
X145285714Y-60254761D01*
X145238095Y-60207142D01*
X145190476Y-60111904D01*
X145142857Y-59921428D01*
X145142857Y-59683333D01*
X145190476Y-59492857D01*
X145238095Y-59397619D01*
X145285714Y-59350000D01*
X145380952Y-59302380D01*
X146904761Y-60302380D02*
X146904761Y-59635714D01*
X146904761Y-59730952D02*
X146952380Y-59683333D01*
X147047619Y-59635714D01*
X147190476Y-59635714D01*
X147285714Y-59683333D01*
X147333333Y-59778571D01*
X147333333Y-60302380D01*
X147333333Y-59778571D02*
X147380952Y-59683333D01*
X147476190Y-59635714D01*
X147619047Y-59635714D01*
X147714285Y-59683333D01*
X147761904Y-59778571D01*
X147761904Y-60302380D01*
X148238095Y-60302380D02*
X148238095Y-59635714D01*
X148238095Y-59730952D02*
X148285714Y-59683333D01*
X148380952Y-59635714D01*
X148523809Y-59635714D01*
X148619047Y-59683333D01*
X148666666Y-59778571D01*
X148666666Y-60302380D01*
X148666666Y-59778571D02*
X148714285Y-59683333D01*
X148809523Y-59635714D01*
X148952380Y-59635714D01*
X149047619Y-59683333D01*
X149095238Y-59778571D01*
X149095238Y-60302380D01*
X123750000Y-60750000D02*
X166250000Y-60750000D01*
X123750000Y-68750000D02*
X123750000Y-58950000D01*
X166250000Y-68750000D02*
X166250000Y-58950000D01*
X166250000Y-60750000D02*
X165123496Y-61336421D01*
X166250000Y-60750000D02*
X165123496Y-60163579D01*
X123750000Y-60750000D02*
X124876504Y-61336421D01*
X123750000Y-60750000D02*
X124876504Y-60163579D01*
X170000000Y-95000000D02*
G75*
G03X170000000Y-95000000I-25000000J0D01*
G01*
X141047619Y-145780952D02*
X140952380Y-145733333D01*
X140904761Y-145685714D01*
X140857142Y-145590476D01*
X140857142Y-145542857D01*
X140904761Y-145447619D01*
X140952380Y-145400000D01*
X141047619Y-145352380D01*
X141238095Y-145352380D01*
X141333333Y-145400000D01*
X141380952Y-145447619D01*
X141428571Y-145542857D01*
X141428571Y-145590476D01*
X141380952Y-145685714D01*
X141333333Y-145733333D01*
X141238095Y-145780952D01*
X141047619Y-145780952D01*
X140952380Y-145828571D01*
X140904761Y-145876190D01*
X140857142Y-145971428D01*
X140857142Y-146161904D01*
X140904761Y-146257142D01*
X140952380Y-146304761D01*
X141047619Y-146352380D01*
X141238095Y-146352380D01*
X141333333Y-146304761D01*
X141380952Y-146257142D01*
X141428571Y-146161904D01*
X141428571Y-145971428D01*
X141380952Y-145876190D01*
X141333333Y-145828571D01*
X141238095Y-145780952D01*
X142047619Y-145352380D02*
X142142857Y-145352380D01*
X142238095Y-145400000D01*
X142285714Y-145447619D01*
X142333333Y-145542857D01*
X142380952Y-145733333D01*
X142380952Y-145971428D01*
X142333333Y-146161904D01*
X142285714Y-146257142D01*
X142238095Y-146304761D01*
X142142857Y-146352380D01*
X142047619Y-146352380D01*
X141952380Y-146304761D01*
X141904761Y-146257142D01*
X141857142Y-146161904D01*
X141809523Y-145971428D01*
X141809523Y-145733333D01*
X141857142Y-145542857D01*
X141904761Y-145447619D01*
X141952380Y-145400000D01*
X142047619Y-145352380D01*
X142857142Y-146304761D02*
X142857142Y-146352380D01*
X142809523Y-146447619D01*
X142761904Y-146495238D01*
X143476190Y-145352380D02*
X143571428Y-145352380D01*
X143666666Y-145400000D01*
X143714285Y-145447619D01*
X143761904Y-145542857D01*
X143809523Y-145733333D01*
X143809523Y-145971428D01*
X143761904Y-146161904D01*
X143714285Y-146257142D01*
X143666666Y-146304761D01*
X143571428Y-146352380D01*
X143476190Y-146352380D01*
X143380952Y-146304761D01*
X143333333Y-146257142D01*
X143285714Y-146161904D01*
X143238095Y-145971428D01*
X143238095Y-145733333D01*
X143285714Y-145542857D01*
X143333333Y-145447619D01*
X143380952Y-145400000D01*
X143476190Y-145352380D01*
X144428571Y-145352380D02*
X144523809Y-145352380D01*
X144619047Y-145400000D01*
X144666666Y-145447619D01*
X144714285Y-145542857D01*
X144761904Y-145733333D01*
X144761904Y-145971428D01*
X144714285Y-146161904D01*
X144666666Y-146257142D01*
X144619047Y-146304761D01*
X144523809Y-146352380D01*
X144428571Y-146352380D01*
X144333333Y-146304761D01*
X144285714Y-146257142D01*
X144238095Y-146161904D01*
X144190476Y-145971428D01*
X144190476Y-145733333D01*
X144238095Y-145542857D01*
X144285714Y-145447619D01*
X144333333Y-145400000D01*
X144428571Y-145352380D01*
X145380952Y-145352380D02*
X145476190Y-145352380D01*
X145571428Y-145400000D01*
X145619047Y-145447619D01*
X145666666Y-145542857D01*
X145714285Y-145733333D01*
X145714285Y-145971428D01*
X145666666Y-146161904D01*
X145619047Y-146257142D01*
X145571428Y-146304761D01*
X145476190Y-146352380D01*
X145380952Y-146352380D01*
X145285714Y-146304761D01*
X145238095Y-146257142D01*
X145190476Y-146161904D01*
X145142857Y-145971428D01*
X145142857Y-145733333D01*
X145190476Y-145542857D01*
X145238095Y-145447619D01*
X145285714Y-145400000D01*
X145380952Y-145352380D01*
X146904761Y-146352380D02*
X146904761Y-145685714D01*
X146904761Y-145780952D02*
X146952380Y-145733333D01*
X147047619Y-145685714D01*
X147190476Y-145685714D01*
X147285714Y-145733333D01*
X147333333Y-145828571D01*
X147333333Y-146352380D01*
X147333333Y-145828571D02*
X147380952Y-145733333D01*
X147476190Y-145685714D01*
X147619047Y-145685714D01*
X147714285Y-145733333D01*
X147761904Y-145828571D01*
X147761904Y-146352380D01*
X148238095Y-146352380D02*
X148238095Y-145685714D01*
X148238095Y-145780952D02*
X148285714Y-145733333D01*
X148380952Y-145685714D01*
X148523809Y-145685714D01*
X148619047Y-145733333D01*
X148666666Y-145828571D01*
X148666666Y-146352380D01*
X148666666Y-145828571D02*
X148714285Y-145733333D01*
X148809523Y-145685714D01*
X148952380Y-145685714D01*
X149047619Y-145733333D01*
X149095238Y-145828571D01*
X149095238Y-146352380D01*
X105000000Y-145000000D02*
X185000000Y-145000000D01*
X105000000Y-130000000D02*
X105000000Y-146800000D01*
X185000000Y-130000000D02*
X185000000Y-146800000D01*
X185000000Y-145000000D02*
X183873496Y-145586421D01*
X185000000Y-145000000D02*
X183873496Y-144413579D01*
X105000000Y-145000000D02*
X106126504Y-145586421D01*
X105000000Y-145000000D02*
X106126504Y-144413579D01*
X150190476Y-128452380D02*
X149428571Y-129452380D01*
X149714285Y-129452380D02*
X149619047Y-129404761D01*
X149523809Y-129309523D01*
X149476190Y-129119047D01*
X149476190Y-128785714D01*
X149523809Y-128595238D01*
X149619047Y-128500000D01*
X149714285Y-128452380D01*
X149904761Y-128452380D01*
X150000000Y-128500000D01*
X150095238Y-128595238D01*
X150142857Y-128785714D01*
X150142857Y-129119047D01*
X150095238Y-129309523D01*
X150000000Y-129404761D01*
X149904761Y-129452380D01*
X149714285Y-129452380D01*
X151285714Y-128547619D02*
X151333333Y-128500000D01*
X151428571Y-128452380D01*
X151666666Y-128452380D01*
X151761904Y-128500000D01*
X151809523Y-128547619D01*
X151857142Y-128642857D01*
X151857142Y-128738095D01*
X151809523Y-128880952D01*
X151238095Y-129452380D01*
X151857142Y-129452380D01*
X152285714Y-129452380D02*
X152285714Y-128785714D01*
X152285714Y-128880952D02*
X152333333Y-128833333D01*
X152428571Y-128785714D01*
X152571428Y-128785714D01*
X152666666Y-128833333D01*
X152714285Y-128928571D01*
X152714285Y-129452380D01*
X152714285Y-128928571D02*
X152761904Y-128833333D01*
X152857142Y-128785714D01*
X153000000Y-128785714D01*
X153095238Y-128833333D01*
X153142857Y-128928571D01*
X153142857Y-129452380D01*
X153619047Y-129452380D02*
X153619047Y-128785714D01*
X153619047Y-128880952D02*
X153666666Y-128833333D01*
X153761904Y-128785714D01*
X153904761Y-128785714D01*
X154000000Y-128833333D01*
X154047619Y-128928571D01*
X154047619Y-129452380D01*
X154047619Y-128928571D02*
X154095238Y-128833333D01*
X154190476Y-128785714D01*
X154333333Y-128785714D01*
X154428571Y-128833333D01*
X154476190Y-128928571D01*
X154476190Y-129452380D01*
X152000000Y-125000000D02*
X152000000Y-128000000D01*
X141333333Y-142852380D02*
X141142857Y-142852380D01*
X141047619Y-142900000D01*
X141000000Y-142947619D01*
X140904761Y-143090476D01*
X140857142Y-143280952D01*
X140857142Y-143661904D01*
X140904761Y-143757142D01*
X140952380Y-143804761D01*
X141047619Y-143852380D01*
X141238095Y-143852380D01*
X141333333Y-143804761D01*
X141380952Y-143757142D01*
X141428571Y-143661904D01*
X141428571Y-143423809D01*
X141380952Y-143328571D01*
X141333333Y-143280952D01*
X141238095Y-143233333D01*
X141047619Y-143233333D01*
X140952380Y-143280952D01*
X140904761Y-143328571D01*
X140857142Y-143423809D01*
X142047619Y-142852380D02*
X142142857Y-142852380D01*
X142238095Y-142900000D01*
X142285714Y-142947619D01*
X142333333Y-143042857D01*
X142380952Y-143233333D01*
X142380952Y-143471428D01*
X142333333Y-143661904D01*
X142285714Y-143757142D01*
X142238095Y-143804761D01*
X142142857Y-143852380D01*
X142047619Y-143852380D01*
X141952380Y-143804761D01*
X141904761Y-143757142D01*
X141857142Y-143661904D01*
X141809523Y-143471428D01*
X141809523Y-143233333D01*
X141857142Y-143042857D01*
X141904761Y-142947619D01*
X141952380Y-142900000D01*
X142047619Y-142852380D01*
X142857142Y-143804761D02*
X142857142Y-143852380D01*
X142809523Y-143947619D01*
X142761904Y-143995238D01*
X143476190Y-142852380D02*
X143571428Y-142852380D01*
X143666666Y-142900000D01*
X143714285Y-142947619D01*
X143761904Y-143042857D01*
X143809523Y-143233333D01*
X143809523Y-143471428D01*
X143761904Y-143661904D01*
X143714285Y-143757142D01*
X143666666Y-143804761D01*
X143571428Y-143852380D01*
X143476190Y-143852380D01*
X143380952Y-143804761D01*
X143333333Y-143757142D01*
X143285714Y-143661904D01*
X143238095Y-143471428D01*
X143238095Y-143233333D01*
X143285714Y-143042857D01*
X143333333Y-142947619D01*
X143380952Y-142900000D01*
X143476190Y-142852380D01*
X144428571Y-142852380D02*
X144523809Y-142852380D01*
X144619047Y-142900000D01*
X144666666Y-142947619D01*
X144714285Y-143042857D01*
X144761904Y-143233333D01*
X144761904Y-143471428D01*
X144714285Y-143661904D01*
X144666666Y-143757142D01*
X144619047Y-143804761D01*
X144523809Y-143852380D01*
X144428571Y-143852380D01*
X144333333Y-143804761D01*
X144285714Y-143757142D01*
X144238095Y-143661904D01*
X144190476Y-143471428D01*
X144190476Y-143233333D01*
X144238095Y-143042857D01*
X144285714Y-142947619D01*
X144333333Y-142900000D01*
X144428571Y-142852380D01*
X145380952Y-142852380D02*
X145476190Y-142852380D01*
X145571428Y-142900000D01*
X145619047Y-142947619D01*
X145666666Y-143042857D01*
X145714285Y-143233333D01*
X145714285Y-143471428D01*
X145666666Y-143661904D01*
X145619047Y-143757142D01*
X145571428Y-143804761D01*
X145476190Y-143852380D01*
X145380952Y-143852380D01*
X145285714Y-143804761D01*
X145238095Y-143757142D01*
X145190476Y-143661904D01*
X145142857Y-143471428D01*
X145142857Y-143233333D01*
X145190476Y-143042857D01*
X145238095Y-142947619D01*
X145285714Y-142900000D01*
X145380952Y-142852380D01*
X146904761Y-143852380D02*
X146904761Y-143185714D01*
X146904761Y-143280952D02*
X146952380Y-143233333D01*
X147047619Y-143185714D01*
X147190476Y-143185714D01*
X147285714Y-143233333D01*
X147333333Y-143328571D01*
X147333333Y-143852380D01*
X147333333Y-143328571D02*
X147380952Y-143233333D01*
X147476190Y-143185714D01*
X147619047Y-143185714D01*
X147714285Y-143233333D01*
X147761904Y-143328571D01*
X147761904Y-143852380D01*
X148238095Y-143852380D02*
X148238095Y-143185714D01*
X148238095Y-143280952D02*
X148285714Y-143233333D01*
X148380952Y-143185714D01*
X148523809Y-143185714D01*
X148619047Y-143233333D01*
X148666666Y-143328571D01*
X148666666Y-143852380D01*
X148666666Y-143328571D02*
X148714285Y-143233333D01*
X148809523Y-143185714D01*
X148952380Y-143185714D01*
X149047619Y-143233333D01*
X149095238Y-143328571D01*
X149095238Y-143852380D01*
X115000000Y-142500000D02*
X175000000Y-142500000D01*
X115000000Y-95000000D02*
X115000000Y-144300000D01*
X175000000Y-95000000D02*
X175000000Y-144300000D01*
X175000000Y-142500000D02*
X173873496Y-143086421D01*
X175000000Y-142500000D02*
X173873496Y-141913579D01*
X115000000Y-142500000D02*
X116126504Y-143086421D01*
X115000000Y-142500000D02*
X116126504Y-141913579D01*
X137285714Y-126220879D02*
X137333333Y-126173260D01*
X137428571Y-126125640D01*
X137666666Y-126125640D01*
X137761904Y-126173260D01*
X137809523Y-126220879D01*
X137857142Y-126316117D01*
X137857142Y-126411355D01*
X137809523Y-126554212D01*
X137238095Y-127125640D01*
X137857142Y-127125640D01*
X138333333Y-127078021D02*
X138333333Y-127125640D01*
X138285714Y-127220879D01*
X138238095Y-127268498D01*
X138952380Y-126125640D02*
X139047619Y-126125640D01*
X139142857Y-126173260D01*
X139190476Y-126220879D01*
X139238095Y-126316117D01*
X139285714Y-126506593D01*
X139285714Y-126744688D01*
X139238095Y-126935164D01*
X139190476Y-127030402D01*
X139142857Y-127078021D01*
X139047619Y-127125640D01*
X138952380Y-127125640D01*
X138857142Y-127078021D01*
X138809523Y-127030402D01*
X138761904Y-126935164D01*
X138714285Y-126744688D01*
X138714285Y-126506593D01*
X138761904Y-126316117D01*
X138809523Y-126220879D01*
X138857142Y-126173260D01*
X138952380Y-126125640D01*
X140476190Y-127125640D02*
X140476190Y-126458974D01*
X140476190Y-126554212D02*
X140523809Y-126506593D01*
X140619047Y-126458974D01*
X140761904Y-126458974D01*
X140857142Y-126506593D01*
X140904761Y-126601831D01*
X140904761Y-127125640D01*
X140904761Y-126601831D02*
X140952380Y-126506593D01*
X141047619Y-126458974D01*
X141190476Y-126458974D01*
X141285714Y-126506593D01*
X141333333Y-126601831D01*
X141333333Y-127125640D01*
X141809523Y-127125640D02*
X141809523Y-126458974D01*
X141809523Y-126554212D02*
X141857142Y-126506593D01*
X141952380Y-126458974D01*
X142095238Y-126458974D01*
X142190476Y-126506593D01*
X142238095Y-126601831D01*
X142238095Y-127125640D01*
X142238095Y-126601831D02*
X142285714Y-126506593D01*
X142380952Y-126458974D01*
X142523809Y-126458974D01*
X142619047Y-126506593D01*
X142666666Y-126601831D01*
X142666666Y-127125640D01*
X139000000Y-125323260D02*
X141000000Y-125323260D01*
X139000000Y-124250000D02*
X139000000Y-128023260D01*
X141000000Y-124250000D02*
X141000000Y-128023260D01*
X141000000Y-125323260D02*
X139873496Y-125909681D01*
X141000000Y-125323260D02*
X139873496Y-124736839D01*
X139000000Y-125323260D02*
X140126504Y-125909681D01*
X139000000Y-125323260D02*
X140126504Y-124736839D01*
X180552380Y-98666666D02*
X180552380Y-98857142D01*
X180600000Y-98952380D01*
X180647619Y-99000000D01*
X180790476Y-99095238D01*
X180980952Y-99142857D01*
X181361904Y-99142857D01*
X181457142Y-99095238D01*
X181504761Y-99047619D01*
X181552380Y-98952380D01*
X181552380Y-98761904D01*
X181504761Y-98666666D01*
X181457142Y-98619047D01*
X181361904Y-98571428D01*
X181123809Y-98571428D01*
X181028571Y-98619047D01*
X180980952Y-98666666D01*
X180933333Y-98761904D01*
X180933333Y-98952380D01*
X180980952Y-99047619D01*
X181028571Y-99095238D01*
X181123809Y-99142857D01*
X180552380Y-97952380D02*
X180552380Y-97857142D01*
X180600000Y-97761904D01*
X180647619Y-97714285D01*
X180742857Y-97666666D01*
X180933333Y-97619047D01*
X181171428Y-97619047D01*
X181361904Y-97666666D01*
X181457142Y-97714285D01*
X181504761Y-97761904D01*
X181552380Y-97857142D01*
X181552380Y-97952380D01*
X181504761Y-98047619D01*
X181457142Y-98095238D01*
X181361904Y-98142857D01*
X181171428Y-98190476D01*
X180933333Y-98190476D01*
X180742857Y-98142857D01*
X180647619Y-98095238D01*
X180600000Y-98047619D01*
X180552380Y-97952380D01*
X181504761Y-97142857D02*
X181552380Y-97142857D01*
X181647619Y-97190476D01*
X181695238Y-97238095D01*
X180552380Y-96523809D02*
X180552380Y-96428571D01*
X180600000Y-96333333D01*
X180647619Y-96285714D01*
X180742857Y-96238095D01*
X180933333Y-96190476D01*
X181171428Y-96190476D01*
X181361904Y-96238095D01*
X181457142Y-96285714D01*
X181504761Y-96333333D01*
X181552380Y-96428571D01*
X181552380Y-96523809D01*
X181504761Y-96619047D01*
X181457142Y-96666666D01*
X181361904Y-96714285D01*
X181171428Y-96761904D01*
X180933333Y-96761904D01*
X180742857Y-96714285D01*
X180647619Y-96666666D01*
X180600000Y-96619047D01*
X180552380Y-96523809D01*
X180552380Y-95571428D02*
X180552380Y-95476190D01*
X180600000Y-95380952D01*
X180647619Y-95333333D01*
X180742857Y-95285714D01*
X180933333Y-95238095D01*
X181171428Y-95238095D01*
X181361904Y-95285714D01*
X181457142Y-95333333D01*
X181504761Y-95380952D01*
X181552380Y-95476190D01*
X181552380Y-95571428D01*
X181504761Y-95666666D01*
X181457142Y-95714285D01*
X181361904Y-95761904D01*
X181171428Y-95809523D01*
X180933333Y-95809523D01*
X180742857Y-95761904D01*
X180647619Y-95714285D01*
X180600000Y-95666666D01*
X180552380Y-95571428D01*
X180552380Y-94619047D02*
X180552380Y-94523809D01*
X180600000Y-94428571D01*
X180647619Y-94380952D01*
X180742857Y-94333333D01*
X180933333Y-94285714D01*
X181171428Y-94285714D01*
X181361904Y-94333333D01*
X181457142Y-94380952D01*
X181504761Y-94428571D01*
X181552380Y-94523809D01*
X181552380Y-94619047D01*
X181504761Y-94714285D01*
X181457142Y-94761904D01*
X181361904Y-94809523D01*
X181171428Y-94857142D01*
X180933333Y-94857142D01*
X180742857Y-94809523D01*
X180647619Y-94761904D01*
X180600000Y-94714285D01*
X180552380Y-94619047D01*
X181552380Y-93095238D02*
X180885714Y-93095238D01*
X180980952Y-93095238D02*
X180933333Y-93047619D01*
X180885714Y-92952380D01*
X180885714Y-92809523D01*
X180933333Y-92714285D01*
X181028571Y-92666666D01*
X181552380Y-92666666D01*
X181028571Y-92666666D02*
X180933333Y-92619047D01*
X180885714Y-92523809D01*
X180885714Y-92380952D01*
X180933333Y-92285714D01*
X181028571Y-92238095D01*
X181552380Y-92238095D01*
X181552380Y-91761904D02*
X180885714Y-91761904D01*
X180980952Y-91761904D02*
X180933333Y-91714285D01*
X180885714Y-91619047D01*
X180885714Y-91476190D01*
X180933333Y-91380952D01*
X181028571Y-91333333D01*
X181552380Y-91333333D01*
X181028571Y-91333333D02*
X180933333Y-91285714D01*
X180885714Y-91190476D01*
X180885714Y-91047619D01*
X180933333Y-90952380D01*
X181028571Y-90904761D01*
X181552380Y-90904761D01*
X179750000Y-125000000D02*
X179750000Y-65000000D01*
X170000000Y-125000000D02*
X182450000Y-125000000D01*
X170000000Y-65000000D02*
X182450000Y-65000000D01*
X179750000Y-65000000D02*
X180336421Y-66126504D01*
X179750000Y-65000000D02*
X179163579Y-66126504D01*
X179750000Y-125000000D02*
X180336421Y-123873496D01*
X179750000Y-125000000D02*
X179163579Y-123873496D01*
X184000000Y-130000000D02*
X184000000Y-60000000D01*
X180000000Y-56000000D02*
X110000000Y-56000000D01*
X106000000Y-130000000D02*
X106000000Y-60000000D01*
X180000000Y-134000000D02*
X110000000Y-134000000D01*
X106000000Y-130000000D02*
G75*
G03X110000000Y-134000000I4000000J0D01*
G01*
X180000000Y-134000000D02*
G75*
G03X184000000Y-130000000I0J4000000D01*
G01*
X184000000Y-60000000D02*
G75*
G03X180000000Y-56000000I-4000000J0D01*
G01*
X110000000Y-56000000D02*
G75*
G03X106000000Y-60000000I0J-4000000D01*
G01*
X105000000Y-130000000D02*
X105000000Y-60000000D01*
X105000000Y-130000000D02*
G75*
G03X110000000Y-135000000I5000000J0D01*
G01*
X110000000Y-55000000D02*
G75*
G03X105000000Y-60000000I0J-5000000D01*
G01*
X180000000Y-55000000D02*
X110000000Y-55000000D01*
X185000000Y-60000000D02*
G75*
G03X180000000Y-55000000I-5000000J0D01*
G01*
X185000000Y-130000000D02*
X185000000Y-60000000D01*
X180000000Y-135000000D02*
G75*
G03X185000000Y-130000000I0J5000000D01*
G01*
X180000000Y-135000000D02*
X110000000Y-135000000D01*
X147500000Y-65000000D02*
G75*
G03X147500000Y-65000000I-2500000J0D01*
G01*
X147500000Y-125000000D02*
G75*
G03X147500000Y-125000000I-2500000J0D01*
G01*
X177500000Y-95000000D02*
G75*
G03X177500000Y-95000000I-2500000J0D01*
G01*
X117500000Y-95000000D02*
G75*
G03X117500000Y-95000000I-2500000J0D01*
G01*
X175000000Y-95000000D02*
G75*
G03X175000000Y-95000000I-30000000J0D01*
G01*
X141380952Y-140352380D02*
X140904761Y-140352380D01*
X140857142Y-140828571D01*
X140904761Y-140780952D01*
X141000000Y-140733333D01*
X141238095Y-140733333D01*
X141333333Y-140780952D01*
X141380952Y-140828571D01*
X141428571Y-140923809D01*
X141428571Y-141161904D01*
X141380952Y-141257142D01*
X141333333Y-141304761D01*
X141238095Y-141352380D01*
X141000000Y-141352380D01*
X140904761Y-141304761D01*
X140857142Y-141257142D01*
X142047619Y-140352380D02*
X142142857Y-140352380D01*
X142238095Y-140400000D01*
X142285714Y-140447619D01*
X142333333Y-140542857D01*
X142380952Y-140733333D01*
X142380952Y-140971428D01*
X142333333Y-141161904D01*
X142285714Y-141257142D01*
X142238095Y-141304761D01*
X142142857Y-141352380D01*
X142047619Y-141352380D01*
X141952380Y-141304761D01*
X141904761Y-141257142D01*
X141857142Y-141161904D01*
X141809523Y-140971428D01*
X141809523Y-140733333D01*
X141857142Y-140542857D01*
X141904761Y-140447619D01*
X141952380Y-140400000D01*
X142047619Y-140352380D01*
X142857142Y-141304761D02*
X142857142Y-141352380D01*
X142809523Y-141447619D01*
X142761904Y-141495238D01*
X143476190Y-140352380D02*
X143571428Y-140352380D01*
X143666666Y-140400000D01*
X143714285Y-140447619D01*
X143761904Y-140542857D01*
X143809523Y-140733333D01*
X143809523Y-140971428D01*
X143761904Y-141161904D01*
X143714285Y-141257142D01*
X143666666Y-141304761D01*
X143571428Y-141352380D01*
X143476190Y-141352380D01*
X143380952Y-141304761D01*
X143333333Y-141257142D01*
X143285714Y-141161904D01*
X143238095Y-140971428D01*
X143238095Y-140733333D01*
X143285714Y-140542857D01*
X143333333Y-140447619D01*
X143380952Y-140400000D01*
X143476190Y-140352380D01*
X144428571Y-140352380D02*
X144523809Y-140352380D01*
X144619047Y-140400000D01*
X144666666Y-140447619D01*
X144714285Y-140542857D01*
X144761904Y-140733333D01*
X144761904Y-140971428D01*
X144714285Y-141161904D01*
X144666666Y-141257142D01*
X144619047Y-141304761D01*
X144523809Y-141352380D01*
X144428571Y-141352380D01*
X144333333Y-141304761D01*
X144285714Y-141257142D01*
X144238095Y-141161904D01*
X144190476Y-140971428D01*
X144190476Y-140733333D01*
X144238095Y-140542857D01*
X144285714Y-140447619D01*
X144333333Y-140400000D01*
X144428571Y-140352380D01*
X145380952Y-140352380D02*
X145476190Y-140352380D01*
X145571428Y-140400000D01*
X145619047Y-140447619D01*
X145666666Y-140542857D01*
X145714285Y-140733333D01*
X145714285Y-140971428D01*
X145666666Y-141161904D01*
X145619047Y-141257142D01*
X145571428Y-141304761D01*
X145476190Y-141352380D01*
X145380952Y-141352380D01*
X145285714Y-141304761D01*
X145238095Y-141257142D01*
X145190476Y-141161904D01*
X145142857Y-140971428D01*
X145142857Y-140733333D01*
X145190476Y-140542857D01*
X145238095Y-140447619D01*
X145285714Y-140400000D01*
X145380952Y-140352380D01*
X146904761Y-141352380D02*
X146904761Y-140685714D01*
X146904761Y-140780952D02*
X146952380Y-140733333D01*
X147047619Y-140685714D01*
X147190476Y-140685714D01*
X147285714Y-140733333D01*
X147333333Y-140828571D01*
X147333333Y-141352380D01*
X147333333Y-140828571D02*
X147380952Y-140733333D01*
X147476190Y-140685714D01*
X147619047Y-140685714D01*
X147714285Y-140733333D01*
X147761904Y-140828571D01*
X147761904Y-141352380D01*
X148238095Y-141352380D02*
X148238095Y-140685714D01*
X148238095Y-140780952D02*
X148285714Y-140733333D01*
X148380952Y-140685714D01*
X148523809Y-140685714D01*
X148619047Y-140733333D01*
X148666666Y-140828571D01*
X148666666Y-141352380D01*
X148666666Y-140828571D02*
X148714285Y-140733333D01*
X148809523Y-140685714D01*
X148952380Y-140685714D01*
X149047619Y-140733333D01*
X149095238Y-140828571D01*
X149095238Y-141352380D01*
X120000000Y-140000000D02*
X170000000Y-140000000D01*
X120000000Y-125000000D02*
X120000000Y-141800000D01*
X170000000Y-125000000D02*
X170000000Y-141800000D01*
X170000000Y-140000000D02*
X168873496Y-140586421D01*
X170000000Y-140000000D02*
X168873496Y-139413579D01*
X120000000Y-140000000D02*
X121126504Y-140586421D01*
X120000000Y-140000000D02*
X121126504Y-139413579D01*
M02*
