G04 #@! TF.GenerationSoftware,KiCad,Pcbnew,no-vcs-found-7433~57~ubuntu16.10.1*
G04 #@! TF.CreationDate,2017-01-10T21:31:49+01:00*
G04 #@! TF.ProjectId,can-node,63616E2D6E6F64652E6B696361645F70,rev?*
G04 #@! TF.FileFunction,Copper,L2,Bot,Signal*
G04 #@! TF.FilePolarity,Positive*
%FSLAX46Y46*%
G04 Gerber Fmt 4.6, Leading zero omitted, Abs format (unit mm)*
G04 Created by KiCad (PCBNEW no-vcs-found-7433~57~ubuntu16.10.1) date Tue Jan 10 21:31:49 2017*
%MOMM*%
%LPD*%
G01*
G04 APERTURE LIST*
%ADD10C,0.100000*%
%ADD11C,1.500000*%
%ADD12R,3.000000X1.500000*%
%ADD13C,1.000000*%
%ADD14R,1.600000X2.500000*%
%ADD15C,0.600000*%
%ADD16R,0.750000X0.800000*%
%ADD17R,0.900000X0.800000*%
%ADD18R,0.800000X0.900000*%
%ADD19R,0.400000X0.600000*%
%ADD20R,0.600000X0.400000*%
%ADD21C,1.400000*%
%ADD22C,0.250000*%
%ADD23C,0.750000*%
%ADD24C,0.500000*%
G04 APERTURE END LIST*
D10*
D11*
X136110000Y-78420000D03*
X138650000Y-78420000D03*
X141190000Y-78420000D03*
X143730000Y-78420000D03*
X148810000Y-78420000D03*
X153890000Y-78420000D03*
X153890000Y-88580000D03*
X151350000Y-88580000D03*
X148810000Y-88580000D03*
X146270000Y-88580000D03*
X143730000Y-88580000D03*
X141190000Y-88580000D03*
X138650000Y-88580000D03*
X136110000Y-88580000D03*
D12*
X160500000Y-89920000D03*
X165000000Y-91190000D03*
X160500000Y-92460000D03*
X165000000Y-93730000D03*
X160500000Y-95000000D03*
X165000000Y-96270000D03*
X160500000Y-97540000D03*
X165000000Y-98810000D03*
X160500000Y-100080000D03*
X165000000Y-101350000D03*
D13*
X128900000Y-71100000D03*
X136000000Y-73000000D03*
X157800000Y-66800000D03*
X146000000Y-67600000D03*
X146000000Y-69250000D03*
X150876000Y-108712000D03*
X149352000Y-108712000D03*
D14*
X145000000Y-122000000D03*
D15*
X145400000Y-121150000D03*
X145400000Y-122850000D03*
X145400000Y-122000000D03*
X144600000Y-121150000D03*
X144600000Y-122850000D03*
X144600000Y-122000000D03*
D16*
X153700000Y-105250000D03*
X153700000Y-103750000D03*
D17*
X130250000Y-83700000D03*
X130250000Y-81800000D03*
X132250000Y-82750000D03*
X132250000Y-79250000D03*
X130250000Y-78300000D03*
X130250000Y-80200000D03*
X130250000Y-87200000D03*
X130250000Y-85300000D03*
X132250000Y-86250000D03*
D18*
X141250000Y-83500000D03*
X142200000Y-81500000D03*
X140300000Y-81500000D03*
X145300000Y-81500000D03*
X147200000Y-81500000D03*
X146250000Y-83500000D03*
X150000000Y-80500000D03*
X149050000Y-82500000D03*
X150950000Y-82500000D03*
D17*
X133750000Y-81950000D03*
X133750000Y-80050000D03*
X135750000Y-81000000D03*
X152750000Y-83500000D03*
X154750000Y-84450000D03*
X154750000Y-82550000D03*
D18*
X134050000Y-84750000D03*
X135950000Y-84750000D03*
X135000000Y-86750000D03*
X138750000Y-86750000D03*
X139700000Y-84750000D03*
X137800000Y-84750000D03*
X148750000Y-86750000D03*
X149700000Y-84750000D03*
X147800000Y-84750000D03*
D17*
X156734000Y-83566000D03*
X158734000Y-84516000D03*
X158734000Y-82616000D03*
D18*
X142800000Y-84750000D03*
X144700000Y-84750000D03*
X143750000Y-86750000D03*
D19*
X141200000Y-80000000D03*
X140300000Y-80000000D03*
X133550000Y-78500000D03*
X134450000Y-78500000D03*
D20*
X143750000Y-79850000D03*
X143750000Y-80750000D03*
X141250000Y-86050000D03*
X141250000Y-86950000D03*
X146250000Y-86050000D03*
X146250000Y-86950000D03*
X147000000Y-78300000D03*
X147000000Y-79200000D03*
D19*
X137000000Y-80000000D03*
X137900000Y-80000000D03*
D20*
X151250000Y-86650000D03*
X151250000Y-85750000D03*
D13*
X160782000Y-79756000D03*
X152400000Y-103378000D03*
D21*
X126500000Y-91250000D03*
X126500000Y-93750000D03*
X126500000Y-96250000D03*
X126500000Y-98750000D03*
X126500000Y-101250000D03*
X126500000Y-103750000D03*
X131500000Y-91250000D03*
X131500000Y-93750000D03*
X131500000Y-96250000D03*
X131500000Y-98750000D03*
X131500000Y-101250000D03*
X131500000Y-103750000D03*
D20*
X138000000Y-110050000D03*
X138000000Y-110950000D03*
X131500000Y-111550000D03*
X131500000Y-112450000D03*
X138000000Y-106000000D03*
X138000000Y-105100000D03*
X131500000Y-107000000D03*
X131500000Y-107900000D03*
D15*
X145600000Y-70500000D03*
X136600000Y-73600000D03*
X125000000Y-83000000D03*
X121500000Y-83000000D03*
X121500000Y-101000000D03*
X152900000Y-86000000D03*
X157000000Y-88000000D03*
X168000000Y-86000000D03*
X136000000Y-76000000D03*
X145000000Y-66000000D03*
X128000000Y-66000000D03*
X136000000Y-66000000D03*
X135300000Y-97300000D03*
X135400000Y-100900000D03*
X135800000Y-94500000D03*
X139200000Y-102200000D03*
X141700000Y-101300000D03*
X164900000Y-100060002D03*
X164500000Y-108000000D03*
X157700000Y-107800000D03*
X152300000Y-105500000D03*
X156464000Y-108712000D03*
X151400000Y-113100000D03*
X144800000Y-113099992D03*
X130500000Y-111000000D03*
X130500000Y-106500000D03*
X152000000Y-109500000D03*
X158000000Y-80000000D03*
X165000000Y-80000002D03*
X144018000Y-91440000D03*
X145796000Y-93980000D03*
X148336000Y-96012000D03*
X148844000Y-90170000D03*
X153391467Y-93524635D03*
X160042957Y-113082298D03*
X169250000Y-96250000D03*
X169250000Y-105000000D03*
X167374990Y-113604093D03*
X129000000Y-85500000D03*
X129000000Y-82000000D03*
X129000000Y-78500000D03*
X147500000Y-68750000D03*
X124000000Y-72500000D03*
X145750000Y-75500000D03*
X162500000Y-66750000D03*
X165000000Y-75000000D03*
X153500000Y-75250000D03*
X156500000Y-66500000D03*
X139900000Y-85999998D03*
X137099994Y-86000000D03*
X143861784Y-104522114D03*
X159766000Y-79756000D03*
X162750000Y-91000000D03*
X157500000Y-81500000D03*
X150750000Y-84000000D03*
X144750000Y-86000000D03*
X149822807Y-94206706D03*
X144800000Y-111699996D03*
X155500000Y-109800002D03*
X166325011Y-103700000D03*
X160200000Y-106200000D03*
X152700000Y-102400000D03*
X148200000Y-100400000D03*
X135128000Y-114046000D03*
X150114000Y-114046000D03*
X162712479Y-99450868D03*
X158496000Y-93726000D03*
X148200000Y-67600000D03*
X165728755Y-107655143D03*
X130200000Y-116200000D03*
X149352000Y-109728000D03*
X150857100Y-109625002D03*
X159500000Y-98750000D03*
X162750000Y-100250000D03*
X167500000Y-96600000D03*
X150284145Y-100499940D03*
X151680213Y-101285091D03*
X150441098Y-101749998D03*
X151221892Y-97846502D03*
X153087791Y-98788105D03*
X157226000Y-93472000D03*
X157624990Y-96816949D03*
X153809212Y-100089145D03*
X154100008Y-100900000D03*
X154749990Y-108000358D03*
X156500006Y-105500000D03*
X154000000Y-102300000D03*
X156900008Y-102100000D03*
X151130000Y-104140000D03*
X122399994Y-93600000D03*
X129800000Y-71300000D03*
X130500000Y-113000000D03*
X130500000Y-108500000D03*
X154300000Y-109000000D03*
X138000000Y-108800000D03*
X144600000Y-110100000D03*
X138500000Y-112000000D03*
X138500000Y-107000000D03*
X156400000Y-107900000D03*
D22*
X145600000Y-70500000D02*
X145600000Y-69650000D01*
X145600000Y-69650000D02*
X146000000Y-69250000D01*
X136000000Y-73000000D02*
X136600000Y-73600000D01*
D23*
X121500000Y-83000000D02*
X125000000Y-83000000D01*
D24*
X123000000Y-101000000D02*
X123000000Y-105000000D01*
X123000000Y-95000000D02*
X123000000Y-101000000D01*
X123000000Y-101000000D02*
X121500000Y-101000000D01*
X145750000Y-75500000D02*
X136500000Y-75500000D01*
X136500000Y-75500000D02*
X136000000Y-76000000D01*
X145000000Y-66000000D02*
X145299999Y-65700001D01*
X145299999Y-65700001D02*
X161450001Y-65700001D01*
X162200001Y-66450001D02*
X162500000Y-66750000D01*
X161450001Y-65700001D02*
X162200001Y-66450001D01*
X128000000Y-66424264D02*
X128000000Y-66000000D01*
X128000000Y-68500000D02*
X128000000Y-66424264D01*
X124000000Y-72500000D02*
X128000000Y-68500000D01*
X136250000Y-66000000D02*
X136000000Y-66000000D01*
X145750000Y-75500000D02*
X136250000Y-66000000D01*
D22*
X135400000Y-100900000D02*
X135400000Y-97400000D01*
X135400000Y-97400000D02*
X135300000Y-97300000D01*
D24*
X126500000Y-93750000D02*
X124250000Y-93750000D01*
X124250000Y-93750000D02*
X123000000Y-95000000D01*
X123000000Y-105000000D02*
X124500000Y-106500000D01*
X124500000Y-106500000D02*
X128500000Y-106500000D01*
X164900000Y-100060002D02*
X164900000Y-101250000D01*
X164900000Y-101250000D02*
X165000000Y-101350000D01*
X169250000Y-96250000D02*
X169250000Y-101300000D01*
X169250000Y-101300000D02*
X169250000Y-105000000D01*
D22*
X165000000Y-101350000D02*
X166750000Y-101350000D01*
X166750000Y-101350000D02*
X166800000Y-101300000D01*
X166800000Y-101300000D02*
X169250000Y-101300000D01*
X160500000Y-100080000D02*
X160500000Y-101080000D01*
X160500000Y-101080000D02*
X160770000Y-101350000D01*
X160770000Y-101350000D02*
X163250000Y-101350000D01*
X163250000Y-101350000D02*
X165000000Y-101350000D01*
X167500000Y-105000000D02*
X169250000Y-105000000D01*
X164500000Y-108000000D02*
X167500000Y-105000000D01*
X157700000Y-107800000D02*
X160042957Y-110142957D01*
X160042957Y-110142957D02*
X160042957Y-113082298D01*
X153700000Y-105250000D02*
X152550000Y-105250000D01*
X152550000Y-105250000D02*
X152300000Y-105500000D01*
D24*
X144800008Y-113100000D02*
X144800000Y-113099992D01*
X151400000Y-113100000D02*
X144800008Y-113100000D01*
X131500000Y-111000000D02*
X130500000Y-111000000D01*
X131500000Y-111550000D02*
X131500000Y-111000000D01*
X131500000Y-106500000D02*
X130500000Y-106500000D01*
X131500000Y-107000000D02*
X131500000Y-106500000D01*
X128500000Y-110500000D02*
X129000000Y-111000000D01*
X129000000Y-111000000D02*
X130500000Y-111000000D01*
X128500000Y-106500000D02*
X130500000Y-106500000D01*
X128500000Y-106500000D02*
X128500000Y-110500000D01*
X165000000Y-80000002D02*
X163799998Y-78800000D01*
X163799998Y-78800000D02*
X159200000Y-78800000D01*
X158299999Y-79700001D02*
X158000000Y-80000000D01*
X159200000Y-78800000D02*
X158299999Y-79700001D01*
D22*
X145796000Y-93980000D02*
X145796000Y-93218000D01*
X145796000Y-93218000D02*
X144018000Y-91440000D01*
X148336000Y-96012000D02*
X146304000Y-93980000D01*
X146304000Y-93980000D02*
X145796000Y-93980000D01*
D24*
X153391467Y-93524635D02*
X152198635Y-93524635D01*
X152198635Y-93524635D02*
X148844000Y-90170000D01*
X160467221Y-113082298D02*
X160042957Y-113082298D01*
X167374990Y-113604093D02*
X166853195Y-113082298D01*
X166853195Y-113082298D02*
X160467221Y-113082298D01*
D22*
X130250000Y-85300000D02*
X129200000Y-85300000D01*
X129200000Y-85300000D02*
X129000000Y-85500000D01*
X130250000Y-81800000D02*
X129200000Y-81800000D01*
X129200000Y-81800000D02*
X129000000Y-82000000D01*
X130250000Y-78300000D02*
X129200000Y-78300000D01*
X129200000Y-78300000D02*
X129000000Y-78500000D01*
D24*
X153500000Y-75250000D02*
X164750000Y-75250000D01*
X164750000Y-75250000D02*
X165000000Y-75000000D01*
D22*
X156500000Y-66500000D02*
X157500000Y-66500000D01*
X157500000Y-66500000D02*
X157800000Y-66800000D01*
X139700000Y-85799998D02*
X139900000Y-85999998D01*
X139700000Y-84750000D02*
X139700000Y-85799998D01*
X137099994Y-85949994D02*
X137099994Y-86000000D01*
X135950000Y-84800000D02*
X137099994Y-85949994D01*
X135950000Y-84750000D02*
X135950000Y-84800000D01*
D24*
X150122806Y-94506705D02*
X150544583Y-94506705D01*
X150544583Y-94506705D02*
X155500000Y-99462122D01*
X149822807Y-94206706D02*
X150122806Y-94506705D01*
X155500000Y-99462122D02*
X155500000Y-109375738D01*
X143561785Y-104822113D02*
X143861784Y-104522114D01*
X142500000Y-105883898D02*
X143561785Y-104822113D01*
D22*
X160782000Y-79756000D02*
X159766000Y-79756000D01*
X158734000Y-84516000D02*
X158734000Y-88904000D01*
X158734000Y-88904000D02*
X159750000Y-89920000D01*
X159750000Y-89920000D02*
X160500000Y-89920000D01*
D24*
X162750000Y-91000000D02*
X161580000Y-91000000D01*
X161580000Y-91000000D02*
X160500000Y-89920000D01*
X162750000Y-91000000D02*
X164810000Y-91000000D01*
X164810000Y-91000000D02*
X165000000Y-91190000D01*
D22*
X153314998Y-81500000D02*
X157500000Y-81500000D01*
X150750000Y-84000000D02*
X151049999Y-83700001D01*
X151049999Y-83700001D02*
X151114997Y-83700001D01*
X151114997Y-83700001D02*
X153314998Y-81500000D01*
X150750000Y-84000000D02*
X150450000Y-84000000D01*
X150450000Y-84000000D02*
X149700000Y-84750000D01*
X144750000Y-86000000D02*
X144750000Y-84800000D01*
X144750000Y-84800000D02*
X144700000Y-84750000D01*
X139700000Y-84700000D02*
X139700000Y-84750000D01*
X138974999Y-83974999D02*
X139700000Y-84700000D01*
X135950000Y-84750000D02*
X136364998Y-84750000D01*
X136364998Y-84750000D02*
X137139999Y-83974999D01*
X137139999Y-83974999D02*
X138974999Y-83974999D01*
D24*
X155500000Y-109375738D02*
X155500000Y-109800002D01*
X142500000Y-109399996D02*
X142500000Y-105883898D01*
X144800000Y-111699996D02*
X142500000Y-109399996D01*
X153600006Y-111699996D02*
X145224264Y-111699996D01*
X155500000Y-109800002D02*
X153600006Y-111699996D01*
X145224264Y-111699996D02*
X144800000Y-111699996D01*
D22*
X165900747Y-103700000D02*
X166325011Y-103700000D01*
X160200000Y-106200000D02*
X162700000Y-103700000D01*
X162700000Y-103700000D02*
X165900747Y-103700000D01*
X153300000Y-102400000D02*
X153300000Y-102700000D01*
X153300000Y-101900000D02*
X153300000Y-102400000D01*
X153300000Y-102400000D02*
X152700000Y-102400000D01*
X153300000Y-102700000D02*
X153700000Y-103100000D01*
X153700000Y-103100000D02*
X153700000Y-103750000D01*
X151274939Y-99874939D02*
X153300000Y-101900000D01*
X149984144Y-99874939D02*
X151274939Y-99874939D01*
X148624264Y-100400000D02*
X149124264Y-99900000D01*
X149124264Y-99900000D02*
X149959083Y-99900000D01*
X149959083Y-99900000D02*
X149984144Y-99874939D01*
X148200000Y-100400000D02*
X148624264Y-100400000D01*
X150114000Y-114046000D02*
X135128000Y-114046000D01*
X162712479Y-96917477D02*
X162712479Y-99026604D01*
X157870999Y-95206001D02*
X159129997Y-96464999D01*
X157870999Y-93339001D02*
X157870999Y-95206001D01*
X160500000Y-92460000D02*
X158750000Y-92460000D01*
X158750000Y-92460000D02*
X157870999Y-93339001D01*
X159129997Y-96464999D02*
X162260001Y-96464999D01*
X162260001Y-96464999D02*
X162712479Y-96917477D01*
X162712479Y-99026604D02*
X162712479Y-99450868D01*
X158500000Y-93730000D02*
X158496000Y-93726000D01*
X165000000Y-93730000D02*
X158500000Y-93730000D01*
X146000000Y-67600000D02*
X148200000Y-67600000D01*
X130200000Y-116200000D02*
X131500000Y-114900000D01*
X131500000Y-114900000D02*
X168100000Y-114900000D01*
X168100000Y-114900000D02*
X169200000Y-113800000D01*
X169200000Y-113800000D02*
X169200000Y-111126388D01*
X169200000Y-111126388D02*
X166028754Y-107955142D01*
X166028754Y-107955142D02*
X165728755Y-107655143D01*
X149352000Y-109728000D02*
X149352000Y-108712000D01*
X150876000Y-109606102D02*
X150857100Y-109625002D01*
X150876000Y-108712000D02*
X150876000Y-109606102D01*
X159500000Y-98750000D02*
X159500000Y-98540000D01*
X159500000Y-98540000D02*
X160500000Y-97540000D01*
X162810000Y-100250000D02*
X162750000Y-100250000D01*
X164250000Y-98810000D02*
X162810000Y-100250000D01*
X165000000Y-98810000D02*
X164250000Y-98810000D01*
X167500000Y-96600000D02*
X167500000Y-95934998D01*
X166565002Y-95000000D02*
X162250000Y-95000000D01*
X167500000Y-95934998D02*
X166565002Y-95000000D01*
X162250000Y-95000000D02*
X160500000Y-95000000D01*
X136110000Y-88580000D02*
X136110000Y-87860000D01*
X136110000Y-87860000D02*
X135000000Y-86750000D01*
X138750000Y-86750000D02*
X138750000Y-88480000D01*
X138750000Y-88480000D02*
X138650000Y-88580000D01*
X141250000Y-86950000D02*
X141250000Y-88520000D01*
X141250000Y-88520000D02*
X141190000Y-88580000D01*
X143750000Y-86750000D02*
X143750000Y-88560000D01*
X143750000Y-88560000D02*
X143730000Y-88580000D01*
X146250000Y-86950000D02*
X146250000Y-88560000D01*
X146250000Y-88560000D02*
X146270000Y-88580000D01*
X148750000Y-86750000D02*
X148750000Y-88520000D01*
X148750000Y-88520000D02*
X148810000Y-88580000D01*
X151250000Y-86650000D02*
X151250000Y-88480000D01*
X151250000Y-88480000D02*
X151350000Y-88580000D01*
X153890000Y-88580000D02*
X156734000Y-85736000D01*
X156734000Y-85736000D02*
X156734000Y-83566000D01*
X147000000Y-78300000D02*
X148690000Y-78300000D01*
X148690000Y-78300000D02*
X148810000Y-78420000D01*
X143750000Y-79850000D02*
X143750000Y-78440000D01*
X143750000Y-78440000D02*
X143730000Y-78420000D01*
X141200000Y-80000000D02*
X141200000Y-78430000D01*
X141200000Y-78430000D02*
X141190000Y-78420000D01*
X137900000Y-80000000D02*
X137900000Y-79170000D01*
X137900000Y-79170000D02*
X138650000Y-78420000D01*
X134450000Y-78500000D02*
X136030000Y-78500000D01*
X136030000Y-78500000D02*
X136110000Y-78420000D01*
X133039999Y-81224999D02*
X132250000Y-82014998D01*
X132250000Y-82100000D02*
X132250000Y-82750000D01*
X134960003Y-81725001D02*
X134460001Y-81224999D01*
X140300000Y-80000000D02*
X139850000Y-80000000D01*
X139850000Y-80000000D02*
X138124999Y-81725001D01*
X138124999Y-81725001D02*
X134960003Y-81725001D01*
X134460001Y-81224999D02*
X133039999Y-81224999D01*
X132250000Y-82014998D02*
X132250000Y-82100000D01*
X132250000Y-85600000D02*
X132250000Y-86250000D01*
X133565009Y-83799989D02*
X132250000Y-85114998D01*
X136953599Y-83524988D02*
X136678599Y-83799989D01*
X136961423Y-83524988D02*
X136953599Y-83524988D01*
X132250000Y-85114998D02*
X132250000Y-85600000D01*
X143174999Y-80724999D02*
X139761412Y-80724999D01*
X139761412Y-80724999D02*
X136961423Y-83524988D01*
X143200000Y-80750000D02*
X143174999Y-80724999D01*
X136678599Y-83799989D02*
X133565009Y-83799989D01*
X143750000Y-80750000D02*
X143200000Y-80750000D01*
X146250000Y-83500000D02*
X146250000Y-84200000D01*
X146250000Y-84200000D02*
X146250000Y-86050000D01*
X135750000Y-81000000D02*
X136000000Y-81000000D01*
X136000000Y-81000000D02*
X137000000Y-80000000D01*
X151055211Y-101585093D02*
X151055211Y-101271006D01*
X128374999Y-84875001D02*
X128374999Y-86760001D01*
X151055211Y-101271006D02*
X150284145Y-100499940D01*
X151300001Y-101829883D02*
X151055211Y-101585093D01*
X151300001Y-102375001D02*
X151300001Y-101829883D01*
X146302181Y-102375001D02*
X151300001Y-102375001D01*
X131977169Y-88049989D02*
X146302181Y-102375001D01*
X128374999Y-86760001D02*
X129664987Y-88049989D01*
X129550000Y-83700000D02*
X128374999Y-84875001D01*
X129664987Y-88049989D02*
X131977169Y-88049989D01*
X130250000Y-83700000D02*
X129550000Y-83700000D01*
X151980212Y-102331201D02*
X151980212Y-101585090D01*
X151486401Y-102825012D02*
X151980212Y-102331201D01*
X131790770Y-88500000D02*
X146115782Y-102825012D01*
X127924988Y-86946401D02*
X129478587Y-88500000D01*
X127924988Y-81825012D02*
X127924988Y-86946401D01*
X129550000Y-80200000D02*
X127924988Y-81825012D01*
X129478587Y-88500000D02*
X131790770Y-88500000D01*
X151980212Y-101585090D02*
X151680213Y-101285091D01*
X146115782Y-102825012D02*
X151486401Y-102825012D01*
X130250000Y-80200000D02*
X129550000Y-80200000D01*
X130250000Y-87200000D02*
X130950000Y-87200000D01*
X150016834Y-101749998D02*
X150441098Y-101749998D01*
X132163568Y-87599978D02*
X146313588Y-101749998D01*
X130950000Y-87200000D02*
X131349978Y-87599978D01*
X131349978Y-87599978D02*
X132163568Y-87599978D01*
X146313588Y-101749998D02*
X150016834Y-101749998D01*
X140114999Y-86885001D02*
X140114999Y-91864999D01*
X140300000Y-81500000D02*
X140300000Y-83985002D01*
X140300000Y-83985002D02*
X140525005Y-84210007D01*
X140525005Y-84210007D02*
X140525005Y-86474995D01*
X140525005Y-86474995D02*
X140114999Y-86885001D01*
X140114999Y-91864999D02*
X146096502Y-97846502D01*
X146096502Y-97846502D02*
X150797628Y-97846502D01*
X150797628Y-97846502D02*
X151221892Y-97846502D01*
X144250000Y-90250000D02*
X151221500Y-97221500D01*
X142500000Y-90250000D02*
X144250000Y-90250000D01*
X142800000Y-84750000D02*
X142800000Y-87700000D01*
X142500000Y-88000000D02*
X142500000Y-90250000D01*
X151221500Y-97221500D02*
X151521186Y-97221500D01*
X151521186Y-97221500D02*
X153087791Y-98788105D01*
X142800000Y-87700000D02*
X142500000Y-88000000D01*
X158734000Y-82616000D02*
X158684000Y-82616000D01*
X158684000Y-82616000D02*
X157958999Y-83341001D01*
X157958999Y-83341001D02*
X157958999Y-92314737D01*
X157226000Y-93047736D02*
X157226000Y-93472000D01*
X157958999Y-92314737D02*
X157226000Y-93047736D01*
X149885001Y-89076960D02*
X157324991Y-96516950D01*
X149885001Y-86449999D02*
X149885001Y-89076960D01*
X148885002Y-85450000D02*
X149885001Y-86449999D01*
X147800000Y-84800000D02*
X148450000Y-85450000D01*
X147800000Y-84750000D02*
X147800000Y-84800000D01*
X148450000Y-85450000D02*
X148885002Y-85450000D01*
X157324991Y-96516950D02*
X157624990Y-96816949D01*
X151134139Y-98524906D02*
X151834139Y-98524906D01*
X146063557Y-98449967D02*
X151059200Y-98449967D01*
X137574999Y-89961409D02*
X146063557Y-98449967D01*
X151834139Y-98524906D02*
X153098379Y-99789146D01*
X137800000Y-84750000D02*
X137800000Y-87838998D01*
X137800000Y-87838998D02*
X137574999Y-88063999D01*
X153098379Y-99789146D02*
X153509213Y-99789146D01*
X153509213Y-99789146D02*
X153809212Y-100089145D01*
X137574999Y-88063999D02*
X137574999Y-89961409D01*
X151059200Y-98449967D02*
X151134139Y-98524906D01*
X151647739Y-98974917D02*
X153572822Y-100900000D01*
X150947739Y-98974917D02*
X151647739Y-98974917D01*
X153675744Y-100900000D02*
X154100008Y-100900000D01*
X150872800Y-98899978D02*
X150947739Y-98974917D01*
X134050000Y-84750000D02*
X134050000Y-88077179D01*
X144872799Y-98899978D02*
X150872800Y-98899978D01*
X153572822Y-100900000D02*
X153675744Y-100900000D01*
X134050000Y-88077179D02*
X144872799Y-98899978D01*
X151996179Y-96771489D02*
X154749990Y-99525300D01*
X145300000Y-81500000D02*
X145300000Y-83985002D01*
X145194999Y-90503902D02*
X151462586Y-96771489D01*
X154749990Y-107576094D02*
X154749990Y-108000358D01*
X145194999Y-87840001D02*
X145194999Y-90503902D01*
X154749990Y-99525300D02*
X154749990Y-107576094D01*
X145624999Y-87410001D02*
X145194999Y-87840001D01*
X145624999Y-84310001D02*
X145624999Y-87410001D01*
X151462586Y-96771489D02*
X151996179Y-96771489D01*
X145300000Y-83985002D02*
X145624999Y-84310001D01*
X147139999Y-83974999D02*
X147000000Y-84114998D01*
X147734999Y-88453997D02*
X147734999Y-90883933D01*
X156200007Y-105200001D02*
X156500006Y-105500000D01*
X150950000Y-82500000D02*
X150950000Y-82550000D01*
X147000000Y-84114998D02*
X147000000Y-87718998D01*
X150950000Y-82550000D02*
X149525001Y-83974999D01*
X149525001Y-83974999D02*
X147139999Y-83974999D01*
X147000000Y-87718998D02*
X147734999Y-88453997D01*
X147734999Y-90883933D02*
X156200007Y-99348941D01*
X156200007Y-99348941D02*
X156200007Y-105200001D01*
X131474999Y-84875001D02*
X131474999Y-86910000D01*
X131714965Y-87149967D02*
X132349967Y-87149967D01*
X131474999Y-86910000D02*
X131714965Y-87149967D01*
X150761339Y-99424928D02*
X151461339Y-99424928D01*
X151461339Y-99424928D02*
X154000000Y-101963589D01*
X133750000Y-82600000D02*
X131474999Y-84875001D01*
X132349967Y-87149967D02*
X144549989Y-99349989D01*
X133750000Y-81950000D02*
X133750000Y-82600000D01*
X144549989Y-99349989D02*
X150686400Y-99349989D01*
X150686400Y-99349989D02*
X150761339Y-99424928D01*
X154000000Y-101963589D02*
X154000000Y-102300000D01*
X158250000Y-100750008D02*
X157200007Y-101800001D01*
X153974999Y-86903999D02*
X152814999Y-88063999D01*
X153974999Y-83275001D02*
X153974999Y-86903999D01*
X154700000Y-82550000D02*
X153974999Y-83275001D01*
X154750000Y-82550000D02*
X154700000Y-82550000D01*
X152814999Y-91064999D02*
X158250000Y-96500000D01*
X158250000Y-96500000D02*
X158250000Y-100750008D01*
X157200007Y-101800001D02*
X156900008Y-102100000D01*
X152814999Y-88063999D02*
X152814999Y-91064999D01*
X152400000Y-103378000D02*
X151892000Y-103378000D01*
X151892000Y-103378000D02*
X151130000Y-104140000D01*
X133550000Y-78500000D02*
X133000000Y-78500000D01*
X133000000Y-78500000D02*
X132250000Y-79250000D01*
X141250000Y-86050000D02*
X141250000Y-83500000D01*
X147000000Y-79650000D02*
X147000000Y-79200000D01*
X150000000Y-80500000D02*
X147850000Y-80500000D01*
X147850000Y-80500000D02*
X147000000Y-79650000D01*
X151250000Y-85750000D02*
X151250000Y-84950000D01*
X151250000Y-84950000D02*
X152700000Y-83500000D01*
X152700000Y-83500000D02*
X152750000Y-83500000D01*
D24*
X122699993Y-93300001D02*
X122399994Y-93600000D01*
X124749994Y-91250000D02*
X122699993Y-93300001D01*
X126500000Y-91250000D02*
X124749994Y-91250000D01*
D22*
X129800000Y-71300000D02*
X129100000Y-71300000D01*
X129100000Y-71300000D02*
X128900000Y-71100000D01*
X130500000Y-113000000D02*
X130950000Y-113000000D01*
X130950000Y-113000000D02*
X131500000Y-112450000D01*
X130500000Y-108500000D02*
X130900000Y-108500000D01*
X130900000Y-108500000D02*
X131500000Y-107900000D01*
X154300000Y-109000000D02*
X152500000Y-110800000D01*
X152500000Y-110800000D02*
X145300000Y-110800000D01*
X145300000Y-110800000D02*
X144600000Y-110100000D01*
X138000000Y-108800000D02*
X138000000Y-110050000D01*
X138000000Y-110950000D02*
X138000000Y-111500000D01*
X138000000Y-111500000D02*
X138500000Y-112000000D01*
X138000000Y-106000000D02*
X138000000Y-106500000D01*
X138000000Y-106500000D02*
X138500000Y-107000000D01*
X156400000Y-107900000D02*
X156824264Y-107900000D01*
X139200000Y-105500000D02*
X138800000Y-105100000D01*
X156824264Y-107900000D02*
X157300000Y-108375736D01*
X154475003Y-112324997D02*
X144499999Y-112324997D01*
X157300000Y-108375736D02*
X157300000Y-109500000D01*
X157300000Y-109500000D02*
X154475003Y-112324997D01*
X144499999Y-112324997D02*
X144475002Y-112300000D01*
X144475002Y-112300000D02*
X143600000Y-112300000D01*
X143600000Y-112300000D02*
X139200000Y-107900000D01*
X139200000Y-107900000D02*
X139200000Y-105500000D01*
X138800000Y-105100000D02*
X138000000Y-105100000D01*
G36*
X147856828Y-77781907D02*
X147849315Y-77800000D01*
X147525999Y-77800000D01*
X147446317Y-77746758D01*
X147300000Y-77717654D01*
X146700000Y-77717654D01*
X146553683Y-77746758D01*
X146429641Y-77829641D01*
X146346758Y-77953683D01*
X146317654Y-78100000D01*
X146317654Y-78500000D01*
X146346758Y-78646317D01*
X146416037Y-78750000D01*
X146346758Y-78853683D01*
X146317654Y-79000000D01*
X146317654Y-79400000D01*
X146346758Y-79546317D01*
X146429641Y-79670359D01*
X146515455Y-79727699D01*
X146525787Y-79779641D01*
X146538060Y-79841342D01*
X146646447Y-80003553D01*
X147070998Y-80428105D01*
X147070998Y-80575248D01*
X146912750Y-80417000D01*
X146674088Y-80417000D01*
X146441434Y-80513369D01*
X146263368Y-80691435D01*
X146167000Y-80924089D01*
X146167000Y-81212750D01*
X146325250Y-81371000D01*
X147071000Y-81371000D01*
X147071000Y-81351000D01*
X147329000Y-81351000D01*
X147329000Y-81371000D01*
X148074750Y-81371000D01*
X148233000Y-81212750D01*
X148233000Y-81000000D01*
X149227600Y-81000000D01*
X149246758Y-81096317D01*
X149329641Y-81220359D01*
X149453683Y-81303242D01*
X149600000Y-81332346D01*
X150400000Y-81332346D01*
X150546317Y-81303242D01*
X150670359Y-81220359D01*
X150753242Y-81096317D01*
X150782346Y-80950000D01*
X150782346Y-80050000D01*
X150753242Y-79903683D01*
X150743884Y-79889677D01*
X159090883Y-79889677D01*
X159193429Y-80137857D01*
X159383144Y-80327903D01*
X159631145Y-80430883D01*
X159899677Y-80431117D01*
X160126163Y-80337535D01*
X160285705Y-80497356D01*
X160607188Y-80630848D01*
X160955285Y-80631151D01*
X161277000Y-80498221D01*
X161523356Y-80252295D01*
X161656848Y-79930812D01*
X161657151Y-79582715D01*
X161524221Y-79261000D01*
X161278295Y-79014644D01*
X160956812Y-78881152D01*
X160608715Y-78880849D01*
X160287000Y-79013779D01*
X160125923Y-79174574D01*
X159900855Y-79081117D01*
X159632323Y-79080883D01*
X159384143Y-79183429D01*
X159194097Y-79373144D01*
X159091117Y-79621145D01*
X159090883Y-79889677D01*
X150743884Y-79889677D01*
X150670359Y-79779641D01*
X150546317Y-79696758D01*
X150400000Y-79667654D01*
X149600000Y-79667654D01*
X149453683Y-79696758D01*
X149329641Y-79779641D01*
X149246758Y-79903683D01*
X149227600Y-80000000D01*
X148057107Y-80000000D01*
X147633287Y-79576181D01*
X147653242Y-79546317D01*
X147682346Y-79400000D01*
X147682346Y-79000000D01*
X147653242Y-78853683D01*
X147617372Y-78800000D01*
X147749761Y-78800000D01*
X147855715Y-79056429D01*
X148171907Y-79373172D01*
X148585242Y-79544804D01*
X149032795Y-79545195D01*
X149446429Y-79374285D01*
X149763172Y-79058093D01*
X149934804Y-78644758D01*
X149935195Y-78197205D01*
X149764285Y-77783571D01*
X149605990Y-77625000D01*
X153094008Y-77625000D01*
X152936828Y-77781907D01*
X152765196Y-78195242D01*
X152764805Y-78642795D01*
X152935715Y-79056429D01*
X153251907Y-79373172D01*
X153665242Y-79544804D01*
X154112795Y-79545195D01*
X154526429Y-79374285D01*
X154843172Y-79058093D01*
X155014804Y-78644758D01*
X155015195Y-78197205D01*
X154844285Y-77783571D01*
X154685990Y-77625000D01*
X169575000Y-77625000D01*
X169575000Y-110804932D01*
X169553553Y-110772835D01*
X166403783Y-107623065D01*
X166403872Y-107521466D01*
X166301326Y-107273286D01*
X166111611Y-107083240D01*
X165863610Y-106980260D01*
X165595078Y-106980026D01*
X165346898Y-107082572D01*
X165156852Y-107272287D01*
X165053872Y-107520288D01*
X165053638Y-107788820D01*
X165156184Y-108037000D01*
X165345899Y-108227046D01*
X165593900Y-108330026D01*
X165696622Y-108330116D01*
X168700000Y-111333494D01*
X168700000Y-113592894D01*
X167892894Y-114400000D01*
X150697885Y-114400000D01*
X150788883Y-114180855D01*
X150789117Y-113912323D01*
X150686571Y-113664143D01*
X150496856Y-113474097D01*
X150248855Y-113371117D01*
X149980323Y-113370883D01*
X149732143Y-113473429D01*
X149659445Y-113546000D01*
X137125000Y-113546000D01*
X137125000Y-109850000D01*
X137317654Y-109850000D01*
X137317654Y-110250000D01*
X137346758Y-110396317D01*
X137416037Y-110500000D01*
X137346758Y-110603683D01*
X137317654Y-110750000D01*
X137317654Y-111150000D01*
X137346758Y-111296317D01*
X137429641Y-111420359D01*
X137500000Y-111467372D01*
X137500000Y-111500000D01*
X137523500Y-111618143D01*
X137538060Y-111691342D01*
X137646447Y-111853553D01*
X137824972Y-112032078D01*
X137824883Y-112133677D01*
X137927429Y-112381857D01*
X138117144Y-112571903D01*
X138365145Y-112674883D01*
X138633677Y-112675117D01*
X138881857Y-112572571D01*
X139071903Y-112382856D01*
X139174883Y-112134855D01*
X139175117Y-111866323D01*
X139072571Y-111618143D01*
X138882856Y-111428097D01*
X138634855Y-111325117D01*
X138633999Y-111325116D01*
X138653242Y-111296317D01*
X138682346Y-111150000D01*
X138682346Y-110750000D01*
X138653242Y-110603683D01*
X138583963Y-110500000D01*
X138653242Y-110396317D01*
X138682346Y-110250000D01*
X138682346Y-109850000D01*
X138653242Y-109703683D01*
X138570359Y-109579641D01*
X138500000Y-109532628D01*
X138500000Y-109254634D01*
X138571903Y-109182856D01*
X138674883Y-108934855D01*
X138675117Y-108666323D01*
X138572571Y-108418143D01*
X138382856Y-108228097D01*
X138134855Y-108125117D01*
X137866323Y-108124883D01*
X137618143Y-108227429D01*
X137428097Y-108417144D01*
X137325117Y-108665145D01*
X137324883Y-108933677D01*
X137427429Y-109181857D01*
X137500000Y-109254555D01*
X137500000Y-109532628D01*
X137429641Y-109579641D01*
X137346758Y-109703683D01*
X137317654Y-109850000D01*
X137125000Y-109850000D01*
X137125000Y-102000000D01*
X137115485Y-101952165D01*
X137088388Y-101911612D01*
X137047835Y-101884515D01*
X137000000Y-101875000D01*
X134125000Y-101875000D01*
X134125000Y-91541336D01*
X145762228Y-103178565D01*
X145924440Y-103286952D01*
X146115782Y-103325012D01*
X151237881Y-103325012D01*
X151097922Y-103464972D01*
X150996323Y-103464883D01*
X150748143Y-103567429D01*
X150558097Y-103757144D01*
X150455117Y-104005145D01*
X150454883Y-104273677D01*
X150557429Y-104521857D01*
X150747144Y-104711903D01*
X150995145Y-104814883D01*
X151263677Y-104815117D01*
X151511857Y-104712571D01*
X151701903Y-104522856D01*
X151804883Y-104274855D01*
X151804973Y-104172134D01*
X151880748Y-104096359D01*
X151903705Y-104119356D01*
X152225188Y-104252848D01*
X152573285Y-104253151D01*
X152895000Y-104120221D01*
X152942654Y-104072650D01*
X152942654Y-104150000D01*
X152971758Y-104296317D01*
X152979528Y-104307945D01*
X152966434Y-104313369D01*
X152788368Y-104491435D01*
X152692000Y-104724089D01*
X152692000Y-104962750D01*
X152850250Y-105121000D01*
X153571000Y-105121000D01*
X153571000Y-105101000D01*
X153829000Y-105101000D01*
X153829000Y-105121000D01*
X153849000Y-105121000D01*
X153849000Y-105379000D01*
X153829000Y-105379000D01*
X153829000Y-106124750D01*
X153987250Y-106283000D01*
X154200912Y-106283000D01*
X154249990Y-106262671D01*
X154249990Y-107545724D01*
X154178087Y-107617502D01*
X154075107Y-107865503D01*
X154074873Y-108134035D01*
X154155566Y-108329328D01*
X153918143Y-108427429D01*
X153728097Y-108617144D01*
X153625117Y-108865145D01*
X153625027Y-108967866D01*
X152292894Y-110300000D01*
X150991065Y-110300000D01*
X151238957Y-110197573D01*
X151429003Y-110007858D01*
X151531983Y-109759857D01*
X151532217Y-109491325D01*
X151474284Y-109351117D01*
X151617356Y-109208295D01*
X151750848Y-108886812D01*
X151751151Y-108538715D01*
X151618221Y-108217000D01*
X151372295Y-107970644D01*
X151050812Y-107837152D01*
X150702715Y-107836849D01*
X150381000Y-107969779D01*
X150134644Y-108215705D01*
X150114114Y-108265146D01*
X150094221Y-108217000D01*
X149848295Y-107970644D01*
X149526812Y-107837152D01*
X149178715Y-107836849D01*
X148857000Y-107969779D01*
X148610644Y-108215705D01*
X148477152Y-108537188D01*
X148476849Y-108885285D01*
X148609779Y-109207000D01*
X148770574Y-109368077D01*
X148677117Y-109593145D01*
X148676883Y-109861677D01*
X148779429Y-110109857D01*
X148969144Y-110299903D01*
X148969378Y-110300000D01*
X145507107Y-110300000D01*
X145275028Y-110067922D01*
X145275117Y-109966323D01*
X145172571Y-109718143D01*
X144982856Y-109528097D01*
X144734855Y-109425117D01*
X144466323Y-109424883D01*
X144218143Y-109527429D01*
X144028097Y-109717144D01*
X143932134Y-109948246D01*
X143125000Y-109141112D01*
X143125000Y-106142782D01*
X143730532Y-105537250D01*
X152692000Y-105537250D01*
X152692000Y-105775911D01*
X152788368Y-106008565D01*
X152966434Y-106186631D01*
X153199088Y-106283000D01*
X153412750Y-106283000D01*
X153571000Y-106124750D01*
X153571000Y-105379000D01*
X152850250Y-105379000D01*
X152692000Y-105537250D01*
X143730532Y-105537250D01*
X144123424Y-105144358D01*
X144243641Y-105094685D01*
X144433687Y-104904970D01*
X144536667Y-104656969D01*
X144536901Y-104388437D01*
X144434355Y-104140257D01*
X144244640Y-103950211D01*
X143996639Y-103847231D01*
X143728107Y-103846997D01*
X143479927Y-103949543D01*
X143289881Y-104139258D01*
X143239552Y-104260462D01*
X142058058Y-105441956D01*
X141922575Y-105644721D01*
X141875000Y-105883898D01*
X141875000Y-109399996D01*
X141922575Y-109639173D01*
X142058058Y-109841938D01*
X144016120Y-111800000D01*
X143807107Y-111800000D01*
X139700000Y-107692894D01*
X139700000Y-105500000D01*
X139661940Y-105308658D01*
X139589337Y-105200001D01*
X139553553Y-105146446D01*
X139153553Y-104746447D01*
X138991342Y-104638060D01*
X138800000Y-104600000D01*
X138525999Y-104600000D01*
X138446317Y-104546758D01*
X138300000Y-104517654D01*
X137700000Y-104517654D01*
X137553683Y-104546758D01*
X137429641Y-104629641D01*
X137346758Y-104753683D01*
X137317654Y-104900000D01*
X137317654Y-105300000D01*
X137346758Y-105446317D01*
X137416037Y-105550000D01*
X137346758Y-105653683D01*
X137317654Y-105800000D01*
X137317654Y-106200000D01*
X137346758Y-106346317D01*
X137429641Y-106470359D01*
X137503985Y-106520035D01*
X137523500Y-106618143D01*
X137538060Y-106691342D01*
X137646447Y-106853553D01*
X137824972Y-107032078D01*
X137824883Y-107133677D01*
X137927429Y-107381857D01*
X138117144Y-107571903D01*
X138365145Y-107674883D01*
X138633677Y-107675117D01*
X138700000Y-107647713D01*
X138700000Y-107900000D01*
X138727462Y-108038060D01*
X138738060Y-108091342D01*
X138846447Y-108253553D01*
X143246447Y-112653554D01*
X143343686Y-112718526D01*
X143408658Y-112761940D01*
X143600000Y-112800000D01*
X144374330Y-112800000D01*
X144499999Y-112824997D01*
X154475003Y-112824997D01*
X154666345Y-112786937D01*
X154828556Y-112678550D01*
X157653553Y-109853553D01*
X157761940Y-109691342D01*
X157772538Y-109638060D01*
X157800000Y-109500000D01*
X157800000Y-108375736D01*
X157761940Y-108184394D01*
X157736609Y-108146484D01*
X157653553Y-108022182D01*
X157177817Y-107546447D01*
X157015606Y-107438060D01*
X156862158Y-107407538D01*
X156782856Y-107328097D01*
X156534855Y-107225117D01*
X156266323Y-107224883D01*
X156125000Y-107283277D01*
X156125000Y-106333677D01*
X159524883Y-106333677D01*
X159627429Y-106581857D01*
X159817144Y-106771903D01*
X160065145Y-106874883D01*
X160333677Y-106875117D01*
X160581857Y-106772571D01*
X160771903Y-106582856D01*
X160874883Y-106334855D01*
X160874973Y-106232133D01*
X162907106Y-104200000D01*
X165870377Y-104200000D01*
X165942155Y-104271903D01*
X166190156Y-104374883D01*
X166458688Y-104375117D01*
X166706868Y-104272571D01*
X166896914Y-104082856D01*
X166999894Y-103834855D01*
X167000128Y-103566323D01*
X166897582Y-103318143D01*
X166707867Y-103128097D01*
X166459866Y-103025117D01*
X166191334Y-103024883D01*
X165943154Y-103127429D01*
X165870456Y-103200000D01*
X162700000Y-103200000D01*
X162508658Y-103238060D01*
X162346447Y-103346447D01*
X160167922Y-105524972D01*
X160066323Y-105524883D01*
X159818143Y-105627429D01*
X159628097Y-105817144D01*
X159525117Y-106065145D01*
X159524883Y-106333677D01*
X156125000Y-106333677D01*
X156125000Y-106075163D01*
X156365151Y-106174883D01*
X156633683Y-106175117D01*
X156881863Y-106072571D01*
X157071909Y-105882856D01*
X157174889Y-105634855D01*
X157175123Y-105366323D01*
X157072577Y-105118143D01*
X156882862Y-104928097D01*
X156700007Y-104852168D01*
X156700007Y-102747832D01*
X156765153Y-102774883D01*
X157033685Y-102775117D01*
X157281865Y-102672571D01*
X157471911Y-102482856D01*
X157574891Y-102234855D01*
X157574981Y-102132134D01*
X158069865Y-101637250D01*
X162867000Y-101637250D01*
X162867000Y-102225911D01*
X162963368Y-102458565D01*
X163141434Y-102636631D01*
X163374088Y-102733000D01*
X164712750Y-102733000D01*
X164871000Y-102574750D01*
X164871000Y-101479000D01*
X165129000Y-101479000D01*
X165129000Y-102574750D01*
X165287250Y-102733000D01*
X166625912Y-102733000D01*
X166858566Y-102636631D01*
X167036632Y-102458565D01*
X167133000Y-102225911D01*
X167133000Y-101637250D01*
X166974750Y-101479000D01*
X165129000Y-101479000D01*
X164871000Y-101479000D01*
X163025250Y-101479000D01*
X162867000Y-101637250D01*
X158069865Y-101637250D01*
X158490959Y-101216156D01*
X158641434Y-101366631D01*
X158874088Y-101463000D01*
X160212750Y-101463000D01*
X160371000Y-101304750D01*
X160371000Y-100209000D01*
X160351000Y-100209000D01*
X160351000Y-99951000D01*
X160371000Y-99951000D01*
X160371000Y-98855250D01*
X160212750Y-98697000D01*
X160175047Y-98697000D01*
X160175068Y-98672346D01*
X162000000Y-98672346D01*
X162146317Y-98643242D01*
X162212479Y-98599034D01*
X162212479Y-98732857D01*
X162125912Y-98697000D01*
X160787250Y-98697000D01*
X160629000Y-98855250D01*
X160629000Y-99951000D01*
X160649000Y-99951000D01*
X160649000Y-100209000D01*
X160629000Y-100209000D01*
X160629000Y-101304750D01*
X160787250Y-101463000D01*
X162125912Y-101463000D01*
X162358566Y-101366631D01*
X162536632Y-101188565D01*
X162633000Y-100955911D01*
X162633000Y-100924899D01*
X162867000Y-100925102D01*
X162867000Y-101062750D01*
X163025250Y-101221000D01*
X164871000Y-101221000D01*
X164871000Y-100125250D01*
X165129000Y-100125250D01*
X165129000Y-101221000D01*
X166974750Y-101221000D01*
X167133000Y-101062750D01*
X167133000Y-100474089D01*
X167036632Y-100241435D01*
X166858566Y-100063369D01*
X166625912Y-99967000D01*
X165287250Y-99967000D01*
X165129000Y-100125250D01*
X164871000Y-100125250D01*
X164712750Y-99967000D01*
X163800106Y-99967000D01*
X163824760Y-99942346D01*
X166500000Y-99942346D01*
X166646317Y-99913242D01*
X166770359Y-99830359D01*
X166853242Y-99706317D01*
X166882346Y-99560000D01*
X166882346Y-98060000D01*
X166853242Y-97913683D01*
X166770359Y-97789641D01*
X166646317Y-97706758D01*
X166500000Y-97677654D01*
X163500000Y-97677654D01*
X163353683Y-97706758D01*
X163229641Y-97789641D01*
X163212479Y-97815326D01*
X163212479Y-97264674D01*
X163229641Y-97290359D01*
X163353683Y-97373242D01*
X163500000Y-97402346D01*
X166500000Y-97402346D01*
X166646317Y-97373242D01*
X166770359Y-97290359D01*
X166853242Y-97166317D01*
X166882346Y-97020000D01*
X166882346Y-96872748D01*
X166927429Y-96981857D01*
X167117144Y-97171903D01*
X167365145Y-97274883D01*
X167633677Y-97275117D01*
X167881857Y-97172571D01*
X168071903Y-96982856D01*
X168174883Y-96734855D01*
X168175117Y-96466323D01*
X168072571Y-96218143D01*
X168000000Y-96145445D01*
X168000000Y-95934998D01*
X167961940Y-95743656D01*
X167853553Y-95581445D01*
X166918555Y-94646447D01*
X166857370Y-94605564D01*
X166882346Y-94480000D01*
X166882346Y-92980000D01*
X166853242Y-92833683D01*
X166770359Y-92709641D01*
X166646317Y-92626758D01*
X166500000Y-92597654D01*
X163500000Y-92597654D01*
X163353683Y-92626758D01*
X163229641Y-92709641D01*
X163146758Y-92833683D01*
X163117654Y-92980000D01*
X163117654Y-93230000D01*
X162378368Y-93230000D01*
X162382346Y-93210000D01*
X162382346Y-91710000D01*
X162365439Y-91625000D01*
X162495015Y-91625000D01*
X162615145Y-91674883D01*
X162883677Y-91675117D01*
X163004969Y-91625000D01*
X163117654Y-91625000D01*
X163117654Y-91940000D01*
X163146758Y-92086317D01*
X163229641Y-92210359D01*
X163353683Y-92293242D01*
X163500000Y-92322346D01*
X166500000Y-92322346D01*
X166646317Y-92293242D01*
X166770359Y-92210359D01*
X166853242Y-92086317D01*
X166882346Y-91940000D01*
X166882346Y-90440000D01*
X166853242Y-90293683D01*
X166770359Y-90169641D01*
X166646317Y-90086758D01*
X166500000Y-90057654D01*
X163500000Y-90057654D01*
X163353683Y-90086758D01*
X163229641Y-90169641D01*
X163146758Y-90293683D01*
X163130583Y-90375000D01*
X163004985Y-90375000D01*
X162884855Y-90325117D01*
X162616323Y-90324883D01*
X162495031Y-90375000D01*
X162382346Y-90375000D01*
X162382346Y-89170000D01*
X162353242Y-89023683D01*
X162270359Y-88899641D01*
X162146317Y-88816758D01*
X162000000Y-88787654D01*
X159324760Y-88787654D01*
X159234000Y-88696894D01*
X159234000Y-85288400D01*
X159330317Y-85269242D01*
X159454359Y-85186359D01*
X159537242Y-85062317D01*
X159566346Y-84916000D01*
X159566346Y-84116000D01*
X159537242Y-83969683D01*
X159454359Y-83845641D01*
X159330317Y-83762758D01*
X159184000Y-83733654D01*
X158458999Y-83733654D01*
X158458999Y-83548107D01*
X158608760Y-83398346D01*
X159184000Y-83398346D01*
X159330317Y-83369242D01*
X159454359Y-83286359D01*
X159537242Y-83162317D01*
X159566346Y-83016000D01*
X159566346Y-82216000D01*
X159537242Y-82069683D01*
X159454359Y-81945641D01*
X159330317Y-81862758D01*
X159184000Y-81833654D01*
X158284000Y-81833654D01*
X158137683Y-81862758D01*
X158013641Y-81945641D01*
X157930758Y-82069683D01*
X157901654Y-82216000D01*
X157901654Y-82691240D01*
X157605446Y-82987448D01*
X157547947Y-83073501D01*
X157537242Y-83019683D01*
X157454359Y-82895641D01*
X157330317Y-82812758D01*
X157184000Y-82783654D01*
X156284000Y-82783654D01*
X156137683Y-82812758D01*
X156013641Y-82895641D01*
X155930758Y-83019683D01*
X155901654Y-83166000D01*
X155901654Y-83966000D01*
X155930758Y-84112317D01*
X156013641Y-84236359D01*
X156137683Y-84319242D01*
X156234000Y-84338400D01*
X156234000Y-85528893D01*
X154251088Y-87511805D01*
X154126170Y-87459935D01*
X154328553Y-87257552D01*
X154408409Y-87138038D01*
X154436939Y-87095341D01*
X154474999Y-86903999D01*
X154474999Y-85470751D01*
X154621000Y-85324750D01*
X154621000Y-84579000D01*
X154879000Y-84579000D01*
X154879000Y-85324750D01*
X155037250Y-85483000D01*
X155325911Y-85483000D01*
X155558565Y-85386632D01*
X155736631Y-85208566D01*
X155833000Y-84975912D01*
X155833000Y-84737250D01*
X155674750Y-84579000D01*
X154879000Y-84579000D01*
X154621000Y-84579000D01*
X154601000Y-84579000D01*
X154601000Y-84321000D01*
X154621000Y-84321000D01*
X154621000Y-83575250D01*
X154879000Y-83575250D01*
X154879000Y-84321000D01*
X155674750Y-84321000D01*
X155833000Y-84162750D01*
X155833000Y-83924088D01*
X155736631Y-83691434D01*
X155558565Y-83513368D01*
X155325911Y-83417000D01*
X155037250Y-83417000D01*
X154879000Y-83575250D01*
X154621000Y-83575250D01*
X154501428Y-83455678D01*
X154624760Y-83332346D01*
X155200000Y-83332346D01*
X155346317Y-83303242D01*
X155470359Y-83220359D01*
X155553242Y-83096317D01*
X155582346Y-82950000D01*
X155582346Y-82150000D01*
X155553242Y-82003683D01*
X155550781Y-82000000D01*
X157045366Y-82000000D01*
X157117144Y-82071903D01*
X157365145Y-82174883D01*
X157633677Y-82175117D01*
X157881857Y-82072571D01*
X158071903Y-81882856D01*
X158174883Y-81634855D01*
X158175117Y-81366323D01*
X158072571Y-81118143D01*
X157882856Y-80928097D01*
X157634855Y-80825117D01*
X157366323Y-80824883D01*
X157118143Y-80927429D01*
X157045445Y-81000000D01*
X153314998Y-81000000D01*
X153145792Y-81033657D01*
X153123656Y-81038060D01*
X152961444Y-81146447D01*
X151732346Y-82375546D01*
X151732346Y-82050000D01*
X151703242Y-81903683D01*
X151620359Y-81779641D01*
X151496317Y-81696758D01*
X151350000Y-81667654D01*
X150550000Y-81667654D01*
X150403683Y-81696758D01*
X150279641Y-81779641D01*
X150196758Y-81903683D01*
X150167654Y-82050000D01*
X150167654Y-82625240D01*
X150044322Y-82748572D01*
X149924750Y-82629000D01*
X149179000Y-82629000D01*
X149179000Y-82649000D01*
X148921000Y-82649000D01*
X148921000Y-82629000D01*
X148175250Y-82629000D01*
X148017000Y-82787250D01*
X148017000Y-83075911D01*
X148113368Y-83308565D01*
X148279802Y-83474999D01*
X147139999Y-83474999D01*
X147032346Y-83496412D01*
X147032346Y-83050000D01*
X147003242Y-82903683D01*
X146920359Y-82779641D01*
X146796317Y-82696758D01*
X146650000Y-82667654D01*
X145850000Y-82667654D01*
X145800000Y-82677600D01*
X145800000Y-82312455D01*
X145846317Y-82303242D01*
X145970359Y-82220359D01*
X146053242Y-82096317D01*
X146082346Y-81950000D01*
X146082346Y-81787250D01*
X146167000Y-81787250D01*
X146167000Y-82075911D01*
X146263368Y-82308565D01*
X146441434Y-82486631D01*
X146674088Y-82583000D01*
X146912750Y-82583000D01*
X147071000Y-82424750D01*
X147071000Y-81629000D01*
X147329000Y-81629000D01*
X147329000Y-82424750D01*
X147487250Y-82583000D01*
X147725912Y-82583000D01*
X147958566Y-82486631D01*
X148124724Y-82320474D01*
X148175250Y-82371000D01*
X148921000Y-82371000D01*
X148921000Y-81575250D01*
X149179000Y-81575250D01*
X149179000Y-82371000D01*
X149924750Y-82371000D01*
X150083000Y-82212750D01*
X150083000Y-81924089D01*
X149986632Y-81691435D01*
X149808566Y-81513369D01*
X149575912Y-81417000D01*
X149337250Y-81417000D01*
X149179000Y-81575250D01*
X148921000Y-81575250D01*
X148762750Y-81417000D01*
X148524088Y-81417000D01*
X148291434Y-81513369D01*
X148125277Y-81679527D01*
X148074750Y-81629000D01*
X147329000Y-81629000D01*
X147071000Y-81629000D01*
X146325250Y-81629000D01*
X146167000Y-81787250D01*
X146082346Y-81787250D01*
X146082346Y-81050000D01*
X146053242Y-80903683D01*
X145970359Y-80779641D01*
X145846317Y-80696758D01*
X145700000Y-80667654D01*
X144900000Y-80667654D01*
X144753683Y-80696758D01*
X144629641Y-80779641D01*
X144546758Y-80903683D01*
X144517654Y-81050000D01*
X144517654Y-81950000D01*
X144546758Y-82096317D01*
X144629641Y-82220359D01*
X144753683Y-82303242D01*
X144800000Y-82312455D01*
X144800000Y-83917654D01*
X144300000Y-83917654D01*
X144153683Y-83946758D01*
X144029641Y-84029641D01*
X143946758Y-84153683D01*
X143917654Y-84300000D01*
X143917654Y-85200000D01*
X143946758Y-85346317D01*
X144029641Y-85470359D01*
X144153683Y-85553242D01*
X144227418Y-85567909D01*
X144178097Y-85617144D01*
X144075117Y-85865145D01*
X144075071Y-85917654D01*
X143350000Y-85917654D01*
X143300000Y-85927600D01*
X143300000Y-85562455D01*
X143346317Y-85553242D01*
X143470359Y-85470359D01*
X143553242Y-85346317D01*
X143582346Y-85200000D01*
X143582346Y-84300000D01*
X143553242Y-84153683D01*
X143470359Y-84029641D01*
X143346317Y-83946758D01*
X143200000Y-83917654D01*
X142400000Y-83917654D01*
X142253683Y-83946758D01*
X142129641Y-84029641D01*
X142046758Y-84153683D01*
X142017654Y-84300000D01*
X142017654Y-85200000D01*
X142046758Y-85346317D01*
X142129641Y-85470359D01*
X142253683Y-85553242D01*
X142300000Y-85562455D01*
X142300000Y-87492894D01*
X142146447Y-87646447D01*
X142038060Y-87808658D01*
X142033332Y-87832425D01*
X141828093Y-87626828D01*
X141750000Y-87594401D01*
X141750000Y-87467372D01*
X141820359Y-87420359D01*
X141903242Y-87296317D01*
X141932346Y-87150000D01*
X141932346Y-86750000D01*
X141903242Y-86603683D01*
X141833963Y-86500000D01*
X141903242Y-86396317D01*
X141932346Y-86250000D01*
X141932346Y-85850000D01*
X141903242Y-85703683D01*
X141820359Y-85579641D01*
X141750000Y-85532628D01*
X141750000Y-84312455D01*
X141796317Y-84303242D01*
X141920359Y-84220359D01*
X142003242Y-84096317D01*
X142032346Y-83950000D01*
X142032346Y-83050000D01*
X142003242Y-82903683D01*
X141920359Y-82779641D01*
X141796317Y-82696758D01*
X141650000Y-82667654D01*
X140850000Y-82667654D01*
X140800000Y-82677600D01*
X140800000Y-82312455D01*
X140846317Y-82303242D01*
X140970359Y-82220359D01*
X141053242Y-82096317D01*
X141082346Y-81950000D01*
X141082346Y-81787250D01*
X141167000Y-81787250D01*
X141167000Y-82075911D01*
X141263368Y-82308565D01*
X141441434Y-82486631D01*
X141674088Y-82583000D01*
X141912750Y-82583000D01*
X142071000Y-82424750D01*
X142071000Y-81629000D01*
X142329000Y-81629000D01*
X142329000Y-82424750D01*
X142487250Y-82583000D01*
X142725912Y-82583000D01*
X142958566Y-82486631D01*
X143136632Y-82308565D01*
X143233000Y-82075911D01*
X143233000Y-81787250D01*
X143074750Y-81629000D01*
X142329000Y-81629000D01*
X142071000Y-81629000D01*
X141325250Y-81629000D01*
X141167000Y-81787250D01*
X141082346Y-81787250D01*
X141082346Y-81224999D01*
X141179249Y-81224999D01*
X141325250Y-81371000D01*
X142071000Y-81371000D01*
X142071000Y-81351000D01*
X142329000Y-81351000D01*
X142329000Y-81371000D01*
X143074750Y-81371000D01*
X143196455Y-81249295D01*
X143200000Y-81250000D01*
X143224001Y-81250000D01*
X143303683Y-81303242D01*
X143450000Y-81332346D01*
X144050000Y-81332346D01*
X144196317Y-81303242D01*
X144320359Y-81220359D01*
X144403242Y-81096317D01*
X144432346Y-80950000D01*
X144432346Y-80550000D01*
X144403242Y-80403683D01*
X144333963Y-80300000D01*
X144403242Y-80196317D01*
X144432346Y-80050000D01*
X144432346Y-79650000D01*
X144403242Y-79503683D01*
X144327522Y-79390361D01*
X144366429Y-79374285D01*
X144683172Y-79058093D01*
X144854804Y-78644758D01*
X144855195Y-78197205D01*
X144684285Y-77783571D01*
X144525990Y-77625000D01*
X148014008Y-77625000D01*
X147856828Y-77781907D01*
X147856828Y-77781907D01*
G37*
X147856828Y-77781907D02*
X147849315Y-77800000D01*
X147525999Y-77800000D01*
X147446317Y-77746758D01*
X147300000Y-77717654D01*
X146700000Y-77717654D01*
X146553683Y-77746758D01*
X146429641Y-77829641D01*
X146346758Y-77953683D01*
X146317654Y-78100000D01*
X146317654Y-78500000D01*
X146346758Y-78646317D01*
X146416037Y-78750000D01*
X146346758Y-78853683D01*
X146317654Y-79000000D01*
X146317654Y-79400000D01*
X146346758Y-79546317D01*
X146429641Y-79670359D01*
X146515455Y-79727699D01*
X146525787Y-79779641D01*
X146538060Y-79841342D01*
X146646447Y-80003553D01*
X147070998Y-80428105D01*
X147070998Y-80575248D01*
X146912750Y-80417000D01*
X146674088Y-80417000D01*
X146441434Y-80513369D01*
X146263368Y-80691435D01*
X146167000Y-80924089D01*
X146167000Y-81212750D01*
X146325250Y-81371000D01*
X147071000Y-81371000D01*
X147071000Y-81351000D01*
X147329000Y-81351000D01*
X147329000Y-81371000D01*
X148074750Y-81371000D01*
X148233000Y-81212750D01*
X148233000Y-81000000D01*
X149227600Y-81000000D01*
X149246758Y-81096317D01*
X149329641Y-81220359D01*
X149453683Y-81303242D01*
X149600000Y-81332346D01*
X150400000Y-81332346D01*
X150546317Y-81303242D01*
X150670359Y-81220359D01*
X150753242Y-81096317D01*
X150782346Y-80950000D01*
X150782346Y-80050000D01*
X150753242Y-79903683D01*
X150743884Y-79889677D01*
X159090883Y-79889677D01*
X159193429Y-80137857D01*
X159383144Y-80327903D01*
X159631145Y-80430883D01*
X159899677Y-80431117D01*
X160126163Y-80337535D01*
X160285705Y-80497356D01*
X160607188Y-80630848D01*
X160955285Y-80631151D01*
X161277000Y-80498221D01*
X161523356Y-80252295D01*
X161656848Y-79930812D01*
X161657151Y-79582715D01*
X161524221Y-79261000D01*
X161278295Y-79014644D01*
X160956812Y-78881152D01*
X160608715Y-78880849D01*
X160287000Y-79013779D01*
X160125923Y-79174574D01*
X159900855Y-79081117D01*
X159632323Y-79080883D01*
X159384143Y-79183429D01*
X159194097Y-79373144D01*
X159091117Y-79621145D01*
X159090883Y-79889677D01*
X150743884Y-79889677D01*
X150670359Y-79779641D01*
X150546317Y-79696758D01*
X150400000Y-79667654D01*
X149600000Y-79667654D01*
X149453683Y-79696758D01*
X149329641Y-79779641D01*
X149246758Y-79903683D01*
X149227600Y-80000000D01*
X148057107Y-80000000D01*
X147633287Y-79576181D01*
X147653242Y-79546317D01*
X147682346Y-79400000D01*
X147682346Y-79000000D01*
X147653242Y-78853683D01*
X147617372Y-78800000D01*
X147749761Y-78800000D01*
X147855715Y-79056429D01*
X148171907Y-79373172D01*
X148585242Y-79544804D01*
X149032795Y-79545195D01*
X149446429Y-79374285D01*
X149763172Y-79058093D01*
X149934804Y-78644758D01*
X149935195Y-78197205D01*
X149764285Y-77783571D01*
X149605990Y-77625000D01*
X153094008Y-77625000D01*
X152936828Y-77781907D01*
X152765196Y-78195242D01*
X152764805Y-78642795D01*
X152935715Y-79056429D01*
X153251907Y-79373172D01*
X153665242Y-79544804D01*
X154112795Y-79545195D01*
X154526429Y-79374285D01*
X154843172Y-79058093D01*
X155014804Y-78644758D01*
X155015195Y-78197205D01*
X154844285Y-77783571D01*
X154685990Y-77625000D01*
X169575000Y-77625000D01*
X169575000Y-110804932D01*
X169553553Y-110772835D01*
X166403783Y-107623065D01*
X166403872Y-107521466D01*
X166301326Y-107273286D01*
X166111611Y-107083240D01*
X165863610Y-106980260D01*
X165595078Y-106980026D01*
X165346898Y-107082572D01*
X165156852Y-107272287D01*
X165053872Y-107520288D01*
X165053638Y-107788820D01*
X165156184Y-108037000D01*
X165345899Y-108227046D01*
X165593900Y-108330026D01*
X165696622Y-108330116D01*
X168700000Y-111333494D01*
X168700000Y-113592894D01*
X167892894Y-114400000D01*
X150697885Y-114400000D01*
X150788883Y-114180855D01*
X150789117Y-113912323D01*
X150686571Y-113664143D01*
X150496856Y-113474097D01*
X150248855Y-113371117D01*
X149980323Y-113370883D01*
X149732143Y-113473429D01*
X149659445Y-113546000D01*
X137125000Y-113546000D01*
X137125000Y-109850000D01*
X137317654Y-109850000D01*
X137317654Y-110250000D01*
X137346758Y-110396317D01*
X137416037Y-110500000D01*
X137346758Y-110603683D01*
X137317654Y-110750000D01*
X137317654Y-111150000D01*
X137346758Y-111296317D01*
X137429641Y-111420359D01*
X137500000Y-111467372D01*
X137500000Y-111500000D01*
X137523500Y-111618143D01*
X137538060Y-111691342D01*
X137646447Y-111853553D01*
X137824972Y-112032078D01*
X137824883Y-112133677D01*
X137927429Y-112381857D01*
X138117144Y-112571903D01*
X138365145Y-112674883D01*
X138633677Y-112675117D01*
X138881857Y-112572571D01*
X139071903Y-112382856D01*
X139174883Y-112134855D01*
X139175117Y-111866323D01*
X139072571Y-111618143D01*
X138882856Y-111428097D01*
X138634855Y-111325117D01*
X138633999Y-111325116D01*
X138653242Y-111296317D01*
X138682346Y-111150000D01*
X138682346Y-110750000D01*
X138653242Y-110603683D01*
X138583963Y-110500000D01*
X138653242Y-110396317D01*
X138682346Y-110250000D01*
X138682346Y-109850000D01*
X138653242Y-109703683D01*
X138570359Y-109579641D01*
X138500000Y-109532628D01*
X138500000Y-109254634D01*
X138571903Y-109182856D01*
X138674883Y-108934855D01*
X138675117Y-108666323D01*
X138572571Y-108418143D01*
X138382856Y-108228097D01*
X138134855Y-108125117D01*
X137866323Y-108124883D01*
X137618143Y-108227429D01*
X137428097Y-108417144D01*
X137325117Y-108665145D01*
X137324883Y-108933677D01*
X137427429Y-109181857D01*
X137500000Y-109254555D01*
X137500000Y-109532628D01*
X137429641Y-109579641D01*
X137346758Y-109703683D01*
X137317654Y-109850000D01*
X137125000Y-109850000D01*
X137125000Y-102000000D01*
X137115485Y-101952165D01*
X137088388Y-101911612D01*
X137047835Y-101884515D01*
X137000000Y-101875000D01*
X134125000Y-101875000D01*
X134125000Y-91541336D01*
X145762228Y-103178565D01*
X145924440Y-103286952D01*
X146115782Y-103325012D01*
X151237881Y-103325012D01*
X151097922Y-103464972D01*
X150996323Y-103464883D01*
X150748143Y-103567429D01*
X150558097Y-103757144D01*
X150455117Y-104005145D01*
X150454883Y-104273677D01*
X150557429Y-104521857D01*
X150747144Y-104711903D01*
X150995145Y-104814883D01*
X151263677Y-104815117D01*
X151511857Y-104712571D01*
X151701903Y-104522856D01*
X151804883Y-104274855D01*
X151804973Y-104172134D01*
X151880748Y-104096359D01*
X151903705Y-104119356D01*
X152225188Y-104252848D01*
X152573285Y-104253151D01*
X152895000Y-104120221D01*
X152942654Y-104072650D01*
X152942654Y-104150000D01*
X152971758Y-104296317D01*
X152979528Y-104307945D01*
X152966434Y-104313369D01*
X152788368Y-104491435D01*
X152692000Y-104724089D01*
X152692000Y-104962750D01*
X152850250Y-105121000D01*
X153571000Y-105121000D01*
X153571000Y-105101000D01*
X153829000Y-105101000D01*
X153829000Y-105121000D01*
X153849000Y-105121000D01*
X153849000Y-105379000D01*
X153829000Y-105379000D01*
X153829000Y-106124750D01*
X153987250Y-106283000D01*
X154200912Y-106283000D01*
X154249990Y-106262671D01*
X154249990Y-107545724D01*
X154178087Y-107617502D01*
X154075107Y-107865503D01*
X154074873Y-108134035D01*
X154155566Y-108329328D01*
X153918143Y-108427429D01*
X153728097Y-108617144D01*
X153625117Y-108865145D01*
X153625027Y-108967866D01*
X152292894Y-110300000D01*
X150991065Y-110300000D01*
X151238957Y-110197573D01*
X151429003Y-110007858D01*
X151531983Y-109759857D01*
X151532217Y-109491325D01*
X151474284Y-109351117D01*
X151617356Y-109208295D01*
X151750848Y-108886812D01*
X151751151Y-108538715D01*
X151618221Y-108217000D01*
X151372295Y-107970644D01*
X151050812Y-107837152D01*
X150702715Y-107836849D01*
X150381000Y-107969779D01*
X150134644Y-108215705D01*
X150114114Y-108265146D01*
X150094221Y-108217000D01*
X149848295Y-107970644D01*
X149526812Y-107837152D01*
X149178715Y-107836849D01*
X148857000Y-107969779D01*
X148610644Y-108215705D01*
X148477152Y-108537188D01*
X148476849Y-108885285D01*
X148609779Y-109207000D01*
X148770574Y-109368077D01*
X148677117Y-109593145D01*
X148676883Y-109861677D01*
X148779429Y-110109857D01*
X148969144Y-110299903D01*
X148969378Y-110300000D01*
X145507107Y-110300000D01*
X145275028Y-110067922D01*
X145275117Y-109966323D01*
X145172571Y-109718143D01*
X144982856Y-109528097D01*
X144734855Y-109425117D01*
X144466323Y-109424883D01*
X144218143Y-109527429D01*
X144028097Y-109717144D01*
X143932134Y-109948246D01*
X143125000Y-109141112D01*
X143125000Y-106142782D01*
X143730532Y-105537250D01*
X152692000Y-105537250D01*
X152692000Y-105775911D01*
X152788368Y-106008565D01*
X152966434Y-106186631D01*
X153199088Y-106283000D01*
X153412750Y-106283000D01*
X153571000Y-106124750D01*
X153571000Y-105379000D01*
X152850250Y-105379000D01*
X152692000Y-105537250D01*
X143730532Y-105537250D01*
X144123424Y-105144358D01*
X144243641Y-105094685D01*
X144433687Y-104904970D01*
X144536667Y-104656969D01*
X144536901Y-104388437D01*
X144434355Y-104140257D01*
X144244640Y-103950211D01*
X143996639Y-103847231D01*
X143728107Y-103846997D01*
X143479927Y-103949543D01*
X143289881Y-104139258D01*
X143239552Y-104260462D01*
X142058058Y-105441956D01*
X141922575Y-105644721D01*
X141875000Y-105883898D01*
X141875000Y-109399996D01*
X141922575Y-109639173D01*
X142058058Y-109841938D01*
X144016120Y-111800000D01*
X143807107Y-111800000D01*
X139700000Y-107692894D01*
X139700000Y-105500000D01*
X139661940Y-105308658D01*
X139589337Y-105200001D01*
X139553553Y-105146446D01*
X139153553Y-104746447D01*
X138991342Y-104638060D01*
X138800000Y-104600000D01*
X138525999Y-104600000D01*
X138446317Y-104546758D01*
X138300000Y-104517654D01*
X137700000Y-104517654D01*
X137553683Y-104546758D01*
X137429641Y-104629641D01*
X137346758Y-104753683D01*
X137317654Y-104900000D01*
X137317654Y-105300000D01*
X137346758Y-105446317D01*
X137416037Y-105550000D01*
X137346758Y-105653683D01*
X137317654Y-105800000D01*
X137317654Y-106200000D01*
X137346758Y-106346317D01*
X137429641Y-106470359D01*
X137503985Y-106520035D01*
X137523500Y-106618143D01*
X137538060Y-106691342D01*
X137646447Y-106853553D01*
X137824972Y-107032078D01*
X137824883Y-107133677D01*
X137927429Y-107381857D01*
X138117144Y-107571903D01*
X138365145Y-107674883D01*
X138633677Y-107675117D01*
X138700000Y-107647713D01*
X138700000Y-107900000D01*
X138727462Y-108038060D01*
X138738060Y-108091342D01*
X138846447Y-108253553D01*
X143246447Y-112653554D01*
X143343686Y-112718526D01*
X143408658Y-112761940D01*
X143600000Y-112800000D01*
X144374330Y-112800000D01*
X144499999Y-112824997D01*
X154475003Y-112824997D01*
X154666345Y-112786937D01*
X154828556Y-112678550D01*
X157653553Y-109853553D01*
X157761940Y-109691342D01*
X157772538Y-109638060D01*
X157800000Y-109500000D01*
X157800000Y-108375736D01*
X157761940Y-108184394D01*
X157736609Y-108146484D01*
X157653553Y-108022182D01*
X157177817Y-107546447D01*
X157015606Y-107438060D01*
X156862158Y-107407538D01*
X156782856Y-107328097D01*
X156534855Y-107225117D01*
X156266323Y-107224883D01*
X156125000Y-107283277D01*
X156125000Y-106333677D01*
X159524883Y-106333677D01*
X159627429Y-106581857D01*
X159817144Y-106771903D01*
X160065145Y-106874883D01*
X160333677Y-106875117D01*
X160581857Y-106772571D01*
X160771903Y-106582856D01*
X160874883Y-106334855D01*
X160874973Y-106232133D01*
X162907106Y-104200000D01*
X165870377Y-104200000D01*
X165942155Y-104271903D01*
X166190156Y-104374883D01*
X166458688Y-104375117D01*
X166706868Y-104272571D01*
X166896914Y-104082856D01*
X166999894Y-103834855D01*
X167000128Y-103566323D01*
X166897582Y-103318143D01*
X166707867Y-103128097D01*
X166459866Y-103025117D01*
X166191334Y-103024883D01*
X165943154Y-103127429D01*
X165870456Y-103200000D01*
X162700000Y-103200000D01*
X162508658Y-103238060D01*
X162346447Y-103346447D01*
X160167922Y-105524972D01*
X160066323Y-105524883D01*
X159818143Y-105627429D01*
X159628097Y-105817144D01*
X159525117Y-106065145D01*
X159524883Y-106333677D01*
X156125000Y-106333677D01*
X156125000Y-106075163D01*
X156365151Y-106174883D01*
X156633683Y-106175117D01*
X156881863Y-106072571D01*
X157071909Y-105882856D01*
X157174889Y-105634855D01*
X157175123Y-105366323D01*
X157072577Y-105118143D01*
X156882862Y-104928097D01*
X156700007Y-104852168D01*
X156700007Y-102747832D01*
X156765153Y-102774883D01*
X157033685Y-102775117D01*
X157281865Y-102672571D01*
X157471911Y-102482856D01*
X157574891Y-102234855D01*
X157574981Y-102132134D01*
X158069865Y-101637250D01*
X162867000Y-101637250D01*
X162867000Y-102225911D01*
X162963368Y-102458565D01*
X163141434Y-102636631D01*
X163374088Y-102733000D01*
X164712750Y-102733000D01*
X164871000Y-102574750D01*
X164871000Y-101479000D01*
X165129000Y-101479000D01*
X165129000Y-102574750D01*
X165287250Y-102733000D01*
X166625912Y-102733000D01*
X166858566Y-102636631D01*
X167036632Y-102458565D01*
X167133000Y-102225911D01*
X167133000Y-101637250D01*
X166974750Y-101479000D01*
X165129000Y-101479000D01*
X164871000Y-101479000D01*
X163025250Y-101479000D01*
X162867000Y-101637250D01*
X158069865Y-101637250D01*
X158490959Y-101216156D01*
X158641434Y-101366631D01*
X158874088Y-101463000D01*
X160212750Y-101463000D01*
X160371000Y-101304750D01*
X160371000Y-100209000D01*
X160351000Y-100209000D01*
X160351000Y-99951000D01*
X160371000Y-99951000D01*
X160371000Y-98855250D01*
X160212750Y-98697000D01*
X160175047Y-98697000D01*
X160175068Y-98672346D01*
X162000000Y-98672346D01*
X162146317Y-98643242D01*
X162212479Y-98599034D01*
X162212479Y-98732857D01*
X162125912Y-98697000D01*
X160787250Y-98697000D01*
X160629000Y-98855250D01*
X160629000Y-99951000D01*
X160649000Y-99951000D01*
X160649000Y-100209000D01*
X160629000Y-100209000D01*
X160629000Y-101304750D01*
X160787250Y-101463000D01*
X162125912Y-101463000D01*
X162358566Y-101366631D01*
X162536632Y-101188565D01*
X162633000Y-100955911D01*
X162633000Y-100924899D01*
X162867000Y-100925102D01*
X162867000Y-101062750D01*
X163025250Y-101221000D01*
X164871000Y-101221000D01*
X164871000Y-100125250D01*
X165129000Y-100125250D01*
X165129000Y-101221000D01*
X166974750Y-101221000D01*
X167133000Y-101062750D01*
X167133000Y-100474089D01*
X167036632Y-100241435D01*
X166858566Y-100063369D01*
X166625912Y-99967000D01*
X165287250Y-99967000D01*
X165129000Y-100125250D01*
X164871000Y-100125250D01*
X164712750Y-99967000D01*
X163800106Y-99967000D01*
X163824760Y-99942346D01*
X166500000Y-99942346D01*
X166646317Y-99913242D01*
X166770359Y-99830359D01*
X166853242Y-99706317D01*
X166882346Y-99560000D01*
X166882346Y-98060000D01*
X166853242Y-97913683D01*
X166770359Y-97789641D01*
X166646317Y-97706758D01*
X166500000Y-97677654D01*
X163500000Y-97677654D01*
X163353683Y-97706758D01*
X163229641Y-97789641D01*
X163212479Y-97815326D01*
X163212479Y-97264674D01*
X163229641Y-97290359D01*
X163353683Y-97373242D01*
X163500000Y-97402346D01*
X166500000Y-97402346D01*
X166646317Y-97373242D01*
X166770359Y-97290359D01*
X166853242Y-97166317D01*
X166882346Y-97020000D01*
X166882346Y-96872748D01*
X166927429Y-96981857D01*
X167117144Y-97171903D01*
X167365145Y-97274883D01*
X167633677Y-97275117D01*
X167881857Y-97172571D01*
X168071903Y-96982856D01*
X168174883Y-96734855D01*
X168175117Y-96466323D01*
X168072571Y-96218143D01*
X168000000Y-96145445D01*
X168000000Y-95934998D01*
X167961940Y-95743656D01*
X167853553Y-95581445D01*
X166918555Y-94646447D01*
X166857370Y-94605564D01*
X166882346Y-94480000D01*
X166882346Y-92980000D01*
X166853242Y-92833683D01*
X166770359Y-92709641D01*
X166646317Y-92626758D01*
X166500000Y-92597654D01*
X163500000Y-92597654D01*
X163353683Y-92626758D01*
X163229641Y-92709641D01*
X163146758Y-92833683D01*
X163117654Y-92980000D01*
X163117654Y-93230000D01*
X162378368Y-93230000D01*
X162382346Y-93210000D01*
X162382346Y-91710000D01*
X162365439Y-91625000D01*
X162495015Y-91625000D01*
X162615145Y-91674883D01*
X162883677Y-91675117D01*
X163004969Y-91625000D01*
X163117654Y-91625000D01*
X163117654Y-91940000D01*
X163146758Y-92086317D01*
X163229641Y-92210359D01*
X163353683Y-92293242D01*
X163500000Y-92322346D01*
X166500000Y-92322346D01*
X166646317Y-92293242D01*
X166770359Y-92210359D01*
X166853242Y-92086317D01*
X166882346Y-91940000D01*
X166882346Y-90440000D01*
X166853242Y-90293683D01*
X166770359Y-90169641D01*
X166646317Y-90086758D01*
X166500000Y-90057654D01*
X163500000Y-90057654D01*
X163353683Y-90086758D01*
X163229641Y-90169641D01*
X163146758Y-90293683D01*
X163130583Y-90375000D01*
X163004985Y-90375000D01*
X162884855Y-90325117D01*
X162616323Y-90324883D01*
X162495031Y-90375000D01*
X162382346Y-90375000D01*
X162382346Y-89170000D01*
X162353242Y-89023683D01*
X162270359Y-88899641D01*
X162146317Y-88816758D01*
X162000000Y-88787654D01*
X159324760Y-88787654D01*
X159234000Y-88696894D01*
X159234000Y-85288400D01*
X159330317Y-85269242D01*
X159454359Y-85186359D01*
X159537242Y-85062317D01*
X159566346Y-84916000D01*
X159566346Y-84116000D01*
X159537242Y-83969683D01*
X159454359Y-83845641D01*
X159330317Y-83762758D01*
X159184000Y-83733654D01*
X158458999Y-83733654D01*
X158458999Y-83548107D01*
X158608760Y-83398346D01*
X159184000Y-83398346D01*
X159330317Y-83369242D01*
X159454359Y-83286359D01*
X159537242Y-83162317D01*
X159566346Y-83016000D01*
X159566346Y-82216000D01*
X159537242Y-82069683D01*
X159454359Y-81945641D01*
X159330317Y-81862758D01*
X159184000Y-81833654D01*
X158284000Y-81833654D01*
X158137683Y-81862758D01*
X158013641Y-81945641D01*
X157930758Y-82069683D01*
X157901654Y-82216000D01*
X157901654Y-82691240D01*
X157605446Y-82987448D01*
X157547947Y-83073501D01*
X157537242Y-83019683D01*
X157454359Y-82895641D01*
X157330317Y-82812758D01*
X157184000Y-82783654D01*
X156284000Y-82783654D01*
X156137683Y-82812758D01*
X156013641Y-82895641D01*
X155930758Y-83019683D01*
X155901654Y-83166000D01*
X155901654Y-83966000D01*
X155930758Y-84112317D01*
X156013641Y-84236359D01*
X156137683Y-84319242D01*
X156234000Y-84338400D01*
X156234000Y-85528893D01*
X154251088Y-87511805D01*
X154126170Y-87459935D01*
X154328553Y-87257552D01*
X154408409Y-87138038D01*
X154436939Y-87095341D01*
X154474999Y-86903999D01*
X154474999Y-85470751D01*
X154621000Y-85324750D01*
X154621000Y-84579000D01*
X154879000Y-84579000D01*
X154879000Y-85324750D01*
X155037250Y-85483000D01*
X155325911Y-85483000D01*
X155558565Y-85386632D01*
X155736631Y-85208566D01*
X155833000Y-84975912D01*
X155833000Y-84737250D01*
X155674750Y-84579000D01*
X154879000Y-84579000D01*
X154621000Y-84579000D01*
X154601000Y-84579000D01*
X154601000Y-84321000D01*
X154621000Y-84321000D01*
X154621000Y-83575250D01*
X154879000Y-83575250D01*
X154879000Y-84321000D01*
X155674750Y-84321000D01*
X155833000Y-84162750D01*
X155833000Y-83924088D01*
X155736631Y-83691434D01*
X155558565Y-83513368D01*
X155325911Y-83417000D01*
X155037250Y-83417000D01*
X154879000Y-83575250D01*
X154621000Y-83575250D01*
X154501428Y-83455678D01*
X154624760Y-83332346D01*
X155200000Y-83332346D01*
X155346317Y-83303242D01*
X155470359Y-83220359D01*
X155553242Y-83096317D01*
X155582346Y-82950000D01*
X155582346Y-82150000D01*
X155553242Y-82003683D01*
X155550781Y-82000000D01*
X157045366Y-82000000D01*
X157117144Y-82071903D01*
X157365145Y-82174883D01*
X157633677Y-82175117D01*
X157881857Y-82072571D01*
X158071903Y-81882856D01*
X158174883Y-81634855D01*
X158175117Y-81366323D01*
X158072571Y-81118143D01*
X157882856Y-80928097D01*
X157634855Y-80825117D01*
X157366323Y-80824883D01*
X157118143Y-80927429D01*
X157045445Y-81000000D01*
X153314998Y-81000000D01*
X153145792Y-81033657D01*
X153123656Y-81038060D01*
X152961444Y-81146447D01*
X151732346Y-82375546D01*
X151732346Y-82050000D01*
X151703242Y-81903683D01*
X151620359Y-81779641D01*
X151496317Y-81696758D01*
X151350000Y-81667654D01*
X150550000Y-81667654D01*
X150403683Y-81696758D01*
X150279641Y-81779641D01*
X150196758Y-81903683D01*
X150167654Y-82050000D01*
X150167654Y-82625240D01*
X150044322Y-82748572D01*
X149924750Y-82629000D01*
X149179000Y-82629000D01*
X149179000Y-82649000D01*
X148921000Y-82649000D01*
X148921000Y-82629000D01*
X148175250Y-82629000D01*
X148017000Y-82787250D01*
X148017000Y-83075911D01*
X148113368Y-83308565D01*
X148279802Y-83474999D01*
X147139999Y-83474999D01*
X147032346Y-83496412D01*
X147032346Y-83050000D01*
X147003242Y-82903683D01*
X146920359Y-82779641D01*
X146796317Y-82696758D01*
X146650000Y-82667654D01*
X145850000Y-82667654D01*
X145800000Y-82677600D01*
X145800000Y-82312455D01*
X145846317Y-82303242D01*
X145970359Y-82220359D01*
X146053242Y-82096317D01*
X146082346Y-81950000D01*
X146082346Y-81787250D01*
X146167000Y-81787250D01*
X146167000Y-82075911D01*
X146263368Y-82308565D01*
X146441434Y-82486631D01*
X146674088Y-82583000D01*
X146912750Y-82583000D01*
X147071000Y-82424750D01*
X147071000Y-81629000D01*
X147329000Y-81629000D01*
X147329000Y-82424750D01*
X147487250Y-82583000D01*
X147725912Y-82583000D01*
X147958566Y-82486631D01*
X148124724Y-82320474D01*
X148175250Y-82371000D01*
X148921000Y-82371000D01*
X148921000Y-81575250D01*
X149179000Y-81575250D01*
X149179000Y-82371000D01*
X149924750Y-82371000D01*
X150083000Y-82212750D01*
X150083000Y-81924089D01*
X149986632Y-81691435D01*
X149808566Y-81513369D01*
X149575912Y-81417000D01*
X149337250Y-81417000D01*
X149179000Y-81575250D01*
X148921000Y-81575250D01*
X148762750Y-81417000D01*
X148524088Y-81417000D01*
X148291434Y-81513369D01*
X148125277Y-81679527D01*
X148074750Y-81629000D01*
X147329000Y-81629000D01*
X147071000Y-81629000D01*
X146325250Y-81629000D01*
X146167000Y-81787250D01*
X146082346Y-81787250D01*
X146082346Y-81050000D01*
X146053242Y-80903683D01*
X145970359Y-80779641D01*
X145846317Y-80696758D01*
X145700000Y-80667654D01*
X144900000Y-80667654D01*
X144753683Y-80696758D01*
X144629641Y-80779641D01*
X144546758Y-80903683D01*
X144517654Y-81050000D01*
X144517654Y-81950000D01*
X144546758Y-82096317D01*
X144629641Y-82220359D01*
X144753683Y-82303242D01*
X144800000Y-82312455D01*
X144800000Y-83917654D01*
X144300000Y-83917654D01*
X144153683Y-83946758D01*
X144029641Y-84029641D01*
X143946758Y-84153683D01*
X143917654Y-84300000D01*
X143917654Y-85200000D01*
X143946758Y-85346317D01*
X144029641Y-85470359D01*
X144153683Y-85553242D01*
X144227418Y-85567909D01*
X144178097Y-85617144D01*
X144075117Y-85865145D01*
X144075071Y-85917654D01*
X143350000Y-85917654D01*
X143300000Y-85927600D01*
X143300000Y-85562455D01*
X143346317Y-85553242D01*
X143470359Y-85470359D01*
X143553242Y-85346317D01*
X143582346Y-85200000D01*
X143582346Y-84300000D01*
X143553242Y-84153683D01*
X143470359Y-84029641D01*
X143346317Y-83946758D01*
X143200000Y-83917654D01*
X142400000Y-83917654D01*
X142253683Y-83946758D01*
X142129641Y-84029641D01*
X142046758Y-84153683D01*
X142017654Y-84300000D01*
X142017654Y-85200000D01*
X142046758Y-85346317D01*
X142129641Y-85470359D01*
X142253683Y-85553242D01*
X142300000Y-85562455D01*
X142300000Y-87492894D01*
X142146447Y-87646447D01*
X142038060Y-87808658D01*
X142033332Y-87832425D01*
X141828093Y-87626828D01*
X141750000Y-87594401D01*
X141750000Y-87467372D01*
X141820359Y-87420359D01*
X141903242Y-87296317D01*
X141932346Y-87150000D01*
X141932346Y-86750000D01*
X141903242Y-86603683D01*
X141833963Y-86500000D01*
X141903242Y-86396317D01*
X141932346Y-86250000D01*
X141932346Y-85850000D01*
X141903242Y-85703683D01*
X141820359Y-85579641D01*
X141750000Y-85532628D01*
X141750000Y-84312455D01*
X141796317Y-84303242D01*
X141920359Y-84220359D01*
X142003242Y-84096317D01*
X142032346Y-83950000D01*
X142032346Y-83050000D01*
X142003242Y-82903683D01*
X141920359Y-82779641D01*
X141796317Y-82696758D01*
X141650000Y-82667654D01*
X140850000Y-82667654D01*
X140800000Y-82677600D01*
X140800000Y-82312455D01*
X140846317Y-82303242D01*
X140970359Y-82220359D01*
X141053242Y-82096317D01*
X141082346Y-81950000D01*
X141082346Y-81787250D01*
X141167000Y-81787250D01*
X141167000Y-82075911D01*
X141263368Y-82308565D01*
X141441434Y-82486631D01*
X141674088Y-82583000D01*
X141912750Y-82583000D01*
X142071000Y-82424750D01*
X142071000Y-81629000D01*
X142329000Y-81629000D01*
X142329000Y-82424750D01*
X142487250Y-82583000D01*
X142725912Y-82583000D01*
X142958566Y-82486631D01*
X143136632Y-82308565D01*
X143233000Y-82075911D01*
X143233000Y-81787250D01*
X143074750Y-81629000D01*
X142329000Y-81629000D01*
X142071000Y-81629000D01*
X141325250Y-81629000D01*
X141167000Y-81787250D01*
X141082346Y-81787250D01*
X141082346Y-81224999D01*
X141179249Y-81224999D01*
X141325250Y-81371000D01*
X142071000Y-81371000D01*
X142071000Y-81351000D01*
X142329000Y-81351000D01*
X142329000Y-81371000D01*
X143074750Y-81371000D01*
X143196455Y-81249295D01*
X143200000Y-81250000D01*
X143224001Y-81250000D01*
X143303683Y-81303242D01*
X143450000Y-81332346D01*
X144050000Y-81332346D01*
X144196317Y-81303242D01*
X144320359Y-81220359D01*
X144403242Y-81096317D01*
X144432346Y-80950000D01*
X144432346Y-80550000D01*
X144403242Y-80403683D01*
X144333963Y-80300000D01*
X144403242Y-80196317D01*
X144432346Y-80050000D01*
X144432346Y-79650000D01*
X144403242Y-79503683D01*
X144327522Y-79390361D01*
X144366429Y-79374285D01*
X144683172Y-79058093D01*
X144854804Y-78644758D01*
X144855195Y-78197205D01*
X144684285Y-77783571D01*
X144525990Y-77625000D01*
X148014008Y-77625000D01*
X147856828Y-77781907D01*
G36*
X156800000Y-108582843D02*
X156800000Y-109292894D01*
X156174898Y-109917996D01*
X156175117Y-109666325D01*
X156125000Y-109545033D01*
X156125000Y-108516689D01*
X156265145Y-108574883D01*
X156533677Y-108575117D01*
X156716665Y-108499508D01*
X156800000Y-108582843D01*
X156800000Y-108582843D01*
G37*
X156800000Y-108582843D02*
X156800000Y-109292894D01*
X156174898Y-109917996D01*
X156175117Y-109666325D01*
X156125000Y-109545033D01*
X156125000Y-108516689D01*
X156265145Y-108574883D01*
X156533677Y-108575117D01*
X156716665Y-108499508D01*
X156800000Y-108582843D01*
G36*
X156949962Y-96849028D02*
X156949873Y-96950626D01*
X157052419Y-97198806D01*
X157242134Y-97388852D01*
X157490135Y-97491832D01*
X157750000Y-97492058D01*
X157750000Y-100542901D01*
X156867930Y-101424972D01*
X156766331Y-101424883D01*
X156700007Y-101452288D01*
X156700007Y-99348941D01*
X156661947Y-99157599D01*
X156553560Y-98995388D01*
X148234999Y-90676827D01*
X148234999Y-89559370D01*
X148585242Y-89704804D01*
X149032795Y-89705195D01*
X149446429Y-89534285D01*
X149540907Y-89439972D01*
X156949962Y-96849028D01*
X156949962Y-96849028D01*
G37*
X156949962Y-96849028D02*
X156949873Y-96950626D01*
X157052419Y-97198806D01*
X157242134Y-97388852D01*
X157490135Y-97491832D01*
X157750000Y-97492058D01*
X157750000Y-100542901D01*
X156867930Y-101424972D01*
X156766331Y-101424883D01*
X156700007Y-101452288D01*
X156700007Y-99348941D01*
X156661947Y-99157599D01*
X156553560Y-98995388D01*
X148234999Y-90676827D01*
X148234999Y-89559370D01*
X148585242Y-89704804D01*
X149032795Y-89705195D01*
X149446429Y-89534285D01*
X149540907Y-89439972D01*
X156949962Y-96849028D01*
G36*
X142000000Y-90250000D02*
X142038060Y-90441342D01*
X142146447Y-90603553D01*
X142308658Y-90711940D01*
X142500000Y-90750000D01*
X144042894Y-90750000D01*
X150639396Y-97346502D01*
X146303609Y-97346502D01*
X140614999Y-91657893D01*
X140614999Y-89559370D01*
X140965242Y-89704804D01*
X141412795Y-89705195D01*
X141826429Y-89534285D01*
X142000000Y-89361016D01*
X142000000Y-90250000D01*
X142000000Y-90250000D01*
G37*
X142000000Y-90250000D02*
X142038060Y-90441342D01*
X142146447Y-90603553D01*
X142308658Y-90711940D01*
X142500000Y-90750000D01*
X144042894Y-90750000D01*
X150639396Y-97346502D01*
X146303609Y-97346502D01*
X140614999Y-91657893D01*
X140614999Y-89559370D01*
X140965242Y-89704804D01*
X141412795Y-89705195D01*
X141826429Y-89534285D01*
X142000000Y-89361016D01*
X142000000Y-90250000D01*
G36*
X157458999Y-92107631D02*
X156872447Y-92694183D01*
X156764060Y-92856394D01*
X156733538Y-93009842D01*
X156654097Y-93089144D01*
X156551117Y-93337145D01*
X156550883Y-93605677D01*
X156653429Y-93853857D01*
X156843144Y-94043903D01*
X157091145Y-94146883D01*
X157359677Y-94147117D01*
X157370999Y-94142439D01*
X157370999Y-94913893D01*
X153314999Y-90857893D01*
X153314999Y-89559370D01*
X153665242Y-89704804D01*
X154112795Y-89705195D01*
X154526429Y-89534285D01*
X154843172Y-89218093D01*
X155014804Y-88804758D01*
X155015195Y-88357205D01*
X154958095Y-88219012D01*
X157087553Y-86089554D01*
X157195940Y-85927342D01*
X157208077Y-85866323D01*
X157234000Y-85736000D01*
X157234000Y-84338400D01*
X157330317Y-84319242D01*
X157454359Y-84236359D01*
X157458999Y-84229415D01*
X157458999Y-92107631D01*
X157458999Y-92107631D01*
G37*
X157458999Y-92107631D02*
X156872447Y-92694183D01*
X156764060Y-92856394D01*
X156733538Y-93009842D01*
X156654097Y-93089144D01*
X156551117Y-93337145D01*
X156550883Y-93605677D01*
X156653429Y-93853857D01*
X156843144Y-94043903D01*
X157091145Y-94146883D01*
X157359677Y-94147117D01*
X157370999Y-94142439D01*
X157370999Y-94913893D01*
X153314999Y-90857893D01*
X153314999Y-89559370D01*
X153665242Y-89704804D01*
X154112795Y-89705195D01*
X154526429Y-89534285D01*
X154843172Y-89218093D01*
X155014804Y-88804758D01*
X155015195Y-88357205D01*
X154958095Y-88219012D01*
X157087553Y-86089554D01*
X157195940Y-85927342D01*
X157208077Y-85866323D01*
X157234000Y-85736000D01*
X157234000Y-84338400D01*
X157330317Y-84319242D01*
X157454359Y-84236359D01*
X157458999Y-84229415D01*
X157458999Y-92107631D01*
G36*
X153474999Y-86696892D02*
X152461446Y-87710446D01*
X152353059Y-87872657D01*
X152327687Y-88000209D01*
X152304285Y-87943571D01*
X151988093Y-87626828D01*
X151750000Y-87527963D01*
X151750000Y-87167372D01*
X151820359Y-87120359D01*
X151903242Y-86996317D01*
X151932346Y-86850000D01*
X151932346Y-86450000D01*
X151903242Y-86303683D01*
X151833963Y-86200000D01*
X151903242Y-86096317D01*
X151932346Y-85950000D01*
X151932346Y-85550000D01*
X151903242Y-85403683D01*
X151820359Y-85279641D01*
X151750000Y-85232628D01*
X151750000Y-85157106D01*
X152624761Y-84282346D01*
X153200000Y-84282346D01*
X153346317Y-84253242D01*
X153470359Y-84170359D01*
X153474999Y-84163415D01*
X153474999Y-86696892D01*
X153474999Y-86696892D01*
G37*
X153474999Y-86696892D02*
X152461446Y-87710446D01*
X152353059Y-87872657D01*
X152327687Y-88000209D01*
X152304285Y-87943571D01*
X151988093Y-87626828D01*
X151750000Y-87527963D01*
X151750000Y-87167372D01*
X151820359Y-87120359D01*
X151903242Y-86996317D01*
X151932346Y-86850000D01*
X151932346Y-86450000D01*
X151903242Y-86303683D01*
X151833963Y-86200000D01*
X151903242Y-86096317D01*
X151932346Y-85950000D01*
X151932346Y-85550000D01*
X151903242Y-85403683D01*
X151820359Y-85279641D01*
X151750000Y-85232628D01*
X151750000Y-85157106D01*
X152624761Y-84282346D01*
X153200000Y-84282346D01*
X153346317Y-84253242D01*
X153470359Y-84170359D01*
X153474999Y-84163415D01*
X153474999Y-86696892D01*
G36*
X129167000Y-85012750D02*
X129325250Y-85171000D01*
X130121000Y-85171000D01*
X130121000Y-85151000D01*
X130379000Y-85151000D01*
X130379000Y-85171000D01*
X130399000Y-85171000D01*
X130399000Y-85429000D01*
X130379000Y-85429000D01*
X130379000Y-86174750D01*
X130537250Y-86333000D01*
X130825911Y-86333000D01*
X130974999Y-86271246D01*
X130974999Y-86536585D01*
X130970359Y-86529641D01*
X130846317Y-86446758D01*
X130700000Y-86417654D01*
X129800000Y-86417654D01*
X129653683Y-86446758D01*
X129529641Y-86529641D01*
X129446758Y-86653683D01*
X129417654Y-86800000D01*
X129417654Y-87095549D01*
X128874999Y-86552895D01*
X128874999Y-85587250D01*
X129167000Y-85587250D01*
X129167000Y-85825912D01*
X129263369Y-86058566D01*
X129441435Y-86236632D01*
X129674089Y-86333000D01*
X129962750Y-86333000D01*
X130121000Y-86174750D01*
X130121000Y-85429000D01*
X129325250Y-85429000D01*
X129167000Y-85587250D01*
X128874999Y-85587250D01*
X128874999Y-85082107D01*
X129167000Y-84790106D01*
X129167000Y-85012750D01*
X129167000Y-85012750D01*
G37*
X129167000Y-85012750D02*
X129325250Y-85171000D01*
X130121000Y-85171000D01*
X130121000Y-85151000D01*
X130379000Y-85151000D01*
X130379000Y-85171000D01*
X130399000Y-85171000D01*
X130399000Y-85429000D01*
X130379000Y-85429000D01*
X130379000Y-86174750D01*
X130537250Y-86333000D01*
X130825911Y-86333000D01*
X130974999Y-86271246D01*
X130974999Y-86536585D01*
X130970359Y-86529641D01*
X130846317Y-86446758D01*
X130700000Y-86417654D01*
X129800000Y-86417654D01*
X129653683Y-86446758D01*
X129529641Y-86529641D01*
X129446758Y-86653683D01*
X129417654Y-86800000D01*
X129417654Y-87095549D01*
X128874999Y-86552895D01*
X128874999Y-85587250D01*
X129167000Y-85587250D01*
X129167000Y-85825912D01*
X129263369Y-86058566D01*
X129441435Y-86236632D01*
X129674089Y-86333000D01*
X129962750Y-86333000D01*
X130121000Y-86174750D01*
X130121000Y-85429000D01*
X129325250Y-85429000D01*
X129167000Y-85587250D01*
X128874999Y-85587250D01*
X128874999Y-85082107D01*
X129167000Y-84790106D01*
X129167000Y-85012750D01*
G36*
X129167000Y-77774088D02*
X129167000Y-78012750D01*
X129325250Y-78171000D01*
X130121000Y-78171000D01*
X130121000Y-78151000D01*
X130379000Y-78151000D01*
X130379000Y-78171000D01*
X131174750Y-78171000D01*
X131333000Y-78012750D01*
X131333000Y-77774088D01*
X131271245Y-77625000D01*
X135314008Y-77625000D01*
X135156828Y-77781907D01*
X135066268Y-78000000D01*
X134967372Y-78000000D01*
X134920359Y-77929641D01*
X134796317Y-77846758D01*
X134650000Y-77817654D01*
X134250000Y-77817654D01*
X134103683Y-77846758D01*
X134000000Y-77916037D01*
X133896317Y-77846758D01*
X133750000Y-77817654D01*
X133350000Y-77817654D01*
X133203683Y-77846758D01*
X133079641Y-77929641D01*
X133032628Y-78000000D01*
X133000000Y-78000000D01*
X132808658Y-78038060D01*
X132646446Y-78146447D01*
X132325239Y-78467654D01*
X131800000Y-78467654D01*
X131653683Y-78496758D01*
X131529641Y-78579641D01*
X131446758Y-78703683D01*
X131417654Y-78850000D01*
X131417654Y-79650000D01*
X131446758Y-79796317D01*
X131529641Y-79920359D01*
X131653683Y-80003242D01*
X131800000Y-80032346D01*
X132700000Y-80032346D01*
X132846317Y-80003242D01*
X132969400Y-79921000D01*
X133621000Y-79921000D01*
X133621000Y-79901000D01*
X133879000Y-79901000D01*
X133879000Y-79921000D01*
X134674750Y-79921000D01*
X134833000Y-79762750D01*
X134833000Y-79524088D01*
X134736631Y-79291434D01*
X134627543Y-79182346D01*
X134650000Y-79182346D01*
X134796317Y-79153242D01*
X134920359Y-79070359D01*
X134967372Y-79000000D01*
X135132399Y-79000000D01*
X135155715Y-79056429D01*
X135471907Y-79373172D01*
X135885242Y-79544804D01*
X136332795Y-79545195D01*
X136498056Y-79476910D01*
X136446758Y-79553683D01*
X136417654Y-79700000D01*
X136417654Y-79875239D01*
X136075240Y-80217654D01*
X135300000Y-80217654D01*
X135153683Y-80246758D01*
X135029641Y-80329641D01*
X134946758Y-80453683D01*
X134917654Y-80600000D01*
X134917654Y-80975546D01*
X134813554Y-80871446D01*
X134729749Y-80815448D01*
X134736631Y-80808566D01*
X134833000Y-80575912D01*
X134833000Y-80337250D01*
X134674750Y-80179000D01*
X133879000Y-80179000D01*
X133879000Y-80199000D01*
X133621000Y-80199000D01*
X133621000Y-80179000D01*
X132825250Y-80179000D01*
X132667000Y-80337250D01*
X132667000Y-80575912D01*
X132763369Y-80808566D01*
X132770251Y-80815448D01*
X132686445Y-80871446D01*
X131896447Y-81661445D01*
X131788060Y-81823656D01*
X131757745Y-81976059D01*
X131653683Y-81996758D01*
X131529641Y-82079641D01*
X131446758Y-82203683D01*
X131417654Y-82350000D01*
X131417654Y-83150000D01*
X131446758Y-83296317D01*
X131529641Y-83420359D01*
X131653683Y-83503242D01*
X131800000Y-83532346D01*
X132110548Y-83532346D01*
X131169045Y-84473848D01*
X131058565Y-84363368D01*
X130993138Y-84336268D01*
X131053242Y-84246317D01*
X131082346Y-84100000D01*
X131082346Y-83300000D01*
X131053242Y-83153683D01*
X130970359Y-83029641D01*
X130846317Y-82946758D01*
X130700000Y-82917654D01*
X129800000Y-82917654D01*
X129653683Y-82946758D01*
X129529641Y-83029641D01*
X129446758Y-83153683D01*
X129432912Y-83223290D01*
X129358658Y-83238060D01*
X129196446Y-83346447D01*
X128424988Y-84117906D01*
X128424988Y-82087250D01*
X129167000Y-82087250D01*
X129167000Y-82325912D01*
X129263369Y-82558566D01*
X129441435Y-82736632D01*
X129674089Y-82833000D01*
X129962750Y-82833000D01*
X130121000Y-82674750D01*
X130121000Y-81929000D01*
X130379000Y-81929000D01*
X130379000Y-82674750D01*
X130537250Y-82833000D01*
X130825911Y-82833000D01*
X131058565Y-82736632D01*
X131236631Y-82558566D01*
X131333000Y-82325912D01*
X131333000Y-82087250D01*
X131174750Y-81929000D01*
X130379000Y-81929000D01*
X130121000Y-81929000D01*
X129325250Y-81929000D01*
X129167000Y-82087250D01*
X128424988Y-82087250D01*
X128424988Y-82032118D01*
X129167000Y-81290106D01*
X129167000Y-81512750D01*
X129325250Y-81671000D01*
X130121000Y-81671000D01*
X130121000Y-81651000D01*
X130379000Y-81651000D01*
X130379000Y-81671000D01*
X131174750Y-81671000D01*
X131333000Y-81512750D01*
X131333000Y-81274088D01*
X131236631Y-81041434D01*
X131058565Y-80863368D01*
X130993138Y-80836268D01*
X131053242Y-80746317D01*
X131082346Y-80600000D01*
X131082346Y-79800000D01*
X131053242Y-79653683D01*
X130970359Y-79529641D01*
X130846317Y-79446758D01*
X130700000Y-79417654D01*
X129800000Y-79417654D01*
X129653683Y-79446758D01*
X129529641Y-79529641D01*
X129446758Y-79653683D01*
X129432912Y-79723290D01*
X129358658Y-79738060D01*
X129196447Y-79846447D01*
X127875000Y-81167894D01*
X127875000Y-78587250D01*
X129167000Y-78587250D01*
X129167000Y-78825912D01*
X129263369Y-79058566D01*
X129441435Y-79236632D01*
X129674089Y-79333000D01*
X129962750Y-79333000D01*
X130121000Y-79174750D01*
X130121000Y-78429000D01*
X130379000Y-78429000D01*
X130379000Y-79174750D01*
X130537250Y-79333000D01*
X130825911Y-79333000D01*
X131058565Y-79236632D01*
X131236631Y-79058566D01*
X131333000Y-78825912D01*
X131333000Y-78587250D01*
X131174750Y-78429000D01*
X130379000Y-78429000D01*
X130121000Y-78429000D01*
X129325250Y-78429000D01*
X129167000Y-78587250D01*
X127875000Y-78587250D01*
X127875000Y-77625000D01*
X129228755Y-77625000D01*
X129167000Y-77774088D01*
X129167000Y-77774088D01*
G37*
X129167000Y-77774088D02*
X129167000Y-78012750D01*
X129325250Y-78171000D01*
X130121000Y-78171000D01*
X130121000Y-78151000D01*
X130379000Y-78151000D01*
X130379000Y-78171000D01*
X131174750Y-78171000D01*
X131333000Y-78012750D01*
X131333000Y-77774088D01*
X131271245Y-77625000D01*
X135314008Y-77625000D01*
X135156828Y-77781907D01*
X135066268Y-78000000D01*
X134967372Y-78000000D01*
X134920359Y-77929641D01*
X134796317Y-77846758D01*
X134650000Y-77817654D01*
X134250000Y-77817654D01*
X134103683Y-77846758D01*
X134000000Y-77916037D01*
X133896317Y-77846758D01*
X133750000Y-77817654D01*
X133350000Y-77817654D01*
X133203683Y-77846758D01*
X133079641Y-77929641D01*
X133032628Y-78000000D01*
X133000000Y-78000000D01*
X132808658Y-78038060D01*
X132646446Y-78146447D01*
X132325239Y-78467654D01*
X131800000Y-78467654D01*
X131653683Y-78496758D01*
X131529641Y-78579641D01*
X131446758Y-78703683D01*
X131417654Y-78850000D01*
X131417654Y-79650000D01*
X131446758Y-79796317D01*
X131529641Y-79920359D01*
X131653683Y-80003242D01*
X131800000Y-80032346D01*
X132700000Y-80032346D01*
X132846317Y-80003242D01*
X132969400Y-79921000D01*
X133621000Y-79921000D01*
X133621000Y-79901000D01*
X133879000Y-79901000D01*
X133879000Y-79921000D01*
X134674750Y-79921000D01*
X134833000Y-79762750D01*
X134833000Y-79524088D01*
X134736631Y-79291434D01*
X134627543Y-79182346D01*
X134650000Y-79182346D01*
X134796317Y-79153242D01*
X134920359Y-79070359D01*
X134967372Y-79000000D01*
X135132399Y-79000000D01*
X135155715Y-79056429D01*
X135471907Y-79373172D01*
X135885242Y-79544804D01*
X136332795Y-79545195D01*
X136498056Y-79476910D01*
X136446758Y-79553683D01*
X136417654Y-79700000D01*
X136417654Y-79875239D01*
X136075240Y-80217654D01*
X135300000Y-80217654D01*
X135153683Y-80246758D01*
X135029641Y-80329641D01*
X134946758Y-80453683D01*
X134917654Y-80600000D01*
X134917654Y-80975546D01*
X134813554Y-80871446D01*
X134729749Y-80815448D01*
X134736631Y-80808566D01*
X134833000Y-80575912D01*
X134833000Y-80337250D01*
X134674750Y-80179000D01*
X133879000Y-80179000D01*
X133879000Y-80199000D01*
X133621000Y-80199000D01*
X133621000Y-80179000D01*
X132825250Y-80179000D01*
X132667000Y-80337250D01*
X132667000Y-80575912D01*
X132763369Y-80808566D01*
X132770251Y-80815448D01*
X132686445Y-80871446D01*
X131896447Y-81661445D01*
X131788060Y-81823656D01*
X131757745Y-81976059D01*
X131653683Y-81996758D01*
X131529641Y-82079641D01*
X131446758Y-82203683D01*
X131417654Y-82350000D01*
X131417654Y-83150000D01*
X131446758Y-83296317D01*
X131529641Y-83420359D01*
X131653683Y-83503242D01*
X131800000Y-83532346D01*
X132110548Y-83532346D01*
X131169045Y-84473848D01*
X131058565Y-84363368D01*
X130993138Y-84336268D01*
X131053242Y-84246317D01*
X131082346Y-84100000D01*
X131082346Y-83300000D01*
X131053242Y-83153683D01*
X130970359Y-83029641D01*
X130846317Y-82946758D01*
X130700000Y-82917654D01*
X129800000Y-82917654D01*
X129653683Y-82946758D01*
X129529641Y-83029641D01*
X129446758Y-83153683D01*
X129432912Y-83223290D01*
X129358658Y-83238060D01*
X129196446Y-83346447D01*
X128424988Y-84117906D01*
X128424988Y-82087250D01*
X129167000Y-82087250D01*
X129167000Y-82325912D01*
X129263369Y-82558566D01*
X129441435Y-82736632D01*
X129674089Y-82833000D01*
X129962750Y-82833000D01*
X130121000Y-82674750D01*
X130121000Y-81929000D01*
X130379000Y-81929000D01*
X130379000Y-82674750D01*
X130537250Y-82833000D01*
X130825911Y-82833000D01*
X131058565Y-82736632D01*
X131236631Y-82558566D01*
X131333000Y-82325912D01*
X131333000Y-82087250D01*
X131174750Y-81929000D01*
X130379000Y-81929000D01*
X130121000Y-81929000D01*
X129325250Y-81929000D01*
X129167000Y-82087250D01*
X128424988Y-82087250D01*
X128424988Y-82032118D01*
X129167000Y-81290106D01*
X129167000Y-81512750D01*
X129325250Y-81671000D01*
X130121000Y-81671000D01*
X130121000Y-81651000D01*
X130379000Y-81651000D01*
X130379000Y-81671000D01*
X131174750Y-81671000D01*
X131333000Y-81512750D01*
X131333000Y-81274088D01*
X131236631Y-81041434D01*
X131058565Y-80863368D01*
X130993138Y-80836268D01*
X131053242Y-80746317D01*
X131082346Y-80600000D01*
X131082346Y-79800000D01*
X131053242Y-79653683D01*
X130970359Y-79529641D01*
X130846317Y-79446758D01*
X130700000Y-79417654D01*
X129800000Y-79417654D01*
X129653683Y-79446758D01*
X129529641Y-79529641D01*
X129446758Y-79653683D01*
X129432912Y-79723290D01*
X129358658Y-79738060D01*
X129196447Y-79846447D01*
X127875000Y-81167894D01*
X127875000Y-78587250D01*
X129167000Y-78587250D01*
X129167000Y-78825912D01*
X129263369Y-79058566D01*
X129441435Y-79236632D01*
X129674089Y-79333000D01*
X129962750Y-79333000D01*
X130121000Y-79174750D01*
X130121000Y-78429000D01*
X130379000Y-78429000D01*
X130379000Y-79174750D01*
X130537250Y-79333000D01*
X130825911Y-79333000D01*
X131058565Y-79236632D01*
X131236631Y-79058566D01*
X131333000Y-78825912D01*
X131333000Y-78587250D01*
X131174750Y-78429000D01*
X130379000Y-78429000D01*
X130121000Y-78429000D01*
X129325250Y-78429000D01*
X129167000Y-78587250D01*
X127875000Y-78587250D01*
X127875000Y-77625000D01*
X129228755Y-77625000D01*
X129167000Y-77774088D01*
G36*
X167673566Y-65666764D02*
X168668466Y-66331534D01*
X169333237Y-67326435D01*
X169575000Y-68541860D01*
X169575000Y-75875000D01*
X126500000Y-75875000D01*
X126452165Y-75884515D01*
X126411612Y-75911612D01*
X126384515Y-75952165D01*
X126375000Y-76000000D01*
X126375000Y-90174891D01*
X126287107Y-90174814D01*
X125891857Y-90338128D01*
X125604485Y-90625000D01*
X124749994Y-90625000D01*
X124510816Y-90672575D01*
X124308052Y-90808058D01*
X122258051Y-92858059D01*
X122258049Y-92858062D01*
X122138355Y-92977756D01*
X122018137Y-93027429D01*
X121828091Y-93217144D01*
X121725111Y-93465145D01*
X121724877Y-93733677D01*
X121827423Y-93981857D01*
X122017138Y-94171903D01*
X122265139Y-94274883D01*
X122533671Y-94275117D01*
X122781851Y-94172571D01*
X122971897Y-93982856D01*
X123022226Y-93861651D01*
X123141932Y-93741945D01*
X123141935Y-93741943D01*
X125008878Y-91875000D01*
X125604956Y-91875000D01*
X125890267Y-92160809D01*
X126285231Y-92324813D01*
X126375000Y-92324891D01*
X126375000Y-92421904D01*
X126160936Y-92433859D01*
X125809102Y-92579593D01*
X125746991Y-92814557D01*
X126375000Y-93442566D01*
X126375000Y-93835718D01*
X126303424Y-93764142D01*
X126317566Y-93750000D01*
X125564557Y-92996991D01*
X125329593Y-93059102D01*
X125154290Y-93559589D01*
X125183859Y-94089064D01*
X125302297Y-94375000D01*
X124000000Y-94375000D01*
X123952165Y-94384515D01*
X123911612Y-94411612D01*
X123884515Y-94452165D01*
X123875000Y-94500000D01*
X123875000Y-100000000D01*
X123884515Y-100047835D01*
X123911612Y-100088388D01*
X123952165Y-100115485D01*
X124000000Y-100125000D01*
X132375000Y-100125000D01*
X132375000Y-100604921D01*
X132109733Y-100339191D01*
X131714769Y-100175187D01*
X131287107Y-100174814D01*
X130891857Y-100338128D01*
X130589191Y-100640267D01*
X130425187Y-101035231D01*
X130424814Y-101462893D01*
X130588128Y-101858143D01*
X130890267Y-102160809D01*
X131285231Y-102324813D01*
X131712893Y-102325186D01*
X132108143Y-102161872D01*
X132375000Y-101895480D01*
X132375000Y-103104921D01*
X132109733Y-102839191D01*
X131714769Y-102675187D01*
X131287107Y-102674814D01*
X130891857Y-102838128D01*
X130589191Y-103140267D01*
X130425187Y-103535231D01*
X130424814Y-103962893D01*
X130588128Y-104358143D01*
X130890267Y-104660809D01*
X131285231Y-104824813D01*
X131712893Y-104825186D01*
X132108143Y-104661872D01*
X132410809Y-104359733D01*
X132574813Y-103964769D01*
X132575109Y-103625000D01*
X135375000Y-103625000D01*
X135375000Y-113417684D01*
X135262855Y-113371117D01*
X134994323Y-113370883D01*
X134746143Y-113473429D01*
X134556097Y-113663144D01*
X134453117Y-113911145D01*
X134452883Y-114179677D01*
X134543919Y-114400000D01*
X131500000Y-114400000D01*
X131308658Y-114438060D01*
X131243686Y-114481474D01*
X131146447Y-114546446D01*
X130817893Y-114875000D01*
X120425000Y-114875000D01*
X120425000Y-113133677D01*
X129824883Y-113133677D01*
X129927429Y-113381857D01*
X130117144Y-113571903D01*
X130365145Y-113674883D01*
X130633677Y-113675117D01*
X130881857Y-113572571D01*
X130955688Y-113498869D01*
X131141342Y-113461940D01*
X131303553Y-113353553D01*
X131624761Y-113032346D01*
X131800000Y-113032346D01*
X131946317Y-113003242D01*
X132070359Y-112920359D01*
X132153242Y-112796317D01*
X132182346Y-112650000D01*
X132182346Y-112262851D01*
X132336632Y-112108565D01*
X132433000Y-111875911D01*
X132433000Y-111808250D01*
X132274750Y-111650000D01*
X131629000Y-111650000D01*
X131629000Y-111699000D01*
X131371000Y-111699000D01*
X131371000Y-111650000D01*
X130725250Y-111650000D01*
X130567000Y-111808250D01*
X130567000Y-111875911D01*
X130663368Y-112108565D01*
X130817654Y-112262851D01*
X130817654Y-112401023D01*
X130634855Y-112325117D01*
X130366323Y-112324883D01*
X130118143Y-112427429D01*
X129928097Y-112617144D01*
X129825117Y-112865145D01*
X129824883Y-113133677D01*
X120425000Y-113133677D01*
X120425000Y-111224089D01*
X130567000Y-111224089D01*
X130567000Y-111291750D01*
X130725250Y-111450000D01*
X131371000Y-111450000D01*
X131371000Y-110875250D01*
X131629000Y-110875250D01*
X131629000Y-111450000D01*
X132274750Y-111450000D01*
X132433000Y-111291750D01*
X132433000Y-111224089D01*
X132336632Y-110991435D01*
X132158566Y-110813369D01*
X131925912Y-110717000D01*
X131787250Y-110717000D01*
X131629000Y-110875250D01*
X131371000Y-110875250D01*
X131212750Y-110717000D01*
X131074088Y-110717000D01*
X130841434Y-110813369D01*
X130663368Y-110991435D01*
X130567000Y-111224089D01*
X120425000Y-111224089D01*
X120425000Y-108633677D01*
X129824883Y-108633677D01*
X129927429Y-108881857D01*
X130117144Y-109071903D01*
X130365145Y-109174883D01*
X130633677Y-109175117D01*
X130881857Y-109072571D01*
X130968130Y-108986448D01*
X131091342Y-108961940D01*
X131253553Y-108853553D01*
X131624760Y-108482346D01*
X131800000Y-108482346D01*
X131946317Y-108453242D01*
X132070359Y-108370359D01*
X132153242Y-108246317D01*
X132182346Y-108100000D01*
X132182346Y-107712851D01*
X132336632Y-107558565D01*
X132433000Y-107325911D01*
X132433000Y-107258250D01*
X132274750Y-107100000D01*
X131629000Y-107100000D01*
X131629000Y-107149000D01*
X131371000Y-107149000D01*
X131371000Y-107100000D01*
X130725250Y-107100000D01*
X130567000Y-107258250D01*
X130567000Y-107325911D01*
X130663368Y-107558565D01*
X130817654Y-107712851D01*
X130817654Y-107875240D01*
X130799436Y-107893458D01*
X130634855Y-107825117D01*
X130366323Y-107824883D01*
X130118143Y-107927429D01*
X129928097Y-108117144D01*
X129825117Y-108365145D01*
X129824883Y-108633677D01*
X120425000Y-108633677D01*
X120425000Y-106674089D01*
X130567000Y-106674089D01*
X130567000Y-106741750D01*
X130725250Y-106900000D01*
X131371000Y-106900000D01*
X131371000Y-106325250D01*
X131629000Y-106325250D01*
X131629000Y-106900000D01*
X132274750Y-106900000D01*
X132433000Y-106741750D01*
X132433000Y-106674089D01*
X132336632Y-106441435D01*
X132158566Y-106263369D01*
X131925912Y-106167000D01*
X131787250Y-106167000D01*
X131629000Y-106325250D01*
X131371000Y-106325250D01*
X131212750Y-106167000D01*
X131074088Y-106167000D01*
X130841434Y-106263369D01*
X130663368Y-106441435D01*
X130567000Y-106674089D01*
X120425000Y-106674089D01*
X120425000Y-103962893D01*
X125424814Y-103962893D01*
X125588128Y-104358143D01*
X125890267Y-104660809D01*
X126285231Y-104824813D01*
X126712893Y-104825186D01*
X127108143Y-104661872D01*
X127410809Y-104359733D01*
X127574813Y-103964769D01*
X127575186Y-103537107D01*
X127411872Y-103141857D01*
X127109733Y-102839191D01*
X126714769Y-102675187D01*
X126287107Y-102674814D01*
X125891857Y-102838128D01*
X125589191Y-103140267D01*
X125425187Y-103535231D01*
X125424814Y-103962893D01*
X120425000Y-103962893D01*
X120425000Y-101462893D01*
X125424814Y-101462893D01*
X125588128Y-101858143D01*
X125890267Y-102160809D01*
X126285231Y-102324813D01*
X126712893Y-102325186D01*
X127108143Y-102161872D01*
X127410809Y-101859733D01*
X127574813Y-101464769D01*
X127575186Y-101037107D01*
X127411872Y-100641857D01*
X127109733Y-100339191D01*
X126714769Y-100175187D01*
X126287107Y-100174814D01*
X125891857Y-100338128D01*
X125589191Y-100640267D01*
X125425187Y-101035231D01*
X125424814Y-101462893D01*
X120425000Y-101462893D01*
X120425000Y-73173285D01*
X135124849Y-73173285D01*
X135257779Y-73495000D01*
X135503705Y-73741356D01*
X135825188Y-73874848D01*
X135983271Y-73874986D01*
X136027429Y-73981857D01*
X136217144Y-74171903D01*
X136465145Y-74274883D01*
X136733677Y-74275117D01*
X136981857Y-74172571D01*
X137171903Y-73982856D01*
X137274883Y-73734855D01*
X137275117Y-73466323D01*
X137172571Y-73218143D01*
X136982856Y-73028097D01*
X136875015Y-72983317D01*
X136875151Y-72826715D01*
X136742221Y-72505000D01*
X136496295Y-72258644D01*
X136174812Y-72125152D01*
X135826715Y-72124849D01*
X135505000Y-72257779D01*
X135258644Y-72503705D01*
X135125152Y-72825188D01*
X135124849Y-73173285D01*
X120425000Y-73173285D01*
X120425000Y-71273285D01*
X128024849Y-71273285D01*
X128157779Y-71595000D01*
X128403705Y-71841356D01*
X128725188Y-71974848D01*
X129073285Y-71975151D01*
X129389700Y-71844411D01*
X129417144Y-71871903D01*
X129665145Y-71974883D01*
X129933677Y-71975117D01*
X130181857Y-71872571D01*
X130371903Y-71682856D01*
X130474883Y-71434855D01*
X130475117Y-71166323D01*
X130372571Y-70918143D01*
X130182856Y-70728097D01*
X129955470Y-70633677D01*
X144924883Y-70633677D01*
X145027429Y-70881857D01*
X145217144Y-71071903D01*
X145465145Y-71174883D01*
X145733677Y-71175117D01*
X145981857Y-71072571D01*
X146171903Y-70882856D01*
X146274883Y-70634855D01*
X146275117Y-70366323D01*
X146175148Y-70124381D01*
X146495000Y-69992221D01*
X146741356Y-69746295D01*
X146874848Y-69424812D01*
X146875094Y-69141128D01*
X164274657Y-69141128D01*
X164574700Y-69867286D01*
X165129791Y-70423348D01*
X165855425Y-70724657D01*
X166641128Y-70725343D01*
X167367286Y-70425300D01*
X167923348Y-69870209D01*
X168224657Y-69144575D01*
X168225343Y-68358872D01*
X167925300Y-67632714D01*
X167370209Y-67076652D01*
X166644575Y-66775343D01*
X165858872Y-66774657D01*
X165132714Y-67074700D01*
X164576652Y-67629791D01*
X164275343Y-68355425D01*
X164274657Y-69141128D01*
X146875094Y-69141128D01*
X146875151Y-69076715D01*
X146742221Y-68755000D01*
X146496295Y-68508644D01*
X146294759Y-68424959D01*
X146495000Y-68342221D01*
X146737645Y-68100000D01*
X147745366Y-68100000D01*
X147817144Y-68171903D01*
X148065145Y-68274883D01*
X148333677Y-68275117D01*
X148581857Y-68172571D01*
X148771903Y-67982856D01*
X148874883Y-67734855D01*
X148875117Y-67466323D01*
X148772571Y-67218143D01*
X148582856Y-67028097D01*
X148334855Y-66925117D01*
X148066323Y-66924883D01*
X147818143Y-67027429D01*
X147745445Y-67100000D01*
X146737230Y-67100000D01*
X146496295Y-66858644D01*
X146174812Y-66725152D01*
X145826715Y-66724849D01*
X145505000Y-66857779D01*
X145258644Y-67103705D01*
X145125152Y-67425188D01*
X145124849Y-67773285D01*
X145257779Y-68095000D01*
X145503705Y-68341356D01*
X145705241Y-68425041D01*
X145505000Y-68507779D01*
X145258644Y-68753705D01*
X145125152Y-69075188D01*
X145124849Y-69423285D01*
X145138928Y-69457359D01*
X145138060Y-69458658D01*
X145100000Y-69650000D01*
X145100000Y-70045366D01*
X145028097Y-70117144D01*
X144925117Y-70365145D01*
X144924883Y-70633677D01*
X129955470Y-70633677D01*
X129934855Y-70625117D01*
X129666323Y-70624883D01*
X129652753Y-70630490D01*
X129642221Y-70605000D01*
X129396295Y-70358644D01*
X129074812Y-70225152D01*
X128726715Y-70224849D01*
X128405000Y-70357779D01*
X128158644Y-70603705D01*
X128025152Y-70925188D01*
X128024849Y-71273285D01*
X120425000Y-71273285D01*
X120425000Y-68891128D01*
X121524657Y-68891128D01*
X121824700Y-69617286D01*
X122379791Y-70173348D01*
X123105425Y-70474657D01*
X123891128Y-70475343D01*
X124617286Y-70175300D01*
X125173348Y-69620209D01*
X125474657Y-68894575D01*
X125475343Y-68108872D01*
X125175300Y-67382714D01*
X124620209Y-66826652D01*
X124155473Y-66633677D01*
X155824883Y-66633677D01*
X155927429Y-66881857D01*
X156117144Y-67071903D01*
X156365145Y-67174883D01*
X156633677Y-67175117D01*
X156881857Y-67072571D01*
X156941339Y-67013193D01*
X157057779Y-67295000D01*
X157303705Y-67541356D01*
X157625188Y-67674848D01*
X157973285Y-67675151D01*
X158295000Y-67542221D01*
X158541356Y-67296295D01*
X158674848Y-66974812D01*
X158675151Y-66626715D01*
X158542221Y-66305000D01*
X158296295Y-66058644D01*
X157974812Y-65925152D01*
X157626715Y-65924849D01*
X157444836Y-66000000D01*
X156954634Y-66000000D01*
X156882856Y-65928097D01*
X156634855Y-65825117D01*
X156366323Y-65824883D01*
X156118143Y-65927429D01*
X155928097Y-66117144D01*
X155825117Y-66365145D01*
X155824883Y-66633677D01*
X124155473Y-66633677D01*
X123894575Y-66525343D01*
X123108872Y-66524657D01*
X122382714Y-66824700D01*
X121826652Y-67379791D01*
X121525343Y-68105425D01*
X121524657Y-68891128D01*
X120425000Y-68891128D01*
X120425000Y-68541860D01*
X120666764Y-67326434D01*
X121331534Y-66331534D01*
X122326435Y-65666763D01*
X123541860Y-65425000D01*
X166458140Y-65425000D01*
X167673566Y-65666764D01*
X167673566Y-65666764D01*
G37*
X167673566Y-65666764D02*
X168668466Y-66331534D01*
X169333237Y-67326435D01*
X169575000Y-68541860D01*
X169575000Y-75875000D01*
X126500000Y-75875000D01*
X126452165Y-75884515D01*
X126411612Y-75911612D01*
X126384515Y-75952165D01*
X126375000Y-76000000D01*
X126375000Y-90174891D01*
X126287107Y-90174814D01*
X125891857Y-90338128D01*
X125604485Y-90625000D01*
X124749994Y-90625000D01*
X124510816Y-90672575D01*
X124308052Y-90808058D01*
X122258051Y-92858059D01*
X122258049Y-92858062D01*
X122138355Y-92977756D01*
X122018137Y-93027429D01*
X121828091Y-93217144D01*
X121725111Y-93465145D01*
X121724877Y-93733677D01*
X121827423Y-93981857D01*
X122017138Y-94171903D01*
X122265139Y-94274883D01*
X122533671Y-94275117D01*
X122781851Y-94172571D01*
X122971897Y-93982856D01*
X123022226Y-93861651D01*
X123141932Y-93741945D01*
X123141935Y-93741943D01*
X125008878Y-91875000D01*
X125604956Y-91875000D01*
X125890267Y-92160809D01*
X126285231Y-92324813D01*
X126375000Y-92324891D01*
X126375000Y-92421904D01*
X126160936Y-92433859D01*
X125809102Y-92579593D01*
X125746991Y-92814557D01*
X126375000Y-93442566D01*
X126375000Y-93835718D01*
X126303424Y-93764142D01*
X126317566Y-93750000D01*
X125564557Y-92996991D01*
X125329593Y-93059102D01*
X125154290Y-93559589D01*
X125183859Y-94089064D01*
X125302297Y-94375000D01*
X124000000Y-94375000D01*
X123952165Y-94384515D01*
X123911612Y-94411612D01*
X123884515Y-94452165D01*
X123875000Y-94500000D01*
X123875000Y-100000000D01*
X123884515Y-100047835D01*
X123911612Y-100088388D01*
X123952165Y-100115485D01*
X124000000Y-100125000D01*
X132375000Y-100125000D01*
X132375000Y-100604921D01*
X132109733Y-100339191D01*
X131714769Y-100175187D01*
X131287107Y-100174814D01*
X130891857Y-100338128D01*
X130589191Y-100640267D01*
X130425187Y-101035231D01*
X130424814Y-101462893D01*
X130588128Y-101858143D01*
X130890267Y-102160809D01*
X131285231Y-102324813D01*
X131712893Y-102325186D01*
X132108143Y-102161872D01*
X132375000Y-101895480D01*
X132375000Y-103104921D01*
X132109733Y-102839191D01*
X131714769Y-102675187D01*
X131287107Y-102674814D01*
X130891857Y-102838128D01*
X130589191Y-103140267D01*
X130425187Y-103535231D01*
X130424814Y-103962893D01*
X130588128Y-104358143D01*
X130890267Y-104660809D01*
X131285231Y-104824813D01*
X131712893Y-104825186D01*
X132108143Y-104661872D01*
X132410809Y-104359733D01*
X132574813Y-103964769D01*
X132575109Y-103625000D01*
X135375000Y-103625000D01*
X135375000Y-113417684D01*
X135262855Y-113371117D01*
X134994323Y-113370883D01*
X134746143Y-113473429D01*
X134556097Y-113663144D01*
X134453117Y-113911145D01*
X134452883Y-114179677D01*
X134543919Y-114400000D01*
X131500000Y-114400000D01*
X131308658Y-114438060D01*
X131243686Y-114481474D01*
X131146447Y-114546446D01*
X130817893Y-114875000D01*
X120425000Y-114875000D01*
X120425000Y-113133677D01*
X129824883Y-113133677D01*
X129927429Y-113381857D01*
X130117144Y-113571903D01*
X130365145Y-113674883D01*
X130633677Y-113675117D01*
X130881857Y-113572571D01*
X130955688Y-113498869D01*
X131141342Y-113461940D01*
X131303553Y-113353553D01*
X131624761Y-113032346D01*
X131800000Y-113032346D01*
X131946317Y-113003242D01*
X132070359Y-112920359D01*
X132153242Y-112796317D01*
X132182346Y-112650000D01*
X132182346Y-112262851D01*
X132336632Y-112108565D01*
X132433000Y-111875911D01*
X132433000Y-111808250D01*
X132274750Y-111650000D01*
X131629000Y-111650000D01*
X131629000Y-111699000D01*
X131371000Y-111699000D01*
X131371000Y-111650000D01*
X130725250Y-111650000D01*
X130567000Y-111808250D01*
X130567000Y-111875911D01*
X130663368Y-112108565D01*
X130817654Y-112262851D01*
X130817654Y-112401023D01*
X130634855Y-112325117D01*
X130366323Y-112324883D01*
X130118143Y-112427429D01*
X129928097Y-112617144D01*
X129825117Y-112865145D01*
X129824883Y-113133677D01*
X120425000Y-113133677D01*
X120425000Y-111224089D01*
X130567000Y-111224089D01*
X130567000Y-111291750D01*
X130725250Y-111450000D01*
X131371000Y-111450000D01*
X131371000Y-110875250D01*
X131629000Y-110875250D01*
X131629000Y-111450000D01*
X132274750Y-111450000D01*
X132433000Y-111291750D01*
X132433000Y-111224089D01*
X132336632Y-110991435D01*
X132158566Y-110813369D01*
X131925912Y-110717000D01*
X131787250Y-110717000D01*
X131629000Y-110875250D01*
X131371000Y-110875250D01*
X131212750Y-110717000D01*
X131074088Y-110717000D01*
X130841434Y-110813369D01*
X130663368Y-110991435D01*
X130567000Y-111224089D01*
X120425000Y-111224089D01*
X120425000Y-108633677D01*
X129824883Y-108633677D01*
X129927429Y-108881857D01*
X130117144Y-109071903D01*
X130365145Y-109174883D01*
X130633677Y-109175117D01*
X130881857Y-109072571D01*
X130968130Y-108986448D01*
X131091342Y-108961940D01*
X131253553Y-108853553D01*
X131624760Y-108482346D01*
X131800000Y-108482346D01*
X131946317Y-108453242D01*
X132070359Y-108370359D01*
X132153242Y-108246317D01*
X132182346Y-108100000D01*
X132182346Y-107712851D01*
X132336632Y-107558565D01*
X132433000Y-107325911D01*
X132433000Y-107258250D01*
X132274750Y-107100000D01*
X131629000Y-107100000D01*
X131629000Y-107149000D01*
X131371000Y-107149000D01*
X131371000Y-107100000D01*
X130725250Y-107100000D01*
X130567000Y-107258250D01*
X130567000Y-107325911D01*
X130663368Y-107558565D01*
X130817654Y-107712851D01*
X130817654Y-107875240D01*
X130799436Y-107893458D01*
X130634855Y-107825117D01*
X130366323Y-107824883D01*
X130118143Y-107927429D01*
X129928097Y-108117144D01*
X129825117Y-108365145D01*
X129824883Y-108633677D01*
X120425000Y-108633677D01*
X120425000Y-106674089D01*
X130567000Y-106674089D01*
X130567000Y-106741750D01*
X130725250Y-106900000D01*
X131371000Y-106900000D01*
X131371000Y-106325250D01*
X131629000Y-106325250D01*
X131629000Y-106900000D01*
X132274750Y-106900000D01*
X132433000Y-106741750D01*
X132433000Y-106674089D01*
X132336632Y-106441435D01*
X132158566Y-106263369D01*
X131925912Y-106167000D01*
X131787250Y-106167000D01*
X131629000Y-106325250D01*
X131371000Y-106325250D01*
X131212750Y-106167000D01*
X131074088Y-106167000D01*
X130841434Y-106263369D01*
X130663368Y-106441435D01*
X130567000Y-106674089D01*
X120425000Y-106674089D01*
X120425000Y-103962893D01*
X125424814Y-103962893D01*
X125588128Y-104358143D01*
X125890267Y-104660809D01*
X126285231Y-104824813D01*
X126712893Y-104825186D01*
X127108143Y-104661872D01*
X127410809Y-104359733D01*
X127574813Y-103964769D01*
X127575186Y-103537107D01*
X127411872Y-103141857D01*
X127109733Y-102839191D01*
X126714769Y-102675187D01*
X126287107Y-102674814D01*
X125891857Y-102838128D01*
X125589191Y-103140267D01*
X125425187Y-103535231D01*
X125424814Y-103962893D01*
X120425000Y-103962893D01*
X120425000Y-101462893D01*
X125424814Y-101462893D01*
X125588128Y-101858143D01*
X125890267Y-102160809D01*
X126285231Y-102324813D01*
X126712893Y-102325186D01*
X127108143Y-102161872D01*
X127410809Y-101859733D01*
X127574813Y-101464769D01*
X127575186Y-101037107D01*
X127411872Y-100641857D01*
X127109733Y-100339191D01*
X126714769Y-100175187D01*
X126287107Y-100174814D01*
X125891857Y-100338128D01*
X125589191Y-100640267D01*
X125425187Y-101035231D01*
X125424814Y-101462893D01*
X120425000Y-101462893D01*
X120425000Y-73173285D01*
X135124849Y-73173285D01*
X135257779Y-73495000D01*
X135503705Y-73741356D01*
X135825188Y-73874848D01*
X135983271Y-73874986D01*
X136027429Y-73981857D01*
X136217144Y-74171903D01*
X136465145Y-74274883D01*
X136733677Y-74275117D01*
X136981857Y-74172571D01*
X137171903Y-73982856D01*
X137274883Y-73734855D01*
X137275117Y-73466323D01*
X137172571Y-73218143D01*
X136982856Y-73028097D01*
X136875015Y-72983317D01*
X136875151Y-72826715D01*
X136742221Y-72505000D01*
X136496295Y-72258644D01*
X136174812Y-72125152D01*
X135826715Y-72124849D01*
X135505000Y-72257779D01*
X135258644Y-72503705D01*
X135125152Y-72825188D01*
X135124849Y-73173285D01*
X120425000Y-73173285D01*
X120425000Y-71273285D01*
X128024849Y-71273285D01*
X128157779Y-71595000D01*
X128403705Y-71841356D01*
X128725188Y-71974848D01*
X129073285Y-71975151D01*
X129389700Y-71844411D01*
X129417144Y-71871903D01*
X129665145Y-71974883D01*
X129933677Y-71975117D01*
X130181857Y-71872571D01*
X130371903Y-71682856D01*
X130474883Y-71434855D01*
X130475117Y-71166323D01*
X130372571Y-70918143D01*
X130182856Y-70728097D01*
X129955470Y-70633677D01*
X144924883Y-70633677D01*
X145027429Y-70881857D01*
X145217144Y-71071903D01*
X145465145Y-71174883D01*
X145733677Y-71175117D01*
X145981857Y-71072571D01*
X146171903Y-70882856D01*
X146274883Y-70634855D01*
X146275117Y-70366323D01*
X146175148Y-70124381D01*
X146495000Y-69992221D01*
X146741356Y-69746295D01*
X146874848Y-69424812D01*
X146875094Y-69141128D01*
X164274657Y-69141128D01*
X164574700Y-69867286D01*
X165129791Y-70423348D01*
X165855425Y-70724657D01*
X166641128Y-70725343D01*
X167367286Y-70425300D01*
X167923348Y-69870209D01*
X168224657Y-69144575D01*
X168225343Y-68358872D01*
X167925300Y-67632714D01*
X167370209Y-67076652D01*
X166644575Y-66775343D01*
X165858872Y-66774657D01*
X165132714Y-67074700D01*
X164576652Y-67629791D01*
X164275343Y-68355425D01*
X164274657Y-69141128D01*
X146875094Y-69141128D01*
X146875151Y-69076715D01*
X146742221Y-68755000D01*
X146496295Y-68508644D01*
X146294759Y-68424959D01*
X146495000Y-68342221D01*
X146737645Y-68100000D01*
X147745366Y-68100000D01*
X147817144Y-68171903D01*
X148065145Y-68274883D01*
X148333677Y-68275117D01*
X148581857Y-68172571D01*
X148771903Y-67982856D01*
X148874883Y-67734855D01*
X148875117Y-67466323D01*
X148772571Y-67218143D01*
X148582856Y-67028097D01*
X148334855Y-66925117D01*
X148066323Y-66924883D01*
X147818143Y-67027429D01*
X147745445Y-67100000D01*
X146737230Y-67100000D01*
X146496295Y-66858644D01*
X146174812Y-66725152D01*
X145826715Y-66724849D01*
X145505000Y-66857779D01*
X145258644Y-67103705D01*
X145125152Y-67425188D01*
X145124849Y-67773285D01*
X145257779Y-68095000D01*
X145503705Y-68341356D01*
X145705241Y-68425041D01*
X145505000Y-68507779D01*
X145258644Y-68753705D01*
X145125152Y-69075188D01*
X145124849Y-69423285D01*
X145138928Y-69457359D01*
X145138060Y-69458658D01*
X145100000Y-69650000D01*
X145100000Y-70045366D01*
X145028097Y-70117144D01*
X144925117Y-70365145D01*
X144924883Y-70633677D01*
X129955470Y-70633677D01*
X129934855Y-70625117D01*
X129666323Y-70624883D01*
X129652753Y-70630490D01*
X129642221Y-70605000D01*
X129396295Y-70358644D01*
X129074812Y-70225152D01*
X128726715Y-70224849D01*
X128405000Y-70357779D01*
X128158644Y-70603705D01*
X128025152Y-70925188D01*
X128024849Y-71273285D01*
X120425000Y-71273285D01*
X120425000Y-68891128D01*
X121524657Y-68891128D01*
X121824700Y-69617286D01*
X122379791Y-70173348D01*
X123105425Y-70474657D01*
X123891128Y-70475343D01*
X124617286Y-70175300D01*
X125173348Y-69620209D01*
X125474657Y-68894575D01*
X125475343Y-68108872D01*
X125175300Y-67382714D01*
X124620209Y-66826652D01*
X124155473Y-66633677D01*
X155824883Y-66633677D01*
X155927429Y-66881857D01*
X156117144Y-67071903D01*
X156365145Y-67174883D01*
X156633677Y-67175117D01*
X156881857Y-67072571D01*
X156941339Y-67013193D01*
X157057779Y-67295000D01*
X157303705Y-67541356D01*
X157625188Y-67674848D01*
X157973285Y-67675151D01*
X158295000Y-67542221D01*
X158541356Y-67296295D01*
X158674848Y-66974812D01*
X158675151Y-66626715D01*
X158542221Y-66305000D01*
X158296295Y-66058644D01*
X157974812Y-65925152D01*
X157626715Y-65924849D01*
X157444836Y-66000000D01*
X156954634Y-66000000D01*
X156882856Y-65928097D01*
X156634855Y-65825117D01*
X156366323Y-65824883D01*
X156118143Y-65927429D01*
X155928097Y-66117144D01*
X155825117Y-66365145D01*
X155824883Y-66633677D01*
X124155473Y-66633677D01*
X123894575Y-66525343D01*
X123108872Y-66524657D01*
X122382714Y-66824700D01*
X121826652Y-67379791D01*
X121525343Y-68105425D01*
X121524657Y-68891128D01*
X120425000Y-68891128D01*
X120425000Y-68541860D01*
X120666764Y-67326434D01*
X121331534Y-66331534D01*
X122326435Y-65666763D01*
X123541860Y-65425000D01*
X166458140Y-65425000D01*
X167673566Y-65666764D01*
M02*
