G04 #@! TF.FileFunction,Drawing*
%FSLAX46Y46*%
G04 Gerber Fmt 4.6, Leading zero omitted, Abs format (unit mm)*
G04 Created by KiCad (PCBNEW 4.0.4+dfsg1-stable) date Sat Nov 19 08:28:01 2016*
%MOMM*%
%LPD*%
G01*
G04 APERTURE LIST*
%ADD10C,0.100000*%
%ADD11C,0.200000*%
G04 APERTURE END LIST*
D10*
D11*
X137285715Y-126220879D02*
X137333334Y-126173260D01*
X137428572Y-126125641D01*
X137666668Y-126125641D01*
X137761906Y-126173260D01*
X137809525Y-126220879D01*
X137857144Y-126316117D01*
X137857144Y-126411355D01*
X137809525Y-126554212D01*
X137238096Y-127125641D01*
X137857144Y-127125641D01*
X138333334Y-127078022D02*
X138333334Y-127125641D01*
X138285715Y-127220879D01*
X138238096Y-127268498D01*
X138952381Y-126125641D02*
X139047620Y-126125641D01*
X139142858Y-126173260D01*
X139190477Y-126220879D01*
X139238096Y-126316117D01*
X139285715Y-126506593D01*
X139285715Y-126744689D01*
X139238096Y-126935165D01*
X139190477Y-127030403D01*
X139142858Y-127078022D01*
X139047620Y-127125641D01*
X138952381Y-127125641D01*
X138857143Y-127078022D01*
X138809524Y-127030403D01*
X138761905Y-126935165D01*
X138714286Y-126744689D01*
X138714286Y-126506593D01*
X138761905Y-126316117D01*
X138809524Y-126220879D01*
X138857143Y-126173260D01*
X138952381Y-126125641D01*
X140476191Y-127125641D02*
X140476191Y-126458974D01*
X140476191Y-126554212D02*
X140523810Y-126506593D01*
X140619048Y-126458974D01*
X140761906Y-126458974D01*
X140857144Y-126506593D01*
X140904763Y-126601831D01*
X140904763Y-127125641D01*
X140904763Y-126601831D02*
X140952382Y-126506593D01*
X141047620Y-126458974D01*
X141190477Y-126458974D01*
X141285715Y-126506593D01*
X141333334Y-126601831D01*
X141333334Y-127125641D01*
X141809524Y-127125641D02*
X141809524Y-126458974D01*
X141809524Y-126554212D02*
X141857143Y-126506593D01*
X141952381Y-126458974D01*
X142095239Y-126458974D01*
X142190477Y-126506593D01*
X142238096Y-126601831D01*
X142238096Y-127125641D01*
X142238096Y-126601831D02*
X142285715Y-126506593D01*
X142380953Y-126458974D01*
X142523810Y-126458974D01*
X142619048Y-126506593D01*
X142666667Y-126601831D01*
X142666667Y-127125641D01*
X139000000Y-125323260D02*
X141000000Y-125323260D01*
X139000000Y-124250000D02*
X139000000Y-128023260D01*
X141000000Y-124250000D02*
X141000000Y-128023260D01*
X141000000Y-125323260D02*
X139873496Y-125909681D01*
X141000000Y-125323260D02*
X139873496Y-124736839D01*
X139000000Y-125323260D02*
X140126504Y-125909681D01*
X139000000Y-125323260D02*
X140126504Y-124736839D01*
X108197619Y-115142857D02*
X108150000Y-115095238D01*
X108102381Y-115000000D01*
X108102381Y-114761904D01*
X108150000Y-114666666D01*
X108197619Y-114619047D01*
X108292857Y-114571428D01*
X108388095Y-114571428D01*
X108530952Y-114619047D01*
X109102381Y-115190476D01*
X109102381Y-114571428D01*
X108530952Y-114000000D02*
X108483333Y-114095238D01*
X108435714Y-114142857D01*
X108340476Y-114190476D01*
X108292857Y-114190476D01*
X108197619Y-114142857D01*
X108150000Y-114095238D01*
X108102381Y-114000000D01*
X108102381Y-113809523D01*
X108150000Y-113714285D01*
X108197619Y-113666666D01*
X108292857Y-113619047D01*
X108340476Y-113619047D01*
X108435714Y-113666666D01*
X108483333Y-113714285D01*
X108530952Y-113809523D01*
X108530952Y-114000000D01*
X108578571Y-114095238D01*
X108626190Y-114142857D01*
X108721429Y-114190476D01*
X108911905Y-114190476D01*
X109007143Y-114142857D01*
X109054762Y-114095238D01*
X109102381Y-114000000D01*
X109102381Y-113809523D01*
X109054762Y-113714285D01*
X109007143Y-113666666D01*
X108911905Y-113619047D01*
X108721429Y-113619047D01*
X108626190Y-113666666D01*
X108578571Y-113714285D01*
X108530952Y-113809523D01*
X109054762Y-113142857D02*
X109102381Y-113142857D01*
X109197619Y-113190476D01*
X109245238Y-113238095D01*
X108102381Y-112523810D02*
X108102381Y-112428571D01*
X108150000Y-112333333D01*
X108197619Y-112285714D01*
X108292857Y-112238095D01*
X108483333Y-112190476D01*
X108721429Y-112190476D01*
X108911905Y-112238095D01*
X109007143Y-112285714D01*
X109054762Y-112333333D01*
X109102381Y-112428571D01*
X109102381Y-112523810D01*
X109054762Y-112619048D01*
X109007143Y-112666667D01*
X108911905Y-112714286D01*
X108721429Y-112761905D01*
X108483333Y-112761905D01*
X108292857Y-112714286D01*
X108197619Y-112666667D01*
X108150000Y-112619048D01*
X108102381Y-112523810D01*
X108102381Y-111571429D02*
X108102381Y-111476190D01*
X108150000Y-111380952D01*
X108197619Y-111333333D01*
X108292857Y-111285714D01*
X108483333Y-111238095D01*
X108721429Y-111238095D01*
X108911905Y-111285714D01*
X109007143Y-111333333D01*
X109054762Y-111380952D01*
X109102381Y-111476190D01*
X109102381Y-111571429D01*
X109054762Y-111666667D01*
X109007143Y-111714286D01*
X108911905Y-111761905D01*
X108721429Y-111809524D01*
X108483333Y-111809524D01*
X108292857Y-111761905D01*
X108197619Y-111714286D01*
X108150000Y-111666667D01*
X108102381Y-111571429D01*
X108102381Y-110619048D02*
X108102381Y-110523809D01*
X108150000Y-110428571D01*
X108197619Y-110380952D01*
X108292857Y-110333333D01*
X108483333Y-110285714D01*
X108721429Y-110285714D01*
X108911905Y-110333333D01*
X109007143Y-110380952D01*
X109054762Y-110428571D01*
X109102381Y-110523809D01*
X109102381Y-110619048D01*
X109054762Y-110714286D01*
X109007143Y-110761905D01*
X108911905Y-110809524D01*
X108721429Y-110857143D01*
X108483333Y-110857143D01*
X108292857Y-110809524D01*
X108197619Y-110761905D01*
X108150000Y-110714286D01*
X108102381Y-110619048D01*
X109102381Y-109095238D02*
X108435714Y-109095238D01*
X108530952Y-109095238D02*
X108483333Y-109047619D01*
X108435714Y-108952381D01*
X108435714Y-108809523D01*
X108483333Y-108714285D01*
X108578571Y-108666666D01*
X109102381Y-108666666D01*
X108578571Y-108666666D02*
X108483333Y-108619047D01*
X108435714Y-108523809D01*
X108435714Y-108380952D01*
X108483333Y-108285714D01*
X108578571Y-108238095D01*
X109102381Y-108238095D01*
X109102381Y-107761905D02*
X108435714Y-107761905D01*
X108530952Y-107761905D02*
X108483333Y-107714286D01*
X108435714Y-107619048D01*
X108435714Y-107476190D01*
X108483333Y-107380952D01*
X108578571Y-107333333D01*
X109102381Y-107333333D01*
X108578571Y-107333333D02*
X108483333Y-107285714D01*
X108435714Y-107190476D01*
X108435714Y-107047619D01*
X108483333Y-106952381D01*
X108578571Y-106904762D01*
X109102381Y-106904762D01*
X110000000Y-125000000D02*
X110000000Y-97000000D01*
X120000000Y-125000000D02*
X107300000Y-125000000D01*
X120000000Y-97000000D02*
X107300000Y-97000000D01*
X110000000Y-97000000D02*
X110586421Y-98126504D01*
X110000000Y-97000000D02*
X109413579Y-98126504D01*
X110000000Y-125000000D02*
X110586421Y-123873496D01*
X110000000Y-125000000D02*
X109413579Y-123873496D01*
X180552381Y-98666666D02*
X180552381Y-98857143D01*
X180600000Y-98952381D01*
X180647619Y-99000000D01*
X180790476Y-99095238D01*
X180980952Y-99142857D01*
X181361905Y-99142857D01*
X181457143Y-99095238D01*
X181504762Y-99047619D01*
X181552381Y-98952381D01*
X181552381Y-98761904D01*
X181504762Y-98666666D01*
X181457143Y-98619047D01*
X181361905Y-98571428D01*
X181123810Y-98571428D01*
X181028571Y-98619047D01*
X180980952Y-98666666D01*
X180933333Y-98761904D01*
X180933333Y-98952381D01*
X180980952Y-99047619D01*
X181028571Y-99095238D01*
X181123810Y-99142857D01*
X180552381Y-97952381D02*
X180552381Y-97857142D01*
X180600000Y-97761904D01*
X180647619Y-97714285D01*
X180742857Y-97666666D01*
X180933333Y-97619047D01*
X181171429Y-97619047D01*
X181361905Y-97666666D01*
X181457143Y-97714285D01*
X181504762Y-97761904D01*
X181552381Y-97857142D01*
X181552381Y-97952381D01*
X181504762Y-98047619D01*
X181457143Y-98095238D01*
X181361905Y-98142857D01*
X181171429Y-98190476D01*
X180933333Y-98190476D01*
X180742857Y-98142857D01*
X180647619Y-98095238D01*
X180600000Y-98047619D01*
X180552381Y-97952381D01*
X181504762Y-97142857D02*
X181552381Y-97142857D01*
X181647619Y-97190476D01*
X181695238Y-97238095D01*
X180552381Y-96523810D02*
X180552381Y-96428571D01*
X180600000Y-96333333D01*
X180647619Y-96285714D01*
X180742857Y-96238095D01*
X180933333Y-96190476D01*
X181171429Y-96190476D01*
X181361905Y-96238095D01*
X181457143Y-96285714D01*
X181504762Y-96333333D01*
X181552381Y-96428571D01*
X181552381Y-96523810D01*
X181504762Y-96619048D01*
X181457143Y-96666667D01*
X181361905Y-96714286D01*
X181171429Y-96761905D01*
X180933333Y-96761905D01*
X180742857Y-96714286D01*
X180647619Y-96666667D01*
X180600000Y-96619048D01*
X180552381Y-96523810D01*
X180552381Y-95571429D02*
X180552381Y-95476190D01*
X180600000Y-95380952D01*
X180647619Y-95333333D01*
X180742857Y-95285714D01*
X180933333Y-95238095D01*
X181171429Y-95238095D01*
X181361905Y-95285714D01*
X181457143Y-95333333D01*
X181504762Y-95380952D01*
X181552381Y-95476190D01*
X181552381Y-95571429D01*
X181504762Y-95666667D01*
X181457143Y-95714286D01*
X181361905Y-95761905D01*
X181171429Y-95809524D01*
X180933333Y-95809524D01*
X180742857Y-95761905D01*
X180647619Y-95714286D01*
X180600000Y-95666667D01*
X180552381Y-95571429D01*
X180552381Y-94619048D02*
X180552381Y-94523809D01*
X180600000Y-94428571D01*
X180647619Y-94380952D01*
X180742857Y-94333333D01*
X180933333Y-94285714D01*
X181171429Y-94285714D01*
X181361905Y-94333333D01*
X181457143Y-94380952D01*
X181504762Y-94428571D01*
X181552381Y-94523809D01*
X181552381Y-94619048D01*
X181504762Y-94714286D01*
X181457143Y-94761905D01*
X181361905Y-94809524D01*
X181171429Y-94857143D01*
X180933333Y-94857143D01*
X180742857Y-94809524D01*
X180647619Y-94761905D01*
X180600000Y-94714286D01*
X180552381Y-94619048D01*
X181552381Y-93095238D02*
X180885714Y-93095238D01*
X180980952Y-93095238D02*
X180933333Y-93047619D01*
X180885714Y-92952381D01*
X180885714Y-92809523D01*
X180933333Y-92714285D01*
X181028571Y-92666666D01*
X181552381Y-92666666D01*
X181028571Y-92666666D02*
X180933333Y-92619047D01*
X180885714Y-92523809D01*
X180885714Y-92380952D01*
X180933333Y-92285714D01*
X181028571Y-92238095D01*
X181552381Y-92238095D01*
X181552381Y-91761905D02*
X180885714Y-91761905D01*
X180980952Y-91761905D02*
X180933333Y-91714286D01*
X180885714Y-91619048D01*
X180885714Y-91476190D01*
X180933333Y-91380952D01*
X181028571Y-91333333D01*
X181552381Y-91333333D01*
X181028571Y-91333333D02*
X180933333Y-91285714D01*
X180885714Y-91190476D01*
X180885714Y-91047619D01*
X180933333Y-90952381D01*
X181028571Y-90904762D01*
X181552381Y-90904762D01*
X179750000Y-125000000D02*
X179750000Y-65000000D01*
X170000000Y-125000000D02*
X182450000Y-125000000D01*
X170000000Y-65000000D02*
X182450000Y-65000000D01*
X179750000Y-65000000D02*
X180336421Y-66126504D01*
X179750000Y-65000000D02*
X179163579Y-66126504D01*
X179750000Y-125000000D02*
X180336421Y-123873496D01*
X179750000Y-125000000D02*
X179163579Y-123873496D01*
X184000000Y-125000000D02*
X184000000Y-55000000D01*
X180000000Y-51000000D02*
X110000000Y-51000000D01*
X106000000Y-125000000D02*
X106000000Y-55000000D01*
X180000000Y-129000000D02*
X110000000Y-129000000D01*
X106000000Y-125000000D02*
G75*
G03X110000000Y-129000000I4000000J0D01*
G01*
X180000000Y-129000000D02*
G75*
G03X184000000Y-125000000I0J4000000D01*
G01*
X184000000Y-55000000D02*
G75*
G03X180000000Y-51000000I-4000000J0D01*
G01*
X110000000Y-51000000D02*
G75*
G03X106000000Y-55000000I0J-4000000D01*
G01*
X105000000Y-125000000D02*
X105000000Y-55000000D01*
X105000000Y-125000000D02*
G75*
G03X110000000Y-130000000I5000000J0D01*
G01*
X110000000Y-50000000D02*
G75*
G03X105000000Y-55000000I0J-5000000D01*
G01*
X180000000Y-50000000D02*
X110000000Y-50000000D01*
X185000000Y-55000000D02*
G75*
G03X180000000Y-50000000I-5000000J0D01*
G01*
X185000000Y-125000000D02*
X185000000Y-55000000D01*
X180000000Y-130000000D02*
G75*
G03X185000000Y-125000000I0J5000000D01*
G01*
X180000000Y-130000000D02*
X110000000Y-130000000D01*
X147500000Y-60000000D02*
G75*
G03X147500000Y-60000000I-2500000J0D01*
G01*
X147500000Y-120000000D02*
G75*
G03X147500000Y-120000000I-2500000J0D01*
G01*
X177500000Y-90000000D02*
G75*
G03X177500000Y-90000000I-2500000J0D01*
G01*
X117500000Y-90000000D02*
G75*
G03X117500000Y-90000000I-2500000J0D01*
G01*
X175000000Y-90000000D02*
G75*
G03X175000000Y-90000000I-30000000J0D01*
G01*
X111102381Y-93571428D02*
X111102381Y-94142857D01*
X111102381Y-93857143D02*
X110102381Y-93857143D01*
X110245238Y-93952381D01*
X110340476Y-94047619D01*
X110388095Y-94142857D01*
X110435714Y-92714285D02*
X111102381Y-92714285D01*
X110054762Y-92952381D02*
X110769048Y-93190476D01*
X110769048Y-92571428D01*
X111054762Y-92142857D02*
X111102381Y-92142857D01*
X111197619Y-92190476D01*
X111245238Y-92238095D01*
X110102381Y-91523810D02*
X110102381Y-91428571D01*
X110150000Y-91333333D01*
X110197619Y-91285714D01*
X110292857Y-91238095D01*
X110483333Y-91190476D01*
X110721429Y-91190476D01*
X110911905Y-91238095D01*
X111007143Y-91285714D01*
X111054762Y-91333333D01*
X111102381Y-91428571D01*
X111102381Y-91523810D01*
X111054762Y-91619048D01*
X111007143Y-91666667D01*
X110911905Y-91714286D01*
X110721429Y-91761905D01*
X110483333Y-91761905D01*
X110292857Y-91714286D01*
X110197619Y-91666667D01*
X110150000Y-91619048D01*
X110102381Y-91523810D01*
X110102381Y-90571429D02*
X110102381Y-90476190D01*
X110150000Y-90380952D01*
X110197619Y-90333333D01*
X110292857Y-90285714D01*
X110483333Y-90238095D01*
X110721429Y-90238095D01*
X110911905Y-90285714D01*
X111007143Y-90333333D01*
X111054762Y-90380952D01*
X111102381Y-90476190D01*
X111102381Y-90571429D01*
X111054762Y-90666667D01*
X111007143Y-90714286D01*
X110911905Y-90761905D01*
X110721429Y-90809524D01*
X110483333Y-90809524D01*
X110292857Y-90761905D01*
X110197619Y-90714286D01*
X110150000Y-90666667D01*
X110102381Y-90571429D01*
X110102381Y-89619048D02*
X110102381Y-89523809D01*
X110150000Y-89428571D01*
X110197619Y-89380952D01*
X110292857Y-89333333D01*
X110483333Y-89285714D01*
X110721429Y-89285714D01*
X110911905Y-89333333D01*
X111007143Y-89380952D01*
X111054762Y-89428571D01*
X111102381Y-89523809D01*
X111102381Y-89619048D01*
X111054762Y-89714286D01*
X111007143Y-89761905D01*
X110911905Y-89809524D01*
X110721429Y-89857143D01*
X110483333Y-89857143D01*
X110292857Y-89809524D01*
X110197619Y-89761905D01*
X110150000Y-89714286D01*
X110102381Y-89619048D01*
X111102381Y-88095238D02*
X110435714Y-88095238D01*
X110530952Y-88095238D02*
X110483333Y-88047619D01*
X110435714Y-87952381D01*
X110435714Y-87809523D01*
X110483333Y-87714285D01*
X110578571Y-87666666D01*
X111102381Y-87666666D01*
X110578571Y-87666666D02*
X110483333Y-87619047D01*
X110435714Y-87523809D01*
X110435714Y-87380952D01*
X110483333Y-87285714D01*
X110578571Y-87238095D01*
X111102381Y-87238095D01*
X111102381Y-86761905D02*
X110435714Y-86761905D01*
X110530952Y-86761905D02*
X110483333Y-86714286D01*
X110435714Y-86619048D01*
X110435714Y-86476190D01*
X110483333Y-86380952D01*
X110578571Y-86333333D01*
X111102381Y-86333333D01*
X110578571Y-86333333D02*
X110483333Y-86285714D01*
X110435714Y-86190476D01*
X110435714Y-86047619D01*
X110483333Y-85952381D01*
X110578571Y-85904762D01*
X111102381Y-85904762D01*
X112000000Y-97000000D02*
X112000000Y-83000000D01*
X121000000Y-97000000D02*
X109300000Y-97000000D01*
X121000000Y-83000000D02*
X109300000Y-83000000D01*
X112000000Y-83000000D02*
X112586421Y-84126504D01*
X112000000Y-83000000D02*
X111413579Y-84126504D01*
X112000000Y-97000000D02*
X112586421Y-95873496D01*
X112000000Y-97000000D02*
X111413579Y-95873496D01*
X141380953Y-133302381D02*
X140904762Y-133302381D01*
X140857143Y-133778571D01*
X140904762Y-133730952D01*
X141000000Y-133683333D01*
X141238096Y-133683333D01*
X141333334Y-133730952D01*
X141380953Y-133778571D01*
X141428572Y-133873810D01*
X141428572Y-134111905D01*
X141380953Y-134207143D01*
X141333334Y-134254762D01*
X141238096Y-134302381D01*
X141000000Y-134302381D01*
X140904762Y-134254762D01*
X140857143Y-134207143D01*
X142047619Y-133302381D02*
X142142858Y-133302381D01*
X142238096Y-133350000D01*
X142285715Y-133397619D01*
X142333334Y-133492857D01*
X142380953Y-133683333D01*
X142380953Y-133921429D01*
X142333334Y-134111905D01*
X142285715Y-134207143D01*
X142238096Y-134254762D01*
X142142858Y-134302381D01*
X142047619Y-134302381D01*
X141952381Y-134254762D01*
X141904762Y-134207143D01*
X141857143Y-134111905D01*
X141809524Y-133921429D01*
X141809524Y-133683333D01*
X141857143Y-133492857D01*
X141904762Y-133397619D01*
X141952381Y-133350000D01*
X142047619Y-133302381D01*
X142857143Y-134254762D02*
X142857143Y-134302381D01*
X142809524Y-134397619D01*
X142761905Y-134445238D01*
X143476190Y-133302381D02*
X143571429Y-133302381D01*
X143666667Y-133350000D01*
X143714286Y-133397619D01*
X143761905Y-133492857D01*
X143809524Y-133683333D01*
X143809524Y-133921429D01*
X143761905Y-134111905D01*
X143714286Y-134207143D01*
X143666667Y-134254762D01*
X143571429Y-134302381D01*
X143476190Y-134302381D01*
X143380952Y-134254762D01*
X143333333Y-134207143D01*
X143285714Y-134111905D01*
X143238095Y-133921429D01*
X143238095Y-133683333D01*
X143285714Y-133492857D01*
X143333333Y-133397619D01*
X143380952Y-133350000D01*
X143476190Y-133302381D01*
X144428571Y-133302381D02*
X144523810Y-133302381D01*
X144619048Y-133350000D01*
X144666667Y-133397619D01*
X144714286Y-133492857D01*
X144761905Y-133683333D01*
X144761905Y-133921429D01*
X144714286Y-134111905D01*
X144666667Y-134207143D01*
X144619048Y-134254762D01*
X144523810Y-134302381D01*
X144428571Y-134302381D01*
X144333333Y-134254762D01*
X144285714Y-134207143D01*
X144238095Y-134111905D01*
X144190476Y-133921429D01*
X144190476Y-133683333D01*
X144238095Y-133492857D01*
X144285714Y-133397619D01*
X144333333Y-133350000D01*
X144428571Y-133302381D01*
X145380952Y-133302381D02*
X145476191Y-133302381D01*
X145571429Y-133350000D01*
X145619048Y-133397619D01*
X145666667Y-133492857D01*
X145714286Y-133683333D01*
X145714286Y-133921429D01*
X145666667Y-134111905D01*
X145619048Y-134207143D01*
X145571429Y-134254762D01*
X145476191Y-134302381D01*
X145380952Y-134302381D01*
X145285714Y-134254762D01*
X145238095Y-134207143D01*
X145190476Y-134111905D01*
X145142857Y-133921429D01*
X145142857Y-133683333D01*
X145190476Y-133492857D01*
X145238095Y-133397619D01*
X145285714Y-133350000D01*
X145380952Y-133302381D01*
X146904762Y-134302381D02*
X146904762Y-133635714D01*
X146904762Y-133730952D02*
X146952381Y-133683333D01*
X147047619Y-133635714D01*
X147190477Y-133635714D01*
X147285715Y-133683333D01*
X147333334Y-133778571D01*
X147333334Y-134302381D01*
X147333334Y-133778571D02*
X147380953Y-133683333D01*
X147476191Y-133635714D01*
X147619048Y-133635714D01*
X147714286Y-133683333D01*
X147761905Y-133778571D01*
X147761905Y-134302381D01*
X148238095Y-134302381D02*
X148238095Y-133635714D01*
X148238095Y-133730952D02*
X148285714Y-133683333D01*
X148380952Y-133635714D01*
X148523810Y-133635714D01*
X148619048Y-133683333D01*
X148666667Y-133778571D01*
X148666667Y-134302381D01*
X148666667Y-133778571D02*
X148714286Y-133683333D01*
X148809524Y-133635714D01*
X148952381Y-133635714D01*
X149047619Y-133683333D01*
X149095238Y-133778571D01*
X149095238Y-134302381D01*
X120000000Y-132500000D02*
X170000000Y-132500000D01*
X120000000Y-125000000D02*
X120000000Y-135200000D01*
X170000000Y-125000000D02*
X170000000Y-135200000D01*
X170000000Y-132500000D02*
X168873496Y-133086421D01*
X170000000Y-132500000D02*
X168873496Y-131913579D01*
X120000000Y-132500000D02*
X121126504Y-133086421D01*
X120000000Y-132500000D02*
X121126504Y-131913579D01*
X109102381Y-77571428D02*
X109102381Y-78142857D01*
X109102381Y-77857143D02*
X108102381Y-77857143D01*
X108245238Y-77952381D01*
X108340476Y-78047619D01*
X108388095Y-78142857D01*
X108530952Y-77000000D02*
X108483333Y-77095238D01*
X108435714Y-77142857D01*
X108340476Y-77190476D01*
X108292857Y-77190476D01*
X108197619Y-77142857D01*
X108150000Y-77095238D01*
X108102381Y-77000000D01*
X108102381Y-76809523D01*
X108150000Y-76714285D01*
X108197619Y-76666666D01*
X108292857Y-76619047D01*
X108340476Y-76619047D01*
X108435714Y-76666666D01*
X108483333Y-76714285D01*
X108530952Y-76809523D01*
X108530952Y-77000000D01*
X108578571Y-77095238D01*
X108626190Y-77142857D01*
X108721429Y-77190476D01*
X108911905Y-77190476D01*
X109007143Y-77142857D01*
X109054762Y-77095238D01*
X109102381Y-77000000D01*
X109102381Y-76809523D01*
X109054762Y-76714285D01*
X109007143Y-76666666D01*
X108911905Y-76619047D01*
X108721429Y-76619047D01*
X108626190Y-76666666D01*
X108578571Y-76714285D01*
X108530952Y-76809523D01*
X109054762Y-76142857D02*
X109102381Y-76142857D01*
X109197619Y-76190476D01*
X109245238Y-76238095D01*
X108102381Y-75523810D02*
X108102381Y-75428571D01*
X108150000Y-75333333D01*
X108197619Y-75285714D01*
X108292857Y-75238095D01*
X108483333Y-75190476D01*
X108721429Y-75190476D01*
X108911905Y-75238095D01*
X109007143Y-75285714D01*
X109054762Y-75333333D01*
X109102381Y-75428571D01*
X109102381Y-75523810D01*
X109054762Y-75619048D01*
X109007143Y-75666667D01*
X108911905Y-75714286D01*
X108721429Y-75761905D01*
X108483333Y-75761905D01*
X108292857Y-75714286D01*
X108197619Y-75666667D01*
X108150000Y-75619048D01*
X108102381Y-75523810D01*
X108102381Y-74571429D02*
X108102381Y-74476190D01*
X108150000Y-74380952D01*
X108197619Y-74333333D01*
X108292857Y-74285714D01*
X108483333Y-74238095D01*
X108721429Y-74238095D01*
X108911905Y-74285714D01*
X109007143Y-74333333D01*
X109054762Y-74380952D01*
X109102381Y-74476190D01*
X109102381Y-74571429D01*
X109054762Y-74666667D01*
X109007143Y-74714286D01*
X108911905Y-74761905D01*
X108721429Y-74809524D01*
X108483333Y-74809524D01*
X108292857Y-74761905D01*
X108197619Y-74714286D01*
X108150000Y-74666667D01*
X108102381Y-74571429D01*
X108102381Y-73619048D02*
X108102381Y-73523809D01*
X108150000Y-73428571D01*
X108197619Y-73380952D01*
X108292857Y-73333333D01*
X108483333Y-73285714D01*
X108721429Y-73285714D01*
X108911905Y-73333333D01*
X109007143Y-73380952D01*
X109054762Y-73428571D01*
X109102381Y-73523809D01*
X109102381Y-73619048D01*
X109054762Y-73714286D01*
X109007143Y-73761905D01*
X108911905Y-73809524D01*
X108721429Y-73857143D01*
X108483333Y-73857143D01*
X108292857Y-73809524D01*
X108197619Y-73761905D01*
X108150000Y-73714286D01*
X108102381Y-73619048D01*
X109102381Y-72095238D02*
X108435714Y-72095238D01*
X108530952Y-72095238D02*
X108483333Y-72047619D01*
X108435714Y-71952381D01*
X108435714Y-71809523D01*
X108483333Y-71714285D01*
X108578571Y-71666666D01*
X109102381Y-71666666D01*
X108578571Y-71666666D02*
X108483333Y-71619047D01*
X108435714Y-71523809D01*
X108435714Y-71380952D01*
X108483333Y-71285714D01*
X108578571Y-71238095D01*
X109102381Y-71238095D01*
X109102381Y-70761905D02*
X108435714Y-70761905D01*
X108530952Y-70761905D02*
X108483333Y-70714286D01*
X108435714Y-70619048D01*
X108435714Y-70476190D01*
X108483333Y-70380952D01*
X108578571Y-70333333D01*
X109102381Y-70333333D01*
X108578571Y-70333333D02*
X108483333Y-70285714D01*
X108435714Y-70190476D01*
X108435714Y-70047619D01*
X108483333Y-69952381D01*
X108578571Y-69904762D01*
X109102381Y-69904762D01*
X110000000Y-83000000D02*
X110000000Y-65000000D01*
X120000000Y-83000000D02*
X107300000Y-83000000D01*
X120000000Y-65000000D02*
X107300000Y-65000000D01*
X110000000Y-65000000D02*
X110586421Y-66126504D01*
X110000000Y-65000000D02*
X109413579Y-66126504D01*
X110000000Y-83000000D02*
X110586421Y-81873496D01*
X110000000Y-83000000D02*
X109413579Y-81873496D01*
X141333334Y-138302381D02*
X141142857Y-138302381D01*
X141047619Y-138350000D01*
X141000000Y-138397619D01*
X140904762Y-138540476D01*
X140857143Y-138730952D01*
X140857143Y-139111905D01*
X140904762Y-139207143D01*
X140952381Y-139254762D01*
X141047619Y-139302381D01*
X141238096Y-139302381D01*
X141333334Y-139254762D01*
X141380953Y-139207143D01*
X141428572Y-139111905D01*
X141428572Y-138873810D01*
X141380953Y-138778571D01*
X141333334Y-138730952D01*
X141238096Y-138683333D01*
X141047619Y-138683333D01*
X140952381Y-138730952D01*
X140904762Y-138778571D01*
X140857143Y-138873810D01*
X142047619Y-138302381D02*
X142142858Y-138302381D01*
X142238096Y-138350000D01*
X142285715Y-138397619D01*
X142333334Y-138492857D01*
X142380953Y-138683333D01*
X142380953Y-138921429D01*
X142333334Y-139111905D01*
X142285715Y-139207143D01*
X142238096Y-139254762D01*
X142142858Y-139302381D01*
X142047619Y-139302381D01*
X141952381Y-139254762D01*
X141904762Y-139207143D01*
X141857143Y-139111905D01*
X141809524Y-138921429D01*
X141809524Y-138683333D01*
X141857143Y-138492857D01*
X141904762Y-138397619D01*
X141952381Y-138350000D01*
X142047619Y-138302381D01*
X142857143Y-139254762D02*
X142857143Y-139302381D01*
X142809524Y-139397619D01*
X142761905Y-139445238D01*
X143476190Y-138302381D02*
X143571429Y-138302381D01*
X143666667Y-138350000D01*
X143714286Y-138397619D01*
X143761905Y-138492857D01*
X143809524Y-138683333D01*
X143809524Y-138921429D01*
X143761905Y-139111905D01*
X143714286Y-139207143D01*
X143666667Y-139254762D01*
X143571429Y-139302381D01*
X143476190Y-139302381D01*
X143380952Y-139254762D01*
X143333333Y-139207143D01*
X143285714Y-139111905D01*
X143238095Y-138921429D01*
X143238095Y-138683333D01*
X143285714Y-138492857D01*
X143333333Y-138397619D01*
X143380952Y-138350000D01*
X143476190Y-138302381D01*
X144428571Y-138302381D02*
X144523810Y-138302381D01*
X144619048Y-138350000D01*
X144666667Y-138397619D01*
X144714286Y-138492857D01*
X144761905Y-138683333D01*
X144761905Y-138921429D01*
X144714286Y-139111905D01*
X144666667Y-139207143D01*
X144619048Y-139254762D01*
X144523810Y-139302381D01*
X144428571Y-139302381D01*
X144333333Y-139254762D01*
X144285714Y-139207143D01*
X144238095Y-139111905D01*
X144190476Y-138921429D01*
X144190476Y-138683333D01*
X144238095Y-138492857D01*
X144285714Y-138397619D01*
X144333333Y-138350000D01*
X144428571Y-138302381D01*
X145380952Y-138302381D02*
X145476191Y-138302381D01*
X145571429Y-138350000D01*
X145619048Y-138397619D01*
X145666667Y-138492857D01*
X145714286Y-138683333D01*
X145714286Y-138921429D01*
X145666667Y-139111905D01*
X145619048Y-139207143D01*
X145571429Y-139254762D01*
X145476191Y-139302381D01*
X145380952Y-139302381D01*
X145285714Y-139254762D01*
X145238095Y-139207143D01*
X145190476Y-139111905D01*
X145142857Y-138921429D01*
X145142857Y-138683333D01*
X145190476Y-138492857D01*
X145238095Y-138397619D01*
X145285714Y-138350000D01*
X145380952Y-138302381D01*
X146904762Y-139302381D02*
X146904762Y-138635714D01*
X146904762Y-138730952D02*
X146952381Y-138683333D01*
X147047619Y-138635714D01*
X147190477Y-138635714D01*
X147285715Y-138683333D01*
X147333334Y-138778571D01*
X147333334Y-139302381D01*
X147333334Y-138778571D02*
X147380953Y-138683333D01*
X147476191Y-138635714D01*
X147619048Y-138635714D01*
X147714286Y-138683333D01*
X147761905Y-138778571D01*
X147761905Y-139302381D01*
X148238095Y-139302381D02*
X148238095Y-138635714D01*
X148238095Y-138730952D02*
X148285714Y-138683333D01*
X148380952Y-138635714D01*
X148523810Y-138635714D01*
X148619048Y-138683333D01*
X148666667Y-138778571D01*
X148666667Y-139302381D01*
X148666667Y-138778571D02*
X148714286Y-138683333D01*
X148809524Y-138635714D01*
X148952381Y-138635714D01*
X149047619Y-138683333D01*
X149095238Y-138778571D01*
X149095238Y-139302381D01*
X115000000Y-137500000D02*
X175000000Y-137500000D01*
X115000000Y-90000000D02*
X115000000Y-140200000D01*
X175000000Y-90000000D02*
X175000000Y-140200000D01*
X175000000Y-137500000D02*
X173873496Y-138086421D01*
X175000000Y-137500000D02*
X173873496Y-136913579D01*
X115000000Y-137500000D02*
X116126504Y-138086421D01*
X115000000Y-137500000D02*
X116126504Y-136913579D01*
X112500000Y-90000000D02*
X117500000Y-90000000D01*
M02*
