G04 #@! TF.FileFunction,Copper,L2,Bot,Signal*
%FSLAX46Y46*%
G04 Gerber Fmt 4.6, Leading zero omitted, Abs format (unit mm)*
G04 Created by KiCad (PCBNEW 4.0.4+dfsg1-stable) date Thu Nov  3 14:07:57 2016*
%MOMM*%
%LPD*%
G01*
G04 APERTURE LIST*
%ADD10C,0.100000*%
%ADD11C,1.400000*%
%ADD12R,2.032000X1.727200*%
%ADD13O,2.032000X1.727200*%
%ADD14R,1.727200X2.032000*%
%ADD15O,1.727200X2.032000*%
%ADD16C,1.000760*%
%ADD17R,1.600000X2.500000*%
%ADD18C,0.600000*%
%ADD19C,0.500000*%
%ADD20C,0.250000*%
G04 APERTURE END LIST*
D10*
D11*
X148750000Y-80000000D03*
X146250000Y-80000000D03*
X143750000Y-80000000D03*
X141250000Y-80000000D03*
X148750000Y-85000000D03*
X146250000Y-85000000D03*
X143750000Y-85000000D03*
X141250000Y-85000000D03*
D12*
X122500000Y-99880000D03*
D13*
X122500000Y-102420000D03*
X122500000Y-104960000D03*
X122500000Y-107500000D03*
X122500000Y-110040000D03*
D14*
X137790000Y-122750000D03*
D15*
X135250000Y-122750000D03*
X132710000Y-122750000D03*
D16*
X133250000Y-98249300D03*
X133250000Y-96750700D03*
D17*
X145000000Y-122000000D03*
D18*
X145400000Y-121150000D03*
X145400000Y-122850000D03*
X145400000Y-122000000D03*
X144600000Y-121150000D03*
X144600000Y-122850000D03*
X144600000Y-122000000D03*
X125000000Y-122500000D03*
X125000000Y-117500000D03*
X130000000Y-117500000D03*
X132500000Y-110000000D03*
X135000000Y-117500000D03*
X160000000Y-120000000D03*
X152500000Y-120000000D03*
X157500000Y-105000000D03*
X152500000Y-105000000D03*
X157500000Y-100000000D03*
X167500000Y-105000000D03*
X167500000Y-100000000D03*
X162500000Y-110000000D03*
X162500000Y-105000000D03*
X162500000Y-100000000D03*
X162500000Y-95000000D03*
X127500000Y-95000000D03*
X167500000Y-80000000D03*
X167500000Y-75000000D03*
X167500000Y-70000000D03*
X162500000Y-70000000D03*
X162500000Y-75000000D03*
X162500000Y-80000000D03*
X162500000Y-85000000D03*
X152500000Y-85000000D03*
X157500000Y-90000000D03*
X157500000Y-85000000D03*
X152500000Y-90000000D03*
X137500000Y-85000000D03*
X132500000Y-85000000D03*
X127500000Y-85000000D03*
X154000000Y-68000000D03*
X132000000Y-73000000D03*
X148500000Y-76000000D03*
X142500000Y-77500000D03*
X137500000Y-80000000D03*
X122500000Y-80000000D03*
X125000000Y-67500000D03*
X130000000Y-67500000D03*
X135000000Y-67500000D03*
X140000000Y-67500000D03*
X156000000Y-81250000D03*
X147750000Y-104750000D03*
X147000000Y-115750000D03*
X143750000Y-115750000D03*
X143250000Y-93000000D03*
X154750000Y-92000000D03*
X138250000Y-92000000D03*
X131749942Y-100500000D03*
X129646805Y-101817483D03*
X150500000Y-109250000D03*
X151000000Y-111500000D03*
X152250000Y-110750000D03*
X151250000Y-108500000D03*
X151815694Y-107934306D03*
X153250000Y-109500000D03*
X152500000Y-106750000D03*
X157500000Y-106750000D03*
X147374990Y-97500000D03*
X148500000Y-93000000D03*
X140000000Y-115999990D03*
X152500000Y-100000000D03*
X140000000Y-115199977D03*
X151750000Y-100500000D03*
D19*
X125000000Y-117500000D02*
X125000000Y-122500000D01*
X130000000Y-117500000D02*
X125000000Y-117500000D01*
X135000000Y-117500000D02*
X130000000Y-117500000D01*
X135000000Y-117500000D02*
X135000000Y-112500000D01*
X135000000Y-112500000D02*
X132500000Y-110000000D01*
X141250000Y-116750000D02*
X135750000Y-116750000D01*
X135750000Y-116750000D02*
X135000000Y-117500000D01*
X143750000Y-114250000D02*
X141250000Y-116750000D01*
X149250000Y-114250000D02*
X143750000Y-114250000D01*
X152500000Y-117500000D02*
X149250000Y-114250000D01*
X152500000Y-120000000D02*
X152500000Y-117500000D01*
X152500000Y-120000000D02*
X160000000Y-120000000D01*
X162500000Y-110000000D02*
X152500000Y-120000000D01*
X162500000Y-105000000D02*
X157500000Y-105000000D01*
X157500000Y-100000000D02*
X152500000Y-105000000D01*
X162500000Y-100000000D02*
X157500000Y-100000000D01*
X162500000Y-105000000D02*
X167500000Y-105000000D01*
X162500000Y-100000000D02*
X167500000Y-100000000D01*
X162500000Y-105000000D02*
X162500000Y-110000000D01*
X162500000Y-100000000D02*
X162500000Y-105000000D01*
X162500000Y-95000000D02*
X162500000Y-100000000D01*
X127500000Y-85000000D02*
X127500000Y-95000000D01*
X167500000Y-75000000D02*
X167500000Y-80000000D01*
X167500000Y-70000000D02*
X167500000Y-75000000D01*
X162500000Y-70000000D02*
X167500000Y-70000000D01*
X162500000Y-75000000D02*
X162500000Y-70000000D01*
X162500000Y-80000000D02*
X162500000Y-75000000D01*
X162500000Y-85000000D02*
X162500000Y-80000000D01*
X157500000Y-85000000D02*
X162500000Y-85000000D01*
X157500000Y-85000000D02*
X152500000Y-85000000D01*
X152500000Y-90000000D02*
X157500000Y-90000000D01*
X152500000Y-90000000D02*
X157500000Y-85000000D01*
X137500000Y-85000000D02*
X142500000Y-90000000D01*
X142500000Y-90000000D02*
X152500000Y-90000000D01*
X132500000Y-85000000D02*
X137500000Y-85000000D01*
X127500000Y-85000000D02*
X132500000Y-85000000D01*
X156000000Y-81250000D02*
X155250000Y-81250000D01*
X155250000Y-81250000D02*
X151750000Y-77750000D01*
X151750000Y-77750000D02*
X148500000Y-77750000D01*
X148500000Y-77750000D02*
X146250000Y-80000000D01*
X132000000Y-80000000D02*
X137500000Y-80000000D01*
X122500000Y-80000000D02*
X132000000Y-80000000D01*
X132000000Y-80000000D02*
X132000000Y-73000000D01*
X153750000Y-81250000D02*
X148500000Y-76000000D01*
X148500000Y-76000000D02*
X140000000Y-67500000D01*
X142500000Y-77500000D02*
X147000000Y-77500000D01*
X147000000Y-77500000D02*
X148500000Y-76000000D01*
X137500000Y-80000000D02*
X140000000Y-77500000D01*
X140000000Y-77500000D02*
X142500000Y-77500000D01*
X125000000Y-67500000D02*
X125000000Y-77500000D01*
X125000000Y-77500000D02*
X122500000Y-80000000D01*
X130000000Y-67500000D02*
X125000000Y-67500000D01*
X140000000Y-67500000D02*
X135000000Y-67500000D01*
X156000000Y-81250000D02*
X153750000Y-81250000D01*
X146250000Y-80000000D02*
X146250000Y-85000000D01*
D20*
X147750000Y-104750000D02*
X145750000Y-104750000D01*
X143750000Y-115750000D02*
X147000000Y-115750000D01*
D19*
X138250000Y-92000000D02*
X143250000Y-92000000D01*
X143250000Y-92000000D02*
X154750000Y-92000000D01*
D20*
X143250000Y-93000000D02*
X143250000Y-92000000D01*
X131000000Y-100500000D02*
X131749942Y-100500000D01*
X129682517Y-101817483D02*
X129646805Y-101817483D01*
X131000000Y-100500000D02*
X129682517Y-101817483D01*
X151000000Y-111500000D02*
X151000000Y-109750000D01*
X151000000Y-109750000D02*
X150500000Y-109250000D01*
X151250000Y-108500000D02*
X152250000Y-109500000D01*
X152250000Y-109500000D02*
X152250000Y-110750000D01*
D19*
X148750000Y-85000000D02*
X148750000Y-84010051D01*
X148750000Y-84010051D02*
X148750000Y-80000000D01*
D20*
X151815694Y-108065694D02*
X151815694Y-107934306D01*
X153250000Y-109500000D02*
X151815694Y-108065694D01*
X157500000Y-106750000D02*
X152500000Y-106750000D01*
X142454990Y-102420000D02*
X147074991Y-97799999D01*
X147074991Y-97799999D02*
X147374990Y-97500000D01*
X122500000Y-102420000D02*
X129324318Y-102420000D01*
X129346803Y-102442485D02*
X129946807Y-102442485D01*
X129946807Y-102442485D02*
X129969292Y-102420000D01*
X129969292Y-102420000D02*
X142454990Y-102420000D01*
X129324318Y-102420000D02*
X129346803Y-102442485D01*
X148000000Y-96500000D02*
X148000000Y-93500000D01*
X148000000Y-93500000D02*
X148500000Y-93000000D01*
X141790000Y-104960000D02*
X148000000Y-98750000D01*
X148000000Y-98750000D02*
X148000000Y-96500000D01*
X122500000Y-104960000D02*
X141790000Y-104960000D01*
X152500000Y-103924254D02*
X140424264Y-115999990D01*
X152500000Y-100000000D02*
X152500000Y-103924254D01*
X140424264Y-115999990D02*
X140000000Y-115999990D01*
X140299999Y-114899978D02*
X140000000Y-115199977D01*
X151750000Y-100500000D02*
X151750000Y-103449977D01*
X151750000Y-103449977D02*
X140299999Y-114899978D01*
G36*
X169575000Y-82075000D02*
X167500000Y-82075000D01*
X167337360Y-82107351D01*
X167199480Y-82199480D01*
X167107351Y-82337360D01*
X167075000Y-82500000D01*
X167075000Y-97500000D01*
X167107351Y-97662640D01*
X167199480Y-97800520D01*
X167337360Y-97892649D01*
X167500000Y-97925000D01*
X169575000Y-97925000D01*
X169575000Y-124575000D01*
X150425000Y-124575000D01*
X150425000Y-117500000D01*
X150392649Y-117337360D01*
X150300520Y-117199480D01*
X150162640Y-117107351D01*
X150000000Y-117075000D01*
X146500000Y-117075000D01*
X146337360Y-117107351D01*
X146199480Y-117199480D01*
X146107351Y-117337360D01*
X146099864Y-117375000D01*
X143900136Y-117375000D01*
X143892649Y-117337360D01*
X143800520Y-117199480D01*
X143662640Y-117107351D01*
X143500000Y-117075000D01*
X141808884Y-117075000D01*
X143074948Y-115808936D01*
X143074883Y-115883677D01*
X143177429Y-116131857D01*
X143367144Y-116321903D01*
X143615145Y-116424883D01*
X143883677Y-116425117D01*
X144131857Y-116322571D01*
X144204555Y-116250000D01*
X146545366Y-116250000D01*
X146617144Y-116321903D01*
X146865145Y-116424883D01*
X147133677Y-116425117D01*
X147381857Y-116322571D01*
X147571903Y-116132856D01*
X147674883Y-115884855D01*
X147675117Y-115616323D01*
X147572571Y-115368143D01*
X147382856Y-115178097D01*
X147134855Y-115075117D01*
X146866323Y-115074883D01*
X146618143Y-115177429D01*
X146545445Y-115250000D01*
X144204634Y-115250000D01*
X144132856Y-115178097D01*
X143884855Y-115075117D01*
X143808833Y-115075051D01*
X144008884Y-114875000D01*
X148991116Y-114875000D01*
X151875000Y-117758884D01*
X151875000Y-119745015D01*
X151825117Y-119865145D01*
X151824883Y-120133677D01*
X151927429Y-120381857D01*
X152117144Y-120571903D01*
X152365145Y-120674883D01*
X152633677Y-120675117D01*
X152754969Y-120625000D01*
X159745015Y-120625000D01*
X159865145Y-120674883D01*
X160133677Y-120675117D01*
X160381857Y-120572571D01*
X160571903Y-120382856D01*
X160674883Y-120134855D01*
X160675117Y-119866323D01*
X160572571Y-119618143D01*
X160382856Y-119428097D01*
X160134855Y-119325117D01*
X159866323Y-119324883D01*
X159745031Y-119375000D01*
X154008884Y-119375000D01*
X162761639Y-110622244D01*
X162881857Y-110572571D01*
X163071903Y-110382856D01*
X163174883Y-110134855D01*
X163175117Y-109866323D01*
X163125000Y-109745031D01*
X163125000Y-105625000D01*
X167245015Y-105625000D01*
X167365145Y-105674883D01*
X167633677Y-105675117D01*
X167881857Y-105572571D01*
X168071903Y-105382856D01*
X168174883Y-105134855D01*
X168175117Y-104866323D01*
X168072571Y-104618143D01*
X167882856Y-104428097D01*
X167634855Y-104325117D01*
X167366323Y-104324883D01*
X167245031Y-104375000D01*
X163125000Y-104375000D01*
X163125000Y-100625000D01*
X167245015Y-100625000D01*
X167365145Y-100674883D01*
X167633677Y-100675117D01*
X167881857Y-100572571D01*
X168071903Y-100382856D01*
X168174883Y-100134855D01*
X168175117Y-99866323D01*
X168072571Y-99618143D01*
X167882856Y-99428097D01*
X167634855Y-99325117D01*
X167366323Y-99324883D01*
X167245031Y-99375000D01*
X163125000Y-99375000D01*
X163125000Y-95254985D01*
X163174883Y-95134855D01*
X163175117Y-94866323D01*
X163072571Y-94618143D01*
X162882856Y-94428097D01*
X162634855Y-94325117D01*
X162366323Y-94324883D01*
X162118143Y-94427429D01*
X161928097Y-94617144D01*
X161825117Y-94865145D01*
X161824883Y-95133677D01*
X161875000Y-95254969D01*
X161875000Y-99375000D01*
X157754985Y-99375000D01*
X157634855Y-99325117D01*
X157366323Y-99324883D01*
X157118143Y-99427429D01*
X156928097Y-99617144D01*
X156877768Y-99738348D01*
X153000000Y-103616116D01*
X153000000Y-100454634D01*
X153071903Y-100382856D01*
X153174883Y-100134855D01*
X153175117Y-99866323D01*
X153072571Y-99618143D01*
X152882856Y-99428097D01*
X152634855Y-99325117D01*
X152366323Y-99324883D01*
X152118143Y-99427429D01*
X151928097Y-99617144D01*
X151841754Y-99825079D01*
X151616323Y-99824883D01*
X151368143Y-99927429D01*
X151178097Y-100117144D01*
X151075117Y-100365145D01*
X151074883Y-100633677D01*
X151177429Y-100881857D01*
X151250000Y-100954555D01*
X151250000Y-103242870D01*
X139967922Y-114524949D01*
X139866323Y-114524860D01*
X139618143Y-114627406D01*
X139428097Y-114817121D01*
X139325117Y-115065122D01*
X139324883Y-115333654D01*
X139427429Y-115581834D01*
X139445412Y-115599849D01*
X139428097Y-115617134D01*
X139325117Y-115865135D01*
X139324891Y-116125000D01*
X135750000Y-116125000D01*
X135625000Y-116149864D01*
X135625000Y-112500000D01*
X135577425Y-112260823D01*
X135441942Y-112058058D01*
X133122244Y-109738360D01*
X133072571Y-109618143D01*
X132882856Y-109428097D01*
X132634855Y-109325117D01*
X132366323Y-109324883D01*
X132118143Y-109427429D01*
X131928097Y-109617144D01*
X131825117Y-109865145D01*
X131824883Y-110133677D01*
X131927429Y-110381857D01*
X132117144Y-110571903D01*
X132238348Y-110622232D01*
X134375000Y-112758884D01*
X134375000Y-116875000D01*
X130254985Y-116875000D01*
X130134855Y-116825117D01*
X129866323Y-116824883D01*
X129745031Y-116875000D01*
X125254985Y-116875000D01*
X125134855Y-116825117D01*
X124866323Y-116824883D01*
X124618143Y-116927429D01*
X124428097Y-117117144D01*
X124325117Y-117365145D01*
X124324883Y-117633677D01*
X124375000Y-117754969D01*
X124375000Y-122245015D01*
X124325117Y-122365145D01*
X124324883Y-122633677D01*
X124427429Y-122881857D01*
X124617144Y-123071903D01*
X124865145Y-123174883D01*
X125133677Y-123175117D01*
X125282644Y-123113565D01*
X131227171Y-123113565D01*
X131420854Y-123664945D01*
X131810798Y-124100235D01*
X132337637Y-124353165D01*
X132349340Y-124354893D01*
X132581000Y-124234519D01*
X132581000Y-122879000D01*
X131370644Y-122879000D01*
X131227171Y-123113565D01*
X125282644Y-123113565D01*
X125381857Y-123072571D01*
X125571903Y-122882856D01*
X125674883Y-122634855D01*
X125675099Y-122386435D01*
X131227171Y-122386435D01*
X131370644Y-122621000D01*
X132581000Y-122621000D01*
X132581000Y-121265481D01*
X132839000Y-121265481D01*
X132839000Y-122621000D01*
X132859000Y-122621000D01*
X132859000Y-122879000D01*
X132839000Y-122879000D01*
X132839000Y-124234519D01*
X133070660Y-124354893D01*
X133082363Y-124353165D01*
X133609202Y-124100235D01*
X133999146Y-123664945D01*
X134100350Y-123376834D01*
X134105683Y-123403643D01*
X134374178Y-123805473D01*
X134776008Y-124073968D01*
X135250000Y-124168251D01*
X135723992Y-124073968D01*
X136125822Y-123805473D01*
X136394317Y-123403643D01*
X136488600Y-122929651D01*
X136488600Y-122570349D01*
X136394317Y-122096357D01*
X136152198Y-121734000D01*
X136544054Y-121734000D01*
X136544054Y-123766000D01*
X136570202Y-123904966D01*
X136652331Y-124032599D01*
X136777646Y-124118223D01*
X136926400Y-124148346D01*
X138653600Y-124148346D01*
X138792566Y-124122198D01*
X138920199Y-124040069D01*
X139005823Y-123914754D01*
X139035946Y-123766000D01*
X139035946Y-121734000D01*
X139009798Y-121595034D01*
X138927669Y-121467401D01*
X138802354Y-121381777D01*
X138653600Y-121351654D01*
X136926400Y-121351654D01*
X136787434Y-121377802D01*
X136659801Y-121459931D01*
X136574177Y-121585246D01*
X136544054Y-121734000D01*
X136152198Y-121734000D01*
X136125822Y-121694527D01*
X135723992Y-121426032D01*
X135250000Y-121331749D01*
X134776008Y-121426032D01*
X134374178Y-121694527D01*
X134105683Y-122096357D01*
X134100350Y-122123166D01*
X133999146Y-121835055D01*
X133609202Y-121399765D01*
X133082363Y-121146835D01*
X133070660Y-121145107D01*
X132839000Y-121265481D01*
X132581000Y-121265481D01*
X132349340Y-121145107D01*
X132337637Y-121146835D01*
X131810798Y-121399765D01*
X131420854Y-121835055D01*
X131227171Y-122386435D01*
X125675099Y-122386435D01*
X125675117Y-122366323D01*
X125625000Y-122245031D01*
X125625000Y-118125000D01*
X129745015Y-118125000D01*
X129865145Y-118174883D01*
X130133677Y-118175117D01*
X130254969Y-118125000D01*
X134745015Y-118125000D01*
X134865145Y-118174883D01*
X135133677Y-118175117D01*
X135381857Y-118072571D01*
X135571903Y-117882856D01*
X135622232Y-117761652D01*
X136008884Y-117375000D01*
X139599864Y-117375000D01*
X139575000Y-117500000D01*
X139575000Y-124575000D01*
X120425000Y-124575000D01*
X120425000Y-110400660D01*
X120895107Y-110400660D01*
X120896835Y-110412363D01*
X121149765Y-110939202D01*
X121585055Y-111329146D01*
X122136435Y-111522829D01*
X122371000Y-111379356D01*
X122371000Y-110169000D01*
X122629000Y-110169000D01*
X122629000Y-111379356D01*
X122863565Y-111522829D01*
X123414945Y-111329146D01*
X123850235Y-110939202D01*
X124103165Y-110412363D01*
X124104893Y-110400660D01*
X123984519Y-110169000D01*
X122629000Y-110169000D01*
X122371000Y-110169000D01*
X121015481Y-110169000D01*
X120895107Y-110400660D01*
X120425000Y-110400660D01*
X120425000Y-109679340D01*
X120895107Y-109679340D01*
X121015481Y-109911000D01*
X122371000Y-109911000D01*
X122371000Y-109891000D01*
X122629000Y-109891000D01*
X122629000Y-109911000D01*
X123984519Y-109911000D01*
X124104893Y-109679340D01*
X124103165Y-109667637D01*
X123850235Y-109140798D01*
X123414945Y-108750854D01*
X123126834Y-108649650D01*
X123153643Y-108644317D01*
X123555473Y-108375822D01*
X123823968Y-107973992D01*
X123918251Y-107500000D01*
X123823968Y-107026008D01*
X123555473Y-106624178D01*
X123153643Y-106355683D01*
X122679651Y-106261400D01*
X122320349Y-106261400D01*
X121846357Y-106355683D01*
X121444527Y-106624178D01*
X121176032Y-107026008D01*
X121081749Y-107500000D01*
X121176032Y-107973992D01*
X121444527Y-108375822D01*
X121846357Y-108644317D01*
X121873166Y-108649650D01*
X121585055Y-108750854D01*
X121149765Y-109140798D01*
X120896835Y-109667637D01*
X120895107Y-109679340D01*
X120425000Y-109679340D01*
X120425000Y-102420000D01*
X121081749Y-102420000D01*
X121176032Y-102893992D01*
X121444527Y-103295822D01*
X121846357Y-103564317D01*
X122320349Y-103658600D01*
X122679651Y-103658600D01*
X123153643Y-103564317D01*
X123555473Y-103295822D01*
X123806590Y-102920000D01*
X129233762Y-102920000D01*
X129346803Y-102942485D01*
X129946807Y-102942485D01*
X130059848Y-102920000D01*
X142454990Y-102920000D01*
X142646332Y-102881940D01*
X142808543Y-102773553D01*
X147407068Y-98175028D01*
X147500000Y-98175109D01*
X147500000Y-98542893D01*
X141582894Y-104460000D01*
X123806590Y-104460000D01*
X123555473Y-104084178D01*
X123153643Y-103815683D01*
X122679651Y-103721400D01*
X122320349Y-103721400D01*
X121846357Y-103815683D01*
X121444527Y-104084178D01*
X121176032Y-104486008D01*
X121081749Y-104960000D01*
X121176032Y-105433992D01*
X121444527Y-105835822D01*
X121846357Y-106104317D01*
X122320349Y-106198600D01*
X122679651Y-106198600D01*
X123153643Y-106104317D01*
X123555473Y-105835822D01*
X123806590Y-105460000D01*
X141790000Y-105460000D01*
X141981342Y-105421940D01*
X142143553Y-105313553D01*
X148353553Y-99103554D01*
X148461940Y-98941342D01*
X148476599Y-98867646D01*
X148500000Y-98750000D01*
X148500000Y-93707106D01*
X148532078Y-93675028D01*
X148633677Y-93675117D01*
X148881857Y-93572571D01*
X149071903Y-93382856D01*
X149174883Y-93134855D01*
X149175117Y-92866323D01*
X149075404Y-92625000D01*
X154495015Y-92625000D01*
X154615145Y-92674883D01*
X154883677Y-92675117D01*
X155131857Y-92572571D01*
X155321903Y-92382856D01*
X155424883Y-92134855D01*
X155425117Y-91866323D01*
X155322571Y-91618143D01*
X155132856Y-91428097D01*
X154884855Y-91325117D01*
X154616323Y-91324883D01*
X154495031Y-91375000D01*
X138504985Y-91375000D01*
X138384855Y-91325117D01*
X138116323Y-91324883D01*
X137868143Y-91427429D01*
X137678097Y-91617144D01*
X137575117Y-91865145D01*
X137574883Y-92133677D01*
X137677429Y-92381857D01*
X137867144Y-92571903D01*
X138115145Y-92674883D01*
X138383677Y-92675117D01*
X138504969Y-92625000D01*
X142674835Y-92625000D01*
X142575117Y-92865145D01*
X142574883Y-93133677D01*
X142677429Y-93381857D01*
X142867144Y-93571903D01*
X143115145Y-93674883D01*
X143383677Y-93675117D01*
X143631857Y-93572571D01*
X143821903Y-93382856D01*
X143924883Y-93134855D01*
X143925117Y-92866323D01*
X143825404Y-92625000D01*
X147924835Y-92625000D01*
X147825117Y-92865145D01*
X147825027Y-92967866D01*
X147646447Y-93146447D01*
X147538060Y-93308658D01*
X147500000Y-93500000D01*
X147500000Y-96825108D01*
X147241313Y-96824883D01*
X146993133Y-96927429D01*
X146803087Y-97117144D01*
X146700107Y-97365145D01*
X146700017Y-97467867D01*
X142247884Y-101920000D01*
X130321716Y-101920000D01*
X130321746Y-101885360D01*
X131207107Y-101000000D01*
X131295308Y-101000000D01*
X131367086Y-101071903D01*
X131615087Y-101174883D01*
X131883619Y-101175117D01*
X132131799Y-101072571D01*
X132321845Y-100882856D01*
X132424825Y-100634855D01*
X132425059Y-100366323D01*
X132322513Y-100118143D01*
X132132798Y-99928097D01*
X131884797Y-99825117D01*
X131616265Y-99824883D01*
X131368085Y-99927429D01*
X131295387Y-100000000D01*
X131000000Y-100000000D01*
X130808658Y-100038060D01*
X130646446Y-100146447D01*
X129650408Y-101142486D01*
X129513128Y-101142366D01*
X129264948Y-101244912D01*
X129074902Y-101434627D01*
X128971922Y-101682628D01*
X128971715Y-101920000D01*
X123806590Y-101920000D01*
X123555473Y-101544178D01*
X123153643Y-101275683D01*
X122679651Y-101181400D01*
X122320349Y-101181400D01*
X121846357Y-101275683D01*
X121444527Y-101544178D01*
X121176032Y-101946008D01*
X121081749Y-102420000D01*
X120425000Y-102420000D01*
X120425000Y-99016400D01*
X121101654Y-99016400D01*
X121101654Y-100743600D01*
X121127802Y-100882566D01*
X121209931Y-101010199D01*
X121335246Y-101095823D01*
X121484000Y-101125946D01*
X123516000Y-101125946D01*
X123654966Y-101099798D01*
X123782599Y-101017669D01*
X123868223Y-100892354D01*
X123898346Y-100743600D01*
X123898346Y-99016400D01*
X123872198Y-98877434D01*
X123790069Y-98749801D01*
X123664754Y-98664177D01*
X123516000Y-98634054D01*
X121484000Y-98634054D01*
X121345034Y-98660202D01*
X121217401Y-98742331D01*
X121131777Y-98867646D01*
X121101654Y-99016400D01*
X120425000Y-99016400D01*
X120425000Y-97925000D01*
X122500000Y-97925000D01*
X122662640Y-97892649D01*
X122800520Y-97800520D01*
X122892649Y-97662640D01*
X122925000Y-97500000D01*
X122925000Y-96924060D01*
X132374468Y-96924060D01*
X132507456Y-97245915D01*
X132753489Y-97492379D01*
X132771490Y-97499854D01*
X132754785Y-97506756D01*
X132508321Y-97752789D01*
X132374772Y-98074412D01*
X132374468Y-98422660D01*
X132507456Y-98744515D01*
X132753489Y-98990979D01*
X133075112Y-99124528D01*
X133423360Y-99124832D01*
X133745215Y-98991844D01*
X133991679Y-98745811D01*
X134125228Y-98424188D01*
X134125532Y-98075940D01*
X133992544Y-97754085D01*
X133746511Y-97507621D01*
X133728510Y-97500146D01*
X133745215Y-97493244D01*
X133991679Y-97247211D01*
X134125228Y-96925588D01*
X134125532Y-96577340D01*
X133992544Y-96255485D01*
X133746511Y-96009021D01*
X133424888Y-95875472D01*
X133076640Y-95875168D01*
X132754785Y-96008156D01*
X132508321Y-96254189D01*
X132374772Y-96575812D01*
X132374468Y-96924060D01*
X122925000Y-96924060D01*
X122925000Y-83875000D01*
X139875000Y-83875000D01*
X139875000Y-88750000D01*
X139884848Y-88798632D01*
X139912841Y-88839601D01*
X139954568Y-88866451D01*
X140000000Y-88875000D01*
X150000000Y-88875000D01*
X150048632Y-88865152D01*
X150089601Y-88837159D01*
X150116451Y-88795432D01*
X150125000Y-88750000D01*
X150125000Y-83875000D01*
X160000000Y-83875000D01*
X160048632Y-83865152D01*
X160089601Y-83837159D01*
X160116451Y-83795432D01*
X160125000Y-83750000D01*
X160125000Y-65425000D01*
X169575000Y-65425000D01*
X169575000Y-82075000D01*
X169575000Y-82075000D01*
G37*
X169575000Y-82075000D02*
X167500000Y-82075000D01*
X167337360Y-82107351D01*
X167199480Y-82199480D01*
X167107351Y-82337360D01*
X167075000Y-82500000D01*
X167075000Y-97500000D01*
X167107351Y-97662640D01*
X167199480Y-97800520D01*
X167337360Y-97892649D01*
X167500000Y-97925000D01*
X169575000Y-97925000D01*
X169575000Y-124575000D01*
X150425000Y-124575000D01*
X150425000Y-117500000D01*
X150392649Y-117337360D01*
X150300520Y-117199480D01*
X150162640Y-117107351D01*
X150000000Y-117075000D01*
X146500000Y-117075000D01*
X146337360Y-117107351D01*
X146199480Y-117199480D01*
X146107351Y-117337360D01*
X146099864Y-117375000D01*
X143900136Y-117375000D01*
X143892649Y-117337360D01*
X143800520Y-117199480D01*
X143662640Y-117107351D01*
X143500000Y-117075000D01*
X141808884Y-117075000D01*
X143074948Y-115808936D01*
X143074883Y-115883677D01*
X143177429Y-116131857D01*
X143367144Y-116321903D01*
X143615145Y-116424883D01*
X143883677Y-116425117D01*
X144131857Y-116322571D01*
X144204555Y-116250000D01*
X146545366Y-116250000D01*
X146617144Y-116321903D01*
X146865145Y-116424883D01*
X147133677Y-116425117D01*
X147381857Y-116322571D01*
X147571903Y-116132856D01*
X147674883Y-115884855D01*
X147675117Y-115616323D01*
X147572571Y-115368143D01*
X147382856Y-115178097D01*
X147134855Y-115075117D01*
X146866323Y-115074883D01*
X146618143Y-115177429D01*
X146545445Y-115250000D01*
X144204634Y-115250000D01*
X144132856Y-115178097D01*
X143884855Y-115075117D01*
X143808833Y-115075051D01*
X144008884Y-114875000D01*
X148991116Y-114875000D01*
X151875000Y-117758884D01*
X151875000Y-119745015D01*
X151825117Y-119865145D01*
X151824883Y-120133677D01*
X151927429Y-120381857D01*
X152117144Y-120571903D01*
X152365145Y-120674883D01*
X152633677Y-120675117D01*
X152754969Y-120625000D01*
X159745015Y-120625000D01*
X159865145Y-120674883D01*
X160133677Y-120675117D01*
X160381857Y-120572571D01*
X160571903Y-120382856D01*
X160674883Y-120134855D01*
X160675117Y-119866323D01*
X160572571Y-119618143D01*
X160382856Y-119428097D01*
X160134855Y-119325117D01*
X159866323Y-119324883D01*
X159745031Y-119375000D01*
X154008884Y-119375000D01*
X162761639Y-110622244D01*
X162881857Y-110572571D01*
X163071903Y-110382856D01*
X163174883Y-110134855D01*
X163175117Y-109866323D01*
X163125000Y-109745031D01*
X163125000Y-105625000D01*
X167245015Y-105625000D01*
X167365145Y-105674883D01*
X167633677Y-105675117D01*
X167881857Y-105572571D01*
X168071903Y-105382856D01*
X168174883Y-105134855D01*
X168175117Y-104866323D01*
X168072571Y-104618143D01*
X167882856Y-104428097D01*
X167634855Y-104325117D01*
X167366323Y-104324883D01*
X167245031Y-104375000D01*
X163125000Y-104375000D01*
X163125000Y-100625000D01*
X167245015Y-100625000D01*
X167365145Y-100674883D01*
X167633677Y-100675117D01*
X167881857Y-100572571D01*
X168071903Y-100382856D01*
X168174883Y-100134855D01*
X168175117Y-99866323D01*
X168072571Y-99618143D01*
X167882856Y-99428097D01*
X167634855Y-99325117D01*
X167366323Y-99324883D01*
X167245031Y-99375000D01*
X163125000Y-99375000D01*
X163125000Y-95254985D01*
X163174883Y-95134855D01*
X163175117Y-94866323D01*
X163072571Y-94618143D01*
X162882856Y-94428097D01*
X162634855Y-94325117D01*
X162366323Y-94324883D01*
X162118143Y-94427429D01*
X161928097Y-94617144D01*
X161825117Y-94865145D01*
X161824883Y-95133677D01*
X161875000Y-95254969D01*
X161875000Y-99375000D01*
X157754985Y-99375000D01*
X157634855Y-99325117D01*
X157366323Y-99324883D01*
X157118143Y-99427429D01*
X156928097Y-99617144D01*
X156877768Y-99738348D01*
X153000000Y-103616116D01*
X153000000Y-100454634D01*
X153071903Y-100382856D01*
X153174883Y-100134855D01*
X153175117Y-99866323D01*
X153072571Y-99618143D01*
X152882856Y-99428097D01*
X152634855Y-99325117D01*
X152366323Y-99324883D01*
X152118143Y-99427429D01*
X151928097Y-99617144D01*
X151841754Y-99825079D01*
X151616323Y-99824883D01*
X151368143Y-99927429D01*
X151178097Y-100117144D01*
X151075117Y-100365145D01*
X151074883Y-100633677D01*
X151177429Y-100881857D01*
X151250000Y-100954555D01*
X151250000Y-103242870D01*
X139967922Y-114524949D01*
X139866323Y-114524860D01*
X139618143Y-114627406D01*
X139428097Y-114817121D01*
X139325117Y-115065122D01*
X139324883Y-115333654D01*
X139427429Y-115581834D01*
X139445412Y-115599849D01*
X139428097Y-115617134D01*
X139325117Y-115865135D01*
X139324891Y-116125000D01*
X135750000Y-116125000D01*
X135625000Y-116149864D01*
X135625000Y-112500000D01*
X135577425Y-112260823D01*
X135441942Y-112058058D01*
X133122244Y-109738360D01*
X133072571Y-109618143D01*
X132882856Y-109428097D01*
X132634855Y-109325117D01*
X132366323Y-109324883D01*
X132118143Y-109427429D01*
X131928097Y-109617144D01*
X131825117Y-109865145D01*
X131824883Y-110133677D01*
X131927429Y-110381857D01*
X132117144Y-110571903D01*
X132238348Y-110622232D01*
X134375000Y-112758884D01*
X134375000Y-116875000D01*
X130254985Y-116875000D01*
X130134855Y-116825117D01*
X129866323Y-116824883D01*
X129745031Y-116875000D01*
X125254985Y-116875000D01*
X125134855Y-116825117D01*
X124866323Y-116824883D01*
X124618143Y-116927429D01*
X124428097Y-117117144D01*
X124325117Y-117365145D01*
X124324883Y-117633677D01*
X124375000Y-117754969D01*
X124375000Y-122245015D01*
X124325117Y-122365145D01*
X124324883Y-122633677D01*
X124427429Y-122881857D01*
X124617144Y-123071903D01*
X124865145Y-123174883D01*
X125133677Y-123175117D01*
X125282644Y-123113565D01*
X131227171Y-123113565D01*
X131420854Y-123664945D01*
X131810798Y-124100235D01*
X132337637Y-124353165D01*
X132349340Y-124354893D01*
X132581000Y-124234519D01*
X132581000Y-122879000D01*
X131370644Y-122879000D01*
X131227171Y-123113565D01*
X125282644Y-123113565D01*
X125381857Y-123072571D01*
X125571903Y-122882856D01*
X125674883Y-122634855D01*
X125675099Y-122386435D01*
X131227171Y-122386435D01*
X131370644Y-122621000D01*
X132581000Y-122621000D01*
X132581000Y-121265481D01*
X132839000Y-121265481D01*
X132839000Y-122621000D01*
X132859000Y-122621000D01*
X132859000Y-122879000D01*
X132839000Y-122879000D01*
X132839000Y-124234519D01*
X133070660Y-124354893D01*
X133082363Y-124353165D01*
X133609202Y-124100235D01*
X133999146Y-123664945D01*
X134100350Y-123376834D01*
X134105683Y-123403643D01*
X134374178Y-123805473D01*
X134776008Y-124073968D01*
X135250000Y-124168251D01*
X135723992Y-124073968D01*
X136125822Y-123805473D01*
X136394317Y-123403643D01*
X136488600Y-122929651D01*
X136488600Y-122570349D01*
X136394317Y-122096357D01*
X136152198Y-121734000D01*
X136544054Y-121734000D01*
X136544054Y-123766000D01*
X136570202Y-123904966D01*
X136652331Y-124032599D01*
X136777646Y-124118223D01*
X136926400Y-124148346D01*
X138653600Y-124148346D01*
X138792566Y-124122198D01*
X138920199Y-124040069D01*
X139005823Y-123914754D01*
X139035946Y-123766000D01*
X139035946Y-121734000D01*
X139009798Y-121595034D01*
X138927669Y-121467401D01*
X138802354Y-121381777D01*
X138653600Y-121351654D01*
X136926400Y-121351654D01*
X136787434Y-121377802D01*
X136659801Y-121459931D01*
X136574177Y-121585246D01*
X136544054Y-121734000D01*
X136152198Y-121734000D01*
X136125822Y-121694527D01*
X135723992Y-121426032D01*
X135250000Y-121331749D01*
X134776008Y-121426032D01*
X134374178Y-121694527D01*
X134105683Y-122096357D01*
X134100350Y-122123166D01*
X133999146Y-121835055D01*
X133609202Y-121399765D01*
X133082363Y-121146835D01*
X133070660Y-121145107D01*
X132839000Y-121265481D01*
X132581000Y-121265481D01*
X132349340Y-121145107D01*
X132337637Y-121146835D01*
X131810798Y-121399765D01*
X131420854Y-121835055D01*
X131227171Y-122386435D01*
X125675099Y-122386435D01*
X125675117Y-122366323D01*
X125625000Y-122245031D01*
X125625000Y-118125000D01*
X129745015Y-118125000D01*
X129865145Y-118174883D01*
X130133677Y-118175117D01*
X130254969Y-118125000D01*
X134745015Y-118125000D01*
X134865145Y-118174883D01*
X135133677Y-118175117D01*
X135381857Y-118072571D01*
X135571903Y-117882856D01*
X135622232Y-117761652D01*
X136008884Y-117375000D01*
X139599864Y-117375000D01*
X139575000Y-117500000D01*
X139575000Y-124575000D01*
X120425000Y-124575000D01*
X120425000Y-110400660D01*
X120895107Y-110400660D01*
X120896835Y-110412363D01*
X121149765Y-110939202D01*
X121585055Y-111329146D01*
X122136435Y-111522829D01*
X122371000Y-111379356D01*
X122371000Y-110169000D01*
X122629000Y-110169000D01*
X122629000Y-111379356D01*
X122863565Y-111522829D01*
X123414945Y-111329146D01*
X123850235Y-110939202D01*
X124103165Y-110412363D01*
X124104893Y-110400660D01*
X123984519Y-110169000D01*
X122629000Y-110169000D01*
X122371000Y-110169000D01*
X121015481Y-110169000D01*
X120895107Y-110400660D01*
X120425000Y-110400660D01*
X120425000Y-109679340D01*
X120895107Y-109679340D01*
X121015481Y-109911000D01*
X122371000Y-109911000D01*
X122371000Y-109891000D01*
X122629000Y-109891000D01*
X122629000Y-109911000D01*
X123984519Y-109911000D01*
X124104893Y-109679340D01*
X124103165Y-109667637D01*
X123850235Y-109140798D01*
X123414945Y-108750854D01*
X123126834Y-108649650D01*
X123153643Y-108644317D01*
X123555473Y-108375822D01*
X123823968Y-107973992D01*
X123918251Y-107500000D01*
X123823968Y-107026008D01*
X123555473Y-106624178D01*
X123153643Y-106355683D01*
X122679651Y-106261400D01*
X122320349Y-106261400D01*
X121846357Y-106355683D01*
X121444527Y-106624178D01*
X121176032Y-107026008D01*
X121081749Y-107500000D01*
X121176032Y-107973992D01*
X121444527Y-108375822D01*
X121846357Y-108644317D01*
X121873166Y-108649650D01*
X121585055Y-108750854D01*
X121149765Y-109140798D01*
X120896835Y-109667637D01*
X120895107Y-109679340D01*
X120425000Y-109679340D01*
X120425000Y-102420000D01*
X121081749Y-102420000D01*
X121176032Y-102893992D01*
X121444527Y-103295822D01*
X121846357Y-103564317D01*
X122320349Y-103658600D01*
X122679651Y-103658600D01*
X123153643Y-103564317D01*
X123555473Y-103295822D01*
X123806590Y-102920000D01*
X129233762Y-102920000D01*
X129346803Y-102942485D01*
X129946807Y-102942485D01*
X130059848Y-102920000D01*
X142454990Y-102920000D01*
X142646332Y-102881940D01*
X142808543Y-102773553D01*
X147407068Y-98175028D01*
X147500000Y-98175109D01*
X147500000Y-98542893D01*
X141582894Y-104460000D01*
X123806590Y-104460000D01*
X123555473Y-104084178D01*
X123153643Y-103815683D01*
X122679651Y-103721400D01*
X122320349Y-103721400D01*
X121846357Y-103815683D01*
X121444527Y-104084178D01*
X121176032Y-104486008D01*
X121081749Y-104960000D01*
X121176032Y-105433992D01*
X121444527Y-105835822D01*
X121846357Y-106104317D01*
X122320349Y-106198600D01*
X122679651Y-106198600D01*
X123153643Y-106104317D01*
X123555473Y-105835822D01*
X123806590Y-105460000D01*
X141790000Y-105460000D01*
X141981342Y-105421940D01*
X142143553Y-105313553D01*
X148353553Y-99103554D01*
X148461940Y-98941342D01*
X148476599Y-98867646D01*
X148500000Y-98750000D01*
X148500000Y-93707106D01*
X148532078Y-93675028D01*
X148633677Y-93675117D01*
X148881857Y-93572571D01*
X149071903Y-93382856D01*
X149174883Y-93134855D01*
X149175117Y-92866323D01*
X149075404Y-92625000D01*
X154495015Y-92625000D01*
X154615145Y-92674883D01*
X154883677Y-92675117D01*
X155131857Y-92572571D01*
X155321903Y-92382856D01*
X155424883Y-92134855D01*
X155425117Y-91866323D01*
X155322571Y-91618143D01*
X155132856Y-91428097D01*
X154884855Y-91325117D01*
X154616323Y-91324883D01*
X154495031Y-91375000D01*
X138504985Y-91375000D01*
X138384855Y-91325117D01*
X138116323Y-91324883D01*
X137868143Y-91427429D01*
X137678097Y-91617144D01*
X137575117Y-91865145D01*
X137574883Y-92133677D01*
X137677429Y-92381857D01*
X137867144Y-92571903D01*
X138115145Y-92674883D01*
X138383677Y-92675117D01*
X138504969Y-92625000D01*
X142674835Y-92625000D01*
X142575117Y-92865145D01*
X142574883Y-93133677D01*
X142677429Y-93381857D01*
X142867144Y-93571903D01*
X143115145Y-93674883D01*
X143383677Y-93675117D01*
X143631857Y-93572571D01*
X143821903Y-93382856D01*
X143924883Y-93134855D01*
X143925117Y-92866323D01*
X143825404Y-92625000D01*
X147924835Y-92625000D01*
X147825117Y-92865145D01*
X147825027Y-92967866D01*
X147646447Y-93146447D01*
X147538060Y-93308658D01*
X147500000Y-93500000D01*
X147500000Y-96825108D01*
X147241313Y-96824883D01*
X146993133Y-96927429D01*
X146803087Y-97117144D01*
X146700107Y-97365145D01*
X146700017Y-97467867D01*
X142247884Y-101920000D01*
X130321716Y-101920000D01*
X130321746Y-101885360D01*
X131207107Y-101000000D01*
X131295308Y-101000000D01*
X131367086Y-101071903D01*
X131615087Y-101174883D01*
X131883619Y-101175117D01*
X132131799Y-101072571D01*
X132321845Y-100882856D01*
X132424825Y-100634855D01*
X132425059Y-100366323D01*
X132322513Y-100118143D01*
X132132798Y-99928097D01*
X131884797Y-99825117D01*
X131616265Y-99824883D01*
X131368085Y-99927429D01*
X131295387Y-100000000D01*
X131000000Y-100000000D01*
X130808658Y-100038060D01*
X130646446Y-100146447D01*
X129650408Y-101142486D01*
X129513128Y-101142366D01*
X129264948Y-101244912D01*
X129074902Y-101434627D01*
X128971922Y-101682628D01*
X128971715Y-101920000D01*
X123806590Y-101920000D01*
X123555473Y-101544178D01*
X123153643Y-101275683D01*
X122679651Y-101181400D01*
X122320349Y-101181400D01*
X121846357Y-101275683D01*
X121444527Y-101544178D01*
X121176032Y-101946008D01*
X121081749Y-102420000D01*
X120425000Y-102420000D01*
X120425000Y-99016400D01*
X121101654Y-99016400D01*
X121101654Y-100743600D01*
X121127802Y-100882566D01*
X121209931Y-101010199D01*
X121335246Y-101095823D01*
X121484000Y-101125946D01*
X123516000Y-101125946D01*
X123654966Y-101099798D01*
X123782599Y-101017669D01*
X123868223Y-100892354D01*
X123898346Y-100743600D01*
X123898346Y-99016400D01*
X123872198Y-98877434D01*
X123790069Y-98749801D01*
X123664754Y-98664177D01*
X123516000Y-98634054D01*
X121484000Y-98634054D01*
X121345034Y-98660202D01*
X121217401Y-98742331D01*
X121131777Y-98867646D01*
X121101654Y-99016400D01*
X120425000Y-99016400D01*
X120425000Y-97925000D01*
X122500000Y-97925000D01*
X122662640Y-97892649D01*
X122800520Y-97800520D01*
X122892649Y-97662640D01*
X122925000Y-97500000D01*
X122925000Y-96924060D01*
X132374468Y-96924060D01*
X132507456Y-97245915D01*
X132753489Y-97492379D01*
X132771490Y-97499854D01*
X132754785Y-97506756D01*
X132508321Y-97752789D01*
X132374772Y-98074412D01*
X132374468Y-98422660D01*
X132507456Y-98744515D01*
X132753489Y-98990979D01*
X133075112Y-99124528D01*
X133423360Y-99124832D01*
X133745215Y-98991844D01*
X133991679Y-98745811D01*
X134125228Y-98424188D01*
X134125532Y-98075940D01*
X133992544Y-97754085D01*
X133746511Y-97507621D01*
X133728510Y-97500146D01*
X133745215Y-97493244D01*
X133991679Y-97247211D01*
X134125228Y-96925588D01*
X134125532Y-96577340D01*
X133992544Y-96255485D01*
X133746511Y-96009021D01*
X133424888Y-95875472D01*
X133076640Y-95875168D01*
X132754785Y-96008156D01*
X132508321Y-96254189D01*
X132374772Y-96575812D01*
X132374468Y-96924060D01*
X122925000Y-96924060D01*
X122925000Y-83875000D01*
X139875000Y-83875000D01*
X139875000Y-88750000D01*
X139884848Y-88798632D01*
X139912841Y-88839601D01*
X139954568Y-88866451D01*
X140000000Y-88875000D01*
X150000000Y-88875000D01*
X150048632Y-88865152D01*
X150089601Y-88837159D01*
X150116451Y-88795432D01*
X150125000Y-88750000D01*
X150125000Y-83875000D01*
X160000000Y-83875000D01*
X160048632Y-83865152D01*
X160089601Y-83837159D01*
X160116451Y-83795432D01*
X160125000Y-83750000D01*
X160125000Y-65425000D01*
X169575000Y-65425000D01*
X169575000Y-82075000D01*
G36*
X158625000Y-82375000D02*
X150125000Y-82375000D01*
X150125000Y-79000000D01*
X150115152Y-78951368D01*
X150087159Y-78910399D01*
X150045432Y-78883549D01*
X150000000Y-78875000D01*
X146952901Y-78875000D01*
X146940898Y-78829593D01*
X146440411Y-78654290D01*
X145910936Y-78683859D01*
X145559102Y-78829593D01*
X145547099Y-78875000D01*
X140000000Y-78875000D01*
X139951368Y-78884848D01*
X139910399Y-78912841D01*
X139883549Y-78954568D01*
X139875000Y-79000000D01*
X139875000Y-82375000D01*
X122900136Y-82375000D01*
X122892649Y-82337360D01*
X122800520Y-82199480D01*
X122662640Y-82107351D01*
X122500000Y-82075000D01*
X120425000Y-82075000D01*
X120425000Y-65425000D01*
X158625000Y-65425000D01*
X158625000Y-82375000D01*
X158625000Y-82375000D01*
G37*
X158625000Y-82375000D02*
X150125000Y-82375000D01*
X150125000Y-79000000D01*
X150115152Y-78951368D01*
X150087159Y-78910399D01*
X150045432Y-78883549D01*
X150000000Y-78875000D01*
X146952901Y-78875000D01*
X146940898Y-78829593D01*
X146440411Y-78654290D01*
X145910936Y-78683859D01*
X145559102Y-78829593D01*
X145547099Y-78875000D01*
X140000000Y-78875000D01*
X139951368Y-78884848D01*
X139910399Y-78912841D01*
X139883549Y-78954568D01*
X139875000Y-79000000D01*
X139875000Y-82375000D01*
X122900136Y-82375000D01*
X122892649Y-82337360D01*
X122800520Y-82199480D01*
X122662640Y-82107351D01*
X122500000Y-82075000D01*
X120425000Y-82075000D01*
X120425000Y-65425000D01*
X158625000Y-65425000D01*
X158625000Y-82375000D01*
M02*
