M48
;DRILL file {KiCad 5.0.0-rc2-dev-unknown-c8a7840~64~ubuntu18.04.1} date Tue May  1 15:31:47 2018
;FORMAT={-:-/ absolute / metric / decimal}
FMAT,2
METRIC,TZ
T1C0.400
T2C0.700
T3C0.750
T4C1.000
T5C1.100
T6C1.200
%
G90
G05
M71
T1
X121.Y-79.
X121.Y-86.
X121.Y-93.
X122.Y-67.
X122.Y-72.
X124.Y-117.4
X127.Y-67.
X127.Y-72.
X127.Y-78.
X127.Y-83.
X127.Y-88.5
X129.Y-101.
X129.Y-107.
X130.6Y-114.8
X131.5Y-78.
X131.9Y-87.6
X132.5Y-70.
X133.Y-66.
X134.Y-75.
X134.Y-84.
X134.Y-111.
X135.Y-86.
X135.6Y-94.
X135.8Y-97.6
X136.Y-70.
X136.442Y-84.413
X136.5Y-90.5
X136.5Y-101.
X136.95Y-98.9
X137.Y-106.9
X139.Y-67.
X139.3Y-84.5
X139.5Y-83.
X141.342Y-111.25
X142.5Y-97.
X142.5Y-109.
X142.6Y-90.5
X143.1Y-73.4
X143.2Y-101.
X143.45Y-98.5
X143.5Y-83.9
X144.05Y-91.63
X145.909Y-93.737
X146.Y-67.8
X146.5Y-90.4
X147.Y-75.5
X147.1Y-69.5
X148.Y-82.
X148.Y-111.2
X148.2Y-92.3
X148.25Y-96.15
X148.9Y-90.1
X149.Y-109.5
X149.5Y-68.9
X150.Y-111.
X150.4Y-68.9
X150.5Y-72.5
X150.5Y-98.7
X151.Y-75.5
X151.2Y-101.7
X152.1Y-105.4
X152.1Y-101.7
X152.152Y-102.702
X152.869Y-98.224
X152.999Y-103.007
X153.Y-72.2
X153.177Y-99.422
X153.2Y-111.4
X153.5Y-81.9
X154.Y-92.9
X154.275Y-100.333
X154.349Y-102.8
X154.428Y-105.327
X154.5Y-73.5
X154.5Y-75.5
X154.579Y-91.157
X154.7Y-96.7
X155.Y-93.
X155.258Y-100.304
X155.5Y-105.2
X156.Y-111.
X156.1Y-87.9
X156.325Y-98.356
X156.5Y-75.5
X156.9Y-91.475
X157.524Y-92.957
X158.025Y-98.959
X158.1Y-100.1
X158.125Y-85.824
X158.5Y-73.5
X158.5Y-75.5
X159.Y-102.375
X159.Y-103.9
X159.1Y-111.1
X160.2Y-111.174
X161.Y-106.6
X162.3Y-114.
X162.5Y-80.7
X162.5Y-87.5
X163.087Y-100.168
X163.175Y-94.105
X163.8Y-115.
X164.Y-108.
X164.119Y-106.108
X164.55Y-111.9
X164.7Y-103.8
X165.Y-75.5
X165.Y-110.
X165.8Y-100.2
X165.848Y-86.802
X165.848Y-86.802
X166.Y-102.7
X167.5Y-68.4
X167.5Y-101.5
X167.5Y-102.5
X167.6Y-73.2
X167.9Y-79.
X168.1Y-84.3
X169.Y-90.
X169.Y-98.
X169.Y-105.
X169.Y-113.
X144.7Y-121.15
X144.7Y-122.
X144.7Y-122.85
X145.5Y-121.15
X145.5Y-122.
X145.5Y-122.85
T2
X136.11Y-78.42
X136.11Y-88.58
X138.65Y-78.42
X138.65Y-88.58
X141.19Y-78.42
X141.19Y-88.58
X143.73Y-78.42
X143.73Y-88.58
X146.27Y-88.58
X148.81Y-78.42
X148.81Y-88.58
X151.35Y-88.58
X153.89Y-78.42
X153.89Y-88.58
T3
X121.5Y-112.5
X121.5Y-102.
T4
X126.5Y-91.25
X126.5Y-93.75
X126.5Y-96.25
X126.5Y-98.75
X131.5Y-91.25
X131.5Y-93.75
X131.5Y-96.25
X131.5Y-98.75
T5
X123.8Y-107.2
T6
X133.8Y-107.2
T0
M30
